<?xml version="1.0" encoding="UTF-8" standalone="no"?>
<!-- Uploaded to: SVG Repo, www.svgrepo.com, Generator: SVG Repo Mixer Tools -->

<svg
   width="7030.000000pt"
   height="4686.000000pt"
   viewBox="0 0 7030.000000 4686.000000"
   version="1.1"
   id="svg5"
   sodipodi:docname="android_large.svg"
   inkscape:version="1.4.2 (ebf0e940d0, 2025-05-08)"
   xmlns:inkscape="http://www.inkscape.org/namespaces/inkscape"
   xmlns:sodipodi="http://sodipodi.sourceforge.net/DTD/sodipodi-0.dtd"
   xmlns="http://www.w3.org/2000/svg"
   xmlns:svg="http://www.w3.org/2000/svg">
  <defs
     id="defs5" />
  <sodipodi:namedview
     id="namedview5"
     pagecolor="#ffffff"
     bordercolor="#666666"
     borderopacity="1.0"
     inkscape:showpageshadow="2"
     inkscape:pageopacity="0.0"
     inkscape:pagecheckerboard="0"
     inkscape:deskcolor="#d1d1d1"
     inkscape:document-units="pt"
     inkscape:zoom="0.19398207"
     inkscape:cx="3706.5281"
     inkscape:cy="2201.2343"
     inkscape:window-width="2560"
     inkscape:window-height="1416"
     inkscape:window-x="0"
     inkscape:window-y="0"
     inkscape:window-maximized="1"
     inkscape:current-layer="g5" />
  <g
     id="g5"
     transform="matrix(6.176549,0,0,6.176549,2687.2869,1215.2486)">
    <path
       d="m 101.885,207.092 c 7.865,0 14.241,6.376 14.241,14.241 v 61.09 c 0,7.865 -6.376,14.24 -14.241,14.24 -7.864,0 -14.24,-6.375 -14.24,-14.24 v -61.09 c 0,-7.864 6.376,-14.24 14.24,-14.24 z"
       fill="#a4c639"
       id="path1" />
    <path
       d="m 69.374,133.645 c -0.047,0.54 -0.088,1.086 -0.088,1.638 v 92.557 c 0,9.954 7.879,17.973 17.66,17.973 h 94.124 c 9.782,0 17.661,-8.02 17.661,-17.973 v -92.557 c 0,-0.552 -0.02,-1.1 -0.066,-1.638 z"
       fill="#a4c639"
       id="path2" />
    <path
       id="path3"
       fill="#a4c639"
       d="M 126.85207 72.752884 C 95.000069 75.824884 70.185903 99.135093 69.789903 127.56509 L 198.22602 127.56509 C 197.83002 99.137093 173.01809 75.825884 141.16409 72.752884 L 126.85207 72.752884 z M 107.48991 94.871102 C 111.55791 94.860102 114.86599 98.070918 114.87799 102.04692 L 114.87799 102.087 C 114.88999 106.061 111.60094 109.29189 107.53094 109.30289 C 103.46294 109.31289 100.1551 106.10108 100.1431 102.12708 L 100.1431 102.087 C 100.1321 98.111998 103.42091 94.882102 107.48991 94.871102 z M 162.48592 94.871102 C 166.55392 94.860102 169.862 98.070918 169.874 102.04692 L 169.874 102.087 C 169.886 106.061 166.59695 109.29189 162.52695 109.30289 C 158.45895 109.31289 155.15111 106.10108 155.13911 102.12708 L 155.13911 102.087 C 155.12811 98.111998 158.41692 94.882102 162.48592 94.871102 z M 46.405002 141.8821 C 38.539002 141.8821 32.162888 148.25892 32.163888 156.12392 L 32.163888 217.21405 C 32.163888 225.07805 38.540002 231.45398 46.405002 231.45398 C 54.269002 231.45398 60.64493 225.0781 60.64493 217.2131 L 60.64493 156.12297 C 60.64493 148.25797 54.269002 141.8821 46.405002 141.8821 z M 221.61401 141.8821 C 213.74901 141.8821 207.37289 148.25892 207.37289 156.12392 L 207.37289 217.21405 C 207.37289 225.07805 213.74901 231.45398 221.61401 231.45398 C 229.47801 231.45398 235.85394 225.0781 235.85394 217.2131 L 235.85394 156.12297 C 235.85394 148.25797 229.47801 141.8821 221.61401 141.8821 z M 166.133 207.09197 L 166.133 207.09292 C 158.269 207.09292 151.89307 213.46908 151.89307 221.33308 L 151.89307 282.42298 C 151.89307 290.28798 158.269 296.6629 166.133 296.6629 C 173.998 296.6629 180.37412 290.28798 180.37412 282.42298 L 180.37412 221.33308 C 180.37412 213.46808 173.998 207.09197 166.133 207.09197 z " />
    <path
       d="m 74.743,70.009 15.022,26.02 m 103.511,-26.02 -15.023,26.02"
       fill="none"
       stroke="#a4c639"
       stroke-width="3"
       stroke-linecap="round"
       stroke-linejoin="round"
       id="path4" />
  </g>
</svg>
