<?xml version="1.0" encoding="UTF-8" standalone="no"?>
<!-- Uploaded to: SVG Repo, www.svgrepo.com, Generator: SVG Repo Mixer Tools -->

<svg
   width="7030.000000pt"
   height="4686.000000pt"
   viewBox="0 0 7030.000000 4686.000000"
   version="1.1"
   id="svg5"
   sodipodi:docname="android.svg"
   inkscape:version="1.4.2 (ebf0e940d0, 2025-05-08)"
   xmlns:inkscape="http://www.inkscape.org/namespaces/inkscape"
   xmlns:sodipodi="http://sodipodi.sourceforge.net/DTD/sodipodi-0.dtd"
   xmlns="http://www.w3.org/2000/svg"
   xmlns:svg="http://www.w3.org/2000/svg">
  <defs
     id="defs5" />
  <sodipodi:namedview
     id="namedview5"
     pagecolor="#ffffff"
     bordercolor="#666666"
     borderopacity="1.0"
     inkscape:showpageshadow="2"
     inkscape:pageopacity="0.0"
     inkscape:pagecheckerboard="0"
     inkscape:deskcolor="#d1d1d1"
     inkscape:document-units="pt"
     inkscape:zoom="1.0973283"
     inkscape:cx="4449.8988"
     inkscape:cy="2866.9633"
     inkscape:window-width="2560"
     inkscape:window-height="1416"
     inkscape:window-x="0"
     inkscape:window-y="0"
     inkscape:window-maximized="1"
     inkscape:current-layer="g5" />
  <g
     id="g5"
     transform="matrix(2.3899993,0,0,2.3899993,3194.7186,1906.6196)">
    <path
       d="m 101.885,207.092 c 7.865,0 14.241,6.376 14.241,14.241 v 61.09 c 0,7.865 -6.376,14.24 -14.241,14.24 -7.864,0 -14.24,-6.375 -14.24,-14.24 v -61.09 c 0,-7.864 6.376,-14.24 14.24,-14.24 z"
       fill="#a4c639"
       id="path1"
       style="fill:#000000" />
    <path
       d="m 69.374,133.645 c -0.047,0.54 -0.088,1.086 -0.088,1.638 v 92.557 c 0,9.954 7.879,17.973 17.66,17.973 h 94.124 c 9.782,0 17.661,-8.02 17.661,-17.973 v -92.557 c 0,-0.552 -0.02,-1.1 -0.066,-1.638 z"
       fill="#a4c639"
       id="path2"
       style="fill:#000000" />
    <path
       id="path3"
       style="fill:#000000"
       d="M 126.85189 72.752714 C 94.999891 75.824714 70.185775 99.134854 69.789775 127.56485 L 198.22596 127.56485 C 197.82996 99.136854 173.01785 75.825714 141.16385 72.752714 L 126.85189 72.752714 z M 107.49021 94.871248 C 111.55821 94.860248 114.86617 98.071146 114.87817 102.04715 L 114.87817 102.08698 C 114.89017 106.06098 111.60127 109.29172 107.53127 109.30272 C 103.46327 109.31272 100.15469 106.10082 100.14269 102.12682 L 100.14269 102.08698 C 100.13169 98.111985 103.42121 94.882248 107.49021 94.871248 z M 162.48622 94.871248 C 166.55422 94.860248 169.86218 98.071146 169.87418 102.04715 L 169.87418 102.08698 C 169.88618 106.06098 166.59728 109.29172 162.52728 109.30272 C 158.45928 109.31272 155.15071 106.10082 155.13871 102.12682 L 155.13871 102.08698 C 155.12771 98.111985 158.41722 94.882248 162.48622 94.871248 z M 46.404978 141.88171 C 38.538978 141.88171 32.163118 148.2588 32.164118 156.1238 L 32.164118 217.21393 C 32.164118 225.07793 38.539978 231.45418 46.404978 231.45418 C 54.268978 231.45418 60.645225 225.0777 60.645225 217.2127 L 60.645225 156.12319 C 60.645225 148.25819 54.268978 141.88171 46.404978 141.88171 z M 221.61383 141.88171 C 213.74883 141.88171 207.37297 148.2588 207.37297 156.1238 L 207.37297 217.21393 C 207.37297 225.07793 213.74883 231.45418 221.61383 231.45418 C 229.47783 231.45418 235.85407 225.0777 235.85407 217.2127 L 235.85407 156.12319 C 235.85407 148.25819 229.47783 141.88171 221.61383 141.88171 z M 166.13301 207.0918 L 166.13301 207.09302 C 158.26901 207.09302 151.89276 213.46927 151.89276 221.33327 L 151.89276 282.42279 C 151.89276 290.28779 158.26901 296.66303 166.13301 296.66303 C 173.99801 296.66303 180.37387 290.28779 180.37387 282.42279 L 180.37387 221.33327 C 180.37387 213.46827 173.99801 207.0918 166.13301 207.0918 z " />
    <path
       d="m 74.743,70.009 15.022,26.02 m 103.511,-26.02 -15.023,26.02"
       fill="none"
       stroke="#a4c639"
       stroke-width="3"
       stroke-linecap="round"
       stroke-linejoin="round"
       id="path4"
       style="fill:#000000;stroke:#000000" />
  </g>
</svg>
