<?xml version="1.0" encoding="UTF-8" standalone="no"?>
<svg
   width="7030.000000pt"
   height="4686.000000pt"
   viewBox="0 0 7030.000000 4686.000000"
   version="1.1"
   id="svg2"
   sodipodi:docname="android-text.svg"
   inkscape:version="1.4 (e7c3feb100, 2024-10-09)"
   xmlns:inkscape="http://www.inkscape.org/namespaces/inkscape"
   xmlns:sodipodi="http://sodipodi.sourceforge.net/DTD/sodipodi-0.dtd"
   xmlns="http://www.w3.org/2000/svg"
   xmlns:svg="http://www.w3.org/2000/svg">
  <sodipodi:namedview
     id="namedview2"
     pagecolor="#ffffff"
     bordercolor="#666666"
     borderopacity="1.0"
     inkscape:showpageshadow="2"
     inkscape:pageopacity="0.0"
     inkscape:pagecheckerboard="0"
     inkscape:deskcolor="#d1d1d1"
     inkscape:document-units="pt"
     inkscape:zoom="0.096991037"
     inkscape:cx="4917.9802"
     inkscape:cy="3783.8548"
     inkscape:window-width="2560"
     inkscape:window-height="1416"
     inkscape:window-x="0"
     inkscape:window-y="0"
     inkscape:window-maximized="1"
     inkscape:current-layer="svg2" />
  <defs
     id="defs1">
  </defs>
  <title
     id="title1">Android1</title>
  <path
     d="m 2962.5384,2309.7098 c 17.4915,0 32.0206,9.0279 38.9326,18.761 v -16.3629 h 26.6603 v 121.4526 h -19.1841 a 7.586208,7.586208 0 0 1 -7.6173,-7.6172 v -8.7457 c -6.7709,9.8742 -21.3,18.902 -38.7915,18.902 -33.2901,0 -58.5399,-28.4941 -58.5399,-63.1949 0,-34.7007 25.2498,-63.1949 58.5399,-63.1949 m 4.7961,24.2624 c -21.5822,0 -36.2525,17.0682 -36.2525,38.9325 0,21.8643 14.5292,38.9326 36.2525,38.9326 21.5821,0 36.2524,-17.0683 36.2524,-38.9326 0,-21.8643 -14.5292,-38.9325 -36.2524,-38.9325 m 91.1247,-21.8643 h 26.8014 v 16.504 c 7.3352,-12.1312 21.159,-18.9021 36.9578,-18.9021 28.212,0 46.4087,19.8895 46.4087,50.7816 v 73.0691 h -19.1841 a 7.586208,7.586208 0 0 1 -7.6173,-7.6172 v -61.079 c 0,-19.1842 -9.7331,-30.8921 -25.2497,-30.8921 -17.7736,0 -31.3154,13.8238 -31.3154,39.7789 v 59.8094 h -19.1841 a 7.586208,7.586208 0 0 1 -7.6173,-7.6172 z m 189.8668,-2.3981 c 17.4915,0 32.0207,9.0279 38.9326,18.761 v -77.0188 h 26.6603 v 182.2496 h -19.1841 a 7.586208,7.586208 0 0 1 -7.6173,-7.6172 v -8.7458 c -6.7708,9.7332 -21.4411,18.761 -38.9325,18.761 -33.2902,0 -58.5399,-28.4941 -58.5399,-63.1949 0.141,-34.7007 25.3908,-63.1949 58.6809,-63.1949 m 4.7961,24.2624 c -21.5822,0 -36.2525,17.0682 -36.2525,38.9325 0,21.8643 14.5292,38.9326 36.2525,38.9326 21.5822,0 36.2524,-17.0683 36.2524,-38.9326 0,-21.8643 -14.6702,-38.9325 -36.2524,-38.9325 m 91.1247,-21.8643 h 26.6604 v 21.5821 a 34.221161,34.221161 0 0 1 32.0206,-22.8517 54.33491,54.33491 0 0 1 10.4385,0.9874 v 27.5067 a 43.081141,43.081141 0 0 0 -13.4007,-2.2569 c -15.3756,0 -29.1995,12.8364 -29.1995,37.2398 v 59.2452 h -19.1841 a 7.586208,7.586208 0 0 1 -7.6173,-7.6172 v -113.8354 z m 141.3422,123.9917 c -35.9703,0 -63.6181,-27.9299 -63.6181,-63.1949 0,-35.265 27.6478,-63.1949 63.6181,-63.1949 35.9703,0 63.6181,27.9299 63.6181,63.1949 0,35.265 -27.6478,63.1949 -63.6181,63.1949 m 0,-24.8265 c 21.4411,0 36.3935,-16.7862 36.3935,-38.3684 0,-21.5822 -15.0935,-38.3683 -36.3935,-38.3683 -21.5822,0 -36.6756,16.7861 -36.6756,38.3683 0,21.5822 15.0934,38.3684 36.6756,38.3684 m 98.6009,-125.6845 a 18.031703,18.031703 0 0 1 -17.9146,-17.9147 18.09659,18.09659 0 0 1 17.9146,-17.7735 17.8441,17.8441 0 0 1 0,35.6882 m -13.2596,26.5193 h 26.6603 v 121.4526 h -19.0431 a 7.586208,7.586208 0 0 1 -7.6172,-7.6172 z m 107.2056,-2.3981 c 17.4915,0 32.0206,9.0279 38.9326,18.761 v -77.0188 h 26.6603 v 182.2496 h -19.1841 a 7.586208,7.586208 0 0 1 -7.6173,-7.6172 v -8.7458 c -6.7709,9.7332 -21.4411,18.761 -38.9325,18.761 -33.2902,0 -58.54,-28.4941 -58.54,-63.1949 0.1411,-34.7007 25.3909,-63.1949 58.681,-63.1949 m 4.9371,24.2624 c -21.5822,0 -36.2524,17.0682 -36.2524,38.9325 0,21.8643 14.5292,38.9326 36.2524,38.9326 21.5822,0 36.2524,-17.0683 36.2524,-38.9326 0,-21.8643 -14.6702,-38.9325 -36.2524,-38.9325"
     id="path1"
     style="fill:#000000;stroke-width:1.4106" />
  <path
     class="a"
     d="m 4038.6853,2387.716 a 13.541762,13.541762 0 1 1 13.5418,-13.5417 13.541762,13.541762 0 0 1 -13.5418,13.5417 m -149.1004,0 a 13.541762,13.541762 0 1 1 13.5418,-13.5417 13.541762,13.541762 0 0 1 -13.5418,13.5417 m 153.8965,-81.2505 27.0835,-46.6909 a 5.5902087,5.5902087 0 1 0 -9.7331,-5.5014 l -27.3657,47.2552 a 165.29131,165.29131 0 0 0 -69.2605,-14.9524 168.07584,168.07584 0 0 0 -69.4015,14.8113 l -27.3656,-47.2551 a 5.5902087,5.5902087 0 0 0 -9.7332,5.5013 l 26.9425,46.6909 a 159.54876,159.54876 0 0 0 -82.6612,127.5183 h 324.0149 a 158.73484,158.73484 0 0 0 -82.5201,-127.3772"
     id="path2"
     style="fill:#3ddc84;stroke-width:1.4106" />
</svg>
