<?xml version="1.0" encoding="UTF-8" standalone="no"?>
<svg
   id="Ebene_1"
   data-name="Ebene 1"
   width="7030.000000pt"
   height="4686.000000pt"
   viewBox="0 0 7030.000000 4686.000000"
   version="1.1"
   sodipodi:docname="anexia-inverse.svg"
   inkscape:version="1.2.2 (b0a8486541, 2022-12-01)"
   xmlns:inkscape="http://www.inkscape.org/namespaces/inkscape"
   xmlns:sodipodi="http://sodipodi.sourceforge.net/DTD/sodipodi-0.dtd"
   xmlns="http://www.w3.org/2000/svg"
   xmlns:svg="http://www.w3.org/2000/svg">
  <defs
     id="defs71" />
  <sodipodi:namedview
     id="namedview69"
     pagecolor="#ffffff"
     bordercolor="#000000"
     borderopacity="0.25"
     inkscape:showpageshadow="2"
     inkscape:pageopacity="0.0"
     inkscape:pagecheckerboard="0"
     inkscape:deskcolor="#d1d1d1"
     inkscape:document-units="pt"
     showgrid="false"
     inkscape:zoom="0.05813597"
     inkscape:cx="3921.8405"
     inkscape:cy="1900.7165"
     inkscape:window-width="1896"
     inkscape:window-height="1016"
     inkscape:window-x="1932"
     inkscape:window-y="52"
     inkscape:window-maximized="1"
     inkscape:current-layer="Ebene_1" />
  <title
     id="title50">anexia</title>
  <g
     id="g418"
     transform="matrix(11.46181,0,0,11.46181,2369.2927,1873.432)">
    <path
       d="m 47.59,60.21 h -5.48 l -0.42,-0.43 0.12,-3.26 h -0.25 a 9.91,9.91 0 0 1 -8.3,4.3 C 29,60.82 25,59.1 25,52.21 c 0,-6.89 5.23,-9.29 10.71,-9.29 h 6 v -2.76 c 0,-2.77 -2,-4.37 -5.42,-4.37 A 78.85,78.85 0 0 0 27.74,36.4 L 27.29,36 v -4.7 a 91.38,91.38 0 0 1 10,-0.62 c 4.67,0 10.27,1.23 10.27,8.12 z M 41.69,47.6 h -4.37 c -4.19,0 -6.34,0.92 -6.34,4.25 0,3.33 2.34,3.87 4.49,3.87 a 7.35,7.35 0 0 0 6.22,-3.08 z"
       style="fill:#000000"
       id="path54" />
    <path
       d="M 76.81,60.21 H 70.9 V 39.73 c 0,-3.2 -1.78,-3.94 -4.12,-3.94 -2.09,0 -4.12,0.92 -6.58,3.75 v 20.67 h -6 V 31.3 h 5.54 l 0.43,0.43 -0.09,3.27 h 0.24 a 9.77,9.77 0 0 1 8.25,-4.31 c 4.67,0 8.24,1.78 8.24,8.67 z"
       style="fill:#000000"
       id="path56" />
    <path
       d="M 104.25,47.6 H 88.81 v 3 c 0,4.43 2.88,4.92 6.33,4.92 a 57,57 0 0 0 7.75,-0.61 l 0.43,0.43 v 4.86 a 80.15,80.15 0 0 1 -9.59,0.61 c -5.11,0 -10.89,-1.59 -10.89,-8.48 V 39.85 c 0,-7.2 5.84,-9.17 11.32,-9.17 5.48,0 11.26,1.78 11.26,9.17 a 56.53,56.53 0 0 1 -0.56,7.13 z M 88.81,39.42 v 3.5 H 99 a 17.6,17.6 0 0 0 0.24,-3.44 c -0.12,-2.77 -2.09,-3.69 -5,-3.69 -3.24,0 -5.43,1.11 -5.43,3.63 z"
       style="fill:#000000"
       id="path58" />
    <path
       d="m 134.33,60.21 h -7.14 l -5.66,-9.72 -7.75,13.19 h -7.14 L 117.72,45.57 108.92,31.3 H 116 l 5.53,9.59 5.47,-9.59 h 7.07 l -8.8,14.27 z"
       style="fill:#000000"
       id="path60" />
    <path
       d="m 144.78,31.3 v 28.91 h -6 V 31.3 Z"
       style="fill:#000000"
       id="path62" />
    <path
       d="m 172.71,60.21 h -5.47 l -0.44,-0.43 0.13,-3.26 h -0.25 a 9.91,9.91 0 0 1 -8.3,4.3 c -4.25,0 -8.24,-1.72 -8.24,-8.61 0,-6.89 5.22,-9.29 10.7,-9.29 h 6 v -2.76 c 0,-2.77 -2,-4.37 -5.41,-4.37 a 78.85,78.85 0 0 0 -8.55,0.61 l -0.43,-0.43 V 31.3 a 91.38,91.38 0 0 1 10,-0.62 c 4.67,0 10.27,1.23 10.27,8.12 z M 166.8,47.6 h -4.36 c -4.19,0 -6.34,0.92 -6.34,4.25 0,3.33 2.34,3.87 4.49,3.87 a 7.32,7.32 0 0 0 6.21,-3.08 z"
       style="fill:#000000"
       id="path64" />
    <polygon
       points="146.74,21.49 145.55,22.9 147.04,23.99 145.33,24.68 146.15,26.34 144.31,26.16 144.27,28 142.72,27 141.83,28.61 140.93,27 139.39,28 139.34,26.16 137.5,26.34 138.32,24.68 136.61,23.99 138.1,22.9 136.92,21.49 138.74,21.22 138.34,19.42 140.08,20.03 140.57,18.25 141.83,19.6 143.08,18.25 143.57,20.03 145.31,19.42 144.91,21.22 "
       style="fill:#000000"
       id="polygon66" />
  </g>
</svg>
