<?xml version="1.0" encoding="UTF-8" standalone="no"?>
<svg
   id="svg2"
   width="7030.000000pt"
   height="4686.000000pt"
   viewBox="0 0 7030.000000 4686.000000"
   version="1.1"
   sodipodi:docname="apple.svg"
   inkscape:version="1.4 (e7c3feb100, 2024-10-09)"
   xmlns:inkscape="http://www.inkscape.org/namespaces/inkscape"
   xmlns:sodipodi="http://sodipodi.sourceforge.net/DTD/sodipodi-0.dtd"
   xmlns="http://www.w3.org/2000/svg"
   xmlns:svg="http://www.w3.org/2000/svg"
   xmlns:rdf="http://www.w3.org/1999/02/22-rdf-syntax-ns#"
   xmlns:cc="http://creativecommons.org/ns#"
   xmlns:dc="http://purl.org/dc/elements/1.1/">
  <sodipodi:namedview
     id="namedview1"
     pagecolor="#ffffff"
     bordercolor="#666666"
     borderopacity="1.0"
     inkscape:showpageshadow="2"
     inkscape:pageopacity="0.0"
     inkscape:pagecheckerboard="0"
     inkscape:deskcolor="#d1d1d1"
     inkscape:document-units="pt"
     inkscape:zoom="0.19398207"
     inkscape:cx="4686"
     inkscape:cy="3124"
     inkscape:window-width="2560"
     inkscape:window-height="1416"
     inkscape:window-x="0"
     inkscape:window-y="0"
     inkscape:window-maximized="1"
     inkscape:current-layer="svg2" />
  <metadata
     id="metadata10">
    <rdf:RDF>
      <cc:Work
         rdf:about="">
        <dc:format>image/svg+xml</dc:format>
        <dc:type
           rdf:resource="http://purl.org/dc/dcmitype/StillImage" />
        <dc:title />
      </cc:Work>
    </rdf:RDF>
  </metadata>
  <defs
     id="defs8" />
  <path
     id="path4"
     fill="#000000"
     d="m 4026.6622,2697.168 c -19.1765,44.3016 -41.8751,85.0817 -68.175,122.5739 -35.8482,51.111 -65.2004,86.49 -87.8207,106.1365 -35.0658,32.2477 -72.6363,48.7628 -112.8675,49.7019 -28.8822,0 -63.713,-8.2184 -104.2582,-24.8901 -40.678,-16.5935 -78.0605,-24.8118 -112.2417,-24.8118 -35.8482,0 -74.2951,8.2183 -115.4192,24.8118 -41.1866,16.6717 -74.366,25.36 -99.7335,26.2208 -38.5805,1.644 -77.0357,-15.3411 -115.42,-51.0326 -24.4985,-21.3688 -55.1418,-57.9994 -91.8516,-109.8936 -39.386,-55.4163 -71.7673,-119.6776 -97.1355,-192.9397 -27.1674,-79.1331 -40.7869,-155.7608 -40.7869,-229.947 0,-84.9796 18.3627,-158.273 55.1426,-219.6931 28.9053,-49.3342 67.3605,-88.2511 115.4893,-116.8201 48.1296,-28.5696 100.1334,-43.1275 156.1367,-44.0591 30.6433,0 70.8282,9.4782 120.7651,28.1072 49.7967,18.6909 81.7707,28.1699 95.7892,28.1699 10.4808,0 46,-11.0834 106.2148,-33.1794 56.9424,-20.4915 105.0011,-28.9762 144.3723,-25.6338 106.6839,8.61 186.8344,50.6649 240.1368,126.4325 -95.4125,57.8114 -142.6104,138.7832 -141.6713,242.6573 0.8608,80.9099 30.2129,148.2391 87.899,201.6989 26.1425,24.8118 55.338,43.9883 87.8207,57.6078 -7.0443,20.4288 -14.4803,39.9969 -22.3854,58.7818 z M 3781.985,1734.3477 c 0,63.4169 -23.1686,122.6284 -69.3491,177.4346 -55.7296,65.1533 -123.1371,102.8022 -196.2351,96.861 -0.9309,-7.6082 -1.4709,-15.6155 -1.4709,-24.0293 0,-60.8801 26.5028,-126.0335 73.5672,-179.3046 23.4975,-26.9727 53.3815,-49.3998 89.6213,-67.2903 36.1615,-17.6236 70.3657,-27.3703 102.5359,-29.0389 0.9391,8.478 1.3307,16.9559 1.3307,25.3668 z"
     style="stroke-width:7.45906" />
</svg>
