<?xml version="1.0" standalone="no"?>
<!DOCTYPE svg PUBLIC "-//W3C//DTD SVG 20010904//EN"
 "http://www.w3.org/TR/2001/REC-SVG-20010904/DTD/svg10.dtd">
<svg version="1.0" xmlns="http://www.w3.org/2000/svg"
 width="7030.000000pt" height="4686.000000pt" viewBox="0 0 7030.000000 4686.000000"
 preserveAspectRatio="xMidYMid meet">
<metadata>
Created by potrace 1.16, written by Peter Selinger 2001-2019
</metadata>
<g transform="translate(0.000000,4686.000000) scale(0.100000,-0.100000)"
fill="#000000" stroke="none">
<path d="M10390 25575 c-96 -119 -176 -220 -178 -225 -4 -10 352 -432 368
-438 7 -2 253 286 358 419 11 14 -13 47 -174 238 -102 121 -189 221 -193 221
-3 0 -85 -97 -181 -215z"/>
<path d="M38090 25572 c-96 -119 -174 -221 -174 -227 2 -17 364 -437 373 -433
15 6 362 429 359 438 -7 19 -364 439 -373 439 -5 0 -89 -98 -185 -217z"/>
<path d="M31953 25703 l-273 -46 0 -2098 c0 -1155 1 -2099 3 -2099 1 1 128 22
282 48 l280 48 5 950 c6 943 6 950 28 1034 31 115 99 251 167 333 160 193 420
293 710 272 333 -24 505 -143 582 -402 16 -53 18 -150 21 -1171 l3 -1113 32 6
c18 3 145 25 282 49 l250 42 0 1115 c0 1041 -1 1120 -18 1199 -78 361 -325
613 -712 725 -245 71 -590 73 -835 5 -173 -48 -362 -166 -444 -279 -21 -28
-44 -51 -52 -51 -12 0 -14 111 -16 737 -2 480 -6 737 -13 739 -5 1 -133 -18
-282 -43z"/>
<path d="M36953 25702 l-273 -46 0 -2083 0 -2083 33 1 c17 0 145 15 282 32
l250 33 3 2097 c2 1675 0 2097 -10 2096 -7 0 -136 -22 -285 -47z"/>
<path d="M50412 25702 l-272 -46 2 -1515 3 -1516 32 -117 c60 -223 172 -413
345 -589 336 -340 792 -499 1292 -450 370 36 674 164 936 394 295 257 466 595
511 1009 15 139 5 405 -20 528 -68 333 -230 619 -481 853 -275 255 -575 379
-950 394 -290 11 -546 -46 -755 -169 -100 -59 -224 -158 -289 -230 l-56 -63 0
783 c0 619 -3 782 -12 781 -7 0 -136 -22 -286 -47z m1428 -1593 c310 -38 595
-250 746 -554 74 -149 104 -270 111 -446 14 -345 -94 -621 -332 -847 -196
-187 -394 -263 -680 -263 -297 1 -514 90 -721 296 -144 143 -229 289 -282 483
-23 88 -26 114 -26 277 1 163 3 189 27 280 49 182 131 327 261 464 232 243
552 353 896 310z"/>
<path d="M54230 25360 l-275 -67 -3 -366 -2 -366 -132 -3 -132 -3 -98 -245
c-54 -134 -98 -248 -98 -252 0 -5 103 -8 229 -8 l230 0 3 -887 c4 -798 6 -897
22 -972 76 -364 303 -607 652 -697 79 -20 133 -27 264 -31 162 -6 426 10 443
26 10 9 103 498 97 505 -3 2 -59 -3 -125 -10 -163 -20 -380 -20 -475 0 -41 9
-99 28 -128 42 -97 47 -153 158 -172 337 -5 51 -10 447 -10 889 l0 798 403 2
402 3 0 250 0 250 -402 3 -403 2 0 435 c0 239 -3 434 -7 434 -5 -1 -132 -32
-283 -69z"/>
<path d="M28045 24654 c-236 -49 -361 -113 -513 -264 -78 -78 -175 -210 -230
-314 l-27 -51 -3 313 c-1 171 -6 312 -10 312 -4 0 -122 -20 -262 -45 -140 -25
-258 -45 -262 -45 -5 0 -8 -698 -8 -1551 l0 -1551 23 5 c12 3 140 25 285 48
l262 44 0 746 c0 448 4 788 10 850 36 356 194 652 427 803 128 83 298 136 435
136 35 0 68 4 74 8 6 4 45 90 87 192 41 102 93 227 115 278 l41 92 -212 -1
c-117 -1 -221 -3 -232 -5z"/>
<path d="M10573 24605 c-139 -23 -259 -45 -268 -48 -13 -6 -15 -171 -15 -1553
l0 -1546 23 5 c12 3 140 25 285 48 l262 44 0 1547 c0 1468 -1 1548 -17 1547
-10 -1 -131 -20 -270 -44z"/>
<path d="M13545 24614 c-110 -18 -231 -38 -268 -45 l-68 -11 3 -1141 3 -1142
23 -80 c35 -125 69 -203 128 -292 199 -299 601 -462 1084 -440 345 17 604 139
808 382 l42 50 0 -218 0 -218 33 6 c17 3 142 25 277 48 l245 42 3 1548 c1 851
0 1547 -2 1547 -3 0 -127 -20 -278 -45 -150 -25 -276 -45 -280 -45 -5 0 -8
-399 -8 -887 0 -948 -2 -1001 -51 -1153 -103 -325 -358 -523 -705 -549 -400
-29 -671 121 -739 411 -13 54 -15 224 -15 1166 0 1043 -1 1102 -17 1101 -10
-1 -108 -16 -218 -35z"/>
<path d="M17145 24644 c-148 -24 -308 -84 -410 -154 -175 -121 -309 -306 -370
-516 -36 -120 -45 -312 -21 -434 51 -263 252 -473 561 -587 22 -8 112 -37 200
-65 399 -125 586 -241 667 -415 59 -126 35 -265 -63 -361 -52 -51 -179 -115
-262 -132 -71 -14 -237 -15 -299 -1 -141 32 -260 102 -390 229 l-87 85 -24
-19 c-14 -11 -101 -84 -195 -164 l-170 -144 21 -31 c37 -52 189 -198 262 -253
179 -133 412 -206 700 -219 343 -15 631 87 843 297 181 179 264 389 264 670
-1 268 -69 449 -228 605 -101 99 -152 122 -552 255 -424 141 -508 178 -587
255 -81 79 -100 127 -100 250 1 113 17 162 75 229 83 95 284 143 479 116 149
-20 233 -64 395 -205 l85 -75 163 180 c90 100 164 185 166 189 4 13 -133 134
-234 207 -140 100 -252 148 -439 190 -69 15 -387 28 -450 18z"/>
<path d="M19979 24635 c-359 -58 -642 -217 -902 -505 -137 -152 -240 -326
-302 -514 -62 -186 -70 -244 -70 -511 1 -223 3 -249 28 -370 51 -236 129 -430
244 -601 231 -341 534 -548 928 -633 388 -84 778 -35 1130 144 107 54 360 206
424 254 l25 19 -55 296 c-33 180 -58 295 -64 292 -6 -2 -63 -42 -128 -89 -139
-102 -290 -194 -445 -271 -202 -101 -376 -147 -552 -147 -250 0 -459 90 -645
275 -60 61 -155 185 -155 203 0 6 33 30 73 55 39 25 243 154 452 288 209 134
551 352 760 485 652 416 810 516 814 520 2 2 -7 21 -20 42 -163 266 -429 528
-654 641 -86 43 -221 89 -333 113 -128 27 -427 35 -553 14z m427 -530 c106
-19 247 -83 313 -141 l44 -40 -229 -146 c-126 -80 -398 -252 -604 -383 -206
-131 -438 -278 -514 -327 -82 -52 -143 -85 -148 -80 -15 15 -10 239 6 332 76
429 401 738 831 789 113 13 206 12 301 -4z"/>
<path d="M24740 24644 c-236 -30 -617 -97 -632 -112 -8 -8 -159 -574 -155
-578 2 -2 49 14 104 36 273 107 606 150 948 121 368 -31 485 -110 525 -353 11
-67 14 -348 4 -348 -3 0 -29 21 -57 46 -105 94 -275 176 -437 211 -129 27
-418 25 -559 -6 -225 -48 -428 -154 -591 -308 -248 -233 -350 -557 -294 -931
39 -266 142 -474 325 -659 151 -153 307 -236 534 -285 92 -20 406 -16 530 6
241 44 430 144 540 286 83 108 74 120 75 -107 0 -112 3 -203 8 -202 4 0 117
22 252 47 l245 48 0 1084 c0 1188 2 1151 -60 1365 -126 437 -448 631 -1065
640 -113 2 -221 1 -240 -1z m220 -1464 c172 -21 313 -80 419 -177 113 -102
153 -200 155 -378 1 -138 -11 -199 -61 -302 -103 -213 -324 -322 -653 -324
-204 -1 -337 33 -449 116 -111 82 -179 199 -206 352 -41 236 5 407 147 537
153 143 390 207 648 176z"/>
<path d="M29850 24635 c-476 -70 -885 -374 -1112 -830 -118 -235 -167 -462
-168 -767 0 -401 117 -723 374 -1027 232 -275 521 -451 859 -523 153 -32 431
-32 576 0 300 67 585 226 796 441 l50 51 -180 180 c-99 99 -183 180 -188 180
-4 0 -45 -33 -90 -73 -233 -206 -390 -268 -677 -268 -138 0 -232 22 -346 79
-274 138 -496 411 -576 710 -26 98 -36 335 -18 453 50 343 284 668 577 800
121 55 219 73 398 73 264 -1 382 -37 598 -181 73 -48 135 -88 138 -88 8 0 339
377 339 386 0 11 -100 87 -200 152 -215 140 -428 218 -688 252 -129 17 -345
17 -462 0z"/>
<path d="M38340 24615 c-107 -18 -228 -38 -268 -45 l-72 -12 0 -1550 c0 -1509
1 -1550 19 -1545 10 2 136 24 280 48 l261 44 0 1547 c0 1232 -3 1548 -12 1547
-7 -1 -101 -16 -208 -34z"/>
<path d="M39595 24614 c-110 -19 -230 -39 -267 -45 l-68 -11 0 -1549 0 -1549
38 6 c20 3 147 25 282 48 l245 41 6 935 c6 978 5 956 48 1095 34 113 105 236
183 321 93 101 247 187 393 220 105 24 336 24 450 0 232 -49 374 -186 419
-408 14 -68 16 -213 16 -1169 l0 -1091 23 5 c12 3 140 25 285 49 l263 43 -3
1130 -3 1130 -26 95 c-15 52 -41 126 -57 163 -166 366 -559 577 -1072 577
-394 0 -684 -122 -863 -363 l-52 -70 -3 216 c-2 199 -4 217 -20 216 -9 -1
-107 -16 -217 -35z"/>
<path d="M42895 24614 c-110 -18 -230 -39 -267 -45 l-68 -11 0 -1086 c0 -1178
1 -1190 55 -1357 108 -331 395 -553 816 -631 136 -26 452 -26 569 -1 153 33
283 88 403 169 61 42 177 151 220 208 l27 35 0 -212 c0 -116 3 -214 8 -216 4
-3 130 16 280 42 l272 46 0 1547 c0 852 -2 1548 -5 1548 -19 0 -549 -91 -556
-96 -5 -3 -9 -369 -9 -903 0 -760 -2 -912 -15 -987 -36 -205 -101 -341 -225
-464 -166 -166 -339 -231 -610 -231 -372 0 -602 160 -650 453 -6 40 -10 458
-10 1146 0 1024 -1 1082 -17 1081 -10 -1 -108 -16 -218 -35z"/>
<path d="M46040 24643 c-37 -15 -445 -195 -448 -198 -2 -2 202 -290 453 -640
266 -370 455 -641 452 -650 -3 -7 -225 -330 -492 -716 -268 -387 -489 -708
-492 -715 -4 -12 30 -29 315 -161 139 -64 165 -74 176 -62 8 8 195 284 416
614 221 330 408 606 415 613 14 15 -1 35 470 -648 386 -559 407 -590 414 -590
3 -1 115 55 248 122 151 77 241 128 238 135 -2 7 -243 330 -535 718 l-530 705
48 67 c27 38 172 246 322 463 151 217 332 478 402 579 71 102 125 188 121 191
-20 17 -467 180 -474 173 -12 -13 -701 -1056 -706 -1071 -3 -7 -9 -12 -14 -10
-8 3 -173 234 -604 846 -93 133 -172 241 -175 241 -3 0 -12 -3 -20 -6z"/>
<path d="M55630 24603 c-140 -24 -256 -46 -258 -48 -2 -2 56 -144 128 -317
209 -496 329 -782 455 -1083 64 -154 170 -406 235 -560 65 -154 171 -406 235
-560 65 -154 145 -345 178 -424 52 -125 62 -142 73 -127 10 15 998 1937 1029
2003 5 13 13 23 16 23 3 0 236 -452 518 -1004 282 -552 518 -1012 525 -1021
13 -18 -23 -101 524 1180 290 678 757 1772 785 1838 11 26 17 50 14 53 -6 6
-538 96 -542 92 -2 -2 -53 -124 -115 -273 -62 -148 -161 -387 -220 -530 -59
-143 -157 -379 -218 -525 -60 -146 -140 -339 -178 -430 -37 -91 -70 -168 -73
-172 -4 -4 -59 93 -123 215 -64 122 -167 319 -229 437 -248 474 -361 689 -509
973 -85 163 -158 297 -162 297 -6 0 -142 -258 -373 -705 -48 -93 -145 -280
-215 -415 -70 -135 -192 -369 -270 -520 -79 -151 -145 -277 -146 -279 -9 -11
5 -44 -569 1374 -178 439 -227 550 -241 552 -11 0 -134 -19 -274 -44z"/>
</g>
</svg>
