<?xml version="1.0" standalone="no"?>
<!DOCTYPE svg PUBLIC "-//W3C//DTD SVG 20010904//EN"
 "http://www.w3.org/TR/2001/REC-SVG-20010904/DTD/svg10.dtd">
<svg version="1.0" xmlns="http://www.w3.org/2000/svg"
 width="7030.000000pt" height="4687.000000pt" viewBox="0 0 7030.000000 4687.000000"
 preserveAspectRatio="xMidYMid meet">
<metadata>
Created by potrace 1.16, written by Peter Selinger 2001-2019
</metadata>
<g transform="translate(0.000000,4687.000000) scale(0.100000,-0.100000)"
stroke="none">
<path fill="#1094d2" d="M25018 27749 c-417 -1042 -717 -1758 -940 -2242 l-100 -218 88 -95
c214 -233 586 -561 891 -784 56 -41 100 -76 99 -78 -6 -5 -262 111 -417 189
-264 132 -515 286 -694 427 -49 39 -90 70 -91 69 -1 -1 -140 -276 -308 -612
-576 -1152 -1291 -2486 -2503 -4673 -184 -332 -332 -606 -330 -608 3 -3 108
53 233 124 1266 715 2234 1128 3042 1298 l134 28 -6 30 c-20 99 -37 211 -47
314 -14 141 -6 434 16 582 81 552 336 991 668 1149 104 50 171 65 277 65 195
0 374 -86 538 -258 206 -218 354 -549 423 -947 21 -118 23 -167 23 -409 0
-240 -2 -291 -22 -399 -12 -67 -20 -126 -17 -131 2 -4 24 -10 47 -14 80 -13
372 -88 551 -142 677 -206 1461 -565 2482 -1137 138 -77 261 -147 274 -156 24
-15 24 -15 11 9 -11 21 -301 560 -641 1189 l-78 144 -223 180 c-461 372 -762
579 -1131 777 -54 29 -96 54 -94 57 12 11 416 -117 612 -194 146 -58 382 -169
473 -222 28 -17 52 -29 52 -26 0 4 -103 198 -229 433 -722 1350 -1128 2129
-1584 3042 -528 1056 -727 1493 -1347 2960 -130 307 -125 297 -132 279z"/>
<path fill="#ffffff" d="M36677 25885 c-192 -45 -352 -86 -357 -91 -4 -5 -6 -881 -3 -1946 6
-1767 7 -1938 22 -1938 9 1 169 29 356 63 l340 62 6 919 c4 506 10 937 13 958
17 103 129 238 263 317 148 88 358 131 543 112 108 -12 161 -26 241 -65 77
-38 147 -102 189 -172 l35 -58 7 -1069 c3 -588 9 -1071 12 -1075 6 -5 501 78
659 110 l47 10 0 1136 c0 729 -4 1150 -10 1173 -14 51 -78 145 -141 208 -224
225 -590 375 -970 400 -270 18 -540 -20 -716 -99 -58 -26 -250 -161 -498 -349
-152 -116 -143 -110 -118 -76 54 76 223 263 332 367 l121 115 0 190 c0 300
-13 883 -19 882 -3 0 -163 -38 -354 -84z"/>
<path fill="#1094d2" d="M39850 25916 c-69 -18 -138 -36 -154 -40 l-29 -7 5 -1945 c3 -1069 7
-1946 9 -1949 6 -6 316 48 324 57 12 12 -7 3918 -19 3917 -6 0 -67 -15 -136
-33z"/>
<path fill="#1094d2" d="M40612 25810 c-62 -51 -112 -96 -110 -100 5 -14 179 -210 186 -210
14 0 222 181 222 193 0 7 -42 56 -93 111 l-92 98 -113 -92z"/>
<path fill="#ffffff" d="M29725 25079 c-200 -19 -546 -86 -601 -117 -15 -8 -31 -83 -86 -378
-37 -202 -66 -369 -65 -371 2 -2 78 15 168 36 418 101 651 136 854 128 356
-15 495 -107 512 -339 l6 -83 -39 37 c-86 82 -231 146 -384 169 -97 15 -418 6
-528 -15 -526 -98 -838 -357 -928 -771 -24 -110 -24 -383 0 -515 20 -111 63
-245 105 -327 188 -370 593 -597 1066 -596 271 0 495 67 689 204 42 30 162
145 291 278 121 125 221 226 223 225 6 -4 -146 -253 -206 -338 -30 -43 -86
-116 -124 -161 -68 -83 -68 -84 -68 -145 l0 -62 28 6 c15 3 151 26 302 51 151
25 287 48 301 51 l26 5 7 1022 c7 1062 5 1151 -34 1302 -41 161 -98 268 -203
381 -170 183 -426 288 -786 324 -119 12 -395 11 -526 -1z m403 -1589 c207 -58
339 -185 372 -358 26 -133 -13 -245 -121 -347 -152 -143 -398 -214 -595 -170
-190 42 -342 152 -421 305 -25 49 -28 65 -28 150 0 82 4 103 26 150 65 136
215 243 404 286 84 19 268 11 363 -16z"/>
<path fill="#ffffff" d="M32040 24981 l-325 -56 -3 -1492 c-1 -821 1 -1493 5 -1493 5 -1 178
32 386 72 l377 72 0 835 c0 535 4 859 11 901 15 93 59 168 149 254 149 142
349 228 567 243 l92 6 52 106 c62 128 259 586 259 602 0 9 -41 11 -164 6 -310
-13 -520 -53 -686 -132 -88 -43 -104 -55 -217 -172 l-123 -126 0 216 0 217
-27 -1 c-16 -1 -174 -26 -353 -58z"/>
<path fill="#ffffff" d="M34590 24989 c-289 -30 -534 -111 -743 -245 -82 -53 -221 -186 -288
-274 -55 -72 -137 -226 -174 -325 -110 -292 -140 -716 -75 -1045 137 -682 669
-1108 1448 -1159 392 -25 736 59 1020 251 76 51 246 207 284 260 l19 28 -203
198 c-112 109 -219 213 -239 230 l-36 31 -69 -67 c-202 -198 -468 -293 -731
-262 -204 25 -356 95 -502 234 -195 187 -292 455 -261 728 38 337 257 567 627
660 125 32 371 32 488 0 110 -30 286 -119 368 -187 37 -31 72 -53 77 -50 21
13 460 528 460 539 0 7 -24 33 -54 59 -204 176 -484 312 -756 367 -191 38
-452 50 -660 29z"/>
<path fill="#1094d2" d="M42600 24864 c-14 -2 -56 -9 -95 -15 -325 -52 -593 -246 -738 -534
l-34 -67 -6 138 c-4 75 -7 202 -7 281 0 130 -2 143 -17 143 -36 -1 -295 -58
-302 -66 -7 -9 2 -2791 10 -2798 2 -2 76 15 164 38 l160 42 5 949 5 950 43 85
c155 311 548 530 952 530 344 0 613 -176 715 -467 l25 -68 0 -1031 c0 -567 2
-1033 5 -1036 3 -2 68 9 145 25 l140 30 -1 471 c-1 259 -4 750 -8 1091 l-7
620 -27 78 c-109 315 -340 517 -672 589 -86 19 -389 33 -455 22z"/>
<path fill="#1094d2" d="M40694 24759 l-131 -60 5 -1367 c2 -752 6 -1369 8 -1371 3 -3 97 13
227 41 l47 10 0 1404 c0 1117 -3 1404 -12 1403 -7 0 -72 -28 -144 -60z"/>
<path fill="#1094d2" d="M44423 24767 l-153 -31 1 -446 c1 -245 4 -735 8 -1090 7 -635 8 -646
30 -715 104 -318 338 -524 682 -600 111 -24 380 -31 504 -12 350 54 635 251
778 538 l34 69 6 -98 c4 -53 7 -181 7 -283 l0 -186 148 29 c81 16 153 32 161
36 11 6 13 173 12 1052 0 575 -4 1205 -7 1401 l-7 356 -158 -40 -159 -39 0
-853 c0 -737 -2 -864 -16 -936 -87 -459 -499 -748 -1035 -726 -68 2 -151 12
-184 21 -204 57 -351 200 -423 411 l-27 80 -3 1048 -3 1047 -22 -1 c-12 -1
-91 -15 -174 -32z"/>
<path fill="#1094d2" d="M47182 24688 c-57 -44 -106 -87 -109 -94 -2 -7 192 -270 432 -584
240 -314 434 -577 432 -584 -3 -7 -211 -305 -462 -661 -252 -356 -459 -655
-461 -664 -3 -11 32 -42 103 -95 58 -43 113 -80 122 -82 11 -3 144 176 451
607 239 336 438 613 441 615 4 2 210 -278 459 -624 248 -345 457 -627 464
-627 16 0 215 157 215 170 0 6 -216 309 -480 675 -264 366 -483 670 -486 677
-2 7 168 254 378 550 211 296 383 545 383 554 1 18 -211 202 -227 196 -5 -1
-166 -226 -356 -498 -191 -271 -352 -494 -358 -494 -6 0 -194 234 -418 520
-224 286 -410 521 -414 522 -3 1 -52 -34 -109 -79z"/>
<path fill="#818181" d="M49622 22413 c2 -13 14 -19 46 -21 l42 -3 0 -120 c0 -109 2 -120 18
-117 15 3 18 19 22 123 l5 120 40 0 c29 0 40 4 40 15 0 12 -20 16 -108 18
-100 2 -108 1 -105 -15z"/>
<path fill="#818181" d="M49874 22417 c-2 -7 -3 -69 -2 -137 3 -109 5 -125 20 -128 15 -3 18
9 20 105 l3 108 36 -105 c47 -139 59 -140 108 -5 l36 100 5 -100 c4 -80 8
-100 20 -100 13 0 15 22 15 135 l0 135 -24 0 c-22 0 -28 -10 -60 -107 -19 -60
-38 -108 -42 -108 -4 0 -24 50 -44 110 -33 100 -39 110 -61 110 -14 0 -27 -6
-30 -13z"/>
<path fill="#818181" d="M29310 20136 c0 -10 14 -16 43 -18 l42 -3 3 -117 c2 -95 5 -118 17
-118 12 0 15 23 17 118 l3 117 43 3 c28 2 42 8 42 18 0 11 -20 14 -105 14 -85
0 -105 -3 -105 -14z"/>
<path fill="#818181" d="M29560 20016 c0 -113 2 -136 15 -136 11 0 15 21 17 108 l3 107 39
-108 c29 -82 43 -107 55 -105 10 2 29 40 53 108 l37 105 0 -108 c1 -98 3 -108
19 -105 15 3 17 17 17 133 l0 130 -24 0 c-21 0 -27 -10 -51 -80 -54 -158 -47
-155 -89 -30 -34 101 -40 110 -64 113 l-27 3 0 -135z"/>
</g>
</svg>
