<?xml version="1.0" standalone="no"?>
<!DOCTYPE svg PUBLIC "-//W3C//DTD SVG 20010904//EN"
 "http://www.w3.org/TR/2001/REC-SVG-20010904/DTD/svg10.dtd">
<svg version="1.0" xmlns="http://www.w3.org/2000/svg"
 width="7030.000000pt" height="4687.000000pt" viewBox="0 0 7030.000000 4687.000000"
 preserveAspectRatio="xMidYMid meet">
<metadata>
Created by potrace 1.16, written by Peter Selinger 2001-2019
</metadata>
<g transform="translate(0.000000,4687.000000) scale(0.100000,-0.100000)"
fill="#000000" stroke="none">
<path d="M35172 29434 c-5 -10 -119 -289 -252 -619 -551 -1365 -810 -1975
-1129 -2664 l-71 -153 79 -87 c43 -47 164 -169 267 -271 315 -309 596 -551
932 -802 270 -201 262 -194 172 -157 -574 237 -1142 559 -1522 861 -55 44
-104 76 -108 71 -4 -4 -94 -186 -200 -403 -716 -1471 -1893 -3676 -3737 -7003
-256 -461 -463 -840 -461 -842 1 -1 98 51 213 117 876 501 1716 930 2395 1225
741 322 1466 560 2050 674 63 12 116 23 118 25 2 1 -6 49 -17 106 -106 536
-85 1113 59 1614 203 709 617 1188 1094 1265 94 15 266 7 356 -16 87 -23 249
-101 335 -162 365 -261 643 -760 765 -1373 51 -254 64 -398 64 -690 0 -271 -8
-390 -46 -605 -11 -66 -21 -126 -22 -134 -1 -10 41 -23 149 -46 1200 -262
2584 -863 4430 -1923 77 -45 141 -79 143 -78 1 2 -157 297 -351 657 -195 360
-423 783 -508 940 l-154 287 -320 257 c-472 380 -668 527 -948 709 -233 151
-546 335 -716 420 -40 21 -71 40 -68 43 8 8 372 -99 591 -174 338 -115 664
-256 914 -397 57 -32 105 -56 107 -54 2 2 -84 168 -192 368 -1603 2996 -2527
4803 -3180 6225 -259 564 -439 975 -894 2049 -170 401 -313 735 -318 744 -7
13 -10 13 -19 -4z"/>
</g>
</svg>
