<?xml version="1.0" encoding="UTF-8" standalone="no"?>
<svg
   version="1.0"
   width="7030.000000pt"
   height="4687.000000pt"
   viewBox="0 0 7030.000000 4687.000000"
   preserveAspectRatio="xMidYMid meet"
   id="svg16"
   sodipodi:docname="arsch_linux.svg"
   inkscape:version="1.3.2 (091e20ef0f, 2023-11-25, custom)"
   xmlns:inkscape="http://www.inkscape.org/namespaces/inkscape"
   xmlns:sodipodi="http://sodipodi.sourceforge.net/DTD/sodipodi-0.dtd"
   xmlns="http://www.w3.org/2000/svg"
   xmlns:svg="http://www.w3.org/2000/svg">
  <defs
     id="defs16" />
  <sodipodi:namedview
     id="namedview16"
     pagecolor="#ffffff"
     bordercolor="#000000"
     borderopacity="0.25"
     inkscape:showpageshadow="2"
     inkscape:pageopacity="0.0"
     inkscape:pagecheckerboard="0"
     inkscape:deskcolor="#d1d1d1"
     inkscape:document-units="pt"
     inkscape:zoom="0.21486486"
     inkscape:cx="4786.7296"
     inkscape:cy="3406.7925"
     inkscape:window-width="1896"
     inkscape:window-height="1016"
     inkscape:window-x="1932"
     inkscape:window-y="52"
     inkscape:window-maximized="1"
     inkscape:current-layer="g16" />
  <metadata
     id="metadata1">
Created by potrace 1.16, written by Peter Selinger 2001-2019
</metadata>
  <g
     transform="translate(0.000000,4687.000000) scale(0.100000,-0.100000)"
     fill="#000000"
     stroke="none"
     id="g16">
    <path
       d="M23395 27603 c-262 -662 -676 -1649 -869 -2070 -58 -128 -106 -236 -106 -241 0 -17 249 -270 399 -405 186 -169 358 -312 528 -439 73 -56 132 -103 130 -105 -11 -11 -413 180 -601 286 -179 101 -331 198 -462 297 -61 46 -115 84 -120 84 -5 0 -138 -258 -296 -573 -612 -1218 -1203 -2324 -2393 -4477 -326 -591 -445 -810 -445 -821 0 -12 63 20 305 156 1187 666 2129 1067 2905 1239 91 20 170 39 176 41 9 3 8 23 -2 77 -73 380 -54 830 50 1175 150 499 455 840 788 881 471 59 874 -382 1034 -1132 24 -110 27 -147 31 -417 5 -293 3 -335 -33 -551 -6 -36 -6 -37 32 -46 22 -5 118 -29 214 -52 430 -105 851 -254 1364 -481 426 -190 1185 -583 1654 -856 52 -30 96 -53 98 -50 2 2 -158 305 -357 673 l-361 669 -227 181 c-469 376 -764 579 -1113 768 -76 41 -111 66 -94 66 18 0 362 -110 484 -154 175 -64 286 -112 485 -212 101 -49 147 -68 142 -57 -3 10 -138 265 -299 568 -683 1280 -916 1727 -1337 2560 -645 1278 -838 1697 -1509 3278 -67 158 -125 287 -129 287 -4 0 -34 -66 -66 -147z"
       id="path1" />
    <path
       d="M37720 25894 c-168 -41 -323 -80 -345 -86 l-40 -13 -2 -1110 c-3 -1115 8 -2759 17 -2768 6 -7 682 113 692 122 3 3 10 430 15 947 l10 942 28 58 c19 39 56 86 110 141 124 122 261 184 475 213 142 20 326 -7 437 -63 65 -33 149 -110 189 -173 l33 -51 8 -1071 c5 -589 11 -1074 14 -1076 8 -8 680 107 700 119 10 7 10 806 0 1740 l-6 581 -35 59 c-120 203 -412 392 -742 480 -284 76 -660 76 -921 0 -148 -43 -188 -67 -546 -333 -106 -79 -195 -141 -197 -139 -10 10 211 254 369 406 l77 74 0 372 c0 451 -9 705 -24 704 -6 -1 -148 -34 -316 -75z"
       id="path2" />
    <path
       d="M40837 25910 c-82 -21 -151 -40 -153 -42 -7 -8 11 -3876 19 -3884 7 -8 155 13 266 37 l54 11 -6 1862 c-6 1734 -10 2057 -26 2055 -3 0 -73 -18 -154 -39z"
       id="path3" />
    <path
       d="M41634 25816 c-56 -47 -105 -89 -109 -96 -7 -11 33 -64 123 -161 63 -68 46 -73 184 47 49 42 88 81 88 88 0 12 -168 206 -179 206 -3 0 -52 -38 -107 -84z"
       id="path4" />
    <path
       d="M28115 25074 c-201 -22 -532 -89 -558 -113 -16 -15 -153 -729 -142 -740 3 -3 72 10 153 28 462 106 591 125 812 125 204 -1 302 -17 400 -66 105 -54 149 -130 166 -287 l6 -65 -53 47 c-64 56 -166 108 -274 139 -74 21 -98 23 -310 22 -246 -1 -320 -10 -500 -61 -239 -69 -432 -186 -560 -340 -71 -86 -148 -242 -176 -358 -19 -77 -22 -118 -22 -280 0 -206 8 -267 54 -420 57 -186 133 -308 270 -440 218 -208 472 -309 809 -321 250 -9 428 27 623 129 118 61 238 165 461 400 82 86 153 157 157 157 21 0 -183 -317 -285 -445 -92 -114 -96 -122 -96 -190 0 -52 1 -55 23 -50 12 3 157 27 321 55 164 27 302 52 305 56 3 3 6 504 6 1112 l0 1107 -28 100 c-116 424 -424 646 -979 705 -131 14 -435 11 -583 -6z m435 -1580 c158 -36 294 -138 354 -263 29 -61 31 -74 31 -171 0 -97 -2 -109 -29 -158 -66 -119 -231 -235 -396 -278 -87 -22 -236 -22 -320 0 -157 42 -317 161 -385 286 -28 51 -30 62 -30 160 0 101 1 108 34 168 71 131 233 239 411 272 61 12 250 3 330 -16z"
       id="path5" />
    <path
       id="path6"
       style="stroke-width:0.997244"
       d="m 33068.432,21941.321 c -6.821,0 -13.747,0.06 -20.502,0.125 -9.149,0.107 -18.298,0.259 -27.446,0.446 -0.563,0 -1.466,0.03 -2.16,0.05 -5.996,0.12 -11.991,0.291 -17.986,0.446 -0.404,0 -1.2,0.03 -1.754,0.05 -5.595,0.156 -11.188,0.336 -16.781,0.519 -0.672,0.03 -1.666,0.06 -2.462,0.08 -5.943,0.197 -11.884,0.439 -17.825,0.668 -0.396,0.02 -1.2,0.06 -1.752,0.07 -37.503,1.548 -74.984,3.744 -112.398,6.814 -27.777,2.302 -55.526,5.047 -83.167,8.7 -0.323,0.04 -1.19,0.16 -1.722,0.231 -15.511,2.098 -30.995,4.456 -46.364,7.469 -0.103,0.03 -1.128,0.226 -1.569,0.315 -10.052,2.023 -20.051,4.314 -30.055,6.575 -25.516,5.839 -50.899,12.284 -76.108,19.379 -0.433,0.128 -1.221,0.347 -1.79,0.51 -0.922,0.262 -1.845,0.522 -2.767,0.785 -0.356,0.103 -1.156,0.331 -1.682,0.481 -5.499,1.577 -10.989,3.193 -16.47,4.835 -0.428,0.123 -1.216,0.364 -1.782,0.534 -0.917,0.276 -1.835,0.554 -2.753,0.83 -0.355,0.112 -1.151,0.351 -1.674,0.512 -18.902,5.766 -37.684,11.941 -56.317,18.557 -0.279,0.103 -1.132,0.405 -1.632,0.585 -1.36,0.488 -2.72,0.973 -4.08,1.46 -0.276,0.09 -1.132,0.412 -1.63,0.592 -3.261,1.177 -6.514,2.378 -9.767,3.581 -0.243,0.09 -1.126,0.422 -1.616,0.606 -43.432,16.209 -85.976,34.941 -127.183,56.389 -28.126,14.643 -55.636,30.525 -82.418,47.602 -0.21,0.129 -1.016,0.649 -1.456,0.93 -47.349,30.278 -92.369,64.297 -135.028,101.129 -0.235,0.2 -0.916,0.793 -1.322,1.145 -65.981,57.127 -126.326,120.774 -182.816,187.613 -11.49,13.684 -22.833,27.5 -33.987,41.474 -8.836,11.197 -17.688,22.414 -25.569,34.346 -0.339,0.532 -0.98,1.111 -0.11,1.455 22.997,18.988 46.176,37.744 69.351,56.503 59.311,47.906 118.807,95.573 178.441,143.059 20.907,16.619 41.65,33.455 62.471,50.19 64.792,52.185 129.584,104.37 194.377,156.556 36.744,-35.674 73.473,-71.361 110.237,-107.014 29.936,-28.626 60.126,-57.008 91.631,-83.832 30.265,-25.701 61.95,-49.958 96.55,-69.272 20.606,-11.555 42.188,-21.257 64.346,-29.255 23.839,-8.631 48.255,-15.486 72.818,-21.59 51.873,-12.652 105.296,-18.405 158.603,-17.857 45.438,0.5 90.872,5.588 135.208,15.838 36.367,8.431 72.045,20.384 105.702,36.878 27.641,13.583 53.949,30.322 77.003,51.078 12.898,11.67 24.786,24.563 34.994,38.761 12.797,17.882 22.682,38.083 27.967,59.617 5.339,21.535 5.968,44.22 2.174,66.076 -4.627,27.008 -15.601,52.56 -29.958,75.6 -16.477,26.45 -37.235,49.873 -59.83,70.982 -23.138,21.594 -48.345,40.777 -74.549,58.296 -35.367,23.584 -72.645,44.071 -110.854,62.402 -34.168,16.372 -69.121,31.01 -104.573,44.215 -22.095,7.947 -44.428,15.17 -66.755,22.397 -47.168,15.19 -94.51,29.813 -141.946,44.101 -20.525,6.166 -41.079,12.227 -61.558,18.552 -55.141,16.975 -110.017,34.935 -164.089,55.215 -58.94,22.149 -116.973,47.204 -172.189,77.887 -31.241,17.318 -61.512,36.461 -90.659,57.248 -23.803,17.008 -46.921,35.016 -69.335,53.894 -22.883,19.46 -44.41,40.573 -64.538,62.987 -0.03,0.05 -0.77,0.865 -1.066,1.201 -26.384,29.536 -50.347,61.316 -71.756,94.792 -0.05,0.07 -0.625,0.984 -0.868,1.366 -20.559,32.3 -38.725,66.193 -54.228,101.318 -0.03,0.07 -0.468,1.072 -0.651,1.487 -17.712,40.377 -31.922,82.403 -41.771,125.509 -0.04,0.226 -0.268,1.196 -0.382,1.707 -0.144,0.644 -0.289,1.288 -0.434,1.932 -0.05,0.218 -0.262,1.195 -0.376,1.707 -4.247,19.662 -7.001,39.63 -9.066,59.646 -0.184,1.859 -0.367,3.718 -0.55,5.577 0,0.09 -0.107,1.169 -0.147,1.623 -0.127,1.395 -0.255,2.79 -0.382,4.184 -0.01,0.09 -0.1,1.169 -0.139,1.624 -0.118,1.396 -0.236,2.79 -0.354,4.185 -0.01,0.189 -0.09,1.22 -0.133,1.735 -2.758,34.913 -3.52,69.968 -3.05,104.982 0,0.226 0.02,1.225 0.03,1.75 0.147,9.659 0.415,19.318 0.764,28.972 0.01,0.217 0.05,1.225 0.07,1.748 0.765,19.895 1.981,39.769 3.619,59.609 0.02,0.224 0.106,1.221 0.152,1.744 0.12,1.405 0.241,2.811 0.362,4.216 0.02,0.289 0.11,1.222 0.158,1.759 3.055,34.021 7.41,67.944 13.824,101.483 0.05,0.213 0.235,1.2 0.337,1.714 0.196,1.006 0.393,2.012 0.589,3.02 0.01,0.07 0.232,1.146 0.321,1.591 3.77,18.779 8.355,37.397 14.115,55.644 3.096,10.062 6.346,20.074 9.742,30.035 0.102,0.287 0.399,1.158 0.575,1.669 1.606,4.684 3.252,9.351 4.927,14.01 0.109,0.312 0.416,1.151 0.602,1.665 5.451,15.057 11.277,29.972 17.48,44.723 0.106,0.258 0.476,1.126 0.684,1.618 18.652,44.133 40.909,86.678 66.573,126.967 7.699,12.1 15.708,23.997 23.993,35.687 0.169,0.243 0.706,0.993 1.017,1.429 3.744,5.269 7.551,10.49 11.406,15.673 0.197,0.268 0.729,0.975 1.055,1.411 7.242,9.699 14.685,19.238 22.287,28.642 0.21,0.249 0.768,0.944 1.111,1.364 16.02,19.715 32.801,38.78 50.184,57.248 0.278,0.287 0.835,0.882 1.219,1.288 12.514,13.268 25.336,26.238 38.551,38.779 29.409,28.073 60.174,54.698 92.558,79.125 0.232,0.178 0.967,0.727 1.393,1.047 0.768,0.577 1.536,1.154 2.305,1.731 0.22,0.157 0.971,0.72 1.395,1.033 36.729,27.347 75.526,51.812 116.064,72.807 13.567,7.042 27.326,13.695 41.238,19.996 0.26,0.112 1.099,0.493 1.581,0.709 3.481,1.57 6.976,3.106 10.476,4.634 0.257,0.114 1.105,0.478 1.589,0.688 0.78,0.334 1.922,0.832 2.468,1.061 14.565,6.242 29.294,12.08 44.15,17.557 0.35,0.124 1.13,0.413 1.645,0.601 8.191,3.001 16.421,5.89 24.685,8.672 0.316,0.11 1.141,0.383 1.652,0.554 20.989,7.03 42.197,13.368 63.551,19.134 0.291,0.07 1.161,0.31 1.675,0.446 54.291,14.539 109.484,25.345 164.956,33.931 9.927,1.493 19.845,3.075 29.806,4.312 7.631,0.873 15.293,1.419 22.957,1.871 0.336,0.02 1.199,0.07 1.737,0.102 2.461,0.14 4.924,0.259 7.386,0.377 0.619,0.03 1.846,0.08 2.379,0.108 1.748,0.07 3.415,0.139 5.209,0.209 5.746,0.221 11.494,0.381 17.242,0.527 0.386,0 1.164,0.03 1.7,0.04 2.768,0.05 5.536,0.105 8.304,0.158 0.287,0 1.2,0.02 1.728,0.03 2.188,0.03 4.376,0.06 6.563,0.09 0.312,0 1.201,0 1.734,0 16.6,0.181 33.202,0.123 49.801,-0.07 0.396,0 1.201,-0.02 1.753,-0.02 6.635,-0.09 13.268,-0.207 19.902,-0.343 0.563,0 1.466,-0.03 2.16,-0.05 6.499,-0.139 12.997,-0.306 19.494,-0.489 0.446,-0.02 1.267,-0.04 1.856,-0.06 11.404,-0.337 22.805,-0.753 34.203,-1.246 0.487,-0.03 1.332,-0.06 1.957,-0.09 4.153,-0.181 8.306,-0.381 12.459,-0.581 0.395,-0.02 1.199,-0.06 1.751,-0.09 15.291,-0.776 30.577,-1.675 45.846,-2.815 0.378,-0.03 1.198,-0.09 1.745,-0.136 1.127,-0.08 2.545,-0.197 3.49,-0.266 10.989,-0.862 21.968,-1.856 32.927,-3.049 0.385,-0.04 1.194,-0.132 1.741,-0.193 4.275,-0.463 8.547,-0.957 12.818,-1.452 0.282,-0.03 1.192,-0.143 1.715,-0.205 14.226,-1.689 28.426,-3.595 42.598,-5.705 0.346,-0.05 1.187,-0.179 1.724,-0.259 21.514,-3.232 42.955,-6.975 64.301,-11.222 0.275,-0.05 1.177,-0.237 1.694,-0.34 23.09,-4.635 46.064,-9.875 68.882,-15.752 0.435,-0.111 1.228,-0.321 1.8,-0.469 21.263,-5.512 42.389,-11.575 63.345,-18.205 0.252,-0.08 1.145,-0.365 1.644,-0.527 3.713,-1.176 7.834,-2.515 11.279,-3.641 39.769,-13.078 78.888,-28.226 117.12,-45.442 0.204,-0.102 1.095,-0.497 1.565,-0.712 21.669,-9.788 43.04,-20.264 64.093,-31.368 0.221,-0.124 1.064,-0.566 1.525,-0.812 52.063,-27.565 102.087,-59.129 149.657,-94.162 22.479,-16.545 44.401,-33.876 65.801,-51.853 0.594,-0.496 1.349,-1.128 1.826,-1.523 1.863,-1.568 3.88,-3.258 5.648,-4.75 31.676,-26.692 62.767,-54.104 93.519,-81.9 23.375,-21.193 46.573,-42.594 69.258,-64.556 7.672,-7.425 15.27,-14.932 22.701,-22.608 -12.698,-14.828 -25.828,-29.262 -38.972,-43.674 -0.244,-0.271 -0.822,-0.897 -1.193,-1.303 -2.319,-2.522 -4.637,-5.047 -6.956,-7.571 -0.336,-0.359 -0.916,-0.991 -1.346,-1.454 -34.505,-37.369 -69.482,-74.279 -104.633,-111.011 -49.304,-51.49 -98.983,-102.606 -149.112,-153.257 -18.168,-18.334 -36.398,-36.606 -54.745,-54.755 -0.325,-0.312 -0.913,-0.898 -1.338,-1.315 -17.089,-16.841 -34.227,-33.635 -51.741,-50.017 -6.687,-6.172 -13.344,-12.393 -20.357,-18.181 -1.017,-0.795 -1.974,-1.712 -3.234,-2.078 -4.582,-1.844 -9.379,-3.665 -14.38,-3.478 -4.969,0.383 -9.579,2.591 -13.93,4.929 -10.081,5.57 -19.225,12.699 -28.255,19.862 -24.33,19.63 -47.161,41.087 -70.778,61.587 -31.556,27.498 -63.885,54.129 -97.758,78.603 -35.321,25.48 -72.481,48.56 -112.094,66.399 -33.282,15.07 -68.276,26.171 -104.053,33.028 -42.249,8.174 -85.359,10.662 -128.297,10.396 -36.01,-0.19 -72.064,-1.877 -107.801,-6.561 -30.23,-3.997 -60.306,-10.155 -89.142,-20.395 -25.455,-9.074 -49.98,-21.551 -71.093,-38.826 -17.143,-13.995 -31.828,-31.194 -42.721,-50.682 -11.126,-19.796 -18.352,-41.729 -22.299,-64.158 -2.74,-15.617 -3.963,-31.481 -4.317,-47.331 -0.396,-19.776 1.266,-39.726 6.489,-58.824 4.791,-17.659 12.674,-34.374 22.767,-49.494 11.472,-17.29 25.479,-32.645 40.201,-47.07 9.589,-9.156 20.001,-17.381 30.826,-24.947 20.594,-14.333 42.762,-26.127 65.362,-36.768 29.162,-13.68 59.14,-25.447 89.307,-36.581 39.101,-14.382 78.616,-27.551 118.231,-40.367 34.064,-11.021 68.271,-21.571 102.423,-32.3 34.888,-10.918 69.759,-21.893 104.613,-32.921 48.634,-15.416 97.387,-30.977 145.933,-46.882 41.242,-13.505 82.401,-27.285 123.34,-41.726 6.825,-2.415 13.839,-4.92 20.526,-7.336 18.989,-6.866 37.912,-13.927 56.705,-21.334 0.355,-0.139 1.12,-0.444 1.632,-0.647 26.616,-10.543 53,-21.772 78.632,-34.637 20.429,-10.258 40.306,-21.689 59.322,-34.483 8.552,-5.732 16.953,-11.7 25.236,-17.83 0.09,-0.06 0.929,-0.692 1.294,-0.961 3.518,-2.612 7.374,-5.543 10.618,-8.036 10.627,-8.167 21.05,-16.612 31.268,-25.31 0.07,-0.07 0.88,-0.755 1.222,-1.05 40.209,-34.391 77.023,-73.018 108.922,-115.577 6.633,-8.836 13.049,-17.843 19.254,-26.997 0.103,-0.146 0.679,-1.009 0.966,-1.432 3.869,-5.723 7.911,-11.96 11.43,-17.529 12.262,-19.448 23.545,-39.54 33.841,-60.145 0.04,-0.09 0.518,-1.048 0.719,-1.457 6.265,-12.611 12.142,-25.422 17.662,-38.392 0.06,-0.166 0.473,-1.124 0.671,-1.597 17.521,-41.461 31.196,-84.578 41.465,-128.492 5.221,-22.342 9.576,-44.895 13.143,-67.574 0.205,-1.355 0.458,-2.951 0.679,-4.401 6.373,-41.721 10.041,-83.845 11.696,-126.03 1.281,-31.736 1.426,-63.524 0.262,-95.268 -0.01,-0.192 -0.05,-1.223 -0.07,-1.741 -0.07,-1.699 -0.137,-3.399 -0.206,-5.099 0,-0.217 -0.06,-1.224 -0.08,-1.746 -0.472,-10.749 -1.16,-22.031 -1.934,-32.419 -0.392,-5.109 -0.806,-10.214 -1.264,-15.316 -0.107,-1.193 -0.243,-2.646 -0.361,-3.94 -0.892,-9.451 -1.91,-18.889 -3.067,-28.311 -0.03,-0.253 -0.152,-1.215 -0.217,-1.742 -1.059,-8.521 -2.312,-17.494 -3.562,-25.69 -0.549,-3.587 -1.198,-7.632 -1.736,-10.928 -7.039,-42.646 -17.105,-84.789 -30.488,-125.824 -7.748,-23.797 -16.616,-47.212 -26.532,-70.151 -0.08,-0.177 -0.488,-1.12 -0.696,-1.592 -17.602,-40.492 -38.581,-79.43 -62.362,-116.467 -0.18,-0.285 -0.661,-1.025 -0.955,-1.485 -2.62,-4.074 -5.285,-8.115 -7.969,-12.143 -0.165,-0.251 -0.679,-1.01 -0.978,-1.459 -13.101,-19.523 -26.962,-38.51 -41.434,-56.992 -8.575,-10.912 -17.402,-21.615 -26.469,-32.101 -0.24,-0.282 -0.797,-0.918 -1.157,-1.336 -0.451,-0.519 -0.901,-1.037 -1.351,-1.558 -0.203,-0.224 -0.801,-0.913 -1.156,-1.315 -36.554,-41.769 -76.871,-80.046 -119.906,-114.745 -0.06,-0.04 -0.904,-0.722 -1.253,-1 -51.35,-41.264 -106.59,-77.402 -164.419,-108.412 -16.275,-8.724 -32.764,-17.033 -49.43,-24.948 -0.214,-0.09 -1.09,-0.511 -1.559,-0.731 -47.991,-22.677 -97.51,-41.959 -148.05,-57.818 -0.268,-0.08 -1.149,-0.356 -1.652,-0.51 -1.278,-0.398 -2.555,-0.796 -3.833,-1.192 -0.271,-0.08 -1.15,-0.352 -1.654,-0.508 -1.279,-0.39 -2.557,-0.781 -3.836,-1.173 -0.286,-0.08 -1.152,-0.344 -1.661,-0.496 -29.284,-8.825 -58.898,-16.508 -88.757,-23.013 -0.298,-0.06 -1.175,-0.253 -1.695,-0.366 -27.373,-5.92 -54.943,-10.911 -82.66,-14.818 -3.514,-0.466 -7.033,-0.884 -10.555,-1.277 -0.311,-0.03 -1.149,-0.125 -1.662,-0.179 -2.296,-0.246 -4.593,-0.478 -6.891,-0.702 -0.309,-0.02 -1.195,-0.111 -1.726,-0.161 -14.248,-1.334 -28.531,-2.259 -42.821,-2.976 -0.353,0 -1.199,-0.06 -1.741,-0.08 -13.896,-0.671 -27.801,-1.126 -41.708,-1.437 -0.37,0 -1.2,-0.03 -1.747,-0.04 -18.701,-0.407 -37.407,-0.513 -56.112,-0.467 z" />
    <path
       d="M30785 25035 c-5 -2 -151 -27 -322 -56 l-313 -52 0 -1488 c0 -818 3 -1490 8 -1493 6 -4 718 128 750 139 9 3 12 181 12 843 0 560 4 858 11 898 16 89 61 164 149 248 152 145 342 227 570 244 l85 7 47 95 c65 134 258 584 258 604 0 43 -476 1 -689 -60 -160 -47 -222 -85 -363 -223 l-128 -124 0 211 0 212 -32 -1 c-18 0 -37 -2 -43 -4z"
       id="path7" />
    <path
       d="M35590 24989 c-256 -30 -492 -104 -682 -216 -108 -63 -290 -238 -363 -348 -159 -241 -235 -503 -251 -870 -21 -460 111 -859 379 -1141 223 -236 502 -377 882 -446 164 -30 509 -33 660 -4 200 37 410 120 568 224 69 45 279 239 298 275 13 23 -5 42 -284 309 l-178 170 -75 -72 c-183 -174 -391 -260 -626 -260 -238 0 -431 76 -596 234 -117 111 -208 265 -248 421 -28 107 -26 324 4 428 73 257 255 431 540 521 156 49 380 57 542 20 88 -20 250 -99 360 -175 90 -62 90 -62 111 -43 56 49 439 505 439 522 0 17 -107 108 -197 168 -177 117 -402 212 -604 253 -185 38 -490 51 -679 30z"
       id="path8" />
    <path
       d="M43512 24849 c-130 -24 -258 -72 -364 -135 -145 -87 -307 -266 -373 -414 l-20 -44 -6 29 c-4 17 -7 104 -8 195 -1 91 -4 203 -8 248 l-6 84 -46 -7 c-25 -4 -94 -18 -153 -31 -103 -25 -107 -26 -113 -56 -10 -42 6 -2743 16 -2759 6 -10 42 -4 161 27 l153 40 10 960 10 959 34 60 c111 197 245 321 455 421 351 166 756 148 994 -44 107 -87 171 -173 217 -296 25 -65 25 -71 25 -349 0 -155 3 -623 7 -1040 l6 -759 36 7 c20 3 83 15 140 27 l104 22 -5 1090 -6 1091 -36 95 c-117 304 -322 486 -633 565 -73 18 -269 35 -398 34 -49 -1 -137 -10 -193 -20z"
       id="path9" />
    <path
       d="M41715 24762 l-130 -58 2 -1368 c2 -753 4 -1371 6 -1373 5 -4 257 46 270 54 12 7 1 2783 -11 2795 -4 4 -66 -19 -137 -50z"
       id="path10" />
    <path
       d="M45490 24779 c-52 -10 -119 -24 -149 -30 l-54 -11 6 -1057 c4 -631 10 -1082 16 -1122 26 -164 141 -358 283 -476 165 -137 359 -204 633 -218 283 -15 522 44 731 180 145 94 275 242 338 384 17 36 21 40 27 25 4 -11 8 -135 8 -276 1 -239 2 -258 19 -258 29 0 279 52 293 61 12 7 14 209 12 1246 0 681 -4 1311 -8 1399 l-7 161 -117 -29 c-64 -16 -133 -34 -153 -39 l-38 -10 -1 -467 c-2 -808 -14 -1317 -33 -1387 -27 -94 -100 -235 -162 -313 -194 -245 -553 -379 -918 -343 -172 17 -270 59 -380 162 -70 65 -115 136 -163 252 l-33 82 0 781 c0 429 -3 903 -7 1052 -7 315 11 282 -143 251z"
       id="path11" />
    <path
       d="M48215 24702 c-144 -111 -139 -95 -59 -204 37 -51 210 -282 384 -513 174 -231 338 -450 364 -488 l48 -67 -18 -28 c-9 -15 -155 -223 -323 -462 -416 -593 -581 -831 -581 -839 0 -18 199 -171 222 -171 6 0 16 6 22 14 64 81 238 318 508 696 396 554 362 511 383 485 8 -11 146 -200 307 -420 466 -641 582 -797 595 -802 13 -5 151 96 192 141 l24 26 -44 62 c-24 35 -238 335 -477 666 -238 332 -435 609 -438 616 -5 13 128 210 422 626 100 140 216 306 258 369 l78 114 -39 40 c-21 22 -72 66 -113 99 l-74 60 -18 -22 c-10 -13 -73 -100 -140 -194 -196 -276 -527 -739 -544 -761 -15 -20 -16 -19 -46 15 -30 35 -296 370 -600 755 -91 116 -174 221 -185 233 l-19 24 -89 -70z"
       id="path12" />
    <path
       d="M50640 22415 c0 -9 14 -17 39 -21 l38 -6 7 -111 c4 -61 8 -113 11 -115 15 -15 24 23 30 123 l7 115 39 0 c22 0 39 4 39 9 0 14 -40 21 -127 21 -67 0 -83 -3 -83 -15z"
       id="path13" />
    <path
       d="M50897 22423 c-12 -11 -8 -251 4 -258 18 -12 23 3 27 96 l5 91 32 -87 c18 -48 38 -92 44 -98 18 -18 36 8 67 95 l29 83 10 -90 c5 -49 15 -90 20 -90 6 0 11 53 13 133 2 110 0 132 -12 132 -26 0 -44 -28 -71 -112 -15 -46 -31 -87 -36 -92 -9 -10 -13 -1 -59 122 -23 60 -36 82 -49 82 -10 0 -21 -3 -24 -7z"
       id="path14" />
    <path
       d="M27752 20138 c3 -7 20 -14 40 -16 l35 -3 7 -112 c4 -62 11 -116 17 -121 11 -12 10 -18 18 119 5 100 8 110 26 113 101 15 76 32 -46 32 -76 0 -100 -3 -97 -12z"
       id="path15" />
    <path
       d="M28000 20021 c0 -182 26 -187 33 -6 l2 70 34 -90 c45 -120 54 -129 79 -79 10 22 27 64 37 94 27 84 30 82 35 -23 7 -145 24 -126 28 31 2 107 0 132 -11 132 -23 0 -43 -32 -72 -118 -16 -45 -33 -81 -38 -79 -5 1 -22 37 -37 78 -37 101 -47 119 -70 119 -19 0 -20 -7 -20 -129z"
       id="path16" />
  </g>
</svg>
