<?xml version="1.0" standalone="no"?>
<!DOCTYPE svg PUBLIC "-//W3C//DTD SVG 20010904//EN"
 "http://www.w3.org/TR/2001/REC-SVG-20010904/DTD/svg10.dtd">
<svg version="1.0" xmlns="http://www.w3.org/2000/svg"
 width="7030.000000pt" height="4687.000000pt" viewBox="0 0 7030.000000 4687.000000"
 preserveAspectRatio="xMidYMid meet">
<metadata>
Created by potrace 1.16, written by Peter Selinger 2001-2019
</metadata>
<g transform="translate(0.000000,4687.000000) scale(0.100000,-0.100000)"
fill="#000000" stroke="none">
<path d="M25142 26934 l-22 -15 0 -2672 c0 -2134 3 -2677 13 -2697 l13 -25
380 -3 c376 -2 381 -2 400 19 16 18 20 42 24 173 l5 151 28 -2 c20 -1 52 -24
108 -77 91 -86 140 -123 221 -165 31 -17 59 -35 62 -40 4 -5 21 -13 39 -16 17
-4 54 -18 80 -32 26 -13 74 -29 105 -34 31 -6 89 -20 127 -32 65 -20 90 -22
355 -22 266 0 290 1 360 22 41 13 101 27 134 33 32 5 72 18 90 29 17 10 57 26
88 35 31 9 60 21 63 27 4 5 30 21 58 35 65 31 115 61 156 97 18 15 36 27 40
27 11 0 179 166 232 230 26 30 59 75 75 99 69 105 124 197 124 207 0 6 10 23
21 38 12 15 28 48 35 73 8 26 23 61 33 79 11 18 25 58 31 91 7 32 21 75 31 95
10 20 26 81 34 135 8 54 22 123 30 153 47 172 45 804 -4 990 -11 41 -24 107
-30 145 -6 39 -22 97 -36 130 -13 33 -25 69 -25 80 0 23 -49 130 -127 275 -24
45 -37 65 -115 173 -55 77 -187 210 -252 253 -28 19 -62 41 -76 51 -80 53 -99
64 -140 78 -24 8 -51 22 -60 29 -8 8 -44 22 -78 31 -35 9 -86 25 -112 35 -57
23 -307 50 -455 50 -175 0 -389 -26 -487 -60 -47 -17 -92 -30 -100 -30 -7 0
-38 -13 -68 -30 -30 -16 -62 -29 -71 -30 -9 0 -33 -13 -54 -30 -21 -16 -43
-30 -50 -30 -25 0 -225 -166 -294 -245 -45 -51 -109 -97 -123 -89 -5 3 -8 494
-8 1092 0 598 -4 1092 -8 1098 -21 31 -54 34 -414 34 -313 0 -367 -2 -386 -16z
m2030 -2359 c111 -22 191 -50 264 -94 140 -84 249 -210 337 -391 21 -41 37
-83 37 -92 0 -10 11 -48 26 -85 70 -187 70 -812 0 -1013 -14 -41 -26 -83 -26
-95 0 -12 -11 -44 -25 -71 -14 -27 -32 -70 -40 -95 -9 -26 -25 -55 -35 -64
-11 -10 -20 -23 -20 -29 0 -14 -68 -106 -123 -166 -52 -57 -122 -112 -175
-139 -22 -11 -43 -25 -47 -31 -3 -5 -31 -17 -61 -26 -31 -9 -77 -26 -102 -37
-44 -21 -62 -22 -287 -22 -237 0 -241 0 -300 26 -33 15 -73 29 -90 33 -16 4
-46 18 -65 30 -19 13 -49 32 -66 42 -77 47 -113 76 -171 137 -67 73 -136 169
-148 207 -4 14 -18 41 -30 60 -13 19 -26 53 -30 75 -3 22 -16 69 -28 105 -20
61 -21 89 -25 425 -3 310 -1 370 14 435 9 41 24 112 34 156 9 45 26 97 37 115
12 19 24 45 28 59 41 134 277 382 435 456 19 9 58 27 85 40 64 31 275 71 385
73 55 0 131 -8 212 -24z"/>
<path d="M30500 25254 c-80 -9 -148 -22 -190 -38 -36 -13 -80 -28 -99 -31 -30
-6 -151 -61 -191 -86 -8 -5 -28 -17 -43 -27 -190 -116 -359 -302 -423 -466
-13 -32 -28 -64 -34 -71 -18 -22 -70 -322 -70 -404 0 -42 7 -107 16 -146 8
-38 20 -97 26 -129 23 -126 152 -344 260 -438 58 -50 136 -108 147 -108 4 0
25 -13 46 -30 21 -16 43 -30 49 -30 6 0 42 -16 80 -35 39 -19 77 -35 86 -35 8
0 35 -11 60 -24 25 -13 65 -27 90 -31 25 -4 73 -18 106 -30 34 -13 97 -29 140
-35 44 -6 108 -20 143 -31 35 -11 96 -24 135 -30 39 -6 94 -22 121 -34 28 -13
69 -28 92 -34 23 -7 45 -16 48 -21 4 -6 23 -19 43 -29 20 -11 64 -46 98 -80
80 -81 120 -172 118 -276 -2 -91 -48 -212 -103 -271 -52 -54 -153 -121 -204
-134 -23 -6 -69 -20 -102 -32 -50 -17 -84 -20 -210 -19 -104 0 -167 5 -205 16
-30 8 -86 22 -125 31 -65 14 -178 64 -266 117 -72 44 -224 186 -267 250 -27
41 -61 55 -96 39 -20 -9 -80 -57 -146 -115 -53 -48 -168 -145 -237 -201 -88
-70 -92 -91 -37 -163 20 -27 40 -50 44 -53 4 -3 28 -29 54 -59 70 -78 239
-220 292 -243 16 -7 43 -22 59 -34 17 -12 45 -26 63 -32 18 -6 46 -20 61 -31
15 -11 49 -25 75 -31 26 -6 64 -19 84 -29 21 -10 78 -26 127 -36 50 -9 115
-24 145 -33 46 -14 102 -17 355 -17 278 0 305 2 370 21 39 12 99 27 135 34 36
6 79 20 95 30 17 10 50 23 74 30 24 6 60 21 80 34 20 12 48 28 63 36 141 79
260 179 366 309 17 22 32 44 32 49 0 5 14 26 30 47 17 21 30 43 30 49 0 6 13
38 29 71 16 33 32 78 36 100 4 22 17 76 28 120 31 117 31 367 0 475 -12 41
-24 93 -28 115 -4 22 -17 58 -29 80 -13 22 -27 51 -31 65 -13 43 -96 160 -159
224 -91 92 -259 211 -326 231 -14 4 -36 15 -50 25 -14 10 -52 25 -84 34 -32
10 -68 24 -80 31 -12 8 -55 21 -96 30 -41 9 -98 24 -125 34 -28 11 -91 24
-141 30 -50 6 -116 20 -146 30 -31 11 -88 24 -128 30 -39 6 -88 20 -108 30
-21 10 -57 24 -81 31 -49 13 -129 63 -179 112 -18 18 -47 62 -65 98 -27 57
-31 75 -31 150 0 77 4 92 37 161 42 87 92 135 199 191 57 31 82 37 183 48 186
20 409 -1 494 -45 25 -14 53 -25 61 -25 33 0 166 -94 275 -195 35 -31 69 -55
82 -55 12 0 56 28 100 65 43 35 89 73 103 84 14 11 79 67 145 124 137 117 145
134 99 195 -71 93 -210 214 -313 272 -14 8 -47 27 -72 42 -25 16 -53 28 -61
28 -8 0 -37 11 -63 25 -26 14 -75 32 -109 40 -34 8 -86 23 -117 34 -70 25
-336 51 -497 50 -64 -1 -173 -8 -242 -15z"/>
<path d="M34711 25254 c-84 -9 -153 -24 -212 -44 -48 -16 -92 -30 -99 -30 -6
0 -44 -16 -83 -35 -39 -19 -76 -35 -83 -35 -6 0 -18 -7 -25 -17 -8 -9 -29 -22
-47 -30 -75 -31 -284 -213 -369 -320 -18 -23 -25 -26 -39 -17 -29 17 -35 60
-32 247 2 157 0 179 -15 195 -16 16 -51 17 -406 17 -314 0 -391 -3 -404 -14
-16 -12 -17 -209 -17 -2642 0 -1593 4 -2637 9 -2652 6 -14 23 -29 42 -36 40
-14 706 -15 743 -1 14 5 30 18 36 30 8 15 11 286 11 958 0 515 3 955 7 976 13
72 30 69 128 -23 49 -45 106 -91 126 -102 20 -10 39 -23 43 -29 3 -5 25 -18
48 -29 23 -11 53 -27 67 -35 41 -25 151 -67 215 -83 33 -8 92 -24 130 -35 61
-19 102 -22 320 -25 202 -4 263 -1 320 11 39 9 113 25 165 37 52 11 111 29
130 39 19 10 58 26 87 35 28 9 57 22 63 30 6 8 28 19 48 26 20 7 48 21 62 31
25 19 61 45 132 92 44 30 210 191 241 233 12 17 42 57 67 89 53 69 78 109 118
184 86 162 132 262 132 285 0 11 11 43 24 72 14 29 32 90 40 137 9 46 23 103
31 126 27 76 39 258 39 575 0 329 -12 497 -43 586 -10 30 -23 84 -30 121 -6
37 -23 91 -36 120 -14 29 -25 60 -25 68 0 14 -54 135 -85 190 -8 14 -25 46
-39 72 -14 26 -30 49 -36 53 -6 3 -20 25 -31 47 -24 47 -234 261 -298 304 -85
57 -147 94 -181 109 -19 8 -55 26 -80 39 -25 13 -63 27 -85 31 -22 4 -65 18
-95 30 -115 48 -473 67 -729 39z m231 -679 c110 -21 201 -54 264 -93 114 -72
252 -211 286 -289 7 -15 22 -44 34 -63 13 -19 28 -55 34 -80 7 -25 20 -61 30
-81 10 -19 24 -73 30 -120 6 -46 18 -122 27 -169 26 -132 23 -380 -5 -560 -32
-197 -70 -344 -108 -410 -7 -14 -21 -41 -29 -60 -28 -65 -69 -129 -140 -218
-59 -74 -157 -162 -204 -182 -13 -6 -35 -19 -49 -30 -13 -11 -46 -26 -71 -34
-25 -8 -68 -24 -96 -37 -45 -21 -68 -23 -245 -27 -150 -3 -210 0 -260 11 -82
20 -210 65 -230 82 -8 7 -31 21 -50 30 -89 45 -247 198 -305 295 -75 126 -101
193 -124 331 -18 109 -21 168 -21 420 0 257 3 314 24 450 13 91 30 166 40 180
9 14 23 48 31 75 8 27 26 65 40 84 14 18 25 39 25 46 0 36 222 266 302 313 29
17 60 35 68 40 36 23 180 81 201 81 13 1 65 9 114 19 127 27 236 26 387 -4z"/>
<path d="M44561 25253 c-80 -9 -143 -22 -180 -37 -31 -13 -72 -27 -91 -31 -19
-4 -51 -17 -70 -29 -19 -13 -52 -28 -72 -35 -21 -7 -40 -17 -44 -22 -3 -5 -24
-19 -47 -31 -23 -11 -55 -32 -72 -45 -113 -90 -176 -148 -218 -201 -52 -64
-79 -79 -102 -55 -12 12 -15 50 -15 204 l0 190 -36 15 c-50 21 -762 17 -788
-5 -15 -13 -16 -146 -14 -1811 3 -1752 3 -1798 22 -1819 19 -21 26 -21 391
-21 352 0 374 1 396 19 l24 19 5 1089 c6 1184 10 1251 64 1380 13 32 27 73 31
90 3 18 11 35 16 39 5 3 21 28 35 55 13 27 45 77 70 110 48 62 176 179 196
179 7 0 28 11 47 24 45 31 236 76 321 76 99 0 286 -43 354 -82 73 -41 186
-150 214 -205 12 -23 26 -44 32 -48 5 -3 17 -31 26 -61 9 -31 24 -75 35 -98
12 -27 24 -97 34 -195 12 -128 15 -336 15 -1242 l0 -1087 26 -31 26 -31 369 0
370 0 24 25 25 24 0 1053 c1 579 5 1099 10 1156 14 158 82 339 184 493 45 68
185 200 255 241 75 45 241 88 335 88 105 0 294 -44 360 -84 87 -52 145 -104
182 -162 19 -29 38 -55 43 -58 5 -4 13 -21 16 -39 4 -17 18 -53 31 -79 13 -26
29 -82 35 -123 5 -42 17 -109 26 -148 14 -63 17 -216 22 -1213 5 -946 8 -1144
20 -1157 12 -15 52 -17 397 -17 373 0 384 1 394 20 7 14 10 410 8 1312 -3
1211 -5 1297 -21 1353 -10 33 -25 100 -33 148 -8 49 -23 108 -33 130 -11 23
-24 61 -30 83 -11 41 -51 119 -120 239 -45 76 -191 224 -277 280 -38 25 -72
45 -77 45 -5 0 -20 9 -34 20 -15 11 -51 28 -82 36 -31 9 -72 25 -91 34 -44 22
-270 50 -403 50 -127 0 -380 -27 -431 -47 -22 -8 -70 -23 -106 -33 -36 -10
-85 -29 -110 -44 -25 -14 -52 -26 -61 -26 -9 0 -33 -13 -54 -30 -21 -16 -43
-30 -50 -30 -31 0 -239 -182 -323 -282 -74 -88 -114 -117 -138 -97 -8 6 -14
16 -14 22 0 15 -80 148 -105 173 -11 12 -41 43 -66 70 -74 79 -153 141 -226
177 -28 15 -54 31 -58 37 -3 5 -25 14 -48 20 -23 6 -67 22 -98 35 -113 50
-400 66 -648 38z"/>
<path d="M36880 25172 c-21 -17 -22 -21 -10 -78 7 -32 20 -75 30 -95 10 -19
24 -64 30 -99 6 -36 22 -90 35 -120 12 -30 26 -76 29 -103 4 -26 16 -67 26
-91 11 -24 26 -74 34 -112 8 -38 24 -89 35 -114 11 -25 25 -74 31 -109 6 -36
20 -81 30 -101 10 -20 24 -65 30 -100 6 -36 22 -90 35 -120 12 -30 26 -77 30
-105 4 -27 17 -75 30 -105 12 -30 26 -75 30 -100 4 -25 18 -70 30 -100 13 -30
28 -83 34 -117 7 -34 20 -81 31 -105 10 -24 25 -75 34 -115 8 -39 21 -84 29
-100 8 -15 21 -57 28 -93 7 -36 21 -85 31 -110 11 -24 26 -75 34 -113 7 -37
21 -81 29 -97 8 -16 22 -62 30 -102 8 -40 24 -94 36 -121 11 -26 25 -73 30
-105 6 -31 21 -82 34 -112 12 -30 26 -77 30 -105 4 -27 17 -75 30 -105 12 -30
26 -75 30 -100 4 -25 18 -70 31 -101 12 -30 28 -85 34 -122 7 -40 24 -87 44
-119 l31 -53 407 0 c459 0 440 -3 453 78 4 23 18 67 30 97 13 30 28 81 34 113
6 32 19 78 30 103 11 25 25 73 31 106 7 34 20 78 30 97 10 20 25 71 34 114 8
42 22 91 31 107 8 16 22 61 30 100 8 39 22 85 31 101 8 17 22 63 30 102 9 40
24 91 34 115 11 24 24 71 30 104 7 34 20 78 30 97 10 20 25 71 34 114 8 42 22
91 31 107 8 16 22 61 30 100 8 39 22 85 31 101 8 17 22 63 30 102 9 40 24 91
34 115 11 24 24 71 30 104 7 34 20 78 30 97 10 20 23 63 30 96 11 57 73 220
91 239 12 13 25 -28 37 -120 6 -45 20 -104 31 -131 11 -28 25 -79 31 -114 7
-35 20 -84 31 -109 10 -25 25 -80 33 -122 8 -42 22 -90 31 -107 8 -17 22 -68
31 -113 9 -45 22 -95 30 -111 9 -15 22 -63 30 -105 8 -42 23 -97 33 -122 11
-25 25 -77 32 -115 6 -39 18 -83 26 -98 8 -16 23 -68 34 -117 10 -49 27 -111
38 -137 10 -26 22 -68 26 -93 3 -25 19 -85 35 -135 15 -49 35 -118 44 -152 41
-161 50 -192 68 -248 11 -33 28 -98 38 -143 19 -88 42 -149 73 -194 l18 -28
409 0 410 0 14 23 c25 40 65 150 81 225 8 40 22 86 30 102 8 16 22 61 30 100
8 39 22 84 30 100 9 16 23 65 31 107 9 43 23 90 30 105 8 15 23 66 34 113 11
47 27 100 35 116 9 16 20 55 26 87 6 31 21 84 34 117 12 33 26 80 30 105 4 25
18 70 30 100 13 30 29 84 35 120 6 35 20 80 30 100 10 20 24 65 30 100 6 36
22 90 35 120 12 30 25 75 29 98 4 24 17 69 30 100 13 32 27 80 31 107 4 28 17
75 30 105 13 30 28 81 34 113 6 32 19 78 30 103 11 25 25 72 31 104 6 32 20
79 31 104 11 25 24 71 30 103 6 32 21 83 34 113 13 30 26 78 30 105 4 28 18
75 31 107 13 31 26 76 30 100 4 23 17 68 29 98 13 30 29 84 35 120 6 35 20 81
31 101 10 20 22 56 25 80 12 70 18 69 -370 69 -253 0 -347 -4 -366 -13 -30
-15 -56 -80 -71 -180 -6 -40 -20 -93 -30 -119 -10 -25 -25 -84 -33 -130 -8
-45 -22 -100 -31 -122 -9 -21 -23 -75 -30 -119 -8 -44 -23 -103 -34 -131 -10
-28 -24 -84 -30 -123 -6 -40 -20 -95 -31 -123 -11 -28 -25 -83 -31 -123 -6
-39 -20 -93 -30 -119 -10 -25 -25 -84 -33 -130 -8 -45 -22 -100 -31 -121 -8
-21 -22 -76 -30 -122 -8 -46 -23 -106 -34 -132 -10 -26 -24 -81 -30 -120 -6
-40 -20 -94 -30 -120 -10 -27 -24 -82 -31 -123 -7 -41 -21 -96 -31 -123 -10
-26 -24 -80 -30 -120 -6 -39 -20 -94 -30 -122 -10 -27 -23 -84 -29 -125 -14
-98 -18 -112 -38 -108 -12 2 -21 22 -30 63 -8 33 -22 90 -33 126 -11 36 -24
94 -30 130 -6 35 -19 84 -30 108 -11 24 -24 76 -30 115 -6 39 -19 90 -29 113
-10 24 -26 82 -35 130 -9 47 -23 100 -31 115 -8 16 -21 64 -29 106 -7 42 -22
100 -33 127 -11 28 -25 81 -31 118 -7 38 -20 90 -31 117 -11 27 -25 79 -31
117 -7 37 -22 95 -34 128 -13 33 -26 85 -30 115 -4 30 -18 81 -30 115 -12 33
-28 90 -34 127 -6 37 -20 87 -30 111 -10 23 -24 76 -31 117 -7 41 -21 93 -31
117 -10 23 -23 71 -29 105 -6 35 -22 95 -35 134 -13 39 -27 94 -31 122 -12 91
6 87 -410 90 -242 2 -370 -1 -383 -8 -27 -14 -58 -86 -82 -188 -10 -46 -26
-96 -34 -111 -8 -16 -21 -60 -29 -99 -8 -39 -21 -84 -30 -100 -8 -16 -22 -61
-30 -100 -8 -39 -24 -92 -35 -117 -11 -24 -23 -66 -27 -92 -3 -27 -17 -73 -29
-103 -13 -30 -28 -82 -35 -115 -7 -33 -20 -78 -31 -101 -10 -22 -25 -73 -33
-112 -8 -38 -22 -84 -30 -101 -9 -16 -23 -62 -31 -101 -8 -39 -22 -84 -30
-100 -9 -16 -23 -65 -31 -107 -9 -43 -24 -94 -34 -114 -10 -19 -23 -63 -30
-97 -6 -33 -19 -80 -30 -104 -10 -24 -25 -75 -34 -115 -8 -39 -22 -85 -30
-102 -9 -16 -23 -62 -31 -101 -8 -39 -22 -84 -30 -100 -8 -16 -22 -62 -30
-102 -18 -83 -73 -246 -87 -254 -20 -12 -29 16 -39 110 -5 54 -19 121 -30 149
-12 29 -27 86 -34 128 -8 42 -21 94 -30 115 -9 22 -23 76 -31 121 -8 45 -23
101 -33 125 -11 23 -24 76 -30 115 -6 40 -20 95 -31 122 -10 27 -25 80 -31
118 -7 37 -22 95 -34 128 -13 33 -26 85 -30 115 -4 30 -18 83 -31 118 -13 35
-26 86 -30 115 -4 29 -17 79 -29 112 -12 33 -28 94 -35 135 -7 41 -21 94 -31
118 -11 24 -24 76 -30 115 -6 40 -19 92 -30 115 -10 24 -25 80 -33 125 -8 45
-22 100 -31 121 -9 22 -23 73 -31 115 -21 112 -51 186 -80 200 -17 7 -141 11
-393 11 -340 0 -371 -1 -391 -18z"/>
</g>
</svg>
