<?xml version="1.0" standalone="no"?>
<!DOCTYPE svg PUBLIC "-//W3C//DTD SVG 20010904//EN"
 "http://www.w3.org/TR/2001/REC-SVG-20010904/DTD/svg10.dtd">
<svg version="1.0" xmlns="http://www.w3.org/2000/svg"
 width="7030.000000pt" height="4688.000000pt" viewBox="0 0 7030.000000 4688.000000"
 preserveAspectRatio="xMidYMid meet">
<metadata>
Created by potrace 1.16, written by Peter Selinger 2001-2019
</metadata>
<g transform="translate(0.000000,4688.000000) scale(0.100000,-0.100000)"
fill="#000000" stroke="none">
<path d="M22180 27480 c-720 -81 -1274 -641 -1343 -1360 -20 -199 2 -403 61
-592 55 -175 155 -361 267 -497 47 -57 85 -105 85 -107 0 -3 -1410 -2274
-1447 -2330 l-14 -21 -77 22 c-46 13 -138 27 -227 34 -129 11 -170 11 -295 -3
-709 -78 -1262 -637 -1336 -1348 -14 -133 -14 -163 0 -300 72 -719 631 -1279
1349 -1354 135 -14 164 -14 305 0 129 13 182 24 297 60 683 213 1120 869 1055
1582 -18 193 -76 390 -165 558 -73 138 -81 150 -188 280 l-78 95 722 1163
c397 640 725 1166 728 1170 4 4 41 -3 84 -17 45 -13 139 -30 227 -39 136 -14
164 -14 300 0 88 9 182 26 227 39 43 14 80 21 84 17 3 -4 331 -530 728 -1170
l722 -1163 -78 -95 c-107 -130 -115 -142 -188 -280 -89 -168 -147 -365 -165
-556 -46 -503 158 -991 545 -1309 235 -192 505 -305 807 -335 142 -14 170 -14
307 0 717 74 1273 633 1347 1352 15 136 14 165 0 302 -74 712 -627 1270 -1336
1348 -125 14 -166 14 -295 3 -90 -7 -181 -21 -228 -34 l-77 -23 -54 87 c-29
47 -358 576 -730 1175 -433 696 -673 1092 -668 1100 5 6 45 56 89 111 111 137
208 325 261 505 173 582 -17 1203 -486 1592 -230 191 -515 312 -797 337 -71 6
-139 13 -150 15 -11 2 -90 -5 -175 -14z"/>
<path d="M28630 23925 l0 -2745 420 0 420 0 2 273 3 272 65 -95 c163 -238 390
-406 650 -482 167 -48 443 -62 649 -33 246 36 495 135 671 269 315 237 555
633 654 1078 76 343 92 778 41 1119 -62 414 -214 743 -459 996 -284 294 -665
426 -1135 391 -261 -19 -462 -87 -681 -231 -108 -71 -299 -270 -380 -395 -36
-55 -68 -101 -72 -101 -5 -1 -8 546 -8 1214 l0 1215 -420 0 -420 0 0 -2745z
m1925 375 c117 -12 193 -33 285 -76 282 -133 471 -434 519 -829 14 -115 14
-416 0 -543 -56 -521 -281 -885 -633 -1026 -113 -45 -197 -60 -351 -59 -96 0
-161 5 -209 16 -364 89 -632 390 -691 777 -18 116 -21 669 -4 805 32 263 133
486 298 659 154 160 348 254 571 276 109 11 116 11 215 0z"/>
<path d="M34270 24974 c-473 -31 -851 -172 -1100 -410 -137 -131 -226 -271
-271 -426 -27 -93 -37 -332 -19 -446 45 -280 185 -488 443 -658 71 -47 296
-163 405 -208 35 -15 168 -66 295 -113 310 -114 407 -164 505 -257 92 -86 132
-176 132 -292 0 -245 -186 -393 -544 -433 -421 -47 -814 49 -1164 283 -46 31
-85 56 -88 56 -2 0 -4 -173 -4 -385 l0 -386 48 -20 c150 -66 390 -128 617
-161 124 -18 630 -18 750 0 413 62 705 186 919 392 133 128 213 255 263 417
25 82 27 101 27 278 1 218 -11 284 -75 423 -103 224 -288 392 -609 551 -177
89 -319 148 -515 217 -282 98 -447 191 -514 288 -49 71 -64 121 -65 221 -1 81
2 96 28 150 60 122 194 216 381 267 71 20 104 22 300 22 189 0 234 -3 321 -22
186 -40 364 -110 497 -195 32 -21 60 -37 62 -37 3 0 4 165 3 366 l-3 367 -40
14 c-156 55 -338 96 -519 117 -128 16 -374 26 -466 20z"/>
<path d="M38271 24969 c-456 -35 -813 -251 -1073 -649 -27 -41 -54 -76 -59
-78 -5 -2 -9 125 -9 322 l0 326 -420 0 -420 0 0 -2705 0 -2705 420 0 420 0 0
1125 c0 619 3 1125 8 1125 4 0 20 -21 36 -46 165 -261 437 -464 716 -533 276
-68 615 -53 895 40 563 187 957 719 1075 1450 79 491 36 1036 -110 1405 -89
222 -197 390 -350 545 -161 162 -328 261 -545 324 -166 48 -393 69 -584 54z
m-43 -670 c424 -46 704 -354 788 -864 24 -144 24 -459 1 -631 -86 -634 -409
-1003 -908 -1039 -108 -8 -251 7 -349 37 -297 92 -534 358 -612 686 -17 75
-21 132 -25 405 -6 338 3 478 37 624 55 234 178 437 353 584 149 125 351 196
590 208 15 0 71 -4 125 -10z"/>
<path d="M48265 24970 c-394 -30 -705 -200 -941 -513 -41 -53 -81 -111 -89
-128 -9 -16 -20 -27 -25 -24 -6 4 -10 122 -10 296 l0 289 -420 0 -420 0 2
-1852 3 -1853 417 -3 417 -2 4 1107 c4 1078 4 1111 25 1218 36 189 88 325 175
459 165 252 386 365 660 336 351 -36 537 -236 624 -670 15 -76 17 -209 22
-1265 l6 -1180 420 0 420 0 6 1120 c6 1236 1 1152 70 1360 64 192 196 394 324
498 132 106 288 155 455 142 388 -31 565 -235 636 -735 16 -112 18 -240 22
-1258 l4 -1132 416 2 417 3 0 1245 c-1 1345 -1 1355 -56 1605 -71 326 -212
571 -415 720 -201 149 -434 217 -743 217 -178 -1 -266 -11 -401 -49 -318 -87
-582 -295 -774 -607 -33 -53 -61 -94 -64 -91 -2 2 -19 40 -37 84 -93 226 -262
414 -483 534 -192 104 -414 147 -667 127z"/>
<path d="M40290 24863 c14 -42 1080 -3673 1080 -3679 0 -2 194 -3 432 -2 l432
3 308 1060 c445 1532 456 1570 474 1677 18 99 34 120 34 44 0 -93 44 -268 374
-1501 l343 -1280 440 -3 440 -2 11 37 c6 21 250 848 542 1838 292 990 533
1808 536 1818 5 16 -18 17 -395 17 l-401 0 -5 -22 c-3 -13 -156 -637 -341
-1388 -318 -1296 -364 -1494 -364 -1561 0 -17 -5 -29 -13 -29 -9 0 -18 39 -29
128 -12 94 -104 481 -353 1482 -185 745 -339 1363 -341 1373 -5 16 -33 17
-399 17 -366 0 -394 -1 -399 -17 -3 -10 -174 -619 -381 -1353 -359 -1277 -415
-1487 -415 -1562 0 -34 -14 -67 -25 -56 -3 3 -11 50 -16 104 -14 137 0 79
-372 1554 l-334 1325 -436 3 -436 2 9 -27z"/>
</g>
</svg>
