<?xml version="1.0" encoding="UTF-8" standalone="no"?>
<svg
   version="1.1"
   width="7030.000000pt"
   height="4686.000000pt"
   viewBox="0 0 7030.000000 4686.000000"
   id="svg1"
   sodipodi:docname="bspwm.svg"
   inkscape:version="1.4 (e7c3feb100, 2024-10-09)"
   xmlns:inkscape="http://www.inkscape.org/namespaces/inkscape"
   xmlns:sodipodi="http://sodipodi.sourceforge.net/DTD/sodipodi-0.dtd"
   xmlns="http://www.w3.org/2000/svg"
   xmlns:svg="http://www.w3.org/2000/svg">
  <defs
     id="defs1" />
  <sodipodi:namedview
     id="namedview1"
     pagecolor="#ffffff"
     bordercolor="#000000"
     borderopacity="0.25"
     inkscape:showpageshadow="2"
     inkscape:pageopacity="0.0"
     inkscape:pagecheckerboard="0"
     inkscape:deskcolor="#d1d1d1"
     inkscape:document-units="pt"
     inkscape:zoom="0.12916133"
     inkscape:cx="4742.1314"
     inkscape:cy="3193.6803"
     inkscape:window-width="1896"
     inkscape:window-height="1016"
     inkscape:window-x="1932"
     inkscape:window-y="52"
     inkscape:window-maximized="1"
     inkscape:current-layer="svg1" />
  <path
     d="M 3515,1732.5242 A 610.47584,610.47584 0 0 0 2904.5242,2343 610.47584,610.47584 0 0 0 3515,2953.4758 610.47584,610.47584 0 0 0 4125.4758,2343 610.47584,610.47584 0 0 0 3515,1732.5242 Z m -149.3122,146.2598 h 2.6708 c 4.9093,0 8.8519,3.9427 8.8519,8.8519 v 447.6823 h 272.1705 v -447.6823 c 0,-4.9092 3.9426,-8.8519 8.8519,-8.8519 4.9092,0 8.8519,3.9427 8.8519,8.8519 v 447.6823 h 302.6943 c 4.9092,0 8.801,3.9681 8.801,8.8519 0,4.8838 -3.9172,8.8519 -8.801,8.8519 h -447.6823 v 447.6823 c 0,4.9092 -3.9172,8.8519 -8.801,8.8519 -4.9093,0 -8.8519,-3.9681 -8.8519,-8.8519 V 2353.022 h -447.6823 c -4.9093,0 -8.8011,-3.9427 -8.8011,-8.8519 0,-4.9093 3.9173,-8.8519 8.8011,-8.8519 h 300.1506 v -447.6823 c 0,-4.9092 3.9427,-8.8519 8.8519,-8.8519 z m 143.9705,199.1677 c 12.4894,0 25.1313,2.7726 35.8655,9.2335 13.2524,15.8978 19.7641,-16.7627 37.3916,-5.6723 2.2384,15.5671 0.3816,31.7956 0.9921,47.5662 4.4259,12.9726 -10.5562,18.238 -19.1792,11.7771 -0.7631,-24.1138 -22.3332,-43.4964 -46.04,-44.5139 -24.0884,-6.588 -54.6885,18.238 -34.848,41.7159 20.4509,18.5686 50.6186,17.4494 74.2746,29.7607 37.9003,12.7437 45.0225,70.7134 12.6165,93.0975 -29.7607,20.1966 -74.0202,21.9772 -103.0178,-1.0937 -5.7996,7.3766 -17.5767,20.2983 -30.0151,11.5227 0,-16.6609 0,-33.3218 0,-50.1099 -5.5452,-13.9138 10.6325,-18.1362 19.3826,-11.1412 2.7217,32.05 37.646,53.1623 67.9154,47.5663 25.6909,0.8902 43.2421,-31.0326 26.454,-51.3818 -19.1791,-20.0185 -49.6012,-18.7212 -73.5115,-30.015 -22.3332,-6.6135 -35.8654,-30.2694 -32.3043,-52.9079 1.5262,-31.5413 35.8654,-46.5488 63.5912,-45.277 z m 211.3773,2.035 c 16.9661,1.0429 34.0849,0.2543 51.1273,0.4833 32.05,1.3481 68.4242,-5.8504 95.6413,15.3636 29.2519,25.4365 15.8469,80.1249 -21.7228,89.7908 -21.1886,8.0888 -44.7682,2.798 -66.1349,6.003 -2.7471,14.8804 -0.4578,30.7782 -1.1955,46.0401 -3.4339,13.1252 5.7486,17.7292 17.5257,15.4399 14.6515,-6.6135 20.7053,9.4878 12.9727,18.9248 -25.0296,0.5342 -50.1099,0 -75.0377,0.2543 -13.4813,3.1542 -22.5622,-4.1461 -17.3477,-18.187 8.5467,-3.4594 20.1711,2.4673 27.2171,-3.6883 0.2543,-44.2595 0,-88.519 0,-132.7785 3.205,-13.5577 -4.8075,-21.0614 -18.2889,-18.0345 -12.6674,5.4688 -13.4813,-18.0345 -4.8075,-19.7133 z m -579.952,0.2543 c 4.4259,0.5342 8.9282,0 13.3541,0.2544 35.8655,0.7122 71.9853,-1.6788 107.8507,1.6788 23.4779,2.7217 49.3468,19.2046 47.5663,45.7857 5.5197,25.4365 -29.252,43.4964 -39.6809,45.5313 26.1995,2.1621 52.6535,23.6305 47.0575,52.1448 -0.7886,27.2171 -27.7258,43.4964 -52.1448,45.7857 -35.3568,2.5691 -71.2222,0.7377 -106.579,1.2973 -9.4623,-0.2544 -25.9452,3.8663 -22.3078,-11.1667 -1.9331,-16.9915 23.834,-0.3815 27.7258,-12.5147 0.8903,-46.0401 0.2544,-92.3345 0.407,-138.6289 3.5357,-13.405 -10.2763,-10.4035 -18.7721,-10.429 -12.7437,5.3417 -12.2859,-17.9327 -4.2225,-19.6115 z m 674.067,18.9248 c -1.4753,-0.023 -3.0015,0 -4.5785,0.3052 h -3.7138 c -9.5641,1.1447 -21.3412,-2.3401 -29.2519,2.8743 -0.6105,19.0011 0,37.9004 -0.2544,56.9778 -3.79,16.4828 15.4145,10.8614 25.2839,11.828 17.7801,2.6453 37.3916,-6.7407 39.9353,-26.1996 6.7406,-20.1966 -5.1636,-45.5314 -27.4715,-46.0401 z m -569.7774,0 c -1.4245,0 -2.8744,0 -4.3751,0.3052 h -13.5577 c -9.2334,1.399 -22.1551,-3.2304 -28.4888,3.6374 0.2543,19.4844 -1.4753,39.4266 1.0429,58.504 8.9282,3.5865 19.3826,1.0174 28.9976,1.7805 16.9661,1.0684 40.1896,-0.5341 44.0051,-21.0614 6.7407,-19.8913 -6.4354,-43.242 -27.7258,-43.242 z m 1.1446,83.1773 c -1.5262,0 -3.0778,0.015 -4.6803,0.2544 l -34.3393,0.2543 c -14.9821,-2.9506 -9.6913,15.2365 -10.6324,24.3428 0.8394,14.9057 -1.7806,30.5238 1.5262,45.0226 10.2509,1.9586 20.9088,0.585 31.2869,0.992 18.2888,1.6279 41.7158,-2.62 46.2944,-23.5542 7.809,-21.5193 -6.9188,-46.5488 -29.7607,-47.3119 z m 143.9706,240.6292 h -0.407 c 10.4544,6.7407 2.6454,22.1298 -9.3352,19.9677 6.8424,23.8848 15.4654,47.3119 22.4604,71.2222 8.9791,-23.1472 17.0425,-46.8032 24.7497,-70.4591 -11.192,-1.0175 -21.3666,-5.1128 -15.6943,-19.2809 8.623,-2.0603 17.8819,-0.5342 26.7083,-0.992 8.6993,1.8314 24.4445,-4.5023 26.9627,5.2653 4.197,14.7532 -9.4115,11.4719 -18.5686,15.0076 -10.5307,31.0325 -21.3413,62.065 -32.05,93.0975 -0.2544,14.3208 -14.6514,20.7562 -26.1996,13.7103 -9.2843,-25.411 -19.2554,-50.6186 -27.9801,-76.3095 -10.4036,22.3078 -19.0265,45.7857 -28.9976,68.4242 -1.3227,12.2604 -15.2111,11.4719 -24.0884,9.2334 -13.634,-35.611 -26.1996,-71.9852 -39.1722,-107.8507 -11.4719,-1.8568 -24.1392,-6.4354 -15.4908,-20.4764 20.2474,-0.4069 40.6984,0.2544 60.7932,-0.3052 9.793,9.2843 0.3815,22.2569 -12.9726,19.3826 6.2319,21.5702 15.1856,43.4964 22.0025,65.1174 7.4275,5.3163 11.7517,-21.3412 17.3986,-30.2694 3.1541,-10.7851 12.7946,-21.2903 9.1317,-32.5587 -9.4878,-4.2988 -20.0948,-6.1811 -14.1172,-20.8579 17.7037,-2.035 36.3741,0.2543 54.434,-1.1447 z m 236.305,0.2544 c 5.011,0.2544 9.2334,1.5516 10.5307,7.2494 8.4449,25.9452 15.6434,52.3992 24.3427,77.8357 7.402,-17.5766 12.5402,-36.6286 19.7133,-54.4341 4.7821,-9.6913 5.4434,-22.3333 13.1761,-29.7607 17.4749,-1.1192 35.1024,-0.4579 52.6535,-0.3561 8.6993,12.8454 -3.3576,20.0185 -15.3636,19.3826 0,21.9771 1.6279,44.0051 2.2893,66.1349 2.3656,7.809 -4.1716,23.2743 6.8678,24.3427 12.3367,-3.4085 16.6101,6.6389 12.7692,17.2459 -15.9487,1.5262 -32.05,0.3053 -48.075,0.6868 -7.631,-1.6534 -23.4016,5.011 -21.9008,-7.1476 -4.426,-14.9567 12.4639,-8.3432 19.5861,-12.9218 -0.6105,-25.9452 -0.8903,-52.3992 -3.027,-78.3444 -8.7247,29.252 -18.5941,58.2496 -28.4888,87.2472 0.2543,15.6434 -17.4495,14.7786 -27.7258,10.9886 -11.8789,-33.3219 -21.3158,-67.6611 -33.8306,-100.4742 -2.6454,18.7467 -1.1955,37.9004 -2.4927,56.9777 1.984,8.5721 -7.3766,26.9627 6.8169,25.9453 12.3367,-3.8409 13.9901,7.9107 10.9886,17.2459 -11.2429,1.399 -22.6639,0.3053 -34.0849,0.6359 -7.4529,-2.1366 -21.8245,4.8838 -23.9357,-4.4259 -4.1971,-14.6006 8.6229,-13.5068 18.8738,-14.4988 2.62,-21.0869 2.213,-42.9877 3.7138,-64.6087 -1.6534,-8.9282 7.1476,-27.2171 -6.6135,-26.454 -12.4639,5.5452 -15.0839,-15.0329 -6.5626,-18.2379 11.4718,0.4578 23.02,0 34.5936,0.2543 4.3496,0.7377 10.0983,-0.3815 15.1093,-0.2543 z"
     id="path1"
     style="stroke-width:25.4365" />
</svg>
