<?xml version="1.0" encoding="UTF-8" standalone="no"?>
<svg
   id="SVGRoot"
   width="7030.000000pt"
   height="4686.000000pt"
   viewBox="0 0 7030.000000 4686.000000"
   version="1.1"
   sodipodi:docname="cachyos_text.svg"
   inkscape:version="1.2.2 (b0a8486541, 2022-12-01)"
   xml:space="preserve"
   xmlns:inkscape="http://www.inkscape.org/namespaces/inkscape"
   xmlns:sodipodi="http://sodipodi.sourceforge.net/DTD/sodipodi-0.dtd"
   xmlns:xlink="http://www.w3.org/1999/xlink"
   xmlns="http://www.w3.org/2000/svg"
   xmlns:svg="http://www.w3.org/2000/svg"><sodipodi:namedview
     id="namedview30"
     pagecolor="#ffffff"
     bordercolor="#666666"
     borderopacity="1.0"
     inkscape:showpageshadow="2"
     inkscape:pageopacity="0.0"
     inkscape:pagecheckerboard="0"
     inkscape:deskcolor="#d1d1d1"
     inkscape:document-units="pt"
     inkscape:zoom="0.27433208"
     inkscape:cx="4778.8796"
     inkscape:cy="3371.8258"
     inkscape:window-width="1908"
     inkscape:window-height="999"
     inkscape:window-x="1920"
     inkscape:window-y="0"
     inkscape:window-maximized="1"
     inkscape:current-layer="SVGRoot"
     showgrid="false" /><defs
     id="defs6"><rect
       x="4064.8086"
       y="3835.4059"
       width="1819.7558"
       height="440.76238"
       id="rect31" /><linearGradient
       id="linearGradient939"
       x1="237.19"
       x2="237.07"
       y1="296.2"
       y2="304.08"
       gradientTransform="matrix(0.04476,0,0,0.044679,3441.8977,2276.3498)"
       gradientUnits="userSpaceOnUse"
       xlink:href="#linearGradient937" /><linearGradient
       id="linearGradient937"><stop
         stop-color="#001313"
         offset="0"
         id="stop1" /><stop
         stop-color="#001313"
         stop-opacity="0"
         offset="1"
         id="stop2" /></linearGradient><linearGradient
       id="linearGradient5185"
       x1="994.81"
       x2="982.34"
       y1="1533.3"
       y2="1556.8"
       gradientTransform="matrix(0.084141,0,0,0.083989,3374.159,2154.31)"
       gradientUnits="userSpaceOnUse"
       xlink:href="#linearGradient4353" /><linearGradient
       id="linearGradient4353"><stop
         stop-color="#020202"
         offset="0"
         id="stop3" /><stop
         stop-color="#020202"
         stop-opacity="0"
         offset="1"
         id="stop4" /></linearGradient><linearGradient
       id="linearGradient9102"
       x1="1022.5"
       x2="1018.6"
       y1="1582.4"
       y2="1575.6"
       gradientTransform="matrix(0.086381,0,0,0.081808,3371.298,2156.01)"
       gradientUnits="userSpaceOnUse"
       xlink:href="#linearGradient4353" /><linearGradient
       id="linearGradient11890"
       x1="940.43"
       x2="930.59"
       y1="1612.5"
       y2="1594.5"
       gradientTransform="matrix(0.084141,0,0,0.083989,3374.159,2154.31)"
       gradientUnits="userSpaceOnUse"
       xlink:href="#linearGradient4353" /><linearGradient
       id="linearGradient11670"
       x1="965.6"
       x2="951.66"
       y1="1571.4"
       y2="1571.3"
       gradientTransform="matrix(0.084141,0,0,0.083989,3374.159,2154.31)"
       gradientUnits="userSpaceOnUse"
       xlink:href="#linearGradient4353" /><linearGradient
       id="linearGradient13770"
       x1="946.23"
       x2="961.37"
       y1="1655.9"
       y2="1655.8"
       gradientTransform="matrix(0.084141,0,0,0.083989,3374.159,2154.31)"
       gradientUnits="userSpaceOnUse"
       xlink:href="#linearGradient4353" /><linearGradient
       id="linearGradient2816"
       x1="366.15"
       x2="350.92"
       y1="427.32"
       y2="419.64"
       gradientTransform="matrix(0.04476,0,0,0.044679,3439.569,2276.5451)"
       gradientUnits="userSpaceOnUse"
       xlink:href="#linearGradient937" /><linearGradient
       id="linearGradient12421"
       x1="936.34"
       x2="933.38"
       y1="1628.8"
       y2="1623"
       gradientTransform="matrix(0.084141,0,0,0.083989,3374.159,2154.31)"
       gradientUnits="userSpaceOnUse"
       xlink:href="#linearGradient4353" /><linearGradient
       id="linearGradient13391"
       x1="950.33"
       x2="941.97"
       y1="1618.6"
       y2="1645.8"
       gradientTransform="matrix(0.084141,0,0,0.083989,3374.159,2154.31)"
       gradientUnits="userSpaceOnUse"
       xlink:href="#linearGradient4353" /><linearGradient
       id="linearGradient13599"
       x1="1008.2"
       x2="1015.7"
       y1="1681.3"
       y2="1668.4"
       gradientTransform="matrix(0.084141,0,0,0.083989,3374.159,2154.31)"
       gradientUnits="userSpaceOnUse"
       xlink:href="#linearGradient4353" /><linearGradient
       id="linearGradient18175"
       x1="1148.3"
       x2="1145.4"
       y1="1585.5"
       y2="1630"
       gradientTransform="matrix(0.34992,0,0,0.34992,-282.87,-491.67)"
       gradientUnits="userSpaceOnUse"
       xlink:href="#linearGradient18299" /><linearGradient
       id="linearGradient18299"><stop
         stop-color="#008066"
         stop-opacity="0"
         offset="0"
         id="stop5" /><stop
         stop-color="#0fc"
         offset="1"
         id="stop6" /></linearGradient><linearGradient
       id="linearGradient18632"
       x1="1148.3"
       x2="1145.4"
       y1="1585.5"
       y2="1630"
       gradientTransform="matrix(0.26565,0,0,0.26565,-211.15,-375.49)"
       gradientUnits="userSpaceOnUse"
       xlink:href="#linearGradient18299" /><linearGradient
       id="linearGradient18659"
       x1="1148.3"
       x2="1145.4"
       y1="1585.5"
       y2="1630"
       gradientTransform="matrix(0.13679,0,0,0.13679,-53.624,-195.03)"
       gradientUnits="userSpaceOnUse"
       xlink:href="#linearGradient18299" /><linearGradient
       id="linearGradient3254"
       x1="348.05"
       x2="361.21"
       y1="194.78"
       y2="187.24"
       gradientTransform="matrix(0.04476,0,0,0.044679,3439.569,2276.5451)"
       gradientUnits="userSpaceOnUse"
       xlink:href="#linearGradient937" /><linearGradient
       id="linearGradient3254-7"
       x1="348.04999"
       x2="361.20999"
       y1="194.78"
       y2="187.24001"
       gradientTransform="matrix(0.49693843,0,0,0.49603912,1772.3204,2571.7824)"
       gradientUnits="userSpaceOnUse"
       xlink:href="#linearGradient937" /><linearGradient
       id="linearGradient13599-0"
       x1="1008.2"
       x2="1015.7"
       y1="1681.3"
       y2="1668.4"
       gradientTransform="matrix(0.93415764,0,0,0.93247008,1046.1198,1214.6934)"
       gradientUnits="userSpaceOnUse"
       xlink:href="#linearGradient4353" /><linearGradient
       id="linearGradient13391-9"
       x1="950.33002"
       x2="941.96997"
       y1="1618.6"
       y2="1645.8"
       gradientTransform="matrix(0.93415764,0,0,0.93247008,1046.1198,1214.6934)"
       gradientUnits="userSpaceOnUse"
       xlink:href="#linearGradient4353" /><linearGradient
       id="linearGradient12421-3"
       x1="936.34003"
       x2="933.38"
       y1="1628.8"
       y2="1623"
       gradientTransform="matrix(0.93415764,0,0,0.93247008,1046.1198,1214.6934)"
       gradientUnits="userSpaceOnUse"
       xlink:href="#linearGradient4353" /><linearGradient
       id="linearGradient2816-6"
       x1="366.14999"
       x2="350.92001"
       y1="427.32001"
       y2="419.64001"
       gradientTransform="matrix(0.49693843,0,0,0.49603912,1772.3204,2571.7824)"
       gradientUnits="userSpaceOnUse"
       xlink:href="#linearGradient937" /><linearGradient
       id="linearGradient13770-0"
       x1="946.22998"
       x2="961.37"
       y1="1655.9"
       y2="1655.8"
       gradientTransform="matrix(0.93415764,0,0,0.93247008,1046.1198,1214.6934)"
       gradientUnits="userSpaceOnUse"
       xlink:href="#linearGradient4353" /><linearGradient
       id="linearGradient11670-6"
       x1="965.59998"
       x2="951.65997"
       y1="1571.4"
       y2="1571.3"
       gradientTransform="matrix(0.93415764,0,0,0.93247008,1046.1198,1214.6934)"
       gradientUnits="userSpaceOnUse"
       xlink:href="#linearGradient4353" /><linearGradient
       id="linearGradient11890-2"
       x1="940.42999"
       x2="930.59003"
       y1="1612.5"
       y2="1594.5"
       gradientTransform="matrix(0.93415764,0,0,0.93247008,1046.1198,1214.6934)"
       gradientUnits="userSpaceOnUse"
       xlink:href="#linearGradient4353" /><linearGradient
       id="linearGradient9102-6"
       x1="1022.5"
       x2="1018.6"
       y1="1582.4"
       y2="1575.6"
       gradientTransform="matrix(0.95902675,0,0,0.90825599,1014.3559,1233.5673)"
       gradientUnits="userSpaceOnUse"
       xlink:href="#linearGradient4353" /><linearGradient
       id="linearGradient5185-1"
       x1="994.81"
       x2="982.34003"
       y1="1533.3"
       y2="1556.8"
       gradientTransform="matrix(0.93415764,0,0,0.93247008,1046.1198,1214.6934)"
       gradientUnits="userSpaceOnUse"
       xlink:href="#linearGradient4353" /><linearGradient
       id="linearGradient939-8"
       x1="237.19"
       x2="237.07001"
       y1="296.20001"
       y2="304.07999"
       gradientTransform="matrix(0.49693843,0,0,0.49603912,1798.1741,2569.6142)"
       gradientUnits="userSpaceOnUse"
       xlink:href="#linearGradient937" /></defs><g
     id="g1542"><g
       id="g1501"><path
         fill="#00aa88"
         d="m 3588.499,3122.434 c 0,-1.6034 0.8449,-6.4475 1.8775,-10.7648 1.0327,-4.3173 9.4718,-44.0757 18.7537,-88.352 9.2819,-44.2763 17.686,-82.3979 18.676,-84.7147 1.6478,-3.8565 3.0287,-4.2099 16.3491,-4.1836 8.0021,0.016 15.5931,0.6916 16.8688,1.5018 1.7892,1.1364 0.8216,8.4734 -4.2319,32.0904 -3.6032,16.8394 -6.1119,31.0566 -5.5748,31.5937 0.5371,0.5371 4.2411,-0.8583 8.231,-3.1007 6.8113,-3.8282 9.6542,-4.0773 46.5303,-4.0773 36.8995,0 39.5743,0.2348 44.2087,3.8802 3.8397,3.0203 4.9328,5.5168 4.9328,11.2658 0,6.7399 -21.6343,113.0443 -23.6793,116.3533 -0.4838,0.7828 -8.4121,1.4232 -17.6185,1.4232 -14.3521,0 -16.7388,-0.4434 -16.7388,-3.1097 0,-1.7104 4.3238,-23.6044 9.6086,-48.6535 7.8394,-37.1583 9.176,-46.0649 7.2593,-48.3743 -3.2283,-3.8899 -61.1139,-4.1776 -66.3759,-0.3299 -1.992,1.4566 -4.3849,7.1238 -5.731,13.5731 -1.2712,6.0897 -5.409,26.2367 -9.1953,44.771 -3.7863,18.5342 -7.6687,35.5942 -8.6277,37.911 -1.6261,3.9282 -2.8829,4.2123 -18.6331,4.2123 -14.0404,0 -16.8895,-0.4918 -16.8895,-2.9153 z"
         id="path1481" /><path
         fill="#00aa88"
         d="m 3452.7682,3123.1122 c -5.4172,-3.072 -6.4917,-5.3036 -6.5238,-13.5499 -0.041,-10.428 18.2665,-96.1454 22.2183,-104.0305 6.212,-12.3949 9.814,-13.0988 67.0376,-13.1021 27.9981,0 51.311,0.6531 51.8065,1.4549 1.7045,2.7578 -4.1226,25.518 -7.0883,27.6866 -2.0672,1.5115 -10.8334,1.888 -28.8648,1.2395 -14.2428,-0.5122 -31.584,-0.3221 -38.536,0.4224 -15.2483,1.6329 -14.8338,0.9188 -22.5765,38.888 -4.2743,20.9606 -4.8042,26.2246 -2.8741,28.5503 1.9778,2.3831 8.6325,2.8514 40.5163,2.8514 h 38.1498 l -0.01,4.2123 c -0.01,2.3168 -0.7665,7.161 -1.6905,10.7649 -0.924,3.6039 -2.199,8.8693 -2.8334,11.7009 l -1.1535,5.1484 -51.9164,-0.057 c -35.1558,-0.039 -53.1253,-0.7424 -55.6608,-2.1802 z"
         id="path1479" /><path
         fill="#00aa88"
         d="m 3282.6552,3121.4691 c -6.3517,-4.9962 -6.3997,-11.3862 -0.2933,-38.9947 5.5218,-24.965 8.8015,-32.5163 15.5763,-35.8634 5.4779,-2.7064 67.7247,-4.9945 76.4304,-2.8095 4.4335,1.1127 4.6663,1.7244 3.4541,9.0759 -0.7149,4.3355 -2.1502,8.9359 -3.1895,10.223 -1.34,1.6594 -9.1088,2.3402 -26.7053,2.3402 -18.8817,0 -25.3311,0.6212 -26.9716,2.5979 -1.1859,1.4289 -3.1578,7.3735 -4.3821,13.2101 -1.8854,8.9888 -1.8054,10.8781 0.5228,12.3506 1.5118,0.9561 16.8809,1.7513 34.1535,1.7671 30.8625,0.028 31.4322,-0.044 32.9901,-4.1837 3.0519,-8.1096 13.5741,-61.1994 12.9715,-65.4481 l -0.6083,-4.2894 -46.8037,-0.9361 -46.8037,-0.9361 0.2973,-8.4246 c 0.1636,-4.6336 1.1958,-10.7415 2.2939,-13.5731 l 1.9965,-5.1484 h 60.0402 c 23.0482,0 59.0753,-0.9648 64.6354,4.5953 2.7771,2.7771 4.5953,6.7546 4.5953,10.0527 0,4.678 -20.7157,105.7059 -23.5803,114.9982 -0.9354,3.0345 -5.6113,3.2763 -63.3483,3.2763 -60.2312,0 -62.5051,-0.1312 -67.2712,-3.8802 z"
         id="path1477" /><path
         fill="#00aa88"
         d="m 3139.2145,3122.9577 c -9.0911,-4.631 -8.9742,-8.7815 1.6845,-59.8011 11.088,-53.0745 13.9576,-61.4382 22.963,-66.9286 5.8423,-3.5619 9.3167,-3.7876 58.4032,-3.7942 l 52.1914,-0.01 -1.2512,7.9566 c -0.6882,4.3762 -2.0796,11.0696 -3.092,14.8744 l -1.8407,6.9177 -40.1171,0.5709 c -25.168,0.3581 -40.8599,1.3151 -42.1104,2.5681 -1.0963,1.0986 -4.952,15.7262 -8.5682,32.5059 -5.0487,23.4271 -6.0746,31.1113 -4.4196,33.1055 1.7088,2.059 10.0577,2.5969 40.3051,2.5969 h 38.1498 l -0.036,6.0845 c -0.02,3.3464 -1.1277,10.2968 -2.4618,15.4452 l -2.4256,9.3607 -51.3625,0.4565 c -38.4816,0.3419 -52.5285,-0.1376 -56.0118,-1.912 z"
         id="path1475" /><path
         fill="#00ccff"
         d="m 4102.5175,3125.5335 c -1.3697,-2.2163 4.4265,-30.395 6.8733,-33.4148 1.4296,-1.7645 13.9739,-2.3402 50.9886,-2.3402 44.4002,0 49.3701,-0.3132 51.997,-3.2763 3.9583,-4.4649 9.2042,-30.6187 6.7377,-33.5908 -1.3335,-1.6067 -14.2443,-2.8193 -44.9469,-2.8193 -20.9941,0 -39.0382,1.3826 -47.5909,-5.8176 -7.0218,-5.9114 -5.8102,-13.0516 1.3126,-46.2312 8.3872,-39.0699 13.9784,-48.5928 30.8242,-52.4998 9.3179,-2.1611 120.6833,-2.2811 124.0719,-0.1337 2.1079,1.3358 2.0268,4.021 -0.489,16.186 -1.6589,8.0215 -3.9523,15.7126 -5.0966,17.0913 -1.6397,1.9758 -12.3143,2.5068 -50.3933,2.5068 -38.7549,0 -48.8279,0.5149 -50.9158,2.6029 -3.1101,3.1101 -8.0443,27.6122 -6.4153,31.8571 1.0005,2.6075 6.4729,2.983 43.4707,2.983 18.9956,0 41.1735,-1.1526 47.7986,5.4724 7.1695,7.1693 7.1628,14.6551 -0.043,48.6473 -6.0368,28.4787 -9.3725,38.0472 -15.636,44.8518 -8.484,9.2168 -11.7333,9.6131 -78.8383,9.6131 -35.2004,0 -63.1239,-0.7399 -63.7099,-1.688 z"
         id="path1473" /><path
         id="path1471"
         fill="#00ccff"
         d="M 4039.686 2943.7998 C 4011.1829 2943.8235 3984.4425 2944.7039 3979.7783 2945.7729 C 3969.1029 2948.2199 3960.1387 2956.74 3956.4463 2967.9478 C 3952.5671 2979.7225 3927.3574 3099.9181 3927.3574 3106.6392 C 3927.3574 3114.8037 3930.9296 3121.0472 3937.4355 3124.2568 C 3942.2879 3126.6507 3952.7459 3127.1442 3999.5068 3127.1792 C 4054.1455 3127.2206 4055.9801 3127.1015 4064.0962 3123.0088 C 4077.4644 3116.2677 4079.5093 3110.6336 4095.019 3037.8179 C 4102.6395 3002.0409 4108.8782 2969.8202 4108.8882 2966.2163 C 4108.9069 2957.0242 4105.3012 2950.8438 4097.6968 2947.0298 C 4091.95 2944.1475 4085.0195 2943.7618 4039.686 2943.7998 z M 4032.9741 2981.4302 C 4045.6554 2981.4911 4057.2144 2982.1719 4059.0791 2983.5498 C 4062.4295 2986.0256 4062.1772 2987.9001 4052.2661 3034.3975 C 4045.6476 3065.4475 4040.8759 3083.7759 4038.8936 3085.7593 C 4036.3918 3088.2623 4031.3299 3088.9014 4012.0078 3089.1533 C 3984.803 3089.5078 3975.3798 3088.2279 3974.5854 3084.0703 C 3973.7596 3079.7474 3994.414 2986.4032 3996.7046 2984.1064 C 3998.509 2982.2973 4016.6696 2981.3518 4032.9741 2981.4302 z " /><path
         fill="#00aa88"
         d="m 3753.7078,3181.1316 c -1.5725,-1.8947 -1.3053,-5.8285 1.0586,-15.5853 l 3.162,-13.0508 47.7398,-1.0171 c 26.2569,-0.5594 47.8603,-1.1913 48.0075,-1.4041 1.0406,-1.5042 3.2184,-7.9707 4.5224,-13.4281 2.6668,-11.1611 -21.1435,-11.2969 -44.4196,-11.2969 -23.2762,0 -40.968,1.0109 -46.5744,-4.5953 -5.6064,-5.6062 -4.5953,-6.7581 -4.5953,-9.996 0,-4.7138 20.8053,-106.3285 23.5571,-115.055 0.8818,-2.7964 3.4659,-3.2762 17.6458,-3.2762 9.137,0 17.0063,0.6368 17.4874,1.4152 0.4811,0.7784 -3.7383,23.2156 -9.3763,49.8604 -7.5583,35.7197 -9.7008,48.9945 -8.1565,50.5368 2.1824,2.1796 60.4849,3.1107 62.5926,0.9995 0.5998,-0.6007 5.7901,-23.3473 11.534,-50.548 5.744,-27.2006 11.0093,-50.0227 11.7008,-50.7157 0.6915,-0.6931 8.0272,-1.8392 16.3016,-2.547 11.6411,-0.9958 15.5119,-0.7107 17.1109,1.26 2.5647,3.1611 -30.9327,162.9539 -36.7212,175.1717 -6.7379,14.2215 -8.1088,14.506 -73.2507,15.1983 -46.397,0.493 -57.621,0.1286 -59.3265,-1.9264 z"
         id="path10" /></g><g
       id="g1465"
       transform="matrix(6.8955746,0,0,6.8955746,-10229.175,-16406.017)"
       style="display:inline"><path
         d="m 1941.6259,2642.3852 h 92.6574 l -23.456,40.5545 h -50.2488 l -20.938,36.1991 21.2289,36.704 h 98.0174 l -24.0516,41.5848 h -95.1989 l -45.9292,-79.4089 43.9709,-76.0231 z"
         fill="#ffffff"
         id="path163"
         style="stroke-width:11.1023" /><path
         d="m 1937.678,2641.9956 73.1493,40.9441 23.456,-40.5545 z"
         fill="#00aa88"
         id="path165"
         style="stroke-width:11.1023" /><path
         d="m 1960.8694,2755.8463 -21.2331,41.5845 h 95.1989 l 24.0516,-41.5845 z"
         fill="#00aa88"
         id="path167"
         style="stroke-width:11.1023" /><path
         d="m 1937.678,2641.9956 73.1493,40.9441 h -50.2488 l -20.938,36.1991 21.2289,36.704 -21.2331,41.5848 -45.9292,-79.4089 43.9709,-76.0231"
         fill="#00ccff"
         id="path169"
         style="stroke-width:11.1023" /><path
         d="m 1893.7071,2718.0187 45.9334,1.1201 1.2843,2.1968 -45.7745,-0.92 z"
         fill="url(#linearGradient939)"
         id="path171"
         style="fill:url(#linearGradient939-8);stroke-width:11.1023" /><path
         d="m 2010.8308,2682.9397 -73.1497,-40.9441 -5.5628,10.0152 55.4525,30.6958 z"
         fill="url(#linearGradient5185)"
         id="path173"
         style="fill:url(#linearGradient5185-1);stroke-width:11.1023" /><path
         d="m 1960.2143,2682.5566 74.5085,-42.002 -24.0807,39.5008 z"
         fill="url(#linearGradient9102)"
         id="path175"
         style="fill:url(#linearGradient9102-6);stroke-width:11.1023" /><path
         d="m 1960.5773,2682.9397 73.706,-40.5545 -23.456,40.5545 z"
         fill="#00aa88"
         id="path177"
         style="stroke-width:11.1023" /><path
         d="m 1893.7071,2718.0187 66.8702,-35.079 -20.9379,36.1991 z"
         fill="#00aa88"
         id="path179"
         style="stroke-width:11.1023" /><path
         d="m 1893.7071,2718.0187 66.8702,-35.079 -4.5174,-7.0543 -57.6298,33.3466 z"
         fill="url(#linearGradient11890)"
         id="path181"
         style="fill:url(#linearGradient11890-2);stroke-width:11.1023" /><path
         d="m 1960.5773,2682.9397 -22.8993,-40.9441 1.9618,77.1432 z"
         fill="#00aa88"
         id="path183"
         style="stroke-width:11.1023" /><path
         d="m 1960.8694,2755.8463 73.9658,41.5845 24.0516,-41.5845 z"
         fill="#00ccff"
         id="path185"
         style="stroke-width:11.1023" /><path
         d="m 1937.678,2641.9956 -5.5632,10.0152 0.5337,66.8006 6.9913,0.3289 z"
         fill="url(#linearGradient11670)"
         id="path187"
         style="fill:url(#linearGradient11670-6);stroke-width:11.1023" /><path
         d="m 1939.6405,2719.1388 -35.0676,17.5536 35.0645,60.7352 z"
         fill="#00aa88"
         id="path189"
         style="stroke-width:11.1023" /><path
         d="m 1939.6405,2719.1388 v 78.2888 l 8.5924,-16.7389 0.6634,-45.8935 z"
         fill="url(#linearGradient13770)"
         id="path191"
         style="fill:url(#linearGradient13770-0);stroke-width:11.1023" /><path
         d="m 1939.6363,2797.4241 -3.3088,-5.9443 21.3065,-41.073 3.2347,5.4329 z"
         fill="url(#linearGradient2816)"
         id="path193"
         style="fill:url(#linearGradient2816-6);stroke-width:11.1023" /><path
         d="m 1904.5726,2736.6948 35.0676,-17.5541 -6.9912,-0.329 -30.4261,14.5108 z"
         fill="url(#linearGradient12421)"
         id="path195"
         style="fill:url(#linearGradient12421-3);stroke-width:11.1023" /><path
         d="m 1904.5726,2736.6948 56.2973,19.1491 -21.2286,-36.704 z"
         fill="#00aa88"
         id="path197"
         style="stroke-width:11.1023" /><path
         d="m 1960.8694,2755.8463 -56.2976,-19.1493 6.1131,10.5362 46.2656,16.7746 z"
         fill="url(#linearGradient13391)"
         id="path199"
         style="fill:url(#linearGradient13391-9);stroke-width:11.1023" /><path
         d="m 1960.8694,2755.8463 73.9658,41.5845 8.8648,-15.7507 -47.6042,-26.2403 z"
         fill="url(#linearGradient13599)"
         id="path201"
         style="fill:url(#linearGradient13599-0);stroke-width:11.1023" /><g
         transform="matrix(1.6319253,0,0,1.6289277,1884.1583,2616.2888)"
         id="g207"><circle
           cx="117.95"
           cy="75.441002"
           r="9.6893997"
           fill="#00ccff"
           id="circle203" /><circle
           cx="118.08"
           cy="75.341003"
           r="9.6893997"
           fill="url(#linearGradient18175)"
           id="circle205"
           style="fill:url(#linearGradient18175)" /></g><g
         transform="matrix(1.6319253,0,0,1.6289277,1891.3418,2612.6976)"
         id="g213"><circle
           cx="93.138"
           cy="55.044998"
           r="7.3558998"
           fill="#00ccff"
           id="circle209" /><circle
           cx="93.238998"
           cy="54.969002"
           r="7.3558998"
           fill="url(#linearGradient18632)"
           id="circle211"
           style="fill:url(#linearGradient18632)" /></g><g
         transform="matrix(1.6319253,0,0,1.6289277,1891.6755,2617.399)"
         id="g219"><circle
           cx="103.06"
           cy="26.657"
           r="3.7876999"
           fill="#00ccff"
           id="circle215" /><circle
           cx="103.11"
           cy="26.618"
           r="3.7876999"
           fill="url(#linearGradient18659)"
           id="circle217"
           style="fill:url(#linearGradient18659)" /></g><path
         d="m 1960.5773,2682.9397 -22.8993,-40.9441 5.8334,-0.083 21.5238,38.2638 z"
         fill="url(#linearGradient3254)"
         id="path221"
         style="fill:url(#linearGradient3254-7);stroke-width:11.1023" /></g></g></svg>
