<?xml version="1.0" encoding="UTF-8" standalone="no"?>
<svg
   id="SVGRoot"
   width="7030.000000pt"
   height="4686.000000pt"
   viewBox="0 0 7030.000000 4686.000000"
   version="1.1"
   sodipodi:docname="cachyos_text.svg"
   inkscape:version="1.4 (e7c3feb100, 2024-10-09)"
   xml:space="preserve"
   xmlns:inkscape="http://www.inkscape.org/namespaces/inkscape"
   xmlns:sodipodi="http://sodipodi.sourceforge.net/DTD/sodipodi-0.dtd"
   xmlns:xlink="http://www.w3.org/1999/xlink"
   xmlns="http://www.w3.org/2000/svg"
   xmlns:svg="http://www.w3.org/2000/svg"><sodipodi:namedview
     id="namedview30"
     pagecolor="#ffffff"
     bordercolor="#666666"
     borderopacity="1.0"
     inkscape:showpageshadow="2"
     inkscape:pageopacity="0.0"
     inkscape:pagecheckerboard="0"
     inkscape:deskcolor="#d1d1d1"
     inkscape:document-units="pt"
     inkscape:zoom="0.38796415"
     inkscape:cx="4588.0528"
     inkscape:cy="3562.1848"
     inkscape:window-width="2560"
     inkscape:window-height="1416"
     inkscape:window-x="0"
     inkscape:window-y="0"
     inkscape:window-maximized="1"
     inkscape:current-layer="SVGRoot" /><defs
     id="defs6"><rect
       x="4064.8086"
       y="3835.4059"
       width="1819.7558"
       height="440.76238"
       id="rect31" /><linearGradient
       id="linearGradient939"
       x1="237.19"
       x2="237.07"
       y1="296.2"
       y2="304.08"
       gradientTransform="matrix(0.04476,0,0,0.044679,3441.8977,2276.3498)"
       gradientUnits="userSpaceOnUse"
       xlink:href="#linearGradient937" /><linearGradient
       id="linearGradient937"><stop
         stop-color="#001313"
         offset="0"
         id="stop1" /><stop
         stop-color="#001313"
         stop-opacity="0"
         offset="1"
         id="stop2" /></linearGradient><linearGradient
       id="linearGradient5185"
       x1="994.81"
       x2="982.34"
       y1="1533.3"
       y2="1556.8"
       gradientTransform="matrix(0.084141,0,0,0.083989,3374.159,2154.31)"
       gradientUnits="userSpaceOnUse"
       xlink:href="#linearGradient4353" /><linearGradient
       id="linearGradient4353"><stop
         stop-color="#020202"
         offset="0"
         id="stop3" /><stop
         stop-color="#020202"
         stop-opacity="0"
         offset="1"
         id="stop4" /></linearGradient><linearGradient
       id="linearGradient9102"
       x1="1022.5"
       x2="1018.6"
       y1="1582.4"
       y2="1575.6"
       gradientTransform="matrix(0.086381,0,0,0.081808,3371.298,2156.01)"
       gradientUnits="userSpaceOnUse"
       xlink:href="#linearGradient4353" /><linearGradient
       id="linearGradient11890"
       x1="940.43"
       x2="930.59"
       y1="1612.5"
       y2="1594.5"
       gradientTransform="matrix(0.084141,0,0,0.083989,3374.159,2154.31)"
       gradientUnits="userSpaceOnUse"
       xlink:href="#linearGradient4353" /><linearGradient
       id="linearGradient11670"
       x1="965.6"
       x2="951.66"
       y1="1571.4"
       y2="1571.3"
       gradientTransform="matrix(0.084141,0,0,0.083989,3374.159,2154.31)"
       gradientUnits="userSpaceOnUse"
       xlink:href="#linearGradient4353" /><linearGradient
       id="linearGradient13770"
       x1="946.23"
       x2="961.37"
       y1="1655.9"
       y2="1655.8"
       gradientTransform="matrix(0.084141,0,0,0.083989,3374.159,2154.31)"
       gradientUnits="userSpaceOnUse"
       xlink:href="#linearGradient4353" /><linearGradient
       id="linearGradient2816"
       x1="366.15"
       x2="350.92"
       y1="427.32"
       y2="419.64"
       gradientTransform="matrix(0.04476,0,0,0.044679,3439.569,2276.5451)"
       gradientUnits="userSpaceOnUse"
       xlink:href="#linearGradient937" /><linearGradient
       id="linearGradient12421"
       x1="936.34"
       x2="933.38"
       y1="1628.8"
       y2="1623"
       gradientTransform="matrix(0.084141,0,0,0.083989,3374.159,2154.31)"
       gradientUnits="userSpaceOnUse"
       xlink:href="#linearGradient4353" /><linearGradient
       id="linearGradient13391"
       x1="950.33"
       x2="941.97"
       y1="1618.6"
       y2="1645.8"
       gradientTransform="matrix(0.084141,0,0,0.083989,3374.159,2154.31)"
       gradientUnits="userSpaceOnUse"
       xlink:href="#linearGradient4353" /><linearGradient
       id="linearGradient13599"
       x1="1008.2"
       x2="1015.7"
       y1="1681.3"
       y2="1668.4"
       gradientTransform="matrix(0.084141,0,0,0.083989,3374.159,2154.31)"
       gradientUnits="userSpaceOnUse"
       xlink:href="#linearGradient4353" /><linearGradient
       id="linearGradient18175"
       x1="1148.3"
       x2="1145.4"
       y1="1585.5"
       y2="1630"
       gradientTransform="matrix(0.34992,0,0,0.34992,-282.87,-491.67)"
       gradientUnits="userSpaceOnUse"
       xlink:href="#linearGradient18299" /><linearGradient
       id="linearGradient18299"><stop
         stop-color="#008066"
         stop-opacity="0"
         offset="0"
         id="stop5" /><stop
         stop-color="#0fc"
         offset="1"
         id="stop6" /></linearGradient><linearGradient
       id="linearGradient18632"
       x1="1148.3"
       x2="1145.4"
       y1="1585.5"
       y2="1630"
       gradientTransform="matrix(0.26565,0,0,0.26565,-211.15,-375.49)"
       gradientUnits="userSpaceOnUse"
       xlink:href="#linearGradient18299" /><linearGradient
       id="linearGradient18659"
       x1="1148.3"
       x2="1145.4"
       y1="1585.5"
       y2="1630"
       gradientTransform="matrix(0.13679,0,0,0.13679,-53.624,-195.03)"
       gradientUnits="userSpaceOnUse"
       xlink:href="#linearGradient18299" /><linearGradient
       id="linearGradient3254"
       x1="348.05"
       x2="361.21"
       y1="194.78"
       y2="187.24"
       gradientTransform="matrix(0.04476,0,0,0.044679,3439.569,2276.5451)"
       gradientUnits="userSpaceOnUse"
       xlink:href="#linearGradient937" /></defs><path
     style="fill:#000000"
     d="m 3753.7078,3181.1316 c -1.5725,-1.8947 -1.3053,-5.8285 1.0586,-15.5853 l 3.162,-13.0508 47.7398,-1.0171 c 26.2569,-0.5594 47.8603,-1.1913 48.0075,-1.4041 1.0406,-1.5042 3.2184,-7.9707 4.5224,-13.4281 2.6668,-11.1611 -21.1435,-11.2969 -44.4196,-11.2969 -23.2762,0 -40.968,1.0109 -46.5744,-4.5953 -5.6064,-5.6062 -4.5953,-6.7581 -4.5953,-9.996 0,-4.7138 20.8053,-106.3285 23.5571,-115.055 0.8818,-2.7964 3.4659,-3.2762 17.6458,-3.2762 9.137,0 17.0063,0.6368 17.4874,1.4152 0.4811,0.7784 -3.7383,23.2156 -9.3763,49.8604 -7.5583,35.7197 -9.7008,48.9945 -8.1565,50.5368 2.1824,2.1796 60.4849,3.1107 62.5926,0.9995 0.5998,-0.6007 5.7901,-23.3473 11.534,-50.548 5.744,-27.2006 11.0093,-50.0227 11.7008,-50.7157 0.6915,-0.6931 8.0272,-1.8392 16.3016,-2.547 11.6411,-0.9958 15.5119,-0.7107 17.1109,1.26 2.5647,3.1611 -30.9327,162.9539 -36.7212,175.1717 -6.7379,14.2215 -8.1088,14.506 -73.2507,15.1983 -46.397,0.493 -57.621,0.1286 -59.3265,-1.9264 z m 183.7277,-56.8743 c -6.506,-3.2096 -10.0777,-9.4538 -10.0777,-17.6183 0,-6.7211 25.2092,-126.9168 29.0884,-138.6916 3.6924,-11.2078 12.6564,-19.7269 23.3318,-22.1739 4.6642,-1.0691 31.4055,-1.9502 59.9087,-1.9739 45.3335,-0.038 52.2638,0.3482 58.0106,3.2305 7.6044,3.814 11.2091,9.9945 11.1904,19.1866 -0.01,3.6039 -6.2483,35.8246 -13.8688,71.6016 -15.5098,72.8158 -17.5547,78.4497 -30.9229,85.1908 -8.1161,4.0927 -9.9504,4.2111 -64.5891,4.1697 -46.761,-0.035 -57.219,-0.5276 -62.0714,-2.9215 z m 101.4586,-38.4986 c 1.9823,-1.9834 6.7542,-20.3111 13.3727,-51.3612 9.9111,-46.4974 10.1623,-48.3722 6.8119,-50.848 -4.2622,-3.1495 -59.1665,-2.6587 -62.3744,0.5576 -2.2906,2.2968 -22.9443,95.6398 -22.1184,99.9627 0.7944,4.1576 10.2166,5.4374 37.4214,5.0829 19.3221,-0.2519 24.385,-0.891 26.8868,-3.394 z m 63.6234,39.7748 c -1.3697,-2.2163 4.4265,-30.395 6.8733,-33.4148 1.4296,-1.7645 13.9739,-2.3402 50.9886,-2.3402 44.4002,0 49.3701,-0.3132 51.997,-3.2763 3.9583,-4.4649 9.2042,-30.6187 6.7377,-33.5908 -1.3335,-1.6067 -14.2443,-2.8193 -44.9469,-2.8193 -20.9941,0 -39.0382,1.3826 -47.5909,-5.8176 -7.0218,-5.9114 -5.8102,-13.0516 1.3126,-46.2312 8.3872,-39.0699 13.9784,-48.5928 30.8242,-52.4998 9.3179,-2.1611 120.6833,-2.2811 124.0719,-0.1337 2.1079,1.3358 2.0268,4.021 -0.489,16.186 -1.6589,8.0215 -3.9523,15.7126 -5.0966,17.0913 -1.6397,1.9758 -12.3143,2.5068 -50.3933,2.5068 -38.7549,0 -48.8279,0.5149 -50.9158,2.6029 -3.1101,3.1101 -8.0443,27.6122 -6.4153,31.8571 1.0005,2.6075 6.4729,2.983 43.4707,2.983 18.9956,0 41.1735,-1.1526 47.7986,5.4724 7.1695,7.1693 7.1628,14.6551 -0.043,48.6473 -6.0368,28.4787 -9.3725,38.0472 -15.636,44.8518 -8.484,9.2168 -11.7333,9.6131 -78.8383,9.6131 -35.2004,0 -63.1239,-0.7399 -63.7099,-1.688 z m -963.303,-2.5758 c -9.0911,-4.631 -8.9742,-8.7815 1.6845,-59.8011 11.088,-53.0745 13.9576,-61.4382 22.963,-66.9286 5.8423,-3.5619 9.3167,-3.7876 58.4032,-3.7942 l 52.1914,-0.01 -1.2512,7.9566 c -0.6882,4.3762 -2.0796,11.0696 -3.092,14.8744 l -1.8407,6.9177 -40.1171,0.5709 c -25.168,0.3581 -40.8599,1.3151 -42.1104,2.5681 -1.0963,1.0986 -4.952,15.7262 -8.5682,32.5059 -5.0487,23.4271 -6.0746,31.1113 -4.4196,33.1055 1.7088,2.059 10.0577,2.5969 40.3051,2.5969 h 38.1498 l -0.036,6.0845 c -0.02,3.3464 -1.1277,10.2968 -2.4618,15.4452 l -2.4256,9.3607 -51.3625,0.4565 c -38.4816,0.3419 -52.5285,-0.1376 -56.0118,-1.912 z m 143.4407,-1.4886 c -6.3517,-4.9962 -6.3997,-11.3862 -0.2933,-38.9947 5.5218,-24.965 8.8015,-32.5163 15.5763,-35.8634 5.4779,-2.7064 67.7247,-4.9945 76.4304,-2.8095 4.4335,1.1127 4.6663,1.7244 3.4541,9.0759 -0.7149,4.3355 -2.1502,8.9359 -3.1895,10.223 -1.34,1.6594 -9.1088,2.3402 -26.7053,2.3402 -18.8817,0 -25.3311,0.6212 -26.9716,2.5979 -1.1859,1.4289 -3.1578,7.3735 -4.3821,13.2101 -1.8854,8.9888 -1.8054,10.8781 0.5228,12.3506 1.5118,0.9561 16.8809,1.7513 34.1535,1.7671 30.8625,0.028 31.4322,-0.044 32.9901,-4.1837 3.0519,-8.1096 13.5741,-61.1994 12.9715,-65.4481 l -0.6083,-4.2894 -46.8037,-0.9361 -46.8037,-0.9361 0.2973,-8.4246 c 0.1636,-4.6336 1.1958,-10.7415 2.2939,-13.5731 l 1.9965,-5.1484 h 60.0402 c 23.0482,0 59.0753,-0.9648 64.6354,4.5953 2.7771,2.7771 4.5953,6.7546 4.5953,10.0527 0,4.678 -20.7157,105.7059 -23.5803,114.9982 -0.9354,3.0345 -5.6113,3.2763 -63.3483,3.2763 -60.2312,0 -62.5051,-0.1312 -67.2712,-3.8802 z m 170.113,1.6431 c -5.4172,-3.072 -6.4917,-5.3036 -6.5238,-13.5499 -0.041,-10.428 18.2665,-96.1454 22.2183,-104.0305 6.212,-12.3949 9.814,-13.0988 67.0376,-13.1021 27.9981,0 51.311,0.6531 51.8065,1.4549 1.7045,2.7578 -4.1226,25.518 -7.0883,27.6866 -2.0672,1.5115 -10.8334,1.888 -28.8648,1.2395 -14.2428,-0.5122 -31.584,-0.3221 -38.536,0.4224 -15.2483,1.6329 -14.8338,0.9188 -22.5765,38.888 -4.2743,20.9606 -4.8042,26.2246 -2.8741,28.5503 1.9778,2.3831 8.6325,2.8514 40.5163,2.8514 h 38.1498 l -0.01,4.2123 c -0.01,2.3168 -0.7665,7.161 -1.6905,10.7649 -0.924,3.6039 -2.199,8.8693 -2.8334,11.7009 l -1.1535,5.1484 -51.9164,-0.057 c -35.1558,-0.039 -53.1253,-0.7424 -55.6608,-2.1802 z m 135.7308,-0.6782 c 0,-1.6034 0.8449,-6.4475 1.8775,-10.7648 1.0327,-4.3173 9.4718,-44.0757 18.7537,-88.352 9.2819,-44.2763 17.686,-82.3979 18.676,-84.7147 1.6478,-3.8565 3.0287,-4.2099 16.3491,-4.1836 8.0021,0.016 15.5931,0.6916 16.8688,1.5018 1.7892,1.1364 0.8216,8.4734 -4.2319,32.0904 -3.6032,16.8394 -6.1119,31.0566 -5.5748,31.5937 0.5371,0.5371 4.2411,-0.8583 8.231,-3.1007 6.8113,-3.8282 9.6542,-4.0773 46.5303,-4.0773 36.8995,0 39.5743,0.2348 44.2087,3.8802 3.8397,3.0203 4.9328,5.5168 4.9328,11.2658 0,6.7399 -21.6343,113.0443 -23.6793,116.3533 -0.4838,0.7828 -8.4121,1.4232 -17.6185,1.4232 -14.3521,0 -16.7388,-0.4434 -16.7388,-3.1097 0,-1.7104 4.3238,-23.6044 9.6086,-48.6535 7.8394,-37.1583 9.176,-46.0649 7.2593,-48.3743 -3.2283,-3.8899 -61.1139,-4.1776 -66.3759,-0.3299 -1.992,1.4566 -4.3849,7.1238 -5.731,13.5731 -1.2712,6.0897 -5.409,26.2367 -9.1953,44.771 -3.7863,18.5342 -7.6687,35.5942 -8.6277,37.911 -1.6261,3.9282 -2.8829,4.2123 -18.6331,4.2123 -14.0404,0 -16.8895,-0.4918 -16.8895,-2.9153 z m -114.9517,-238.1237 c -233.0054,-0.3446 -324.395,-1.0586 -326.1901,-2.5485 -1.3717,-1.1383 -10.8505,-16.511 -21.0641,-34.1614 -67.0996,-115.9564 -189.3484,-328.4556 -201.557,-350.3568 -8.0359,-14.4155 -16.8998,-29.1587 -19.6977,-32.7626 -6.1413,-7.9104 -60.026,-100.9734 -66.4335,-114.7356 -2.4998,-5.3692 -4.5533,-11.3103 -4.5634,-13.2023 -0.022,-4.2129 1.3777,-6.7365 65.6049,-118.2496 179.5668,-311.7689 216.2701,-374.8239 228.7814,-393.0385 l 6.3524,-9.2481 329.3595,0.495 c 181.1478,0.2723 329.9934,1.1083 330.7682,1.8577 1.216,1.1763 -24.0956,45.7632 -135.0989,237.9792 -11.5909,20.0711 -22.0572,37.1181 -23.2584,37.8823 -1.2012,0.7642 -78.9285,1.4023 -172.7273,1.4181 -160.0844,0.027 -170.7155,0.2296 -173.3501,3.3049 -1.5437,1.8019 -30.4492,51.2968 -64.2344,109.9887 -33.7853,58.6918 -65.0878,112.7614 -69.5612,120.1545 -4.4734,7.3932 -8.1335,14.5676 -8.1335,15.9432 0,1.3757 4.8889,10.9124 10.8642,21.1927 5.9753,10.2803 37.6567,65.0272 70.4032,121.6597 32.7465,56.6324 60.9705,104.4651 62.72,106.2946 3.0251,3.1637 19.6106,3.3229 338.6612,3.2516 297.9022,-0.066 335.4803,0.2416 335.4803,2.7506 0,1.554 -22.0213,40.9505 -48.9361,87.5476 -26.9148,46.5971 -62.7912,108.7324 -79.7254,138.0783 -28.0638,48.6327 -36.144,60.7712 -39.5713,59.446 -0.6581,-0.2544 -146.86,-0.6781 -324.8929,-0.9413 z m -329.5449,-554.1559 c -0.2615,-5.9207 -0.6827,-19.6108 -0.936,-30.4224 -0.2878,-12.2838 -0.9854,-17.9019 -1.8599,-14.9772 -1.6085,5.3803 -2.3914,52.1817 -0.9129,54.5741 2.6357,4.2646 4.1382,0.5478 3.7088,-9.1745 z m 922.3679,260.5661 c -32.3103,-7.0802 -61.7697,-30.4144 -75.6765,-59.9422 -14.2834,-30.327 -14.1449,-63.0336 0.3981,-94.0677 5.8661,-12.5178 10.287,-18.6155 21.8883,-30.1899 22.6517,-22.5993 45.3659,-31.9028 77.8894,-31.9028 47.1506,0 87.6416,29.7049 103.4512,75.8934 9.4796,27.6954 6.292,62.0535 -8.0234,86.4809 -24.6243,42.0182 -73.4804,63.9061 -119.9271,53.7283 z m -231.5914,-281.8398 c -49.1784,-16.9108 -71.0018,-70.7754 -47.6269,-117.5526 6.756,-13.5199 23.5406,-29.6839 37.856,-36.4561 65.0684,-30.7823 136.6844,31.6905 115.384,100.6531 -13.1699,42.6395 -63.2301,67.9298 -105.6131,53.3556 z m 124.8527,-324.2965 c -15.8791,-5.7589 -28.5156,-23.7617 -28.4701,-40.5604 0.025,-9.2552 5.3747,-22.7839 11.7578,-29.7341 6.1815,-6.7308 21.5994,-13.2887 31.2423,-13.2887 9.6428,0 25.0607,6.5579 31.2422,13.2887 6.6637,7.2558 11.7349,20.5099 11.7349,30.6702 0,28.5799 -30.3323,49.4798 -57.5071,39.6243 z"
     id="path10"
     sodipodi:nodetypes="sscssszzsssssssssssssssssssscssssssssssssssssssssssssssssssssscssccsscssssscsscsccssssssssssssscccssccsssssssscsssssssccsscssssssssssssssssssssssssssssssssssscsssssssssssssssssssssssssssssssssssssssssss" /><g
     id="g31"
     transform="matrix(76.53459,0,0,76.53459,-261253.72,-172905.18)"
     style="fill:#000000"><path
       d="m 3454.463,2282.8693 6.5887,3.6879 2.1127,-3.6528 z"
       fill="#00aa88"
       id="path7"
       style="fill:#000000" /><path
       d="m 3456.5519,2293.124 -1.9125,3.7456 h 8.5747 l 2.1664,-3.7456 z"
       fill="#00aa88"
       id="path8"
       style="fill:#000000" /><path
       d="m 3454.463,2282.8693 6.5887,3.6879 h -4.526 l -1.8859,3.2605 1.9121,3.306 -1.9125,3.7456 -4.1369,-7.1525 3.9605,-6.8475"
       fill="#00ccff"
       id="path9"
       style="fill:#000000" /><g
       transform="matrix(0.14699,0,0,0.14672,3449.6424,2280.5538)"
       id="g26"
       style="fill:#000000"><circle
         cx="117.95"
         cy="75.441002"
         r="9.6893997"
         fill="#00ccff"
         id="circle25"
         style="fill:#000000" /></g><g
       transform="matrix(0.14699,0,0,0.14672,3450.2894,2280.2304)"
       id="g28"
       style="fill:#000000"><circle
         cx="93.138"
         cy="55.044998"
         r="7.3558998"
         fill="#00ccff"
         id="circle27"
         style="fill:#000000" /></g><g
       transform="matrix(0.14699,0,0,0.14672,3450.3195,2280.6538)"
       id="g30"
       style="fill:#000000"><circle
         cx="103.06"
         cy="26.657"
         r="3.7876999"
         fill="#00ccff"
         id="circle29"
         style="fill:#000000" /></g></g></svg>
