<?xml version="1.0" encoding="UTF-8" standalone="no"?>
<svg
   version="1.1"
   id="svg3429"
   width="7030.000000pt"
   height="4657.000000pt"
   viewBox="0 0 7030.000000 4657.000000"
   sodipodi:docname="cancom_logo_round.svg"
   inkscape:version="1.4 (e7c3feb100, 2024-10-09)"
   xmlns:inkscape="http://www.inkscape.org/namespaces/inkscape"
   xmlns:sodipodi="http://sodipodi.sourceforge.net/DTD/sodipodi-0.dtd"
   xmlns="http://www.w3.org/2000/svg"
   xmlns:svg="http://www.w3.org/2000/svg">
  <sodipodi:namedview
     id="namedview1"
     pagecolor="#ffffff"
     bordercolor="#000000"
     borderopacity="0.25"
     inkscape:showpageshadow="2"
     inkscape:pageopacity="0.0"
     inkscape:pagecheckerboard="0"
     inkscape:deskcolor="#d1d1d1"
     inkscape:document-units="pt"
     inkscape:zoom="0.082001252"
     inkscape:cx="4213.3503"
     inkscape:cy="3396.2896"
     inkscape:window-width="1896"
     inkscape:window-height="1016"
     inkscape:window-x="1932"
     inkscape:window-y="52"
     inkscape:window-maximized="1"
     inkscape:current-layer="svg3429" />
  <defs
     id="defs3431" />
  <path
     id="path2"
     style="fill:#000000;fill-opacity:1;stroke:none;stroke-width:24.1018;stroke-linecap:round"
     d="m 3514.9995,1663.4435 a 665.05597,665.05597 0 0 0 -665.056,665.056 665.05597,665.05597 0 0 0 665.056,665.056 665.05597,665.05597 0 0 0 665.056,-665.056 665.05597,665.05597 0 0 0 -665.056,-665.056 z m 23.5948,216.7697 c 98.0062,0 170.6023,25.4087 214.1606,54.4475 l -94.3752,192.3827 c -32.6687,-18.1493 -72.5975,-29.0386 -116.1557,-29.0386 -127.045,0 -214.1619,108.8949 -214.1619,235.9399 0,127.0449 87.1167,228.6805 217.7915,228.6805 116.1555,0 181.4922,-83.4856 206.9013,-166.9723 l 196.0123,79.8565 c -39.9284,148.824 -166.9724,301.2777 -413.8026,301.2777 -272.2392,0 -453.7327,-185.1224 -453.7327,-446.4721 0,-246.8301 192.383,-450.1018 457.3624,-450.1018 z" />
</svg>
