<?xml version="1.0" standalone="no"?>
<!DOCTYPE svg PUBLIC "-//W3C//DTD SVG 20010904//EN"
 "http://www.w3.org/TR/2001/REC-SVG-20010904/DTD/svg10.dtd">
<svg version="1.0" xmlns="http://www.w3.org/2000/svg"
 width="7030.000000pt" height="4657.000000pt" viewBox="0 0 7030.000000 4657.000000"
 preserveAspectRatio="xMidYMid meet">
<metadata>
Created by potrace 1.16, written by Peter Selinger 2001-2019
</metadata>
<g transform="translate(0.000000,4657.000000) scale(0.100000,-0.100000)"
fill="#000000" stroke="none">
<path d="M15490 27024 c-25 -2 -112 -9 -195 -14 -506 -36 -1004 -177 -1467
-414 -94 -48 -126 -66 -203 -113 -514 -310 -922 -715 -1245 -1233 -54 -87
-189 -345 -227 -435 -127 -298 -211 -576 -259 -850 -72 -412 -75 -941 -8
-1355 64 -399 171 -744 333 -1075 272 -556 653 -993 1161 -1333 108 -72 123
-80 270 -161 145 -80 287 -144 475 -214 448 -166 943 -249 1480 -250 287 0
507 20 825 73 98 16 360 86 495 131 626 211 1147 588 1544 1116 210 279 352
544 479 888 58 156 95 286 85 295 -4 4 -53 26 -108 48 -203 81 -431 173 -450
182 -11 5 -72 30 -135 55 -63 25 -124 50 -135 55 -11 5 -83 35 -160 66 -77 31
-187 76 -245 99 -321 131 -383 156 -385 153 -1 -2 -10 -25 -20 -53 -142 -407
-355 -732 -623 -953 -304 -251 -666 -376 -1082 -375 -1044 2 -1805 803 -1803
1898 2 1020 653 1833 1558 1946 363 45 785 -27 1108 -188 37 -18 71 -31 76
-29 4 3 22 34 39 68 17 35 124 252 237 483 114 231 226 461 250 510 23 50 90
186 149 303 58 117 106 217 106 220 0 11 -122 83 -225 135 -330 164 -753 273
-1190 306 -154 12 -442 20 -505 15z"/>
<path d="M38335 27015 c-236 -18 -398 -42 -630 -96 -690 -161 -1336 -526
-1815 -1026 -677 -707 -1040 -1621 -1040 -2618 0 -1034 348 -1950 995 -2614
257 -263 504 -450 823 -622 658 -353 1458 -511 2297 -450 162 11 204 16 420
52 912 152 1680 636 2188 1380 127 185 278 465 332 614 10 28 22 55 26 60 15
22 110 321 112 354 l2 34 -140 58 c-77 31 -203 82 -280 114 -77 31 -212 86
-300 121 -88 36 -169 69 -180 74 -11 5 -60 25 -110 45 -49 20 -99 40 -110 45
-21 10 -368 151 -448 182 -36 14 -49 15 -52 6 -64 -185 -78 -219 -155 -373
-285 -566 -751 -913 -1328 -986 -193 -25 -460 -12 -665 32 -358 76 -706 278
-939 545 -429 491 -575 1212 -386 1907 104 383 321 730 606 967 412 344 933
467 1502 354 170 -34 329 -88 471 -159 38 -19 74 -35 78 -35 5 0 18 19 29 43
11 23 98 200 192 392 180 366 400 814 502 1023 33 67 58 129 55 136 -3 8 -50
39 -104 69 -307 172 -647 281 -1072 342 -252 36 -625 49 -876 30z"/>
<path d="M45862 27014 c-160 -11 -293 -28 -507 -65 -223 -38 -540 -135 -799
-246 -582 -249 -1095 -642 -1478 -1134 -617 -792 -880 -1792 -742 -2819 132
-985 652 -1872 1434 -2447 103 -75 276 -193 284 -193 3 0 36 -19 73 -42 86
-52 379 -195 498 -241 366 -143 791 -239 1175 -266 297 -21 387 -22 615 -7
297 20 405 36 685 98 1004 223 1874 850 2399 1727 267 445 428 925 498 1480
24 191 24 670 -1 866 -79 637 -277 1178 -614 1674 -380 561 -925 1012 -1552
1285 -47 21 -94 42 -105 47 -83 38 -304 110 -470 154 -281 74 -503 109 -823
130 -254 17 -325 17 -570 -1z m503 -1754 c769 -102 1385 -680 1579 -1480 111
-459 52 -979 -161 -1412 -238 -486 -643 -822 -1151 -954 -625 -162 -1284 11
-1730 454 -298 296 -477 657 -558 1122 -26 148 -26 511 0 660 55 322 146 566
300 808 231 362 578 629 971 745 231 68 507 89 750 57z"/>
<path d="M21644 26932 c-6 -4 -48 -97 -94 -207 -45 -110 -111 -267 -145 -350
-34 -82 -95 -229 -134 -325 -40 -96 -76 -184 -81 -195 -5 -11 -36 -85 -69
-165 -33 -80 -101 -244 -151 -365 -50 -121 -123 -296 -161 -390 -39 -93 -74
-179 -79 -190 -5 -11 -36 -85 -69 -165 -179 -435 -213 -517 -221 -535 -5 -11
-43 -103 -85 -205 -42 -102 -80 -194 -85 -205 -5 -11 -36 -85 -69 -165 -176
-428 -213 -517 -221 -535 -5 -11 -43 -103 -85 -205 -42 -102 -107 -259 -145
-350 -38 -91 -103 -248 -145 -350 -42 -102 -80 -194 -85 -205 -5 -11 -42 -101
-83 -200 -80 -193 -201 -487 -302 -730 -34 -82 -95 -229 -134 -325 -40 -96
-76 -184 -81 -195 -5 -11 -36 -85 -69 -165 -32 -80 -91 -220 -129 -312 l-70
-168 1086 0 1087 0 533 1418 c293 779 540 1434 548 1455 18 48 42 112 61 162
9 22 22 58 30 80 32 85 45 120 77 203 19 50 41 108 60 160 8 20 21 55 29 77
21 53 132 350 167 445 99 269 232 616 239 623 5 5 31 -52 59 -125 44 -113 108
-278 182 -468 68 -173 118 -303 162 -415 28 -71 58 -150 68 -175 10 -25 40
-103 68 -175 52 -135 131 -337 162 -415 10 -25 40 -103 68 -175 73 -189 176
-451 232 -595 91 -233 181 -464 231 -595 27 -71 54 -139 59 -150 5 -11 32 -78
59 -150 48 -123 119 -308 233 -600 67 -172 79 -202 126 -325 23 -58 54 -139
71 -180 l30 -75 1131 -3 c905 -2 1131 0 1127 10 -25 61 -1409 3305 -1426 3343
-12 28 -26 59 -31 70 -5 11 -36 85 -70 165 -33 80 -65 154 -70 165 -5 11 -18
43 -30 70 -12 28 -25 59 -30 70 -5 11 -18 43 -30 70 -12 28 -28 64 -35 80 -7
17 -46 107 -85 200 -39 94 -79 188 -89 210 -10 22 -276 645 -591 1385 -315
740 -580 1351 -588 1358 -12 9 -220 12 -961 12 -520 0 -951 -4 -957 -8z"/>
<path d="M27220 23285 l0 -3585 965 0 965 0 0 2031 0 2031 78 -99 c42 -55 128
-167 191 -249 63 -82 149 -194 192 -249 63 -82 563 -733 1101 -1433 57 -74
159 -207 227 -295 69 -89 168 -218 221 -287 53 -69 150 -195 215 -280 65 -85
164 -213 219 -285 55 -71 143 -186 196 -255 196 -255 306 -398 383 -497 l80
-103 858 0 859 0 0 3570 0 3570 -965 0 -965 0 -2 -1968 -3 -1969 -476 631
c-262 347 -577 764 -700 926 -347 458 -587 777 -1214 1609 l-580 770 -922 0
-923 1 0 -3585z"/>
<path d="M50800 23285 l0 -3585 985 0 985 0 2 2042 3 2042 265 -400 c623 -940
1263 -1906 1409 -2124 88 -133 163 -235 171 -235 15 0 63 69 308 443 316 484
404 617 517 789 66 101 172 263 236 360 64 98 182 277 261 398 133 202 204
310 438 668 46 70 87 127 92 127 4 0 8 -925 8 -2055 l0 -2055 148 0 c298 0
1581 19 1710 26 l132 6 0 3569 0 3569 -1059 0 -1060 0 -44 -72 c-52 -85 -266
-431 -457 -738 -73 -118 -191 -307 -260 -420 -137 -222 -305 -492 -530 -855
-78 -126 -201 -324 -272 -440 -124 -201 -153 -244 -161 -234 -2 2 -42 67 -89
144 -47 77 -150 244 -228 370 -79 127 -200 322 -270 435 -69 113 -187 302
-260 420 -74 118 -198 319 -276 445 -178 288 -354 573 -483 780 l-99 160
-1061 3 -1061 2 0 -3585z"/>
</g>
</svg>
