<?xml version="1.0" encoding="UTF-8" standalone="no"?>
<svg
   version="1.0"
   width="7030.000000pt"
   height="4687.000000pt"
   viewBox="0 0 7030.000000 4687.000000"
   preserveAspectRatio="xMidYMid meet"
   id="svg56"
   sodipodi:docname="elementary.svg"
   inkscape:version="1.2.2 (b0a8486541, 2022-12-01)"
   xmlns:inkscape="http://www.inkscape.org/namespaces/inkscape"
   xmlns:sodipodi="http://sodipodi.sourceforge.net/DTD/sodipodi-0.dtd"
   xmlns:xlink="http://www.w3.org/1999/xlink"
   xmlns="http://www.w3.org/2000/svg"
   xmlns:svg="http://www.w3.org/2000/svg">
  <defs
     id="defs60">
    <linearGradient
       xlink:href="#a"
       id="f"
       gradientUnits="userSpaceOnUse"
       gradientTransform="matrix(39.170426,0,0,39.170426,1569.9382,2126.2776)"
       x1="71.204002"
       y1="15.369"
       x2="71.204002"
       y2="40.495998" />
    <linearGradient
       id="a">
      <stop
         offset="0"
         stop-color="#fff"
         id="stop270" />
      <stop
         offset=".424"
         stop-color="#fff"
         stop-opacity=".235"
         id="stop272" />
      <stop
         offset=".821"
         stop-color="#fff"
         stop-opacity=".157"
         id="stop274" />
      <stop
         offset="1"
         stop-color="#fff"
         stop-opacity=".392"
         id="stop276" />
    </linearGradient>
    <radialGradient
       cx="1.198"
       cy="8.4499998"
       r="20"
       fx="1.198"
       fy="8.4499998"
       id="e"
       xlink:href="#c"
       gradientUnits="userSpaceOnUse"
       gradientTransform="matrix(0,119.31078,-126.21661,0,5463.6133,2215.8717)" />
    <linearGradient
       id="c">
      <stop
         offset="0"
         stop-color="#90dbec"
         id="stop261" />
      <stop
         offset=".262"
         stop-color="#42baea"
         id="stop263" />
      <stop
         offset=".705"
         stop-color="#3689e6"
         id="stop265" />
      <stop
         offset="1"
         stop-color="#2b63a0"
         id="stop267" />
    </linearGradient>
    <radialGradient
       xlink:href="#b"
       id="d"
       gradientUnits="userSpaceOnUse"
       gradientTransform="matrix(6.4621777,0,0,2.0189719,3752.5113,3242.0548)"
       cx="99.156998"
       cy="186.17101"
       fx="99.156998"
       fy="186.17101"
       r="62.769001" />
    <linearGradient
       id="b">
      <stop
         offset="0"
         stop-color="#3d3d3d"
         id="stop254" />
      <stop
         offset=".5"
         stop-color="#686868"
         stop-opacity=".498"
         id="stop256" />
      <stop
         offset="1"
         stop-color="#686868"
         stop-opacity="0"
         id="stop258" />
    </linearGradient>
  </defs>
  <sodipodi:namedview
     id="namedview58"
     pagecolor="#ffffff"
     bordercolor="#666666"
     borderopacity="1.0"
     inkscape:showpageshadow="2"
     inkscape:pageopacity="0.0"
     inkscape:pagecheckerboard="0"
     inkscape:deskcolor="#d1d1d1"
     inkscape:document-units="pt"
     showgrid="false"
     inkscape:zoom="0.39439057"
     inkscape:cx="4546.2547"
     inkscape:cy="3088.3091"
     inkscape:window-width="1908"
     inkscape:window-height="999"
     inkscape:window-x="3840"
     inkscape:window-y="0"
     inkscape:window-maximized="1"
     inkscape:current-layer="svg56" />
  <metadata
     id="metadata44">
Created by potrace 1.16, written by Peter Selinger 2001-2019
</metadata>
  <g
     id="g429"
     transform="matrix(1.244109,0,0,1.244109,-1955.4863,-1659.7751)">
    <path
       id="path284"
       style="display:inline;fill:url(#d);stroke-width:9.40719"
       d="m 4371.2622,3490.802 a 405.62879,126.72431 0 0 0 -138.7217,10.3437 c 48.3767,28.1596 104.5544,44.3853 164.5614,44.3853 59.3849,0 115.0279,-15.8762 163.0603,-43.4964 a 405.62879,126.72431 0 0 0 -188.9,-11.2326 z m -182.6514,17.3329 a 405.62879,126.72431 0 0 0 -200.9475,109.7936 405.62879,126.72431 0 1 0 811.2487,0 405.62879,126.72431 0 0 0 -194.9037,-108.6539 c -58.4048,41.5402 -129.767,66.05 -206.8969,66.05 -77.836,0 -149.8024,-24.9539 -208.5006,-67.1897 z" />
    <path
       id="path286"
       style="display:inline;fill:url(#e);stroke-width:9.40719;marker:none"
       d="m 4397.1114,2728.6578 c -269.911,0 -489.1738,219.264 -489.1738,489.1749 0,269.911 219.2628,489.1738 489.1738,489.1738 269.9109,0 489.1749,-219.2628 489.1749,-489.1738 0,-269.9109 -219.264,-489.1749 -489.1749,-489.1749 z m 0,131.7196 c 197.4279,0 357.4741,160.0462 357.4741,357.4742 0,197.4279 -160.0462,357.473 -357.4741,357.473 -197.428,0 -357.473,-160.0451 -357.473,-357.473 0,-197.428 160.045,-357.4742 357.473,-357.4742 z m 0,29.7936 c -180.9754,0 -327.6794,146.7052 -327.6794,327.6806 a 326.10038,326.10038 0 0 0 48.8501,172.1888 536.05954,536.05954 0 0 0 105.9729,-25.3994 c -6.1912,-6.8108 -11.9672,-13.9875 -17.234,-21.5233 -23.5844,-33.7718 -37.3379,-74.1203 -40.6305,-115.1732 -6.575,-82.1148 29.2942,-164.6156 87.3177,-223.0819 32.9252,-33.1785 73.9696,-59.8953 119.9419,-68.2953 22.9911,-4.2055 46.96,-3.7161 69.4809,2.4927 22.5308,6.2187 43.5472,18.2686 59.5482,35.2956 16.3873,17.4309 27.2061,39.7355 32.0978,63.1594 4.8855,23.405 4,47.8643 -1.2292,71.1941 -10.4608,46.6784 -37.6391,88.0219 -68.7016,124.4101 -47.3181,55.4259 -105.1352,101.7198 -169.1981,136.4411 a 185.48164,185.48164 0 0 0 79.0499,22.6725 c 36.7431,2.1059 73.6473,-6.4719 107.2032,-21.5999 33.5549,-15.1268 63.9308,-36.6026 91.7484,-60.6938 a 568.55198,568.55198 0 0 0 138.8972,-181.1549 c -38.8052,-137.6936 -165.332,-238.6132 -315.433,-238.6132 z m 2.0911,66.2065 c -23.0389,-0.038 -45.8504,6.6699 -66.0193,17.7979 -40.3468,22.2487 -69.1618,61.026 -90.299,101.9473 -18.2412,35.3046 -31.8172,73.432 -35.6077,112.9797 -3.7905,39.5579 2.6527,80.6473 22.1921,115.2569 a 169.17897,169.17897 0 0 0 35.935,43.932 c 6.8773,-3.0667 13.715,-6.2565 20.4518,-9.6054 65.7751,-32.7734 124.9283,-79.5838 169.4243,-138.0777 25.126,-33.0293 45.9339,-70.8467 50.6751,-112.079 2.3794,-20.6206 0.5925,-41.8515 -6.3675,-61.4097 -6.9526,-19.5469 -19.2286,-37.3465 -35.7866,-49.858 -18.3716,-13.885 -41.5694,-20.884 -64.5982,-20.884 z m 322.6483,217.6115 a 595.78581,595.78581 0 0 1 -119.0858,155.5365 c -40.2264,37.6012 -86.3768,69.9429 -138.4086,87.9583 -52.0405,18.0116 -110.4112,20.8626 -161.8322,1.1539 a 201.63379,201.63379 0 0 1 -49.858,-27.9391 589.90631,589.90631 0 0 1 -108.144,35.9361 c 60.1119,72.6335 150.9469,118.8963 252.5821,118.8963 180.9755,0 327.6807,-146.704 327.6807,-327.6794 0,-14.8722 -1.0154,-29.5184 -2.9342,-43.8626 z" />
    <path
       style="display:inline;isolation:auto;mix-blend-mode:normal;solid-color:#000000;solid-opacity:1;stroke-width:9.40719;marker:none"
       d="m 4397.1117,2728.6582 c -269.9112,0 -489.1741,219.2629 -489.1741,489.1741 0,269.9112 219.2629,489.1741 489.1741,489.1741 269.9112,0 489.1741,-219.2629 489.1741,-489.1741 0,-269.9112 -219.2629,-489.1741 -489.1741,-489.1741 z"
       opacity="0.5"
       color="#000000"
       fill-opacity="0"
       stroke="#00537d"
       stroke-linecap="round"
       stroke-linejoin="round"
       overflow="visible"
       id="path288" />
    <path
       style="display:inline;stroke:url(#f);stroke-width:9.40719;marker:none"
       d="m 4876.8786,3217.8323 c 0,264.973 -214.8039,479.7669 -479.7669,479.7669 -264.9731,0 -479.7669,-214.7939 -479.7669,-479.7669 0,-264.963 214.7938,-479.7669 479.7669,-479.7669 264.963,0 479.7669,214.8039 479.7669,479.7669 z"
       opacity="0.5"
       color="#000000"
       fill="none"
       stroke="url(#f)"
       stroke-linecap="round"
       stroke-linejoin="round"
       overflow="visible"
       id="path290" />
    <path
       id="path292"
       opacity="0.05"
       style="display:inline;isolation:auto;mix-blend-mode:normal;solid-color:#000000;solid-opacity:1;stroke-width:9.40719;marker:none"
       d="m 4397.1114,2860.3209 c -202.5367,0 -366.9372,164.4004 -366.9372,366.9371 0,202.5367 164.3905,366.9371 366.9372,366.9371 202.5367,0 366.9371,-164.3904 366.9371,-366.9371 0,-202.5367 -164.3904,-366.9371 -366.9371,-366.9371 z m 0,0.056 c 197.4279,0 357.4741,160.0462 357.4741,357.4742 0,197.4279 -160.0462,357.473 -357.4741,357.473 -197.428,0 -357.473,-160.0451 -357.473,-357.473 0,-197.428 160.045,-357.4742 357.473,-357.4742 z m 0,29.7936 c -180.9754,0 -327.6794,146.7052 -327.6794,327.6806 a 326.10038,326.10038 0 0 0 48.8501,172.1888 536.05954,536.05954 0 0 0 105.9729,-25.3994 c -6.1912,-6.8108 -11.9672,-13.9875 -17.234,-21.5233 -23.5844,-33.7718 -37.3379,-74.1203 -40.6305,-115.1732 -6.575,-82.1148 29.2942,-164.6156 87.3177,-223.0819 32.9252,-33.1785 73.9696,-59.8953 119.9419,-68.2953 22.9911,-4.2055 46.96,-3.7161 69.4809,2.4927 22.5308,6.2187 43.5472,18.2686 59.5482,35.2956 16.3873,17.4309 27.2061,39.7355 32.0978,63.1594 4.8855,23.405 4,47.8643 -1.2292,71.1941 -10.4608,46.6784 -37.6391,88.0219 -68.7016,124.4101 -47.3181,55.4259 -105.1352,101.7198 -169.1981,136.4411 a 185.48164,185.48164 0 0 0 61.2025,20.3341 c -13.8347,-2.5732 -27.317,-6.9493 -40.2997,-12.4701 58.4185,-34.0528 111.5508,-77.2606 155.5012,-128.7454 31.5993,-36.9991 59.7732,-79.5567 70.742,-128.484 5.4938,-24.4963 6.463,-50.2718 1.2539,-75.2021 -5.2129,-24.9755 -16.746,-48.8611 -34.4691,-67.7031 -17.3092,-18.4091 -39.82,-31.3151 -63.9211,-37.9566 -24.0636,-6.6427 -49.4632,-7.1028 -73.715,-2.6727 -48.4846,8.8629 -91.053,36.7633 -124.9565,70.9315 -59.7908,60.2424 -96.8655,145.1511 -90.0258,230.5031 3.4141,42.661 17.6951,84.5983 42.3131,119.8477 2.7005,3.8658 5.8615,7.3377 8.7965,11.0065 a 525.69281,525.69281 0 0 1 -84.7027,19.9244 c -28.061,-47.4123 -44.4772,-102.492 -44.4772,-161.6156 0,-175.8571 142.3667,-318.2246 318.2236,-318.2259 v 0 0 c 144.5873,0 266.2591,96.4622 305.0729,228.3602 -32.7647,66.4046 -78.7658,126.3179 -134.7385,174.7851 -27.3474,23.6872 -56.9988,44.5885 -89.4348,59.2173 -32.407,14.6088 -67.8724,22.8035 -102.7832,20.8004 -0.781,-0.045 -1.5546,-0.1398 -2.3336,-0.1978 a 185.48164,185.48164 0 0 0 1.7991,0.2355 c 36.7431,2.1059 73.6473,-6.4719 107.2032,-21.5999 33.5549,-15.1268 63.9308,-36.6026 91.7484,-60.6938 a 568.55198,568.55198 0 0 0 138.8972,-181.1549 c -38.8052,-137.6936 -165.332,-238.6132 -315.433,-238.6132 z m 2.0911,66.2065 c -23.0389,-0.038 -45.8504,6.6699 -66.0193,17.7979 -40.3468,22.2487 -69.1618,61.026 -90.299,101.9473 -18.2412,35.3046 -31.8172,73.432 -35.6077,112.9797 -3.7905,39.5579 2.6527,80.6473 22.1921,115.2569 a 169.17897,169.17897 0 0 0 35.935,43.932 c 6.8773,-3.0667 13.715,-6.2565 20.4518,-9.6054 65.7751,-32.7734 124.9283,-79.5838 169.4243,-138.0777 25.126,-33.0293 45.9339,-70.8467 50.6751,-112.079 2.3794,-20.6206 0.5925,-41.8515 -6.3675,-61.4097 -6.9526,-19.5469 -19.2286,-37.3465 -35.7866,-49.858 -18.3716,-13.885 -41.5694,-20.884 -64.5982,-20.884 z m -0.029,18.8706 c 21.1297,0 42.3805,6.4908 58.9183,18.9836 14.9098,11.261 26.19,27.5172 32.5769,45.4662 6.3981,18.0053 8.1102,37.7976 5.8801,57.1475 -4.459,38.7588 -24.252,75.1839 -48.796,107.4493 -43.5265,57.2058 -101.5412,103.1606 -166.131,135.332 -4.4866,2.2401 -9.0856,4.3097 -13.6675,6.4157 -11.6837,-10.9776 -22.3901,-23.046 -30.2257,-36.9322 -18.4017,-32.5765 -24.6564,-71.7867 -21.0252,-109.7065 3.6412,-37.9862 16.7637,-75.0037 34.5997,-109.5381 20.6481,-39.9806 48.5125,-77.0826 86.4524,-98.0029 18.9273,-10.442 40.2242,-16.6522 61.418,-16.6146 z m 322.6777,198.7409 a 595.78581,595.78581 0 0 1 -119.0858,155.5365 c -40.2264,37.6012 -86.3768,69.9429 -138.4086,87.9583 -52.0405,18.0116 -110.4112,20.8626 -161.8322,1.1539 a 201.63379,201.63379 0 0 1 -49.858,-27.9391 589.90631,589.90631 0 0 1 -108.144,35.9361 c 60.1119,72.6335 150.9469,118.8963 252.5821,118.8963 180.9755,0 327.6807,-146.704 327.6807,-327.6794 0,-14.8722 -1.0154,-29.5184 -2.9342,-43.8626 z m -7.499,38.5748 c 0.2258,4.9194 0.9914,9.7084 0.9914,14.6942 0,175.8579 -142.3692,318.2271 -318.2271,318.2271 -93.2252,0 -176.0651,-40.94 -234.2579,-104.7495 30.4505,-7.8356 60.3481,-17.7411 89.1804,-30.2351 14.6376,10.5373 30.1969,19.8968 47.1111,26.379 53.9408,20.6758 114.5043,17.5917 168.3222,-1.0408 53.7149,-18.5987 100.8741,-51.7693 141.7666,-89.9988 41.5215,-38.8138 76.037,-84.435 105.1133,-133.2761 z" />
    <path
       id="path294"
       opacity="0.15"
       style="display:inline;isolation:auto;mix-blend-mode:normal;solid-color:#000000;solid-opacity:1;stroke-width:9.40719;marker:none"
       d="M 4397.109 2890.171 C 4216.1336 2890.171 4069.4296 3036.8762 4069.4296 3217.8516 A 326.10038 326.10038 0 0 0 4069.592 3220.8481 C 4073.0205 3042.8428 4218.2835 2899.5786 4397.109 2899.5786 L 4397.1114 2899.5786 C 4545.012 2899.5786 4669.9613 2997.5878 4710.7182 3132.1869 A 568.55198 568.55198 0 0 0 4712.5444 3128.7842 C 4673.7392 2991.0906 4547.2124 2890.171 4397.1114 2890.171 L 4397.109 2890.171 z M 4399.2001 2956.3775 C 4376.1612 2956.3399 4353.3497 2963.0474 4333.1808 2974.1754 C 4292.834 2996.4241 4264.019 3035.2014 4242.8818 3076.1227 C 4224.6406 3111.4273 4211.0646 3149.5547 4207.2741 3189.1024 C 4206.5192 3196.9803 4206.2927 3204.9197 4206.3722 3212.8558 C 4206.5268 3208.0613 4206.8176 3203.2741 4207.2741 3198.51 C 4211.0646 3158.9623 4224.6406 3120.8337 4242.8818 3085.5291 C 4264.019 3044.6079 4292.834 3005.8317 4333.1808 2983.5831 C 4353.3497 2972.455 4376.1612 2965.7475 4399.2001 2965.7851 C 4422.2289 2965.7851 4445.4267 2972.7841 4463.7983 2986.6691 C 4480.3563 2999.1806 4492.6323 3016.9802 4499.5849 3036.5271 C 4504.0626 3049.1097 4506.373 3062.3853 4506.8367 3075.7447 C 4507.3311 3059.2432 4505.1132 3042.6543 4499.5849 3027.1195 C 4492.6323 3007.5726 4480.3563 2989.773 4463.7983 2977.2615 C 4445.4267 2963.3765 4422.2289 2956.3775 4399.2001 2956.3775 z M 4537.9148 3073.9139 C 4537.6028 3085.6118 4536.1035 3097.2959 4533.5454 3108.7091 C 4523.0846 3155.3875 4495.9063 3196.731 4464.8438 3233.1192 C 4417.5257 3288.5451 4359.7086 3334.839 4295.6457 3369.5603 A 185.48164 185.48164 0 0 0 4304.9297 3373.799 C 4365.2914 3339.7006 4419.8257 3295.2586 4464.8438 3242.5269 C 4495.9063 3206.1386 4523.0846 3164.794 4533.5454 3118.1155 C 4536.7957 3103.642 4538.3571 3088.7352 4537.9148 3073.9139 z M 4721.8484 3173.989 A 595.78581 595.78581 0 0 1 4602.7626 3329.5255 C 4562.5362 3367.1267 4516.3858 3399.4684 4464.354 3417.4838 C 4412.3135 3435.4954 4353.9428 3438.3464 4302.5218 3418.6377 A 201.63379 201.63379 0 0 1 4252.6638 3390.6986 A 589.90631 589.90631 0 0 1 4144.5198 3426.6347 C 4146.6809 3429.2461 4148.9679 3431.7458 4151.2075 3434.288 A 589.90631 589.90631 0 0 0 4252.6638 3400.1062 A 201.63379 201.63379 0 0 0 4302.5218 3428.0453 C 4353.9428 3447.754 4412.3135 3444.903 4464.354 3426.8914 C 4516.3858 3408.876 4562.5362 3376.5342 4602.7626 3338.9331 A 595.78581 595.78581 0 0 0 4721.8484 3183.3954 C 4723.5242 3195.9227 4724.464 3208.6904 4724.6872 3221.6276 C 4724.7015 3220.3645 4724.7826 3219.118 4724.7826 3217.8516 C 4724.7826 3202.9794 4723.7672 3188.3332 4721.8484 3173.989 z M 4165.7534 3214.7432 C 4165.657 3222.2718 4165.7843 3229.8111 4166.3881 3237.3521 C 4169.6807 3278.405 4183.4342 3318.7524 4207.0186 3352.5242 C 4210.422 3357.3937 4214.1066 3362.0571 4217.9098 3366.625 A 536.05954 536.05954 0 0 0 4224.2526 3364.641 C 4218.0614 3357.8302 4212.2854 3350.6535 4207.0186 3343.1177 C 4183.4342 3309.3459 4169.6807 3268.9974 4166.3881 3227.9445 C 4166.0357 3223.5436 4165.8651 3219.1425 4165.7534 3214.7432 z M 4039.7573 3222.5542 C 4039.7369 3224.127 4039.6384 3225.6804 4039.6384 3227.258 C 4039.6384 3424.6859 4199.6834 3584.7322 4397.1114 3584.7322 C 4594.5393 3584.7322 4754.5855 3424.6859 4754.5855 3227.258 C 4754.5855 3225.6804 4754.487 3224.127 4754.4666 3222.5542 C 4751.9376 3417.8046 4592.962 3575.3246 4397.1114 3575.3246 C 4201.2606 3575.3246 4042.2863 3417.8046 4039.7573 3222.5542 z " />
  </g>
</svg>
