<?xml version="1.0" standalone="no"?>
<!DOCTYPE svg PUBLIC "-//W3C//DTD SVG 20010904//EN"
 "http://www.w3.org/TR/2001/REC-SVG-20010904/DTD/svg10.dtd">
<svg version="1.0" xmlns="http://www.w3.org/2000/svg"
 width="7030.000000pt" height="4687.000000pt" viewBox="0 0 7030.000000 4687.000000"
 preserveAspectRatio="xMidYMid meet">
<metadata>
Created by potrace 1.16, written by Peter Selinger 2001-2019
</metadata>
<g transform="translate(0.000000,4687.000000) scale(0.100000,-0.100000)"
fill="#000000" stroke="none">
<path d="M34880 29414 c-36 -2 -144 -11 -240 -20 -2090 -186 -3937 -1450
-4865 -3329 -331 -670 -528 -1360 -605 -2120 -18 -173 -24 -766 -11 -961 162
-2320 1615 -4323 3767 -5192 1337 -540 2842 -580 4208 -112 1498 513 2733
1592 3439 3005 336 674 529 1339 614 2125 22 207 26 899 5 1105 -111 1109
-474 2093 -1097 2970 -352 497 -821 975 -1315 1342 -802 597 -1762 992 -2750
1132 -269 39 -451 52 -770 55 -173 2 -344 2 -380 0z m860 -1233 c1501 -184
2798 -1020 3576 -2307 347 -573 570 -1222 654 -1895 125 -1008 -77 -2052 -564
-2924 -234 -419 -475 -737 -820 -1080 -273 -272 -468 -432 -768 -629 -959
-628 -2112 -892 -3256 -746 -1260 162 -2401 814 -3197 1830 -116 148 -295 417
-391 585 -564 996 -753 2183 -528 3315 293 1476 1261 2731 2619 3395 538 263
1114 420 1740 475 179 15 748 4 935 -19z"/>
<path d="M34845 27800 c-794 -70 -1491 -312 -2130 -739 -253 -170 -451 -335
-680 -565 -775 -782 -1225 -1809 -1274 -2903 -34 -780 125 -1521 474 -2208 70
-138 158 -296 179 -322 0 -1 71 10 156 23 280 43 599 113 850 185 158 45 420
129 420 134 0 3 -39 51 -86 107 -365 436 -606 1015 -680 1633 -20 170 -23 530
-5 695 56 532 226 1055 496 1530 83 146 269 419 381 560 135 169 470 506 629
632 387 307 756 496 1161 594 660 159 1314 18 1766 -383 368 -326 578 -827
578 -1379 0 -643 -261 -1291 -797 -1981 -596 -767 -1440 -1490 -2321 -1988
-78 -44 -142 -84 -142 -88 0 -11 202 -106 320 -150 260 -97 509 -145 805 -154
656 -20 1309 186 1980 625 626 409 1307 1071 1807 1757 240 330 487 733 662
1082 l46 92 -35 113 c-215 710 -658 1414 -1212 1924 -709 654 -1567 1047
-2528 1159 -163 19 -668 28 -820 15z"/>
<path d="M35041 26909 c-623 -70 -1184 -445 -1637 -1095 -176 -253 -390 -654
-512 -959 -147 -368 -233 -699 -273 -1050 -17 -140 -16 -509 0 -640 73 -589
294 -1059 676 -1437 54 -54 103 -98 108 -98 16 0 270 122 432 208 1040 551
1946 1388 2451 2263 239 414 358 798 371 1194 11 326 -41 584 -170 840 -208
417 -563 680 -1026 760 -109 20 -314 26 -420 14z"/>
<path d="M39526 23905 c-417 -753 -939 -1431 -1536 -1993 -748 -704 -1490
-1139 -2255 -1322 -509 -122 -1022 -129 -1485 -19 -318 75 -606 201 -883 386
l-141 94 -170 -71 c-343 -143 -705 -264 -1075 -359 -106 -28 -196 -52 -199
-55 -13 -13 211 -257 381 -415 306 -284 670 -537 1038 -722 1038 -520 2260
-609 3363 -245 1342 443 2399 1508 2829 2852 85 265 147 549 184 844 23 185
24 833 2 995 l-14 100 -39 -70z"/>
</g>
</svg>
