<?xml version="1.0" standalone="no"?>
<!DOCTYPE svg PUBLIC "-//W3C//DTD SVG 20010904//EN"
 "http://www.w3.org/TR/2001/REC-SVG-20010904/DTD/svg10.dtd">
<svg version="1.0" xmlns="http://www.w3.org/2000/svg"
 width="7030.000000pt" height="4687.000000pt" viewBox="0 0 7030.000000 4687.000000"
 preserveAspectRatio="xMidYMid meet">
<metadata>
Created by potrace 1.16, written by Peter Selinger 2001-2019
</metadata>
<g transform="translate(0.000000,4687.000000) scale(0.100000,-0.100000)"
fill="#000000" stroke="none">
<path d="M35914 28857 c-22 -24 -47 -57 -56 -73 -10 -16 -33 -49 -53 -74 -19
-25 -42 -58 -51 -75 -9 -16 -29 -44 -43 -61 -14 -17 -34 -44 -43 -60 -10 -16
-45 -67 -78 -114 -84 -118 -165 -235 -207 -301 -12 -19 -31 -47 -43 -64 -11
-16 -32 -46 -45 -65 -14 -19 -33 -48 -44 -65 -11 -16 -29 -43 -41 -60 -12 -16
-31 -45 -43 -64 -12 -19 -33 -51 -47 -71 -14 -20 -35 -52 -47 -71 -12 -19 -31
-47 -43 -64 -11 -16 -41 -61 -65 -100 -24 -38 -54 -83 -65 -100 -12 -16 -41
-61 -65 -100 -24 -38 -54 -83 -65 -100 -38 -56 -73 -110 -92 -143 -10 -18 -23
-39 -28 -45 -6 -7 -27 -39 -48 -72 -21 -33 -47 -73 -58 -89 -24 -35 -72 -112
-99 -156 -11 -18 -29 -44 -41 -59 -12 -14 -29 -42 -39 -61 -10 -19 -27 -47
-39 -61 -21 -26 -39 -55 -84 -133 -12 -22 -26 -43 -31 -46 -5 -3 -18 -23 -30
-45 -12 -22 -32 -54 -44 -72 -12 -17 -33 -51 -47 -74 -44 -74 -108 -173 -129
-200 -11 -15 -25 -39 -31 -54 -6 -15 -20 -39 -31 -54 -34 -44 -99 -145 -99
-155 0 -4 -10 -21 -22 -37 -13 -15 -41 -58 -63 -94 -22 -36 -52 -82 -67 -102
-16 -20 -28 -41 -28 -48 0 -6 -11 -27 -25 -46 -48 -64 -105 -154 -105 -165 0
-6 -7 -17 -16 -25 -8 -7 -25 -31 -36 -53 -11 -23 -30 -53 -42 -67 -11 -15 -30
-42 -41 -60 -11 -19 -31 -52 -45 -75 -14 -22 -34 -55 -45 -73 -11 -18 -30 -47
-42 -65 -13 -17 -31 -49 -41 -71 -11 -22 -27 -47 -36 -54 -10 -8 -24 -28 -32
-45 -8 -17 -24 -45 -37 -62 -12 -18 -31 -47 -42 -65 -11 -19 -31 -52 -45 -74
-14 -22 -34 -55 -45 -74 -11 -18 -32 -49 -47 -68 -16 -20 -28 -41 -28 -48 0
-6 -11 -27 -25 -46 -47 -63 -74 -104 -99 -151 -14 -26 -30 -49 -36 -53 -5 -3
-19 -25 -30 -48 -11 -23 -30 -56 -43 -74 -12 -17 -35 -53 -50 -80 -31 -52 -57
-94 -99 -157 -15 -23 -37 -59 -49 -81 -12 -22 -32 -53 -45 -68 -13 -16 -24
-33 -24 -38 0 -5 -15 -31 -32 -58 -18 -27 -42 -64 -53 -82 -11 -18 -31 -52
-45 -75 -14 -24 -34 -55 -44 -71 -55 -82 -73 -110 -84 -133 -7 -14 -22 -39
-35 -57 -12 -17 -33 -51 -47 -74 -14 -23 -43 -70 -65 -104 -22 -35 -48 -76
-57 -91 -24 -40 -38 -63 -68 -109 -14 -22 -31 -51 -38 -65 -7 -14 -22 -39 -35
-56 -12 -18 -31 -47 -42 -65 -11 -18 -29 -47 -40 -64 -11 -18 -33 -54 -49 -81
-16 -27 -36 -60 -45 -73 -19 -29 -48 -75 -76 -120 -11 -18 -30 -47 -42 -65
-12 -17 -29 -47 -38 -66 -9 -19 -23 -43 -33 -53 -19 -21 -49 -70 -88 -142 -15
-27 -36 -62 -48 -77 -11 -14 -34 -49 -51 -78 -16 -28 -40 -66 -52 -83 -12 -18
-31 -50 -43 -72 -11 -22 -38 -67 -60 -100 -22 -33 -51 -81 -65 -107 -13 -26
-29 -49 -35 -53 -6 -3 -17 -22 -25 -42 -8 -19 -26 -48 -40 -65 -14 -16 -25
-34 -25 -39 0 -5 -15 -31 -32 -58 -18 -27 -41 -61 -50 -77 -10 -16 -23 -38
-30 -49 -7 -11 -26 -42 -43 -70 -17 -27 -36 -59 -43 -70 -7 -11 -20 -33 -30
-49 -9 -16 -31 -49 -47 -75 -17 -25 -36 -57 -43 -71 -7 -14 -22 -39 -35 -56
-27 -39 -56 -87 -80 -133 -11 -20 -27 -45 -37 -56 -10 -11 -25 -36 -34 -55 -9
-19 -26 -49 -39 -66 -22 -32 -44 -67 -83 -136 -12 -20 -31 -49 -43 -64 -12
-15 -21 -31 -21 -36 0 -4 -15 -30 -32 -57 -34 -50 -62 -96 -87 -140 -8 -14
-27 -44 -43 -65 -15 -21 -28 -43 -28 -49 0 -5 -11 -22 -25 -39 -28 -33 -33
-79 -10 -98 11 -9 88 -18 228 -27 117 -7 273 -22 347 -33 74 -10 218 -24 320
-30 102 -6 244 -20 315 -30 72 -11 211 -24 310 -30 99 -6 252 -20 340 -31 88
-11 266 -26 396 -34 130 -8 280 -21 335 -29 121 -18 189 -24 414 -36 96 -6
243 -19 325 -30 83 -10 256 -24 385 -30 129 -6 313 -20 408 -30 96 -11 285
-25 420 -30 280 -11 349 -15 551 -36 78 -8 335 -21 570 -29 234 -8 496 -19
581 -25 561 -35 1374 -39 1605 -7 61 9 188 23 283 32 98 8 190 22 210 31 20 8
82 22 137 30 55 8 119 23 142 34 23 10 68 24 100 30 32 7 74 21 94 31 20 10
58 24 85 30 27 7 73 25 102 41 30 15 60 28 67 28 7 0 28 11 47 24 20 13 51 29
71 35 19 7 41 19 49 28 7 9 31 24 53 35 93 43 290 200 377 299 102 117 180
235 238 359 12 25 32 68 45 95 13 28 26 68 30 90 4 21 16 57 27 79 11 21 28
84 39 140 10 56 26 126 34 156 12 40 17 124 22 315 6 276 -6 494 -33 599 -8
32 -22 111 -30 175 -8 64 -23 143 -33 176 -11 33 -25 96 -31 140 -7 44 -20
100 -31 124 -10 23 -24 73 -30 110 -6 36 -22 91 -34 121 -13 30 -26 75 -30
100 -4 25 -16 62 -26 82 -11 21 -26 68 -35 104 -8 37 -24 83 -34 103 -10 20
-28 65 -40 101 -43 131 -68 197 -89 235 -12 22 -21 47 -21 56 0 9 -13 41 -28
70 -16 30 -34 75 -41 101 -8 26 -19 53 -27 59 -7 6 -18 27 -24 47 -11 35 -32
82 -100 227 -16 33 -33 75 -39 93 -6 18 -19 45 -30 60 -10 15 -24 46 -30 68
-6 23 -18 47 -26 54 -7 6 -22 33 -31 58 -10 26 -23 54 -29 62 -7 8 -38 67 -68
130 -31 63 -63 126 -71 140 -8 14 -24 45 -35 70 -11 25 -25 52 -30 60 -6 8
-19 35 -31 60 -11 25 -36 72 -55 105 -18 33 -46 83 -60 110 -15 28 -42 77 -60
110 -19 33 -45 81 -58 107 -13 26 -30 55 -38 64 -8 9 -26 40 -40 68 -67 128
-81 154 -114 206 -19 30 -48 80 -65 110 -17 30 -46 80 -65 110 -19 30 -46 75
-60 100 -14 25 -41 70 -60 100 -19 30 -44 73 -56 95 -12 22 -27 47 -34 55 -7
8 -24 33 -37 56 -36 63 -61 103 -85 138 -13 17 -30 45 -38 63 -8 17 -19 34
-25 38 -6 3 -20 25 -32 48 -11 23 -29 53 -40 67 -37 49 -98 145 -98 156 0 6
-11 21 -25 34 -14 13 -25 28 -25 33 0 10 -66 115 -101 161 -13 16 -42 58 -65
95 -24 36 -53 80 -64 96 -12 17 -31 45 -43 64 -39 60 -71 108 -124 186 -29 41
-53 78 -53 81 0 4 -12 21 -27 39 -25 29 -59 76 -123 170 -68 99 -168 242 -221
315 -52 73 -90 127 -111 158 -9 14 -26 37 -37 51 -20 24 -62 82 -104 141 -10
14 -31 43 -48 65 -16 22 -46 63 -65 90 -19 28 -50 70 -69 95 -19 25 -50 68
-69 95 -19 28 -49 68 -65 90 -17 22 -42 56 -56 75 -13 19 -47 64 -75 100 -27
35 -50 67 -50 70 0 4 -10 17 -22 30 -25 27 -42 49 -105 139 -39 54 -77 91 -94
91 -4 0 -24 -19 -45 -43z"/>
<path d="M34690 27585 c-5 -14 -21 -30 -34 -36 -14 -7 -27 -17 -30 -24 -2 -7
-114 -140 -248 -296 -134 -156 -251 -295 -260 -308 -15 -21 -73 -87 -153 -175
-50 -54 -130 -148 -180 -211 -51 -64 -151 -180 -197 -230 -15 -16 -73 -84
-128 -150 -56 -66 -109 -129 -119 -140 -42 -47 -300 -351 -476 -560 -348 -414
-489 -582 -650 -775 -88 -105 -227 -271 -310 -369 -82 -98 -224 -267 -315
-376 -91 -109 -219 -262 -285 -340 -66 -79 -137 -165 -158 -192 -79 -100 -93
-117 -117 -144 -14 -16 -70 -83 -125 -149 -55 -67 -154 -186 -220 -264 -66
-79 -138 -167 -160 -196 -22 -29 -94 -117 -160 -196 -256 -306 -362 -433 -473
-573 -30 -37 -73 -88 -112 -132 -14 -15 -56 -67 -95 -115 -62 -78 -143 -176
-223 -271 -15 -18 -56 -69 -92 -113 -36 -45 -105 -130 -155 -189 -49 -60 -108
-132 -130 -161 -39 -51 -54 -70 -112 -137 -16 -18 -62 -73 -103 -124 -41 -50
-103 -126 -138 -168 -35 -42 -75 -91 -90 -109 -15 -19 -38 -47 -52 -62 -14
-16 -43 -52 -65 -81 -22 -28 -92 -113 -155 -189 -217 -260 -248 -304 -231
-324 7 -8 35 -17 64 -21 29 -3 90 -17 137 -30 47 -13 128 -29 180 -35 52 -5
122 -19 155 -29 34 -11 106 -24 160 -31 55 -6 136 -20 180 -30 44 -11 139 -26
210 -34 72 -9 155 -23 185 -31 30 -8 85 -18 121 -21 65 -6 66 -6 98 27 18 19
39 48 48 64 9 17 25 42 37 56 12 15 29 39 38 55 10 16 32 47 48 69 17 22 44
60 60 85 17 25 37 54 45 65 30 38 64 90 90 135 14 25 41 65 60 90 19 25 44 63
56 85 12 22 31 52 43 66 11 15 30 41 41 59 42 70 94 150 146 227 16 23 29 46
29 52 0 6 14 26 30 44 17 19 30 38 30 42 0 7 47 82 100 160 46 68 86 132 98
155 7 14 22 39 35 56 12 18 31 47 42 65 11 18 29 48 40 65 11 18 33 54 49 81
16 26 37 57 47 68 9 11 24 36 33 55 9 19 26 49 39 67 12 17 35 53 50 80 31 52
57 94 99 157 15 23 39 61 53 86 14 25 36 59 48 77 12 17 33 51 47 74 14 23 43
70 65 104 22 34 51 81 65 104 40 66 108 174 127 201 10 13 24 38 31 55 7 16
21 39 31 50 10 11 25 31 32 46 22 40 52 89 76 123 13 17 32 49 43 71 11 22 30
54 43 71 12 18 31 47 42 65 54 90 72 119 92 150 12 19 34 56 50 82 15 27 38
63 50 80 12 18 27 43 33 56 6 13 23 42 39 65 26 38 57 87 106 167 11 18 31 51
45 73 14 23 34 56 45 75 11 18 30 47 42 65 12 17 29 47 38 66 9 19 24 44 34
55 9 11 37 54 61 95 24 41 52 84 61 95 10 11 25 36 34 55 9 19 26 49 38 67 12
17 35 53 50 80 16 26 38 63 50 82 54 83 88 139 108 176 12 22 32 53 45 68 13
16 24 33 24 39 0 5 13 28 29 51 26 39 56 86 106 168 11 18 34 55 52 83 18 28
42 69 54 91 12 22 32 53 45 68 13 16 24 35 24 42 0 7 11 26 24 42 13 15 33 46
45 68 20 37 54 93 108 176 12 19 34 56 50 82 15 27 38 61 49 76 12 14 29 42
38 61 9 19 26 49 39 67 12 17 33 51 47 74 14 23 43 70 65 105 22 34 49 77 60
95 19 32 33 54 82 130 12 19 34 56 50 82 15 27 38 63 50 80 13 18 28 43 35 57
7 14 26 46 43 71 16 26 39 62 50 80 11 18 29 47 40 65 11 17 29 45 40 63 11
18 30 47 42 65 13 17 28 42 35 56 15 31 70 116 98 152 11 15 27 42 35 62 8 19
19 37 25 41 6 3 20 25 32 48 11 23 30 54 42 68 11 15 30 42 41 60 11 19 31 52
45 75 14 22 34 55 45 73 11 18 30 47 42 65 12 17 33 52 47 77 13 25 32 51 40
58 9 8 16 19 16 26 0 8 12 27 26 44 14 17 30 48 36 68 6 21 19 44 29 51 23 16
25 52 4 52 -9 0 -20 -11 -25 -25z"/>
<path d="M37570 27165 c0 -14 7 -28 16 -32 9 -3 25 -24 35 -47 11 -23 30 -57
44 -76 49 -70 66 -96 110 -165 24 -38 54 -83 65 -100 12 -16 31 -45 43 -64 12
-19 33 -51 47 -71 36 -53 65 -98 97 -153 15 -27 37 -61 49 -75 12 -15 29 -43
39 -62 10 -19 26 -46 37 -60 27 -36 81 -121 96 -150 7 -14 22 -39 35 -56 12
-18 31 -47 42 -65 11 -18 31 -51 45 -73 14 -23 34 -56 45 -74 11 -19 34 -56
50 -82 17 -27 44 -72 60 -100 17 -28 40 -66 52 -83 13 -18 30 -48 39 -67 9
-19 27 -48 40 -63 13 -16 24 -34 24 -41 0 -8 9 -25 20 -39 22 -28 67 -107 104
-184 14 -28 30 -54 36 -58 7 -4 20 -26 31 -49 11 -22 37 -70 59 -106 21 -36
51 -87 65 -115 32 -62 87 -163 103 -190 6 -11 19 -36 27 -55 9 -19 34 -66 55
-105 21 -38 48 -90 59 -114 12 -24 30 -55 40 -70 10 -14 23 -41 29 -59 6 -18
20 -45 30 -60 11 -15 25 -44 32 -66 7 -21 23 -54 36 -74 13 -19 24 -41 24 -49
0 -8 14 -40 30 -71 17 -31 37 -73 45 -92 9 -19 22 -46 29 -60 29 -51 86 -177
86 -190 0 -7 11 -32 24 -54 13 -23 29 -61 36 -86 7 -25 20 -56 30 -70 10 -14
23 -44 29 -67 6 -23 25 -67 41 -98 17 -32 30 -64 30 -73 0 -8 11 -34 24 -56
12 -23 28 -62 35 -88 6 -26 22 -68 36 -94 14 -26 25 -57 25 -69 0 -12 11 -43
25 -70 14 -26 31 -71 37 -99 6 -28 19 -67 28 -87 10 -19 26 -64 35 -99 9 -35
23 -77 31 -93 9 -15 22 -63 30 -105 8 -42 23 -97 33 -122 11 -25 26 -86 35
-135 8 -50 22 -107 31 -127 8 -21 21 -84 30 -141 8 -57 23 -140 34 -183 61
-242 64 -1015 4 -1218 -8 -28 -24 -91 -34 -141 -11 -49 -26 -99 -34 -111 -7
-12 -21 -48 -31 -80 -9 -32 -27 -77 -39 -99 -13 -22 -26 -54 -30 -72 -3 -17
-13 -37 -22 -44 -8 -7 -26 -36 -39 -64 -13 -27 -35 -66 -49 -85 -13 -19 -37
-53 -52 -74 -79 -112 -243 -283 -343 -358 -24 -18 -60 -45 -79 -60 -20 -15
-53 -36 -73 -47 -20 -12 -40 -25 -43 -31 -4 -6 -32 -24 -63 -41 -31 -16 -68
-36 -82 -44 -14 -8 -61 -30 -105 -51 -44 -20 -107 -49 -139 -65 -32 -16 -68
-29 -78 -29 -11 0 -50 -13 -88 -30 -38 -16 -76 -30 -85 -30 -9 0 -49 -11 -88
-25 -40 -13 -106 -29 -147 -35 -41 -7 -97 -18 -125 -26 -80 -22 -168 -33 -360
-44 -99 -6 -229 -18 -290 -26 -325 -44 -1736 -44 -2246 0 -97 9 -324 23 -504
31 -180 9 -377 22 -439 29 -149 19 -214 24 -461 36 -115 6 -266 17 -335 25
-69 9 -143 17 -165 20 -22 2 -123 9 -225 15 -102 6 -250 19 -330 30 -80 11
-219 24 -310 30 -203 12 -254 17 -352 35 -43 8 -175 22 -294 30 -119 9 -251
22 -293 30 -101 18 -146 23 -341 36 -91 5 -219 19 -285 29 -66 11 -199 24
-295 30 -96 6 -247 19 -335 30 -88 11 -243 24 -345 30 -102 5 -225 13 -275 17
-169 14 -173 12 -270 -127 -13 -19 -36 -57 -50 -85 -36 -70 -76 -136 -102
-170 -13 -15 -23 -33 -23 -40 0 -7 -7 -18 -16 -26 -8 -7 -27 -35 -41 -63 -25
-50 -31 -59 -91 -148 -18 -25 -32 -51 -32 -56 0 -5 -13 -26 -30 -47 -16 -20
-32 -46 -36 -58 -3 -12 -16 -35 -28 -52 -12 -16 -42 -64 -66 -105 -24 -41 -56
-95 -72 -119 -15 -25 -28 -48 -28 -53 0 -5 -11 -24 -24 -41 -13 -18 -32 -56
-42 -84 -28 -80 -27 -81 216 -93 275 -13 1718 -30 2650 -30 1004 0 2188 16
2540 35 293 15 594 27 1085 45 154 6 341 17 415 25 74 8 249 19 390 25 339 13
425 19 553 36 59 8 227 21 373 29 147 9 314 22 372 30 58 8 205 22 326 30 121
8 274 24 340 35 67 11 193 24 281 30 88 6 210 19 270 30 61 11 169 24 240 30
72 6 162 18 200 27 39 8 126 23 195 34 69 10 154 27 190 38 36 11 98 24 138
30 41 6 87 18 103 27 17 8 71 24 121 34 50 11 102 27 114 35 13 8 47 20 76 26
29 6 67 19 84 29 17 9 48 23 70 29 21 7 62 23 89 36 28 14 70 34 95 45 25 12
72 36 105 55 33 18 78 43 100 54 22 10 65 38 95 60 30 23 68 49 84 59 104 62
384 355 415 434 5 13 21 38 35 57 14 19 26 40 26 47 0 7 11 25 24 41 14 16 28
43 32 59 3 16 17 49 30 74 41 77 74 188 115 380 l40 185 -5 235 c-3 177 -9
261 -24 340 -11 58 -23 137 -26 175 -4 39 -16 104 -27 145 -11 41 -27 115 -35
163 -8 49 -21 102 -30 118 -8 17 -24 70 -34 119 -10 49 -26 102 -33 117 -8 15
-22 56 -31 91 -8 34 -22 72 -30 85 -8 12 -22 51 -31 86 -9 35 -23 73 -31 86
-8 12 -21 45 -29 73 -9 29 -24 67 -34 85 -10 17 -24 50 -31 72 -7 22 -23 58
-35 80 -13 22 -26 54 -30 71 -3 17 -17 46 -31 65 -13 18 -24 38 -24 43 0 10
-54 128 -86 186 -14 25 -33 65 -53 110 -6 14 -29 57 -51 95 -21 39 -46 86 -55
105 -8 19 -21 44 -27 55 -23 38 -77 140 -102 190 -13 28 -31 57 -39 64 -9 7
-21 29 -28 49 -7 20 -22 49 -35 64 -12 16 -26 38 -30 50 -4 13 -19 41 -33 63
-29 44 -43 65 -69 109 -9 16 -32 50 -49 77 -18 27 -33 53 -33 58 0 5 -11 23
-25 39 -14 17 -32 46 -40 65 -8 20 -19 38 -25 42 -6 3 -20 25 -32 48 -11 23
-30 54 -42 68 -11 15 -30 41 -41 59 -46 76 -151 237 -205 315 -12 17 -31 45
-43 64 -44 69 -137 205 -172 251 -11 15 -37 51 -58 81 -34 49 -134 189 -189
265 -13 17 -40 55 -61 85 -20 30 -53 74 -72 99 -19 25 -46 61 -60 80 -13 19
-47 64 -74 100 -27 36 -65 85 -83 109 -18 24 -46 61 -63 82 -16 21 -43 57 -60
79 -16 23 -47 62 -68 88 -80 100 -147 184 -187 238 -19 25 -73 93 -120 149
-47 56 -103 126 -125 155 -22 29 -51 65 -65 81 -27 30 -44 50 -153 182 -39 49
-157 189 -260 310 -104 122 -203 239 -220 260 -18 21 -55 63 -84 94 -29 30
-59 66 -67 78 -9 13 -24 26 -34 29 -11 4 -24 18 -30 31 -15 33 -42 33 -42 0z"/>
</g>
</svg>
