<?xml version="1.0" encoding="UTF-8" standalone="no"?>
<svg
   width="7030.000000pt"
   height="4687.000000pt"
   viewBox="0 0 7030.000000 4687.000000"
   version="1.1"
   id="svg2"
   sodipodi:docname="endeavour.svg"
   inkscape:version="1.4 (e7c3feb100, 2024-10-09)"
   xmlns:inkscape="http://www.inkscape.org/namespaces/inkscape"
   xmlns:sodipodi="http://sodipodi.sourceforge.net/DTD/sodipodi-0.dtd"
   xmlns="http://www.w3.org/2000/svg"
   xmlns:svg="http://www.w3.org/2000/svg">
  <defs
     id="defs2" />
  <sodipodi:namedview
     id="namedview2"
     pagecolor="#ffffff"
     bordercolor="#000000"
     borderopacity="0.25"
     inkscape:showpageshadow="2"
     inkscape:pageopacity="0.0"
     inkscape:pagecheckerboard="0"
     inkscape:deskcolor="#d1d1d1"
     inkscape:document-units="pt"
     inkscape:zoom="0.12913377"
     inkscape:cx="4657.9603"
     inkscape:cy="3116.9228"
     inkscape:window-width="1896"
     inkscape:window-height="1016"
     inkscape:window-x="12"
     inkscape:window-y="52"
     inkscape:window-maximized="1"
     inkscape:current-layer="svg2" />
  <g
     id="g2"
     transform="matrix(6.8439582,0,0,6.8439582,2829.3025,1700.7874)">
    <path
       d="m 19.20894,151.30236 c -6.572263,-1.07944 -17.6102011,-3.33452 -18.26459737,-3.73153 -0.0349724,-0.0212 -0.0821932,-0.0522 -0.0703054,-0.096 C 1.0491349,146.82932 4.4461762,142.091 27.951281,113.8023 60.453444,74.685531 87.177831,43.211672 99.804971,29.17878 c 4.128529,-4.58814 8.288049,-9.488466 11.511649,-12.899251 2.87535,-3.042303 5.04139,-4.858348 5.22122,-4.858348 0.12749,0 -2.80838,3.67485 -4.6075,6.101635 C 103.32793,29.126355 77.033892,70.169903 39.885494,129.98081 L 26.18304,152.0425 24.678908,151.9982 c -0.827272,-0.0244 -3.288756,-0.33753 -5.469968,-0.69577 z m 5.739066,24.72251 c -6.831161,-0.16562 -12.501089,-0.38871 -12.599841,-0.49575 -0.234616,-0.25434 13.415176,-22.76264 13.913154,-22.94258 0.209499,-0.0758 5.612105,0.38125 12.005789,1.01548 22.815917,2.26321 49.161677,4.40294 70.694982,5.74169 12.18406,0.75748 34.71279,0.73493 39.02635,-0.002 15.86026,-2.86192 25.17951,-9.03769 28.21993,-20.55055 0.78926,-2.98862 1.29713,-4.03336 1.28294,-10.48215 -0.32733,-7.93307 -0.78739,-10.85989 -3.46702,-19.76051 -6.64896,-22.08504 -22.77834,-50.393009 -48.47917,-85.163337 -3.82617,-5.17637 -9.06459,-12.391396 -8.44002,-11.90286 0.31147,0.243626 3.13206,2.773362 4.46686,4.203159 7.33834,7.860614 25.99941,29.357733 31.20195,35.649449 27.27692,32.987437 42.9393,60.130069 46.12624,80.013369 2.16576,13.51225 -1.45766,23.74293 -10.81102,30.52469 -6.74691,4.89195 -15.18727,7.54445 -30.28463,9.38341 -34.72761,4.23008 -83.246018,5.97168 -132.856493,4.76898 z"
       id="path1" />
    <path
       d="m 116.16542,16.296915 c -6.53214,8.91014 -12.5245,18.517683 -18.647129,27.877895 -13.797686,21.208127 -27.282938,42.720746 -40.749946,64.22826 -8.610972,13.80339 -17.267881,27.5747 -25.708481,41.50163 0.01836,0.34605 1.036845,0.16227 1.450953,0.29719 21.57541,2.05453 43.1219,4.01162 64.726793,5.48836 10.61987,0.70245 21.2485,1.33869 31.89247,1.51956 3.71155,0.048 7.62842,0.002 11.17112,-0.18341 7.19676,-0.43691 14.59744,-1.26209 21.16325,-4.72501 4.93321,-2.60883 9.28765,-6.85811 11.44546,-12.41357 2.31892,-5.76599 2.28382,-12.27428 1.3094,-18.37316 -0.12994,-0.79291 -0.30596,-1.9075 -0.49012,-2.82195 -0.43828,-2.28124 -0.93807,-4.3581 -1.54996,-6.6116 -0.55987,-2.03528 -1.13431,-3.8895 -1.81043,-5.91055 -2.36133,-6.999306 -5.32304,-13.743333 -8.56116,-20.311719 -0.57045,-1.128939 -1.25507,-2.516715 -1.89231,-3.732938 -9.09157,-17.455962 -19.92056,-33.765788 -31.21315,-49.61072 -3.95445,-5.502991 -8.021,-11.401237 -12.15497,-16.747524 -0.0839,0.105525 -0.29788,0.423736 -0.38179,0.529256 z"
       id="path2" />
  </g>
</svg>
