<?xml version="1.0" standalone="no"?>
<!DOCTYPE svg PUBLIC "-//W3C//DTD SVG 20010904//EN"
 "http://www.w3.org/TR/2001/REC-SVG-20010904/DTD/svg10.dtd">
<svg version="1.0" xmlns="http://www.w3.org/2000/svg"
 width="7030.000000pt" height="4687.000000pt" viewBox="0 0 7030.000000 4687.000000"
 preserveAspectRatio="xMidYMid meet">
<metadata>
Created by potrace 1.16, written by Peter Selinger 2001-2019
</metadata>
<g transform="translate(0.000000,4687.000000) scale(0.100000,-0.100000)"
fill="#000000" stroke="none">
<path d="M23852 27372 c-18 -26 -43 -63 -57 -82 -13 -19 -32 -48 -41 -65 -9
-16 -30 -45 -45 -63 -16 -18 -29 -36 -29 -41 0 -5 -12 -24 -27 -44 -16 -19
-36 -48 -45 -64 -10 -15 -44 -66 -78 -113 -89 -125 -213 -307 -267 -391 -12
-19 -31 -47 -43 -64 -11 -16 -41 -61 -65 -100 -24 -38 -53 -83 -65 -100 -12
-16 -41 -61 -65 -100 -44 -69 -63 -97 -110 -165 -14 -19 -32 -48 -40 -65 -8
-16 -26 -43 -40 -60 -14 -16 -25 -33 -25 -38 0 -8 -55 -93 -88 -137 -11 -14
-27 -41 -37 -60 -10 -19 -27 -47 -39 -62 -12 -14 -34 -49 -51 -78 -16 -28 -40
-66 -52 -83 -12 -18 -34 -53 -47 -79 -14 -26 -31 -50 -37 -54 -6 -3 -18 -21
-25 -38 -8 -17 -25 -45 -37 -62 -12 -18 -31 -47 -42 -65 -11 -18 -34 -55 -52
-83 -18 -28 -44 -72 -58 -98 -14 -27 -29 -48 -34 -48 -5 0 -14 -14 -21 -30 -7
-17 -26 -47 -41 -67 -16 -20 -29 -40 -29 -45 0 -5 -13 -28 -28 -51 -16 -23
-46 -69 -67 -102 -21 -33 -46 -71 -55 -85 -9 -14 -25 -41 -35 -60 -10 -19 -26
-46 -37 -60 -36 -48 -88 -130 -88 -139 0 -5 -10 -22 -23 -38 -13 -15 -36 -50
-53 -76 -36 -60 -63 -104 -89 -144 -11 -18 -29 -46 -40 -64 -11 -18 -34 -55
-52 -83 -18 -28 -42 -69 -54 -91 -12 -22 -32 -53 -45 -68 -13 -16 -24 -32 -24
-37 0 -9 -57 -99 -89 -140 -10 -14 -26 -41 -35 -60 -9 -19 -26 -49 -39 -67
-12 -17 -35 -55 -52 -83 -16 -28 -40 -66 -52 -83 -13 -18 -28 -43 -35 -57 -7
-14 -25 -44 -40 -67 -15 -24 -41 -62 -56 -85 -15 -24 -33 -54 -40 -68 -7 -14
-30 -52 -52 -85 -22 -33 -49 -78 -61 -100 -12 -22 -29 -49 -39 -60 -10 -11
-26 -36 -37 -56 -23 -45 -52 -93 -80 -133 -12 -17 -29 -47 -38 -66 -9 -19 -24
-44 -34 -55 -9 -11 -37 -54 -61 -95 -24 -41 -52 -84 -61 -95 -10 -11 -25 -36
-34 -55 -9 -19 -26 -49 -38 -66 -12 -18 -31 -47 -42 -65 -11 -19 -31 -52 -45
-75 -14 -22 -34 -55 -45 -73 -20 -32 -47 -77 -109 -176 -43 -68 -54 -85 -74
-119 -9 -16 -31 -49 -47 -75 -17 -25 -36 -57 -43 -71 -7 -14 -22 -39 -35 -56
-22 -32 -44 -68 -83 -136 -12 -20 -31 -49 -43 -64 -12 -15 -21 -31 -21 -37 0
-6 -10 -24 -23 -41 -13 -17 -36 -53 -53 -80 -16 -27 -38 -63 -49 -81 -11 -17
-29 -46 -40 -64 -11 -18 -30 -47 -42 -65 -12 -17 -33 -52 -47 -77 -24 -45 -24
-47 -7 -63 11 -10 49 -20 99 -26 44 -5 127 -16 184 -24 57 -8 186 -20 288 -26
102 -6 245 -20 319 -30 73 -11 222 -25 330 -30 108 -6 264 -20 346 -30 83 -11
252 -26 377 -34 125 -9 298 -24 385 -35 87 -11 269 -25 405 -31 136 -5 330
-19 430 -30 101 -10 305 -24 453 -30 149 -6 394 -20 545 -32 239 -19 357 -22
895 -22 601 -1 623 0 725 21 58 12 145 27 194 32 91 11 252 55 416 115 60 22
214 100 270 137 25 16 58 37 74 47 81 49 178 141 239 226 23 32 52 71 65 86
12 16 29 47 37 71 9 24 22 51 31 60 8 9 22 43 31 75 8 32 23 74 33 94 10 19
21 58 25 85 3 28 16 100 28 160 26 135 28 375 4 500 -9 44 -21 127 -27 185 -6
58 -22 143 -35 190 -13 47 -27 110 -30 140 -4 30 -17 80 -30 110 -12 30 -28
84 -35 120 -6 35 -20 80 -30 100 -10 19 -23 59 -29 89 -6 30 -20 68 -31 85
-10 17 -24 54 -31 81 -6 28 -22 68 -34 90 -13 22 -26 55 -30 74 -4 19 -20 61
-36 95 -16 34 -29 68 -29 76 0 9 -11 32 -24 51 -14 20 -28 49 -32 65 -3 16
-19 52 -34 79 -15 28 -31 63 -34 79 -4 17 -16 42 -27 57 -11 15 -26 47 -34 70
-9 24 -22 50 -30 59 -8 9 -21 35 -30 59 -8 23 -23 54 -33 69 -11 15 -23 38
-27 52 -4 14 -20 45 -35 70 -15 25 -31 56 -35 70 -4 14 -16 37 -26 51 -10 15
-28 46 -40 70 -11 24 -36 71 -54 104 -19 33 -45 83 -59 110 -13 28 -31 57 -39
64 -9 7 -21 29 -28 49 -6 20 -20 46 -30 57 -10 11 -26 38 -35 60 -9 22 -27 53
-40 68 -13 16 -24 34 -24 41 0 7 -13 30 -30 51 -16 21 -30 43 -30 50 0 7 -13
29 -30 50 -16 21 -30 44 -30 51 0 7 -11 26 -25 42 -14 17 -32 45 -41 64 -8 18
-32 58 -52 89 -50 75 -75 115 -109 172 -15 27 -38 61 -49 75 -12 15 -31 45
-43 67 -12 22 -33 56 -46 75 -13 19 -34 49 -45 65 -11 17 -32 46 -45 65 -13
19 -33 52 -44 72 -12 20 -25 40 -31 43 -6 4 -22 27 -36 53 -24 46 -40 70 -96
143 -16 20 -28 40 -28 44 0 9 -47 75 -91 128 -14 18 -34 46 -43 62 -9 17 -32
50 -51 75 -19 25 -44 59 -55 75 -37 58 -85 127 -100 143 -8 10 -24 31 -34 47
-10 17 -25 37 -33 45 -7 8 -31 40 -52 70 -39 55 -70 96 -126 170 -16 22 -46
63 -65 91 -19 28 -51 71 -70 94 -19 24 -45 58 -58 77 -105 154 -161 218 -188
218 -11 -1 -33 -21 -52 -48z"/>
<path d="M22942 26411 c-9 -17 -22 -31 -27 -31 -13 0 -36 -26 -407 -460 -134
-157 -255 -301 -270 -320 -14 -19 -46 -56 -70 -82 -65 -70 -97 -106 -173 -197
-38 -46 -151 -179 -250 -296 -99 -118 -252 -299 -340 -404 -88 -106 -227 -272
-310 -370 -335 -399 -477 -570 -539 -646 -63 -78 -86 -105 -144 -172 -15 -18
-47 -57 -72 -89 -25 -31 -97 -118 -160 -195 -63 -76 -144 -174 -180 -219 -36
-45 -78 -97 -95 -116 -16 -18 -60 -71 -97 -116 -37 -46 -120 -147 -185 -225
-118 -141 -185 -223 -226 -276 -12 -15 -63 -76 -112 -135 -50 -59 -108 -129
-130 -157 -21 -27 -68 -84 -102 -125 -73 -86 -90 -107 -174 -210 -33 -41 -107
-131 -164 -200 -57 -69 -130 -159 -163 -200 -33 -41 -72 -88 -86 -105 -14 -16
-39 -46 -55 -65 -16 -19 -43 -51 -59 -71 -38 -44 -49 -81 -29 -98 8 -6 51 -16
96 -21 44 -5 110 -18 146 -29 35 -11 104 -25 152 -31 49 -7 123 -20 165 -31
42 -10 136 -26 210 -34 73 -8 149 -19 168 -25 66 -19 85 -13 126 37 22 26 48
61 59 79 30 47 150 223 184 269 17 22 38 54 47 70 9 17 26 42 38 56 12 15 30
41 41 59 24 40 72 116 99 156 10 16 34 52 52 80 19 28 34 55 34 60 0 6 11 21
25 34 14 13 25 28 25 34 0 10 14 32 86 140 18 27 34 52 114 182 19 31 44 71
55 88 11 17 29 47 40 65 11 18 34 54 50 80 17 25 36 57 43 71 7 14 22 39 35
56 12 18 31 47 42 65 11 18 29 47 40 64 11 18 33 54 49 81 16 27 37 58 47 69
9 11 24 36 33 55 9 19 26 49 39 66 27 38 55 85 81 133 10 20 28 48 40 63 11
14 34 48 49 75 16 26 38 63 50 82 57 88 88 140 111 183 14 26 31 50 37 53 6 4
19 26 30 49 11 22 29 55 42 73 12 17 36 55 52 83 17 28 42 67 57 87 15 19 30
44 34 56 4 12 19 40 34 62 25 37 56 86 105 166 11 18 34 55 52 83 18 28 43 72
57 98 14 26 31 50 37 53 6 4 19 26 30 49 11 22 29 55 42 73 12 17 36 55 52 83
17 28 41 67 55 85 14 19 41 62 60 97 19 34 50 84 68 110 17 26 32 52 32 57 0
5 11 22 24 38 13 15 33 46 45 68 32 60 82 139 91 145 4 3 19 28 33 57 15 28
31 54 37 58 6 3 17 21 25 38 8 18 25 46 38 63 12 18 31 47 42 65 11 19 31 52
45 74 14 22 34 55 45 74 11 18 32 49 48 68 15 20 27 42 27 49 0 7 11 25 24 41
13 15 33 46 45 68 22 41 71 120 105 171 10 16 31 47 45 69 15 22 32 51 39 65
7 14 22 39 35 56 12 18 31 47 42 65 11 18 29 47 40 64 11 18 33 54 49 81 17
27 40 62 53 77 13 16 23 34 23 41 0 7 14 31 31 52 17 21 33 51 36 67 3 15 14
32 24 38 20 10 26 44 9 54 -6 3 -18 -7 -28 -24z"/>
<path d="M25130 26097 c0 -14 7 -31 16 -38 9 -8 25 -32 36 -54 10 -22 28 -54
41 -72 12 -17 36 -55 52 -83 17 -28 45 -70 62 -93 18 -23 33 -45 33 -50 0 -10
61 -103 94 -143 14 -18 26 -36 26 -40 0 -9 64 -109 98 -154 11 -14 29 -43 41
-65 12 -22 37 -65 56 -95 19 -30 44 -73 56 -95 12 -22 32 -53 45 -68 13 -16
24 -35 24 -42 0 -7 11 -26 24 -42 13 -15 31 -44 40 -63 9 -19 34 -64 56 -100
22 -36 51 -88 64 -117 14 -28 30 -54 35 -57 6 -4 20 -26 31 -49 11 -23 38 -73
60 -112 21 -38 46 -86 55 -105 8 -19 21 -44 27 -55 21 -34 76 -138 94 -175 9
-19 22 -46 30 -60 7 -14 21 -41 30 -60 9 -19 32 -66 50 -105 19 -38 34 -75 34
-81 0 -5 11 -25 24 -42 13 -18 29 -53 36 -77 7 -25 19 -50 26 -56 8 -6 21 -37
30 -67 9 -31 27 -76 40 -100 13 -25 24 -52 24 -61 0 -9 11 -35 25 -59 14 -24
31 -66 40 -94 8 -28 21 -61 29 -73 8 -13 22 -51 31 -86 9 -35 23 -74 31 -86 8
-13 21 -51 30 -85 9 -35 24 -76 34 -93 10 -16 23 -58 30 -93 6 -34 20 -83 30
-108 11 -24 25 -75 31 -112 6 -37 21 -101 34 -142 12 -41 26 -106 30 -145 3
-38 16 -122 28 -185 29 -154 31 -512 4 -630 -10 -41 -25 -115 -33 -165 -8 -49
-21 -99 -28 -111 -8 -11 -24 -52 -35 -92 -12 -39 -26 -74 -31 -77 -4 -3 -16
-27 -25 -54 -9 -27 -23 -55 -31 -62 -9 -7 -25 -31 -36 -53 -49 -97 -284 -333
-378 -381 -19 -10 -48 -28 -63 -41 -16 -13 -33 -24 -39 -24 -6 0 -25 -11 -42
-23 -17 -13 -49 -30 -71 -37 -22 -7 -51 -21 -65 -30 -14 -10 -52 -25 -84 -34
-32 -10 -68 -24 -80 -31 -12 -8 -55 -21 -96 -30 -41 -8 -102 -24 -135 -35 -33
-10 -116 -24 -185 -30 -69 -6 -174 -18 -235 -26 -319 -42 -1406 -45 -1820 -5
-115 11 -327 25 -470 31 -143 6 -338 20 -434 31 -96 10 -251 24 -345 29 -244
14 -319 20 -426 36 -52 8 -192 21 -310 29 -118 9 -269 24 -335 35 -66 11 -196
24 -290 30 -93 6 -227 20 -298 31 -70 10 -196 24 -280 29 -194 12 -257 18
-392 35 -152 20 -403 35 -443 27 -24 -5 -44 -22 -77 -67 -25 -33 -45 -65 -45
-72 0 -6 -10 -24 -23 -40 -12 -15 -30 -44 -40 -63 -10 -19 -27 -49 -40 -67
-12 -17 -35 -55 -52 -83 -16 -28 -40 -66 -52 -83 -12 -18 -29 -47 -37 -65 -9
-19 -27 -47 -41 -64 -14 -16 -25 -35 -25 -42 0 -7 -13 -30 -30 -51 -16 -20
-32 -46 -36 -58 -3 -12 -15 -31 -25 -42 -10 -11 -30 -52 -44 -90 -24 -63 -25
-70 -10 -81 30 -23 447 -28 2010 -28 1518 0 1936 6 2235 34 58 5 291 17 519
25 228 8 455 20 505 25 202 21 321 30 521 40 116 6 282 19 370 30 88 11 252
26 365 35 113 8 239 21 281 29 42 8 158 22 258 30 100 9 208 22 239 30 31 9
111 22 177 31 66 8 147 24 180 35 33 10 89 24 125 31 36 7 77 18 91 25 15 7
61 22 102 34 42 11 91 29 109 40 18 11 40 20 49 20 21 0 287 136 314 160 11 9
31 23 44 30 47 24 137 99 201 167 66 70 93 107 179 243 22 35 79 157 85 185 4
17 18 57 30 90 60 154 58 669 -4 897 -10 40 -24 103 -30 139 -5 37 -19 86 -29
110 -11 24 -25 71 -31 104 -7 33 -22 80 -35 105 -12 25 -26 63 -30 85 -3 22
-20 67 -36 100 -16 33 -29 65 -29 73 0 7 -13 38 -30 69 -16 31 -30 62 -30 69
0 8 -16 43 -35 80 -19 36 -35 71 -35 78 0 8 -9 25 -20 39 -11 14 -27 44 -35
67 -8 23 -23 53 -33 68 -11 15 -24 43 -31 62 -6 19 -20 43 -30 55 -10 11 -24
36 -31 55 -7 19 -21 44 -31 55 -10 12 -24 36 -30 55 -7 19 -22 49 -35 65 -12
17 -25 41 -29 55 -4 14 -17 39 -29 55 -12 17 -28 44 -35 62 -7 18 -20 38 -28
45 -9 7 -24 31 -35 53 -10 22 -28 54 -41 71 -12 18 -31 47 -42 65 -20 34 -44
72 -80 127 -11 17 -28 43 -37 59 -10 15 -30 46 -45 69 -16 22 -38 56 -50 75
-12 19 -31 48 -43 64 -56 80 -71 103 -90 135 -12 19 -41 62 -65 95 -25 33 -69
96 -100 140 -31 44 -71 100 -90 125 -19 25 -52 69 -72 99 -49 70 -62 88 -153
206 -41 54 -82 107 -90 119 -8 11 -37 49 -65 82 -27 34 -68 85 -90 114 -87
114 -110 142 -183 226 -15 17 -45 55 -67 84 -22 30 -135 165 -252 301 -116
136 -216 256 -222 267 -6 12 -20 23 -31 27 -11 3 -25 18 -32 33 -18 36 -48 42
-48 9z"/>
<path d="M42982 24749 c-108 -18 -238 -114 -318 -235 -23 -35 -45 -86 -58
-137 -21 -81 -21 -91 -21 -1492 0 -1397 0 -1411 21 -1495 38 -156 135 -271
293 -348 l76 -37 270 0 c258 0 272 1 305 21 19 12 51 27 70 33 41 13 167 127
192 174 46 85 58 119 73 212 14 90 16 240 13 1480 -4 1351 -4 1382 -24 1463
-12 48 -30 92 -42 105 -12 13 -22 28 -22 34 0 6 -29 40 -64 76 -81 81 -171
133 -257 146 -76 13 -432 12 -507 0z m349 -449 c10 -6 29 -30 41 -53 l23 -42
3 -1299 c3 -1430 5 -1371 -58 -1431 -24 -23 -41 -29 -87 -33 -72 -5 -117 21
-150 88 l-23 44 0 1308 0 1309 25 49 c14 27 33 53 42 59 23 14 159 14 184 1z"/>
<path d="M49079 24749 c-35 -5 -75 -20 -105 -38 -26 -17 -53 -31 -58 -31 -13
0 -99 -84 -137 -132 -29 -37 -76 -142 -90 -203 -6 -24 -8 -615 -7 -1495 l3
-1455 44 -90 c63 -126 154 -215 275 -268 l87 -38 262 3 262 4 65 34 c36 19 86
50 112 69 52 37 124 128 141 176 6 16 20 46 31 65 21 35 21 37 21 1530 l0
1495 -42 86 c-31 65 -58 102 -109 152 -37 37 -73 67 -79 67 -6 0 -32 14 -59
30 -32 20 -69 33 -114 40 -80 11 -423 11 -503 -1z m372 -478 l39 -39 0 -1349
c0 -1064 -3 -1353 -12 -1366 -7 -9 -30 -30 -52 -46 -32 -26 -48 -31 -91 -31
-43 0 -59 5 -91 31 -22 16 -45 37 -51 46 -10 13 -13 302 -13 1364 l0 1348 38
41 39 40 78 0 c77 0 78 0 116 -39z"/>
<path d="M51165 24749 c-33 -5 -71 -17 -85 -27 -14 -11 -41 -27 -60 -37 -48
-24 -125 -99 -168 -165 -21 -32 -48 -94 -64 -150 -27 -93 -28 -101 -28 -340 0
-135 5 -263 10 -285 6 -22 19 -84 30 -137 10 -53 26 -107 34 -120 8 -13 22
-48 31 -80 9 -31 22 -62 30 -68 8 -6 21 -34 30 -61 9 -27 21 -51 26 -55 5 -3
24 -33 40 -67 32 -63 62 -120 126 -237 19 -36 48 -90 64 -120 16 -30 34 -62
39 -70 6 -8 17 -31 26 -50 9 -19 33 -65 53 -102 20 -37 57 -109 82 -160 127
-257 139 -311 139 -630 0 -212 -1 -226 -22 -268 -54 -106 -151 -104 -219 5
-18 28 -19 55 -19 357 0 188 -4 338 -10 352 -6 18 -17 26 -33 26 -31 0 -106
-26 -127 -44 -8 -8 -35 -20 -60 -27 -61 -18 -160 -72 -193 -107 -15 -15 -38
-60 -52 -100 -24 -68 -25 -83 -25 -290 0 -212 1 -222 28 -313 16 -52 44 -116
63 -144 38 -56 128 -146 162 -162 12 -6 49 -24 81 -39 l59 -29 241 0 241 0 76
37 c160 78 255 192 290 347 16 73 19 128 19 356 0 273 -13 424 -45 520 -45
134 -87 236 -128 310 -39 70 -80 148 -106 201 -16 34 -34 64 -39 68 -6 3 -16
23 -23 44 -7 20 -22 51 -34 67 -13 17 -28 47 -34 67 -7 21 -17 41 -23 44 -6 4
-21 30 -35 58 -14 28 -42 83 -63 121 -21 39 -46 86 -55 105 -8 19 -21 44 -27
55 -51 89 -95 198 -122 303 -24 94 -26 120 -26 298 0 193 0 196 26 240 31 52
49 64 101 64 66 0 82 -10 108 -61 24 -47 25 -54 25 -279 0 -140 4 -239 10
-251 14 -25 60 -25 108 0 57 30 184 88 218 101 17 6 52 33 78 59 39 40 52 62
67 117 38 137 14 395 -45 484 -14 22 -26 44 -26 49 0 15 -130 140 -163 158
-18 9 -43 24 -57 34 -14 10 -56 23 -95 29 -84 12 -366 11 -450 -1z"/>
<path d="M30865 24731 c-58 -14 -113 -58 -134 -107 -21 -46 -21 -56 -21 -1797
l-1 -1751 24 -24 24 -24 424 2 c375 1 432 3 495 19 39 10 78 22 86 27 28 16
98 105 104 132 4 15 19 50 34 77 15 28 31 63 34 79 4 17 16 42 27 57 22 31 24
60 7 77 -9 9 -100 12 -349 12 -359 0 -393 4 -410 47 -5 14 -9 257 -9 567 l0
543 26 24 c21 19 40 25 107 30 137 11 194 27 238 66 38 35 109 148 109 176 0
8 13 39 29 68 40 76 52 121 37 151 -12 23 -12 23 -253 28 -239 5 -242 5 -267
29 l-26 24 0 464 0 464 23 23 c23 23 31 24 214 28 l191 4 51 36 c49 34 121
120 121 144 0 6 13 38 29 70 42 85 91 195 91 204 0 5 -7 16 -16 24 -14 14 -73
16 -512 15 -273 -1 -510 -4 -527 -8z"/>
<path d="M32632 24728 c-12 -6 -27 -27 -33 -47 -7 -24 -9 -610 -7 -1823 l3
-1787 21 -22 c21 -20 31 -21 212 -21 105 0 199 3 209 6 43 14 44 23 43 527 0
264 3 534 6 600 l7 120 24 -28 c41 -49 52 -78 67 -179 8 -55 22 -119 30 -142
9 -24 22 -85 31 -136 8 -50 21 -112 30 -136 9 -24 22 -87 31 -140 8 -52 23
-120 33 -150 11 -30 22 -76 26 -102 8 -55 48 -121 104 -171 46 -41 131 -63
275 -70 88 -5 90 -4 118 23 l28 29 -2 1811 -3 1812 -24 19 c-21 17 -41 19
-206 19 -193 0 -227 -6 -245 -41 -9 -15 -11 -147 -11 -465 2 -491 -5 -665 -25
-692 -25 -31 -50 15 -63 115 -7 49 -23 131 -36 183 -13 52 -27 124 -31 160 -4
36 -17 101 -29 145 -13 44 -28 120 -35 169 -6 49 -20 114 -30 145 -10 31 -24
74 -29 97 -16 60 -74 118 -151 149 -55 23 -84 27 -190 31 -83 3 -133 0 -148
-8z"/>
<path d="M34692 24728 c-13 -6 -26 -26 -32 -48 -7 -25 -9 -650 -8 -1824 l3
-1785 21 -22 c22 -21 26 -21 396 -20 518 3 572 15 715 160 81 82 130 172 143
259 13 90 13 2761 0 2861 -6 41 -18 86 -27 100 -10 14 -24 39 -30 55 -20 44
-91 124 -151 168 -29 22 -93 54 -140 71 l-87 31 -390 3 c-275 2 -397 -1 -413
-9z m705 -514 c55 -41 54 6 51 -1353 -3 -1180 -4 -1259 -21 -1284 -25 -39 -73
-59 -147 -64 -81 -5 -111 9 -128 61 -10 31 -12 307 -10 1325 2 724 7 1294 12
1304 14 29 45 37 133 34 65 -2 87 -6 110 -23z"/>
<path d="M37040 24731 c-52 -11 -104 -47 -136 -93 l-29 -41 -2 -1756 c-2
-1404 0 -1761 10 -1781 l13 -25 424 -3 c573 -4 602 2 695 142 18 28 37 65 40
81 4 17 17 48 30 70 12 22 30 64 41 93 32 91 51 86 -364 92 -277 4 -364 8
-374 18 -10 10 -14 131 -16 578 l-2 564 24 25 c21 21 35 25 88 25 35 0 100 9
145 19 72 15 87 23 128 62 25 24 45 49 45 54 0 6 16 42 35 81 19 38 35 75 35
82 0 7 15 40 32 72 28 49 31 62 23 86 l-10 29 -257 5 c-192 4 -260 8 -270 18
-10 10 -14 115 -16 489 -2 406 0 479 12 498 14 22 21 23 214 27 169 3 202 6
223 21 13 9 40 28 59 41 25 17 47 48 78 112 24 49 54 109 67 134 13 25 30 70
39 100 27 91 60 85 -502 86 -268 1 -503 -1 -522 -5z"/>
<path d="M39131 24732 c-47 -15 -61 -49 -76 -193 -8 -74 -23 -173 -34 -219
-11 -47 -24 -138 -30 -203 -6 -64 -20 -154 -31 -200 -10 -45 -24 -134 -30
-197 -6 -63 -20 -155 -31 -205 -11 -49 -25 -139 -30 -200 -6 -60 -19 -150 -30
-200 -11 -49 -26 -151 -34 -225 -8 -75 -23 -174 -34 -220 -11 -47 -24 -138
-30 -203 -6 -64 -20 -154 -31 -200 -10 -45 -24 -136 -30 -202 -7 -66 -20 -156
-30 -200 -11 -44 -24 -129 -30 -190 -11 -119 -24 -200 -40 -255 -6 -19 -17
-106 -26 -193 -22 -216 -43 -199 247 -199 257 0 251 -2 263 94 4 29 16 100 26
158 11 58 24 165 30 238 6 74 19 175 30 225 10 51 24 155 30 232 6 77 20 182
30 233 11 51 24 155 31 230 10 132 60 411 81 458 23 50 32 14 48 -194 6 -74
19 -177 30 -230 10 -54 24 -160 30 -237 6 -77 20 -183 30 -235 11 -52 27 -169
35 -260 9 -91 22 -194 30 -230 8 -36 21 -141 30 -233 9 -92 20 -179 25 -192
20 -52 41 -57 279 -57 173 -1 224 2 237 13 14 11 16 27 11 89 -3 41 -12 102
-21 135 -9 33 -22 123 -31 200 -8 77 -22 167 -30 200 -9 33 -23 123 -31 200
-8 77 -23 176 -34 220 -10 44 -24 134 -30 200 -6 66 -20 156 -30 200 -11 44
-24 132 -30 195 -6 63 -20 153 -31 200 -10 47 -26 147 -34 224 -8 76 -22 164
-30 196 -8 32 -22 120 -30 196 -8 77 -24 177 -34 224 -11 47 -25 134 -30 195
-6 60 -22 166 -35 235 -13 69 -29 172 -35 230 -9 98 -28 166 -69 249 -12 25
-36 45 -81 69 -61 34 -68 35 -185 38 -66 2 -132 0 -145 -4z"/>
<path d="M40450 24720 c-21 -21 -22 -29 -16 -92 3 -38 15 -109 26 -158 11 -49
27 -151 35 -227 8 -76 21 -163 30 -193 8 -30 21 -118 29 -195 9 -77 24 -178
35 -225 11 -47 25 -137 31 -200 6 -63 19 -151 30 -195 11 -44 24 -132 30 -195
6 -63 19 -152 30 -196 10 -45 24 -131 30 -190 13 -129 17 -161 36 -235 8 -31
21 -118 29 -194 9 -75 24 -176 34 -223 11 -48 24 -138 31 -200 6 -62 19 -150
30 -195 11 -45 24 -131 30 -192 8 -77 18 -126 36 -164 13 -29 24 -60 24 -68 0
-7 21 -36 46 -63 57 -61 107 -79 249 -90 111 -9 152 1 179 42 10 15 21 77 31
163 8 77 21 165 30 195 8 30 22 120 30 200 8 80 22 170 30 200 9 30 22 117 30
193 8 76 24 177 35 225 10 48 24 139 30 202 6 63 20 152 30 197 11 44 24 132
31 195 6 62 20 154 31 203 11 50 26 150 34 224 8 73 20 158 28 190 19 74 23
106 36 235 6 59 20 145 30 190 11 44 24 133 30 196 6 63 19 152 30 197 22 92
45 285 45 378 0 53 -3 61 -25 72 -31 16 -365 18 -405 3 -42 -16 -64 -80 -80
-242 -8 -79 -24 -181 -35 -228 -10 -47 -24 -137 -30 -200 -6 -63 -19 -152 -30
-197 -11 -46 -25 -136 -31 -200 -6 -65 -19 -156 -30 -203 -11 -46 -26 -145
-34 -220 -14 -136 -57 -345 -80 -389 -12 -24 -13 -24 -23 -5 -6 11 -16 76 -22
145 -6 68 -20 163 -31 211 -10 48 -26 149 -34 225 -8 76 -21 163 -30 193 -8
30 -22 120 -30 200 -8 80 -22 170 -30 200 -8 30 -19 100 -25 155 -26 231 -67
429 -99 474 -12 17 -43 43 -69 58 -45 27 -54 28 -204 31 -150 4 -157 3 -178
-18z"/>
<path d="M44815 24734 c-11 -3 -44 -17 -72 -32 -45 -23 -56 -35 -73 -77 -20
-50 -20 -65 -20 -1595 0 -1506 1 -1583 30 -1691 20 -72 110 -184 196 -244 16
-11 69 -35 119 -52 l90 -33 205 0 c167 0 211 3 235 16 17 8 54 22 84 29 123
33 229 131 308 285 17 33 18 124 21 1695 2 1431 0 1663 -12 1680 -13 18 -29
20 -193 23 -189 4 -228 0 -259 -22 -19 -14 -19 -50 -24 -1593 -4 -1267 -8
-1583 -18 -1603 -18 -34 -73 -69 -119 -75 -53 -7 -101 13 -137 58 l-31 39 -5
1571 c-3 882 -9 1580 -14 1590 -5 10 -20 23 -33 28 -24 9 -238 11 -278 3z"/>
<path d="M46767 24733 c-10 -2 -22 -16 -28 -29 -5 -16 -9 -723 -9 -1829 0
-1728 1 -1804 18 -1825 18 -22 23 -23 217 -22 180 1 201 2 224 20 l26 19 5
739 c3 406 6 740 8 741 19 12 69 20 104 17 79 -9 86 -13 115 -61 l28 -48 5
-697 c5 -634 7 -699 22 -714 14 -15 42 -17 214 -16 179 1 200 2 223 20 l26 19
3 734 c2 612 0 742 -12 784 -8 27 -19 68 -25 91 -6 22 -20 51 -31 64 -25 29
-25 44 1 79 11 15 31 70 45 121 l24 94 0 610 0 611 -26 94 c-36 131 -87 203
-213 299 -17 13 -70 37 -118 54 l-88 32 -370 2 c-203 1 -378 0 -388 -3z m655
-494 c9 -5 25 -28 37 -52 20 -42 21 -56 21 -533 0 -458 -2 -492 -19 -531 -26
-57 -55 -73 -136 -76 -113 -3 -105 -52 -105 608 0 523 1 563 18 577 9 9 24 18
32 21 19 7 130 -3 152 -14z"/>
</g>
</svg>
