<?xml version="1.0" encoding="UTF-8" standalone="no"?>
<svg
   version="1.0"
   width="7030.000000pt"
   height="4687.000000pt"
   viewBox="0 0 7030.000000 4687.000000"
   preserveAspectRatio="xMidYMid meet"
   id="svg14"
   sodipodi:docname="endeavour_text.svg"
   inkscape:version="1.4 (e7c3feb100, 2024-10-09)"
   xmlns:inkscape="http://www.inkscape.org/namespaces/inkscape"
   xmlns:sodipodi="http://sodipodi.sourceforge.net/DTD/sodipodi-0.dtd"
   xmlns="http://www.w3.org/2000/svg"
   xmlns:svg="http://www.w3.org/2000/svg">
  <defs
     id="defs14" />
  <sodipodi:namedview
     id="namedview14"
     pagecolor="#ffffff"
     bordercolor="#000000"
     borderopacity="0.25"
     inkscape:showpageshadow="2"
     inkscape:pageopacity="0.0"
     inkscape:pagecheckerboard="0"
     inkscape:deskcolor="#d1d1d1"
     inkscape:document-units="pt"
     inkscape:zoom="0.11313708"
     inkscape:cx="4830.4232"
     inkscape:cy="3265.9495"
     inkscape:window-width="1896"
     inkscape:window-height="1016"
     inkscape:window-x="1932"
     inkscape:window-y="52"
     inkscape:window-maximized="1"
     inkscape:current-layer="svg14" />
  <metadata
     id="metadata1">
Created by potrace 1.16, written by Peter Selinger 2001-2019
</metadata>
  <g
     transform="translate(0.000000,4687.000000) scale(0.100000,-0.100000)"
     fill="#000000"
     stroke="none"
     id="g14">
    <path
       d="m 19.20894,151.30236 c -6.572263,-1.07944 -17.6102011,-3.33452 -18.26459737,-3.73153 -0.0349724,-0.0212 -0.0821932,-0.0522 -0.0703054,-0.096 C 1.0491349,146.82932 4.4461762,142.091 27.951281,113.8023 60.453444,74.685531 87.177831,43.211672 99.804971,29.17878 c 4.128529,-4.58814 8.288049,-9.488466 11.511649,-12.899251 2.87535,-3.042303 5.04139,-4.858348 5.22122,-4.858348 0.12749,0 -2.80838,3.67485 -4.6075,6.101635 C 103.32793,29.126355 77.033892,70.169903 39.885494,129.98081 L 26.18304,152.0425 24.678908,151.9982 c -0.827272,-0.0244 -3.288756,-0.33753 -5.469968,-0.69577 z m 5.739066,24.72251 c -6.831161,-0.16562 -12.501089,-0.38871 -12.599841,-0.49575 -0.234616,-0.25434 13.415176,-22.76264 13.913154,-22.94258 0.209499,-0.0758 5.612105,0.38125 12.005789,1.01548 22.815917,2.26321 49.161677,4.40294 70.694982,5.74169 12.18406,0.75748 34.71279,0.73493 39.02635,-0.002 15.86026,-2.86192 25.17951,-9.03769 28.21993,-20.55055 0.78926,-2.98862 1.29713,-4.03336 1.28294,-10.48215 -0.32733,-7.93307 -0.78739,-10.85989 -3.46702,-19.76051 -6.64896,-22.08504 -22.77834,-50.393009 -48.47917,-85.163337 -3.82617,-5.17637 -9.06459,-12.391396 -8.44002,-11.90286 0.31147,0.243626 3.13206,2.773362 4.46686,4.203159 7.33834,7.860614 25.99941,29.357733 31.20195,35.649449 27.27692,32.987437 42.9393,60.130069 46.12624,80.013369 2.16576,13.51225 -1.45766,23.74293 -10.81102,30.52469 -6.74691,4.89195 -15.18727,7.54445 -30.28463,9.38341 -34.72761,4.23008 -83.246018,5.97168 -132.856493,4.76898 z"
       id="path1-3"
       style="fill:#000000"
       transform="matrix(48.798101,0,0,-48.798101,18231.256,27928.403)" />
    <path
       d="m 116.16542,16.296915 c -6.53214,8.91014 -12.5245,18.517683 -18.647129,27.877895 -13.797686,21.208127 -27.282938,42.720746 -40.749946,64.22826 -8.610972,13.80339 -17.267881,27.5747 -25.708481,41.50163 0.01836,0.34605 1.036845,0.16227 1.450953,0.29719 21.57541,2.05453 43.1219,4.01162 64.726793,5.48836 10.61987,0.70245 21.2485,1.33869 31.89247,1.51956 3.71155,0.048 7.62842,0.002 11.17112,-0.18341 7.19676,-0.43691 14.59744,-1.26209 21.16325,-4.72501 4.93321,-2.60883 9.28765,-6.85811 11.44546,-12.41357 2.31892,-5.76599 2.28382,-12.27428 1.3094,-18.37316 -0.12994,-0.79291 -0.30596,-1.9075 -0.49012,-2.82195 -0.43828,-2.28124 -0.93807,-4.3581 -1.54996,-6.6116 -0.55987,-2.03528 -1.13431,-3.8895 -1.81043,-5.91055 -2.36133,-6.999306 -5.32304,-13.743333 -8.56116,-20.311719 -0.57045,-1.128939 -1.25507,-2.516715 -1.89231,-3.732938 -9.09157,-17.455962 -19.92056,-33.765788 -31.21315,-49.61072 -3.95445,-5.502991 -8.021,-11.401237 -12.15497,-16.747524 -0.0839,0.105525 -0.29788,0.423736 -0.38179,0.529256 z"
       id="path2-6"
       style="fill:#000000"
       transform="matrix(48.798101,0,0,-48.798101,18231.256,27928.403)" />
    <path
       d="M42982 24749 c-108 -18 -238 -114 -318 -235 -23 -35 -45 -86 -58 -137 -21 -81 -21 -91 -21 -1492 0 -1397 0 -1411 21 -1495 38 -156 135 -271 293 -348 l76 -37 270 0 c258 0 272 1 305 21 19 12 51 27 70 33 41 13 167 127 192 174 46 85 58 119 73 212 14 90 16 240 13 1480 -4 1351 -4 1382 -24 1463 -12 48 -30 92 -42 105 -12 13 -22 28 -22 34 0 6 -29 40 -64 76 -81 81 -171 133 -257 146 -76 13 -432 12 -507 0z m349 -449 c10 -6 29 -30 41 -53 l23 -42 3 -1299 c3 -1430 5 -1371 -58 -1431 -24 -23 -41 -29 -87 -33 -72 -5 -117 21 -150 88 l-23 44 0 1308 0 1309 25 49 c14 27 33 53 42 59 23 14 159 14 184 1z"
       id="path4" />
    <path
       d="M49079 24749 c-35 -5 -75 -20 -105 -38 -26 -17 -53 -31 -58 -31 -13 0 -99 -84 -137 -132 -29 -37 -76 -142 -90 -203 -6 -24 -8 -615 -7 -1495 l3 -1455 44 -90 c63 -126 154 -215 275 -268 l87 -38 262 3 262 4 65 34 c36 19 86 50 112 69 52 37 124 128 141 176 6 16 20 46 31 65 21 35 21 37 21 1530 l0 1495 -42 86 c-31 65 -58 102 -109 152 -37 37 -73 67 -79 67 -6 0 -32 14 -59 30 -32 20 -69 33 -114 40 -80 11 -423 11 -503 -1z m372 -478 l39 -39 0 -1349 c0 -1064 -3 -1353 -12 -1366 -7 -9 -30 -30 -52 -46 -32 -26 -48 -31 -91 -31 -43 0 -59 5 -91 31 -22 16 -45 37 -51 46 -10 13 -13 302 -13 1364 l0 1348 38 41 39 40 78 0 c77 0 78 0 116 -39z"
       id="path5" />
    <path
       d="M51165 24749 c-33 -5 -71 -17 -85 -27 -14 -11 -41 -27 -60 -37 -48 -24 -125 -99 -168 -165 -21 -32 -48 -94 -64 -150 -27 -93 -28 -101 -28 -340 0 -135 5 -263 10 -285 6 -22 19 -84 30 -137 10 -53 26 -107 34 -120 8 -13 22 -48 31 -80 9 -31 22 -62 30 -68 8 -6 21 -34 30 -61 9 -27 21 -51 26 -55 5 -3 24 -33 40 -67 32 -63 62 -120 126 -237 19 -36 48 -90 64 -120 16 -30 34 -62 39 -70 6 -8 17 -31 26 -50 9 -19 33 -65 53 -102 20 -37 57 -109 82 -160 127 -257 139 -311 139 -630 0 -212 -1 -226 -22 -268 -54 -106 -151 -104 -219 5 -18 28 -19 55 -19 357 0 188 -4 338 -10 352 -6 18 -17 26 -33 26 -31 0 -106 -26 -127 -44 -8 -8 -35 -20 -60 -27 -61 -18 -160 -72 -193 -107 -15 -15 -38 -60 -52 -100 -24 -68 -25 -83 -25 -290 0 -212 1 -222 28 -313 16 -52 44 -116 63 -144 38 -56 128 -146 162 -162 12 -6 49 -24 81 -39 l59 -29 241 0 241 0 76 37 c160 78 255 192 290 347 16 73 19 128 19 356 0 273 -13 424 -45 520 -45 134 -87 236 -128 310 -39 70 -80 148 -106 201 -16 34 -34 64 -39 68 -6 3 -16 23 -23 44 -7 20 -22 51 -34 67 -13 17 -28 47 -34 67 -7 21 -17 41 -23 44 -6 4 -21 30 -35 58 -14 28 -42 83 -63 121 -21 39 -46 86 -55 105 -8 19 -21 44 -27 55 -51 89 -95 198 -122 303 -24 94 -26 120 -26 298 0 193 0 196 26 240 31 52 49 64 101 64 66 0 82 -10 108 -61 24 -47 25 -54 25 -279 0 -140 4 -239 10 -251 14 -25 60 -25 108 0 57 30 184 88 218 101 17 6 52 33 78 59 39 40 52 62 67 117 38 137 14 395 -45 484 -14 22 -26 44 -26 49 0 15 -130 140 -163 158 -18 9 -43 24 -57 34 -14 10 -56 23 -95 29 -84 12 -366 11 -450 -1z"
       id="path6" />
    <path
       d="M30865 24731 c-58 -14 -113 -58 -134 -107 -21 -46 -21 -56 -21 -1797 l-1 -1751 24 -24 24 -24 424 2 c375 1 432 3 495 19 39 10 78 22 86 27 28 16 98 105 104 132 4 15 19 50 34 77 15 28 31 63 34 79 4 17 16 42 27 57 22 31 24 60 7 77 -9 9 -100 12 -349 12 -359 0 -393 4 -410 47 -5 14 -9 257 -9 567 l0 543 26 24 c21 19 40 25 107 30 137 11 194 27 238 66 38 35 109 148 109 176 0 8 13 39 29 68 40 76 52 121 37 151 -12 23 -12 23 -253 28 -239 5 -242 5 -267 29 l-26 24 0 464 0 464 23 23 c23 23 31 24 214 28 l191 4 51 36 c49 34 121 120 121 144 0 6 13 38 29 70 42 85 91 195 91 204 0 5 -7 16 -16 24 -14 14 -73 16 -512 15 -273 -1 -510 -4 -527 -8z"
       id="path7" />
    <path
       d="M32632 24728 c-12 -6 -27 -27 -33 -47 -7 -24 -9 -610 -7 -1823 l3 -1787 21 -22 c21 -20 31 -21 212 -21 105 0 199 3 209 6 43 14 44 23 43 527 0 264 3 534 6 600 l7 120 24 -28 c41 -49 52 -78 67 -179 8 -55 22 -119 30 -142 9 -24 22 -85 31 -136 8 -50 21 -112 30 -136 9 -24 22 -87 31 -140 8 -52 23 -120 33 -150 11 -30 22 -76 26 -102 8 -55 48 -121 104 -171 46 -41 131 -63 275 -70 88 -5 90 -4 118 23 l28 29 -2 1811 -3 1812 -24 19 c-21 17 -41 19 -206 19 -193 0 -227 -6 -245 -41 -9 -15 -11 -147 -11 -465 2 -491 -5 -665 -25 -692 -25 -31 -50 15 -63 115 -7 49 -23 131 -36 183 -13 52 -27 124 -31 160 -4 36 -17 101 -29 145 -13 44 -28 120 -35 169 -6 49 -20 114 -30 145 -10 31 -24 74 -29 97 -16 60 -74 118 -151 149 -55 23 -84 27 -190 31 -83 3 -133 0 -148 -8z"
       id="path8" />
    <path
       d="M34692 24728 c-13 -6 -26 -26 -32 -48 -7 -25 -9 -650 -8 -1824 l3 -1785 21 -22 c22 -21 26 -21 396 -20 518 3 572 15 715 160 81 82 130 172 143 259 13 90 13 2761 0 2861 -6 41 -18 86 -27 100 -10 14 -24 39 -30 55 -20 44 -91 124 -151 168 -29 22 -93 54 -140 71 l-87 31 -390 3 c-275 2 -397 -1 -413 -9z m705 -514 c55 -41 54 6 51 -1353 -3 -1180 -4 -1259 -21 -1284 -25 -39 -73 -59 -147 -64 -81 -5 -111 9 -128 61 -10 31 -12 307 -10 1325 2 724 7 1294 12 1304 14 29 45 37 133 34 65 -2 87 -6 110 -23z"
       id="path9" />
    <path
       d="M37040 24731 c-52 -11 -104 -47 -136 -93 l-29 -41 -2 -1756 c-2 -1404 0 -1761 10 -1781 l13 -25 424 -3 c573 -4 602 2 695 142 18 28 37 65 40 81 4 17 17 48 30 70 12 22 30 64 41 93 32 91 51 86 -364 92 -277 4 -364 8 -374 18 -10 10 -14 131 -16 578 l-2 564 24 25 c21 21 35 25 88 25 35 0 100 9 145 19 72 15 87 23 128 62 25 24 45 49 45 54 0 6 16 42 35 81 19 38 35 75 35 82 0 7 15 40 32 72 28 49 31 62 23 86 l-10 29 -257 5 c-192 4 -260 8 -270 18 -10 10 -14 115 -16 489 -2 406 0 479 12 498 14 22 21 23 214 27 169 3 202 6 223 21 13 9 40 28 59 41 25 17 47 48 78 112 24 49 54 109 67 134 13 25 30 70 39 100 27 91 60 85 -502 86 -268 1 -503 -1 -522 -5z"
       id="path10" />
    <path
       d="M39131 24732 c-47 -15 -61 -49 -76 -193 -8 -74 -23 -173 -34 -219 -11 -47 -24 -138 -30 -203 -6 -64 -20 -154 -31 -200 -10 -45 -24 -134 -30 -197 -6 -63 -20 -155 -31 -205 -11 -49 -25 -139 -30 -200 -6 -60 -19 -150 -30 -200 -11 -49 -26 -151 -34 -225 -8 -75 -23 -174 -34 -220 -11 -47 -24 -138 -30 -203 -6 -64 -20 -154 -31 -200 -10 -45 -24 -136 -30 -202 -7 -66 -20 -156 -30 -200 -11 -44 -24 -129 -30 -190 -11 -119 -24 -200 -40 -255 -6 -19 -17 -106 -26 -193 -22 -216 -43 -199 247 -199 257 0 251 -2 263 94 4 29 16 100 26 158 11 58 24 165 30 238 6 74 19 175 30 225 10 51 24 155 30 232 6 77 20 182 30 233 11 51 24 155 31 230 10 132 60 411 81 458 23 50 32 14 48 -194 6 -74 19 -177 30 -230 10 -54 24 -160 30 -237 6 -77 20 -183 30 -235 11 -52 27 -169 35 -260 9 -91 22 -194 30 -230 8 -36 21 -141 30 -233 9 -92 20 -179 25 -192 20 -52 41 -57 279 -57 173 -1 224 2 237 13 14 11 16 27 11 89 -3 41 -12 102 -21 135 -9 33 -22 123 -31 200 -8 77 -22 167 -30 200 -9 33 -23 123 -31 200 -8 77 -23 176 -34 220 -10 44 -24 134 -30 200 -6 66 -20 156 -30 200 -11 44 -24 132 -30 195 -6 63 -20 153 -31 200 -10 47 -26 147 -34 224 -8 76 -22 164 -30 196 -8 32 -22 120 -30 196 -8 77 -24 177 -34 224 -11 47 -25 134 -30 195 -6 60 -22 166 -35 235 -13 69 -29 172 -35 230 -9 98 -28 166 -69 249 -12 25 -36 45 -81 69 -61 34 -68 35 -185 38 -66 2 -132 0 -145 -4z"
       id="path11" />
    <path
       d="M40450 24720 c-21 -21 -22 -29 -16 -92 3 -38 15 -109 26 -158 11 -49 27 -151 35 -227 8 -76 21 -163 30 -193 8 -30 21 -118 29 -195 9 -77 24 -178 35 -225 11 -47 25 -137 31 -200 6 -63 19 -151 30 -195 11 -44 24 -132 30 -195 6 -63 19 -152 30 -196 10 -45 24 -131 30 -190 13 -129 17 -161 36 -235 8 -31 21 -118 29 -194 9 -75 24 -176 34 -223 11 -48 24 -138 31 -200 6 -62 19 -150 30 -195 11 -45 24 -131 30 -192 8 -77 18 -126 36 -164 13 -29 24 -60 24 -68 0 -7 21 -36 46 -63 57 -61 107 -79 249 -90 111 -9 152 1 179 42 10 15 21 77 31 163 8 77 21 165 30 195 8 30 22 120 30 200 8 80 22 170 30 200 9 30 22 117 30 193 8 76 24 177 35 225 10 48 24 139 30 202 6 63 20 152 30 197 11 44 24 132 31 195 6 62 20 154 31 203 11 50 26 150 34 224 8 73 20 158 28 190 19 74 23 106 36 235 6 59 20 145 30 190 11 44 24 133 30 196 6 63 19 152 30 197 22 92 45 285 45 378 0 53 -3 61 -25 72 -31 16 -365 18 -405 3 -42 -16 -64 -80 -80 -242 -8 -79 -24 -181 -35 -228 -10 -47 -24 -137 -30 -200 -6 -63 -19 -152 -30 -197 -11 -46 -25 -136 -31 -200 -6 -65 -19 -156 -30 -203 -11 -46 -26 -145 -34 -220 -14 -136 -57 -345 -80 -389 -12 -24 -13 -24 -23 -5 -6 11 -16 76 -22 145 -6 68 -20 163 -31 211 -10 48 -26 149 -34 225 -8 76 -21 163 -30 193 -8 30 -22 120 -30 200 -8 80 -22 170 -30 200 -8 30 -19 100 -25 155 -26 231 -67 429 -99 474 -12 17 -43 43 -69 58 -45 27 -54 28 -204 31 -150 4 -157 3 -178 -18z"
       id="path12" />
    <path
       d="M44815 24734 c-11 -3 -44 -17 -72 -32 -45 -23 -56 -35 -73 -77 -20 -50 -20 -65 -20 -1595 0 -1506 1 -1583 30 -1691 20 -72 110 -184 196 -244 16 -11 69 -35 119 -52 l90 -33 205 0 c167 0 211 3 235 16 17 8 54 22 84 29 123 33 229 131 308 285 17 33 18 124 21 1695 2 1431 0 1663 -12 1680 -13 18 -29 20 -193 23 -189 4 -228 0 -259 -22 -19 -14 -19 -50 -24 -1593 -4 -1267 -8 -1583 -18 -1603 -18 -34 -73 -69 -119 -75 -53 -7 -101 13 -137 58 l-31 39 -5 1571 c-3 882 -9 1580 -14 1590 -5 10 -20 23 -33 28 -24 9 -238 11 -278 3z"
       id="path13" />
    <path
       d="M46767 24733 c-10 -2 -22 -16 -28 -29 -5 -16 -9 -723 -9 -1829 0 -1728 1 -1804 18 -1825 18 -22 23 -23 217 -22 180 1 201 2 224 20 l26 19 5 739 c3 406 6 740 8 741 19 12 69 20 104 17 79 -9 86 -13 115 -61 l28 -48 5 -697 c5 -634 7 -699 22 -714 14 -15 42 -17 214 -16 179 1 200 2 223 20 l26 19 3 734 c2 612 0 742 -12 784 -8 27 -19 68 -25 91 -6 22 -20 51 -31 64 -25 29 -25 44 1 79 11 15 31 70 45 121 l24 94 0 610 0 611 -26 94 c-36 131 -87 203 -213 299 -17 13 -70 37 -118 54 l-88 32 -370 2 c-203 1 -378 0 -388 -3z m655 -494 c9 -5 25 -28 37 -52 20 -42 21 -56 21 -533 0 -458 -2 -492 -19 -531 -26 -57 -55 -73 -136 -76 -113 -3 -105 -52 -105 608 0 523 1 563 18 577 9 9 24 18 32 21 19 7 130 -3 152 -14z"
       id="path14" />
  </g>
</svg>
