<?xml version="1.0" standalone="no"?>
<!DOCTYPE svg PUBLIC "-//W3C//DTD SVG 20010904//EN"
 "http://www.w3.org/TR/2001/REC-SVG-20010904/DTD/svg10.dtd">
<svg version="1.0" xmlns="http://www.w3.org/2000/svg"
 width="7030.000000pt" height="4687.000000pt" viewBox="0 0 7030.000000 4687.000000"
 preserveAspectRatio="xMidYMid meet">
<metadata>
Created by potrace 1.16, written by Peter Selinger 2001-2019
</metadata>
<g transform="translate(0.000000,4687.000000) scale(0.100000,-0.100000)"
fill="#51a2da" stroke="none">
<path d="M34905 29999 c-223 -8 -292 -14 -380 -34 -33 -8 -121 -21 -196 -29
-75 -8 -170 -24 -210 -35 -41 -11 -110 -25 -154 -31 -44 -7 -100 -20 -125 -30
-25 -9 -75 -23 -112 -29 -37 -6 -88 -20 -112 -31 -25 -10 -74 -24 -108 -30
-35 -6 -80 -20 -102 -31 -21 -11 -67 -26 -102 -35 -35 -8 -78 -23 -96 -33 -18
-11 -48 -22 -67 -26 -19 -4 -61 -20 -95 -36 -34 -16 -67 -29 -75 -29 -14 0
-83 -31 -225 -101 -32 -16 -67 -29 -76 -29 -10 0 -28 -9 -42 -19 -14 -11 -45
-28 -69 -37 -24 -10 -54 -25 -67 -35 -13 -10 -40 -23 -60 -30 -20 -6 -46 -19
-57 -29 -11 -10 -40 -27 -65 -39 -25 -12 -74 -39 -110 -61 -36 -22 -78 -47
-95 -55 -16 -8 -43 -26 -60 -40 -16 -14 -35 -25 -42 -25 -6 0 -24 -11 -40 -24
-15 -13 -41 -31 -58 -40 -16 -9 -57 -36 -90 -61 -33 -24 -73 -52 -90 -61 -16
-9 -44 -29 -62 -43 -17 -14 -50 -39 -73 -56 -152 -107 -478 -392 -665 -579
-136 -137 -307 -324 -401 -441 -14 -16 -43 -52 -65 -79 -36 -44 -118 -152
-162 -216 -9 -14 -33 -45 -52 -70 -19 -25 -42 -58 -51 -75 -9 -16 -30 -46 -45
-65 -16 -19 -29 -38 -29 -43 0 -8 -56 -95 -90 -139 -11 -15 -27 -42 -34 -60
-8 -18 -23 -44 -34 -58 -11 -14 -27 -41 -37 -60 -9 -19 -32 -62 -50 -95 -19
-33 -44 -80 -55 -105 -12 -25 -25 -52 -30 -60 -19 -29 -108 -215 -115 -240 -4
-14 -15 -36 -25 -50 -9 -14 -23 -43 -30 -65 -7 -22 -20 -54 -30 -71 -10 -17
-25 -57 -34 -88 -9 -30 -25 -70 -35 -88 -10 -18 -24 -55 -30 -83 -7 -27 -19
-60 -27 -72 -8 -13 -21 -53 -30 -89 -8 -37 -24 -83 -34 -104 -10 -20 -24 -65
-30 -101 -6 -35 -20 -83 -30 -107 -11 -23 -26 -82 -34 -130 -8 -48 -22 -105
-31 -125 -9 -21 -22 -86 -31 -145 -8 -59 -23 -138 -34 -177 -11 -38 -24 -127
-30 -197 -6 -69 -17 -164 -25 -209 -34 -194 -36 -368 -33 -3029 l3 -2635 22
-65 c12 -36 27 -90 34 -120 6 -30 19 -69 29 -86 9 -17 23 -48 30 -70 7 -21 23
-55 35 -75 13 -20 31 -52 39 -70 35 -74 112 -173 224 -285 97 -97 146 -136
223 -178 25 -13 51 -31 58 -40 7 -8 29 -20 48 -27 20 -6 51 -22 69 -34 18 -12
50 -26 71 -30 20 -4 55 -16 76 -26 21 -11 105 -32 185 -47 l147 -27 2480 -3
c2409 -3 2560 -1 2890 27 61 6 171 15 245 21 74 5 171 19 215 29 44 11 126 25
182 31 57 6 127 19 157 30 30 10 90 24 133 30 43 7 100 20 128 31 27 10 83 25
123 34 40 8 86 22 102 30 16 8 60 22 98 30 38 8 85 23 103 34 19 10 58 24 87
30 29 6 75 22 102 36 27 14 57 25 67 25 10 0 45 13 78 29 33 16 74 32 91 35
17 4 46 18 65 32 18 13 40 24 48 24 14 0 110 43 196 88 17 8 48 24 70 35 22
10 51 25 65 33 14 8 48 26 75 40 28 14 75 40 106 57 32 18 77 43 100 56 24 13
58 34 75 47 17 13 35 24 40 24 5 0 41 23 79 50 39 27 90 61 115 75 25 14 65
41 90 60 25 20 58 43 73 53 15 9 58 40 94 67 36 28 78 59 93 70 62 44 377 309
420 354 14 14 59 58 100 98 220 211 533 567 671 763 21 30 50 71 64 90 55 73
101 139 120 171 11 18 29 47 40 65 11 17 29 45 40 63 11 18 30 47 42 65 13 17
32 49 43 71 12 22 38 69 60 105 22 36 49 85 60 110 12 25 28 52 35 60 8 9 21
34 28 56 8 22 26 57 41 78 14 21 26 46 26 55 0 9 11 33 24 52 14 20 28 49 32
65 3 16 19 52 35 80 16 28 29 58 29 66 0 8 13 39 29 69 15 30 32 69 36 88 4
19 20 61 36 95 16 34 29 69 29 79 0 10 13 49 29 85 16 37 32 85 36 107 4 21
15 55 25 75 10 20 23 65 30 101 6 35 21 91 34 124 13 33 27 87 31 120 4 33 18
92 30 131 13 39 28 113 34 164 7 51 20 124 31 164 11 39 24 132 30 206 6 74
18 178 26 232 41 281 44 837 5 1135 -11 83 -25 209 -31 280 -6 70 -19 160 -30
199 -11 40 -24 114 -30 165 -6 52 -22 126 -34 164 -13 39 -27 97 -31 130 -4
33 -18 88 -31 123 -13 34 -28 90 -34 124 -7 34 -20 78 -30 97 -9 20 -23 60
-29 89 -6 29 -20 70 -31 92 -11 22 -25 63 -31 92 -6 29 -22 71 -34 93 -13 22
-26 56 -30 75 -4 19 -18 54 -31 77 -13 23 -24 48 -24 56 0 8 -13 40 -29 70
-16 30 -34 72 -41 93 -7 22 -24 55 -36 74 -13 19 -24 42 -24 50 0 9 -13 36
-29 61 -15 25 -34 62 -40 82 -7 20 -17 39 -22 43 -6 3 -21 29 -35 57 -50 101
-80 156 -96 174 -9 10 -23 36 -32 58 -9 21 -24 48 -34 58 -17 19 -40 55 -87
137 -14 25 -39 63 -56 85 -16 22 -42 58 -57 80 -29 43 -82 116 -110 152 -9 12
-35 48 -57 79 -69 97 -387 463 -512 589 -127 128 -311 300 -347 325 -12 8 -32
24 -43 35 -47 45 -234 196 -298 240 -31 22 -74 54 -95 70 -75 58 -127 95 -135
95 -4 0 -21 12 -39 26 -44 36 -134 94 -145 94 -5 0 -22 11 -38 24 -26 21 -47
34 -152 92 -21 11 -51 30 -67 41 -16 11 -39 23 -51 27 -12 4 -36 17 -55 29
-18 13 -49 29 -68 36 -19 8 -44 22 -55 31 -11 10 -38 23 -60 30 -22 7 -56 24
-75 36 -19 13 -39 24 -45 24 -5 0 -41 16 -79 35 -39 19 -76 35 -83 35 -7 0
-39 14 -70 30 -31 17 -63 30 -72 30 -9 0 -35 11 -59 25 -23 13 -69 31 -102 39
-33 9 -70 22 -83 30 -12 8 -52 22 -90 30 -37 9 -77 22 -90 30 -12 8 -58 24
-102 35 -44 11 -105 29 -135 40 -30 11 -67 20 -82 21 -15 0 -64 12 -109 26
-46 14 -112 30 -148 35 -36 5 -113 20 -171 34 -58 13 -161 31 -230 39 -69 9
-161 22 -206 30 -156 29 -697 41 -1119 25z m1847 -2543 c62 -8 142 -18 178
-21 36 -4 97 -17 135 -30 39 -13 94 -28 124 -34 30 -7 68 -20 85 -30 17 -10
56 -26 87 -35 31 -9 62 -22 68 -30 7 -8 25 -18 41 -21 16 -4 46 -17 65 -31 20
-13 53 -31 73 -40 20 -8 45 -22 55 -32 10 -9 33 -25 52 -37 123 -76 209 -146
338 -278 87 -89 163 -182 187 -228 7 -13 26 -39 41 -57 16 -18 29 -37 29 -43
0 -6 9 -23 19 -38 28 -38 101 -180 101 -194 0 -7 13 -39 29 -72 16 -33 32 -82
36 -108 3 -27 15 -69 25 -93 61 -141 64 -744 6 -868 -13 -28 -30 -67 -38 -86
-21 -50 -130 -154 -206 -195 -87 -48 -194 -64 -324 -47 -53 6 -101 18 -116 29
-15 10 -43 25 -62 34 -40 19 -147 124 -168 166 -8 15 -20 35 -27 43 -33 38
-40 104 -40 375 -1 249 -2 275 -22 330 -11 33 -26 81 -32 107 -6 26 -22 64
-36 84 -14 20 -25 41 -25 46 0 30 -165 200 -222 229 -20 10 -39 23 -43 28 -7
13 -170 91 -189 91 -7 0 -58 14 -112 31 -95 29 -107 31 -284 31 -177 1 -188 0
-250 -25 -36 -14 -84 -31 -108 -37 -23 -6 -59 -22 -79 -35 -20 -14 -41 -25
-48 -25 -7 0 -32 -16 -55 -35 -23 -19 -45 -35 -49 -35 -4 0 -40 -32 -79 -70
-127 -125 -204 -256 -246 -420 l-28 -105 1 -809 c0 -580 3 -812 11 -820 8 -8
165 -13 518 -16 l507 -5 84 -38 c131 -59 194 -125 258 -270 35 -79 36 -86 36
-202 0 -117 -1 -122 -38 -208 -30 -68 -53 -103 -99 -150 -34 -34 -77 -71 -95
-82 -19 -11 -44 -25 -55 -32 -49 -28 -242 -42 -654 -48 -436 -6 -472 -10 -472
-53 0 -9 -2 -327 -4 -707 -5 -715 -13 -886 -47 -985 -10 -30 -25 -90 -33 -132
-8 -42 -22 -87 -30 -100 -8 -13 -20 -45 -27 -73 -6 -27 -22 -68 -34 -90 -12
-22 -28 -58 -35 -80 -7 -22 -21 -51 -30 -65 -10 -14 -27 -45 -39 -70 -19 -41
-41 -78 -108 -181 -115 -179 -329 -411 -487 -529 -26 -19 -62 -47 -81 -62 -18
-16 -37 -28 -42 -28 -6 0 -18 -9 -29 -21 -10 -12 -41 -33 -67 -48 -27 -14 -74
-40 -105 -58 -31 -18 -73 -39 -92 -48 -19 -8 -62 -29 -95 -45 -33 -17 -67 -30
-75 -30 -8 0 -40 -12 -70 -26 -30 -14 -86 -32 -125 -40 -38 -8 -88 -22 -110
-30 -72 -30 -464 -69 -595 -60 -195 14 -415 44 -466 64 -27 11 -72 23 -100 27
-27 4 -79 20 -116 36 -36 16 -72 29 -79 29 -12 0 -140 58 -189 86 -14 7 -41
21 -60 30 -19 9 -49 26 -66 39 -16 13 -46 30 -65 39 -66 31 -160 102 -310 236
-94 83 -147 138 -220 225 -32 39 -67 79 -77 90 -11 11 -40 52 -65 90 -26 39
-56 82 -67 96 -11 15 -24 39 -30 54 -6 15 -19 40 -30 56 -11 15 -27 47 -35 70
-9 24 -22 51 -31 60 -8 9 -21 37 -29 61 -7 23 -22 63 -33 88 -30 66 -90 267
-97 325 -3 28 -16 91 -28 140 -20 80 -22 116 -22 325 1 208 4 245 23 320 12
47 26 119 31 160 6 42 19 96 30 120 10 25 24 72 31 105 7 33 21 75 32 93 11
18 26 55 33 83 8 28 21 59 29 68 9 9 22 36 31 60 8 23 23 54 34 69 10 15 26
43 35 62 9 19 26 50 39 67 12 18 40 61 62 95 77 122 275 342 420 465 103 89
147 123 155 123 4 0 23 12 43 28 19 15 50 36 69 47 91 55 146 86 178 100 19 8
62 28 95 44 124 60 300 120 425 146 326 67 313 66 808 68 376 2 462 0 475 -12
15 -12 17 -58 17 -490 l0 -478 -26 -24 -26 -24 -386 -6 c-411 -7 -563 -19
-652 -51 -30 -11 -79 -26 -107 -33 -29 -7 -67 -22 -85 -33 -18 -11 -51 -25
-73 -32 -22 -7 -53 -23 -68 -36 -16 -13 -34 -24 -41 -24 -11 0 -102 -62 -136
-93 -8 -8 -39 -35 -68 -60 -59 -53 -167 -175 -200 -227 -12 -19 -33 -58 -46
-87 -14 -28 -30 -54 -35 -57 -6 -4 -19 -35 -30 -69 -11 -34 -29 -87 -39 -117
-11 -31 -27 -126 -37 -215 -17 -157 -17 -163 3 -316 15 -109 29 -175 46 -218
14 -33 26 -66 26 -73 0 -7 9 -29 20 -48 11 -19 31 -57 45 -85 58 -115 155
-232 305 -368 45 -41 163 -117 230 -147 25 -12 63 -30 85 -41 22 -11 72 -29
110 -39 39 -10 95 -26 125 -35 76 -23 431 -24 505 -2 28 8 82 22 120 32 39 10
97 30 130 45 33 16 71 32 85 36 14 4 38 17 53 30 16 13 34 24 40 24 7 0 32 16
56 35 24 19 47 35 51 35 20 0 204 197 247 264 88 137 101 161 109 191 4 17 17
48 29 70 13 22 28 70 34 106 6 36 19 88 28 115 16 45 18 206 23 2209 6 2218 6
2215 45 2324 8 23 19 69 25 104 6 34 20 77 31 95 10 18 24 54 31 80 6 26 19
59 30 74 10 15 25 44 32 65 7 21 24 55 37 75 13 19 32 49 41 64 18 30 49 76
103 155 41 60 63 83 187 207 155 154 231 214 382 300 23 13 48 29 56 37 8 7
32 18 52 24 20 7 42 19 48 26 7 8 33 21 59 29 25 8 71 26 101 40 30 14 63 26
73 26 11 0 58 13 105 30 51 17 129 34 187 40 55 6 125 15 155 19 89 14 240 12
362 -3z"/>
</g>
</svg>
