<?xml version="1.0" standalone="no"?>
<!DOCTYPE svg PUBLIC "-//W3C//DTD SVG 20010904//EN"
 "http://www.w3.org/TR/2001/REC-SVG-20010904/DTD/svg10.dtd">
<svg version="1.0" xmlns="http://www.w3.org/2000/svg"
 width="7030.000000pt" height="4687.000000pt" viewBox="0 0 7030.000000 4687.000000"
 preserveAspectRatio="xMidYMid meet">
<metadata>
Created by potrace 1.16, written by Peter Selinger 2001-2019
</metadata>
<g transform="translate(0.000000,4687.000000) scale(0.100000,-0.100000)"
fill="#000000" stroke="none">
<path d="M23510 28504 c-140 -8 -288 -25 -340 -39 -30 -8 -93 -19 -140 -25
-47 -6 -121 -22 -165 -34 -44 -13 -116 -33 -160 -44 -44 -11 -100 -27 -125
-36 -25 -8 -67 -23 -95 -32 -114 -37 -191 -65 -210 -78 -11 -7 -38 -19 -60
-26 -22 -7 -64 -26 -94 -41 -30 -16 -61 -29 -69 -29 -8 0 -36 -13 -61 -29 -25
-16 -57 -32 -71 -36 -14 -4 -32 -13 -40 -20 -8 -7 -39 -26 -68 -41 -29 -16
-71 -39 -92 -50 -40 -22 -113 -68 -165 -104 -16 -12 -60 -40 -97 -64 -37 -24
-81 -54 -97 -67 -17 -13 -51 -40 -77 -59 -227 -171 -588 -531 -754 -754 -19
-26 -48 -64 -65 -86 -52 -67 -128 -180 -154 -229 -7 -14 -22 -35 -32 -46 -10
-11 -25 -37 -33 -57 -9 -20 -21 -40 -26 -43 -6 -4 -22 -30 -36 -58 -14 -29
-35 -70 -47 -93 -31 -57 -39 -73 -65 -129 -12 -28 -34 -71 -47 -96 -14 -26
-25 -54 -25 -62 0 -8 -13 -39 -28 -69 -16 -29 -34 -75 -41 -102 -6 -26 -19
-58 -27 -71 -9 -13 -24 -58 -34 -99 -11 -42 -26 -88 -34 -104 -8 -16 -20 -60
-27 -98 -6 -38 -20 -91 -30 -117 -11 -27 -26 -96 -34 -154 -8 -57 -22 -128
-30 -156 -20 -68 -32 -208 -45 -532 -16 -386 -9 -3449 9 -3560 11 -72 40 -152
88 -240 9 -16 25 -48 36 -70 18 -35 126 -169 151 -187 5 -3 23 -18 40 -32 71
-61 119 -96 130 -96 6 0 28 -12 49 -26 21 -14 61 -34 90 -44 29 -10 72 -26 97
-37 43 -17 123 -18 1860 -21 1085 -2 1877 1 1970 7 85 5 196 19 245 30 50 11
124 23 165 27 41 3 109 17 150 30 41 12 104 28 140 34 36 6 84 20 107 30 23
10 68 24 100 30 32 7 75 21 97 32 21 11 64 26 94 34 31 8 70 23 86 34 17 10
52 24 78 30 26 7 52 18 58 26 7 7 35 21 63 30 29 9 64 25 79 36 15 10 42 24
60 30 18 6 45 19 59 29 15 10 46 28 70 39 58 27 128 69 164 98 15 12 32 22 37
22 10 0 100 58 143 93 17 13 41 30 54 37 37 19 164 118 325 253 141 119 346
328 463 472 121 149 152 189 183 235 19 28 49 69 65 90 17 21 44 61 60 90 17
28 40 66 52 83 13 18 30 48 39 67 9 19 26 49 38 65 12 17 45 78 74 137 30 59
57 110 62 113 5 3 12 20 15 38 4 17 20 55 36 83 16 28 29 58 29 65 0 8 13 41
28 74 16 33 34 83 41 110 7 28 19 60 26 71 8 12 23 58 34 102 11 45 27 94 35
110 8 16 20 60 26 98 6 38 21 103 34 144 13 41 27 109 31 150 3 41 15 118 26
170 52 251 52 914 0 1175 -11 55 -25 142 -31 193 -6 51 -19 114 -29 140 -10
26 -24 79 -30 119 -6 39 -20 93 -32 120 -11 26 -25 73 -31 103 -5 30 -20 75
-33 100 -12 25 -26 61 -30 80 -4 19 -20 62 -36 95 -16 33 -29 66 -29 74 0 8
-11 33 -24 55 -13 23 -29 59 -36 81 -7 22 -21 52 -32 67 -10 15 -24 42 -30 60
-7 18 -24 53 -40 77 -15 25 -28 49 -28 55 0 5 -10 23 -23 40 -13 17 -29 45
-36 63 -7 18 -20 38 -28 45 -9 7 -24 31 -35 53 -10 22 -29 56 -43 75 -14 19
-39 56 -57 83 -200 291 -556 681 -776 849 -24 18 -58 44 -76 58 -107 82 -155
118 -191 142 -22 15 -58 41 -80 57 -22 17 -60 42 -85 56 -25 14 -70 41 -100
60 -30 19 -78 46 -107 59 -28 14 -54 29 -57 35 -3 5 -28 17 -54 27 -26 10 -54
24 -63 31 -9 8 -41 23 -70 34 -30 12 -61 27 -70 35 -10 9 -40 21 -68 29 -28 7
-65 22 -83 33 -18 11 -49 23 -68 27 -19 4 -58 18 -86 31 -28 13 -73 28 -100
34 -27 6 -76 21 -109 34 -33 13 -82 27 -108 31 -26 3 -73 15 -105 26 -31 11
-104 27 -161 35 -58 8 -127 21 -155 29 -28 8 -94 19 -146 25 -94 11 -715 21
-840 14z m1420 -1728 c52 -13 115 -27 140 -31 25 -4 60 -15 78 -26 18 -10 57
-26 87 -34 30 -9 58 -21 61 -27 4 -6 26 -19 49 -29 114 -50 330 -224 409 -327
22 -30 53 -71 68 -91 16 -20 35 -52 44 -71 9 -19 24 -45 34 -58 11 -13 26 -47
36 -75 9 -29 23 -62 31 -73 8 -12 28 -89 44 -170 29 -138 31 -160 26 -299 -8
-252 -53 -348 -201 -428 -70 -38 -72 -38 -166 -35 -89 4 -99 6 -155 41 -81 51
-131 111 -155 189 -25 81 -27 104 -17 213 6 77 4 107 -17 207 -21 98 -31 126
-66 176 -42 62 -152 172 -173 172 -6 0 -27 11 -46 24 -47 32 -269 86 -352 86
-63 0 -210 -35 -274 -66 -124 -60 -245 -183 -308 -313 l-42 -86 -3 -575 c-2
-493 -1 -578 12 -595 14 -19 26 -20 338 -20 266 -1 334 -4 383 -17 32 -9 64
-23 70 -30 5 -8 20 -21 32 -29 60 -41 100 -123 108 -220 17 -189 -59 -315
-227 -373 -76 -26 -78 -26 -375 -26 -254 0 -302 -2 -321 -16 l-22 -15 0 -472
c0 -450 -8 -615 -31 -659 -5 -10 -18 -58 -29 -107 -10 -48 -28 -104 -39 -122
-12 -19 -21 -41 -21 -49 0 -17 -82 -182 -115 -230 -14 -19 -35 -50 -47 -68
-36 -52 -158 -193 -207 -237 -97 -89 -111 -101 -148 -128 -68 -49 -142 -97
-151 -97 -5 0 -25 -11 -44 -24 -20 -13 -53 -29 -74 -36 -22 -7 -52 -21 -69
-30 -16 -10 -52 -24 -80 -30 -27 -7 -82 -23 -121 -36 -150 -50 -584 -52 -721
-4 -32 11 -87 27 -122 36 -36 8 -78 23 -95 33 -17 10 -48 24 -70 31 -21 7 -54
23 -74 36 -19 13 -39 24 -44 24 -10 0 -91 53 -157 102 -123 92 -244 211 -304
298 -9 14 -33 45 -52 70 -19 25 -48 70 -65 100 -17 30 -34 62 -39 70 -26 43
-79 170 -85 202 -4 20 -16 58 -27 83 -24 54 -49 242 -50 380 -2 155 19 328 52
428 16 48 29 95 29 105 0 9 11 36 24 59 13 22 31 64 41 92 9 28 21 54 27 57 5
4 16 21 23 38 15 34 72 126 105 166 169 209 375 390 506 445 17 7 34 18 38 23
3 6 29 18 58 28 28 9 65 25 82 35 17 10 54 23 81 29 28 7 82 23 120 35 94 32
274 45 599 45 227 0 262 -2 278 -17 17 -15 18 -38 18 -317 0 -222 -4 -308 -13
-326 l-13 -25 -279 -6 c-320 -7 -368 -12 -447 -45 -32 -13 -66 -24 -76 -24
-10 0 -36 -10 -57 -21 -22 -12 -57 -30 -78 -41 -94 -47 -254 -195 -287 -264
-12 -23 -27 -48 -35 -54 -8 -6 -19 -28 -26 -48 -6 -20 -22 -57 -35 -82 -57
-111 -54 -432 6 -572 17 -40 37 -84 45 -98 8 -14 25 -45 39 -70 13 -26 58 -80
99 -120 92 -93 123 -119 164 -136 17 -8 48 -25 67 -38 19 -13 52 -27 73 -31
20 -4 55 -16 78 -28 37 -20 54 -22 235 -22 188 0 197 1 255 26 33 15 72 29 86
32 53 13 194 105 256 167 44 45 123 146 123 158 0 5 13 29 29 53 17 24 35 66
41 93 6 27 21 76 33 110 l22 61 5 1495 5 1495 23 54 c13 30 28 76 33 103 6 28
24 75 40 105 16 30 29 60 29 67 0 6 14 29 30 50 17 22 30 44 30 49 0 11 53 85
90 126 14 15 44 48 67 73 23 25 75 75 116 110 67 58 91 75 166 118 14 8 46 27
71 42 25 14 59 30 75 34 17 3 44 15 61 25 18 11 72 28 120 39 49 11 112 26
139 34 34 10 103 15 210 15 139 1 174 -2 255 -23z"/>
<path d="M30897 26815 c-85 -9 -155 -22 -181 -33 -23 -11 -66 -25 -96 -32 -30
-7 -75 -23 -100 -36 -25 -13 -65 -33 -90 -44 -127 -57 -238 -136 -355 -254
-102 -102 -180 -197 -211 -258 -9 -18 -23 -40 -30 -48 -7 -9 -20 -36 -29 -60
-9 -24 -22 -51 -30 -60 -8 -8 -21 -41 -29 -73 -8 -31 -25 -85 -38 -119 l-23
-63 0 -1975 0 -1975 37 -55 c46 -71 69 -90 147 -131 58 -29 74 -33 146 -33 72
0 88 4 146 33 85 44 124 83 162 161 l32 65 3 1229 c2 1107 4 1232 18 1247 15
16 48 18 378 21 l361 3 65 32 c80 40 110 70 149 153 45 95 43 161 -6 260 -33
65 -46 81 -99 116 -34 22 -79 44 -100 47 -21 4 -195 7 -386 7 l-348 0 -16 25
c-14 22 -16 63 -12 357 l3 333 42 87 c49 101 90 158 153 211 58 50 150 107
171 107 9 0 38 11 64 25 87 47 387 70 557 44 51 -8 96 -24 157 -57 47 -25 99
-52 114 -60 20 -10 54 -13 120 -10 88 3 94 5 151 43 67 45 140 132 156 185 15
52 12 195 -4 233 -22 51 -104 136 -156 162 -27 14 -51 29 -54 34 -4 5 -23 15
-44 22 -20 7 -53 22 -72 35 -19 12 -58 27 -87 33 -28 6 -69 19 -90 30 -77 40
-424 59 -646 36z"/>
<path d="M38467 26749 c-57 -13 -140 -89 -183 -167 l-36 -67 1 -800 c1 -527
-1 -810 -8 -828 -14 -36 -40 -34 -90 6 -61 49 -101 74 -161 103 -30 14 -62 32
-70 39 -8 7 -33 18 -55 25 -22 7 -60 23 -85 36 -25 13 -54 24 -65 24 -11 0
-51 12 -90 26 -83 30 -387 74 -515 74 -112 0 -444 -44 -495 -66 -22 -9 -65
-23 -96 -30 -31 -7 -78 -25 -104 -39 -26 -14 -55 -25 -65 -25 -9 0 -36 -13
-61 -28 -24 -15 -58 -34 -76 -41 -18 -7 -38 -20 -44 -28 -7 -8 -28 -21 -47
-29 -33 -13 -51 -27 -157 -117 -71 -60 -265 -255 -300 -301 -17 -21 -42 -55
-58 -75 -15 -20 -36 -55 -47 -77 -11 -23 -26 -47 -34 -53 -7 -6 -21 -33 -31
-59 -10 -26 -26 -58 -36 -72 -10 -14 -23 -45 -29 -70 -7 -25 -20 -58 -30 -75
-10 -16 -23 -57 -29 -90 -7 -33 -21 -85 -31 -115 -28 -78 -40 -206 -40 -425 0
-227 10 -327 45 -436 14 -44 25 -90 25 -103 0 -13 11 -44 25 -69 13 -25 29
-65 36 -89 6 -24 19 -54 29 -68 9 -14 27 -45 39 -70 29 -60 118 -201 159 -251
126 -156 289 -313 419 -407 81 -58 204 -131 263 -157 19 -8 55 -26 80 -39 25
-13 67 -29 94 -35 27 -7 65 -20 85 -30 20 -11 72 -24 116 -31 44 -6 103 -18
130 -27 66 -20 348 -29 435 -15 157 27 313 63 350 82 21 11 48 20 58 20 11 0
46 13 78 29 32 17 79 39 104 51 81 37 211 116 285 172 28 21 55 38 62 38 12 0
33 -59 33 -93 0 -10 18 -50 40 -90 67 -123 155 -177 286 -177 97 0 152 17 208
62 57 48 85 78 86 93 0 6 12 28 28 50 l27 40 0 2325 0 2325 -35 69 c-44 86
-128 160 -202 176 -58 12 -168 12 -221 -1z m-1156 -2223 c52 -13 111 -27 133
-31 34 -5 108 -38 186 -80 14 -8 43 -24 65 -36 80 -44 241 -190 308 -279 74
-98 109 -151 119 -184 6 -17 17 -39 25 -48 14 -15 34 -76 79 -233 20 -69 19
-382 0 -450 -49 -168 -61 -203 -82 -235 -13 -19 -24 -39 -24 -45 0 -13 -56
-103 -102 -164 -46 -62 -195 -210 -248 -249 -25 -17 -71 -45 -102 -61 -31 -17
-59 -35 -62 -40 -4 -5 -21 -13 -39 -16 -17 -4 -53 -18 -78 -31 -56 -28 -268
-64 -378 -64 -120 0 -334 36 -389 65 -26 14 -53 25 -61 25 -8 0 -35 12 -60 27
-25 15 -58 34 -73 43 -158 91 -330 264 -407 409 -7 14 -23 42 -36 61 -12 19
-26 49 -29 65 -4 17 -18 53 -32 82 -18 40 -27 87 -40 213 -16 151 -16 172 0
303 10 88 24 155 35 177 10 19 26 59 36 89 10 30 27 69 39 87 11 18 37 59 56
90 103 168 292 339 450 409 19 8 58 26 85 40 28 14 74 30 104 35 30 6 73 15
95 21 130 36 300 38 427 5z"/>
<path d="M40955 25239 c-38 -5 -97 -18 -130 -29 -33 -10 -82 -22 -110 -25 -27
-4 -70 -17 -95 -30 -25 -12 -68 -28 -97 -34 -29 -7 -57 -19 -63 -26 -6 -8 -33
-21 -59 -30 -26 -8 -63 -27 -81 -40 -19 -14 -38 -25 -43 -25 -10 0 -116 -68
-157 -100 -84 -67 -242 -204 -252 -219 -7 -10 -36 -45 -65 -77 -79 -90 -102
-119 -147 -189 -78 -122 -93 -150 -105 -187 -7 -20 -19 -42 -27 -49 -8 -6 -22
-37 -31 -68 -8 -31 -24 -72 -34 -91 -11 -20 -24 -62 -29 -93 -6 -31 -20 -82
-30 -113 -53 -154 -53 -661 0 -812 11 -31 25 -83 31 -116 6 -34 19 -74 29 -91
10 -16 25 -55 34 -86 9 -31 22 -62 30 -68 8 -7 20 -29 27 -49 12 -39 34 -78
112 -195 74 -111 93 -135 165 -215 85 -93 340 -312 363 -312 5 0 32 -15 59
-32 95 -63 118 -76 168 -92 28 -10 56 -23 62 -31 6 -7 34 -19 63 -25 29 -7 75
-23 102 -36 28 -12 73 -26 100 -29 28 -4 100 -18 160 -32 97 -22 132 -25 305
-25 164 0 210 3 290 22 52 11 129 27 171 34 41 8 93 23 115 34 21 11 55 23 74
27 19 4 62 20 95 35 33 16 71 33 85 40 62 29 180 100 253 152 70 49 88 65 186
155 71 66 109 108 224 243 21 25 107 157 107 165 0 3 11 21 24 38 13 18 28 47
34 65 6 18 20 45 31 60 10 15 24 47 31 72 7 25 21 62 31 82 11 21 26 69 34
107 8 38 21 86 29 107 24 62 36 193 36 399 0 210 -12 350 -36 409 -8 21 -21
69 -29 107 -8 38 -23 86 -34 107 -10 20 -24 57 -31 82 -7 24 -20 55 -30 68
-11 13 -24 40 -31 60 -7 20 -23 51 -36 68 -12 17 -23 35 -23 40 0 5 -22 41
-50 79 -27 39 -61 87 -76 109 -30 44 -239 256 -303 306 -24 19 -58 47 -76 63
-18 15 -37 27 -41 27 -5 0 -31 16 -58 35 -27 19 -54 35 -59 35 -6 0 -24 11
-41 24 -17 13 -42 27 -56 31 -14 4 -47 20 -75 35 -27 15 -66 31 -85 35 -19 4
-52 16 -72 26 -21 11 -80 28 -130 39 -51 11 -118 27 -148 36 -66 19 -473 29
-585 13z m542 -713 c40 -14 81 -26 91 -26 11 0 46 -13 78 -30 32 -16 75 -36
94 -45 19 -8 51 -26 70 -40 118 -83 150 -108 190 -147 53 -50 160 -182 160
-197 0 -5 10 -22 23 -38 31 -38 94 -169 106 -218 5 -22 20 -67 32 -100 22 -56
23 -75 24 -270 l0 -210 -33 -105 c-39 -120 -95 -242 -146 -315 -19 -27 -46
-66 -59 -85 -75 -108 -251 -251 -387 -315 -19 -9 -57 -28 -85 -40 -27 -13
-106 -39 -175 -56 -112 -29 -140 -32 -270 -33 -119 0 -157 4 -215 21 -38 12
-97 27 -130 33 -33 7 -74 21 -91 31 -17 10 -49 25 -70 33 -108 38 -330 220
-422 346 -64 88 -82 115 -89 135 -4 11 -21 47 -38 80 -18 33 -35 77 -39 98 -4
21 -16 59 -27 85 -48 111 -48 474 0 582 10 25 23 63 27 85 4 22 21 67 39 100
17 33 34 69 38 80 7 19 18 37 84 129 43 60 192 207 248 244 28 18 66 44 85 58
19 13 44 27 55 31 11 4 44 19 73 34 29 16 69 31 90 35 20 4 61 15 90 26 85 32
137 37 327 34 165 -3 186 -6 252 -30z"/>
<path d="M47090 25234 c-19 -3 -78 -13 -130 -24 -52 -11 -117 -22 -145 -26
-27 -4 -82 -20 -122 -35 -39 -16 -79 -29 -87 -29 -9 0 -42 -13 -73 -30 -31
-16 -61 -30 -68 -30 -7 0 -24 -9 -37 -20 -14 -11 -43 -30 -65 -42 -22 -13 -55
-32 -74 -43 -49 -29 -148 -130 -164 -169 -22 -53 -28 -129 -15 -204 14 -88 68
-164 156 -225 58 -41 60 -41 159 -45 85 -2 105 0 135 17 19 11 51 27 70 36 19
9 44 25 55 34 45 39 156 90 265 121 112 32 120 32 310 32 192 1 197 0 334 -35
76 -20 144 -41 152 -47 7 -7 33 -19 58 -29 90 -34 222 -173 245 -258 21 -73
15 -108 -24 -142 -20 -17 -48 -33 -63 -36 -15 -4 -54 -15 -87 -26 -33 -11 -87
-27 -120 -35 -33 -8 -94 -25 -135 -39 -41 -13 -108 -28 -147 -34 -40 -6 -94
-20 -120 -30 -27 -10 -82 -24 -123 -31 -41 -7 -97 -21 -125 -32 -27 -11 -73
-24 -102 -29 -29 -6 -72 -19 -96 -29 -24 -11 -77 -27 -117 -35 -40 -9 -87 -24
-104 -34 -17 -11 -49 -22 -71 -26 -22 -4 -59 -18 -82 -30 -23 -13 -59 -29 -80
-36 -21 -6 -54 -23 -73 -35 -19 -13 -42 -24 -50 -24 -17 0 -108 -54 -155 -93
-16 -13 -43 -31 -60 -40 -33 -17 -160 -142 -200 -197 -13 -19 -33 -51 -42 -70
-10 -19 -28 -51 -39 -70 -12 -19 -25 -51 -29 -70 -3 -19 -16 -66 -28 -105 -20
-62 -22 -92 -22 -270 0 -180 2 -205 21 -250 12 -27 25 -68 28 -90 4 -22 21
-60 37 -84 16 -25 29 -49 29 -54 0 -5 11 -23 25 -41 85 -104 111 -132 177
-189 75 -63 80 -67 158 -113 25 -15 56 -34 70 -44 14 -9 43 -23 65 -30 22 -7
60 -23 85 -35 25 -13 77 -28 115 -34 39 -6 86 -16 105 -22 19 -6 107 -13 195
-16 132 -4 180 -2 275 15 63 11 138 23 165 27 28 3 73 17 100 30 28 12 66 26
85 30 19 4 51 17 70 30 19 13 52 28 72 35 21 6 40 16 44 21 3 5 31 22 63 38
31 16 63 36 70 45 8 9 18 16 22 16 11 0 102 59 145 94 60 49 104 28 104 -49 0
-20 10 -69 22 -108 30 -99 89 -162 190 -202 96 -37 160 -37 253 -1 71 29 125
71 170 136 44 64 47 138 42 1300 -4 1109 -8 1198 -46 1284 -10 23 -24 66 -31
96 -7 30 -21 67 -32 82 -10 15 -24 42 -30 60 -6 18 -18 41 -27 51 -8 10 -24
33 -36 52 -44 73 -107 146 -179 206 -92 79 -160 129 -174 129 -6 0 -23 11 -39
24 -15 13 -46 29 -68 36 -22 7 -50 21 -63 30 -12 10 -46 24 -75 30 -28 7 -77
23 -107 35 -30 13 -82 26 -115 30 -33 4 -100 16 -150 27 -69 16 -134 21 -275
23 -102 2 -201 1 -220 -1z m994 -1877 c16 -12 17 -32 13 -278 -4 -246 -6 -270
-29 -346 -27 -87 -46 -117 -120 -191 -70 -71 -216 -172 -248 -172 -8 0 -32
-11 -52 -25 -20 -14 -61 -30 -90 -36 -29 -6 -69 -20 -89 -30 -20 -10 -76 -25
-125 -33 -49 -9 -114 -23 -144 -32 -41 -13 -97 -17 -220 -18 -162 -1 -167 0
-266 33 -86 28 -111 42 -158 85 -45 41 -60 64 -81 120 -14 37 -25 80 -25 93 0
45 52 197 79 231 97 123 212 212 371 287 121 58 159 74 190 80 19 4 58 17 85
30 28 12 81 28 119 34 38 7 81 18 96 26 14 7 67 21 115 30 49 10 110 25 136
35 26 10 84 24 129 30 45 6 104 20 129 30 80 31 156 38 185 17z"/>
<path d="M33160 25214 c-41 -8 -120 -21 -175 -29 -55 -9 -110 -22 -122 -30
-12 -9 -52 -22 -87 -30 -36 -9 -80 -24 -98 -34 -18 -10 -51 -24 -73 -31 -22
-7 -51 -21 -65 -30 -14 -10 -45 -26 -70 -37 -25 -11 -51 -27 -59 -36 -7 -10
-19 -17 -25 -17 -10 0 -33 -16 -162 -115 -45 -34 -215 -204 -257 -256 -15 -19
-40 -50 -56 -69 -15 -19 -38 -53 -50 -75 -13 -22 -38 -67 -57 -100 -19 -33
-41 -76 -49 -95 -8 -19 -26 -57 -40 -85 -14 -27 -30 -72 -36 -100 -7 -27 -20
-66 -29 -85 -10 -19 -23 -71 -30 -115 -6 -44 -20 -126 -31 -183 -23 -125 -25
-321 -3 -437 8 -44 19 -116 25 -160 6 -44 20 -107 31 -140 10 -33 26 -87 34
-120 9 -33 24 -74 34 -91 10 -17 25 -56 34 -86 9 -31 22 -61 30 -67 8 -7 22
-34 31 -61 9 -27 23 -54 32 -62 9 -7 24 -31 35 -53 28 -59 52 -94 164 -228 89
-106 187 -199 325 -307 40 -31 110 -73 169 -100 25 -12 52 -27 60 -34 8 -8 33
-19 55 -26 22 -7 63 -23 90 -36 28 -12 68 -26 90 -29 22 -4 70 -15 106 -26
123 -35 174 -40 431 -40 255 0 377 9 473 37 28 7 86 20 131 28 44 7 98 23 120
34 21 11 55 23 74 27 19 4 55 18 80 31 25 13 65 33 90 44 112 51 226 127 363
245 70 60 88 82 122 150 34 69 39 89 39 145 -1 89 -43 180 -115 244 -84 76
-99 81 -224 81 l-110 0 -60 -39 c-33 -22 -103 -77 -156 -123 -53 -46 -101 -83
-106 -83 -5 0 -32 -15 -61 -34 -29 -19 -70 -37 -90 -41 -20 -4 -54 -16 -76
-27 -62 -32 -275 -51 -481 -44 -213 8 -291 19 -351 51 -26 14 -55 25 -64 25
-9 0 -37 13 -61 30 -24 16 -49 30 -54 30 -10 0 -73 45 -154 108 -44 35 -133
128 -147 155 -7 12 -10 27 -7 34 8 22 84 68 133 82 25 7 56 21 70 31 14 10 45
23 70 30 25 6 64 23 87 36 23 13 48 24 55 24 8 0 45 16 84 35 38 19 75 35 82
35 7 0 38 14 69 30 31 17 64 30 73 30 9 0 41 13 71 29 30 15 67 31 83 35 17 4
41 16 55 26 15 10 46 23 71 30 25 6 64 23 87 36 23 13 48 24 55 24 8 0 45 16
84 35 38 19 75 35 83 35 8 0 33 11 55 24 23 13 66 31 97 40 31 9 62 22 68 30
6 7 33 19 59 26 26 7 58 21 72 31 14 9 48 23 75 32 28 8 66 24 85 35 19 11 55
26 80 32 25 7 52 18 60 26 9 7 36 20 60 29 191 67 289 149 328 276 12 41 22
84 22 95 0 30 -49 176 -65 194 -7 8 -26 39 -41 68 -16 29 -39 71 -50 92 -23
42 -90 145 -111 170 -15 19 -54 73 -89 124 -42 62 -303 319 -368 362 -33 21
-78 51 -100 67 -23 15 -66 39 -96 53 -30 14 -62 32 -70 39 -8 7 -35 19 -60 25
-25 7 -62 21 -84 32 -34 17 -84 28 -316 68 -76 13 -210 11 -300 -6z m276 -709
c88 -12 132 -23 178 -45 33 -17 67 -30 74 -30 12 0 73 -38 162 -102 90 -65
203 -197 198 -233 -3 -22 -76 -64 -167 -96 -30 -11 -64 -25 -75 -33 -12 -7
-45 -21 -75 -31 -30 -10 -68 -26 -85 -35 -17 -10 -49 -23 -71 -30 -22 -7 -51
-21 -65 -30 -14 -10 -45 -23 -70 -30 -25 -7 -63 -23 -86 -36 -22 -13 -48 -24
-56 -24 -8 0 -40 -13 -71 -30 -31 -16 -63 -30 -70 -30 -7 0 -44 -16 -83 -35
-38 -19 -75 -35 -82 -35 -7 0 -38 -13 -69 -30 -31 -16 -63 -30 -72 -30 -9 0
-38 -14 -66 -30 -27 -16 -57 -30 -66 -30 -10 0 -41 -13 -71 -28 -30 -16 -67
-32 -84 -36 -16 -4 -49 -17 -74 -30 -25 -13 -63 -29 -85 -36 -22 -7 -51 -21
-65 -30 -55 -38 -81 -34 -99 13 -25 66 -5 289 34 377 48 109 66 146 93 190 15
25 36 60 47 79 11 18 31 46 45 61 14 15 48 56 75 90 28 34 94 99 147 144 136
113 152 125 195 140 21 7 54 23 73 35 23 13 73 26 140 35 140 19 207 19 346 1z"/>
<path d="M43763 25201 c-86 -34 -130 -75 -172 -161 l-31 -65 0 -1571 0 -1571
31 -59 c43 -81 96 -130 182 -166 53 -23 87 -30 132 -30 150 0 314 127 336 261
4 25 8 487 9 1026 0 1044 -2 992 49 1180 70 262 311 472 603 526 106 20 107
20 225 0 65 -12 145 -30 178 -42 76 -27 147 -22 230 17 83 38 128 86 160 170
51 135 21 262 -85 357 -29 26 -58 47 -65 47 -6 0 -34 12 -60 26 -62 32 -110
41 -300 54 -224 16 -423 -4 -595 -61 -68 -22 -129 -44 -135 -49 -7 -5 -32 -17
-56 -25 -24 -9 -61 -27 -81 -41 -45 -32 -65 -27 -104 28 -63 89 -106 125 -182
152 -99 35 -174 35 -269 -3z"/>
</g>
</svg>
