<?xml version="1.0" standalone="no"?>
<!DOCTYPE svg PUBLIC "-//W3C//DTD SVG 20010904//EN"
 "http://www.w3.org/TR/2001/REC-SVG-20010904/DTD/svg10.dtd">
<svg version="1.0" xmlns="http://www.w3.org/2000/svg"
 width="7030.000000pt" height="4687.000000pt" viewBox="0 0 7030.000000 4687.000000"
 preserveAspectRatio="xMidYMid meet">
<metadata>
Created by potrace 1.16, written by Peter Selinger 2001-2019
</metadata>
<g transform="translate(0.000000,4687.000000) scale(0.100000,-0.100000)"
fill="#000000" stroke="none">
<path d="M30287 27840 c-14 -17 -31 -55 -38 -87 -7 -32 -22 -78 -34 -103 -13
-25 -28 -70 -34 -100 -7 -30 -18 -65 -27 -77 -8 -13 -22 -51 -30 -85 -9 -35
-25 -80 -35 -100 -11 -21 -24 -61 -30 -90 -7 -29 -22 -73 -35 -98 -12 -25 -26
-63 -30 -85 -4 -22 -17 -60 -29 -85 -12 -25 -28 -69 -34 -98 -6 -29 -19 -69
-30 -90 -10 -20 -26 -65 -35 -100 -8 -34 -22 -72 -30 -85 -9 -12 -20 -47 -27
-77 -6 -30 -22 -75 -34 -100 -12 -25 -25 -63 -29 -85 -4 -22 -18 -62 -32 -88
-20 -38 -23 -52 -13 -63 18 -21 96 -17 176 10 38 13 98 27 134 31 35 4 97 18
137 31 40 13 96 26 125 30 29 3 99 19 156 35 114 32 163 36 180 16 17 -21 68
-195 76 -262 4 -33 16 -82 26 -110 11 -27 26 -92 34 -143 8 -51 22 -110 30
-130 9 -20 23 -77 31 -127 8 -49 23 -113 34 -140 10 -28 23 -85 30 -128 6 -43
20 -103 30 -133 11 -30 26 -94 34 -142 8 -48 22 -104 30 -123 8 -20 22 -78 30
-130 9 -52 24 -116 35 -144 10 -27 22 -77 26 -110 4 -33 18 -94 31 -135 13
-41 28 -109 35 -150 6 -41 19 -95 29 -120 10 -25 23 -81 30 -124 6 -44 22
-111 35 -150 12 -39 26 -96 30 -126 3 -30 17 -89 30 -130 13 -41 28 -106 34
-145 6 -38 19 -95 30 -125 10 -30 25 -91 31 -135 7 -44 21 -101 31 -128 11
-27 24 -83 30 -125 6 -43 19 -102 30 -132 11 -30 26 -95 35 -144 8 -49 22
-105 30 -125 8 -19 21 -77 30 -128 8 -52 23 -116 34 -142 10 -27 24 -86 30
-131 6 -45 20 -105 31 -132 10 -26 24 -81 30 -121 6 -39 21 -108 34 -152 14
-44 27 -97 30 -117 4 -26 18 -49 48 -78 23 -22 47 -40 53 -40 6 0 31 -16 55
-35 24 -19 49 -35 55 -35 6 0 19 -9 30 -21 10 -12 35 -30 54 -40 37 -21 83
-52 140 -94 19 -15 69 -48 111 -75 42 -27 82 -56 89 -64 7 -9 16 -16 21 -16 8
0 108 -67 194 -129 22 -16 63 -43 90 -60 28 -17 70 -47 95 -66 25 -19 61 -44
80 -55 38 -23 86 -55 140 -95 58 -43 103 -73 140 -94 19 -10 44 -28 54 -40 11
-12 25 -21 32 -21 6 0 31 -16 54 -35 23 -19 46 -35 50 -35 5 0 19 -9 32 -20
12 -11 52 -38 88 -61 36 -23 76 -50 90 -60 14 -10 57 -40 95 -66 39 -26 83
-58 99 -71 17 -13 39 -28 50 -33 12 -5 48 -30 81 -54 33 -24 76 -53 95 -64 19
-10 44 -28 54 -40 11 -12 25 -21 32 -21 7 0 28 -13 46 -29 18 -15 48 -36 66
-45 17 -9 32 -20 32 -25 0 -5 14 -14 31 -21 17 -7 48 -27 69 -44 22 -17 55
-42 75 -56 64 -43 77 -59 66 -78 -12 -21 -103 -92 -239 -184 -18 -13 -47 -34
-64 -48 -17 -14 -46 -34 -64 -45 -41 -26 -128 -86 -179 -124 -65 -49 -145
-105 -166 -117 -11 -6 -30 -20 -42 -31 -12 -10 -33 -27 -47 -36 -56 -39 -127
-89 -165 -118 -39 -29 -111 -79 -184 -128 -20 -13 -38 -28 -39 -33 -2 -5 -20
-18 -40 -29 -21 -11 -62 -38 -92 -60 -30 -22 -72 -51 -92 -64 -45 -30 -58 -63
-32 -82 24 -18 2833 -20 2867 -2 46 24 66 52 78 108 6 31 19 72 29 92 10 19
26 64 35 98 9 35 22 73 30 85 7 11 21 50 30 85 9 36 25 81 34 100 10 20 23 58
30 85 7 27 21 66 32 87 10 21 24 62 30 91 6 29 21 71 32 93 11 22 26 66 33 98
16 68 39 105 70 117 27 11 286 -4 422 -24 133 -19 195 -25 426 -36 110 -6 241
-16 290 -24 87 -14 255 -28 486 -41 58 -4 178 -15 266 -26 89 -10 238 -23 330
-29 235 -13 305 -19 409 -35 50 -8 209 -21 355 -30 146 -8 272 -17 280 -20 35
-10 289 -35 459 -45 100 -6 249 -20 330 -31 155 -21 191 -19 191 9 0 23 -18
48 -82 115 -29 30 -123 127 -208 217 -85 89 -209 219 -275 288 -120 125 -292
304 -461 482 -49 52 -153 163 -230 245 -77 83 -165 175 -195 206 -30 31 -124
129 -209 219 -85 89 -195 204 -245 255 -160 166 -381 399 -413 436 -51 59 -43
81 57 154 23 17 60 45 82 63 23 17 45 32 49 32 4 0 26 15 49 33 43 34 88 68
161 121 97 70 165 122 182 139 10 9 22 17 27 17 5 0 27 15 50 33 22 17 59 46
81 62 22 17 58 44 80 60 21 17 56 42 77 57 63 45 168 122 183 135 8 7 40 31
70 52 62 45 113 82 169 126 21 17 52 38 67 47 16 10 45 30 65 45 224 172 319
243 358 270 74 53 113 81 161 118 25 19 69 52 99 72 68 47 104 74 161 118 25
19 63 47 85 61 22 15 66 48 97 73 62 50 102 80 188 141 55 38 94 67 170 125
22 17 63 46 91 65 28 19 64 47 80 63 17 15 34 27 38 27 5 0 27 15 50 33 22 17
59 46 81 62 22 17 58 44 80 60 57 43 106 79 180 133 36 26 72 53 80 59 8 7 40
31 70 52 55 40 97 70 170 126 22 17 63 46 91 65 28 19 71 52 96 73 24 20 47
37 51 37 13 0 82 71 82 85 0 19 -24 26 -128 36 -51 5 -141 17 -200 28 -59 11
-165 25 -236 31 -70 6 -169 20 -220 30 -50 11 -151 24 -224 30 -73 6 -175 19
-227 30 -52 11 -152 24 -222 30 -85 7 -132 15 -142 24 -18 19 -9 31 148 201
116 125 150 163 246 270 49 55 102 112 117 127 65 61 47 65 -332 72 -184 4
-576 11 -870 16 -294 6 -677 15 -850 20 -173 5 -830 14 -1460 20 -630 6 -1332
15 -1560 20 -1028 24 -1267 31 -1295 41 -28 9 -45 30 -111 135 -11 19 -30 44
-42 57 -12 13 -22 28 -22 34 0 5 -9 18 -21 29 -12 10 -28 32 -36 49 -9 16 -29
46 -44 65 -16 19 -29 40 -29 46 0 6 -7 17 -15 24 -9 7 -41 51 -71 98 -31 46
-65 93 -75 103 -10 10 -19 23 -19 28 0 4 -16 28 -35 52 -19 24 -35 49 -35 55
0 6 -8 18 -18 27 -10 9 -38 49 -63 88 -24 39 -57 88 -74 109 -16 21 -40 54
-53 72 -12 18 -39 56 -60 85 -20 29 -45 65 -54 80 -10 15 -45 66 -78 113 -60
84 -112 159 -160 230 -14 21 -38 56 -55 80 -16 23 -46 66 -65 94 -19 29 -44
66 -54 82 -11 16 -35 46 -55 67 l-35 37 -1552 0 -1552 0 -25 -30z"/>
</g>
</svg>
