<?xml version="1.0" encoding="UTF-8" standalone="no"?>
<svg
   version="1.0"
   width="7030.000000pt"
   height="4687.000000pt"
   viewBox="0 0 7030.000000 4687.000000"
   preserveAspectRatio="xMidYMid meet"
   id="svg170"
   sodipodi:docname="feren_text.svg"
   inkscape:version="1.2.2 (b0a8486541, 2022-12-01)"
   xmlns:inkscape="http://www.inkscape.org/namespaces/inkscape"
   xmlns:sodipodi="http://sodipodi.sourceforge.net/DTD/sodipodi-0.dtd"
   xmlns:xlink="http://www.w3.org/1999/xlink"
   xmlns="http://www.w3.org/2000/svg"
   xmlns:svg="http://www.w3.org/2000/svg">
  <defs
     id="defs174">
    <linearGradient
       inkscape:collect="always"
       xlink:href="#linearGradient17433"
       id="linearGradient17435"
       x1="4353.8413"
       y1="1800.7311"
       x2="4341.02"
       y2="-340.48657"
       gradientUnits="userSpaceOnUse"
       gradientTransform="matrix(0.24576658,0,0,0.20384133,748.95223,-160.44558)" />
    <linearGradient
       inkscape:collect="always"
       id="linearGradient17433">
      <stop
         style="stop-color:#008bf7;stop-opacity:1"
         offset="0"
         id="stop17429" />
      <stop
         style="stop-color:#008bf7;stop-opacity:1"
         offset="1"
         id="stop17431" />
    </linearGradient>
    <linearGradient
       gradientTransform="matrix(0.24576658,0,0,0.24674681,748.1284,-237.15677)"
       inkscape:collect="always"
       xlink:href="#linearGradient5126"
       id="linearGradient17435-3"
       x1="3395.8594"
       y1="1534.8274"
       x2="3364.8254"
       y2="1389.7089"
       gradientUnits="userSpaceOnUse" />
    <linearGradient
       inkscape:collect="always"
       id="linearGradient5126">
      <stop
         style="stop-color:#000000;stop-opacity:0.07843138"
         offset="0"
         id="stop5122" />
      <stop
         style="stop-color:#000000;stop-opacity:0"
         offset="1"
         id="stop5124" />
    </linearGradient>
    <linearGradient
       inkscape:collect="always"
       xlink:href="#linearGradient17417"
       id="linearGradient17419"
       x1="3712.7583"
       y1="4602.2646"
       x2="3725.5801"
       y2="1672.5146"
       gradientUnits="userSpaceOnUse"
       gradientTransform="matrix(0.24576658,0,0,0.24674682,351.90907,-208.68337)" />
    <linearGradient
       inkscape:collect="always"
       id="linearGradient17417">
      <stop
         style="stop-color:#208af6;stop-opacity:1"
         offset="0"
         id="stop17413" />
      <stop
         style="stop-color:#1c89f4;stop-opacity:1"
         offset="1"
         id="stop17415" />
    </linearGradient>
    <linearGradient
       inkscape:collect="always"
       xlink:href="#linearGradient17425"
       id="linearGradient17427"
       x1="3725.5801"
       y1="3820.1428"
       x2="3687.115"
       y2="1294.2754"
       gradientUnits="userSpaceOnUse"
       gradientTransform="matrix(0.24576658,0,0,0.24674682,351.08509,-208.68337)" />
    <linearGradient
       inkscape:collect="always"
       id="linearGradient17425">
      <stop
         style="stop-color:#0086ed;stop-opacity:1"
         offset="0"
         id="stop17421" />
      <stop
         style="stop-color:#0086ed;stop-opacity:1"
         offset="1"
         id="stop17423" />
    </linearGradient>
    <linearGradient
       inkscape:collect="always"
       xlink:href="#linearGradient17488"
       id="linearGradient17458"
       x1="1664.6449"
       y1="3954.7705"
       x2="1536.4282"
       y2="3932.3328"
       gradientUnits="userSpaceOnUse"
       gradientTransform="matrix(0.24576658,0,0,0.24674682,725.64226,-191.01008)" />
    <linearGradient
       id="linearGradient17488"
       inkscape:collect="always">
      <stop
         id="stop17484"
         offset="0"
         style="stop-color:#000000;stop-opacity:0.12254902" />
      <stop
         id="stop17486"
         offset="1"
         style="stop-color:#000000;stop-opacity:0" />
    </linearGradient>
    <linearGradient
       inkscape:collect="always"
       xlink:href="#linearGradient5126"
       id="linearGradient17419-2"
       x1="4552.5771"
       y1="2938.6541"
       x2="4462.8257"
       y2="2999.5566"
       gradientUnits="userSpaceOnUse"
       gradientTransform="matrix(0.24576658,0,0,0.24674682,351.90905,-208.68339)" />
    <linearGradient
       inkscape:collect="always"
       xlink:href="#linearGradient5126"
       id="linearGradient17521"
       x1="4730.3306"
       y1="1641.3304"
       x2="4768.7744"
       y2="1593.2493"
       gradientUnits="userSpaceOnUse"
       gradientTransform="matrix(0.24576658,0,0,0.24674682,748.95223,-237.15671)" />
    <linearGradient
       inkscape:collect="always"
       xlink:href="#linearGradient5126"
       id="linearGradient17531"
       x1="4328.1982"
       y1="1339.1514"
       x2="4417.9497"
       y2="1323.1244"
       gradientUnits="userSpaceOnUse"
       gradientTransform="matrix(0.24576658,0,0,0.24674682,748.95223,-237.78231)" />
    <linearGradient
       inkscape:collect="always"
       xlink:href="#linearGradient5126"
       id="linearGradient5010"
       x1="5709.9092"
       y1="3656.1304"
       x2="5721.6445"
       y2="3747.1934"
       gradientUnits="userSpaceOnUse"
       gradientTransform="matrix(0.24576658,0,0,0.24674682,748.95223,-237.15671)" />
    <linearGradient
       inkscape:collect="always"
       xlink:href="#linearGradient5126"
       id="linearGradient5057"
       x1="3550.0103"
       y1="166.40623"
       x2="3457.928"
       y2="68.058289"
       gradientUnits="userSpaceOnUse"
       gradientTransform="matrix(0.24576658,0,0,0.24674682,751.30149,-76.224404)" />
  </defs>
  <sodipodi:namedview
     id="namedview172"
     pagecolor="#ffffff"
     bordercolor="#666666"
     borderopacity="1.0"
     inkscape:showpageshadow="2"
     inkscape:pageopacity="0.0"
     inkscape:pagecheckerboard="0"
     inkscape:deskcolor="#d1d1d1"
     inkscape:document-units="pt"
     showgrid="false"
     inkscape:zoom="0.09859764"
     inkscape:cx="3808.4076"
     inkscape:cy="3103.5226"
     inkscape:window-width="1908"
     inkscape:window-height="999"
     inkscape:window-x="3840"
     inkscape:window-y="0"
     inkscape:window-maximized="1"
     inkscape:current-layer="svg170" />
  <metadata
     id="metadata150">
Created by potrace 1.16, written by Peter Selinger 2001-2019
</metadata>
  <g
     id="g12"
     transform="matrix(0.44740815,0,0,-0.44740815,1653.024,2362.9127)">
    <g
       id="g5082"
       transform="matrix(1.0777778,0,0,1.0425545,-352.43503,-298.89868)">
      <g
         id="g5143"
         transform="translate(-12.024268)">
        <g
           id="g4189"
           transform="translate(155.27053,-80.465704)">
          <path
             sodipodi:nodetypes="cccccc"
             inkscape:connector-curvature="0"
             id="path17401"
             d="m 1267.5321,204.00429 522.1756,-217.282713 509.3983,-45.627264 c -288.7318,313.701577 0,0 -288.7318,313.701577 L 1812.6782,93.274742 Z"
             style="fill:#0077d8;fill-opacity:1;fill-rule:evenodd;stroke:none;stroke-width:0.412805px;stroke-linecap:butt;stroke-linejoin:miter;stroke-opacity:1" />
          <path
             sodipodi:nodetypes="cccccc"
             inkscape:connector-curvature="0"
             id="path17403"
             d="m 1267.5321,204.00424 315.6345,-222.724729 165.6876,-135.190471 46.4932,138.203115 21.2262,127.661395 z"
             style="fill:url(#linearGradient17435);fill-opacity:1;fill-rule:evenodd;stroke:none;stroke-width:0.375202px;stroke-linecap:butt;stroke-linejoin:miter;stroke-opacity:1" />
          <path
             sodipodi:nodetypes="ccccc"
             inkscape:connector-curvature="0"
             id="path17403-5"
             d="m 1266.7084,204.00419 270.9975,-322.69783 211.1483,-35.21732 63.8245,246.559941 z"
             style="fill:url(#linearGradient17435-3);fill-opacity:1;fill-rule:evenodd;stroke:none;stroke-width:0.412805px;stroke-linecap:butt;stroke-linejoin:miter;stroke-opacity:1" />
          <path
             sodipodi:nodetypes="ccc"
             inkscape:connector-curvature="0"
             id="path17405"
             d="m 1399.0781,-153.91096 184.0885,135.190471 165.6876,-135.190471"
             style="fill:#007ddf;fill-opacity:1;fill-rule:evenodd;stroke:none;stroke-width:0.412805px;stroke-linecap:butt;stroke-linejoin:miter;stroke-opacity:1" />
          <path
             sodipodi:nodetypes="cccccc"
             inkscape:connector-curvature="0"
             id="path17395"
             d="m 1462.156,971.27728 -365.2135,0.19819 37.8137,-186.65852 132.7759,-580.81266 352.9273,531.50234 z"
             style="fill:url(#linearGradient17419);fill-opacity:1;fill-rule:evenodd;stroke:none;stroke-width:0.412805px;stroke-linecap:butt;stroke-linejoin:miter;stroke-opacity:1" />
          <path
             inkscape:connector-curvature="0"
             id="path17397"
             d="m 1096.9425,971.47547 -71.097,-212.43114 108.9107,25.77262 z"
             style="fill:#208af6;fill-opacity:1;fill-rule:evenodd;stroke:none;stroke-width:0.412805px;stroke-linecap:butt;stroke-linejoin:miter;stroke-opacity:1"
             sodipodi:nodetypes="cccc" />
          <path
             inkscape:connector-curvature="0"
             id="path17399"
             d="M 1620.4595,735.50663 1812.6786,93.274632 1267.5321,204.00424 1620.4595,735.50663"
             style="fill:#333333;fill-rule:evenodd;stroke:none;stroke-width:0.412805px;stroke-linecap:butt;stroke-linejoin:miter;stroke-opacity:1" />
          <path
             inkscape:connector-curvature="0"
             id="path17409"
             d="M 1812.6787,93.274583 2370.4298,722.8518 1620.4595,735.50663 1267.5321,204.00419 Z"
             style="fill:#007fe2;fill-opacity:1;fill-rule:evenodd;stroke:none;stroke-width:0.412805px;stroke-linecap:butt;stroke-linejoin:miter;stroke-opacity:1" />
          <path
             inkscape:connector-curvature="0"
             id="path17407"
             d="M 1266.7081,204.00424 1811.8548,93.274583 2495.6513,615.28583 1619.6355,735.50663 1266.7081,204.00424"
             style="fill:url(#linearGradient17427);fill-opacity:1;fill-rule:evenodd;stroke:none;stroke-width:0.412805px;stroke-linecap:butt;stroke-linejoin:miter;stroke-opacity:1" />
          <path
             inkscape:connector-curvature="0"
             id="path17397-0"
             d="m 1096.9425,971.47547 -71.097,-212.43114 108.9107,25.77262 z"
             style="fill:url(#linearGradient17458);fill-opacity:1;fill-rule:evenodd;stroke:none;stroke-width:0.412805px;stroke-linecap:butt;stroke-linejoin:miter;stroke-opacity:1"
             sodipodi:nodetypes="cccc" />
          <path
             sodipodi:nodetypes="ccccc"
             inkscape:connector-curvature="0"
             id="path17395-5"
             d="m 1529.0765,928.49259 -409.6478,-3.16371 148.1034,-721.32459 352.9273,531.50234 z"
             style="fill:url(#linearGradient17419-2);fill-opacity:1;fill-rule:evenodd;stroke:none;stroke-width:0.412805px;stroke-linecap:butt;stroke-linejoin:miter;stroke-opacity:1" />
          <path
             sodipodi:nodetypes="ccccc"
             inkscape:connector-curvature="0"
             id="path17513"
             d="m 1811.8548,93.274533 39.1468,-33.752669 203.8794,128.631926 -40.0497,59.93085 z"
             style="fill:url(#linearGradient17521);fill-opacity:1;fill-rule:evenodd;stroke:none;stroke-width:0.412805px;stroke-linecap:butt;stroke-linejoin:miter;stroke-opacity:1" />
          <path
             sodipodi:nodetypes="ccccc"
             inkscape:connector-curvature="0"
             id="path17523"
             d="m 1812.6787,92.648981 -17.3313,-108.356826 30.7236,-14.236672 24.9306,88.840779 z"
             style="fill:url(#linearGradient17531);fill-opacity:1;fill-rule:evenodd;stroke:none;stroke-width:0.412805px;stroke-linecap:butt;stroke-linejoin:miter;stroke-opacity:1" />
          <path
             inkscape:connector-curvature="0"
             id="path5002"
             d="m 1619.6355,735.50663 750.7943,-12.65486 -71.8321,-79.84789 z"
             style="fill:url(#linearGradient5010);fill-opacity:1;fill-rule:evenodd;stroke:none;stroke-width:0.412805px;stroke-linecap:butt;stroke-linejoin:miter;stroke-opacity:1" />
          <path
             sodipodi:nodetypes="ccc"
             inkscape:connector-curvature="0"
             id="path17405-3"
             d="m 1399.0781,-153.91096 184.0885,135.190466 165.6876,-135.190466"
             style="fill:url(#linearGradient5057);fill-opacity:1;fill-rule:evenodd;stroke:none;stroke-width:0.412805px;stroke-linecap:butt;stroke-linejoin:miter;stroke-opacity:1" />
        </g>
        <g
           id="g4165"
           transform="matrix(18.829667,0,0,18.829667,-48871.726,-14184.72)">
          <g
             aria-label="feren"
             transform="scale(0.98352355,-1.0167525)"
             id="text4149"
             style="font-size:63.2562px;font-family:'lato light';-inkscape-font-specification:'lato light, ';letter-spacing:0px;word-spacing:0px;fill:#006aff;stroke:#006aff;stroke-width:1.58141">
            <g
               id="path230">
              <path
                 style="color:#000000;-inkscape-font-specification:'lato Light';stroke:none;-inkscape-stroke:none"
                 d="m 2798.2378,-735.74738 v -28.18063 l -4.4279,-0.28465 q -0.9172,-0.0633 -0.9172,-0.79071 v -1.23349 h 5.3451 v -3.98514 q 0,-2.68839 0.6959,-4.71259 0.6958,-2.05583 1.9609,-3.41584 1.2651,-1.36 3.0363,-2.02419 1.8028,-0.69582 3.9535,-0.69582 0.9805,0 1.961,0.18977 1.0121,0.15814 1.7711,0.47442 l -0.095,1.45489 q -0.032,0.44279 -0.6009,0.44279 -0.3795,0 -1.0437,-0.0949 -0.6326,-0.0949 -1.5814,-0.0949 -1.5498,0 -2.8782,0.47442 -1.2967,0.44279 -2.2456,1.45489 -0.9488,1.0121 -1.4865,2.65676 -0.506,1.61303 -0.506,3.98514 v 3.89026 h 10.2158 v 2.24559 h -10.1526 v 28.24389 z"
                 id="path243" />
              <path
                 style="color:#000000;-inkscape-font-specification:'lato Light';stroke:none;-inkscape-stroke:none"
                 d="m 2807.8848,-781.86133 c -1.5191,0 -2.9379,0.24809 -4.2383,0.75 -1.2862,0.48344 -2.4067,1.23 -3.3301,2.22266 -0.9295,0.99922 -1.6373,2.24293 -2.1309,3.70117 -0.4981,1.45044 -0.7382,3.10579 -0.7382,4.96484 v 3.19532 h -5.3457 v 2.02343 c 0,0.40864 0.1694,0.87178 0.5039,1.16016 0.3345,0.28838 0.7409,0.39166 1.1504,0.41992 v 0 l 3.6895,0.23828 v 28.22852 h 0.791 3.7949 v -28.24414 h 10.1523 v -3.82617 h -10.2148 v -3.09961 c 0,-1.52196 0.1638,-2.77136 0.4668,-3.74024 3e-4,-9.9e-4 0,-9.6e-4 0,-0.002 0.3305,-1.00995 0.7717,-1.78674 1.3085,-2.35938 0.5491,-0.5856 1.1779,-0.99333 1.9239,-1.24804 h 0.01 l 0.01,-0.002 c 0.7939,-0.28352 1.6588,-0.42968 2.6113,-0.42968 0.6062,0 1.1005,0.0313 1.4649,0.0859 v 0.002 0 c 0.4637,0.0662 0.8354,0.10156 1.1543,0.10156 0.2922,0 0.6123,-0.0485 0.9043,-0.26367 0.292,-0.21519 0.4635,-0.59652 0.4863,-0.91211 v -0.002 l 0.1309,-2.02149 -0.5215,-0.21875 c -0.5728,-0.23871 -1.2189,-0.40827 -1.9355,-0.52148 -0.6981,-0.13435 -1.3989,-0.20313 -2.0996,-0.20313 z m 0,1.58203 c 0.6026,0 1.2051,0.0586 1.8105,0.17578 l 0.014,0.002 0.014,0.002 c 0.4177,0.0653 0.7299,0.17921 1.0625,0.2832 l -0.031,0.50196 c -0.1925,-0.008 -0.4189,-0.0227 -0.7656,-0.0723 l 0.01,0.002 c -0.479,-0.0719 -1.0403,-0.10351 -1.6992,-0.10351 -1.1111,0 -2.1615,0.17031 -3.1367,0.51758 -0.9813,0.33583 -1.8473,0.89737 -2.5625,1.66015 -0.7277,0.77627 -1.2758,1.77166 -1.6621,2.95313 v 0.004 0.004 c -0.3704,1.18097 -0.5429,2.58503 -0.5429,4.22266 v 4.68164 h 10.2148 v 0.66406 h -10.1523 v 28.24219 l -1.4219,0.002 v -28.13281 l -5.1641,-0.33203 v 0 c -0.1546,-0.0119 -0.1728,-0.0308 -0.1777,-0.0312 v -0.41211 h 5.3457 v -4.77735 c 0,-1.72403 0.2234,-3.20739 0.6523,-4.45507 v -0.002 -0.002 c 0.4342,-1.28286 1.0317,-2.31673 1.7891,-3.13086 0.7617,-0.81893 1.6637,-1.42004 2.7363,-1.82227 v 0 -0.002 c 1.1034,-0.42585 2.3214,-0.64258 3.67,-0.64258 z"
                 id="path245" />
            </g>
            <g
               id="path232">
              <path
                 style="color:#000000;-inkscape-font-specification:'lato Light';stroke:none;-inkscape-stroke:none"
                 d="m 2829.2967,-767.72338 q 2.6567,0 4.9023,0.91721 2.2772,0.91722 3.9219,2.68839 1.6763,1.73954 2.5935,4.30142 0.9489,2.56188 0.9489,5.88283 0,0.69582 -0.2214,0.94884 -0.1898,0.25303 -0.6326,0.25303 h -22.7406 v 0.60093 q 0,3.54235 0.8223,6.23073 0.8224,2.68839 2.3405,4.52282 1.5181,1.8028 3.6689,2.72002 2.1507,0.91721 4.8074,0.91721 2.3721,0 4.1117,-0.50605 1.7395,-0.53767 2.9098,-1.17024 1.2018,-0.66419 1.8977,-1.17023 0.6958,-0.53768 1.0121,-0.53768 0.4111,0 0.6325,0.31628 l 0.8223,1.0121 q -0.759,0.94884 -2.0242,1.77117 -1.2334,0.82233 -2.7832,1.42327 -1.5182,0.5693 -3.2893,0.91721 -1.7396,0.34791 -3.5108,0.34791 -3.226,0 -5.8828,-1.10698 -2.6568,-1.13862 -4.5544,-3.28933 -1.8977,-2.15071 -2.9415,-5.25026 -1.0121,-3.13118 -1.0121,-7.14795 0,-3.38421 0.9489,-6.23074 0.9805,-2.87815 2.7833,-4.93398 1.8344,-2.08745 4.4595,-3.25769 2.6568,-1.17024 6.0094,-1.17024 z m 0.032,2.24559 q -2.4354,0 -4.3647,0.75908 -1.9293,0.75907 -3.3526,2.18233 -1.3916,1.42327 -2.2772,3.41584 -0.8539,1.99257 -1.1386,4.45956 h 20.748 q 0,-2.53025 -0.6958,-4.52282 -0.6958,-2.0242 -1.9609,-3.41583 -1.2651,-1.39164 -3.0363,-2.11908 -1.7712,-0.75908 -3.9219,-0.75908 z"
                 id="path249" />
              <path
                 style="color:#000000;-inkscape-font-specification:'lato Light';stroke:none;-inkscape-stroke:none"
                 d="m 2829.2969,-768.51367 c -2.3271,0 -4.4447,0.40671 -6.3281,1.23633 v 0.002 0 c -1.8472,0.82346 -3.4324,1.97995 -4.7304,3.45703 v 0.002 0 c -1.2756,1.45466 -2.2527,3.19483 -2.9355,5.19922 v 0.004 0.002 c -0.6623,1.98687 -0.9902,4.15043 -0.9902,6.48047 0,2.74426 0.3456,5.20902 1.0508,7.39063 v 0.006 0.004 c 0.7245,2.1513 1.7574,4.00031 3.0996,5.52149 1.3404,1.51917 2.9617,2.68895 4.836,3.49218 v 0.002 0.002 c 1.8761,0.78168 3.9464,1.16797 6.1875,1.16797 1.2319,0 2.4544,-0.12148 3.6641,-0.36328 1.2188,-0.23943 2.3569,-0.5567 3.4141,-0.95313 v -0.002 0 c 1.0797,-0.41868 2.0586,-0.91885 2.9336,-1.50195 0.8965,-0.58347 1.6361,-1.22629 2.205,-1.9375 l 0.3985,-0.4961 -1.1895,-1.46289 c -0.2794,-0.39921 -0.8044,-0.65234 -1.2812,-0.65234 -0.6589,0 -0.9864,0.30727 -1.4961,0.70117 l 0.019,-0.0137 c -0.4205,0.30579 -1.029,0.6841 -1.8086,1.11523 -0.7164,0.38722 -1.6403,0.75894 -2.7597,1.10547 -1.0663,0.30955 -2.3639,0.47461 -3.8868,0.47461 -1.6801,0 -3.1703,-0.28813 -4.4961,-0.85352 -1.3228,-0.56411 -2.4373,-1.38942 -3.373,-2.5 -6e-4,-7.2e-4 0,-10e-4 0,-0.002 -0.9338,-1.12997 -1.667,-2.53642 -2.1894,-4.24414 -0.5034,-1.64568 -0.7454,-3.60122 -0.7617,-5.81055 h 21.9238 c 0.4362,0 0.9324,-0.17056 1.2383,-0.55664 0.36,-0.431 0.4062,-0.90022 0.4062,-1.43554 0,-2.28783 -0.3276,-4.34286 -0.998,-6.1543 -4e-4,-10e-4 4e-4,-0.003 0,-0.004 -0.6437,-1.79396 -1.5658,-3.32912 -2.7656,-4.57422 -1.1719,-1.2587 -2.5796,-2.22226 -4.1954,-2.87304 -1.5971,-0.65181 -3.3364,-0.97461 -5.1972,-0.97461 z m 0,1.58008 c 1.6801,0 3.2075,0.28917 4.6035,0.85937 v 0 0.002 c 1.4157,0.57023 2.6178,1.39488 3.6367,2.49219 l 0.01,0.006 v 0.006 c 1.0329,1.07192 1.8408,2.40011 2.4199,4.01758 v 0.006 0.004 c 0.5939,1.60357 0.9003,3.46877 0.9003,5.60743 0,0.38001 -0.1143,0.52938 -0.025,0.42773 l -0.02,0.0234 -0.02,0.0234 c 0.051,-0.0674 0.1446,-0.0625 0,-0.0625 h -23.5313 v 1.39062 c 0,2.42275 0.2809,4.57775 0.8575,6.46289 0.5733,1.8743 1.3999,3.47984 2.4882,4.79492 v 0.002 0.004 c 1.088,1.29206 2.4188,2.27903 3.9628,2.9375 1.5419,0.65756 3.2551,0.98047 5.1172,0.98047 1.6377,0 3.0817,-0.17282 4.334,-0.53711 l 0.01,-0.002 0.01,-0.002 c 1.1955,-0.36951 2.2108,-0.7754 3.0528,-1.23047 v -0.002 -0.002 c 0.8191,-0.45266 1.4745,-0.85474 1.9805,-1.22266 l 0.01,-0.006 0.01,-0.008 c 0.418,-0.323 0.7645,-0.37304 0.5274,-0.37304 v 0.002 l 0.3672,0.45117 c -0.393,0.40545 -0.7824,0.81201 -1.3691,1.19336 v 0.002 0.004 c -0.7691,0.51274 -1.6451,0.96151 -2.6309,1.34375 -0.9645,0.36105 -2.0153,0.65321 -3.1543,0.87695 v 0.002 0 c -1.1091,0.22181 -2.2264,0.33203 -3.3555,0.33203 -2.0595,0 -3.9103,-0.35306 -5.5761,-1.04688 v 0 c -1.6646,-0.71476 -3.0778,-1.7358 -4.2656,-3.08203 -1.1881,-1.34643 -2.1179,-2.99708 -2.7852,-4.97851 -0.6427,-1.99162 -0.9707,-4.28824 -0.9707,-6.89649 0,-2.18224 0.3054,-4.17197 0.9082,-5.98047 0.6244,-1.83125 1.4997,-3.37667 2.627,-4.66211 1.1478,-1.30618 2.5345,-2.31978 4.1875,-3.05664 1.6581,-0.72973 3.5458,-1.10351 5.6875,-1.10351 z m 0.031,0.66601 c -1.7057,0 -3.2626,0.26495 -4.6543,0.8125 -1.3812,0.54344 -2.5956,1.33392 -3.6211,2.35938 v 0.004 0.002 c -0.9981,1.02078 -1.8111,2.24344 -2.4356,3.64843 v 0.004 0.006 c -0.6032,1.40773 -0.9999,2.96968 -1.1972,4.67969 l -0.1016,0.88086 h 22.4258 v -0.78907 c 0,-1.75931 -0.2421,-3.35843 -0.7403,-4.78515 -0.4935,-1.43423 -1.2007,-2.67103 -2.123,-3.68555 -0.9198,-1.01184 -2.0346,-1.78929 -3.3164,-2.31641 -1.2854,-0.54962 -2.7026,-0.82031 -4.2266,-0.82031 z m 0,1.58008 c 1.3408,0 2.5371,0.23491 3.6114,0.69531 l 0.01,0.002 0.01,0.004 c 1.0781,0.44278 1.984,1.07538 2.75,1.91797 0.7635,0.83995 1.3647,1.8778 1.7988,3.14063 v 0.002 0.002 c 0.3498,1.00181 0.4625,2.217 0.5293,3.47266 h -18.8262 c 0.2031,-1.19358 0.4306,-2.36354 0.8535,-3.35156 0.5553,-1.24814 1.2604,-2.30256 2.1152,-3.17774 0.8714,-0.87033 1.8907,-1.53398 3.0801,-2.00195 1.1807,-0.46455 2.5328,-0.70508 4.0742,-0.70508 z"
                 id="path251" />
            </g>
            <g
               id="path234">
              <path
                 style="color:#000000;-inkscape-font-specification:'lato Light';stroke:none;-inkscape-stroke:none"
                 d="m 2849.76,-735.74738 v -31.46995 h 1.5814 q 0.5377,0 0.7591,0.22139 0.253,0.2214 0.2847,0.75908 l 0.253,6.6419 q 1.5181,-3.827 4.0484,-5.97771 2.5302,-2.18234 6.2307,-2.18234 1.4233,0 2.6251,0.31628 1.2019,0.28465 2.2773,0.85396 l -0.4112,2.08745 q -0.095,0.50605 -0.6326,0.50605 -0.1897,0 -0.5376,-0.12651 -0.3479,-0.12651 -0.8856,-0.28465 -0.5061,-0.15814 -1.2651,-0.28466 -0.7591,-0.12651 -1.7396,-0.12651 -3.574,0 -5.8828,2.21397 -2.2772,2.21397 -3.7005,6.38887 v 20.46338 z"
                 id="path255" />
              <path
                 style="color:#000000;-inkscape-font-specification:'lato Light';stroke:none;-inkscape-stroke:none"
                 d="m 2862.918,-768.54492 c -2.6225,0 -4.9169,0.79363 -6.7481,2.37305 -1.1149,0.94846 -2.0314,2.19249 -2.8554,3.57226 l -0.1387,-3.67578 v -0.008 c -0.027,-0.46551 -0.165,-0.93707 -0.541,-1.28125 -0.3703,-0.35418 -0.8337,-0.44336 -1.291,-0.44336 h -2.373 v 33.05078 h 0.791 3.7949 v -21.08984 c 0.915,-2.64685 2.0777,-4.63991 3.457,-5.98243 v -0.002 c 6e-4,-5.8e-4 0,-0.001 0,-0.002 1.3914,-1.33232 3.1148,-1.99024 5.3321,-1.99024 0.6196,0 1.1577,0.0419 1.6093,0.11719 0.4814,0.0802 0.8729,0.16804 1.1602,0.25781 l 0.01,0.002 0.01,0.002 c 0.348,0.10235 0.6314,0.19374 0.8399,0.26953 0.2753,0.10011 0.5044,0.17383 0.8066,0.17383 0.3032,0 0.6458,-0.078 0.9219,-0.29883 0.2756,-0.22046 0.4314,-0.54844 0.4882,-0.84961 l 0.5235,-2.6582 -0.5195,-0.27539 c -0.7721,-0.40872 -1.5917,-0.71509 -2.4512,-0.91992 -0.874,-0.22946 -1.815,-0.3418 -2.8203,-0.3418 z m 0,1.58008 c 0.8903,0 1.6969,0.0997 2.4238,0.29101 l 0.01,0.002 0.01,0.002 c 0.5495,0.13015 1.0525,0.35786 1.5566,0.58398 l -0.25,1.27149 c -0.045,-0.01 -0.047,-0.006 -0.1582,-0.0469 -0.2522,-0.0917 -0.5571,-0.18803 -0.9199,-0.29492 -0.3875,-0.12108 -0.8405,-0.2221 -1.3711,-0.31055 -0.5605,-0.0934 -1.1815,-0.13672 -1.8691,-0.13672 -2.546,0 -4.7434,0.81655 -6.4297,2.4336 v 0.002 0.002 c -0.6216,0.60428 -1.1458,1.39106 -1.668,2.18165 0.8395,-1.60177 1.7886,-2.99654 2.9531,-3.98633 v -0.002 -0.002 c 1.5425,-1.33037 3.4033,-1.99023 5.7149,-1.99023 z m -11.377,0.52734 0.019,0.0195 0.02,0.0176 c -0.058,-0.0505 0,-0.0305 0.016,0.21094 l 0.252,6.625 1.4355,0.24609 c -0.4516,0.89349 -0.9036,1.78408 -1.2676,2.85156 l -0.041,0.125 v 19.80469 h -1.4238 v -29.88867 h 0.791 c 0.2499,0 0.2779,0.067 0.1992,-0.0117 z"
                 id="path257" />
            </g>
            <g
               id="path236">
              <path
                 style="color:#000000;-inkscape-font-specification:'lato Light';stroke:none;-inkscape-stroke:none"
                 d="m 2886.7332,-767.72338 q 2.6568,0 4.9024,0.91721 2.2772,0.91722 3.9219,2.68839 1.6763,1.73954 2.5935,4.30142 0.9488,2.56188 0.9488,5.88283 0,0.69582 -0.2214,0.94884 -0.1897,0.25303 -0.6325,0.25303 h -22.7406 v 0.60093 q 0,3.54235 0.8223,6.23073 0.8223,2.68839 2.3405,4.52282 1.5181,1.8028 3.6688,2.72002 2.1507,0.91721 4.8075,0.91721 2.3721,0 4.1117,-0.50605 1.7395,-0.53767 2.9097,-1.17024 1.2019,-0.66419 1.8977,-1.17023 0.6958,-0.53768 1.0121,-0.53768 0.4112,0 0.6326,0.31628 l 0.8223,1.0121 q -0.7591,0.94884 -2.0242,1.77117 -1.2335,0.82233 -2.7833,1.42327 -1.5181,0.5693 -3.2893,0.91721 -1.7395,0.34791 -3.5107,0.34791 -3.2261,0 -5.8828,-1.10698 -2.6568,-1.13862 -4.5545,-3.28933 -1.8977,-2.15071 -2.9414,-5.25026 -1.0121,-3.13118 -1.0121,-7.14795 0,-3.38421 0.9489,-6.23074 0.9804,-2.87815 2.7832,-4.93398 1.8345,-2.08745 4.4596,-3.25769 2.6568,-1.17024 6.0093,-1.17024 z m 0.032,2.24559 q -2.4354,0 -4.3647,0.75908 -1.9293,0.75907 -3.3526,2.18233 -1.3916,1.42327 -2.2772,3.41584 -0.854,1.99257 -1.1386,4.45956 h 20.748 q 0,-2.53025 -0.6958,-4.52282 -0.6958,-2.0242 -1.961,-3.41583 -1.2651,-1.39164 -3.0363,-2.11908 -1.7711,-0.75908 -3.9218,-0.75908 z"
                 id="path261" />
              <path
                 style="color:#000000;-inkscape-font-specification:'lato Light';stroke:none;-inkscape-stroke:none"
                 d="m 2886.7324,-768.51367 c -2.327,0 -4.4446,0.40671 -6.3281,1.23633 v 0.002 0 c -1.8472,0.82346 -3.4343,1.97996 -4.7324,3.45703 v 0.002 c -1.2756,1.45466 -2.2547,3.19482 -2.9375,5.19922 v 0.004 0.002 c -0.6624,1.98687 -0.9883,4.15043 -0.9883,6.48047 0,2.74426 0.3436,5.20902 1.0488,7.39063 v 0.006 0.004 c 0.7244,2.15131 1.7554,4.0003 3.0977,5.52149 1.3404,1.51916 2.9617,2.68895 4.8359,3.49218 v 0.002 0.002 c 1.876,0.78169 3.9464,1.16797 6.1875,1.16797 1.2319,0 2.4525,-0.12148 3.6621,-0.36328 1.219,-0.23943 2.357,-0.55669 3.4141,-0.95313 v -0.002 h 0.01 c 1.0797,-0.41868 2.0586,-0.91886 2.9336,-1.50195 0.8964,-0.58346 1.6361,-1.22633 2.205,-1.9375 l 0.3985,-0.4961 -1.2246,-1.50781 0.033,0.0449 c -0.2795,-0.39925 -0.8025,-0.65234 -1.2793,-0.65234 -0.6589,0 -0.9864,0.30727 -1.4961,0.70117 l 0.018,-0.0137 c -0.4205,0.30575 -1.029,0.6841 -1.8086,1.11523 -0.7155,0.38673 -1.6364,0.7593 -2.7539,1.10547 -6e-4,1.5e-4 0,-1.5e-4 0,0 -1.0669,0.31014 -2.3643,0.47461 -3.8887,0.47461 -1.6802,0 -3.1723,-0.28813 -4.498,-0.85352 -1.3228,-0.56411 -2.4354,-1.38941 -3.3711,-2.5 -6e-4,-7.2e-4 0,-10e-4 0,-0.002 -0.9339,-1.12997 -1.6671,-2.53644 -2.1894,-4.24414 -0.5034,-1.64568 -0.7454,-3.60122 -0.7617,-5.81055 h 21.9238 c 0.4354,0 0.9303,-0.17008 1.2363,-0.55468 0.3613,-0.43145 0.4082,-0.9015 0.4082,-1.4375 0,-2.28547 -0.3271,-4.33838 -0.9961,-6.14844 -0.6431,-1.79649 -1.5634,-3.33331 -2.7636,-4.58008 -1.1729,-1.26124 -2.5813,-2.22528 -4.1993,-2.87695 -1.5971,-0.65181 -3.3383,-0.97461 -5.1992,-0.97461 z m 0,1.58008 c 1.6802,0 3.2075,0.28917 4.6035,0.85937 v 0 0.002 c 1.4158,0.57023 2.6198,1.39488 3.6387,2.49219 v 0.006 l 0.01,0.006 c 1.0329,1.07192 1.8389,2.40011 2.418,4.01758 v 0.006 0.004 c 0.5938,1.60358 0.8984,3.46876 0.8984,5.60743 0,0.38001 -0.1143,0.52938 -0.025,0.42773 l -0.019,0.0234 -0.018,0.0234 c 0.051,-0.0676 0.1446,-0.0625 0,-0.0625 h -23.5313 v 1.39062 c 0,2.42275 0.2809,4.57775 0.8575,6.46289 0.5733,1.87431 1.3979,3.47983 2.4863,4.79492 v 0.002 0.004 c 1.088,1.29206 2.4208,2.27903 3.9648,2.9375 1.5419,0.65756 3.255,0.98047 5.1172,0.98047 1.6377,0 3.0798,-0.17282 4.3321,-0.53711 l 0.01,-0.002 0.01,-0.002 c 1.1955,-0.36951 2.2089,-0.77539 3.0508,-1.23047 v -0.002 -0.002 c 0.8192,-0.45267 1.4746,-0.85471 1.9805,-1.22266 l 0.01,-0.006 0.01,-0.008 c 0.418,-0.323 0.7664,-0.37304 0.5293,-0.37304 v 0.002 l 0.3672,0.45312 c -0.3929,0.40508 -0.7811,0.8104 -1.3672,1.19141 v 0.002 0.004 c -0.7669,0.51123 -1.6409,0.95834 -2.6231,1.33984 -0.967,0.36263 -2.0214,0.65641 -3.164,0.88086 v 0.002 c -1.1091,0.22181 -2.2264,0.33203 -3.3555,0.33203 -2.0596,0 -3.9123,-0.35307 -5.5781,-1.04688 v 0 c -1.6647,-0.71476 -3.0778,-1.7358 -4.2657,-3.08203 -1.1863,-1.34445 -2.1142,-2.99314 -2.7812,-4.9707 -0.6443,-1.9933 -0.9746,-4.29287 -0.9746,-6.9043 0,-2.18084 0.3061,-4.16899 0.9082,-5.97656 0.6244,-1.83313 1.5008,-3.37957 2.6289,-4.66602 1.1473,-1.30524 2.5318,-2.32004 4.1836,-3.05664 1.6589,-0.7307 3.5464,-1.10351 5.6894,-1.10351 z m 0.033,0.66601 c -1.7057,0 -3.2626,0.26495 -4.6543,0.8125 -1.3812,0.54344 -2.5975,1.33392 -3.623,2.35938 v 0.004 0.002 c -0.998,1.02078 -1.8091,2.24344 -2.4336,3.64843 v 0.004 0.006 c -0.6034,1.40775 -1,2.96966 -1.1973,4.67969 l -0.1016,0.88086 h 22.4258 v -0.78907 c 0,-1.7579 -0.2409,-3.35539 -0.7383,-4.78125 -0.4936,-1.43611 -1.1997,-2.67389 -2.123,-3.68945 -0.9198,-1.01184 -2.0346,-1.78929 -3.3164,-2.31641 -1.2858,-0.55012 -2.7019,-0.82031 -4.2266,-0.82031 z m 0,1.58008 c 1.3408,0 2.5352,0.23491 3.6094,0.69531 l 0.01,0.002 0.01,0.004 c 1.0781,0.44278 1.986,1.07538 2.752,1.91797 0.7636,0.83994 1.3647,1.87781 1.7988,3.14063 v 0.002 0.002 c 0.3498,1.00183 0.4645,2.21698 0.5313,3.47266 h -18.8262 c 0.203,-1.19356 0.4306,-2.36355 0.8535,-3.35156 0.5546,-1.24672 1.2578,-2.29924 2.1113,-3.17383 3e-4,-2.5e-4 0,2.5e-4 0,0 0.872,-0.87165 1.8894,-1.53742 3.0801,-2.00586 1.1807,-0.46455 2.5347,-0.70508 4.0761,-0.70508 z"
                 id="path263" />
            </g>
            <g
               id="path238">
              <path
                 style="color:#000000;-inkscape-font-specification:'lato Light';stroke:none;-inkscape-stroke:none"
                 d="m 2907.1966,-735.74738 v -31.46995 h 1.6447 q 0.8223,0 0.9488,0.7907 l 0.2847,4.74421 q 2.1507,-2.72001 4.9972,-4.36467 2.8782,-1.67629 6.3889,-1.67629 2.5935,0 4.5544,0.82233 1.9926,0.82233 3.2893,2.3721 1.2968,1.54978 1.961,3.73212 0.6642,2.18234 0.6642,4.93398 v 20.11547 h -3.0047 v -20.11547 q 0,-4.42793 -2.0242,-6.92655 -2.0242,-2.53025 -6.1991,-2.53025 -3.0996,0 -5.7563,1.61303 -2.6568,1.58141 -4.7442,4.36468 v 23.59456 z"
                 id="path267" />
              <path
                 style="color:#000000;-inkscape-font-specification:'lato Light';stroke:none;-inkscape-stroke:none"
                 d="m 2921.4609,-768.51367 c -2.4663,0 -4.7475,0.59531 -6.7871,1.7832 -1.4531,0.83987 -2.7304,1.9502 -3.9199,3.1875 l -0.1777,-2.9707 -0.01,-0.0371 c -0.063,-0.39552 -0.2435,-0.80055 -0.5742,-1.07617 -0.3307,-0.27563 -0.7535,-0.38086 -1.1543,-0.38086 h -2.4355 v 33.05078 h 0.791 3.7949 v -24.08594 c 1.3004,-1.68922 2.7452,-3.02474 4.3574,-3.98437 v -0.002 -0.002 c 1.6545,-1.00455 3.4164,-1.49805 5.3457,-1.49805 2.6235,0 4.3982,0.75461 5.582,2.23438 v 0.002 0.002 c 1.2057,1.48823 1.8477,3.59628 1.8477,6.42774 v 20.90625 h 4.5859 v -20.90625 c 0,-1.89805 -0.2295,-3.62061 -0.6992,-5.16406 -0.4694,-1.54215 -1.1722,-2.88745 -2.1113,-4.00977 -0.9473,-1.13217 -2.1573,-2.00182 -3.5899,-2.59375 -1.4219,-0.5963 -3.0468,-0.88281 -4.8594,-0.88281 z m 0,1.58008 c 1.6455,0 3.0555,0.26158 4.2481,0.76172 v 0 0.002 c 1.2224,0.50447 2.2036,1.21535 2.9844,2.14844 0.7899,0.94405 1.3962,2.08743 1.8125,3.45507 0.4158,1.36634 0.6289,2.93232 0.6289,4.70313 v 19.32617 h -1.4239 v -19.32617 c 0,-3.0706 -0.7058,-5.57697 -2.1972,-7.41992 -1.5151,-1.8939 -3.8734,-2.82813 -6.8164,-2.82813 -2.2012,0 -4.2741,0.5809 -6.1602,1.72461 -1.7365,1.03361 -3.2733,2.46608 -4.6445,4.20508 l 0.7988,-1.00977 c 1.3766,-1.74103 2.9626,-3.12674 4.7715,-4.17187 v 0 0 c 1.798,-1.04716 3.7756,-1.57031 5.9902,-1.57031 z m -13.4726,0.50781 h 0.8535 c 0.1474,0 0.157,0.0257 0.1426,0.0137 -0.011,-0.009 0,0.0331 0.018,0.082 l 0.4082,6.76367 v 23.0293 h -1.4219 z"
                 id="path269" />
            </g>
          </g>
          <g
             aria-label="OS"
             transform="scale(0.98352353,-1.0167525)"
             id="text4157"
             style="font-size:63.2562px;font-family:'lato light';-inkscape-font-specification:'lato light, ';letter-spacing:0px;word-spacing:0px;stroke:#000000;stroke-width:1.58141">
            <g
               id="path213">
              <path
                 style="color:#000000;-inkscape-font-specification:'lato Ultra-Light';fill:#000000;stroke:none;-inkscape-stroke:none"
                 d="m 2993.7808,-757.68416 q 0,5.25026 -1.5181,9.42517 -1.4865,4.17491 -4.2065,7.11632 -2.6884,2.90979 -6.4522,4.49119 -3.7637,1.54978 -8.3182,1.54978 -4.5228,0 -8.2865,-1.54978 -3.7321,-1.5814 -6.4522,-4.49119 -2.6884,-2.94141 -4.2065,-7.11632 -1.4865,-4.17491 -1.4865,-9.42517 0,-5.21864 1.4865,-9.39355 1.5181,-4.20654 4.2065,-7.14795 2.7201,-2.94141 6.4522,-4.52282 3.7637,-1.5814 8.2865,-1.5814 4.5545,0 8.3182,1.5814 3.7638,1.54978 6.4522,4.49119 2.72,2.94141 4.2065,7.14795 1.5181,4.17491 1.5181,9.42518 z m -0.8223,0 q 0,-5.15538 -1.4549,-9.23541 -1.4232,-4.08002 -4.0168,-6.92655 -2.5935,-2.84653 -6.2307,-4.33305 -3.6056,-1.51815 -7.9703,-1.51815 -4.3014,0 -7.907,1.51815 -3.6056,1.48652 -6.2307,4.33305 -2.5935,2.84653 -4.0801,6.92655 -1.4548,4.08003 -1.4548,9.23541 0,5.15538 1.4548,9.2354 1.4866,4.0484 4.0801,6.89493 2.6251,2.8149 6.2307,4.33305 3.6056,1.48652 7.907,1.48652 4.3647,0 7.9703,-1.48652 3.6372,-1.51815 6.2307,-4.33305 2.5936,-2.84653 4.0168,-6.89493 1.4549,-4.08002 1.4549,-9.2354 z"
                 id="path220" />
              <path
                 style="color:#000000;-inkscape-font-specification:'lato Ultra-Light';fill:#000000;stroke:none;-inkscape-stroke:none"
                 d="m 2973.2852,-781.12109 c -3.1074,0 -5.9784,0.54645 -8.5918,1.64453 v 0 c -2.5867,1.09606 -4.8368,2.67342 -6.7246,4.71484 v 0 0.002 c -1.8689,2.04479 -3.3226,4.52488 -4.3652,7.41407 v 0.002 c -1.0259,2.88135 -1.5332,6.10599 -1.5332,9.66016 0,3.57479 0.5071,6.80751 1.5332,9.68945 v 0.002 0.004 c 1.0429,2.8681 2.4972,5.33516 4.3652,7.37891 v 0.004 0.002 c 1.8877,2.01945 4.1377,3.58438 6.7226,4.67969 v 0.002 0.002 c 2.6122,1.07564 5.4823,1.60937 8.5879,1.60937 3.126,0 6.0061,-0.53343 8.6191,-1.60937 v -0.002 0 c 2.6068,-1.09531 4.8579,-2.66109 6.7265,-4.6836 1.8899,-2.04371 3.3468,-4.5138 4.3692,-7.38281 v -0.004 c 1.0476,-2.88244 1.5664,-6.11645 1.5664,-9.6914 0,-3.57406 -0.5174,-6.80756 -1.5645,-9.68946 v -0.002 c -1.0215,-2.88966 -2.4755,-5.3712 -4.3653,-7.41602 v -0.002 c -1.8677,-2.04279 -4.1215,-3.60902 -6.7285,-4.68359 -2.6142,-1.09839 -5.4972,-1.64453 -8.625,-1.64453 z m 0,2.21484 c 2.8181,0 5.3655,0.48726 7.664,1.45508 v 0.002 0.002 c 2.3221,0.94905 4.2941,2.32051 5.9453,4.13282 1.6509,1.81188 2.9371,4.02328 3.8555,6.65625 v 0.002 0.002 c 0.9345,2.62078 1.4082,5.60817 1.4082,8.97071 0,3.36253 -0.4737,6.34798 -1.4082,8.96875 v 0.002 0.002 c -0.9182,2.61186 -2.2036,4.81204 -3.8555,6.625 -1.6514,1.79123 -3.6268,3.16459 -5.9511,4.13477 -2.2989,0.94722 -4.8474,1.42578 -7.666,1.42578 -2.7766,0 -5.3042,-0.477 -7.6055,-1.42578 -2.3035,-0.97077 -4.2793,-2.34767 -5.9531,-4.14258 -1.6497,-1.81259 -2.9551,-4.01158 -3.9141,-6.62109 v -0.004 c -3e-4,-8.5e-4 0,-0.001 0,-0.002 -0.9331,-2.61944 -1.4062,-5.60274 -1.4062,-8.96289 0,-3.36016 0.4731,-6.34541 1.4062,-8.96485 v -0.002 c 4e-4,-0.001 -4e-4,-0.003 0,-0.004 0.9598,-2.63204 2.266,-4.84411 3.916,-6.65625 v -0.002 c 6e-4,-6.6e-4 0,-10e-4 0,-0.002 1.6735,-1.81344 3.6472,-3.18454 5.9473,-4.13282 v -0.002 -0.002 c 2.3001,-0.96846 4.8251,-1.45508 7.5997,-1.45508 z"
                 id="path222" />
            </g>
            <g
               id="path215">
              <path
                 style="color:#000000;-inkscape-font-specification:'lato Ultra-Light';fill:#000000;stroke:none;-inkscape-stroke:none"
                 d="m 3026.4211,-775.77544 q -0.1581,0.18977 -0.3479,0.18977 -0.2847,0 -0.8856,-0.63256 -0.5693,-0.66419 -1.7079,-1.42326 -1.107,-0.75908 -2.8782,-1.39164 -1.7712,-0.66419 -4.4279,-0.66419 -2.72,0 -4.8391,0.85396 -2.0875,0.82233 -3.5107,2.21396 -1.4233,1.39164 -2.1824,3.22607 -0.7274,1.83443 -0.7274,3.827 0,2.56188 0.9805,4.26979 1.0121,1.70792 2.6251,2.87816 1.613,1.17024 3.7005,1.96094 2.0874,0.75908 4.2381,1.48652 2.1508,0.69582 4.2382,1.48652 2.0875,0.79071 3.7005,2.0242 1.613,1.20187 2.5935,3.00467 1.0121,1.77118 1.0121,4.45956 0,2.72002 -0.9172,5.09213 -0.9172,2.34048 -2.6568,4.11165 -1.7395,1.73955 -4.2698,2.75165 -2.5302,1.01209 -5.7563,1.01209 -2.2456,0 -4.0168,-0.41116 -1.7711,-0.37954 -3.2576,-1.10698 -1.4549,-0.75908 -2.6884,-1.80281 -1.2335,-1.07535 -2.3721,-2.43536 l 0.1265,-0.12651 q 0.095,-0.0949 0.1581,-0.12651 0.063,-0.0633 0.2214,-0.0633 0.1898,0 0.5377,0.41117 0.3795,0.37953 1.0121,1.01209 0.6325,0.60094 1.5181,1.29676 0.8856,0.69581 2.1507,1.32838 1.2652,0.60093 2.8782,1.0121 1.6447,0.37953 3.7321,0.37953 3.0679,0 5.44,-0.98047 2.4038,-0.98047 4.0484,-2.62513 1.6763,-1.67629 2.5303,-3.89026 0.8856,-2.21396 0.8856,-4.71258 0,-2.08746 -0.6642,-3.60561 -0.6326,-1.51815 -1.7396,-2.5935 -1.1069,-1.10698 -2.5935,-1.86606 -1.4549,-0.7907 -3.1311,-1.39164 -1.6763,-0.63256 -3.4159,-1.13861 -1.7395,-0.53767 -3.4158,-1.17024 -1.6763,-0.63256 -3.1628,-1.42326 -1.4549,-0.82233 -2.5619,-1.96094 -1.107,-1.17024 -1.7712,-2.75165 -0.6325,-1.61303 -0.6325,-3.79537 0,-2.11908 0.7907,-4.0484 0.7907,-1.96094 2.3088,-3.44746 1.5182,-1.48652 3.7321,-2.37211 2.2456,-0.88558 5.1238,-0.88558 3.2261,0 5.693,1.04372 2.4987,1.04373 4.681,3.32095 z"
                 id="path226" />
              <path
                 style="color:#000000;-inkscape-font-specification:'lato Ultra-Light';fill:#000000;stroke:none;-inkscape-stroke:none"
                 d="m 3016.1738,-781.12109 c -1.9999,0 -3.8097,0.30872 -5.414,0.9414 v 0 0.002 c -1.5598,0.6239 -2.8989,1.4705 -3.9922,2.54101 -1.0862,1.06357 -1.9195,2.30876 -2.4864,3.71289 -2e-4,6e-4 3e-4,0.001 0,0.002 -0.5651,1.37967 -0.8496,2.83529 -0.8496,4.3457 0,1.53128 0.2216,2.8958 0.6875,4.08398 v 0.008 0.01 c 0.4766,1.13467 1.1198,2.1363 1.9258,2.98828 v 0.004 0.004 c 0.7924,0.815 1.709,1.51479 2.7402,2.09766 l 0.01,0.006 0.01,0.004 c 1.0226,0.54395 2.1087,1.03197 3.2559,1.46484 1.1328,0.42748 2.2861,0.82438 3.4609,1.1875 l 0.01,0.002 0.01,0.002 c 1.1403,0.33171 2.2593,0.70474 3.3574,1.11914 l 0.01,0.002 0.01,0.002 c 1.0822,0.38798 2.0877,0.83537 3.0195,1.3418 l 0.01,0.006 0.01,0.004 c 0.9232,0.4714 1.7179,1.04397 2.3946,1.7207 v 0.004 0.004 c 0.6586,0.63977 1.1763,1.40795 1.5605,2.33008 v 0.008 0.006 c 0.3894,0.89018 0.5976,1.98129 0.5976,3.28906 0,1.57233 -0.2758,3.03724 -0.8281,4.41797 v 0.006 0.004 c -0.5309,1.37642 -1.3096,2.57331 -2.3516,3.61523 -1.0157,1.01579 -2.2713,1.83406 -3.789,2.45313 v 0 c -1.4702,0.60768 -3.1776,0.92187 -5.1387,0.92187 -1.34,0 -2.5217,-0.12409 -3.5449,-0.35937 -1.0272,-0.26239 -1.9336,-0.58279 -2.7187,-0.95508 -0.8013,-0.40132 -1.4719,-0.81723 -2.0078,-1.23828 -0.5754,-0.45206 -1.0644,-0.86939 -1.4629,-1.24805 -0.4133,-0.41319 -0.7488,-0.74871 -0.9981,-0.99805 l 0.045,0.0488 c -0.1388,-0.16412 -0.2707,-0.30271 -0.4316,-0.42578 -0.1609,-0.12307 -0.3602,-0.26562 -0.709,-0.26562 -0.2056,0 -0.494,0.0314 -0.7637,0.28906 -0.054,0.0439 -0.1301,0.0872 -0.1757,0.13281 l -0.6387,0.63867 0.4648,0.55469 c 0.7835,0.93578 1.6031,1.77723 2.459,2.52344 v 0.004 l 0.01,0.004 c 0.8672,0.73378 1.8116,1.36798 2.832,1.90039 l 0.01,0.004 0.01,0.006 c 1.0494,0.51357 2.1936,0.90087 3.4257,1.16601 0,2.7e-4 0,-2.7e-4 0,0 1.2516,0.29021 2.6475,0.43164 4.1914,0.43164 2.2335,0 4.2564,-0.35059 6.0508,-1.06836 1.7739,-0.70954 3.2942,-1.68475 4.5352,-2.92578 v -0.004 -0.002 c 1.233,-1.25543 2.1814,-2.7216 2.8301,-4.37695 v -0.002 -0.002 c 0.6481,-1.67622 0.9707,-3.47473 0.9707,-5.37695 0,-1.88801 -0.354,-3.51468 -1.1114,-4.84375 -0.7043,-1.29292 -1.6483,-2.38326 -2.8105,-3.25 -1.1402,-0.87115 -2.4406,-1.58403 -3.8945,-2.13476 -1.4039,-0.53179 -2.8294,-1.03023 -4.2754,-1.49805 l 0.01,0.002 c -1.4249,-0.48195 -2.8282,-0.97382 -4.2109,-1.47656 v -0.002 c 0,-9.1e-4 -0.01,-10e-4 -0.01,-0.002 -1.3295,-0.50454 -2.4959,-1.12469 -3.5058,-1.85742 -0.9883,-0.717 -1.7839,-1.58834 -2.4043,-2.63281 v -0.002 c -0.5681,-0.99036 -0.875,-2.26681 -0.875,-3.87305 0,-1.23151 0.2236,-2.402 0.6719,-3.5332 2e-4,-6.1e-4 -3e-4,-10e-4 0,-0.002 0.466,-1.12239 1.1278,-2.10037 2,-2.95312 0.8662,-0.84708 1.9408,-1.52804 3.248,-2.04297 v -0.002 0 c 1.3039,-0.52547 2.8123,-0.79688 4.5429,-0.79688 1.7053,0 3.0913,0.21612 4.1504,0.61328 l 0.01,0.002 0.01,0.002 c 1.1356,0.40556 2.037,0.84607 2.6973,1.29883 v 0.004 0.002 c 0.7211,0.48074 1.24,0.92321 1.5469,1.28125 l 0.012,0.0156 0.016,0.0137 c 0.2218,0.23346 0.422,0.42221 0.6348,0.57422 0.2128,0.15201 0.4346,0.30469 0.8223,0.30469 0.39,0 0.752,-0.22854 0.957,-0.47461 l 0.025,-0.0332 0.023,-0.0352 0.4785,-0.7168 -0.4375,-0.45703 c -1.5167,-1.5827 -3.1672,-2.7588 -4.9453,-3.50195 -1.7585,-0.74401 -3.764,-1.10742 -6,-1.10742 z m 4.6934,1.34375 0.012,0.004 c 0,-5.9e-4 0,6e-4 -0.01,0 0,-9e-4 0,-0.003 -0.01,-0.004 z m 6.291,36.89453 v 0.01 c 5e-4,-0.001 -5e-4,-0.003 0,-0.004 8e-4,-0.002 0,-0.004 0,-0.006 z"
                 id="path228" />
            </g>
          </g>
        </g>
      </g>
    </g>
  </g>
</svg>
