<?xml version="1.0" standalone="no"?>
<!DOCTYPE svg PUBLIC "-//W3C//DTD SVG 20010904//EN"
 "http://www.w3.org/TR/2001/REC-SVG-20010904/DTD/svg10.dtd">
<svg version="1.0" xmlns="http://www.w3.org/2000/svg"
 width="7030.000000pt" height="4687.000000pt" viewBox="0 0 7030.000000 4687.000000"
 preserveAspectRatio="xMidYMid meet">
<metadata>
Created by potrace 1.16, written by Peter Selinger 2001-2019
</metadata>
<g transform="translate(0.000000,4687.000000) scale(0.100000,-0.100000)"
fill="#000000" stroke="none">
<path d="M22254 26363 c-33 -6 -54 -36 -70 -100 -9 -32 -22 -68 -30 -80 -8
-13 -22 -51 -30 -85 -9 -35 -25 -80 -35 -100 -11 -21 -24 -61 -30 -90 -6 -29
-22 -73 -34 -98 -12 -25 -26 -63 -29 -85 -4 -21 -15 -53 -24 -70 -29 -55 -62
-188 -50 -202 16 -20 90 -15 170 11 40 13 93 26 118 30 25 4 64 12 88 18 82
21 112 -14 136 -163 9 -52 24 -116 35 -144 10 -27 22 -77 26 -110 4 -33 18
-92 30 -131 13 -39 29 -106 35 -150 7 -43 20 -99 30 -124 10 -25 23 -81 30
-124 6 -44 22 -111 35 -150 12 -39 26 -97 30 -129 3 -32 17 -89 30 -127 13
-38 27 -95 30 -127 4 -32 18 -90 30 -129 13 -39 29 -106 35 -150 7 -43 20 -99
30 -124 10 -25 23 -81 30 -124 6 -42 20 -102 30 -132 11 -30 26 -95 35 -145 8
-49 21 -105 29 -124 8 -18 19 -58 26 -89 9 -46 18 -61 44 -79 18 -12 59 -40
91 -62 31 -22 74 -51 95 -65 67 -44 144 -98 185 -129 22 -17 60 -42 85 -56 25
-14 65 -41 90 -60 44 -34 53 -40 114 -81 80 -53 111 -75 206 -139 56 -38 119
-81 139 -95 21 -14 64 -43 96 -65 71 -50 122 -84 166 -112 66 -42 119 -88 119
-104 0 -16 -56 -66 -100 -89 -14 -7 -39 -25 -56 -39 -17 -14 -44 -34 -60 -43
-16 -10 -47 -32 -69 -48 -22 -17 -62 -46 -90 -65 -27 -19 -68 -48 -90 -65 -22
-16 -53 -38 -69 -48 -16 -9 -44 -29 -61 -44 -18 -16 -37 -28 -42 -28 -6 0 -18
-9 -29 -21 -10 -12 -36 -30 -56 -40 -44 -23 -49 -45 -12 -59 37 -15 1451 -13
1493 1 36 13 54 42 69 115 6 29 20 67 31 85 10 19 24 58 30 87 6 29 20 70 31
91 11 22 24 61 30 88 15 67 55 131 86 139 30 8 149 -2 286 -22 53 -8 213 -21
355 -29 142 -8 323 -23 403 -34 80 -11 213 -22 295 -26 143 -6 298 -21 485
-45 46 -6 154 -12 239 -13 138 -2 156 0 159 15 2 10 -33 52 -90 110 -51 52
-160 166 -243 254 -82 87 -195 206 -250 264 -55 58 -159 167 -230 243 -72 76
-170 180 -220 232 -159 164 -195 204 -195 218 0 14 46 55 130 116 66 47 117
86 169 126 21 17 52 38 67 47 16 10 49 33 74 53 25 19 59 45 77 57 17 13 75
57 128 98 54 41 118 90 144 107 73 52 113 80 161 118 25 19 68 50 95 69 28 19
68 49 90 65 22 17 56 42 75 56 54 39 90 66 154 115 112 85 131 99 181 134 28
19 68 49 90 65 22 17 56 42 75 56 19 13 49 35 65 47 17 12 55 41 85 63 30 22
57 43 58 48 2 4 18 15 35 24 63 32 177 134 177 159 0 19 -22 23 -179 39 -80 8
-180 22 -221 30 -41 8 -146 21 -234 29 -87 8 -163 19 -169 25 -20 20 27 91
132 204 56 59 101 111 101 117 0 5 -10 16 -22 24 -18 11 -105 15 -423 20 -220
4 -454 9 -520 11 -337 12 -1074 26 -1685 31 -377 3 -694 7 -706 9 -28 6 -79
53 -97 91 -9 17 -23 37 -32 44 -9 8 -25 30 -36 49 -11 20 -35 56 -54 81 -19
25 -44 59 -54 75 -11 17 -29 44 -41 60 -35 50 -67 97 -113 165 -24 36 -51 76
-60 90 -10 14 -33 45 -52 70 -19 25 -44 61 -55 80 -12 19 -39 60 -61 90 -22
30 -51 72 -65 93 -46 70 -7 67 -876 66 -431 -1 -793 -4 -804 -6z"/>
<path d="M30760 26134 c-133 -13 -216 -29 -225 -45 -3 -4 -28 -15 -55 -24 -98
-33 -245 -151 -309 -250 -57 -88 -102 -193 -121 -280 -11 -49 -26 -115 -35
-145 -11 -39 -15 -104 -15 -230 0 -183 -9 -247 -34 -266 -8 -6 -63 -16 -121
-22 -58 -6 -140 -20 -183 -31 -42 -11 -96 -22 -120 -26 -61 -10 -72 -31 -71
-135 1 -87 5 -110 26 -145 11 -19 25 -20 245 -25 l232 -5 13 -25 c10 -20 13
-286 13 -1278 0 -856 3 -1259 10 -1272 10 -19 22 -20 205 -20 184 0 195 1 205
20 7 14 11 405 10 1272 0 995 3 1258 13 1278 l13 25 319 5 319 5 13 25 c18 35
18 309 0 334 -11 16 -38 17 -315 16 -192 0 -309 3 -322 10 -33 18 -42 80 -35
249 6 150 12 184 53 332 32 113 93 179 232 251 18 9 80 13 220 13 189 0 197
-1 270 -28 90 -34 161 -39 189 -13 13 12 23 42 31 89 7 40 21 92 31 116 26 60
34 117 20 135 -6 8 -28 17 -49 21 -20 3 -71 17 -112 29 -66 21 -201 39 -370
50 -30 2 -116 -2 -190 -10z"/>
<path d="M44630 25913 c-25 -2 -82 -10 -126 -18 -45 -9 -117 -20 -159 -25 -43
-5 -106 -21 -141 -35 -34 -14 -70 -25 -80 -25 -15 0 -132 -51 -189 -83 -86
-48 -126 -73 -165 -102 -25 -19 -63 -47 -85 -62 -57 -38 -233 -218 -280 -287
-22 -32 -52 -73 -67 -91 -16 -18 -28 -37 -28 -42 0 -5 -13 -29 -28 -54 -15
-24 -34 -60 -42 -79 -8 -19 -22 -46 -31 -60 -10 -14 -23 -45 -29 -70 -7 -24
-22 -65 -35 -90 -12 -25 -26 -65 -30 -89 -4 -24 -18 -74 -30 -110 -13 -36 -28
-111 -35 -166 -6 -55 -19 -131 -28 -170 -25 -103 -25 -647 0 -750 9 -38 22
-115 28 -170 7 -55 22 -131 35 -170 12 -38 26 -90 30 -114 4 -24 20 -71 36
-105 16 -34 29 -69 29 -78 0 -10 15 -46 33 -81 17 -35 37 -74 43 -88 28 -58
64 -121 86 -149 13 -16 39 -53 58 -81 67 -100 197 -231 310 -314 23 -16 55
-42 73 -56 18 -14 50 -34 72 -45 22 -11 54 -28 70 -37 71 -38 164 -75 213 -86
29 -6 67 -18 83 -27 32 -16 159 -35 399 -59 115 -12 167 -13 255 -4 232 23
405 49 434 63 16 9 54 21 83 27 49 11 149 51 208 84 14 8 46 25 71 38 25 12
60 34 77 47 18 14 51 40 75 58 117 90 256 229 307 307 10 17 33 48 49 70 17
22 44 65 60 95 16 30 38 73 50 95 11 21 21 44 21 50 0 6 11 26 24 44 14 18 28
52 31 74 4 23 18 63 31 88 12 25 28 77 35 115 6 38 20 91 31 117 10 27 23 94
28 150 6 56 17 149 25 207 21 160 28 353 16 480 -23 256 -52 468 -71 520 -10
30 -24 84 -30 119 -7 36 -22 85 -36 110 -13 25 -24 55 -24 67 0 12 -13 45 -29
75 -15 30 -32 65 -36 79 -12 39 -192 323 -219 345 -7 6 -34 35 -61 65 -54 61
-184 174 -235 205 -18 11 -56 35 -84 52 -28 18 -67 39 -86 48 -19 8 -55 26
-80 39 -25 13 -65 29 -90 36 -25 6 -66 20 -92 30 -25 11 -109 29 -185 41 -76
12 -160 25 -188 29 -49 8 -266 10 -355 3z m443 -349 c88 -10 147 -22 187 -39
33 -14 65 -25 72 -25 21 0 158 -70 232 -118 61 -40 204 -175 263 -249 44 -54
82 -111 107 -161 14 -28 30 -53 36 -57 5 -3 15 -25 21 -48 6 -23 20 -54 30
-68 10 -15 25 -53 33 -85 8 -33 22 -77 31 -99 10 -22 26 -89 36 -150 10 -60
26 -144 35 -185 15 -63 18 -125 18 -390 0 -300 -1 -321 -27 -445 -14 -71 -29
-152 -33 -180 -3 -27 -17 -75 -29 -105 -13 -30 -26 -73 -30 -95 -16 -87 -138
-323 -227 -440 -32 -40 -155 -164 -202 -200 -90 -72 -249 -156 -351 -186 -38
-11 -92 -27 -120 -35 -89 -25 -367 -38 -561 -25 -147 9 -187 16 -264 41 -50
16 -96 30 -103 30 -6 0 -45 16 -84 35 -40 19 -75 35 -79 35 -3 0 -19 11 -36
25 -16 14 -36 25 -43 25 -33 0 -264 230 -329 328 -25 38 -46 73 -46 77 0 3
-11 21 -24 38 -13 18 -29 49 -35 71 -5 21 -17 46 -26 56 -9 10 -23 44 -32 76
-8 32 -23 75 -33 95 -11 20 -24 68 -30 105 -6 38 -19 98 -30 134 -28 91 -40
255 -40 535 0 276 12 434 40 520 11 33 24 91 30 129 6 37 22 89 35 115 14 25
25 55 25 66 0 11 13 47 30 80 16 33 36 76 45 95 8 19 30 58 48 86 17 28 41 66
52 84 11 19 29 43 41 54 11 12 42 45 68 75 66 74 168 159 252 209 38 23 73 42
77 42 4 0 24 11 45 24 20 13 60 29 89 35 28 6 69 19 90 30 35 18 152 35 383
55 65 5 215 -3 363 -20z"/>
<path d="M48250 25910 c-180 -20 -356 -52 -408 -74 -31 -13 -73 -26 -93 -30
-21 -4 -48 -15 -60 -25 -13 -10 -42 -24 -64 -31 -22 -7 -49 -20 -60 -30 -11
-9 -40 -28 -65 -43 -88 -51 -224 -184 -275 -267 -71 -117 -95 -179 -122 -309
-31 -147 -35 -306 -10 -411 8 -36 18 -87 22 -115 9 -65 57 -173 118 -264 32
-49 157 -173 213 -214 80 -57 140 -94 172 -105 18 -6 45 -20 59 -32 14 -11 33
-20 42 -20 9 0 47 -16 85 -35 39 -19 75 -35 82 -35 7 0 41 -13 76 -30 34 -16
72 -30 84 -30 12 0 42 -11 69 -25 26 -14 71 -31 99 -37 28 -6 71 -21 96 -33
25 -12 61 -26 80 -30 19 -4 59 -21 89 -36 30 -16 61 -29 69 -29 8 0 34 -11 56
-24 23 -13 59 -29 81 -36 22 -7 52 -21 66 -31 14 -10 44 -25 67 -34 23 -10 42
-21 42 -25 0 -5 19 -20 43 -34 40 -24 120 -104 179 -178 14 -19 34 -61 43 -93
9 -33 23 -82 32 -110 18 -64 12 -240 -12 -305 -9 -25 -20 -65 -26 -89 -27
-121 -191 -296 -349 -373 -197 -96 -392 -126 -740 -114 -245 9 -373 22 -453
46 -34 10 -95 23 -135 29 -41 6 -90 20 -110 30 -20 10 -64 24 -97 31 -33 7
-74 21 -91 31 -36 22 -74 25 -92 7 -8 -8 -12 -59 -12 -163 0 -174 1 -176 84
-195 26 -6 61 -17 78 -26 16 -8 66 -22 110 -29 45 -8 107 -23 137 -34 31 -11
112 -24 181 -30 69 -6 168 -16 220 -22 267 -29 659 -1 842 61 47 17 93 30 102
30 9 0 40 14 69 30 30 17 61 30 69 30 8 0 32 14 53 30 21 17 43 30 49 30 6 0
31 16 55 35 24 19 47 35 50 35 24 0 231 236 231 263 0 6 11 24 24 42 13 17 29
50 36 73 6 23 19 57 30 75 58 100 60 583 3 693 -11 22 -26 57 -33 79 -7 22
-20 49 -30 60 -10 11 -23 31 -30 45 -36 70 -227 251 -311 295 -130 68 -229
115 -261 125 -20 6 -42 18 -48 25 -7 8 -31 20 -54 25 -22 6 -66 21 -96 34 -30
14 -82 33 -115 44 -95 31 -156 53 -210 74 -27 11 -78 29 -113 39 -35 10 -77
27 -95 37 -18 11 -48 23 -67 27 -19 4 -55 18 -80 31 -25 13 -65 33 -90 44
-158 71 -293 199 -349 330 -47 110 -52 146 -49 310 3 143 5 159 30 210 14 30
29 66 33 80 18 59 209 250 250 250 7 0 24 9 39 21 15 12 52 28 83 36 32 8 74
23 95 34 57 29 307 53 473 45 219 -11 356 -26 409 -47 28 -10 80 -24 116 -30
36 -5 79 -18 96 -28 17 -11 58 -26 90 -36 32 -9 69 -25 82 -36 14 -10 31 -19
39 -19 25 0 83 72 98 122 7 26 26 67 40 92 15 26 24 53 21 63 -7 21 -113 79
-174 93 -23 6 -57 19 -75 30 -17 10 -63 24 -102 31 -38 6 -90 20 -113 30 -24
11 -101 26 -170 34 -70 8 -163 18 -207 24 -121 14 -262 19 -335 11z"/>
<path d="M32540 24939 c-116 -6 -151 -13 -245 -44 -110 -36 -250 -98 -261
-116 -3 -5 -23 -18 -44 -29 -48 -25 -65 -39 -191 -163 -94 -93 -117 -120 -183
-226 -50 -79 -113 -206 -121 -242 -4 -19 -18 -56 -31 -84 -13 -27 -26 -70 -30
-95 -3 -25 -18 -92 -33 -150 -25 -102 -26 -113 -26 -415 0 -290 2 -315 22
-385 12 -41 27 -106 34 -145 6 -38 22 -90 34 -116 13 -25 26 -62 30 -82 4 -21
15 -47 25 -60 9 -12 29 -47 44 -77 68 -140 200 -297 342 -405 53 -41 153 -101
184 -110 14 -4 43 -18 65 -31 22 -12 58 -26 80 -30 22 -4 70 -18 108 -31 117
-41 402 -54 706 -32 83 5 175 17 204 25 28 9 92 25 142 35 49 11 103 28 120
38 16 10 52 24 78 30 45 11 123 53 139 76 9 12 11 347 2 369 -3 9 -13 16 -20
16 -23 0 -147 -42 -172 -58 -12 -8 -51 -23 -85 -32 -34 -10 -87 -27 -117 -38
-30 -11 -120 -33 -200 -48 -129 -25 -167 -28 -345 -27 -188 0 -205 1 -284 26
-47 15 -92 27 -101 27 -21 0 -171 76 -232 119 -56 38 -155 147 -182 199 -10
20 -27 47 -37 60 -10 13 -21 37 -25 55 -3 18 -17 53 -30 78 -13 26 -28 78 -34
115 -6 38 -17 94 -25 124 -8 30 -17 89 -21 131 -5 63 -4 78 11 92 15 16 89 17
993 17 767 0 982 3 1002 13 l25 13 3 199 c2 146 -2 221 -13 284 -9 47 -24 134
-35 192 -10 59 -27 124 -38 146 -11 21 -23 56 -27 76 -4 21 -17 52 -29 70 -13
18 -28 48 -34 66 -30 87 -187 281 -282 351 -34 25 -74 54 -88 66 -45 34 -144
86 -192 100 -25 7 -70 22 -101 33 -32 12 -95 22 -150 26 -52 3 -116 7 -144 9
-27 1 -111 -1 -185 -5z m386 -415 c38 -15 83 -32 99 -37 36 -13 210 -186 221
-219 4 -13 17 -36 30 -53 12 -16 27 -50 34 -73 6 -24 20 -60 30 -80 20 -38 66
-322 56 -347 -3 -8 -22 -19 -43 -24 -52 -15 -1414 -15 -1465 0 -44 12 -44 10
-23 148 8 56 25 121 40 152 14 30 25 61 25 70 0 9 11 33 25 53 14 21 32 53 40
73 8 19 25 47 37 61 50 59 184 182 203 188 11 4 34 17 51 30 17 13 53 28 80
35 27 7 62 19 79 27 48 24 121 31 271 27 124 -4 151 -8 210 -31z"/>
<path d="M37509 24939 c-100 -6 -146 -14 -219 -39 -51 -16 -98 -30 -104 -30
-6 0 -24 -7 -41 -16 -16 -9 -55 -30 -85 -46 -80 -42 -117 -66 -193 -127 -110
-87 -259 -268 -311 -377 -13 -28 -29 -54 -35 -58 -6 -4 -18 -30 -26 -59 -8
-29 -26 -74 -40 -101 -14 -27 -25 -61 -25 -75 0 -14 -12 -57 -25 -96 -26 -71
-38 -160 -55 -405 -15 -208 14 -556 56 -665 13 -36 24 -75 24 -86 0 -18 37
-111 81 -204 17 -36 73 -133 110 -187 64 -95 289 -308 326 -308 6 0 27 -13 48
-30 21 -16 43 -30 50 -30 7 0 39 -13 70 -30 31 -16 63 -30 71 -30 8 0 56 -13
107 -30 128 -41 292 -54 565 -46 237 7 353 19 406 41 20 9 70 22 110 30 41 7
92 22 113 33 21 11 64 27 95 36 39 11 71 29 98 55 l40 38 0 146 c0 150 -8 193
-36 204 -23 9 -111 -14 -159 -42 -22 -12 -65 -28 -95 -35 -30 -7 -71 -21 -91
-31 -20 -10 -78 -25 -130 -34 -52 -9 -123 -23 -159 -32 -97 -22 -455 -22 -530
0 -30 9 -82 24 -115 32 -114 28 -249 110 -347 211 -52 54 -113 142 -123 177
-4 12 -18 40 -30 63 -13 22 -29 63 -36 90 -6 27 -21 83 -34 124 -26 87 -41
263 -26 303 l11 27 974 0 c724 0 982 3 1001 12 14 6 28 23 32 36 8 33 -3 364
-17 510 -7 73 -22 145 -41 202 -16 49 -29 97 -29 106 0 9 -11 40 -25 68 -13
28 -34 71 -45 96 -56 121 -114 204 -213 303 -89 90 -140 129 -229 176 -31 17
-59 35 -62 40 -3 5 -30 15 -58 21 -29 7 -70 21 -91 32 -67 34 -289 50 -508 37z
m357 -402 c113 -42 143 -56 189 -90 73 -53 174 -172 190 -227 4 -14 18 -41 31
-60 13 -19 24 -40 24 -47 0 -7 14 -55 30 -105 23 -69 32 -120 37 -200 l6 -107
-28 -11 c-20 -8 -256 -10 -767 -8 -852 3 -781 -6 -755 100 47 190 61 236 83
277 13 25 24 51 24 56 0 12 76 133 97 153 7 8 24 28 38 45 41 55 232 187 270
187 11 0 40 10 65 21 25 12 70 25 100 30 82 12 319 3 366 -14z"/>
<path d="M40685 24940 c-147 -8 -199 -17 -245 -40 -20 -10 -54 -21 -75 -25
-22 -4 -57 -18 -77 -31 -21 -13 -41 -24 -46 -24 -9 0 -122 -73 -171 -111 -18
-13 -62 -52 -98 -86 -36 -35 -69 -63 -73 -63 -20 0 -28 36 -35 158 -10 177 -4
172 -205 172 -130 0 -149 -2 -163 -18 -16 -17 -17 -133 -17 -1468 0 -1296 2
-1452 16 -1472 15 -21 20 -22 195 -22 178 0 180 0 204 25 l25 24 0 848 c0 466
5 899 10 962 15 183 84 379 177 502 48 63 140 145 193 172 19 10 46 24 60 32
47 27 215 67 318 75 141 12 266 -1 380 -39 109 -36 131 -50 227 -149 51 -51
76 -85 84 -115 7 -23 21 -55 31 -72 40 -66 43 -137 47 -1202 l4 -1022 26 -21
c24 -18 40 -20 199 -20 167 0 173 1 188 22 14 20 16 132 16 1013 -1 544 -5
1050 -10 1123 -9 133 -43 273 -87 357 -9 17 -25 48 -36 70 -55 112 -224 278
-324 320 -20 9 -44 22 -53 29 -8 8 -46 23 -85 34 -38 11 -89 27 -112 36 -24 9
-90 18 -155 21 -62 3 -135 7 -163 9 -27 1 -104 0 -170 -4z"/>
<path d="M35544 24931 c-28 -5 -81 -20 -117 -35 -36 -14 -71 -26 -77 -26 -48
0 -291 -182 -354 -265 -18 -23 -35 -35 -51 -35 -31 0 -42 37 -54 178 -12 147
-5 142 -206 142 -112 0 -165 -4 -173 -12 -16 -16 -18 -2919 -2 -2949 10 -18
23 -19 205 -19 191 0 195 0 207 23 10 17 14 217 18 932 5 835 7 914 23 954 9
24 22 73 28 110 5 36 19 80 29 97 11 17 26 50 35 73 8 23 26 56 40 75 14 18
25 38 25 44 0 21 189 203 226 218 20 9 48 24 63 34 17 13 70 27 151 40 133 21
211 24 300 10 30 -5 97 -14 147 -21 112 -15 122 -9 146 79 20 70 40 256 32
282 -16 51 -113 70 -375 75 -118 2 -238 0 -266 -4z"/>
</g>
</svg>
