<?xml version="1.0" encoding="UTF-8" standalone="no"?>
<!-- Created with Inkscape (http://www.inkscape.org/) -->

<svg
   version="1.1"
   id="svg1"
   width="7030.000000pt"
   height="4686.000000pt"
   viewBox="0 0 7030.000000 4686.000000"
   sodipodi:docname="hello_kitty.svg"
   inkscape:version="1.2.2 (b0a8486541, 2022-12-01)"
   xmlns:inkscape="http://www.inkscape.org/namespaces/inkscape"
   xmlns:sodipodi="http://sodipodi.sourceforge.net/DTD/sodipodi-0.dtd"
   xmlns="http://www.w3.org/2000/svg"
   xmlns:svg="http://www.w3.org/2000/svg">
  <defs
     id="defs1" />
  <sodipodi:namedview
     id="namedview1"
     pagecolor="#ffffff"
     bordercolor="#666666"
     borderopacity="1.0"
     inkscape:showpageshadow="2"
     inkscape:pageopacity="0.0"
     inkscape:pagecheckerboard="0"
     inkscape:deskcolor="#d1d1d1"
     showgrid="false"
     inkscape:zoom="0.22426756"
     inkscape:cx="4244.9296"
     inkscape:cy="2889.4059"
     inkscape:window-width="1908"
     inkscape:window-height="999"
     inkscape:window-x="3840"
     inkscape:window-y="0"
     inkscape:window-maximized="1"
     inkscape:current-layer="g15"
     inkscape:document-units="pt" />
  <g
     inkscape:groupmode="layer"
     inkscape:label="Image"
     id="g1">
    <g
       id="g15"
       transform="matrix(0.61559454,0,0,0.61559454,1976.0096,1162.978)">
      <path
         id="path244"
         style="fill:#262425"
         d="M 2924.2812 3.9635971 C 2913.8989 3.2485132 2903.6202 3.2375997 2893.6658 3.9754949 C 2825.3948 9.0362712 2764.9062 38.864882 2706.1423 96.449931 C 2683.3402 118.79447 2660.7484 145.1841 2644.4617 168.50061 C 2637.971 177.79285 2629.1239 188.95354 2626.0106 191.77746 C 2624.6296 193.03006 2621.3782 195.16716 2618.7839 196.52706 L 2614.0676 198.99942 L 2560.7845 199.01132 C 2495.7773 199.02381 2400.0145 200.75011 2398.5628 201.9358 C 2397.9789 202.41267 2390.5259 203.09721 2382.0011 203.45872 C 2274.6 208.01316 2172.9707 218.82238 2066.9997 236.96291 C 2038.047 241.91919 2030.989 242.53163 2019.3205 241.10096 C 2004.1557 239.24163 1994.2174 235.69314 1966.0017 222.05973 C 1931.4613 205.37028 1923.7324 201.74447 1910.5009 196.03211 C 1904.4509 193.42018 1897.4754 190.36478 1895.0004 189.24085 C 1883.7487 184.13123 1840.4198 166.40216 1821.4459 159.14418 C 1757.926 134.84626 1716.4475 121.26962 1665.5015 108.10025 C 1598.4839 90.77649 1574.1002 85.641794 1538.9993 81.468225 C 1472.0963 73.513295 1414.8574 86.681424 1376.316 118.89393 C 1370.7668 123.53196 1359.5712 136.6667 1346.819 153.49987 C 1340.2997 162.10534 1324.7941 185.57908 1316.7651 198.99942 C 1308.3094 213.1332 1289.9239 250.12644 1282.9683 267.00009 C 1256.1477 332.06254 1240.5701 398.85209 1233.8708 477.50067 C 1232.2105 496.9888 1232.1701 548.75539 1233.8018 565.49915 C 1239.2357 621.26007 1249.3009 670.46287 1272.265 753.501 C 1277.2843 771.65096 1281.5661 789.06371 1281.7809 792.19739 C 1282.381 800.95642 1280.188 806.48016 1265.9687 832.00028 C 1252.0816 856.92424 1226.9803 906.8389 1217.4399 928.50093 C 1174.3643 1026.3069 1147.8366 1118.9227 1136.0947 1212.499 C 1132.0376 1244.8314 1127.9652 1303.3916 1127.9852 1329.1354 C 1128.0018 1351.012 1127.0661 1356.0384 1121.7817 1362.4493 C 1116.881 1368.3947 1114.7157 1368.9915 1088.613 1371.613 C 1075.3505 1372.945 1050.7747 1375.6085 1033.9997 1377.5309 C 999.33716 1381.5034 992.5412 1382.2329 964.00022 1385.0361 C 911.84737 1390.1581 884.11517 1396.5529 858.84035 1409.2861 C 847.91761 1414.7889 845.96864 1416.1734 841.80509 1421.3862 C 834.56189 1430.4546 831.62376 1438.5372 831.58726 1449.5007 C 831.55419 1459.4471 832.75764 1462.8781 838.36186 1468.8346 C 843.38333 1474.1718 845.67258 1474.8723 861.64823 1475.9447 C 881.72306 1477.2924 897.36556 1476.2433 943.00061 1470.4932 C 953.72559 1469.1419 971.04952 1467.3639 981.4995 1466.5407 C 991.94948 1465.7175 1013.1006 1463.9242 1028.5006 1462.555 C 1072.8828 1458.6091 1099.9288 1456.8532 1105.9386 1457.5293 C 1114.2758 1458.4673 1123.755 1461.8466 1127.6568 1465.2724 C 1129.5657 1466.9485 1132.1719 1470.3863 1133.4463 1472.9108 C 1136.5071 1478.9741 1146.1846 1518.2881 1155.0074 1560.5 C 1162.9107 1598.3117 1170.3029 1629.5609 1175.4621 1646.9756 C 1180.2647 1663.1866 1180.4915 1665.0058 1178.4675 1671.0995 C 1176.3888 1677.3581 1170.3795 1683.7599 1163.1408 1687.4281 C 1160.3715 1688.8314 1149.1942 1692.4851 1138.3029 1695.5448 C 1084.7504 1710.5892 1073.6496 1714.0289 1053.9999 1721.6818 C 1033.2336 1729.7696 1005.7052 1744.3925 998.15879 1751.343 C 995.06105 1754.1962 989.71901 1763.4679 988.20748 1768.6163 C 985.37119 1778.2769 987.23342 1784.4267 995.0725 1791.2839 C 1001.917 1797.2714 1011.0243 1800.9098 1022.4993 1802.2418 C 1035.2248 1803.719 1050.6916 1801.5104 1083.6921 1793.5065 C 1165.4448 1773.6777 1177.6444 1771.2751 1190.501 1772.4593 C 1212.1251 1774.4512 1227.8583 1783.2122 1236.2171 1797.9158 C 1258.542 1837.1873 1281.8798 1875.5663 1303.6371 1908.7913 C 1320.631 1934.7422 1321.3996 1936.6724 1318.5903 1946.336 C 1317.072 1951.5591 1314.0932 1956.1602 1309.5194 1960.3493 C 1305.0926 1964.4039 1277.4319 1981.4789 1248.9548 1997.7345 C 1187.5509 2032.7857 1180.6612 2036.864 1163.0004 2048.6119 C 1135.5947 2066.8419 1115.5539 2084.6487 1101.7957 2102.9991 C 1092.3037 2115.6596 1090.9164 2126.0502 1096.0229 2146.2214 L 1098.2312 2154.9425 L 1103.6756 2156.9794 C 1111.9497 2160.0751 1116.7331 2160.9477 1125.5675 2160.9747 C 1139.3096 2161.0163 1143.0243 2159.4507 1175.9999 2139.7181 C 1190.8807 2130.8135 1197.9371 2126.4161 1224.9998 2109.1764 C 1299.1711 2061.9274 1343.414 2037.6993 1378.7289 2024.99 C 1387.8504 2021.7073 1399.3554 2022.4096 1408.1545 2026.7889 C 1414.499 2029.9466 1417.4365 2032.0698 1437.5087 2048.0003 C 1450.0089 2057.9212 1448.4951 2056.7577 1476.6287 2078.0589 C 1571.4745 2149.8709 1666.7385 2207.5951 1743.501 2239.7666 C 1878.7796 2296.4627 1980.7631 2324.3683 2120.4994 2342.9277 C 2182.0812 2351.1068 2314.0315 2364.7097 2387.7358 2370.4758 C 2440.6914 2374.6187 2514.9597 2378.4241 2560.4942 2379.3302 L 2560.4989 2379.3302 C 2622.0366 2380.5543 2701.36 2379.5714 2749.9952 2376.9792 C 2857.8065 2371.2329 2900.0656 2366.6072 3047.9945 2344.3649 C 3157.6968 2327.8702 3299.2092 2286.9763 3398.0229 2243.2146 C 3411.218 2237.3709 3445.4967 2220.5684 3453.4928 2216.0258 C 3455.6928 2214.776 3461.093 2211.7153 3465.493 2209.2226 C 3483.9518 2198.7652 3507.1763 2183.5306 3537.9934 2161.6647 C 3605.6006 2113.695 3658.9976 2068.0268 3701.8141 2021.5515 C 3722.5096 1999.0877 3729.2831 1992.6814 3736.4938 1988.7612 C 3742.3401 1985.5823 3742.8001 1985.501 3754.4928 1985.544 C 3765.97 1985.5861 3767.0357 1985.7739 3778.9 1989.8677 C 3785.7226 1992.2218 3797.3939 1997.0554 3804.8372 2000.609 C 3812.2804 2004.1626 3823.4605 2009.0804 3829.6821 2011.536 C 3835.9037 2013.9916 3846.2823 2018.0796 3852.7448 2020.6211 C 3859.2073 2023.1627 3874.6188 2029.9733 3886.9938 2035.7551 C 3946.3169 2063.472 3965.3281 2070.9576 3991.93 2077.0809 C 4002.8848 2079.6026 4010.432 2079.3045 4019.2688 2075.9982 C 4027.1903 2073.0344 4028.7264 2071.4504 4031.3879 2063.5008 C 4037.4634 2045.354 4034.7128 2028.2448 4023.8185 2016.426 C 4018.7371 2010.9134 3989.8991 1991.6231 3971.4944 1981.425 C 3959.4391 1974.7452 3898.7725 1943.9993 3897.6471 1943.9993 C 3896.9512 1943.9993 3847.8932 1920.2417 3837.4942 1914.8687 C 3825.8525 1908.8536 3814.8233 1902.3464 3806.8408 1896.7841 C 3800.1968 1892.1546 3799.3634 1889.7051 3800.9847 1879.5561 C 3802.1871 1872.0293 3804.2282 1866.4684 3809.9984 1854.9919 C 3813.5742 1847.88 3823.0668 1826.4437 3839.2242 1788.9996 C 3847.6086 1769.5689 3856.4248 1748.206 3862.4867 1732.6302 C 3869.0726 1715.7081 3874.5101 1706.854 3880.9521 1702.5597 C 3885.0053 1699.8578 3886.5486 1699.5011 3897.9517 1698.6144 C 3918.8995 1696.9856 3946.5334 1699.0232 3997.9931 1705.9934 C 4047.1487 1712.6515 4055.1558 1713.3555 4082.4937 1713.4295 C 4111.2542 1713.5073 4112.3915 1713.3213 4129.5756 1705.7507 L 4136.957 1702.5002 L 4136.9665 1687.4995 L 4136.9761 1672.5011 L 4128.2383 1667.3351 C 4098.9306 1650.0125 4064.8362 1637.7647 4021.5008 1628.9932 C 4000.8292 1624.809 3982.2333 1621.7219 3946.6327 1616.56 C 3915.0265 1611.9772 3911.8765 1611.1315 3905.0904 1605.4213 C 3903.3428 1603.9508 3900.9689 1600.8967 3899.8149 1598.6348 C 3897.8836 1594.8492 3897.7693 1593.4885 3898.3705 1581.5115 C 3899.1579 1565.8238 3900.9237 1549.7884 3905.5758 1516.1355 C 3911.8949 1470.4244 3913.1028 1457.6768 3913.7115 1430.2096 L 3914.2945 1403.9202 L 3917.4046 1398.7161 L 3920.5123 1393.512 L 3931.5059 1390.7684 C 3964.8451 1382.4461 3999.4924 1381.3467 4067.5001 1386.4519 C 4097.2689 1388.6866 4135.0528 1389.3834 4156.5003 1388.0938 C 4180.2759 1386.6643 4207.4807 1383.3269 4211.7275 1381.3192 C 4219.7534 1377.5248 4225.9845 1365.5569 4224.5629 1356.6669 C 4223.5967 1350.6243 4220.7059 1344.7719 4216.7151 1340.781 C 4212.2109 1336.2769 4198.0592 1327.026 4191.3418 1324.1955 C 4162.7983 1312.1682 4137.5406 1308.8187 4058.0009 1306.5035 C 4030.7759 1305.711 4002.8764 1304.5332 3996.0014 1303.8883 C 3986.1766 1302.9668 3979.5116 1302.994 3964.8578 1304.0144 C 3941.2414 1305.6588 3925.2629 1304.488 3920.3077 1300.7497 C 3918.9028 1299.6898 3914.6677 1287.2419 3912.5693 1278.0011 C 3911.7575 1274.4261 3910.1578 1264.1646 3909.0143 1255.1978 C 3900.0922 1185.2327 3884.5416 1110.78 3863.5671 1037.6204 C 3855.9332 1010.9932 3855.0007 1006.849 3855.0007 999.53078 C 3855.0007 995.01419 3855.63 989.22479 3856.3998 986.66688 C 3857.1696 984.10898 3862.501 973.80084 3868.2477 963.75887 C 3903.6771 901.84803 3926.6984 844.79506 3944.0081 775.99973 C 3955.9485 728.5441 3961.2589 689.61003 3961.3289 649.00027 C 3961.402 606.84077 3956.1708 580.84271 3941.5119 550.50079 C 3925.7219 517.81762 3901.5771 494.30626 3865.4993 476.4846 C 3853.4585 470.53674 3827.8243 461.0424 3823.7261 461.0127 C 3820.0964 460.98638 3817.4466 449.55689 3816.0401 427.85592 C 3809.658 329.3838 3793.4073 256.03421 3759.6255 173.22403 C 3730.3217 101.39036 3697.0651 56.4854 3658.1278 36.178072 C 3632.5317 22.828691 3615.5082 19.651517 3570.0008 19.732937 C 3540.7564 19.78526 3525.7975 21.220028 3498.4998 26.593207 C 3440.3225 38.044651 3379.8707 58.694595 3313.5319 89.772887 C 3287.0177 102.19423 3228.13 133.24755 3204.0008 147.53193 C 3176.5994 163.75347 3170.9607 165.78358 3162.4109 162.5184 C 3158.5193 161.0322 3156.7411 159.30479 3150.7034 151.13458 C 3110.0253 96.089012 3060.5495 51.435551 3014.4998 28.208927 C 2987.5013 14.591321 2955.4283 6.1088489 2924.2812 3.9635971 z M 3558.0293 134.18736 C 3581.7219 133.42561 3601.4976 136.54276 3616.7782 143.55569 C 3635.1442 151.98466 3647.9531 172.83161 3666.3992 224.31079 C 3677.998 256.68105 3686.6262 287.02212 3694.8849 324.49976 C 3705.4546 372.46511 3712.1118 420.00576 3710.4472 435.61804 L 3709.7952 441.73589 L 3702.1473 443.41824 C 3697.9411 444.34301 3691.124 445.29859 3686.999 445.54319 C 3682.874 445.7878 3671.1749 446.47419 3660.9999 447.0661 C 3596.3997 450.82411 3534.9348 463.63735 3488.5009 483.02839 C 3483.0009 485.32521 3476.0255 488.00579 3473.0005 488.98442 C 3469.9755 489.96306 3465.6946 491.06418 3463.487 491.43061 L 3459.4727 492.09689 L 3452.3126 483.29728 C 3428.7347 454.32698 3398.8385 430.33015 3365.2754 413.43579 C 3340.9453 401.18893 3315.082 393.13603 3278.9998 386.56819 C 3271.0248 385.11655 3261.1257 382.819 3257.0007 381.46403 L 3249.5004 379.00119 L 3244.7103 359.4888 C 3239.8424 339.65587 3236.8979 329.68529 3227.7369 302.00103 C 3221.565 283.35005 3220.9151 275.43439 3224.9623 268.26363 C 3227.6993 263.41434 3229.0675 262.40988 3249.5004 250.23847 C 3335.4475 199.04163 3405.6539 167.34783 3475.7798 148.08875 C 3506.7271 139.58953 3534.3367 134.94912 3558.0293 134.18736 z M 1509.0002 192.3319 C 1542.0449 191.44451 1563.8684 194.1809 1611 205.12203 C 1711.8576 228.53501 1812.8014 268.70203 1917.4992 327.08158 C 1951.3947 345.98179 1959.3216 349.8282 1971.5009 353.29005 C 1985.8567 357.37056 1991.4195 358.15214 2009.9998 358.69879 C 2031.0476 359.31803 2047.7448 357.43841 2082.0909 350.58449 C 2176.632 331.71835 2314.3136 318.73334 2469.9995 314.00115 C 2486.7745 313.49126 2508.6928 312.522 2518.7067 311.84764 C 2535.0173 310.74929 2537.9283 310.80241 2546.6475 312.34735 C 2552.0008 313.29588 2556.971 314.55999 2557.6911 315.15761 C 2560.8083 317.7447 2559.2071 325.44061 2551.1235 346.74388 C 2509.4179 456.6536 2493.8308 546.41095 2502.452 626.99887 C 2506.5814 665.5988 2517.846 704.19195 2534.2691 735.99934 C 2547.6823 761.97774 2562.2112 781.08319 2584.1541 801.59665 C 2625.0459 839.82433 2678.7484 861.30119 2747.9154 867.08689 C 2773.8243 869.25409 2817.7208 867.29083 2851.5 862.45388 C 2904.3051 854.8926 2942.7042 843.92921 2994.4996 821.63016 C 3004.3639 817.38338 3010.0882 818.63776 3015.4588 826.22271 C 3027.1523 842.73779 3047.0099 863.75454 3063 876.5385 C 3102.1553 907.84281 3155.8629 930.86312 3203.908 936.93647 C 3223.9794 939.4737 3257.5911 938.03466 3294.9999 933.03637 C 3302.9747 931.97084 3309.782 931.41387 3310.1268 931.799 C 3310.4715 932.18412 3312.6924 936.9999 3315.062 942.49988 C 3331.7016 981.12176 3356.1606 1021.3667 3381.2399 1051.3861 C 3429.4904 1109.1413 3486.6671 1142.3622 3552.9989 1151.1801 C 3568.6938 1153.2665 3604.8779 1152.7748 3621.5373 1150.2497 C 3665.745 1143.5488 3703.9098 1128.7184 3742.1976 1103.3581 C 3754.0502 1095.5075 3758.9982 1093.2528 3766.2526 1092.4002 L 3771.847 1091.7435 L 3773.3437 1096.7834 C 3783.7696 1131.8911 3795.2409 1188.0439 3806.4362 1258.7719 C 3812.3327 1296.023 3812.7018 1300.2853 3810.5624 1306.2822 C 3805.5206 1320.4142 3795.6006 1324.3032 3750.0002 1330.0254 C 3732.5445 1332.2159 3676.1415 1344.0961 3661.9161 1348.5788 C 3637.1699 1356.3768 3625.287 1366.8904 3624.1977 1381.9498 C 3623.6676 1389.2783 3625.1852 1394.5404 3629.7539 1401.2099 C 3636.3314 1410.8119 3645.4734 1417.003 3656.0267 1419.0043 C 3663.1729 1420.3596 3690.9793 1417.3009 3761.0009 1407.4539 C 3788.5977 1403.573 3793.6793 1403.3304 3800.2922 1405.5835 C 3807.4062 1408.0074 3810.667 1412.3803 3811.557 1420.6866 C 3812.4535 1429.0543 3811.4397 1472.6625 3810.0151 1487.0002 C 3806.1756 1525.6432 3794.0272 1596.1116 3790.862 1598.0994 C 3790.113 1598.5698 3786.1885 1599.6965 3782.1409 1600.6027 C 3776.2826 1601.9143 3771.8982 1602.1208 3760.6416 1601.6188 C 3715.889 1599.623 3714.9141 1599.6269 3706.2282 1601.8234 C 3696.5808 1604.263 3690.6804 1607.4967 3684.5742 1613.6903 C 3674.2414 1624.1712 3672.4095 1636.9495 3679.8913 1646.364 C 3689.3231 1658.2327 3700.7172 1663.712 3734.2428 1672.4963 C 3750.696 1676.8075 3753.855 1678.0551 3758.4024 1682.0479 C 3764.6806 1687.5602 3765.2842 1694.3095 3760.8605 1709.5009 C 3751.2702 1742.4344 3730.7027 1787.7675 3705.2812 1832.0006 C 3690.5144 1857.6944 3689.3956 1858.9546 3678.1613 1862.5708 C 3673.4456 1864.0887 3671.6768 1864.1494 3662.9916 1863.0967 C 3657.584 1862.4413 3646.4862 1860.3252 3638.3299 1858.3947 C 3630.1736 1856.4641 3620.3498 1854.1584 3616.4998 1853.2691 C 3612.0292 1852.2366 3604.6217 1851.6228 3595.9999 1851.5748 C 3582.8826 1851.5013 3582.3155 1851.5884 3575.9997 1854.6088 C 3564.1243 1860.2879 3555.5754 1871.7589 3555.5474 1882.0546 C 3555.5256 1890.0408 3560.3784 1899.4473 3568.9324 1908.0013 C 3577.4018 1916.4706 3584.4674 1921.228 3602.5984 1930.669 L 3617.2398 1938.2931 L 3619.6836 1943.8208 C 3621.0465 1946.9024 3621.8813 1950.2665 3621.5706 1951.4235 C 3620.8276 1954.1901 3608.4183 1970.6806 3598.5841 1981.9676 C 3557.0345 2029.6553 3478.3091 2085.5641 3389.4994 2130.4544 C 3301.0726 2175.1512 3213.8783 2204.9727 3111.6953 2225.4655 C 3099.4884 2227.9136 3077.1484 2232.4246 3062.0506 2235.4906 C 2947.3931 2258.7748 2820.5075 2271.6019 2661.999 2275.9336 C 2575.0521 2278.3097 2511.4074 2277.6229 2431.0009 2273.4398 C 2333.0076 2268.3417 2211.12 2257.0358 2144.9993 2246.9101 C 2075.6739 2236.2936 1998.0573 2218.0024 1913.4991 2192.3539 C 1903.5991 2189.3511 1886.7245 2184.2391 1875.9997 2180.9939 C 1840.3583 2170.2092 1801.7056 2156.1245 1777.9999 2145.2839 C 1773.8749 2143.3975 1767.3488 2140.44 1763.4988 2138.7139 C 1719.9043 2119.1686 1656.6492 2083.2015 1605.0012 2048.5905 C 1577.7658 2030.3391 1513.6936 1985.066 1507.1846 1979.4738 C 1507.0109 1979.3246 1507.3363 1977.4661 1507.908 1975.3429 C 1510.7244 1964.8835 1517.7535 1959.2072 1545.605 1944.9035 C 1565.9099 1934.4757 1574.9522 1928.8691 1580.782 1923.0973 C 1590.4211 1913.554 1592.6024 1908.3477 1591.0236 1898.6473 C 1589.3319 1888.253 1583.3105 1878.9578 1574.5 1873.1408 C 1570.5789 1870.5524 1570.1746 1870.5009 1554.0001 1870.5209 C 1539.9516 1870.5384 1536.2375 1870.8839 1529.0004 1872.8433 C 1515.2831 1876.5571 1501.9653 1881.2301 1491.5009 1886.0023 C 1477.9236 1892.1943 1465.505 1896.9516 1459.1484 1898.3974 C 1440.693 1902.595 1420.837 1898.1177 1409.4989 1887.2016 C 1404.981 1882.8518 1377.9843 1846.9443 1365.7412 1829 C 1361.0505 1822.125 1353.2924 1810.0041 1348.5013 1802.0634 C 1339.177 1786.6093 1325.0008 1758.5747 1325.0008 1755.5906 C 1325.0008 1752.6269 1331.0696 1742.1475 1334.5619 1739.0812 C 1337.8983 1736.1518 1346.4413 1733.0906 1383.4999 1721.5533 C 1404.8022 1714.9213 1421.2733 1708.559 1425.6657 1705.2653 C 1430.6833 1701.5027 1433.3641 1694.8346 1433.4111 1686.0003 C 1433.4954 1669.989 1424.004 1660.5673 1403.9998 1656.8055 C 1396.6588 1655.425 1381.9714 1656.3307 1362.5003 1659.3612 C 1344.6845 1662.134 1309.8948 1664.1858 1300.5008 1663.0186 C 1288.0384 1661.4701 1288.2826 1661.6179 1284.4198 1653.2552 C 1273.7561 1630.169 1261.4156 1594.7626 1254.4564 1567.277 C 1246.0372 1534.0252 1240.7655 1493.9595 1242.9536 1479.8567 C 1244.2631 1471.4168 1245.7463 1468.3081 1250.4206 1464.204 C 1257.3767 1458.0964 1269.6924 1456.8791 1297.0005 1459.6043 C 1311.5223 1461.0534 1324.101 1461.458 1355.4996 1461.477 L 1395.5 1461.5008 L 1401.2133 1458.6929 C 1407.8877 1455.4154 1413.4554 1449.4915 1417.3681 1441.5006 C 1421.5115 1433.0388 1421.7237 1430.0006 1418.615 1423.6468 C 1412.739 1411.6366 1401.2743 1404.7285 1372.9989 1396.1605 C 1360.5759 1392.3961 1353.6594 1390.8858 1345.001 1390.0498 C 1338.676 1389.4392 1321.3497 1386.9386 1306.4997 1384.4911 C 1291.6497 1382.0436 1274.5505 1379.5715 1268.5005 1378.9991 C 1247.4777 1377.0098 1241.441 1374.8393 1234.5466 1366.7848 C 1228.8447 1360.1234 1227.5929 1354.1804 1228.3812 1337.5115 C 1228.7456 1329.8054 1229.2449 1321.4759 1229.49 1319.0009 C 1229.7352 1316.5259 1230.4216 1306.8492 1231.0153 1297.4992 C 1238.1866 1184.5633 1264.7916 1071.4352 1308.5081 967.99924 C 1339.9602 893.58111 1350.8047 872.28917 1381.8366 824.00021 C 1394.7812 803.85699 1396.0371 801.99258 1417.5395 771.00028 C 1444.4282 732.24437 1448.4948 725.81142 1450.8295 718.36443 C 1455.8692 702.28893 1456.2683 691.74308 1452.1073 684.48902 C 1446.5409 674.78484 1436.5185 666.84194 1425.4301 663.34663 C 1418.1002 661.03611 1414.6918 661.9584 1395.5 671.45141 C 1381.7409 678.25719 1373.712 681.00059 1367.5449 681.00059 C 1365.4544 681.00059 1364.4497 679.25543 1358.624 665.52869 C 1343.9202 630.88317 1335.3869 597.50816 1332.0276 561.49911 C 1328.6398 525.18289 1334.3901 454.18609 1344.6226 405.99967 C 1359.25 337.11732 1384.2902 279.74824 1420.571 231.99915 C 1431.4215 217.71899 1439.6988 210.60392 1453.5018 203.68715 C 1470.1328 195.3532 1481.2592 193.07684 1509.0002 192.3319 z " />
      <path
         style="fill:#cb1d4e"
         d="m 2964.6037,583.24006 c 13.5087,-43.57947 31.3993,-76.53765 55.7702,-102.74006 l 5.5806,-6 0.012,-8.5 c 0.02,-14.2798 -0.2443,-14.97224 -7.3073,-19.16864 -9.3818,-5.57404 -21.2247,-8.9316 -33.7331,-9.56363 -33.9889,-1.71739 -64.6752,16.23108 -79.0429,46.23227 -5.3236,11.11606 -6.976,18.08802 -7.6001,32.06572 -1.1567,25.90702 6.5393,44.98976 26.2171,65.00702 11.1317,11.32372 23.0009,17.72338 31.8417,17.16841 l 3.8415,-0.24115 z"
         id="path242" />
      <path
         style="fill:#cb1d4e"
         d="m 2828,790.47874 c 33.5247,-3.51448 65.1082,-10.18753 94.5,-19.9662 16.5078,-5.49215 43.5029,-16.18216 45.2328,-17.91206 0.3217,-0.32167 -1.0306,-7.67587 -3.0051,-16.34266 -1.9745,-8.6668 -4.5519,-21.15782 -5.7275,-27.75782 -1.1756,-6.6 -2.5756,-14.30047 -3.1111,-17.11215 l -0.9737,-5.11214 -7.7077,-3.53244 c -4.2392,-1.94284 -13.3327,-5.47848 -20.2077,-7.85697 -42.5534,-14.72186 -72.0201,-41.08813 -92.3234,-82.60913 -11.2379,-22.98208 -17.1662,-48.03569 -17.1024,-72.27717 0.1263,-47.9664 25.7544,-101.81708 61.9258,-130.12044 9.3635,-7.32677 13.2732,-9.73837 24.5,-15.1122 33.0544,-15.8219 72.6719,-22.57346 101.9554,-17.37512 32.77,5.81724 60.4616,19.55482 82.4289,40.89221 5.8641,5.69599 5.9052,5.7155 12,5.70077 9.3394,-0.0226 22.7993,-3.58638 36.6157,-9.69483 8.9112,-3.9398 25.1664,-10.10246 29.7399,-11.27503 3.2356,-0.82954 4.3878,-1.67608 4.8641,-3.57379 1.3548,-5.39789 -1.8079,-24.33852 -6.2282,-37.29958 -2.7116,-7.95079 -14.997,-38.94111 -18.8865,-47.64199 -1.2293,-2.75 -3.932,-8.825 -6.006,-13.5 -12.4026,-27.95714 -30.4573,-60.1355 -46.8504,-83.5 -18.7851,-26.77386 -46.0415,-56.43342 -67.3399,-73.27739 -28.2057,-22.30652 -57.9164,-37.631676 -80.7499,-41.651725 -18.3195,-3.225329 -60.7765,-2.694579 -78.8186,0.9853 -25.0031,5.099681 -55.8302,20.937595 -82.7245,42.501085 -17.7315,14.21685 -43.29,40.69182 -65.1702,67.50703 -68.5784,84.04596 -116.7201,194.53424 -137.2229,314.9357 -3.89,22.84391 -4.6823,35.73357 -4.6396,75.48503 0.033,30.63762 0.3473,38.60741 1.9541,49.51497 9.6817,65.72314 42.5413,113.20185 96.5786,139.54611 22.7817,11.10652 46.2751,17.01401 77,19.36187 11.3364,0.86628 60.9192,-0.40071 75.5,-1.92924 z"
         id="path240" />
      <path
         style="fill:#cb1d4e"
         d="m 3542.3165,830.79319 c 13.5053,-2.50664 31.8044,-19.6354 39.6412,-37.10574 4.2018,-9.36716 5.3841,-15.75295 4.7336,-25.56868 -1.0623,-16.03192 -7.4251,-30.29648 -18.8525,-42.26527 -13.7002,-14.34928 -32.8356,-19.58277 -46.5104,-12.72046 l -4.7168,2.36696 -2.1686,13 c -3.5781,21.44965 -6.9971,31.60238 -18.0165,53.5 -8.3783,16.64912 -11.6865,26.54814 -11.2363,33.62231 0.3005,4.72269 0.4729,4.96692 5.7163,8.09419 13.7924,8.22623 31.8352,10.70985 51.41,7.07669 z"
         id="path238" />
      <path
         style="fill:#cb1d4e"
         d="m 3256.5,860.99407 c 21.752,-1.13088 30.2221,-2.60095 46.8505,-8.13136 78.091,-25.97226 131.1627,-94.02347 138.6472,-177.78043 3.7964,-42.48538 -8.3474,-89.3919 -32.7295,-126.42046 -47.9468,-72.81559 -135.185,-106.89069 -220.232,-86.02223 -57.5405,14.11905 -107.1042,54.52707 -133.5262,108.86041 -7.2574,14.92393 -12.3504,30.02415 -15.6835,46.5 -2.1382,10.56909 -2.3242,13.96893 -2.2981,42 0.033,35.54836 1.2723,44.8164 9.0824,67.93263 10.21,30.21957 25.0002,53.81142 48.3337,77.0972 31.5005,31.43609 67.8206,50.33116 105.5555,54.91387 17.7736,2.15852 30.2015,2.39162 56,1.05037 z"
         id="path236" />
      <path
         style="fill:#cb1d4e"
         d="m 3613,1076.1045 c 43.9176,-9.1388 82.9934,-32.2271 124.5627,-73.5991 26.7165,-26.58967 48.3621,-54.44941 73.5413,-94.65403 39.9585,-63.80325 70.2127,-148.86399 73.9282,-207.85137 1.2198,-19.36472 1.1811,-70.1345 -0.062,-82 -2.8478,-27.1727 -16.0003,-51.36062 -36.3569,-66.86173 -17.0042,-12.94839 -48.4453,-22.61703 -86.6128,-26.63484 -31.2942,-3.29428 -122.6638,-2.7488 -150,0.8955 -29.8802,3.98346 -65.7833,12.54271 -93.5,22.29029 l -8,2.81349 0.084,13.49865 c 0.096,15.40562 1.616,24.01814 7.5834,42.96569 5.809,18.44455 4.3686,17.47067 37.8326,25.58022 47.6907,11.5572 82.3493,41.59221 99.4799,86.20874 29.7434,77.46676 -7.0284,156.87219 -87.528,189.0085 -10.2598,4.09581 -22.9517,5.70739 -44.4519,5.64435 -20.2661,-0.0594 -30.4717,-1.50355 -45.3866,-6.42235 -10.4777,-3.45545 -15.3108,-5.81541 -31.6142,-15.43676 -9.1581,-5.4046 -14.818,-7.72716 -20.1791,-8.28047 -4.5862,-0.47334 -6.1651,-0.12015 -11.5657,2.58727 -5.4892,2.75182 -15.4702,10.11627 -24.0044,17.71145 -2.5806,2.2967 -2.75,2.95629 -2.75,10.70981 0,15.59283 5.5476,29.141 22.3175,54.50329 13.7351,20.77246 33.9509,44.164 51.6531,59.7672 9.0309,7.9601 26.3164,20.2821 36.7804,26.2189 26.1118,14.8149 39.0274,19.3837 66.749,23.6122 7.4043,1.1294 38.2364,-0.3472 47.5,-2.2749 z"
         id="path234" />
      <path
         style="fill:#262425"
         d="m 1810.5,1676.2915 c -7.6713,-1.0456 -23.6731,-5.6751 -30,-8.6794 -23.3072,-11.0675 -39.8591,-34.0844 -48.621,-67.6121 -7.2432,-27.7163 -6.2689,-75.3907 2.1603,-105.7124 10.5929,-38.1047 35.1806,-65.2365 68.9607,-76.096 28.2403,-9.0786 60.6745,-2.4435 84.1115,17.2068 9.3521,7.8411 14.5888,14.6833 20.7423,27.1016 6.3585,12.832 9.4232,21.9863 12.5795,37.5749 11.2212,55.4196 5.186,104.2447 -17.0593,138.0114 -17.9631,27.2665 -41.2712,39.142 -76.0818,38.7639 -7.5857,-0.082 -15.1422,-0.3339 -16.7922,-0.5587 z"
         id="path232" />
      <path
         style="fill:#262425"
         d="m 3198,1680.3388 c -24.0581,-2.3545 -46.1334,-13.2808 -64.3267,-31.8388 -19.1902,-19.5749 -27.931,-45.9 -30.2149,-91 -2.1374,-42.2072 7.1567,-76.066 27.9987,-102 15.3758,-19.1323 38.3523,-33.1799 58.3369,-35.6665 12.4477,-1.5489 33.0768,-0.4241 41.214,2.2472 19.6372,6.4466 37.1644,21.6014 50.2163,43.4193 21.705,36.2825 24.998,93.9954 8.2734,145 -11.0972,33.8429 -36.5158,60.3045 -64.7487,67.4056 -7.3989,1.8609 -20.4582,3.0489 -26.749,2.4332 z"
         id="path230" />
      <path
         style="fill:#262425"
         d="m 2518,1886.386 c -32.3876,-3.9197 -59.728,-11.6635 -84,-23.7919 -12.0789,-6.0357 -16.0176,-8.7039 -24.1297,-16.3463 -14.7016,-13.8501 -25.3413,-32.8278 -29.0122,-51.7478 -1.769,-9.118 -1.7513,-33.0188 0.031,-42 9.2458,-46.5854 44.2214,-78.4635 101.4096,-92.4285 35.9256,-8.7728 63.9646,-9.1961 98.4503,-1.4864 47.3123,10.5773 85.4156,35.0782 100.9542,64.9149 8.3741,16.0798 12.3935,38.4438 10.3109,57.3702 -3.6708,33.3594 -19.2823,61.3131 -43.6493,78.1581 -14.0637,9.7222 -41.2033,19.6504 -67.2159,24.589 -11.7158,2.2242 -16.907,2.6338 -36.6491,2.8918 -12.65,0.1653 -24.575,0.1099 -26.5,-0.1231 z"
         id="path226" />
      <path
         style="fill:#fce43a"
         d="m 2566.8495,1825.46 c 22.8542,-3.4775 41.266,-13.5284 50.025,-27.3084 3.8885,-6.1175 5.108,-11.0874 5.2181,-21.2638 0.1153,-10.672 -2.1414,-19.5592 -7.0818,-27.8878 -8.8353,-14.8949 -23.893,-24.587 -46.0048,-29.6114 -14.7241,-3.3457 -57.6905,-2.6652 -72.5942,1.1498 -14.5791,3.732 -30.32,13.8005 -38.6671,24.7333 -6.1432,8.046 -8.885,15.2654 -9.5096,25.039 -1.8384,28.7697 22.9815,51.2099 62.2649,56.2947 12.5494,1.6244 42.093,1.0239 56.3495,-1.1454 z"
         id="path228"
         transform="translate(4.0611148e-5,-4.0611146e-5)" />
      <g
         id="g255">
        <path
           id="path214"
           style="fill:#262425"
           d="M 1846.2076 2699.3666 C 1828.4262 2699.1752 1810.8183 2702.055 1793.1244 2708.0021 C 1767.3986 2716.648 1747.6251 2728.0506 1726.4991 2746.4224 C 1674.6878 2791.479 1638.1656 2852.5397 1621.1274 2922.5907 C 1612.9606 2956.168 1607.7076 3017.8062 1609.8198 3055.2726 C 1613.3061 3117.1108 1626.9975 3172.6875 1655.424 3240.3975 C 1657.9404 3246.3913 1659.9999 3251.5713 1659.9999 3251.9098 C 1659.9999 3252.7015 1650.4582 3260.1904 1641.8915 3266.1206 C 1621.7985 3280.0293 1594.0603 3291.8341 1557.5004 3302.0376 L 1542.4997 3306.2257 L 1519.9985 3306.7325 C 1488.9794 3307.4336 1468.747 3304.9626 1447.5005 3297.8782 C 1428.2903 3291.4728 1409.6428 3281.0779 1406.515 3275.0296 C 1402.9034 3268.0454 1403.9626 3266.4935 1429.4159 3241.4993 C 1451.1571 3220.1493 1459.4906 3210.9392 1474.3776 3191.7998 C 1525.1828 3126.4825 1560.0173 3042.8756 1570.5404 2960.9992 C 1574.8007 2927.8514 1573.8831 2881.9297 1568.4369 2855.5823 C 1558.5203 2807.6122 1540.6162 2771.8495 1512.3816 2743.6193 C 1502.1119 2733.3513 1498.2385 2730.4689 1487.903 2725.3919 C 1448.203 2705.8902 1412.546 2697.3688 1385.4987 2700.9181 C 1341.7922 2706.6536 1301.2388 2724.3896 1275.6701 2748.9543 C 1265.4747 2758.7499 1249.3429 2777.9051 1238.6585 2792.9024 C 1199.6255 2847.6911 1173.2347 2917.7759 1166.8886 2983.5003 C 1165.3975 2998.9437 1166.3368 3052.8619 1168.4639 3073.9997 C 1174.734 3136.3062 1189.461 3195.9116 1211.9241 3249.8872 C 1213.6151 3253.9504 1214.9961 3257.7752 1214.9961 3258.387 C 1214.9929 3259.6384 1198.6489 3269.6609 1186.4985 3275.8625 C 1132.673 3303.3353 1055.3737 3319.8719 998.61329 3316.0556 C 951.06157 3312.8585 915.47807 3302.7837 896.58016 3287.1678 C 891.44527 3282.9245 885.4844 3276.1812 886.21956 3275.4461 C 886.46779 3275.1978 899.45841 3270.3305 915.086 3264.631 C 950.87514 3251.5785 959.6598 3247.8919 979.50067 3237.5968 C 1011.631 3220.925 1033.1357 3205.4684 1058.69 3180.6801 C 1095.8603 3144.6241 1113.2031 3116.6167 1123.4902 3076.0342 C 1128.6053 3055.8553 1129.4185 3048.2321 1129.4605 3020.0004 L 1129.501 2993.4992 L 1126.1862 2982.0345 C 1122.2072 2968.27 1116.8462 2953.6895 1112.7536 2945.5011 C 1101.396 2922.7771 1076.995 2901.4294 1048.5008 2889.2912 C 1031.5646 2882.0763 1027.9848 2881.2164 1011.8484 2880.4916 C 983.67959 2879.2254 952.90272 2883.4689 927.50016 2892.1205 C 906.55678 2899.2534 879.78728 2914.7413 858.30019 2932.1589 C 811.80179 2969.851 775.48281 3023.7925 755.65076 3084.6125 C 746.93834 3111.3316 744.04306 3125.4357 740.99505 3155.9993 C 738.26658 3183.3591 736.91636 3192.8352 735.59821 3193.8724 C 733.8574 3195.2423 725.63349 3197.7065 710.08934 3201.5179 C 702.16356 3203.4613 692.90579 3206.3747 689.51567 3207.9927 C 678.10266 3213.4397 668.04864 3226.5342 666.47915 3237.9989 C 665.3571 3246.1951 670.16574 3264.5564 676.76599 3277.2831 C 686.34133 3295.7464 704.6284 3304.9496 731.88134 3305.0216 C 736.6218 3305.0341 746.12498 3305.471 752.99993 3305.9925 L 765.49976 3306.9419 L 769.7901 3311.7201 C 772.14956 3314.3487 777.75689 3321.2242 782.25185 3326.9992 C 797.73525 3346.8917 805.22684 3354.1681 824.98398 3368.5011 C 864.10766 3396.8837 917.24471 3414.4676 975.50063 3418.31 C 987.93314 3419.13 1047.9922 3418.8987 1059.6038 3417.9864 C 1086.4542 3415.8767 1108.4342 3412.0248 1145.5773 3402.9214 C 1191.1223 3391.7586 1221.9737 3380.8134 1260.0007 3362.3238 C 1278.2813 3353.4352 1282.6555 3351.6997 1289.2194 3350.7353 L 1296.9386 3349.6026 L 1300.7198 3352.7817 C 1320.4703 3369.4043 1349.4338 3384.1128 1386.5005 3396.3443 C 1415.4235 3405.8885 1440.5061 3411.3823 1467.5007 3414.0839 C 1484.1358 3415.7486 1522.8783 3414.6842 1542.9994 3412.009 C 1596.2826 3404.9248 1654.6542 3386.2319 1716.9999 3356.2868 C 1723.3249 3353.2488 1731.2767 3349.4788 1734.6705 3347.9084 L 1740.8407 3345.0529 L 1745.1715 3347.5895 C 1747.5527 3348.9852 1751.5251 3351.4267 1753.9996 3353.0149 C 1770.2925 3363.4698 1803.9379 3381.1415 1823.133 3389.327 C 1854.3362 3402.6331 1892.7869 3413.0777 1925.4993 3417.1322 C 1939.4114 3418.8566 1970.6859 3418.5711 1986.4993 3416.5753 C 2023.2082 3411.9423 2062.5352 3400.4216 2098.2362 3383.8421 C 2109.9406 3378.4066 2110.1877 3378.3952 2117.9033 3382.9379 C 2129.9421 3390.0259 2154.9059 3399.951 2170.7985 3403.9684 C 2197.0952 3410.6158 2237.8321 3411.6846 2263.499 3406.4003 C 2345.5871 3389.5005 2418.7724 3320.4083 2453.9566 3226.5937 C 2468.1102 3188.8531 2477.8494 3144.2562 2480.6243 3104.4723 L 2481.3191 3094.4996 L 2486.9087 3088.6221 C 2489.9834 3085.3893 2498.7996 3077.1164 2506.4996 3070.2376 C 2542.611 3037.9775 2552.2614 3026.6797 2560.5132 3007.0008 C 2564.1241 2998.3897 2565.0829 2981.9307 2562.5525 2971.9999 C 2558.6491 2956.6809 2548.3218 2941.6318 2536.3417 2933.8056 C 2525.8352 2926.9424 2521.1724 2925.5009 2509.5002 2925.5009 C 2496.1381 2925.5009 2493.6511 2926.8974 2472.9573 2946.0389 C 2462.1259 2956.0579 2457.3507 2960.0004 2452.1885 2963.1908 L 2448.693 2965.3538 L 2446.3086 2962.4269 C 2444.9974 2960.8174 2439.1517 2952.0752 2433.321 2943.0002 C 2420.6928 2923.3458 2415.8657 2917.1469 2404.821 2906.405 C 2382.6333 2884.824 2357.7574 2869.3456 2330.5003 2860.1606 C 2298.6471 2849.4269 2271.453 2848.7155 2236.5005 2857.7025 C 2200.177 2867.0421 2163.9923 2888.6779 2130.6315 2921.0012 C 2106.5278 2944.3553 2087.746 2970.619 2069.5649 3006.394 C 2041.509 3061.6002 2024.8246 3113.9378 2018.847 3165.5009 C 2017.1822 3179.8582 2017.1612 3219.7534 2018.8113 3232.0001 C 2020.6428 3245.592 2024.6141 3265.3233 2027.3777 3274.5632 L 2029.7525 3282.4991 L 2025.1266 3285.414 C 2004.4175 3298.4621 1973.845 3306.285 1938.1704 3307.6653 C 1923.23 3308.2434 1922.0339 3308.1455 1912.4997 3305.5475 C 1892.2225 3300.0222 1876.8763 3293.3927 1861.6866 3283.5937 C 1851.9469 3277.3105 1848.9988 3273.7878 1848.9988 3268.4335 C 1848.9988 3264.9049 1849.9664 3263.7211 1864.8015 3249.0877 C 1898.4694 3215.8772 1916.9238 3193.0374 1940.2906 3155.6543 C 1973.9688 3101.774 1982.8242 3081.4492 1999.8319 3019.0009 C 2015.4745 2961.5654 2018.3434 2922.6749 2011.0111 2867.4992 C 2003.7406 2812.788 1986.1022 2771.8605 1957.5686 2743.4908 C 1941.9822 2727.9943 1924.3852 2717.4361 1900.3425 2709.1561 C 1881.9464 2702.8206 1863.989 2699.558 1846.2076 2699.3666 z M 1835.0546 2810.9918 C 1844.3837 2811.0113 1853.731 2813.2239 1862.1173 2817.6307 C 1869.6176 2821.572 1881.2055 2832.8209 1887.4453 2842.2187 C 1892.4678 2849.7831 1897.4935 2862.7264 1900.1736 2874.9995 C 1902.273 2884.6135 1902.466 2887.9891 1902.477 2914.9999 C 1902.4854 2936.2988 1902.1172 2946.0299 1901.1492 2950.0009 C 1895.0585 2974.9851 1892.978 2983.3005 1891.5215 2988.4998 C 1871.6251 3059.5252 1842.7593 3106.9983 1785.3789 3163.0618 C 1773.0742 3175.0841 1770.8758 3176.8098 1765.9998 3178.2767 C 1754.6804 3181.6821 1755.6007 3181.902 1751.6582 3174.8335 C 1742.2425 3157.9518 1735.8895 3138.3484 1728.536 3103.4991 C 1725.4152 3088.7094 1723.8108 3078.2127 1723.1106 3068.0008 C 1718.7848 3004.9182 1722.219 2965.1555 1735.5485 2923.9994 C 1754.3093 2866.0749 1775.8281 2834.4952 1808.1037 2817.5189 C 1816.4157 2813.1469 1825.7254 2810.9722 1835.0546 2810.9918 z M 1390.0389 2812.0126 C 1400.3189 2811.9983 1408.0825 2813.8793 1416.9089 2818.5278 C 1445.6754 2833.678 1460.4925 2876.0686 1456.9307 2933.0156 C 1453.3209 2990.7295 1437.8071 3041.2231 1410.6935 3083.4989 C 1377.649 3135.0217 1351.973 3164.8903 1325.3054 3182.8312 C 1321.898 3185.1235 1318.6401 3187.0002 1318.0668 3187.0002 C 1317.4935 3187.0002 1315.9662 3185.3125 1314.6711 3183.25 C 1313.376 3181.1875 1311.0579 3177.499 1309.5218 3175.0548 C 1298.3184 3157.2276 1287.8928 3129.1914 1283.0277 3103.8108 C 1269.9268 3035.4639 1275.6361 2965.7078 1299.6704 2900.4989 C 1311.8759 2867.3832 1328.55 2843.4279 1350.9999 2826.754 C 1365.5165 2815.9717 1375.951 2812.0316 1390.0389 2812.0126 z M 2280.5438 2968.1855 C 2281.8398 2968.1989 2283.1602 2968.2361 2284.501 2968.2973 C 2304.1611 2969.1946 2313.7473 2973.4346 2327.3259 2987.2338 C 2342.7984 3002.9577 2352.0261 3023.7119 2351.9901 3042.7085 C 2351.9695 3053.5508 2351.2172 3055.6665 2346.222 3058.9752 C 2339.6484 3063.3294 2326.7581 3068.0214 2317.001 3069.6094 C 2309.1644 3070.8848 2295.7218 3071.2234 2288.501 3070.328 C 2272.2917 3068.3181 2262.3452 3064.5996 2252.6054 3056.9073 C 2238.8581 3046.0499 2228.0693 3028.144 2225.0072 3011.1008 C 2223.1931 3001.0035 2226.0272 2993.788 2235.5416 2984.2737 C 2246.6463 2973.1689 2261.1031 2967.9835 2280.5438 2968.1855 z M 986.06825 2987.2576 C 988.47356 2987.241 990.71432 2987.4011 992.75243 2987.7502 C 1001.8883 2989.3151 1017.3827 2996.906 1019.3987 3000.8045 C 1024.7132 3011.0814 1026.6082 3031.7504 1023.5558 3046.1517 C 1018.1529 3071.6428 998.30523 3099.8704 971.78852 3119.7753 C 932.52059 3149.252 896.95239 3167.9817 870.00049 3173.3772 C 865.87549 3174.203 859.75369 3175.1819 856.39654 3175.5522 C 848.90756 3176.3784 849.15397 3176.9144 848.33936 3158.0005 C 846.88952 3124.3376 856.82295 3091.3939 877.94821 3059.8151 C 889.76798 3042.1467 911.7176 3018.9302 926.04625 3008.9402 C 944.42449 2996.1269 969.23111 2987.3741 986.06825 2987.2576 z M 2148.5544 3101.0006 C 2150.1723 3101.0006 2158.0323 3106.7996 2164.1429 3112.501 C 2168.7015 3116.7544 2186.4343 3136.2829 2192.5953 3143.835 C 2195.0471 3146.8403 2208.2916 3157.7898 2213.5901 3161.1915 C 2220.2675 3165.4785 2232.9745 3171.5579 2241.0003 3174.3053 C 2264.4093 3182.3186 2288.2763 3183.5632 2316.4989 3178.2434 C 2325.8489 3176.481 2336.0874 3174.7427 2339.2499 3174.3814 L 2344.9989 3173.7247 L 2344.9989 3179.2524 C 2344.9989 3182.2923 2344.2929 3188.5081 2343.4284 3193.0657 C 2332.8938 3248.5993 2288.7508 3292.1306 2236.0912 3298.9156 L 2236.0912 3298.918 C 2226.5497 3300.147 2220.1579 3300.1403 2211.5009 3298.8919 C 2179.3753 3294.259 2148.7813 3270.8271 2135.8951 3240.9877 C 2123.268 3211.7478 2120.9598 3165.3643 2130.672 3136.0348 C 2135.3598 3121.878 2146.0164 3101.0006 2148.5544 3101.0006 z " />
        <path
           style="fill:#262425"
           d="m 114.27575,3430.4886 c -3.42334,-0.7439 -9.2959,-2.9666 -13.05013,-4.9394 -5.619645,-2.953 -7.376888,-4.5113 -9.943931,-8.818 -3.869262,-6.4915 -5.939657,-12.6504 -7.394371,-21.9964 -1.360469,-8.7404 -1.195968,-11.1102 4.597888,-66.2348 3.128719,-29.7677 6.901127,-92.4919 6.194705,-103 -0.295795,-4.4 -1.292308,-11.9295 -2.214472,-16.7322 -1.674764,-8.7222 -1.680789,-8.7333 -5.321051,-9.7709 C 85.139975,3198.4256 73.15,3197.3015 60.5,3196.499 c -27.194988,-1.7254 -33.839642,-3.1965 -43.045677,-9.5304 -5.788014,-3.9823 -9.005158,-8.3521 -12.6570397,-17.1918 -3.97658941,-9.6258 -4.97476435,-25.3866 -2.353879,-37.167 2.0005984,-8.9923 7.9279907,-21.2922 13.2320007,-27.4576 5.237483,-6.0881 14.742369,-12.6055 21.824595,-14.965 10.856029,-3.6168 34.911443,-7.6958 57,-9.6653 11.88231,-1.0595 11.07149,-0.4348 13.32681,-10.2683 2.80054,-12.2106 5.8331,-29.5997 7.63041,-43.7536 1.44757,-11.3997 7.5322,-80.6161 9.62585,-109.5 0.5382,-7.425 2.07443,-28.35 3.41384,-46.5 1.33942,-18.15 2.9134,-39.975 3.49774,-48.5 2.48284,-36.2226 8.39799,-55.6353 21.82302,-71.6199 9.41414,-11.2091 18.79174,-15.3801 34.57854,-15.3801 15.27638,0 27.25754,4.5021 35.11401,13.1947 9.008,9.9666 13.32167,22.5581 14.1506,41.3053 0.46048,10.4143 -0.0694,16.625 -4.01,47 -10.61032,81.7869 -15.82849,135.531 -19.17585,197.5 -0.78729,14.575 -1.44123,31.5114 -1.4532,37.6365 l -0.0218,11.1364 4.25,0.6033 c 22.35959,3.1741 114.34226,4.1362 173.25,1.8123 15.95,-0.6293 47.225,-1.4206 69.5,-1.7584 44.03867,-0.668 49.45366,-1.1177 57.43012,-4.7695 4.60833,-2.1097 5.67124,-3.1684 8.03813,-8.0062 2.19654,-4.4895 2.90001,-7.7729 3.61337,-16.8647 0.48719,-6.2093 1.7783,-20.0647 2.86912,-30.7897 2.72192,-26.762 3.5592,-36.509 7.04391,-82 6.48433,-84.6493 10.13397,-118.9016 17.02503,-159.7818 3.60368,-21.3783 5.52586,-25.9709 14.71563,-35.1596 16.86361,-16.8616 41.07952,-20.7365 61.51675,-9.8436 12.86205,6.8554 20.50695,16.9949 22.81747,30.2629 1.52099,8.7341 0.64341,43.8464 -1.52516,61.0221 -0.8333,6.6 -2.87449,28.2 -4.53597,48 -4.03811,48.1223 -4.54645,53.3317 -8.48957,87 -4.9231,42.0358 -5.79235,54.0927 -5.91181,82 l -0.10702,25 14.60042,3.637 c 8.03024,2.0004 16.67799,4.5561 19.21723,5.6793 9.63723,4.263 18.74329,15.6608 23.31574,29.1837 2.52256,7.4604 2.53633,26.738 0.0257,36 -2.47198,9.1195 -10.14745,24.2865 -14.49812,28.6488 -3.494,3.5033 -10.65631,7.3258 -16.28049,8.6889 -1.44073,0.3492 -8.73477,1.52 -16.20897,2.6017 -7.47421,1.0817 -14.93467,2.6624 -16.57881,3.5127 -4.20573,2.1748 -7.65715,7.1239 -9.44821,13.5479 -3.08555,11.067 -7.88602,66.9938 -11.63062,135.5 -2.25107,41.1825 -2.41213,42.7222 -5.28252,50.5 -7.99206,21.6558 -29.81476,38.0532 -52.85917,39.718 -9.18677,0.6637 -19.1222,-1.9388 -28.07077,-7.3527 -11.1353,-6.7369 -14.98766,-14.4044 -17.42054,-34.6729 -2.51033,-20.9136 -1.06753,-52.2893 5.59598,-121.6924 2.57117,-26.7798 4.32836,-48.2813 5.37224,-65.7362 0.24459,-4.0899 -0.033,-5.3409 -1.26798,-5.7145 -0.86962,-0.263 -5.81459,-1.4111 -10.98882,-2.5512 -8.3806,-1.8467 -10.67328,-1.9657 -21,-1.09 -6.37577,0.5407 -32.96731,1.245 -59.09231,1.565 -139.32046,1.7067 -196.2002,2.7195 -202.5,3.6058 -8.47136,1.1918 -14.75887,4.0715 -17.59951,8.0608 -3.10926,4.3666 -5.81522,25.383 -10.41111,80.8603 -4.52111,54.5746 -6.70046,75.0912 -10.56923,99.5 -3.31387,20.9078 -5.52617,26.3227 -14.29353,34.9854 -13.0773,12.9213 -32.91238,18.2269 -52.35087,14.0032 z"
           id="path202" />
      </g>
      <g
         id="g261">
        <path
           style="fill:#262425"
           d="m 3547.2802,3007.0785 c -8.6859,-2.1345 -16.9928,-6.133 -27.9393,-13.4484 -10.3846,-6.94 -13.4851,-9.727 -19.0492,-17.1235 -16.4403,-21.8542 -18.7764,-47.0453 -6.6994,-72.2406 13.2601,-27.6636 52.616,-48.9126 87.0411,-46.995 12.1265,0.6754 19.5299,2.6174 29.6843,7.7864 25.4605,12.9605 38.0538,31.468 39.364,57.8509 1.8309,36.8652 -19.1973,67.3921 -55.8186,81.0328 -13.9663,5.2021 -32.9723,6.4822 -46.5829,3.1374 z"
           id="path220" />
        <path
           style="fill:#262425"
           d="m 3513.1482,3400.0343 c -19.2478,-3.0234 -37.4805,-16.3391 -43.0585,-31.4464 -3.2206,-8.7225 -2.8843,-24.9473 1.3717,-66.1745 8.1178,-78.6368 24.5223,-193.2765 29.5984,-206.8437 3.6083,-9.6441 12.8028,-20.1592 21.4402,-24.5197 9.9754,-5.036 30.9696,-8.0441 43.743,-6.2675 11.2172,1.5601 14.3161,2.5672 21.8165,7.09 11.1307,6.712 17.548,18.9314 20.0387,38.157 1.5387,11.8772 0.4148,32.333 -3.5973,65.4705 -1.8645,15.4 -5.0076,42.175 -6.9846,59.5 -4.5192,39.6021 -8.6629,69.158 -13.1087,93.5 -6.2938,34.4607 -10.5168,47.5668 -18.2012,56.4878 -9.311,10.8095 -34.5202,17.9584 -53.0582,15.0465 z"
           id="path218" />
        <path
           style="fill:#262425"
           d="m 2930,3407.3715 c -5.4005,-1.0342 -13.417,-3.5896 -18.3363,-5.8451 -12.3931,-5.6821 -18.9025,-13.4159 -22.8946,-27.2007 -2.0762,-7.1693 -2.2626,-9.797 -2.222,-31.3257 0.058,-30.5014 2.5374,-62.2535 10.0181,-128.2693 2.7889,-24.6115 3.4315,-33.8087 3.2107,-45.957 l -0.2759,-15.1878 -11.0398,-1.646 c -19.4698,-2.9029 -27.0456,-6.531 -38.0386,-18.2166 -12.3276,-13.1044 -17.7809,-27.1302 -17.5958,-45.2564 0.1618,-15.8451 6.7408,-30.1732 17.8629,-38.9025 12.1301,-9.5205 23.1359,-13.7652 47.8113,-18.4399 24.4503,-4.632 23.5303,-4.3805 24.0045,-6.5636 2.3718,-10.9187 11.5967,-88.1908 19.998,-167.5131 9.8564,-93.0605 11.9887,-108.0669 17.5108,-123.2303 5.8602,-16.0919 12.9688,-22.781 30.201,-28.4187 10.6483,-3.4836 27.9141,-3.9364 36.7857,-0.9646 14.2103,4.7601 24.3213,12.9957 27.4241,22.3374 6.1882,18.6309 3.0434,64.608 -11.5069,168.2284 -8.1812,58.2627 -13.9172,107.2691 -13.9172,118.9034 0,2.7231 2.5188,3.6919 13.3435,5.1324 11.0041,1.4644 22.0877,0.1625 47.4376,-5.5721 30.3717,-6.8705 45.3459,-11.994 67.4408,-23.075 32.4167,-16.2576 61.8358,-37.9821 94.627,-69.8772 16.9211,-16.4588 28.5356,-31.2945 47.7643,-61.0115 7.7966,-12.0491 27.5478,-45.5139 38.3636,-65 1.8317,-3.3 4.2254,-7.575 5.3194,-9.5 1.094,-1.925 4.8409,-8.5811 8.3265,-14.7913 15.9379,-28.3966 20.7724,-35.506 28.5864,-42.0373 9.3895,-7.8482 19.8246,-11.925 32.7781,-12.8057 23.7311,-1.6134 41.9012,10.6397 47.6514,32.1343 1.8156,6.7867 1.7053,21.9194 -0.228,31.2793 -4.3308,20.9664 -19.7425,55.4276 -35.8762,80.2207 -1.2527,1.925 -7.3966,11.375 -13.6531,21 -23.6543,36.3895 -52.0264,72.458 -84.5613,107.5 -22.8737,24.6363 -54.4307,52.4402 -81.1195,71.4718 -5.6647,4.0395 -10.6749,8.0608 -11.1338,8.9364 -0.459,0.8755 -1.1277,3.3918 -1.4861,5.5918 l -0.6517,4 15.7856,9.9485 c 42.9964,27.0976 63.775,46.965 88.4296,84.5515 15.789,24.0708 34.5257,61.0871 47.9401,94.711 20.1347,50.4687 23.9348,63.7703 23.8914,83.627 -0.03,13.6505 -0.9349,17.8797 -6.0464,28.2582 -5.3181,10.7977 -14.4495,20.0686 -24.8138,25.1925 -6.4917,3.2094 -8.6372,3.7593 -15.8661,4.0662 -14.6835,0.6233 -26.5618,-4.1607 -36.3761,-14.6505 -7.8,-8.337 -12.7237,-18.8147 -26.8818,-57.2044 -6.1866,-16.775 -13.0011,-34.9232 -15.1435,-40.3293 -21.7186,-54.8068 -49.9317,-94.6565 -79.4818,-112.2642 -9.3138,-5.5497 -35.4017,-17.2809 -51.0486,-22.9555 -28.4961,-10.3345 -51.6523,-14.7685 -77.3175,-14.805 -20.4746,-0.029 -31.2581,1.5377 -47.9331,6.9648 -8.4456,2.7487 -11.4519,4.1803 -12.1217,5.7722 -3.2936,7.828 -9.0357,52.6303 -12.9598,101.117 -4.1421,51.1809 -8.9547,89.7122 -13.0518,104.497 -5.5722,20.1081 -19.1171,35.3902 -36.7614,41.4764 -4.5494,1.5692 -17.9147,2.7134 -22.1722,1.8981 z"
           id="path216" />
        <path
           id="path200"
           style="fill:#262425"
           d="M 3868.1763 2763.0294 C 3862.231 2763.4654 3856.4223 2764.3187 3852.5188 2765.4613 C 3836.8533 2770.0466 3822.2246 2787.0454 3816.0592 2807.8269 C 3814.1677 2814.2025 3810.5016 2839.2019 3804.0519 2889.7123 C 3801.2683 2911.5126 3799.0646 2920.7952 3795.7996 2924.4848 C 3795.2838 2925.0677 3781.7611 2925.7363 3762.7142 2926.1196 C 3734.6435 2926.6844 3729.4369 2927.0385 3722.2427 2928.8704 C 3707.8059 2932.5465 3697.5793 2938.8181 3690.2614 2948.4851 C 3679.5475 2962.6384 3675.5336 2980.1057 3679.4963 2995.3196 C 3681.6627 3003.6377 3684.2384 3008.1142 3691.0657 3015.4126 C 3705.9906 3031.3674 3721.7162 3036.8974 3758.5 3039.1273 C 3768.95 3039.7607 3777.7824 3040.5521 3778.1266 3040.8881 C 3779.0539 3041.7931 3776.4503 3067.9216 3772.4371 3097.9999 C 3766.0527 3145.8501 3765.0605 3154.282 3763.4852 3174.0007 C 3762.6283 3184.7257 3761.4474 3199.3507 3760.8605 3206.5007 C 3759.6076 3221.7667 3760.3042 3245.1948 3762.4524 3260.0003 C 3767.1553 3292.4095 3778.3032 3317.4052 3799.4665 3342.9994 C 3828.4697 3378.0746 3866.9607 3398.9782 3909.0357 3402.5002 C 3924.018 3403.7545 3957.0763 3398.9193 3981.7693 3391.8636 C 4021.3509 3380.5537 4049.8832 3364.7835 4086.5008 3333.9713 C 4097.6824 3324.5625 4109.3176 3316.0009 4110.9223 3316.0009 C 4111.6889 3316.0009 4114.1199 3319.3323 4127.3412 3338.4996 C 4144.9689 3364.0551 4169.6923 3384.3322 4196.1319 3394.9166 C 4221.6595 3405.1359 4255.9073 3409.7316 4279.4998 3406.1053 C 4307.6391 3401.7802 4347.2928 3387.2373 4376.5001 3370.5285 C 4410.1869 3351.2573 4434.9394 3333.3374 4470.921 3302.1756 L 4478.2215 3295.8532 L 4482.7855 3302.6754 C 4504.6148 3335.322 4530.4054 3356.3247 4560.4996 3365.9597 C 4588.9814 3375.0785 4611.9756 3375.6168 4642.4992 3367.88 C 4662.8773 3362.7147 4691.913 3348.1944 4712.9198 3332.6602 C 4719.4811 3327.8082 4731.2104 3321.7615 4736.3871 3320.5625 L 4739.2735 3319.8938 L 4738.7285 3332.1962 C 4738.1352 3345.5881 4735.7231 3356.4528 4731.3876 3365.2625 L 4728.8105 3370.4999 L 4703.1565 3376.8462 C 4517.7553 3422.7134 4450.9057 3452.8203 4380.1218 3522.3277 C 4336.2252 3565.4329 4311.9285 3609.0709 4308.064 3651.7496 C 4305.7623 3677.1682 4308.7344 3704.3434 4316.2378 3726.501 C 4336.9206 3787.578 4391.2477 3825.2501 4465.4266 3829.9524 C 4505.0482 3832.464 4551.2753 3824.2951 4596.9901 3806.7017 C 4610.6691 3801.4373 4641.1838 3785.9462 4654.7848 3777.3641 C 4714.1893 3739.8806 4762.7217 3687.0466 4791.5238 3628.5013 C 4804.2286 3602.6766 4809.4315 3585.1243 4820.5687 3530.5015 C 4823.0358 3518.4015 4826.6619 3501.8482 4828.6283 3493.7183 L 4832.2048 3478.9365 L 4835.9026 3477.0518 C 4840.8881 3474.5084 4852.1081 3472.2896 4866.549 3470.9935 C 4873.1219 3470.4035 4883.4498 3469.2754 4889.4998 3468.4854 C 4895.5498 3467.6953 4906.35 3466.5539 4913.5 3465.9512 C 4940.7452 3463.6546 4955.5508 3460.4467 4967.2329 3454.308 C 4987.2201 3443.805 4999.2912 3422.9724 4999.1332 3399.2521 C 4999.0726 3390.1597 4998.0335 3385.3078 4994.5002 3377.6172 C 4985.1425 3357.2485 4962.4945 3350.3978 4917.5001 3354.3261 C 4887.2353 3356.9684 4880.8719 3357.207 4871.5008 3356.0417 C 4860.2416 3354.6415 4851.0009 3352.1303 4851.0009 3350.4712 C 4851.0009 3347.0013 4855.342 3301.7901 4857.5756 3281.9994 C 4864.9163 3216.958 4871.8845 3170.3932 4892.5195 3048.5003 C 4902.6974 2988.3789 4904.2111 2977.956 4904.2911 2967.5001 C 4904.4209 2950.4449 4901.4146 2940.2417 4893.3166 2930.2553 C 4885.9372 2921.155 4874.0869 2917.4213 4855.5007 2918.3408 C 4835.1975 2919.3453 4820.7612 2925.2473 4809.5252 2937.1346 C 4801.9221 2945.1783 4798.6216 2951.8453 4796.4233 2963.5953 C 4795.5069 2968.4935 4792.1365 2986.0011 4788.9325 3002.5011 C 4782.3197 3036.5556 4780.3838 3048.0981 4778.9812 3061.8497 C 4776.148 3089.6283 4766.9085 3115.0759 4748.8583 3144.8178 C 4731.3825 3173.613 4714.9208 3194.3028 4688.596 3220.5639 C 4670.1835 3238.9317 4655.8089 3248.5847 4640.9144 3252.5809 C 4633.1046 3254.6763 4619.4462 3254.9113 4612.0004 3253.0782 C 4594.7103 3248.8216 4581.1936 3236.006 4575.11 3218.0987 C 4572.6001 3210.7096 4572.532 3209.842 4572.6567 3186.5005 C 4572.8464 3150.9899 4575.6707 3133.7207 4593.9942 3056.0007 C 4603.2083 3016.9186 4606.527 3001.9764 4610.0943 2983.5003 C 4614.5639 2960.3513 4610.1564 2940.9143 4597.6992 2928.8252 C 4590.0839 2921.4348 4582.5586 2919.0289 4566.9815 2919.0119 C 4542.432 2918.9842 4522.162 2930.441 4513.5746 2949.1989 C 4509.0043 2959.1822 4503.6009 2975.579 4498.9737 2993.5016 C 4495.1799 3008.1962 4493.2411 3017.5761 4485.0152 3061.0002 C 4479.9303 3087.8435 4473.5925 3116.4683 4470.8473 3125.0008 C 4467.5519 3135.2434 4463.3775 3143.6595 4458.2784 3150.336 C 4424.7853 3194.19 4381.3807 3236.0681 4344.4998 3260.1169 C 4331.3502 3268.6914 4327.4926 3270.8836 4315.0004 3276.869 C 4291.672 3288.0465 4271.7846 3293.6344 4259.2093 3292.5432 C 4249.889 3291.7345 4240.2316 3288.7822 4232.0157 3284.2314 C 4223.3984 3279.4585 4209.4251 3265.4619 4205.2147 3257.3852 C 4198.1881 3243.9063 4195.4719 3222.6787 4196.2937 3187.6784 C 4197.4841 3136.9778 4206.3611 3072.6836 4215.9322 3045.4521 C 4217.0404 3042.2992 4218.0717 3039.6205 4218.2237 3039.4985 C 4218.3757 3039.3765 4239.4261 3038.7587 4265.0011 3038.1255 C 4325.1315 3036.6367 4349.966 3034.9369 4377.4995 3030.4252 C 4404.7687 3025.9569 4418.5414 3020.9276 4428.5411 3011.7885 C 4438.5848 3002.6091 4445.7284 2985.7532 4446.7138 2968.9041 C 4448.2007 2943.4806 4438.5325 2929.5308 4414.9443 2923.0595 C 4400.8633 2919.1964 4395.2054 2919.0047 4341.5016 2920.5919 C 4292.4022 2922.043 4259.7583 2921.6488 4238.7498 2919.3498 L 4233.0008 2918.7216 L 4233.0008 2912.1111 C 4233.0022 2901.4746 4234.8139 2885.1103 4238.7141 2860.5009 C 4241.9817 2839.8833 4242.368 2835.4281 4242.431 2817.4999 L 4242.5 2797.4997 L 4239.3233 2790.9654 C 4233.9213 2779.8526 4222.2914 2770.7792 4208.5009 2766.9199 C 4202.0518 2765.1147 4184.9354 2765.1 4178.4994 2766.8938 C 4163.5514 2771.06 4152.8275 2780.2012 4144.8691 2795.5603 C 4135.4693 2813.7009 4131.8508 2829.1612 4127.0057 2871.8847 C 4124.6289 2892.8435 4121.8064 2910.0919 4119.4982 2917.765 C 4118.224 2922.001 4117.1184 2923.554 4113.842 2925.7222 L 4109.7706 2928.4183 L 4055.1359 2929.6413 C 4025.0865 2930.3145 3992.1751 2931.1794 3982.0001 2931.564 C 3954.2141 2932.6144 3928.5965 2929.9942 3911.6032 2924.3635 L 3906.7037 2922.7406 L 3907.3034 2908.6203 C 3907.9528 2893.3151 3909.4427 2883.3682 3913.9899 2863.9988 C 3917.8896 2847.3876 3920.4122 2822.7574 3919.7056 2808.1696 C 3919.0121 2793.8493 3915.3403 2780.9256 3910.2873 2775.0223 C 3905.4135 2769.3284 3894.5673 2764.2868 3884.6523 2763.1055 C 3880.204 2762.5756 3874.1215 2762.5933 3868.1763 2763.0294 z M 4044.9823 3034.123 C 4079.5835 3034.2047 4087.6878 3035.0733 4097.7133 3037.7447 L 4103.9954 3039.4176 L 4103.9954 3045.959 C 4103.9883 3055.6979 4095.8897 3120.6691 4092.0238 3142.0004 C 4087.7523 3165.5697 4082.6531 3181.8617 4074.8743 3196.7969 C 4063.6532 3218.3413 4060.6386 3221.3329 4009.5007 3261.6517 C 3991.8127 3275.5975 3977.5769 3283.8028 3961.7215 3289.1928 L 3961.7168 3289.1928 C 3949.4215 3293.3726 3933.5177 3294.0932 3922.0162 3290.9917 C 3894.5054 3283.5731 3875.0327 3264.6634 3867.9621 3238.501 C 3866.1459 3231.7807 3865.7158 3226.8218 3865.2756 3207.512 C 3864.3098 3165.1386 3869.9381 3112.4961 3880.5143 3065.0002 C 3882.4127 3056.4752 3884.553 3047.4854 3885.2686 3045.0238 L 3886.5679 3040.5479 L 3894.0326 3039.2938 C 3919.1965 3035.059 3926.6798 3034.7048 4000.4941 3034.2658 C 4018.9685 3034.1559 4033.4486 3034.0958 4044.9823 3034.123 z M 4701.4932 3479.0554 C 4705.6646 3478.7934 4708.8829 3479.1445 4711.8229 3479.943 L 4716.1465 3481.1161 L 4715.4707 3487.8074 C 4712.121 3521.0044 4701.7256 3557.6833 4685.9404 3591.9988 C 4673.0857 3619.9439 4656.3751 3641.6052 4631.7388 3662.2577 C 4610.3617 3680.178 4589.2953 3693.612 4562.4865 3706.4176 C 4544.9045 3714.8159 4529.7254 3719.3908 4509.2557 3722.4629 C 4477.8893 3727.1705 4448.5048 3720.6207 4431.8606 3705.2111 C 4421.4903 3695.61 4417.2853 3681.9089 4418.309 3661.0584 C 4418.9535 3647.9314 4421.0999 3638.9314 4426.221 3627.8778 C 4431.5005 3616.4825 4437.0002 3609.031 4449.348 3596.5438 C 4473.3821 3572.2382 4493.336 3559.2372 4547.5 3532.5908 C 4575.7672 3518.6845 4591.8967 3511.9702 4620.0004 3502.4179 C 4667.8881 3486.1416 4688.9791 3479.8414 4701.4932 3479.0554 z " />
      </g>
    </g>
  </g>
</svg>
