<?xml version="1.0" encoding="UTF-8" standalone="no"?>
<!-- Created with Inkscape (http://www.inkscape.org/) -->

<svg
   version="1.1"
   id="svg1"
   width="7030.000000pt"
   height="4686.000000pt"
   viewBox="0 0 7030.000000 4686.000000"
   sodipodi:docname="hello_kitty.svg"
   inkscape:version="1.4 (e7c3feb100, 2024-10-09)"
   xmlns:inkscape="http://www.inkscape.org/namespaces/inkscape"
   xmlns:sodipodi="http://sodipodi.sourceforge.net/DTD/sodipodi-0.dtd"
   xmlns="http://www.w3.org/2000/svg"
   xmlns:svg="http://www.w3.org/2000/svg">
  <defs
     id="defs1" />
  <sodipodi:namedview
     id="namedview1"
     pagecolor="#ffffff"
     bordercolor="#666666"
     borderopacity="1.0"
     inkscape:showpageshadow="2"
     inkscape:pageopacity="0.0"
     inkscape:pagecheckerboard="0"
     inkscape:deskcolor="#d1d1d1"
     showgrid="false"
     inkscape:zoom="0.22426756"
     inkscape:cx="3926.1139"
     inkscape:cy="3098.9769"
     inkscape:window-width="2560"
     inkscape:window-height="1416"
     inkscape:window-x="0"
     inkscape:window-y="0"
     inkscape:window-maximized="1"
     inkscape:current-layer="g15"
     inkscape:document-units="pt" />
  <g
     inkscape:groupmode="layer"
     inkscape:label="Image"
     id="g1">
    <g
       id="g15"
       transform="matrix(0.61559454,0,0,0.61559454,1976.0096,1162.978)">
      <path
         style="fill:#000000"
         d="m 4465.4268,3829.9516 c -74.1791,-4.7023 -128.5074,-42.3746 -149.1902,-103.4516 -7.5034,-22.1578 -10.4744,-49.3306 -8.1727,-74.7494 3.8645,-42.6787 28.1613,-86.3183 72.0581,-129.4235 70.7841,-69.5076 137.6319,-99.6129 323.0335,-145.4801 l 25.6556,-6.347 2.5773,-5.2373 c 4.3355,-8.8097 6.7474,-19.6743 7.3407,-33.0662 l 0.545,-12.3034 -2.887,0.6687 c -5.1767,1.199 -16.9057,7.2453 -23.467,12.0973 -21.007,15.5342 -50.0418,30.0565 -70.4201,35.2218 -30.5236,7.7368 -53.518,7.1983 -82,-1.9205 -30.0942,-9.635 -55.8857,-30.6372 -77.715,-63.284 l -4.5626,-6.8236 -7.3017,6.3236 c -35.9818,31.1618 -60.7339,49.0799 -94.4207,68.3511 -29.2075,16.7088 -68.8605,31.2529 -97,35.578 -23.5925,3.6263 -57.8401,-0.9705 -83.3677,-11.1898 -26.4396,-10.5844 -51.1631,-30.8602 -68.7908,-56.4157 -13.2213,-19.1673 -15.6534,-22.5 -16.42,-22.5 -1.6047,0 -13.2399,8.5618 -24.4215,17.9706 -36.6178,30.8122 -65.1484,46.5836 -104.73,57.8935 -24.693,7.0557 -57.752,11.8898 -72.7343,10.6355 -42.075,-3.5222 -80.5662,-24.4242 -109.5694,-59.4996 -21.1633,-25.5942 -32.3103,-50.5908 -37.0132,-83 -2.1484,-14.8055 -2.846,-38.234 -1.5931,-53.5 0.5869,-7.15 1.768,-21.775 2.6249,-32.5 1.5753,-19.7187 2.5685,-28.1498 8.9529,-76 4.0132,-30.0785 6.6154,-56.2059 5.6881,-57.1109 -0.3442,-0.336 -9.1759,-1.1293 -19.6259,-1.7627 -36.7838,-2.2299 -52.5089,-7.76 -67.4338,-23.7148 -6.8273,-7.2984 -9.4044,-11.7731 -11.571,-20.0912 -3.9627,-15.2139 0.053,-32.681 10.7669,-46.8343 7.3179,-9.667 17.5447,-15.9396 31.9815,-19.6157 7.1944,-1.8319 12.3999,-2.1857 40.4706,-2.7505 19.0469,-0.3833 32.5707,-1.0512 33.0865,-1.6341 3.265,-3.6896 5.4681,-12.9738 8.2517,-34.7741 6.4497,-50.5106 10.1152,-75.5091 12.0067,-81.8847 6.1654,-20.7817 20.7947,-37.7804 36.4602,-42.3657 7.8071,-2.2851 23.2362,-3.4168 32.1329,-2.3569 9.915,1.1813 20.7604,6.2232 25.6342,11.9171 5.053,5.9033 8.7253,18.8269 9.4188,33.1472 0.7066,14.5878 -1.8145,39.2201 -5.7142,55.8313 -4.5472,19.3694 -6.0377,29.3154 -6.6871,44.6206 l -0.5991,14.1206 4.8976,1.6229 c 16.9933,5.6307 42.6116,8.2512 70.3976,7.2008 10.175,-0.3846 43.0859,-1.2501 73.1353,-1.9233 l 54.6353,-1.224 4.0717,-2.6946 c 3.2764,-2.1682 4.3811,-3.7228 5.6553,-7.9588 2.3082,-7.6731 5.1304,-24.9204 7.5072,-45.8792 4.8451,-42.7235 8.4635,-58.1834 17.8633,-76.324 7.9586,-15.3591 18.6839,-24.5012 33.6319,-28.6674 6.436,-1.7938 23.5509,-1.7792 30,0.026 13.7907,3.8593 25.4208,12.9319 30.8228,24.0447 l 3.1772,6.5361 -0.07,20 c -0.063,17.9284 -0.4481,22.3824 -3.7157,43 -3.9002,24.6096 -5.7116,40.9736 -5.713,51.6101 l -8e-4,6.6101 5.75,0.6292 c 21.0085,2.299 53.6506,2.6938 102.75,1.2427 53.704,-1.5872 59.3623,-1.3973 73.4433,2.4658 23.5882,6.4713 33.2562,20.4234 31.7693,45.8469 -0.9854,16.8491 -8.1273,33.7038 -18.171,42.8832 -9.9997,9.1391 -23.7724,14.1677 -51.0416,18.636 -27.5337,4.5117 -52.3694,6.2116 -112.5,7.7004 -25.575,0.6332 -46.6244,1.2512 -46.7764,1.3732 -0.152,0.122 -1.183,2.8015 -2.2912,5.9544 -9.5711,27.2315 -18.4493,91.5255 -19.6397,142.2261 -0.8218,35.0003 1.8951,56.228 8.9217,69.7069 4.2104,8.0767 18.1825,22.0728 26.7998,26.8457 8.2161,4.5508 17.8735,7.5023 27.1938,8.311 12.5755,1.0912 32.4636,-4.4958 55.792,-15.6733 12.4922,-5.9854 16.3504,-8.1762 29.5,-16.7507 36.8809,-24.049 80.2841,-65.9282 113.7774,-109.7824 5.0991,-6.6765 9.2749,-15.0927 12.5703,-25.3353 2.7452,-8.5325 9.081,-37.1565 14.1659,-64 8.2259,-43.4241 10.1661,-52.8054 13.9599,-67.5 4.6272,-17.9226 10.0309,-34.3179 14.6012,-44.3012 8.5874,-18.7581 28.8557,-30.2146 53.4052,-30.1869 15.5771,0.017 23.1041,2.4218 30.7194,9.8122 12.4572,12.0893 16.8632,31.5269 12.3936,54.6759 -3.5673,18.4761 -6.8853,33.4179 -16.0994,72.5 -18.3235,77.7202 -21.147,94.9894 -21.3367,130.5 -0.1247,23.3415 -0.057,24.2085 2.4529,31.5976 6.0836,17.9073 19.6002,30.7242 36.8903,34.9808 7.446,1.8331 21.1036,1.5983 28.9134,-0.4971 14.8945,-3.9962 29.2703,-13.649 47.6828,-32.0168 26.3248,-26.2611 42.7863,-46.9528 60.2621,-75.7482 18.0502,-29.7419 27.2886,-55.1876 30.1218,-82.9664 1.4026,-13.7516 3.3381,-25.2952 9.9509,-59.3499 3.204,-16.5 6.5753,-34.0077 7.4917,-38.9059 2.1983,-11.75 5.4998,-18.4172 13.1029,-26.4609 11.236,-11.8873 25.6712,-17.7877 45.9744,-18.7922 18.5864,-0.9195 30.4377,2.8143 37.8171,11.9146 8.098,9.9864 11.1043,20.189 10.9745,37.2444 -0.08,10.4559 -1.5943,20.8784 -11.7722,81 -20.635,121.8931 -27.6038,168.4586 -34.9445,233.5 -2.2336,19.7909 -6.5749,65.0005 -6.5749,68.4704 0,1.6591 9.2408,4.1698 20.5,5.57 9.3711,1.1653 15.7352,0.9282 46,-1.7141 44.9946,-3.9283 67.6425,2.9222 77.0004,23.2909 3.5333,7.6906 4.5722,12.5424 4.6328,21.635 0.158,23.7203 -11.9125,44.5528 -31.8997,55.0558 -11.6821,6.1387 -26.4883,9.3471 -53.7335,11.6437 -7.15,0.6027 -17.95,1.7421 -24,2.5322 -6.05,0.79 -16.3778,1.919 -22.9507,2.509 -14.4409,1.2961 -25.6623,3.514 -30.6478,6.0574 l -3.6981,1.8866 -3.5752,14.7815 c -1.9664,8.1299 -5.5938,24.6816 -8.0609,36.7816 -11.1372,54.623 -16.3392,72.1753 -29.044,98 -28.8023,58.5455 -77.3337,111.3808 -136.7382,148.8645 -13.601,8.5821 -44.1174,24.0713 -57.7964,29.3357 -45.7148,17.5934 -91.9403,25.763 -131.5619,23.2514 z m 43.8298,-107.489 c 20.4697,-3.0721 35.649,-7.6478 53.231,-16.0461 26.8088,-12.8056 47.8752,-26.2386 69.2523,-44.1589 24.6363,-20.6525 41.3462,-42.3125 54.2009,-70.2576 15.7852,-34.3157 26.181,-70.9947 29.5307,-104.1917 l 0.6752,-6.6917 -4.3233,-1.1742 c -11.7599,-3.194 -27.9731,0.7747 -91.8234,22.4767 -28.1039,9.5523 -44.2328,16.2642 -72.5,30.1705 -54.1642,26.6466 -74.1176,39.6478 -98.1519,63.9534 -12.3478,12.4872 -17.8484,19.9398 -23.1279,31.3351 -5.1211,11.0536 -7.267,20.0534 -7.9115,33.1804 -1.0237,20.8505 3.1815,34.5508 13.5518,44.1519 16.6442,15.4096 46.0295,21.9598 77.3961,17.2522 z m -547.5341,-433.2709 c 15.8554,-5.39 30.0895,-13.5952 47.7775,-27.541 51.138,-40.3189 54.1535,-43.3104 65.3746,-64.8549 7.7788,-14.9352 12.8773,-31.2264 17.1488,-54.7958 3.8659,-21.3313 11.9647,-86.302 11.9718,-96.0409 v -6.5409 l -6.2828,-1.6741 c -13.3674,-3.5619 -23.3195,-3.918 -97.2172,-3.4785 -73.8143,0.439 -81.2991,0.7925 -106.4631,5.0273 l -7.4631,1.2559 -1.301,4.4756 c -0.7156,2.4616 -2.8542,11.4506 -4.7526,19.9756 -10.5762,47.4959 -16.2058,100.1397 -15.24,142.5132 0.4402,19.3098 0.8698,24.2665 2.686,30.9868 7.0706,26.1624 26.5436,45.0721 54.0544,52.4907 11.5015,3.1015 27.4066,2.3808 39.7019,-1.799 z M 114.27575,3430.4886 c -3.42334,-0.7439 -9.2959,-2.9666 -13.05013,-4.9394 -5.619645,-2.953 -7.376888,-4.5113 -9.943931,-8.818 -3.869262,-6.4915 -5.939657,-12.6504 -7.394371,-21.9964 -1.360469,-8.7404 -1.195968,-11.1102 4.597888,-66.2348 3.128719,-29.7677 6.901127,-92.4919 6.194705,-103 -0.295795,-4.4 -1.292308,-11.9295 -2.214472,-16.7322 -1.674764,-8.7222 -1.680789,-8.7333 -5.321051,-9.7709 C 85.139975,3198.4256 73.15,3197.3015 60.5,3196.499 c -27.194988,-1.7254 -33.839642,-3.1965 -43.045677,-9.5304 -5.788014,-3.9823 -9.005158,-8.3521 -12.6570397,-17.1918 -3.97658941,-9.6258 -4.97476435,-25.3866 -2.353879,-37.167 2.0005984,-8.9923 7.9279907,-21.2922 13.2320007,-27.4576 5.237483,-6.0881 14.742369,-12.6055 21.824595,-14.965 10.856029,-3.6168 34.911443,-7.6958 57,-9.6653 11.88231,-1.0595 11.07149,-0.4348 13.32681,-10.2683 2.80054,-12.2106 5.8331,-29.5997 7.63041,-43.7536 1.44757,-11.3997 7.5322,-80.6161 9.62585,-109.5 0.5382,-7.425 2.07443,-28.35 3.41384,-46.5 1.33942,-18.15 2.9134,-39.975 3.49774,-48.5 2.48284,-36.2226 8.39799,-55.6353 21.82302,-71.6199 9.41414,-11.2091 18.79174,-15.3801 34.57854,-15.3801 15.27638,0 27.25754,4.5021 35.11401,13.1947 9.008,9.9666 13.32167,22.5581 14.1506,41.3053 0.46048,10.4143 -0.0694,16.625 -4.01,47 -10.61032,81.7869 -15.82849,135.531 -19.17585,197.5 -0.78729,14.575 -1.44123,31.5114 -1.4532,37.6365 l -0.0218,11.1364 4.25,0.6033 c 22.35959,3.1741 114.34226,4.1362 173.25,1.8123 15.95,-0.6293 47.225,-1.4206 69.5,-1.7584 44.03867,-0.668 49.45366,-1.1177 57.43012,-4.7695 4.60833,-2.1097 5.67124,-3.1684 8.03813,-8.0062 2.19654,-4.4895 2.90001,-7.7729 3.61337,-16.8647 0.48719,-6.2093 1.7783,-20.0647 2.86912,-30.7897 2.72192,-26.762 3.5592,-36.509 7.04391,-82 6.48433,-84.6493 10.13397,-118.9016 17.02503,-159.7818 3.60368,-21.3783 5.52586,-25.9709 14.71563,-35.1596 16.86361,-16.8616 41.07952,-20.7365 61.51675,-9.8436 12.86205,6.8554 20.50695,16.9949 22.81747,30.2629 1.52099,8.7341 0.64341,43.8464 -1.52516,61.0221 -0.8333,6.6 -2.87449,28.2 -4.53597,48 -4.03811,48.1223 -4.54645,53.3317 -8.48957,87 -4.9231,42.0358 -5.79235,54.0927 -5.91181,82 l -0.10702,25 14.60042,3.637 c 8.03024,2.0004 16.67799,4.5561 19.21723,5.6793 9.63723,4.263 18.74329,15.6608 23.31574,29.1837 2.52256,7.4604 2.53633,26.738 0.0257,36 -2.47198,9.1195 -10.14745,24.2865 -14.49812,28.6488 -3.494,3.5033 -10.65631,7.3258 -16.28049,8.6889 -1.44073,0.3492 -8.73477,1.52 -16.20897,2.6017 -7.47421,1.0817 -14.93467,2.6624 -16.57881,3.5127 -4.20573,2.1748 -7.65715,7.1239 -9.44821,13.5479 -3.08555,11.067 -7.88602,66.9938 -11.63062,135.5 -2.25107,41.1825 -2.41213,42.7222 -5.28252,50.5 -7.99206,21.6558 -29.81476,38.0532 -52.85917,39.718 -9.18677,0.6637 -19.1222,-1.9388 -28.07077,-7.3527 -11.1353,-6.7369 -14.98766,-14.4044 -17.42054,-34.6729 -2.51033,-20.9136 -1.06753,-52.2893 5.59598,-121.6924 2.57117,-26.7798 4.32836,-48.2813 5.37224,-65.7362 0.24459,-4.0899 -0.033,-5.3409 -1.26798,-5.7145 -0.86962,-0.263 -5.81459,-1.4111 -10.98882,-2.5512 -8.3806,-1.8467 -10.67328,-1.9657 -21,-1.09 -6.37577,0.5407 -32.96731,1.245 -59.09231,1.565 -139.32046,1.7067 -196.2002,2.7195 -202.5,3.6058 -8.47136,1.1918 -14.75887,4.0715 -17.59951,8.0608 -3.10926,4.3666 -5.81522,25.383 -10.41111,80.8603 -4.52111,54.5746 -6.70046,75.0912 -10.56923,99.5 -3.31387,20.9078 -5.52617,26.3227 -14.29353,34.9854 -13.0773,12.9213 -32.91238,18.2269 -52.35087,14.0032 z M 975.5,3418.3097 c -58.25622,-3.8424 -111.39142,-21.426 -150.5153,-49.8086 -19.75724,-14.333 -27.24865,-21.6086 -42.7321,-41.5011 -4.49501,-5.775 -10.10321,-12.6506 -12.46267,-15.2792 L 765.5,3306.9416 753,3305.9935 c -6.875,-0.5215 -16.37855,-0.9583 -21.11901,-0.9708 -27.25309,-0.072 -45.54045,-9.2754 -55.11584,-27.7387 -6.60025,-12.7267 -11.40771,-31.0878 -10.28566,-39.284 1.56949,-11.4647 11.62252,-24.5602 23.03558,-30.0072 3.39017,-1.618 12.64866,-4.5318 20.57444,-6.4752 15.54425,-3.8114 23.76756,-6.2763 25.50842,-7.6462 1.31815,-1.0372 2.66828,-10.5116 5.3968,-37.8714 3.04801,-30.5636 5.94381,-44.6684 14.65628,-71.3875 19.83215,-60.8205 56.1516,-114.7612 102.65025,-152.4533 21.48719,-17.4176 48.25526,-32.9057 69.19874,-40.0386 25.40271,-8.6516 56.17934,-12.8945 84.3483,-11.6283 16.1364,0.7253 19.7155,1.5845 36.6517,8.7994 28.4947,12.1387 52.8952,33.4843 64.2528,56.2083 4.0926,8.1884 9.4538,22.7698 13.4328,36.5343 l 3.3144,11.4657 -0.04,26.5 c -0.042,28.2322 -0.8543,35.8563 -5.9694,56.0352 -10.2871,40.5825 -27.63,68.5893 -64.8003,104.6453 -25.5543,24.7883 -47.0604,40.2455 -79.1908,56.9173 -19.84097,10.2951 -28.62454,13.9815 -64.41388,27.034 -15.62764,5.6995 -28.61699,10.5657 -28.86522,10.814 -0.73516,0.7351 5.22516,7.4793 10.3601,11.7226 18.89801,15.6164 54.48029,25.6906 102.03226,28.8877 56.76084,3.8163 134.06074,-12.7199 187.88674,-40.1932 12.1504,-6.2016 28.4939,-16.224 28.4971,-17.4754 0,-0.6118 -1.3806,-4.4368 -3.0716,-8.5 -22.4636,-53.9761 -37.1919,-113.5805 -43.462,-175.8875 -2.1271,-21.1378 -3.0645,-75.0566 -1.5734,-90.5 6.3461,-65.7249 32.7356,-135.808 71.7686,-190.5972 10.6844,-14.9973 26.817,-34.1527 37.0129,-43.9483 25.5687,-24.5647 66.1214,-42.3018 109.8284,-48.0373 27.0473,-3.5493 62.7026,4.9721 102.4031,24.4738 10.3355,5.077 14.2083,7.9611 24.478,18.2291 28.2351,28.2302 46.1403,63.9924 56.0569,111.963 5.4467,26.3474 6.3624,72.2691 2.1021,105.4169 -10.5231,81.8769 -45.3569,165.4816 -96.1621,230.7989 -14.887,19.1394 -23.2204,28.3511 -44.9621,49.7011 -25.4533,24.9947 -26.5123,26.5453 -22.9007,33.5295 3.1278,6.0483 21.7746,16.4442 40.9848,22.8496 21.2465,7.0844 41.4804,9.5555 72.5,8.8544 l 22.5,-0.5086 15,-4.1863 c 36.5599,-10.2035 64.2988,-22.0097 84.3918,-35.9189 8.5667,-5.9302 18.1082,-13.4171 18.1082,-14.2088 0,-0.3385 -2.0588,-5.5194 -4.5752,-11.5132 -28.427,-67.7105 -42.1178,-123.2868 -45.6041,-185.1255 -2.1122,-37.4664 3.1407,-99.1034 11.3075,-132.6807 17.0382,-70.0515 53.5605,-131.1124 105.3718,-176.169 21.126,-18.3718 40.8996,-29.7747 66.6254,-38.4211 35.3887,-11.8941 70.4235,-11.517 107.2167,1.1541 24.0427,8.28 41.6397,18.8378 57.2261,34.3343 28.5341,28.3697 46.173,69.299 53.4435,124.0102 7.3323,55.1762 4.4626,94.064 -11.18,151.5 -17.0077,62.4483 -25.8635,82.773 -59.5417,136.6533 -23.3668,37.3836 -41.8197,60.2232 -75.4881,93.4337 -14.8351,14.6334 -15.8019,15.817 -15.8019,19.3456 0,5.3543 2.9484,8.8772 12.6881,15.1604 15.1897,9.799 30.5347,16.4292 50.8119,21.9545 9.5342,2.598 10.7299,2.6967 25.6703,2.1186 35.6746,-1.3803 66.2461,-9.2034 86.9557,-22.2515 l 4.6259,-2.9146 -2.374,-7.9374 c -2.7636,-9.2399 -6.7344,-28.9702 -8.5659,-42.5626 -1.6501,-12.2467 -1.6288,-52.1427 0.036,-66.5 5.9776,-51.5631 22.6605,-103.9004 50.7164,-159.1066 18.1811,-35.7755 36.9627,-62.0388 61.0669,-85.3934 33.3608,-32.3233 69.5451,-53.9571 105.8691,-63.2967 34.9525,-8.987 62.1468,-8.276 94,2.4577 27.2576,9.185 52.134,24.6636 74.3222,46.2446 11.0447,10.7424 15.8714,16.94 28.4996,36.5944 5.8307,9.075 11.6746,17.8169 12.9863,19.4264 l 2.385,2.9264 3.4965,-2.161 c 5.1622,-3.1904 9.9367,-7.1337 20.7681,-17.1527 20.6938,-19.1415 23.1802,-20.5391 36.5423,-20.5391 11.6722,0 16.3351,1.443 26.8416,8.3062 11.9806,7.8262 22.308,22.8748 26.2114,38.1938 2.5304,9.9308 1.5714,26.3889 -2.0395,35 -8.2518,19.6789 -17.9021,30.9772 -54.0135,63.2373 -7.7,6.8788 -16.5156,15.152 -19.5903,18.3848 l -5.5902,5.8779 -0.6955,9.9716 c -2.7749,39.7839 -12.5139,84.3824 -26.668,122.123 -35.1842,93.8151 -108.3674,162.9062 -190.456,179.8065 -25.6669,5.2843 -66.4056,4.2157 -92.7023,-2.4317 -15.8926,-4.0174 -40.8567,-13.943 -52.8955,-21.031 -7.7156,-4.5427 -7.9614,-4.5314 -19.6658,0.9041 -35.7015,16.5795 -75.027,28.0998 -111.7364,32.7328 -15.8134,1.9958 -47.0874,2.2814 -61,0.557 -32.7124,-4.0545 -71.1635,-14.4985 -102.3667,-27.8046 -19.1951,-8.1855 -52.8404,-25.858 -69.1333,-36.3129 -2.475,-1.5882 -6.4482,-4.0295 -8.8294,-5.4252 l -4.3293,-2.5375 -6.1707,2.8553 c -3.3938,1.5704 -11.3456,5.3409 -17.6706,8.3789 -62.3457,29.9451 -120.7163,48.6379 -174,55.7221 -20.1211,2.6752 -58.8649,3.7402 -75.5,2.0755 -26.9946,-2.7016 -52.077,-8.1945 -81,-17.7387 -37.0667,-12.2315 -66.0291,-26.9397 -85.7801,-43.5623 l -3.7801,-3.1814 -7.7199,1.1343 c -6.5639,0.9644 -10.9393,2.6996 -29.2199,11.5882 -38.0275,18.4901 -68.8761,29.4356 -114.4216,40.5984 -37.1431,9.1034 -59.1227,12.9547 -85.9736,15.0644 -11.6116,0.9123 -71.67224,1.1429 -84.1048,0.3229 z m 1260.591,-119.3933 c 52.6596,-6.7855 96.8025,-50.3172 107.3371,-105.8508 0.8645,-4.5576 1.5719,-10.7738 1.5719,-13.8137 v -5.5273 l -5.75,0.6571 c -3.1625,0.3613 -13.4,2.099 -22.75,3.8614 -28.2231,5.3198 -52.0905,4.0746 -75.5,-3.9387 -8.0258,-2.7474 -20.7321,-8.8263 -27.4095,-13.1133 -5.2985,-3.4017 -18.5434,-14.3511 -20.9952,-17.3564 -6.161,-7.5521 -23.894,-27.0813 -28.4526,-31.3347 -6.1106,-5.7014 -13.9708,-11.5 -15.5887,-11.5 -2.538,0 -13.1947,20.8781 -17.8825,35.0349 -9.7122,29.3295 -7.4037,75.7131 5.2234,104.953 12.8862,29.8399 43.4795,53.2701 75.6051,57.903 8.657,1.2484 15.0495,1.255 24.591,0.026 z m -910.7861,-116.0842 c 26.668,-17.9409 52.3431,-47.809 85.3876,-99.3322 27.1136,-42.2758 42.629,-92.7712 46.2388,-150.4855 3.5618,-56.947 -11.257,-99.3357 -40.0235,-114.4859 -8.8264,-4.6485 -16.5879,-6.531 -26.8679,-6.5167 -14.0879,0.019 -24.5229,3.9601 -39.0399,14.7424 -22.4499,16.6743 -39.1238,40.63 -51.3293,73.7457 -24.0343,65.2093 -29.7444,134.9643 -16.6431,203.3116 4.8651,25.3806 15.2917,53.4171 26.4951,71.2443 1.5361,2.4442 3.8526,6.1316 5.1477,8.1941 1.2951,2.0625 2.8237,3.75 3.397,3.75 0.5733,0 3.8301,-1.8755 7.2375,-4.1678 z M 1766,3178.2764 c 4.876,-1.4669 7.0747,-3.1932 19.3794,-15.2155 57.3807,-56.0638 86.2459,-103.5352 106.1423,-174.5609 1.4565,-5.1993 3.5359,-13.5155 9.6266,-38.5 0.968,-3.971 1.3376,-13.7011 1.3292,-35 -0.011,-27.0108 -0.2051,-30.386 -2.3045,-40 -2.6801,-12.2731 -7.7059,-25.2169 -12.7284,-32.7813 -6.2398,-9.3978 -17.8262,-20.646 -25.3265,-24.5873 -16.7726,-8.8137 -37.391,-8.8569 -54.015,-0.113 -32.2756,16.9763 -53.7941,48.5568 -72.5549,106.4816 -13.3298,41.1561 -16.7642,80.9171 -12.4384,144 0.7002,10.2119 2.3047,20.7103 5.4255,35.5 7.3535,34.8493 13.7082,54.4526 23.1239,71.3343 3.9425,7.0685 3.0214,6.8475 14.3408,3.4421 z m -896,-4.8992 c 26.95196,-5.3955 62.52053,-24.1263 101.78854,-53.603 26.51677,-19.9049 46.36406,-48.1316 51.76696,-73.6227 3.0524,-14.4013 1.1578,-35.07 -4.1567,-45.3471 -2.016,-3.8985 -17.5094,-11.4889 -26.64528,-13.0538 -16.30505,-2.7929 -45.70279,6.545 -66.70654,21.1888 -14.32867,9.99 -36.27857,33.2075 -48.09836,50.8761 -21.1253,31.5788 -31.06,64.5214 -29.61016,98.1845 0.81461,18.9139 0.56863,18.3781 8.05763,17.5519 3.35715,-0.3703 9.47891,-1.3489 13.60391,-2.1747 z M 2317,3069.609 c 9.7571,-1.588 22.6492,-6.279 29.2228,-10.6332 4.9952,-3.3087 5.7456,-5.4257 5.7662,-16.268 0.036,-18.9966 -9.1912,-39.7512 -24.6637,-55.4751 -13.5786,-13.7992 -23.1652,-18.0379 -42.8253,-18.9352 -21.4531,-0.9792 -37.114,4.1313 -48.9591,15.9764 -9.5144,9.5144 -12.3474,16.7298 -10.5332,26.8271 3.0621,17.0432 13.8498,34.9489 27.5971,45.8063 9.7398,7.6923 19.6859,11.4111 35.8952,13.421 7.2208,0.8954 20.6634,0.5561 28.5,-0.7193 z m 613,337.7625 c -5.4005,-1.0342 -13.417,-3.5896 -18.3363,-5.8451 -12.3931,-5.6821 -18.9025,-13.4159 -22.8946,-27.2007 -2.0762,-7.1693 -2.2626,-9.797 -2.222,-31.3257 0.058,-30.5014 2.5374,-62.2535 10.0181,-128.2693 2.7889,-24.6115 3.4315,-33.8087 3.2107,-45.957 l -0.2759,-15.1878 -11.0398,-1.646 c -19.4698,-2.9029 -27.0456,-6.531 -38.0386,-18.2166 -12.3276,-13.1044 -17.7809,-27.1302 -17.5958,-45.2564 0.1618,-15.8451 6.7408,-30.1732 17.8629,-38.9025 12.1301,-9.5205 23.1359,-13.7652 47.8113,-18.4399 24.4503,-4.632 23.5303,-4.3805 24.0045,-6.5636 2.3718,-10.9187 11.5967,-88.1908 19.998,-167.5131 9.8564,-93.0605 11.9887,-108.0669 17.5108,-123.2303 5.8602,-16.0919 12.9688,-22.781 30.201,-28.4187 10.6483,-3.4836 27.9141,-3.9364 36.7857,-0.9646 14.2103,4.7601 24.3213,12.9957 27.4241,22.3374 6.1882,18.6309 3.0434,64.608 -11.5069,168.2284 -8.1812,58.2627 -13.9172,107.2691 -13.9172,118.9034 0,2.7231 2.5188,3.6919 13.3435,5.1324 11.0041,1.4644 22.0877,0.1625 47.4376,-5.5721 30.3717,-6.8705 45.3459,-11.994 67.4408,-23.075 32.4167,-16.2576 61.8358,-37.9821 94.627,-69.8772 16.9211,-16.4588 28.5356,-31.2945 47.7643,-61.0115 7.7966,-12.0491 27.5478,-45.5139 38.3636,-65 1.8317,-3.3 4.2254,-7.575 5.3194,-9.5 1.094,-1.925 4.8409,-8.5811 8.3265,-14.7913 15.9379,-28.3966 20.7724,-35.506 28.5864,-42.0373 9.3895,-7.8482 19.8246,-11.925 32.7781,-12.8057 23.7311,-1.6134 41.9012,10.6397 47.6514,32.1343 1.8156,6.7867 1.7053,21.9194 -0.228,31.2793 -4.3308,20.9664 -19.7425,55.4276 -35.8762,80.2207 -1.2527,1.925 -7.3966,11.375 -13.6531,21 -23.6543,36.3895 -52.0264,72.458 -84.5613,107.5 -22.8737,24.6363 -54.4307,52.4402 -81.1195,71.4718 -5.6647,4.0395 -10.6749,8.0608 -11.1338,8.9364 -0.459,0.8755 -1.1277,3.3918 -1.4861,5.5918 l -0.6517,4 15.7856,9.9485 c 42.9964,27.0976 63.775,46.965 88.4296,84.5515 15.789,24.0708 34.5257,61.0871 47.9401,94.711 20.1347,50.4687 23.9348,63.7703 23.8914,83.627 -0.03,13.6505 -0.9349,17.8797 -6.0464,28.2582 -5.3181,10.7977 -14.4495,20.0686 -24.8138,25.1925 -6.4917,3.2094 -8.6372,3.7593 -15.8661,4.0662 -14.6835,0.6233 -26.5618,-4.1607 -36.3761,-14.6505 -7.8,-8.337 -12.7237,-18.8147 -26.8818,-57.2044 -6.1866,-16.775 -13.0011,-34.9232 -15.1435,-40.3293 -21.7186,-54.8068 -49.9317,-94.6565 -79.4818,-112.2642 -9.3138,-5.5497 -35.4017,-17.2809 -51.0486,-22.9555 -28.4961,-10.3345 -51.6523,-14.7685 -77.3175,-14.805 -20.4746,-0.029 -31.2581,1.5377 -47.9331,6.9648 -8.4456,2.7487 -11.4519,4.1803 -12.1217,5.7722 -3.2936,7.828 -9.0357,52.6303 -12.9598,101.117 -4.1421,51.1809 -8.9547,89.7122 -13.0518,104.497 -5.5722,20.1081 -19.1171,35.3902 -36.7614,41.4764 -4.5494,1.5692 -17.9147,2.7134 -22.1722,1.8981 z m 583.1482,-7.3372 c -19.2478,-3.0234 -37.4805,-16.3391 -43.0585,-31.4464 -3.2206,-8.7225 -2.8843,-24.9473 1.3717,-66.1745 8.1178,-78.6368 24.5223,-193.2765 29.5984,-206.8437 3.6083,-9.6441 12.8028,-20.1592 21.4402,-24.5197 9.9754,-5.036 30.9696,-8.0441 43.743,-6.2675 11.2172,1.5601 14.3161,2.5672 21.8165,7.09 11.1307,6.712 17.548,18.9314 20.0387,38.157 1.5387,11.8772 0.4148,32.333 -3.5973,65.4705 -1.8645,15.4 -5.0076,42.175 -6.9846,59.5 -4.5192,39.6021 -8.6629,69.158 -13.1087,93.5 -6.2938,34.4607 -10.5168,47.5668 -18.2012,56.4878 -9.311,10.8095 -34.5202,17.9584 -53.0582,15.0465 z m 34.132,-392.9558 c -8.6859,-2.1345 -16.9928,-6.133 -27.9393,-13.4484 -10.3846,-6.94 -13.4851,-9.727 -19.0492,-17.1235 -16.4403,-21.8542 -18.7764,-47.0453 -6.6994,-72.2406 13.2601,-27.6636 52.616,-48.9126 87.0411,-46.995 12.1265,0.6754 19.5299,2.6174 29.6843,7.7864 25.4605,12.9605 38.0538,31.468 39.364,57.8509 1.8309,36.8652 -19.1973,67.3921 -55.8186,81.0328 -13.9663,5.2021 -32.9723,6.4822 -46.5829,3.1374 z M 2560.5,2379.3312 c -45.5342,-0.9059 -119.8067,-4.7132 -172.7639,-8.8562 -73.7045,-5.7661 -205.6541,-19.3674 -267.2361,-27.5465 -139.7365,-18.5594 -241.7212,-46.4666 -377,-103.1627 -76.7627,-32.1717 -172.0249,-89.8944 -266.8709,-161.7064 -28.1336,-21.3012 -26.6205,-20.1385 -39.1207,-30.0594 -20.0724,-15.9305 -23.0094,-18.0527 -29.3539,-21.2104 -8.7991,-4.3793 -20.3036,-5.0834 -29.4251,-1.8007 -35.3149,12.7093 -79.5579,36.9383 -153.7294,84.1875 -27.0627,17.2397 -34.1192,21.6382 -49,30.5428 -32.9758,19.7328 -36.6894,21.298 -50.4315,21.2564 -8.8344,-0.027 -13.6186,-0.9 -21.8927,-3.9957 l -5.4446,-2.0371 -2.2079,-8.7214 c -5.1065,-20.1712 -3.7187,-30.5609 5.7735,-43.2214 13.7582,-18.3504 33.7975,-36.1584 61.2032,-54.3884 17.6608,-11.7479 24.5509,-15.8261 85.955,-50.8773 28.4771,-16.2556 56.1383,-33.3295 60.5651,-37.3841 4.5738,-4.1891 7.552,-8.7902 9.0703,-14.0133 2.8093,-9.6636 2.0407,-11.5935 -14.9532,-37.5444 -21.7573,-33.2252 -45.0952,-71.606 -67.4203,-110.8777 -8.3588,-14.7036 -24.0926,-23.4647 -45.7169,-25.4566 -12.8566,-1.1842 -25.0552,1.2197 -106.8081,21.0485 -33.0005,8.0041 -48.4664,10.2117 -61.1919,8.7345 -11.475,-1.332 -20.5818,-4.9705 -27.42635,-10.958 -7.8391,-6.8574 -9.7015,-13.0066 -6.86521,-22.6672 1.51155,-5.1484 6.85216,-14.4196 9.94992,-17.2728 7.54644,-6.9505 35.07534,-21.5725 55.84164,-29.6603 19.6497,-7.6529 30.7498,-11.0947 84.3025,-26.1393 10.8913,-3.0597 22.0682,-6.7112 24.8375,-8.1145 7.2387,-3.6682 13.248,-10.0703 15.3267,-16.3289 2.024,-6.0937 1.7974,-7.9126 -3.0052,-24.1236 -5.1592,-17.4147 -12.5507,-48.6649 -20.454,-86.4766 -8.823,-42.2119 -18.5011,-81.5267 -21.5619,-87.59 -1.2744,-2.5245 -3.879,-5.9613 -5.7879,-7.6374 -3.9018,-3.4258 -13.3811,-6.8056 -21.7185,-7.7436 -6.0098,-0.6761 -33.0568,1.0789 -77.4392,5.0248 -15.4,1.3692 -36.55,3.1629 -47,3.9861 -10.45,0.8232 -27.775,2.6024 -38.5,3.9537 -45.63513,5.7501 -61.27603,6.798 -81.3509,5.4503 -15.97569,-1.0724 -18.26568,-1.7714 -23.28715,-7.1086 -5.60424,-5.9565 -6.80667,-9.3889 -6.7736,-19.3353 0.0365,-10.9635 2.97356,-19.0456 10.21676,-28.114 4.16357,-5.2128 6.11197,-6.5967 17.03473,-12.0995 25.27486,-12.7334 53.00721,-19.1288 105.16016,-24.251 28.54104,-2.8032 35.33736,-3.5318 70,-7.5043 16.775,-1.9224 41.3511,-4.5851 54.6136,-5.9171 26.1027,-2.6215 28.2669,-3.2195 33.1676,-9.1649 5.2844,-6.4109 6.2205,-11.4374 6.2039,-33.314 -0.02,-25.744 4.0516,-84.3026 8.1087,-116.6352 11.7419,-93.5765 38.2703,-186.1938 81.3461,-284 9.5404,-21.66209 34.6415,-71.576 48.5286,-96.5 14.2193,-25.52018 16.4136,-31.04333 15.8135,-39.80236 -0.2148,-3.1337 -4.4972,-20.54764 -9.5165,-38.69764 -22.9641,-83.03829 -33.0304,-132.23898 -38.4643,-188 -1.6317,-16.7438 -1.5913,-68.51183 0.069,-88 6.6993,-78.64874 22.2774,-145.43741 49.098,-210.5 6.9558,-16.87369 25.3421,-53.8662 33.7978,-68 8.029,-13.42036 23.5337,-36.89451 30.053,-45.5 12.7522,-16.83319 23.9471,-29.96688 29.4963,-34.60491 38.5416,-32.21258 95.7818,-45.380726 162.685,-37.42578 35.1009,4.173577 59.4824,9.306218 126.5,26.63002 50.9462,13.16939 92.4267,26.74693 155.9466,51.04491 18.9739,7.258 62.3015,24.9866 73.5534,30.09622 2.475,1.12393 9.45,4.18054 15.5,6.79247 13.2315,5.71238 20.9616,9.33725 55.5022,26.02674 28.2157,13.63343 38.1542,17.18282 53.319,19.04217 11.6685,1.43067 18.7259,0.81814 47.6788,-4.13814 105.9712,-18.14057 207.5987,-28.95002 315,-33.50448 8.525,-0.36151 15.9777,-1.04745 16.5616,-1.52432 1.4517,-1.18569 97.2142,-2.91217 162.2216,-2.92466 l 53.2833,-0.0102 4.7167,-2.47254 c 2.5943,-1.3599 5.8467,-3.4974 7.2277,-4.75 3.1133,-2.82392 11.9605,-13.9852 18.4512,-23.27746 16.2867,-23.31655 38.8774,-49.70572 61.6795,-72.050305 58.7641,-57.585163 119.2523,-87.4142173 187.5235,-92.4750036 39.8176,-2.9515869 84.8367,6.0772296 120.8349,24.2340746 46.0497,23.22667 95.5258,67.879066 136.2041,122.924754 6.0377,8.17021 7.816,9.89971 11.7076,11.38591 8.5498,3.2652 14.1869,1.23368 41.5883,-14.98788 24.1292,-14.28442 83.0179,-45.3382 109.5321,-57.759563 66.3388,-31.078354 126.7904,-51.726226 184.9679,-63.177694 27.2977,-5.373189 42.2554,-6.808456 71.5,-6.860779 45.5074,-0.08142 62.5304,3.095078 88.1265,16.444485 38.9373,20.30737 72.1944,65.212021 101.4984,137.045851 33.7818,82.81034 50.0327,156.15959 56.4148,254.63191 1.4065,21.70101 4.0558,33.13079 7.6855,33.15711 4.0982,0.0297 29.734,9.52484 41.7748,15.4727 36.078,17.8217 60.222,41.3312 76.012,74.01443 14.6589,30.34198 19.8893,56.34042 19.8162,98.5 -0.07,40.60984 -5.3805,79.54427 -17.3209,127 -17.3097,68.79545 -40.3298,125.84722 -75.7594,187.75818 -5.7467,10.04199 -11.0784,20.35101 -11.8482,22.90893 -0.7698,2.55791 -1.3997,8.34617 -1.3997,12.86278 0,7.31827 0.9323,11.46387 8.5662,38.09107 20.9747,73.1598 36.5265,147.6107 45.4486,217.5758 1.1435,8.9668 2.7432,19.2282 3.555,22.8032 2.0984,9.2408 6.3324,21.69 7.7373,22.7499 4.9552,3.7383 20.933,4.9092 44.5494,3.2648 14.6538,-1.0204 21.3185,-1.0473 31.1435,-0.1258 6.875,0.6449 34.775,1.8209 62,2.6134 79.5399,2.3152 104.797,5.6668 133.3407,17.6941 6.7174,2.8305 20.8697,12.0807 25.3739,16.5848 3.9908,3.9909 6.8818,9.8423 7.848,15.8851 1.4216,8.89 -4.8102,20.8591 -12.8361,24.6535 -4.2468,2.0077 -31.4509,5.3446 -55.2265,6.7741 -21.4477,1.2896 -59.231,0.5924 -89,-1.6423 -68.0077,-5.1052 -102.6542,-4.0055 -135.9936,4.3168 l -10.9936,2.7442 -3.1095,5.2036 -3.1095,5.2036 -0.5826,26.2901 c -0.6087,27.4672 -1.8155,40.2144 -8.1346,85.9255 -4.6521,33.6529 -6.42,49.6885 -7.2074,65.3762 -0.6012,11.977 -0.4863,13.3386 1.445,17.1242 1.154,2.2619 3.5279,5.3157 5.2755,6.7862 6.7861,5.7102 9.9361,6.5547 41.5425,11.1375 35.6006,5.1619 54.1962,8.2504 74.8678,12.4346 43.3354,8.7715 77.4301,21.0187 106.7378,38.3413 l 8.7378,5.1646 -0.01,15 -0.01,15 -7.3801,3.2514 c -17.1841,7.5706 -18.3211,7.7561 -47.0818,7.6783 -27.3379,-0.074 -35.3444,-0.7785 -84.5,-7.4366 -51.4599,-6.9702 -79.0942,-9.0087 -100.042,-7.3799 -11.4031,0.8867 -12.9468,1.2451 -17,3.947 -6.442,4.2943 -11.8786,13.1479 -18.4645,30.07 -6.0621,15.5758 -14.8783,36.9391 -23.2627,56.3698 -16.1574,37.4443 -25.6511,58.8803 -29.2269,65.9922 -5.7702,11.4765 -7.8104,17.0366 -9.0128,24.5634 -1.6213,10.149 -0.7882,12.6001 5.8558,17.2296 7.9827,5.5623 19.0114,12.0686 30.6531,18.0837 10.399,5.373 59.4583,29.1311 60.1542,29.1311 1.1254,0 61.7905,30.7442 73.8458,37.424 18.4049,10.1981 47.2434,29.4891 52.3248,35.0017 10.8943,11.819 13.6456,28.9275 7.5701,47.0743 -2.6615,7.9496 -4.1984,9.5345 -12.1199,12.4983 -8.8368,3.3063 -16.3834,3.6055 -27.3382,1.0838 -26.6019,-6.1233 -45.6137,-13.6108 -104.9368,-41.3277 -12.375,-5.7818 -27.7875,-12.5918 -34.25,-15.1334 -6.4625,-2.5415 -16.8404,-6.6301 -23.062,-9.0857 -6.2216,-2.4556 -17.402,-7.3721 -24.8452,-10.9257 -7.4433,-3.5536 -19.1154,-8.3871 -25.938,-10.7412 -11.8643,-4.0938 -12.9276,-4.2822 -24.4048,-4.3243 -11.6927,-0.043 -12.1537,0.039 -18,3.2179 -7.2107,3.9202 -13.9855,10.3255 -34.681,32.7893 -42.8167,46.4753 -96.2116,92.1437 -163.819,140.1136 -30.8171,21.8659 -54.041,37.1 -72.5,47.5574 -4.4,2.4927 -9.8,5.5548 -12,6.8046 -7.9963,4.5426 -42.2767,21.3442 -55.4718,27.1879 -98.8139,43.7617 -240.3257,84.6552 -350.0282,101.1499 -147.9293,22.2423 -190.1883,26.8672 -298,32.6135 -48.6364,2.5923 -127.9617,3.5773 -189.5,2.353 z M 2662,2275.9338 c 158.5087,-4.3317 285.3918,-17.1591 400.0495,-40.4435 15.0978,-3.066 37.4379,-7.5775 49.6448,-10.0256 102.1832,-20.4928 189.3789,-50.3142 277.8057,-95.011 88.8099,-44.8905 167.5353,-100.7993 209.0849,-148.4872 9.8342,-11.287 22.2439,-27.7753 22.9869,-30.5419 0.3107,-1.157 -0.5244,-4.5217 -1.8873,-7.6033 l -2.4447,-5.5279 -14.6405,-7.6234 c -18.131,-9.441 -25.1966,-14.1984 -33.666,-22.6677 -8.554,-8.554 -13.4066,-17.9612 -13.3848,-25.9474 0.028,-10.2957 8.5761,-21.7673 20.4515,-27.4464 6.3158,-3.0204 6.8827,-3.1064 20,-3.0329 8.6218,0.048 16.0294,0.6598 20.5,1.6923 3.85,0.8893 13.6733,3.1963 21.8296,5.1269 8.1563,1.9305 19.254,4.0462 24.6616,4.7016 8.6852,1.0527 10.4547,0.9912 15.1704,-0.5267 11.2343,-3.6162 12.3518,-4.8759 27.1186,-30.5697 25.4217,-44.2331 45.9902,-89.5663 55.5805,-122.5 4.4237,-15.1914 3.8192,-21.9398 -2.459,-27.4521 -4.5474,-3.9928 -7.7051,-5.2413 -24.1583,-9.5525 -33.5256,-8.7845 -44.9191,-14.2623 -54.3511,-26.131 -7.4818,-9.4145 -5.6504,-22.1943 4.6824,-32.6752 6.1062,-6.1936 12.0053,-9.4264 21.6527,-11.866 8.6859,-2.1965 9.6607,-2.2002 54.4133,-0.2044 11.2566,0.502 15.6417,0.2946 21.5,-1.017 4.0476,-0.9062 7.9721,-2.0324 8.7211,-2.5028 3.1652,-1.9878 15.3139,-72.4558 19.1534,-111.099 1.4246,-14.3377 2.4386,-57.9459 1.5421,-66.3136 -0.89,-8.3063 -4.1515,-12.6787 -11.2655,-15.1026 -6.6129,-2.2533 -11.695,-2.0115 -39.2918,1.8694 -70.0218,9.847 -97.8283,12.9069 -104.9745,11.5516 -10.5533,-2.0013 -19.6944,-8.193 -26.2719,-17.795 -4.5687,-6.6695 -6.0865,-11.9305 -5.5564,-19.259 1.0893,-15.0594 12.9728,-25.5731 37.719,-33.3711 14.2254,-4.4827 70.6281,-16.363 88.0838,-18.5535 45.6004,-5.7222 55.521,-9.6116 60.5628,-23.7438 2.1394,-5.9969 1.7691,-10.2604 -4.1274,-47.5117 -11.1953,-70.728 -22.6667,-126.8804 -33.0926,-161.9883 l -1.4967,-5.0397 -5.594,0.6575 c -7.2544,0.8526 -12.2026,3.1065 -24.0552,10.9571 -38.288,25.3603 -76.4519,40.1922 -120.6596,46.8931 -16.6594,2.5251 -52.8424,3.0158 -68.5373,0.9294 -66.3318,-8.8179 -123.5091,-42.0383 -171.7596,-99.7935 -25.0793,-30.0196 -49.5392,-70.26434 -66.1788,-108.8863 -2.3696,-5.5 -4.5905,-10.31511 -4.9352,-10.70023 -0.3448,-0.38513 -7.1518,0.17157 -15.1266,1.23712 -37.4088,4.99829 -71.0194,6.43736 -91.0908,3.90013 -48.0451,-6.07337 -101.7537,-29.09518 -140.909,-60.39955 -15.9901,-12.78398 -35.8466,-33.79918 -47.5401,-50.31428 -5.3706,-7.58497 -11.0956,-8.8394 -20.9599,-4.5926 -51.7956,22.29909 -90.1949,33.26092 -143,40.82222 -33.7794,4.83695 -77.6753,6.80032 -103.5842,4.6331 -69.1672,-5.7857 -122.8687,-27.26139 -163.7605,-65.48913 -21.9431,-20.5135 -36.4721,-39.61834 -49.8855,-65.59678 -16.4231,-31.80745 -27.6886,-70.39999 -31.818,-109 -8.6212,-80.58808 6.9671,-170.34499 48.6727,-280.25493 8.0836,-21.30331 9.6835,-28.99967 6.5663,-31.58676 -0.7201,-0.59762 -5.6893,-1.86265 -11.0426,-2.81118 -8.7192,-1.54494 -11.6301,-1.59687 -27.9407,-0.4985 -10.0141,0.67436 -31.9325,1.64329 -48.7075,2.15318 -155.6863,4.73221 -293.367,17.71657 -387.9083,36.58275 -34.3461,6.85394 -51.0439,8.73332 -72.0917,8.11408 -18.5803,-0.54665 -24.1442,-1.32831 -38.5,-5.40882 -12.1793,-3.46185 -20.1043,-7.30823 -54,-26.20848 -104.698,-58.37967 -205.6422,-98.54641 -306.5,-121.95945 -47.1318,-10.94115 -68.9553,-13.67771 -102,-12.79032 -27.741,0.74496 -38.8667,3.02139 -55.4979,11.35536 -13.803,6.91677 -22.0795,14.03289 -32.93,28.31307 -36.281,47.74919 -61.3216,105.11751 -75.949,174 -10.2325,48.18652 -15.9831,119.1837 -12.5953,155.5 3.3593,36.00911 11.8913,69.38289 26.5951,104.02849 5.8257,13.72676 6.8319,15.47151 8.9224,15.47151 6.1671,0 14.1956,-2.74215 27.9547,-9.54793 19.1918,-9.49303 22.6004,-10.41612 29.9303,-8.10558 11.0884,3.49531 21.1098,11.4377 26.6762,21.1419 4.161,7.25408 3.7638,17.80104 -1.2759,33.87656 -2.3347,7.44701 -6.4029,13.87906 -33.2918,52.63505 -21.5024,30.99236 -22.7584,32.85674 -35.703,53 -31.0319,48.28906 -41.8744,69.58173 -73.3267,144 -43.7165,103.4362 -70.3226,216.5639 -77.4939,329.5 -0.5937,9.35 -1.28,19.025 -1.5252,21.5 -0.2451,2.475 -0.7438,10.805 -1.1082,18.5111 -0.7883,16.6689 0.4633,22.6114 6.1652,29.2728 6.8944,8.0545 12.93,10.226 33.953,12.2153 6.05,0.5724 23.15,3.0433 38,5.4908 14.85,2.4475 32.175,4.9496 38.5,5.5602 8.6584,0.836 15.577,2.3458 28,6.1102 28.2754,8.568 39.7393,15.4756 45.6153,27.4858 3.1087,6.3538 2.8965,9.3923 -1.2469,17.8541 -3.9127,7.9909 -9.4796,13.916 -16.154,17.1935 l -5.7144,2.8062 -40,-0.024 c -31.3986,-0.019 -43.9782,-0.4215 -58.5,-1.8706 -27.3081,-2.7252 -39.6223,-1.5096 -46.5784,4.598 -4.6743,4.1041 -6.1579,7.214 -7.4674,15.6539 -2.1881,14.1028 3.0837,54.1669 11.5029,87.4187 6.9592,27.4856 19.298,62.8937 29.9617,85.9799 3.8628,8.3627 3.6186,8.2144 16.0812,9.7629 9.394,1.1672 44.1842,-0.8857 62,-3.6585 19.4713,-3.0305 34.159,-3.9344 41.5,-2.5539 20.0042,3.7618 29.4947,13.1825 29.4104,29.194 -0.047,8.8343 -2.7275,15.5028 -7.7451,19.2654 -4.3924,3.2937 -20.863,9.6561 -42.1653,16.2881 -37.0586,11.5373 -45.6016,14.5968 -48.938,17.5262 -3.4923,3.0663 -9.562,13.5466 -9.562,16.5103 0,2.9841 14.1769,31.0179 23.5012,46.472 4.7911,7.9409 12.549,20.063 17.2397,26.938 12.2431,17.9445 39.239,53.8523 43.7569,58.2021 11.3381,10.9161 31.1946,15.3937 49.6502,11.1961 6.3566,-1.4458 18.7745,-6.2038 32.352,-12.3958 10.4644,-4.7722 23.7827,-9.4461 37.5,-13.1599 7.2371,-1.9594 10.9515,-2.3044 25,-2.3219 16.1747,-0.02 16.5789,0.032 20.5,2.6204 8.8105,5.817 14.8323,15.1124 16.524,25.5067 1.5788,9.7004 -0.6019,14.9068 -10.241,24.4501 -5.8298,5.7718 -14.8743,11.3781 -35.1792,21.8061 -27.8515,14.3037 -34.8794,19.9783 -37.6958,30.4377 -0.5717,2.1232 -0.8974,3.9823 -0.7237,4.1315 6.509,5.5922 70.5803,50.8645 97.8157,69.1159 51.6482,34.6112 114.9053,70.5802 158.5,90.1255 3.85,1.7261 10.375,4.6818 14.5,6.5682 23.7057,10.8408 62.3586,24.9255 98,35.7102 10.725,3.2452 27.6,8.3574 37.5,11.3602 84.5584,25.6485 162.1744,43.9398 231.5,54.5563 66.1207,10.1257 188.0065,21.4321 286,26.5302 80.4065,4.1831 144.0529,4.8703 231,2.4942 z M 2518,1886.386 c -32.3876,-3.9197 -59.728,-11.6635 -84,-23.7919 -12.0789,-6.0357 -16.0176,-8.7039 -24.1297,-16.3463 -14.7016,-13.8501 -25.3413,-32.8278 -29.0122,-51.7478 -1.769,-9.118 -1.7513,-33.0188 0.031,-42 9.2458,-46.5854 44.2214,-78.4635 101.4096,-92.4285 35.9256,-8.7728 63.9646,-9.1961 98.4503,-1.4864 47.3123,10.5773 85.4156,35.0782 100.9542,64.9149 8.3741,16.0798 12.3935,38.4438 10.3109,57.3702 -3.6708,33.3594 -19.2823,61.3131 -43.6493,78.1581 -14.0637,9.7222 -41.2033,19.6504 -67.2159,24.589 -11.7158,2.2242 -16.907,2.6338 -36.6491,2.8918 -12.65,0.1653 -24.575,0.1099 -26.5,-0.1231 z m 48.8495,-60.926 c 22.8542,-3.4775 41.266,-13.5284 50.025,-27.3084 3.8885,-6.1175 5.108,-11.0874 5.2181,-21.2638 0.1153,-10.672 -2.1414,-19.5592 -7.0818,-27.8878 -8.8353,-14.8949 -23.893,-24.587 -46.0048,-29.6114 -14.7241,-3.3457 -57.6905,-2.6652 -72.5942,1.1498 -14.5791,3.732 -30.32,13.8005 -38.6671,24.7333 -6.1432,8.046 -8.885,15.2654 -9.5096,25.039 -1.8384,28.7697 22.9815,51.2099 62.2649,56.2947 12.5494,1.6244 42.093,1.0239 56.3495,-1.1454 z M 3198,1680.3388 c -24.0581,-2.3545 -46.1334,-13.2808 -64.3267,-31.8388 -19.1902,-19.5749 -27.931,-45.9 -30.2149,-91 -2.1374,-42.2072 7.1567,-76.066 27.9987,-102 15.3758,-19.1323 38.3523,-33.1799 58.3369,-35.6665 12.4477,-1.5489 33.0768,-0.4241 41.214,2.2472 19.6372,6.4466 37.1644,21.6014 50.2163,43.4193 21.705,36.2825 24.998,93.9954 8.2734,145 -11.0972,33.8429 -36.5158,60.3045 -64.7487,67.4056 -7.3989,1.8609 -20.4582,3.0489 -26.749,2.4332 z m -1387.5,-4.0473 c -7.6713,-1.0456 -23.6731,-5.6751 -30,-8.6794 -23.3072,-11.0675 -39.8591,-34.0844 -48.621,-67.6121 -7.2432,-27.7163 -6.2689,-75.3907 2.1603,-105.7124 10.5929,-38.1047 35.1806,-65.2365 68.9607,-76.096 28.2403,-9.0786 60.6745,-2.4435 84.1115,17.2068 9.3521,7.8411 14.5888,14.6833 20.7423,27.1016 6.3585,12.832 9.4232,21.9863 12.5795,37.5749 11.2212,55.4196 5.186,104.2447 -17.0593,138.0114 -17.9631,27.2665 -41.2712,39.142 -76.0818,38.7639 -7.5857,-0.082 -15.1422,-0.3339 -16.7922,-0.5587 z M 3613,1076.1045 c 43.9176,-9.1388 82.9934,-32.2271 124.5627,-73.5991 26.7165,-26.58967 48.3621,-54.44941 73.5413,-94.65403 39.9585,-63.80325 70.2127,-148.86399 73.9282,-207.85137 1.2198,-19.36472 1.1811,-70.1345 -0.062,-82 -2.8478,-27.1727 -16.0003,-51.36062 -36.3569,-66.86173 -17.0042,-12.94839 -48.4453,-22.61703 -86.6128,-26.63484 -31.2942,-3.29428 -122.6638,-2.7488 -150,0.8955 -29.8802,3.98346 -65.7833,12.54271 -93.5,22.29029 l -8,2.81349 0.084,13.49865 c 0.096,15.40562 1.616,24.01814 7.5834,42.96569 5.809,18.44455 4.3686,17.47067 37.8326,25.58022 47.6907,11.5572 82.3493,41.59221 99.4799,86.20874 29.7434,77.46676 -7.0284,156.87219 -87.528,189.0085 -10.2598,4.09581 -22.9517,5.70739 -44.4519,5.64435 -20.2661,-0.0594 -30.4717,-1.50355 -45.3866,-6.42235 -10.4777,-3.45545 -15.3108,-5.81541 -31.6142,-15.43676 -9.1581,-5.4046 -14.818,-7.72716 -20.1791,-8.28047 -4.5862,-0.47334 -6.1651,-0.12015 -11.5657,2.58727 -5.4892,2.75182 -15.4702,10.11627 -24.0044,17.71145 -2.5806,2.2967 -2.75,2.95629 -2.75,10.70981 0,15.59283 5.5476,29.141 22.3175,54.50329 13.7351,20.77246 33.9509,44.164 51.6531,59.7672 9.0309,7.9601 26.3164,20.2821 36.7804,26.2189 26.1118,14.8149 39.0274,19.3837 66.749,23.6122 7.4043,1.1294 38.2364,-0.3472 47.5,-2.2749 z M 3256.5,860.99407 c 21.752,-1.13088 30.2221,-2.60095 46.8505,-8.13136 78.091,-25.97226 131.1627,-94.02347 138.6472,-177.78043 3.7964,-42.48538 -8.3474,-89.3919 -32.7295,-126.42046 -47.9468,-72.81559 -135.185,-106.89069 -220.232,-86.02223 -57.5405,14.11905 -107.1042,54.52707 -133.5262,108.86041 -7.2574,14.92393 -12.3504,30.02415 -15.6835,46.5 -2.1382,10.56909 -2.3242,13.96893 -2.2981,42 0.033,35.54836 1.2723,44.8164 9.0824,67.93263 10.21,30.21957 25.0002,53.81142 48.3337,77.0972 31.5005,31.43609 67.8206,50.33116 105.5555,54.91387 17.7736,2.15852 30.2015,2.39162 56,1.05037 z m 285.8165,-30.20088 c 13.5053,-2.50664 31.8044,-19.6354 39.6412,-37.10574 4.2018,-9.36716 5.3841,-15.75295 4.7336,-25.56868 -1.0623,-16.03192 -7.4251,-30.29648 -18.8525,-42.26527 -13.7002,-14.34928 -32.8356,-19.58277 -46.5104,-12.72046 l -4.7168,2.36696 -2.1686,13 c -3.5781,21.44965 -6.9971,31.60238 -18.0165,53.5 -8.3783,16.64912 -11.6865,26.54814 -11.2363,33.62231 0.3005,4.72269 0.4729,4.96692 5.7163,8.09419 13.7924,8.22623 31.8352,10.70985 51.41,7.07669 z M 2828,790.47874 c 33.5247,-3.51448 65.1082,-10.18753 94.5,-19.9662 16.5078,-5.49215 43.5029,-16.18216 45.2328,-17.91206 0.3217,-0.32167 -1.0306,-7.67587 -3.0051,-16.34266 -1.9745,-8.6668 -4.5519,-21.15782 -5.7275,-27.75782 -1.1756,-6.6 -2.5756,-14.30047 -3.1111,-17.11215 l -0.9737,-5.11214 -7.7077,-3.53244 c -4.2392,-1.94284 -13.3327,-5.47848 -20.2077,-7.85697 -42.5534,-14.72186 -72.0201,-41.08813 -92.3234,-82.60913 -11.2379,-22.98208 -17.1662,-48.03569 -17.1024,-72.27717 0.1263,-47.9664 25.7544,-101.81708 61.9258,-130.12044 9.3635,-7.32677 13.2732,-9.73837 24.5,-15.1122 33.0544,-15.8219 72.6719,-22.57346 101.9554,-17.37512 32.77,5.81724 60.4616,19.55482 82.4289,40.89221 5.8641,5.69599 5.9052,5.7155 12,5.70077 9.3394,-0.0226 22.7993,-3.58638 36.6157,-9.69483 8.9112,-3.9398 25.1664,-10.10246 29.7399,-11.27503 3.2356,-0.82954 4.3878,-1.67608 4.8641,-3.57379 1.3548,-5.39789 -1.8079,-24.33852 -6.2282,-37.29958 -2.7116,-7.95079 -14.997,-38.94111 -18.8865,-47.64199 -1.2293,-2.75 -3.932,-8.825 -6.006,-13.5 -12.4026,-27.95714 -30.4573,-60.1355 -46.8504,-83.5 -18.7851,-26.77386 -46.0415,-56.43342 -67.3399,-73.27739 -28.2057,-22.30652 -57.9164,-37.631676 -80.7499,-41.651725 -18.3195,-3.225329 -60.7765,-2.694579 -78.8186,0.9853 -25.0031,5.099681 -55.8302,20.937595 -82.7245,42.501085 -17.7315,14.21685 -43.29,40.69182 -65.1702,67.50703 -68.5784,84.04596 -116.7201,194.53424 -137.2229,314.9357 -3.89,22.84391 -4.6823,35.73357 -4.6396,75.48503 0.033,30.63762 0.3473,38.60741 1.9541,49.51497 9.6817,65.72314 42.5413,113.20185 96.5786,139.54611 22.7817,11.10652 46.2751,17.01401 77,19.36187 11.3364,0.86628 60.9192,-0.40071 75.5,-1.92924 z m 136.6037,-207.23868 c 13.5087,-43.57947 31.3993,-76.53765 55.7702,-102.74006 l 5.5806,-6 0.012,-8.5 c 0.02,-14.2798 -0.2443,-14.97224 -7.3073,-19.16864 -9.3818,-5.57404 -21.2247,-8.9316 -33.7331,-9.56363 -33.9889,-1.71739 -64.6752,16.23108 -79.0429,46.23227 -5.3236,11.11606 -6.976,18.08802 -7.6001,32.06572 -1.1567,25.90702 6.5393,44.98976 26.2171,65.00702 11.1317,11.32372 23.0009,17.72338 31.8417,17.16841 L 2960.1834,597.5 Z M 3473,488.9842 c 3.025,-0.97863 10,-3.65856 15.5,-5.95539 46.4339,-19.39105 107.8997,-32.20581 172.5,-35.96382 10.175,-0.59192 21.875,-1.27634 26,-1.52095 4.125,-0.2446 10.9414,-1.20136 15.1476,-2.12613 l 7.6476,-1.68141 0.6524,-6.11825 c 1.6646,-15.6123 -4.9942,-63.15285 -15.5639,-111.11825 -8.2587,-37.47768 -16.8845,-67.81852 -28.4834,-100.18881 -18.4461,-51.47924 -31.2565,-72.32677 -49.6225,-80.75575 -30.5613,-14.02586 -79.1038,-12.46513 -140.9984,4.53333 -70.126,19.2591 -140.3322,50.95222 -226.2794,102.14911 -20.4329,12.17142 -21.8012,13.17656 -24.5382,18.02586 -4.0472,7.17076 -3.396,15.08526 2.7759,33.73626 9.161,27.68429 12.1054,37.65685 16.9733,57.4898 l 4.789,19.51116 7.5,2.46357 c 4.125,1.35497 14.025,3.65128 22,5.10292 36.0823,6.56785 61.9443,14.62227 86.2745,26.86914 33.5631,16.89437 63.4596,40.89109 87.0375,69.86141 l 7.1603,8.798 4.0139,-0.66623 c 2.2076,-0.36643 6.4888,-1.46693 9.5138,-2.44557 z"
         id="path15" />
    </g>
  </g>
</svg>
