<?xml version="1.0" encoding="UTF-8" standalone="no"?>
<svg
   fill="none"
   width="7030.000000pt"
   height="4686.000000pt"
   viewBox="0 0 7030.000000 4686.000000"
   version="1.1"
   id="svg91"
   xmlns="http://www.w3.org/2000/svg"
   xmlns:svg="http://www.w3.org/2000/svg">
   <defs
      id="defs95" />
   <path
      id="path1"
      style="clip-rule:evenodd;fill:#000000;fill-rule:evenodd;stroke-width:22.3058"
      d="m 2055.8821,1875.2873 v 663.8248 h 675.7223 v -663.8248 z m 747.463,0 v 663.8248 h 675.7223 v -663.8248 z m 747.5055,0 v 663.8248 h 675.7339 v -663.8248 z m 747.4995,0 v 663.8248 h 675.7546 v -663.8248 z m -417.2109,89.6836 h 15.2139 l 234.3559,493.6144 h -76.9497 l -55.8721,-118.4282 h -218.2705 l -55.872,118.4282 h -76.9614 z m -1473.0412,0.8467 c 79.0718,0 155.1078,34.8806 203.3687,93.3062 l 3.1084,3.7705 -50.6412,46.6436 -3.4203,-4.5176 c -35.0023,-46.2689 -92.4151,-75.0205 -149.8258,-75.0205 -106.7443,0 -190.3403,81.9533 -190.3403,186.5786 0,100.0549 86.4865,187.8267 185.1094,187.8267 68.1018,0 148.879,-56.3988 154.982,-130.0459 h -71.0948 v -64.1939 h 149.2207 v 23.9415 c 0,135.8534 -99.6706,234.4834 -237.0073,234.4834 -136.9308,0 -252.6182,-114.5458 -252.6182,-250.1383 0,-139.3085 116.2589,-252.6343 259.1587,-252.6343 z m 596.6075,10.002 h 79.2085 c 40.3155,0 90.4792,-7e-4 131.7114,22.5059 41.3349,23.4411 66.958,68.4201 66.958,117.3969 0,69.6075 -46.1608,124.3598 -113.3481,136.0078 l 155.5562,206.8551 h -86.9854 l -144.1685,-199.8999 h -17.5444 v 199.8999 h -71.3877 z m 1477.3785,0.043 h 336.9508 l -248.1519,418.5602 h 244.2482 v 64.1631 h -361.6877 l 248.174,-418.4885 H 4482.084 Z m -1405.9908,62.9238 v 160.7417 h 14.2984 c 58.0686,0 124.7256,-9.2536 124.7256,-81.3281 0,-54.1808 -40.6611,-79.4136 -127.9571,-79.4136 z m 812.669,63.6519 -79.0737,173.5342 h 158.1153 z m 691.5119,497.0201 v 202.4912 h 21.6357 v -149.685 l 151.3227,158.4492 v -203.0113 h -21.6357 v 150.4541 z m -464.3072,4.8896 c -55.3229,0 -101.1387,45.0926 -101.1387,100.73 0,55.9095 45.8158,100.2115 101.1387,100.2115 55.3518,0 101.1489,-44.302 101.1489,-100.2115 0,-55.6374 -45.7971,-100.73 -101.1489,-100.73 z m 767.5094,0 c -55.8537,0 -101.1564,45.3422 -101.1564,100.9908 0,54.6179 45.3029,99.9507 99.8629,99.9507 27.0346,0 54.0692,-11.8356 71.8023,-32.4552 17.7554,-20.6016 20.611,-42.2424 20.0757,-68.5254 h -80.8142 v 20.0992 h 57.6594 c 0,36.0685 -35.5318,60.8012 -69.2358,60.8012 -20.3206,0 -40.9097,-10.5637 -55.0739,-24.7323 -14.4096,-14.6862 -22.6406,-34.266 -22.6406,-54.8877 0,-43.793 34.9978,-81.1509 79.2524,-81.1509 28.5961,0 50.4562,13.6562 66.6725,36.5889 l 15.7031,-14.6895 c -20.6106,-26.7826 -48.1357,-41.9898 -82.1074,-41.9898 z m -1041.5627,3.3516 v 194.2485 h 21.6108 v -95.3174 h 99.359 v 95.3174 h 21.6093 v -194.2485 h -21.6093 v 78.8291 h -99.359 v -78.8291 z m 404.5533,0 v 194.2485 h 75.1713 v -20.1005 h -53.5414 v -174.148 z m 96.5405,0 v 194.2485 h 36.0455 c 30.3582,0 53.5341,-3.8611 76.6875,-24.4716 21.369,-19.0692 31.6524,-44.0523 31.6524,-72.3985 0,-28.8548 -10.0378,-54.8673 -32.1652,-73.9365 -22.908,-19.5801 -46.5972,-23.4419 -75.684,-23.4419 z m 175.0108,0 v 194.2485 h 21.6139 v -194.2485 z m -402.0513,16.7388 c 44.5468,0 79.541,36.339 79.541,80.3818 0,43.8019 -35.525,80.3891 -79.541,80.3891 -44.0094,0 -79.5103,-36.5872 -79.5103,-80.3891 0,-44.0428 34.9924,-80.3818 79.5103,-80.3818 z m 248.6544,3.3617 h 15.703 c 22.9081,0 42.4702,3.0921 60.2257,18.7999 16.7293,14.6771 25.2274,36.0683 25.2274,58.2202 0,21.6411 -8.2282,41.9899 -24.1992,56.937 -17.7556,16.7495 -37.5651,20.0904 -61.2539,20.0904 h -15.703 z" />
</svg>