<?xml version="1.0" encoding="UTF-8" standalone="no"?>
<svg
   fill="none"
   width="7030.000000pt"
   height="4686.000000pt"
   viewBox="0 0 7030.000000 4686.000000"
   version="1.1"
   id="svg91"
   sodipodi:docname="holding-graz.svg"
   inkscape:version="1.2.2 (b0a8486541, 2022-12-01)"
   xmlns:inkscape="http://www.inkscape.org/namespaces/inkscape"
   xmlns:sodipodi="http://sodipodi.sourceforge.net/DTD/sodipodi-0.dtd"
   xmlns="http://www.w3.org/2000/svg"
   xmlns:svg="http://www.w3.org/2000/svg">
  <sodipodi:namedview
     id="namedview1005"
     pagecolor="#ffffff"
     bordercolor="#666666"
     borderopacity="1.0"
     inkscape:showpageshadow="2"
     inkscape:pageopacity="0.0"
     inkscape:pagecheckerboard="0"
     inkscape:deskcolor="#d1d1d1"
     inkscape:document-units="pt"
     showgrid="false"
     inkscape:zoom="0.25480154"
     inkscape:cx="4707.5854"
     inkscape:cy="3300.608"
     inkscape:window-width="1908"
     inkscape:window-height="999"
     inkscape:window-x="3840"
     inkscape:window-y="0"
     inkscape:window-maximized="1"
     inkscape:current-layer="svg91" />
  <defs
     id="defs95" />
  <g
     id="g1251">
    <path
       id="path1043"
       style="clip-rule:evenodd;fill:#98958c;fill-rule:evenodd;stroke-width:22.3058"
       d="M 4343.0068 2607.7002 L 4343.0068 2801.9487 L 4379.0522 2801.9487 C 4409.4104 2801.9487 4432.5864 2798.0875 4455.7397 2777.4771 C 4477.1087 2758.4079 4487.3921 2733.4248 4487.3921 2705.0786 C 4487.3921 2676.2238 4477.3544 2650.2113 4455.2271 2631.1421 C 4432.3191 2611.562 4408.6297 2607.7002 4379.543 2607.7002 L 4343.0068 2607.7002 z M 4364.6206 2627.8008 L 4380.3237 2627.8008 C 4403.2318 2627.8008 4422.7938 2630.8928 4440.5493 2646.6006 C 4457.2786 2661.2777 4465.7769 2682.6689 4465.7769 2704.8208 C 4465.7769 2726.4619 4457.5486 2746.8107 4441.5776 2761.7578 C 4423.8221 2778.5073 4404.0125 2781.8481 4380.3237 2781.8481 L 4364.6206 2781.8481 L 4364.6206 2627.8008 z " />
    <path
       id="path1041"
       style="clip-rule:evenodd;fill:#98958c;fill-rule:evenodd;stroke-width:22.3058"
       d="M 4115.9663 2604.3486 C 4060.6435 2604.3486 4014.8276 2649.4413 4014.8276 2705.0786 C 4014.8276 2760.9881 4060.6435 2805.29 4115.9663 2805.29 C 4171.3181 2805.29 4217.1152 2760.9881 4217.1152 2705.0786 C 4217.1152 2649.4413 4171.3181 2604.3486 4115.9663 2604.3486 z M 4115.9663 2624.439 C 4160.5131 2624.439 4195.5073 2660.778 4195.5073 2704.8208 C 4195.5073 2748.6227 4159.9823 2785.21 4115.9663 2785.21 C 4071.957 2785.21 4036.4561 2748.6227 4036.4561 2704.8208 C 4036.4561 2660.778 4071.4485 2624.439 4115.9663 2624.439 z " />
    <path
       style="clip-rule:evenodd;fill:#98958c;fill-rule:evenodd;stroke-width:22.3058"
       d="m 4518.0182,2607.6996 v 194.2485 h 21.6139 v -194.2485 z"
       id="path1039" />
    <path
       style="clip-rule:evenodd;fill:#98958c;fill-rule:evenodd;stroke-width:22.3058"
       d="m 4246.4669,2607.6996 v 194.2485 h 75.1713 v -20.1005 h -53.5414 v -174.148 z"
       id="path1035" />
    <path
       style="clip-rule:evenodd;fill:#98958c;fill-rule:evenodd;stroke-width:22.3058"
       d="m 3841.9136,2607.6996 v 194.2485 h 21.6108 v -95.3174 h 99.359 v 95.3174 h 21.6093 v -194.2485 h -21.6093 v 78.8291 h -99.359 v -78.8291 z"
       id="path1033" />
    <path
       style="clip-rule:evenodd;fill:#98958c;fill-rule:evenodd;stroke-width:22.3058"
       d="m 4883.4763,2604.348 c -55.8537,0 -101.1564,45.3422 -101.1564,100.9908 0,54.6179 45.3029,99.9507 99.8629,99.9507 27.0346,0 54.0692,-11.8356 71.8023,-32.4552 17.7554,-20.6016 20.611,-42.2424 20.0757,-68.5254 h -80.8142 v 20.0992 h 57.6594 c 0,36.0685 -35.5318,60.8012 -69.2358,60.8012 -20.3206,0 -40.9097,-10.5637 -55.0739,-24.7323 -14.4096,-14.6862 -22.6406,-34.266 -22.6406,-54.8877 0,-43.793 34.9978,-81.1509 79.2524,-81.1509 28.5961,0 50.4562,13.6562 66.6725,36.5889 l 15.7031,-14.6895 c -20.6106,-26.7826 -48.1357,-41.9898 -82.1074,-41.9898 z"
       id="path1031" />
    <path
       style="clip-rule:evenodd;fill:#98958c;fill-rule:evenodd;stroke-width:22.3058"
       d="m 4580.2741,2599.4584 v 202.4912 h 21.6357 v -149.685 l 151.3227,158.4492 v -203.0113 h -21.6357 v 150.4541 z"
       id="path1027" />
  </g>
  <g
     id="g1242"
     transform="translate(389.03773,-676.99748)">
    <g
       id="g1156"
       transform="translate(-389.03116,677.398)">
      <path
         style="clip-rule:evenodd;fill:#98958c;fill-rule:evenodd;stroke-width:22.3058"
         d="m 4482.084,1975.8626 h 336.9508 l -248.1519,418.5602 h 244.2482 v 64.1631 h -361.6877 l 248.174,-418.4885 H 4482.084 Z"
         id="path836" />
      <path
         id="path834"
         style="clip-rule:evenodd;fill:#98958c;fill-rule:evenodd;stroke-width:22.3058"
         d="m 3004.7055,1975.8196 h 79.2085 c 40.3155,0 90.4792,-7e-4 131.7114,22.5059 41.3349,23.4411 66.958,68.4201 66.958,117.3969 0,69.6075 -46.1608,124.3598 -113.3481,136.0078 l 155.5562,206.8551 h -86.9854 l -144.1685,-199.8999 h -17.5444 v 199.8999 h -71.3877 z m 71.3877,62.9668 v 160.7417 h 14.2984 c 58.0686,0 124.7256,-9.2536 124.7256,-81.3281 0,-54.1808 -40.6611,-79.4136 -127.9571,-79.4136 z" />
      <path
         style="clip-rule:evenodd;fill:#98958c;fill-rule:evenodd;stroke-width:22.3058"
         d="m 2408.098,1965.8176 c 79.0718,0 155.1078,34.8806 203.3687,93.3062 l 3.1084,3.7705 -50.6412,46.6436 -3.4203,-4.5176 c -35.0023,-46.2689 -92.4151,-75.0205 -149.8258,-75.0205 -106.7443,0 -190.3403,81.9533 -190.3403,186.5786 0,100.0549 86.4865,187.8267 185.1094,187.8267 68.1018,0 148.879,-56.3988 154.982,-130.0459 h -71.0948 v -64.1939 h 149.2207 v 23.9415 c 0,135.8534 -99.6706,234.4834 -237.0073,234.4834 -136.9308,0 -252.6182,-114.5458 -252.6182,-250.1383 0,-139.3085 116.2589,-252.6343 259.1587,-252.6343 z"
         id="path832" />
      <path
         style="clip-rule:evenodd;fill:none;fill-rule:evenodd;stroke:#98958c;stroke-width:21.5865;stroke-opacity:1"
         d="m 4309.1535,1886.0809 v 642.2384 h 654.1476 v -642.2384 z"
         id="path828" />
      <path
         id="path826"
         style="clip-rule:evenodd;fill:#73b122;fill-rule:evenodd;stroke-width:22.3058"
         d="m 3550.8506,1875.2873 v 663.8248 h 675.7339 v -663.8248 z m 330.2886,89.6836 h 15.2139 l 234.3559,493.6144 h -76.9497 l -55.8721,-118.4282 h -218.2705 l -55.872,118.4282 h -76.9614 z m 7.623,137.4674 -79.0737,173.5342 h 158.1153 z" />
      <path
         style="clip-rule:evenodd;fill:none;fill-rule:evenodd;stroke:#98958c;stroke-width:21.587;stroke-opacity:1"
         d="m 2814.1488,1886.0812 v 642.2379 h 654.1471 v -642.2379 z"
         id="path824" />
      <path
         style="clip-rule:evenodd;fill:none;fill-rule:evenodd;stroke:#98958c;stroke-width:21.587;stroke-opacity:1"
         d="m 2066.686,1886.0812 v 642.2379 h 654.1471 v -642.2379 z"
         id="path1" />
    </g>
  </g>
</svg>
