<?xml version="1.0" standalone="no"?>
<!DOCTYPE svg PUBLIC "-//W3C//DTD SVG 20010904//EN"
 "http://www.w3.org/TR/2001/REC-SVG-20010904/DTD/svg10.dtd">
<svg version="1.0" xmlns="http://www.w3.org/2000/svg"
 width="7030.000000pt" height="4686.000000pt" viewBox="0 0 7030.000000 4686.000000"
 preserveAspectRatio="xMidYMid meet">
<metadata>
Created by potrace 1.16, written by Peter Selinger 2001-2019
</metadata>
<g transform="translate(0.000000,4686.000000) scale(0.100000,-0.100000)"
fill="#000000" stroke="none">
<path d="M35730 29147 l0 -987 223 -332 c123 -183 245 -364 272 -403 302 -431
637 -883 975 -1315 588 -749 821 -1072 1092 -1515 525 -857 788 -1577 883
-2423 11 -96 15 -241 15 -512 0 -392 -6 -475 -54 -720 -97 -493 -301 -990
-591 -1435 -395 -607 -924 -1080 -1546 -1383 -165 -81 -213 -102 -324 -144
-299 -111 -543 -172 -920 -230 -139 -21 -182 -22 -605 -22 -499 0 -536 3 -905
75 -622 122 -1180 388 -1707 813 -121 99 -427 412 -542 556 -90 113 -222 302
-321 460 -75 119 -230 427 -287 570 -137 344 -207 600 -258 948 -17 114 -20
186 -20 512 0 271 4 416 15 512 96 850 350 1547 880 2418 266 437 504 767
1095 1520 492 628 840 1109 1296 1791 l164 245 0 977 c0 537 -4 977 -9 977 -4
0 -25 -28 -46 -62 -71 -116 -613 -925 -756 -1130 -373 -531 -780 -1079 -1179
-1587 -331 -420 -499 -639 -685 -891 -1071 -1451 -1612 -2624 -1784 -3870 -46
-333 -56 -490 -56 -880 0 -431 11 -554 87 -925 181 -897 671 -1836 1295 -2486
431 -449 848 -762 1344 -1010 608 -304 1198 -463 1943 -525 222 -18 731 -15
951 5 931 87 1714 363 2434 859 853 586 1539 1503 1894 2527 40 116 55 164
102 325 53 183 106 453 142 720 15 111 18 204 18 515 -1 398 -14 595 -64 930
-190 1263 -737 2421 -1846 3910 -133 178 -368 482 -720 930 -335 427 -822
1090 -1190 1620 -101 145 -494 736 -589 885 -55 85 -103 159 -108 165 -4 5 -8
-435 -8 -978z"/>
</g>
</svg>
