<?xml version="1.0" encoding="UTF-8" standalone="no"?>
<svg
   version="1.0"
   width="7030.000000pt"
   height="4687.000000pt"
   viewBox="0 0 7030.000000 4687.000000"
   preserveAspectRatio="xMidYMid meet"
   id="svg853"
   sodipodi:docname="hyprland_text.svg"
   inkscape:version="1.2.2 (b0a8486541, 2022-12-01)"
   xmlns:inkscape="http://www.inkscape.org/namespaces/inkscape"
   xmlns:sodipodi="http://sodipodi.sourceforge.net/DTD/sodipodi-0.dtd"
   xmlns:xlink="http://www.w3.org/1999/xlink"
   xmlns="http://www.w3.org/2000/svg"
   xmlns:svg="http://www.w3.org/2000/svg">
  <defs
     id="defs857">
    <linearGradient
       xlink:href="#i"
       y2="346.78"
       x2="202.09"
       y1="659.70001"
       x1="202.09"
       id="h"
       gradientTransform="matrix(0.75,0,0,0.75,3784.9862,3372.6559)" />
    <linearGradient
       gradientUnits="userSpaceOnUse"
       y2="491.29001"
       x2="561.92999"
       y1="593.84998"
       x1="561.92999"
       id="i">
      <stop
         stop-color="#00a8f4"
         offset="0"
         style="--darkreader-inline-stopcolor: var(--darkreader-background-00a8f4, #0086c3);"
         data-darkreader-inline-stopcolor=""
         id="stop1426" />
      <stop
         stop-color="#00e5d0"
         offset="1"
         style="--darkreader-inline-stopcolor: var(--darkreader-background-00e5d0, #00b7a6);"
         data-darkreader-inline-stopcolor=""
         id="stop1428" />
    </linearGradient>
    <linearGradient
       xlink:href="#i"
       y2="491.57999"
       x2="630.69"
       y1="567.47998"
       x1="630.69"
       id="c" />
    <linearGradient
       xlink:href="#i"
       y2="493.76999"
       x2="480.34"
       y1="596.03998"
       x1="480.34"
       id="a" />
    <linearGradient
       xlink:href="#i"
       y2="470.31"
       x2="392.85999"
       y1="567.47998"
       x1="392.85999"
       id="b" />
    <linearGradient
       xlink:href="#i"
       y2="491.73001"
       x2="804.78998"
       y1="567.47998"
       x1="804.78998"
       id="f" />
    <linearGradient
       xlink:href="#i"
       y2="463.45999"
       x2="883.96997"
       y1="569.66998"
       x1="883.96997"
       id="g" />
    <linearGradient
       xlink:href="#i"
       y2="465.94"
       x2="671.56"
       y1="567.47998"
       x1="671.56"
       id="d" />
    <linearGradient
       xlink:href="#i"
       y2="491.57999"
       x2="724.22998"
       y1="569.66998"
       x1="724.22998"
       id="e" />
    <linearGradient
       inkscape:collect="always"
       xlink:href="#i"
       id="linearGradient2022"
       gradientUnits="userSpaceOnUse"
       x1="561.92999"
       y1="593.84998"
       x2="561.92999"
       y2="491.29001" />
  </defs>
  <sodipodi:namedview
     id="namedview855"
     pagecolor="#ffffff"
     bordercolor="#666666"
     borderopacity="1.0"
     inkscape:showpageshadow="2"
     inkscape:pageopacity="0.0"
     inkscape:pagecheckerboard="0"
     inkscape:deskcolor="#d1d1d1"
     inkscape:document-units="pt"
     showgrid="false"
     inkscape:zoom="0.13943812"
     inkscape:cx="4170.3086"
     inkscape:cy="3585.8199"
     inkscape:window-width="1908"
     inkscape:window-height="999"
     inkscape:window-x="3840"
     inkscape:window-y="0"
     inkscape:window-maximized="1"
     inkscape:current-layer="svg853" />
  <metadata
     id="metadata831">
Created by potrace 1.16, written by Peter Selinger 2001-2019
</metadata>
  <g
     id="g2221"
     transform="matrix(4.9131566,0,0,4.9131566,-16927.907,-16081.278)">
    <g
       id="g1457"
       transform="matrix(0.75,0,0,0.75,3784.9862,3372.6559)">
      <path
         d="m 580.29,495 c -5.59,-2.48 -12.07,-3.71 -19.45,-3.71 -4.86,0 -9.4,0.36 -13.62,1.09 -4.22,0.73 -7.94,1.82 -11.15,3.28 -3.2,1.46 -5.73,3.3 -7.58,5.54 -1.85,2.24 -2.77,4.95 -2.77,8.16 v 84.5 h 21.27 v -28.09 c 1.05,0.58 2.16,1.1 3.35,1.5 3.01,1.02 5.92,1.67 8.74,1.97 2.82,0.29 4.95,0.44 6.41,0.44 6.9,0 12.75,-1.6 17.56,-4.81 4.81,-3.21 8.52,-7.7 11.15,-13.48 2.62,-5.78 3.93,-12.46 3.93,-20.03 0,-10.1 -1.58,-18.07 -4.73,-23.89 -3.16,-5.83 -7.53,-9.98 -13.11,-12.46 z m -5.83,48.37 c -1.31,3.16 -3.23,5.42 -5.75,6.77 -2.53,1.36 -5.73,2.04 -9.62,2.04 -1.75,0 -3.74,-0.24 -5.97,-0.73 -2.24,-0.48 -4.28,-1.26 -6.12,-2.33 v -34.67 c 0,-1.46 0.99,-2.64 2.99,-3.57 1.99,-0.92 5.32,-1.38 9.98,-1.38 4.27,0 7.6,0.85 9.98,2.55 2.38,1.7 4.05,4.1 5.03,7.21 0.97,3.11 1.46,6.9 1.46,11.36 0,5.34 -0.66,9.59 -1.97,12.75 z"
         class="st8"
         id="path1441"
         style="fill:url(#linearGradient2022)" />
      <path
         d="m 638.78,491.58 c -4.57,0 -9.11,0.61 -13.62,1.82 -4.52,1.22 -8.52,2.57 -12.02,4.08 -3.5,1.51 -5.93,2.84 -7.28,4.01 v 66 h 21.71 v -56.96 c 1.65,-0.29 3.69,-0.48 6.12,-0.58 2.43,-0.1 5,-0.12 7.72,-0.07 2.72,0.05 5.34,0.17 7.87,0.36 2.52,0.2 4.61,0.49 6.26,0.87 v -15.88 c -1.36,-1.07 -3.35,-1.94 -5.97,-2.62 -2.62,-0.68 -6.22,-1.02 -10.78,-1.02 z"
         class="st2"
         id="path1443"
         style="fill:url(#c)" />
      <path
         d="m 481.21,542.1 -15.66,-48.33 h -24.91 l 29.61,72.88 c -0.37,1.26 -0.77,2.39 -1.21,3.39 -1.17,2.67 -2.65,4.56 -4.44,5.68 -1.8,1.12 -3.91,1.68 -6.34,1.68 -1.46,0 -2.87,-0.12 -4.22,-0.36 -1.36,-0.24 -2.82,-0.66 -4.37,-1.24 v 17.63 c 1.65,0.78 3.64,1.41 5.97,1.89 2.33,0.48 4.71,0.73 7.14,0.73 3.5,0 6.9,-0.87 10.2,-2.62 3.3,-1.75 6.48,-4.61 9.54,-8.6 3.06,-3.98 5.9,-9.37 8.52,-16.17 l 28.99,-74.89 H 496.72 L 481.2,542.1 Z"
         class="st0"
         id="path1445"
         style="fill:url(#a)" />
      <polygon
         points="434.23,470.31 410.78,470.31 410.78,509.65 375.08,509.65 375.08,470.31 351.48,470.31 351.48,567.48 375.08,567.48 375.08,528.88 410.78,528.88 410.78,567.48 434.23,567.48 "
         class="st1"
         id="polygon1447"
         style="fill:url(#b)" />
      <path
         d="m 825.12,494.28 c -4.66,-1.7 -10.3,-2.55 -16.9,-2.55 -3.11,0 -6.48,0.24 -10.13,0.73 -3.64,0.49 -7.26,1.12 -10.85,1.89 -3.59,0.78 -6.9,1.68 -9.91,2.7 -3.01,1.02 -5.44,2.02 -7.28,2.99 v 67.45 h 21.71 v -55.36 c 1.17,-0.58 2.86,-1.14 5.1,-1.67 2.23,-0.53 4.47,-0.8 6.7,-0.8 2.62,0 4.86,0.32 6.7,0.95 1.84,0.63 3.3,1.51 4.37,2.62 1.07,1.12 1.87,2.45 2.4,4.01 0.53,1.56 0.8,3.26 0.8,5.1 v 45.16 h 21.71 v -49.54 c 0,-6.51 -1.24,-11.65 -3.71,-15.44 -2.48,-3.79 -6.05,-6.53 -10.71,-8.23 z"
         class="st5"
         id="path1449"
         style="fill:url(#f)" />
      <path
         d="m 899.27,463.46 v 31.53 c -0.93,-0.55 -1.9,-1.01 -2.91,-1.37 -2.72,-0.97 -5.34,-1.58 -7.87,-1.82 -2.53,-0.24 -4.57,-0.36 -6.12,-0.36 -11.75,0 -20.57,3.45 -26.44,10.34 -5.88,6.9 -8.81,16.32 -8.81,28.26 0,7.67 0.99,14.08 2.99,19.23 1.99,5.15 4.73,9.2 8.23,12.17 3.5,2.96 7.65,5.08 12.46,6.34 4.81,1.26 10.08,1.89 15.81,1.89 4.27,0 8.45,-0.46 12.53,-1.38 4.08,-0.92 7.74,-2.26 11,-4.01 3.25,-1.75 5.85,-3.96 7.79,-6.63 1.94,-2.67 2.91,-5.8 2.91,-9.4 v -84.79 h -21.56 z m 0,82.46 c 0,1.85 -1.09,3.23 -3.28,4.15 -2.19,0.92 -5.03,1.38 -8.52,1.38 -4.57,0 -8.18,-0.85 -10.85,-2.55 -2.67,-1.7 -4.59,-4.08 -5.75,-7.14 -1.17,-3.06 -1.75,-6.72 -1.75,-11 0,-5.44 0.7,-9.76 2.11,-12.97 1.41,-3.2 3.52,-5.49 6.34,-6.85 2.82,-1.36 6.26,-2.04 10.34,-2.04 1.84,0 3.76,0.27 5.75,0.8 1.99,0.54 3.86,1.29 5.61,2.26 v 33.95 z"
         class="st6"
         id="path1451"
         style="fill:url(#g)" />
      <rect
         height="101.55"
         width="21.559999"
         y="465.94"
         x="660.78003"
         class="st3"
         id="rect1453"
         style="fill:url(#d)" />
      <path
         d="m 750.3,498.72 c -2.38,-1.94 -4.98,-3.42 -7.79,-4.44 -2.82,-1.02 -5.63,-1.72 -8.45,-2.11 -2.82,-0.39 -5.39,-0.58 -7.72,-0.58 -6.61,0 -12.55,0.68 -17.85,2.04 -5.3,1.36 -9.2,2.82 -11.73,4.37 v 19.23 c 2.72,-2.14 6.24,-3.96 10.56,-5.46 4.32,-1.5 8.62,-2.26 12.89,-2.26 5.24,0 9.3,1 12.17,2.99 2.86,1.99 4.3,5.22 4.3,9.69 v 4.68 c -0.7,-0.4 -1.44,-0.8 -2.26,-1.19 -2.48,-1.17 -5.27,-2.09 -8.38,-2.77 -3.11,-0.68 -6.32,-1.02 -9.62,-1.02 -5.93,0 -10.83,0.92 -14.71,2.77 -3.89,1.85 -6.77,4.47 -8.67,7.87 -1.89,3.4 -2.84,7.38 -2.84,11.95 0,4.86 0.82,8.91 2.48,12.16 1.65,3.26 3.96,5.83 6.92,7.72 2.96,1.89 6.41,3.25 10.34,4.08 3.93,0.82 8.13,1.24 12.6,1.24 7.48,0 13.86,-0.58 19.16,-1.75 5.29,-1.17 9.35,-3.03 12.16,-5.61 2.82,-2.57 4.23,-5.95 4.23,-10.13 l 0.15,-34.82 c 0,-4.47 -0.73,-8.21 -2.19,-11.22 -1.46,-3.01 -3.38,-5.49 -5.75,-7.43 z m -16.6,54.63 c -1.99,0.68 -5.46,1.02 -10.42,1.02 -1.94,0 -3.81,-0.39 -5.61,-1.17 -1.8,-0.78 -3.23,-1.89 -4.3,-3.35 -1.07,-1.46 -1.6,-3.11 -1.6,-4.95 0,-3.01 1.09,-5.22 3.28,-6.63 2.19,-1.41 5.66,-2.11 10.42,-2.11 3.11,0 6.02,0.34 8.74,1.02 0.87,0.22 1.69,0.47 2.48,0.74 v 11.36 c 0,2.04 -1,3.4 -2.99,4.08 z"
         class="st4"
         id="path1455"
         style="fill:url(#e)" />
    </g>
    <path
       d="m 4018.2587,3741.3184 c -6.8175,-15.42 -16.815,-29.7825 -26.4675,-43.665 -1.785,-2.5575 -3.465,-4.98 -5.13,-7.4025 -2.3625,-3.45 -5.565,-7.8675 -9.27,-12.9825 -8.4675,-11.6925 -21.69,-29.715 -30.63,-44.52 v 37.065 c 9.21,13.215 18.15,25.1175 22.9275,32.085 10.455,15.2475 22.5675,31.5 29.7525,47.745 21.585,48.8475 -8.775,96.6375 -61.5375,97.2075 h -0.945 c -0.135,0 -0.2625,0 -0.3975,0 -0.135,0 -0.2625,0 -0.3975,0 h -0.945 c -52.7625,-0.57 -83.13,-48.36 -61.5375,-97.2075 7.185,-16.2525 19.29,-32.4975 29.7525,-47.745 4.77,-6.96 13.71,-18.87 22.9275,-32.085 v -37.065 c -8.94,14.8125 -22.1625,32.835 -30.63,44.52 -3.705,5.1075 -6.9075,9.525 -9.27,12.9825 -1.665,2.4225 -3.345,4.8375 -5.13,7.4025 -9.66,13.89 -19.6575,28.2525 -26.4675,43.665 -6.6225,14.9775 -9.525,30.285 -8.6175,45.4875 0.87,14.7375 5.46,28.9275 13.26,41.0475 7.71,11.9775 18.555,21.9075 31.3575,28.7175 13.23,7.0275 28.08,10.6875 44.1525,10.86 0.39,0 0.7725,0 1.17,0 0.135,0 0.2625,0 0.3975,0 0.135,0 0.2625,0 0.3975,0 0.39,0 0.7725,0 1.17,0 16.0725,-0.1725 30.9225,-3.825 44.1525,-10.86 12.8025,-6.81 23.64,-16.74 31.3575,-28.7175 7.8,-12.12 12.39,-26.31 13.26,-41.0475 0.9,-15.2025 -2.0025,-30.51 -8.6175,-45.4875 z"
       class="st7"
       id="path1459"
       style="fill:url(#h);stroke-width:0.75" />
  </g>
</svg>
