<?xml version="1.0" standalone="no"?>
<!DOCTYPE svg PUBLIC "-//W3C//DTD SVG 20010904//EN"
 "http://www.w3.org/TR/2001/REC-SVG-20010904/DTD/svg10.dtd">
<svg version="1.0" xmlns="http://www.w3.org/2000/svg"
 width="7030.000000pt" height="4687.000000pt" viewBox="0 0 7030.000000 4687.000000"
 preserveAspectRatio="xMidYMid meet">
<metadata>
Created by potrace 1.16, written by Peter Selinger 2001-2019
</metadata>
<g transform="translate(0.000000,4687.000000) scale(0.100000,-0.100000)"
fill="#000000" stroke="none">
<path d="M24170 30039 c-19 -23 -44 -56 -55 -74 -30 -49 -120 -185 -150 -225
-39 -53 -95 -139 -95 -146 0 -3 -12 -20 -26 -38 -14 -17 -45 -62 -69 -101 -24
-38 -54 -83 -65 -100 -12 -16 -31 -45 -43 -64 -44 -69 -137 -205 -172 -251
-30 -40 -97 -138 -120 -174 -11 -18 -31 -47 -45 -64 -28 -34 -61 -81 -91 -127
-10 -16 -35 -50 -54 -75 -19 -25 -52 -69 -72 -99 -21 -30 -48 -68 -61 -85 -12
-17 -33 -47 -47 -66 -14 -19 -35 -48 -47 -65 -89 -119 -136 -181 -156 -209
-12 -17 -38 -51 -57 -76 -19 -25 -46 -61 -60 -80 -31 -43 -59 -79 -155 -205
-41 -53 -85 -111 -97 -128 -12 -17 -26 -33 -30 -36 -5 -3 -30 -35 -56 -71 -45
-61 -59 -80 -132 -170 -70 -88 -86 -108 -123 -158 -22 -30 -53 -69 -68 -89
-49 -60 -88 -109 -124 -157 -19 -26 -50 -66 -68 -89 -18 -23 -43 -55 -55 -70
-12 -15 -34 -42 -48 -60 -14 -18 -38 -50 -52 -72 -45 -68 -60 -89 -92 -127
-34 -41 -68 -87 -126 -168 -21 -30 -46 -64 -54 -75 -9 -11 -23 -32 -33 -46
-68 -103 -92 -137 -106 -148 -9 -7 -16 -18 -16 -24 0 -5 -12 -26 -27 -46 -16
-19 -37 -50 -48 -67 -22 -35 -111 -170 -145 -219 -11 -16 -37 -57 -58 -90 -21
-33 -47 -73 -58 -89 -18 -26 -36 -56 -89 -144 -11 -19 -35 -57 -52 -85 -18
-28 -33 -55 -33 -60 0 -5 -11 -23 -24 -40 -13 -18 -31 -48 -40 -67 -9 -19 -34
-64 -56 -100 -22 -36 -46 -81 -55 -100 -8 -19 -20 -42 -26 -50 -5 -8 -23 -43
-39 -77 -16 -34 -34 -64 -39 -67 -5 -4 -17 -28 -26 -55 -9 -27 -22 -55 -30
-61 -8 -6 -21 -34 -31 -62 -9 -28 -27 -67 -40 -86 -13 -19 -24 -42 -24 -51 0
-9 -14 -38 -30 -66 -16 -27 -30 -57 -30 -65 0 -8 -16 -46 -35 -84 -19 -39 -35
-77 -35 -85 0 -9 -14 -43 -30 -76 -17 -33 -30 -66 -30 -73 0 -8 -13 -44 -30
-82 -16 -38 -30 -77 -30 -87 0 -10 -12 -43 -26 -73 -14 -30 -30 -80 -36 -110
-5 -30 -20 -80 -33 -110 -12 -30 -28 -85 -34 -121 -6 -37 -20 -87 -30 -110
-11 -24 -24 -81 -31 -125 -6 -45 -19 -106 -30 -136 -11 -31 -24 -98 -31 -149
-6 -52 -20 -132 -30 -179 -11 -47 -27 -173 -35 -280 -8 -107 -21 -240 -29
-294 -11 -72 -15 -189 -15 -424 0 -275 3 -341 20 -440 10 -65 24 -173 29 -242
6 -73 19 -149 30 -183 11 -31 25 -91 30 -131 6 -41 19 -101 30 -133 11 -32 25
-87 31 -123 7 -36 22 -90 35 -120 13 -30 26 -73 30 -95 4 -22 16 -56 26 -76
10 -20 23 -58 30 -85 7 -27 25 -73 41 -103 15 -30 28 -62 28 -71 0 -9 14 -42
30 -73 17 -31 30 -62 30 -69 0 -10 55 -132 83 -183 25 -46 38 -72 53 -105 8
-19 30 -60 47 -91 83 -147 112 -197 172 -298 11 -18 30 -45 41 -60 12 -14 31
-44 43 -66 12 -22 37 -60 56 -85 19 -25 44 -58 54 -75 36 -57 113 -156 239
-308 110 -135 434 -464 536 -547 37 -30 115 -94 172 -142 58 -49 108 -88 112
-88 8 0 99 -64 142 -100 40 -33 92 -68 130 -87 19 -10 46 -26 60 -36 60 -43
137 -90 165 -101 16 -7 36 -20 44 -29 7 -10 19 -17 26 -17 10 0 91 -40 230
-113 68 -36 181 -87 193 -87 7 0 38 -13 69 -30 31 -16 63 -30 72 -30 9 0 40
-11 69 -25 30 -14 81 -32 114 -41 33 -8 71 -22 83 -30 12 -8 56 -21 97 -29 41
-8 97 -23 125 -34 27 -10 71 -22 99 -26 27 -4 81 -17 119 -30 39 -12 113 -28
165 -35 52 -7 131 -21 175 -31 44 -11 150 -24 235 -30 85 -5 211 -17 280 -25
146 -16 671 -19 766 -4 34 6 151 17 260 25 112 8 236 23 284 34 47 11 126 25
175 31 107 13 131 18 167 36 14 8 59 19 100 25 40 6 96 20 123 30 28 11 82 26
122 34 40 7 82 21 95 29 13 8 52 22 88 31 36 9 87 27 114 41 28 13 57 24 66
24 10 0 37 11 61 23 24 13 62 30 84 37 22 7 60 23 85 35 25 13 115 58 200 100
85 42 162 83 170 90 8 7 32 20 53 29 22 9 52 27 69 41 16 14 34 25 39 25 10 0
74 41 209 135 19 13 49 32 65 41 17 9 44 29 61 43 33 28 48 40 189 151 151
119 418 374 560 535 33 37 74 82 90 100 53 57 71 79 102 125 17 25 51 68 75
97 54 65 93 118 121 162 12 19 34 53 50 75 15 23 35 54 45 70 9 15 27 42 39
60 12 17 27 42 33 56 6 14 20 34 30 45 10 11 27 40 38 65 11 25 26 51 35 58 9
8 19 27 22 43 4 16 17 42 29 57 13 15 28 43 35 63 6 20 23 51 36 69 14 19 25
41 25 50 0 10 13 37 30 61 16 24 30 51 30 59 0 8 16 46 35 84 19 39 35 77 35
86 0 8 11 35 24 60 13 25 29 65 36 90 6 25 20 59 30 77 10 17 24 57 30 90 7
32 21 75 31 95 11 21 26 68 34 106 8 38 23 91 34 118 10 27 24 85 31 128 6 42
20 102 30 131 10 29 23 93 29 143 6 49 20 131 31 183 29 143 37 354 29 789 -6
326 -11 415 -27 510 -11 63 -23 156 -27 205 -9 125 -24 230 -40 276 -8 21 -19
76 -25 121 -6 46 -22 121 -35 168 -13 47 -27 105 -31 130 -3 25 -16 72 -29
105 -12 33 -27 89 -34 125 -7 35 -21 81 -32 102 -10 21 -24 61 -30 90 -6 29
-20 70 -30 90 -11 21 -24 61 -30 90 -6 29 -19 68 -30 86 -10 18 -25 56 -34 85
-8 28 -26 74 -40 101 -14 27 -25 57 -25 65 0 9 -10 32 -21 51 -12 19 -30 59
-40 89 -11 30 -25 62 -33 70 -7 9 -19 34 -26 56 -7 22 -21 52 -32 67 -10 15
-25 44 -32 65 -7 21 -25 56 -40 77 -14 21 -26 47 -26 56 0 10 -9 28 -19 42
-11 13 -31 49 -46 79 -14 30 -41 81 -60 114 -18 33 -45 83 -58 110 -14 28 -32
57 -41 64 -9 7 -16 19 -16 26 0 6 -13 31 -28 56 -16 24 -48 78 -72 119 -24 41
-50 86 -59 99 -20 29 -50 77 -76 120 -11 18 -30 47 -42 65 -12 17 -34 51 -48
76 -14 25 -41 65 -60 90 -19 25 -42 58 -51 75 -16 28 -59 91 -136 198 -20 29
-45 66 -54 82 -9 17 -26 41 -38 55 -12 14 -30 36 -39 50 -50 73 -91 130 -122
170 -19 25 -46 61 -60 80 -30 41 -65 87 -122 161 -23 30 -62 81 -87 114 -88
119 -111 148 -126 164 -8 9 -36 45 -62 81 -26 36 -72 97 -103 135 -69 87 -110
139 -155 200 -19 25 -62 79 -95 120 -33 41 -76 95 -95 121 -45 59 -93 122
-119 154 -32 40 -77 99 -144 189 -34 46 -74 100 -89 120 -15 20 -39 52 -53 71
-14 19 -41 55 -60 80 -38 49 -72 96 -110 150 -13 19 -36 51 -50 70 -58 79 -82
111 -115 160 -19 28 -48 69 -65 90 -78 102 -126 170 -151 215 -9 17 -26 40
-37 53 -11 12 -30 37 -41 56 -36 59 -76 116 -94 135 -9 10 -26 33 -37 51 -34
57 -78 126 -126 197 -25 37 -54 81 -65 97 -10 16 -30 45 -44 66 -14 20 -35 52
-47 71 -12 19 -31 48 -43 64 -11 17 -41 62 -65 100 -24 39 -53 84 -65 100 -11
17 -32 46 -45 65 -13 19 -34 52 -45 73 -20 36 -74 72 -92 61 -5 -3 -8 -418 -8
-923 0 -866 1 -921 18 -974 11 -31 27 -68 38 -82 10 -15 28 -42 39 -59 11 -18
38 -58 60 -90 22 -32 51 -75 65 -96 14 -21 34 -50 44 -66 11 -16 39 -58 63
-94 24 -36 52 -76 62 -90 10 -14 40 -58 67 -99 73 -109 130 -190 195 -276 37
-50 97 -136 124 -179 19 -31 34 -50 103 -137 17 -23 32 -44 32 -48 0 -3 12
-21 28 -38 29 -34 59 -75 121 -163 40 -56 66 -90 149 -195 27 -33 59 -76 72
-95 13 -19 47 -63 75 -97 27 -34 82 -103 120 -153 39 -51 80 -104 92 -118 43
-53 89 -111 123 -156 36 -48 72 -94 125 -161 60 -74 91 -115 125 -166 19 -28
49 -68 65 -90 64 -83 137 -183 185 -254 11 -16 37 -53 58 -82 20 -29 45 -65
54 -80 10 -15 30 -46 45 -69 16 -22 38 -56 50 -75 12 -19 31 -47 43 -64 11
-16 32 -46 45 -65 14 -19 33 -54 44 -76 11 -23 24 -45 30 -49 6 -3 23 -27 37
-53 13 -26 43 -76 65 -112 22 -36 47 -80 55 -99 9 -19 26 -49 39 -65 12 -17
26 -42 30 -56 4 -14 13 -32 21 -40 7 -9 23 -38 35 -65 12 -28 29 -61 39 -75 9
-14 22 -40 28 -58 6 -18 20 -45 30 -60 11 -15 25 -44 32 -66 7 -21 23 -54 36
-74 13 -19 24 -42 24 -51 0 -9 16 -47 35 -85 19 -39 35 -77 35 -85 0 -9 9 -31
21 -50 11 -18 27 -60 35 -93 9 -33 24 -74 34 -91 10 -18 23 -56 29 -85 6 -29
20 -73 31 -97 11 -24 27 -76 35 -115 8 -38 21 -86 30 -106 8 -20 22 -75 30
-122 8 -48 24 -114 34 -147 10 -33 22 -96 25 -140 4 -44 19 -143 34 -220 l27
-140 0 -495 c0 -487 0 -496 -23 -572 -13 -43 -28 -119 -33 -170 -6 -51 -21
-124 -34 -163 -13 -38 -27 -90 -30 -115 -4 -25 -17 -70 -30 -100 -12 -30 -28
-78 -33 -106 -6 -29 -20 -67 -31 -85 -11 -19 -25 -56 -31 -83 -6 -27 -19 -61
-29 -75 -11 -14 -24 -46 -31 -71 -6 -25 -18 -52 -26 -61 -8 -9 -24 -39 -34
-67 -11 -27 -31 -67 -45 -87 -14 -21 -25 -45 -25 -54 0 -9 -14 -36 -30 -60
-17 -24 -30 -49 -30 -54 0 -6 -11 -27 -24 -46 -13 -20 -36 -58 -52 -84 -16
-27 -38 -64 -49 -82 -45 -75 -142 -213 -186 -265 -25 -30 -54 -68 -64 -85 -66
-107 -471 -513 -639 -640 -86 -66 -113 -86 -150 -112 -39 -28 -105 -71 -166
-108 -18 -11 -44 -30 -59 -41 -14 -12 -42 -29 -61 -38 -19 -9 -66 -34 -105
-56 -38 -22 -86 -46 -105 -55 -19 -8 -46 -22 -60 -30 -14 -8 -41 -22 -60 -31
-19 -9 -62 -29 -95 -45 -33 -16 -67 -29 -75 -29 -8 0 -42 -13 -75 -29 -33 -16
-78 -33 -100 -36 -22 -4 -57 -16 -79 -27 -21 -11 -70 -26 -110 -34 -39 -8 -91
-23 -116 -33 -25 -11 -83 -24 -130 -31 -47 -6 -117 -20 -155 -30 -95 -27 -311
-49 -592 -61 -375 -17 -906 13 -1077 60 -39 11 -109 25 -156 31 -47 6 -104 20
-128 30 -24 11 -71 24 -105 30 -34 7 -82 21 -107 32 -25 11 -70 26 -101 34
-31 7 -72 22 -90 33 -19 10 -50 22 -69 26 -19 4 -60 20 -90 35 -30 16 -71 36
-90 45 -35 16 -137 70 -175 92 -11 7 -40 22 -65 33 -75 35 -127 64 -146 81
-11 9 -35 25 -54 34 -19 10 -37 21 -40 25 -4 7 -50 36 -134 88 -15 9 -60 43
-100 75 -39 32 -89 72 -111 90 -180 146 -413 384 -575 587 -110 138 -134 170
-150 200 -7 14 -25 39 -39 56 -14 18 -39 55 -56 84 -16 28 -40 66 -52 83 -13
18 -30 47 -39 66 -9 19 -26 49 -39 65 -12 17 -27 46 -33 64 -6 18 -20 45 -30
60 -10 15 -26 48 -36 74 -9 25 -24 52 -32 58 -7 7 -14 18 -14 25 0 8 -16 43
-35 79 -19 37 -35 72 -35 79 0 6 -12 37 -26 67 -14 30 -32 78 -40 107 -7 29
-22 69 -33 89 -11 21 -23 58 -27 83 -4 25 -17 71 -30 102 -13 31 -28 87 -34
125 -6 38 -19 97 -30 130 -10 34 -23 104 -29 156 -6 52 -18 130 -26 174 -22
113 -23 765 -1 921 8 59 20 160 26 223 6 63 19 149 30 190 10 41 24 111 29
155 6 44 20 107 31 140 11 33 27 93 35 134 8 41 24 93 34 116 10 24 22 62 26
86 4 24 18 67 31 95 13 28 28 73 34 100 6 27 19 62 30 79 10 16 23 50 30 75 6
25 20 59 29 76 10 17 24 48 31 70 7 21 26 63 41 93 16 30 29 62 29 71 0 10 9
29 20 43 11 14 27 44 35 67 8 23 23 53 34 66 11 14 25 42 32 62 6 20 17 44 24
52 7 8 25 40 40 70 44 91 79 156 93 173 8 9 23 34 35 56 57 104 71 128 93 154
13 16 24 33 24 40 0 6 15 33 34 61 18 28 55 84 82 124 91 137 99 149 121 183
12 19 31 48 43 64 11 17 32 46 45 65 14 19 33 49 44 65 30 45 63 92 96 135 17
21 46 62 65 90 19 29 51 71 70 95 76 95 94 119 147 195 9 14 30 41 46 60 77
94 108 132 177 224 19 26 62 80 95 121 33 41 76 95 95 120 42 57 92 121 119
155 66 81 90 113 126 165 22 32 51 70 65 85 23 26 42 52 124 168 17 24 47 63
66 87 36 45 67 88 101 140 10 17 33 48 50 70 16 22 45 63 64 90 19 28 48 68
64 90 35 46 95 131 131 186 62 93 162 238 189 274 17 22 42 60 56 85 25 44 44
71 98 141 15 20 27 41 27 47 0 6 10 23 23 39 13 15 38 53 55 84 l32 56 0 942
c1 518 -2 946 -5 951 -10 16 -18 12 -55 -31z"/>
<path d="M50475 26866 c-27 -7 -64 -20 -81 -29 -17 -9 -61 -21 -98 -27 -36 -7
-76 -20 -89 -30 l-22 -18 -5 -526 c-4 -409 -8 -528 -18 -538 -10 -10 -22 -8
-60 14 -27 15 -79 32 -116 38 -38 6 -99 17 -138 25 -109 23 -242 19 -410 -14
-81 -15 -158 -35 -170 -43 -13 -8 -47 -23 -75 -32 -29 -10 -55 -22 -59 -27 -3
-5 -26 -21 -52 -35 -67 -36 -109 -67 -178 -133 -62 -59 -141 -156 -164 -201
-7 -14 -20 -34 -30 -45 -10 -11 -23 -38 -30 -60 -7 -22 -21 -55 -32 -73 -11
-18 -29 -70 -40 -115 -10 -45 -26 -109 -33 -142 -19 -78 -19 -319 -1 -400 35
-154 50 -204 77 -260 16 -33 29 -65 29 -70 0 -39 168 -260 254 -334 65 -56
242 -171 263 -171 7 0 39 -13 70 -30 31 -16 64 -30 75 -30 11 0 65 -12 121
-26 92 -24 114 -26 237 -22 74 3 148 11 165 17 16 7 72 19 125 27 52 7 127 25
165 39 85 30 136 31 195 4 72 -34 183 -71 214 -72 24 -2 31 3 37 23 4 14 7
759 8 1655 1 1461 -1 1633 -15 1653 -17 25 -43 27 -119 8z m-580 -1486 c71
-13 120 -29 170 -55 123 -64 110 12 112 -668 3 -613 2 -629 -37 -647 -8 -3
-39 -19 -69 -34 -30 -16 -102 -44 -160 -63 -101 -33 -111 -35 -211 -30 -70 4
-122 12 -155 25 -28 11 -66 22 -86 26 -21 4 -48 15 -60 25 -13 10 -44 28 -67
40 -49 25 -207 180 -218 214 -4 12 -15 33 -25 47 -11 14 -35 70 -55 125 l-37
100 -1 175 c0 148 3 181 18 215 10 22 25 65 35 95 36 114 183 291 281 336 19
9 48 26 64 37 38 27 271 68 346 61 30 -3 100 -14 155 -24z"/>
<path d="M43230 26841 c-19 -10 -64 -24 -100 -30 -60 -12 -117 -32 -180 -64
l-25 -13 0 -1374 0 -1375 42 -85 c94 -191 273 -320 495 -355 98 -15 115 -16
212 -1 59 8 114 20 124 25 10 5 24 27 30 48 15 50 32 193 32 264 0 83 -11 87
-105 44 -100 -45 -173 -48 -256 -7 -78 38 -122 91 -148 178 -21 71 -21 76 -21
1398 0 1313 0 1326 -20 1346 -24 24 -35 24 -80 1z"/>
<path d="M33300 26780 c-11 -11 -20 -32 -20 -47 -3 -1828 1 -3228 11 -3239 6
-8 22 -14 34 -14 35 0 145 30 185 50 19 10 61 23 93 30 46 9 62 18 82 44 l25
33 0 634 c0 621 3 692 32 711 7 4 414 8 905 8 703 0 894 -3 900 -12 4 -7 10
-316 13 -686 l5 -674 27 -23 c15 -13 53 -29 85 -35 32 -7 72 -20 89 -31 17
-10 55 -24 85 -30 30 -6 66 -17 80 -25 22 -11 29 -11 45 1 18 13 19 60 21
1642 2 1299 0 1633 -10 1653 l-13 25 -189 2 c-109 2 -196 -1 -205 -7 -13 -8
-15 -99 -18 -702 -2 -691 -2 -693 -23 -710 -20 -17 -77 -18 -884 -18 -603 0
-872 3 -894 11 -17 6 -36 19 -41 29 -6 12 -10 271 -10 689 0 658 0 671 -20
691 -18 18 -33 20 -195 20 -162 0 -177 -2 -195 -20z"/>
<path d="M36685 25840 c-3 -5 -27 -20 -53 -34 -123 -63 -154 -80 -189 -111
l-37 -32 14 -43 c8 -24 25 -60 39 -79 13 -20 28 -49 34 -66 6 -16 20 -43 32
-60 13 -16 28 -47 34 -67 7 -21 17 -41 23 -44 6 -4 21 -30 35 -58 14 -28 42
-82 63 -121 21 -38 50 -92 64 -120 13 -27 32 -61 40 -75 9 -14 23 -41 31 -60
9 -19 34 -66 55 -105 22 -38 50 -93 64 -121 13 -28 28 -54 34 -58 6 -3 16 -23
23 -44 7 -20 22 -50 34 -67 13 -16 28 -47 34 -67 7 -21 17 -41 23 -44 6 -4 21
-30 35 -58 14 -28 42 -82 63 -121 70 -126 73 -135 67 -194 -3 -30 -14 -66 -24
-80 -11 -14 -41 -71 -68 -126 -28 -55 -62 -118 -77 -139 -16 -21 -28 -43 -28
-49 0 -5 -12 -24 -27 -42 -16 -18 -46 -58 -68 -90 -47 -67 -165 -187 -219
-224 -50 -34 -158 -100 -171 -105 -50 -19 -151 -51 -200 -63 -93 -24 -105 -30
-105 -54 0 -21 30 -95 67 -164 9 -16 26 -51 39 -76 12 -26 31 -49 41 -51 29
-8 217 29 260 50 21 11 56 25 78 32 22 7 47 18 55 25 8 7 38 25 65 39 87 47
137 87 276 226 136 136 177 186 223 272 14 26 30 50 36 53 6 4 22 30 36 58 13
29 31 63 39 77 8 14 22 41 30 60 8 19 22 46 30 60 8 14 21 41 29 60 8 19 22
46 30 60 8 14 24 45 35 70 11 25 25 52 30 60 18 29 151 307 151 316 0 5 14 29
30 53 17 24 30 51 30 60 0 9 14 36 30 61 16 25 30 52 30 61 0 9 12 34 26 55
15 21 33 56 40 77 7 21 22 50 32 65 11 15 25 44 31 64 7 20 20 47 30 60 10 13
24 41 31 63 7 22 21 50 31 63 10 13 23 40 30 60 6 20 20 49 31 64 10 15 25 46
33 69 9 24 22 50 30 59 8 9 21 36 30 60 9 24 22 51 30 60 7 8 23 40 35 72 11
31 27 62 35 68 8 7 15 18 15 24 0 7 18 48 40 91 22 43 40 86 40 96 0 21 -65
74 -129 106 -25 13 -74 39 -108 58 l-62 34 -33 -22 c-21 -15 -39 -39 -51 -72
-10 -28 -25 -57 -32 -65 -8 -9 -21 -36 -30 -60 -9 -24 -22 -51 -29 -60 -8 -8
-23 -39 -35 -69 -11 -29 -26 -61 -34 -70 -8 -9 -20 -34 -27 -56 -7 -22 -21
-50 -31 -63 -10 -13 -23 -40 -30 -60 -6 -20 -20 -49 -31 -64 -10 -15 -25 -46
-33 -69 -9 -24 -22 -50 -30 -59 -8 -9 -21 -35 -30 -59 -8 -23 -23 -54 -33 -69
-10 -15 -26 -48 -36 -74 -9 -25 -24 -52 -32 -58 -7 -7 -14 -18 -14 -24 0 -7
-18 -48 -40 -91 -22 -43 -40 -84 -40 -91 0 -6 -17 -30 -37 -53 -45 -50 -66
-48 -84 7 -6 21 -20 48 -29 62 -10 14 -27 45 -39 70 -12 25 -28 56 -36 70 -8
14 -21 39 -29 55 -8 17 -30 59 -49 95 -19 36 -63 119 -97 185 -98 188 -120
228 -135 255 -8 14 -22 41 -30 60 -9 19 -34 67 -55 105 -22 39 -49 90 -60 115
-12 25 -28 52 -35 60 -8 9 -22 36 -30 60 -26 74 -99 134 -120 100z"/>
<path d="M38786 25788 c-14 -20 -16 -189 -16 -1603 0 -1061 4 -1592 10 -1617
6 -21 20 -42 30 -48 12 -6 85 -9 187 -8 167 3 167 3 180 28 10 19 13 140 13
512 0 560 -6 524 89 513 31 -4 99 -18 151 -33 85 -23 113 -26 260 -25 141 0
174 3 225 21 33 11 83 25 110 31 28 5 77 24 109 40 32 17 64 31 71 31 7 0 18
7 26 16 7 8 30 24 51 35 87 44 227 175 296 276 64 93 102 157 102 172 0 8 11
33 24 55 13 23 34 80 46 126 11 47 28 112 36 145 24 90 15 388 -13 466 -11 30
-24 75 -28 100 -4 24 -20 68 -36 98 -16 30 -29 59 -29 65 0 13 -51 96 -109
176 -75 104 -206 222 -300 269 -22 12 -42 25 -45 30 -4 5 -29 17 -58 27 -28 9
-65 25 -82 34 -28 17 -139 38 -306 60 -107 14 -506 -32 -598 -69 -68 -27 -99
-27 -142 3 -19 13 -46 27 -60 31 -14 4 -48 20 -76 36 -62 35 -97 37 -118 7z
m1039 -418 c33 -7 71 -20 85 -30 14 -9 41 -23 61 -29 20 -7 54 -24 75 -39 60
-44 175 -164 193 -202 9 -19 26 -51 38 -70 12 -19 28 -60 36 -90 9 -30 23 -73
31 -95 11 -29 15 -80 16 -181 0 -133 -2 -146 -34 -246 -62 -189 -150 -308
-285 -383 -20 -12 -48 -29 -63 -39 -44 -29 -214 -67 -328 -73 -93 -4 -119 -1
-227 25 -93 23 -136 39 -178 66 l-55 37 0 634 0 635 42 26 c23 15 56 33 74 40
76 32 381 40 519 14z"/>
<path d="M42040 25801 c-36 -4 -79 -15 -95 -23 -17 -9 -49 -19 -70 -23 -44 -8
-205 -84 -246 -116 -14 -11 -43 -23 -65 -25 -43 -6 -48 -4 -217 104 -52 32
-81 40 -92 23 -3 -6 -5 -493 -5 -1083 0 -839 3 -1075 13 -1085 11 -10 170 -17
339 -14 73 2 68 -53 68 792 0 806 -1 790 46 850 38 47 102 105 148 133 53 32
199 67 281 67 66 1 202 -35 229 -59 31 -29 81 -43 98 -29 17 15 61 79 91 135
12 22 38 69 57 104 51 92 52 96 32 114 -38 34 -110 73 -152 83 -25 6 -71 19
-103 30 -67 23 -250 34 -357 22z"/>
<path d="M44785 25793 c-16 -2 -59 -10 -95 -18 -36 -8 -105 -19 -154 -25 -54
-7 -110 -21 -141 -35 -29 -14 -58 -25 -66 -25 -21 0 -190 -86 -200 -102 -16
-25 -9 -63 21 -107 17 -24 30 -51 30 -60 0 -9 11 -32 24 -52 13 -19 31 -52 40
-72 8 -20 21 -37 29 -37 14 0 160 73 182 90 6 5 35 15 65 23 30 8 82 25 115
38 55 21 77 23 251 23 l190 1 55 -37 c98 -68 132 -136 145 -292 7 -73 6 -75
-22 -104 -28 -28 -33 -29 -194 -41 -256 -19 -395 -38 -442 -59 -24 -10 -67
-25 -96 -31 -28 -7 -62 -21 -74 -30 -13 -10 -37 -23 -54 -28 -34 -12 -134 -85
-176 -130 -45 -47 -75 -94 -120 -183 l-42 -85 0 -190 0 -190 38 -80 c21 -44
56 -105 77 -136 44 -66 146 -169 186 -189 15 -8 42 -24 59 -36 44 -32 213 -74
297 -74 66 0 381 29 553 50 66 8 94 7 155 -6 41 -9 88 -25 104 -34 17 -10 52
-24 79 -31 47 -12 50 -11 68 11 17 21 18 60 17 829 0 443 -4 856 -8 918 -7 98
-12 119 -41 175 -64 122 -150 221 -220 252 -14 5 -41 20 -60 33 -19 12 -66 29
-105 37 -38 9 -95 23 -125 31 -51 14 -260 19 -345 8z m472 -1190 c19 -17 19
-30 14 -325 -7 -348 -2 -328 -91 -353 -30 -8 -82 -23 -115 -32 -44 -12 -104
-16 -225 -17 l-165 -1 -55 36 c-83 55 -118 105 -137 195 -15 65 -15 87 -4 161
6 48 17 96 23 107 38 73 177 178 249 190 23 4 54 13 70 21 44 23 121 33 275
34 122 1 144 -1 161 -16z"/>
<path d="M46240 25771 c-7 -13 -10 -374 -10 -1100 0 -968 2 -1081 16 -1095 13
-13 44 -16 188 -16 122 0 177 4 189 13 16 11 17 70 17 842 0 641 3 836 13 854
22 45 116 90 234 112 254 47 322 49 448 13 100 -29 180 -81 231 -148 52 -69
105 -179 116 -241 6 -36 12 -325 14 -735 5 -668 5 -675 26 -692 18 -16 43 -18
199 -18 171 0 179 1 190 21 8 15 10 225 7 763 l-4 741 -25 70 c-15 39 -29 91
-33 117 -4 26 -16 58 -27 72 -11 14 -26 40 -34 59 -36 87 -223 259 -313 288
-20 6 -45 18 -54 26 -25 23 -238 63 -363 70 -63 3 -145 1 -190 -6 -243 -34
-335 -51 -376 -70 -25 -11 -77 -26 -115 -32 -77 -13 -79 -12 -229 71 -80 44
-100 48 -115 21z"/>
</g>
</svg>
