<?xml version="1.0" encoding="UTF-8" standalone="no"?>
<svg
   version="1.0"
   width="7030.000000pt"
   height="4686.000000pt"
   viewBox="0 0 7030.000000 4686.000000"
   preserveAspectRatio="xMidYMid meet"
   id="svg44"
   sodipodi:docname="hyprland.svg"
   inkscape:version="1.2.2 (b0a8486541, 2022-12-01)"
   xmlns:inkscape="http://www.inkscape.org/namespaces/inkscape"
   xmlns:sodipodi="http://sodipodi.sourceforge.net/DTD/sodipodi-0.dtd"
   xmlns:xlink="http://www.w3.org/1999/xlink"
   xmlns="http://www.w3.org/2000/svg"
   xmlns:svg="http://www.w3.org/2000/svg">
  <defs
     id="defs48">
    <linearGradient
       xlink:href="#i"
       y2="346.78"
       x2="202.09"
       y1="659.70001"
       x1="202.09"
       id="h"
       gradientTransform="matrix(4.2910114,0,0,4.2910114,2647.6651,183.56943)" />
    <linearGradient
       gradientUnits="userSpaceOnUse"
       y2="491.29001"
       x2="561.92999"
       y1="593.84998"
       x1="561.92999"
       id="i">
      <stop
         stop-color="#00a8f4"
         offset="0"
         style="--darkreader-inline-stopcolor: var(--darkreader-background-00a8f4, #0086c3);"
         data-darkreader-inline-stopcolor=""
         id="stop1426" />
      <stop
         stop-color="#00e5d0"
         offset="1"
         style="--darkreader-inline-stopcolor: var(--darkreader-background-00e5d0, #00b7a6);"
         data-darkreader-inline-stopcolor=""
         id="stop1428" />
    </linearGradient>
  </defs>
  <sodipodi:namedview
     id="namedview46"
     pagecolor="#ffffff"
     bordercolor="#666666"
     borderopacity="1.0"
     inkscape:showpageshadow="2"
     inkscape:pageopacity="0.0"
     inkscape:pagecheckerboard="0"
     inkscape:deskcolor="#d1d1d1"
     inkscape:document-units="pt"
     showgrid="false"
     inkscape:zoom="0.13943812"
     inkscape:cx="4299.3981"
     inkscape:cy="3126.835"
     inkscape:window-width="1908"
     inkscape:window-height="999"
     inkscape:window-x="3840"
     inkscape:window-y="0"
     inkscape:window-maximized="1"
     inkscape:current-layer="svg44" />
  <metadata
     id="metadata38">
Created by potrace 1.16, written by Peter Selinger 2001-2019
</metadata>
  <path
     d="m 3982.2979,2292.8163 c -39.0053,-88.2232 -96.2045,-170.396 -151.4298,-249.8227 -10.2126,-14.6323 -19.8245,-28.4923 -29.3505,-42.3522 -13.5167,-19.7387 -31.8393,-45.0127 -53.0369,-74.2774 -48.4455,-66.8969 -124.0961,-170.0099 -175.2449,-254.7145 v 212.0618 c 52.6936,75.6076 103.8425,143.706 131.1762,183.5695 59.8167,87.2362 129.1165,180.2225 170.2244,273.1658 123.4953,279.4735 -50.2048,552.8968 -352.0775,556.158 h -5.4066 c -0.7724,0 -1.5019,0 -2.2743,0 -0.7723,0 -1.5018,0 -2.2742,0 h -5.4067 c -301.8726,-3.2612 -475.6157,-276.6845 -352.0775,-556.158 41.1079,-92.9863 110.3648,-185.9296 170.2245,-273.1658 27.2908,-39.8206 78.4396,-107.9619 131.1762,-183.5695 v -212.0618 c -51.1489,84.7475 -126.7994,187.8605 -175.2449,254.7145 -21.1976,29.2217 -39.5202,54.4958 -53.0369,74.2774 -9.5261,13.8599 -19.1379,27.677 -29.3505,42.3522 -55.2683,79.4696 -112.4675,161.6424 -151.4298,249.8227 -37.8897,85.6915 -54.4959,173.2711 -49.3038,260.2499 4.9776,84.3184 31.2386,165.5043 75.8651,234.847 44.1116,68.5275 106.1596,125.3405 179.4072,164.3029 75.6934,40.2073 160.6555,61.1469 252.6119,62.1344 2.2313,0 4.4197,0 6.6939,0 0.7724,0 1.5019,0 2.2743,0 0.7723,0 1.5018,0 2.2742,0 2.2313,0 4.4197,0 6.694,0 91.9564,-0.9875 176.9184,-21.8842 252.6118,-62.1344 73.2476,-38.9624 135.2527,-95.7748 179.4072,-164.3029 44.6265,-69.3427 70.8875,-150.5286 75.8651,-234.847 5.1492,-86.9788 -11.457,-174.5584 -49.3037,-260.2499 z"
     class="st7"
     id="path1459"
     style="fill:url(#h);stroke-width:4.29101" />
</svg>
