<?xml version="1.0" standalone="no"?>
<!DOCTYPE svg PUBLIC "-//W3C//DTD SVG 20010904//EN"
 "http://www.w3.org/TR/2001/REC-SVG-20010904/DTD/svg10.dtd">
<svg version="1.0" xmlns="http://www.w3.org/2000/svg"
 width="7030.000000pt" height="3954.000000pt" viewBox="0 0 7030.000000 3954.000000"
 preserveAspectRatio="xMidYMid meet">
<metadata>
Created by potrace 1.16, written by Peter Selinger 2001-2019
</metadata>
<g transform="translate(0.000000,3954.000000) scale(0.100000,-0.100000)"
fill="#000000" stroke="none">
<path d="M34585 25705 c-226 -26 -374 -47 -495 -71 -202 -39 -233 -45 -270
-55 -19 -5 -106 -27 -193 -49 -87 -22 -191 -51 -230 -64 -40 -14 -110 -36
-157 -51 -47 -14 -94 -30 -105 -35 -11 -5 -90 -35 -175 -68 -161 -63 -228 -92
-445 -198 -362 -176 -768 -430 -1035 -648 -41 -34 -91 -73 -112 -88 -69 -52
-343 -306 -479 -444 -373 -381 -679 -789 -948 -1267 -80 -142 -190 -363 -235
-472 -16 -38 -42 -97 -56 -130 -15 -33 -48 -118 -74 -190 -26 -71 -54 -148
-63 -170 -13 -35 -70 -217 -93 -300 -15 -53 -87 -348 -98 -405 -93 -446 -121
-729 -121 -1220 0 -201 5 -401 14 -500 74 -875 358 -1770 800 -2515 57 -96
238 -376 275 -425 15 -19 62 -82 105 -140 213 -285 587 -685 865 -924 203
-174 217 -171 265 60 13 66 34 162 45 214 11 52 27 129 36 170 9 41 24 116 35
165 11 50 29 135 40 190 12 55 25 116 29 135 4 19 15 71 25 115 9 44 25 121
36 170 11 50 24 110 29 135 5 25 25 122 45 215 20 94 41 193 47 220 5 28 14
66 18 85 4 19 15 71 25 115 9 44 25 121 36 170 11 50 28 133 39 185 24 118 55
258 131 610 11 52 36 172 56 265 19 94 39 186 43 205 4 19 15 71 25 115 9 44
25 121 36 170 11 50 24 110 29 135 5 25 25 122 45 215 20 94 41 193 47 220 5
28 14 66 18 85 4 19 15 71 25 115 9 44 25 121 36 170 11 50 29 135 40 190 12
55 25 116 29 135 4 19 15 71 25 115 9 44 25 121 36 170 11 50 28 133 39 185
11 52 28 136 39 185 11 50 27 126 36 170 10 44 21 96 25 115 4 19 15 71 25
115 9 44 25 121 36 170 11 50 28 133 39 185 11 52 28 136 39 185 11 50 27 126
36 170 10 44 21 96 25 115 4 19 13 58 19 85 5 28 26 127 46 220 20 94 40 190
45 215 5 25 13 57 19 73 l11 27 887 -1 c489 -1 1019 -5 1178 -8 l290 -6 -3
-45 c-2 -37 -56 -318 -93 -485 -5 -22 -13 -62 -19 -90 -5 -27 -21 -104 -35
-170 -29 -133 -34 -156 -64 -300 -11 -55 -29 -140 -40 -190 -11 -49 -27 -126
-36 -170 -10 -44 -21 -96 -25 -115 -4 -19 -15 -71 -25 -115 -9 -44 -25 -120
-36 -170 -11 -49 -28 -133 -39 -185 -22 -104 -58 -273 -90 -420 -11 -52 -25
-115 -30 -140 -5 -25 -25 -121 -45 -215 -20 -93 -41 -192 -47 -220 -5 -27 -14
-66 -18 -85 -4 -19 -15 -71 -25 -115 -9 -44 -25 -120 -36 -170 -11 -49 -28
-133 -39 -185 -11 -52 -28 -135 -39 -185 -11 -49 -27 -126 -36 -170 -10 -44
-21 -96 -25 -115 -4 -19 -13 -57 -19 -85 -10 -50 -73 -346 -92 -440 -6 -27
-15 -66 -19 -85 -4 -19 -15 -71 -25 -115 -9 -44 -25 -120 -36 -170 -11 -49
-28 -133 -39 -185 -11 -52 -28 -135 -39 -185 -11 -49 -27 -126 -36 -170 -10
-44 -21 -96 -25 -115 -4 -19 -17 -80 -28 -135 -18 -86 -56 -264 -82 -385 -26
-121 -64 -299 -82 -385 -11 -55 -24 -116 -28 -135 -4 -19 -13 -57 -18 -85 -6
-27 -27 -126 -47 -220 -20 -93 -40 -190 -45 -215 -5 -25 -19 -88 -30 -140 -11
-52 -32 -151 -46 -220 -15 -69 -30 -141 -34 -160 -4 -19 -17 -80 -29 -135 -11
-55 -36 -176 -56 -270 -78 -375 -115 -565 -115 -589 0 -18 8 -30 28 -39 36
-19 224 -59 450 -97 167 -28 231 -37 472 -65 172 -20 830 -20 1068 0 170 14
408 45 507 65 28 6 75 15 105 21 129 26 334 75 495 119 119 33 331 104 403
136 49 21 81 47 82 65 0 7 -116 170 -246 345 -290 391 -790 1060 -1223 1634
-481 638 -507 673 -575 775 -106 157 -176 313 -207 465 -18 85 -18 471 0 595
29 203 79 405 133 535 6 14 14 34 19 45 51 131 154 311 248 433 72 94 242 260
546 532 27 25 52 47 55 50 3 3 52 48 110 100 58 52 107 97 110 100 4 4 131
118 230 206 60 54 551 493 635 569 145 130 467 418 660 590 105 93 233 208
285 255 52 47 181 162 285 255 247 221 258 230 330 295 68 61 65 58 330 295
105 93 192 172 195 175 3 3 48 43 100 90 52 47 97 87 100 90 7 7 206 188 260
235 69 62 167 153 248 230 65 61 73 73 68 98 -16 82 -297 415 -636 756 -336
338 -709 629 -1130 882 -205 123 -537 291 -715 361 -27 11 -63 25 -80 33 -257
111 -584 212 -1000 310 -154 36 -454 85 -655 106 -150 17 -1023 20 -1155 4z"/>
<path d="M40738 21348 c-92 -79 -443 -387 -608 -533 -69 -61 -208 -184 -310
-274 -364 -323 -967 -859 -1075 -956 -44 -40 -192 -172 -330 -295 -137 -123
-293 -262 -345 -309 -52 -47 -115 -104 -140 -126 -25 -22 -69 -62 -100 -90
-30 -27 -84 -77 -120 -109 -201 -184 -303 -311 -369 -461 l-35 -80 0 -200 c0
-195 0 -202 27 -270 70 -175 225 -377 1431 -1855 259 -318 342 -410 369 -410
38 0 464 444 671 700 178 220 412 571 538 808 28 54 70 131 92 172 23 41 57
109 75 150 19 41 49 107 66 145 54 117 81 184 130 315 71 191 81 218 108 310
14 47 37 123 51 170 38 120 107 423 136 595 6 33 15 83 20 110 11 55 32 237
49 410 39 399 27 893 -30 1305 -34 244 -35 245 -78 445 -11 50 -25 115 -31
145 -6 30 -15 66 -20 80 -4 14 -16 51 -25 83 -18 60 -37 87 -60 87 -8 0 -47
-28 -87 -62z"/>
</g>
</svg>
