<?xml version="1.0" encoding="UTF-8" standalone="no"?>
<svg
   version="1.1"
   width="7030.000000pt"
   height="4686.000000pt"
   viewBox="0 0 7030.000000 4686.000000"
   id="svg4"
   sodipodi:docname="kali-linux.svg"
   inkscape:version="1.4 (e7c3feb100, 2024-10-09)"
   xmlns:inkscape="http://www.inkscape.org/namespaces/inkscape"
   xmlns:sodipodi="http://sodipodi.sourceforge.net/DTD/sodipodi-0.dtd"
   xmlns="http://www.w3.org/2000/svg"
   xmlns:svg="http://www.w3.org/2000/svg">
  <sodipodi:namedview
     id="namedview1"
     pagecolor="#ffffff"
     bordercolor="#666666"
     borderopacity="1.0"
     inkscape:showpageshadow="2"
     inkscape:pageopacity="0.0"
     inkscape:pagecheckerboard="0"
     inkscape:deskcolor="#d1d1d1"
     inkscape:document-units="pt"
     inkscape:zoom="0.19398207"
     inkscape:cx="4686"
     inkscape:cy="3124"
     inkscape:window-width="2560"
     inkscape:window-height="1416"
     inkscape:window-x="0"
     inkscape:window-y="0"
     inkscape:window-maximized="1"
     inkscape:current-layer="svg4" />
  <defs
     id="defs8" />
  <path
     d="m 3069.8705,1857.6847 c -32.6214,0.3035 -56.9759,0.3035 -74.2927,0.5159 -17.2803,0.3035 -26.5669,0.3035 -32.6366,0.7587 -0.6373,0 -1.7299,0.3035 -2.9438,0.5159 -0.3642,0 -1.6995,0.3035 -2.9438,0.6677 1.5781,-0.5159 -0.6373,0 -2.792,0.9408 -2.1548,1.0015 -4.0971,2.4886 -5.9028,4.2154 -2.9134,2.792 -6.3003,7.4596 -6.7464,14.5035 -0.4552,7.3594 2.2458,12.1636 5.3959,15.772 1.7602,2.0333 3.7359,3.8451 5.9877,5.0591 2.2458,1.2139 4.6707,1.8816 2.8831,1.1836 2.2155,0.8497 5.0075,1.2442 4.6373,1.1835 3.2503,0.5767 6.273,0.8498 10.543,1.1836 8.7646,0.6677 22.6702,1.4264 41.2373,2.5189 181.8625,10.9042 299.6687,29.6352 400.7468,56.0807 -174.9521,7.9422 -318.6667,20.0117 -438.0692,41.7442 -39.0067,7.0954 -62.1473,11.4261 -76.32,14.8403 -6.8678,1.6692 -12.0817,2.9742 -17.4564,5.7359 -0.9711,0.5159 -8.713,4.8982 -11.8904,12.3123 -2.3976,5.578 -2.61,10.2972 -0.7588,16.1059 1.4568,4.5097 4.2094,7.9209 5.8178,9.5293 1.9727,1.9727 4.2154,3.5356 6.4946,4.5553 2.2761,1.0319 4.446,1.4871 3.3747,1.1836 1.5781,0.4552 3.1441,0.607 3.6236,0.6677 0,0 0,0 0.3035,0 1.5174,0.3035 2.8527,0.3035 3.7966,0.3035 2.1547,0.021 4.3125,0 6.8283,-0.3035 5.1107,-0.3035 11.7661,-0.9105 19.8175,-1.6995 16.115,-1.5478 37.6684,-3.918 61.1428,-6.9134 122.2978,-15.6081 237.0722,-25.9327 333.6102,-30.0236 21.3015,-0.9105 48.5908,0 74.5507,0 -97.0175,24.916 -206.8391,60.8575 -287.8995,100.9477 -30.7945,15.2227 -60.8333,32.1419 -83.1514,46.2964 -11.147,7.0681 -20.297,13.2895 -27.2377,18.9738 -3.3474,2.7313 -6.5886,5.5932 -9.5294,9.3624 -1.0925,1.3961 -3.7055,5.05 -4.9771,9.5264 -1.1532,4.0454 -1.0015,7.2988 -0.3035,11.0498 0.7284,3.7511 2.2762,8.0089 6.0727,11.8055 3.0349,3.0348 6.6949,5.1562 10.2881,5.9877 3.5902,0.8194 7.3352,0.4249 5.5659,0.4249 2.0637,-0.012 4.1911,-0.3642 4.5553,-0.4249 v 0 c 1.7602,-0.3641 3.2685,-0.698 4.2154,-1.0015 2.2458,-0.7283 4.5765,-1.6691 7.3382,-2.792 5.5447,-2.2458 12.8586,-5.4445 21.7567,-9.4444 17.6992,-7.9573 41.6258,-19.1407 67.5494,-31.708 l 0.3338,-0.3034 c 148.804,-66.4872 274.3733,-113.3299 449.5045,-122.0277 1.7602,3.9028 3.3717,7.3564 5.3959,12.1454 v 0 l 12.9891,29.7687 c -71.4946,50.9488 -99.6457,129.5085 -85.5975,201.0365 14.725,74.9817 72.4446,141.308 160.8189,156.0937 22.6399,3.6995 48.172,5.9301 77.2487,7.0863 150.0726,-6.1425 232.7657,125.017 279.6418,240.1708 5.49,15.0042 10.2425,29.5592 13.4928,41.4892 3.2139,11.8055 4.8012,22.7582 4.8072,24.1178 0.015,6.622 0.7587,13.065 2.7921,19.1437 0.9408,2.8224 2.5796,6.6736 5.3959,10.2881 3.2776,4.2033 9.7843,9.7813 19.4806,9.7813 7.6053,0 12.6401,-2.792 16.9496,-7.2533 3.1258,-3.2351 4.8982,-7.0165 5.6508,-9.0225 1.6692,-4.4703 2.0334,-8.6372 2.2761,-11.9755 0.516,-7.2198 0,-15.3502 -0.7587,-24.6216 -1.7905,-18.6217 -5.8056,-42.0355 -11.6386,-65.4401 -14.3031,-57.4069 -46.8942,-130.9895 -87.1118,-179.8746 64.2929,18.5033 122.495,88.4016 138.7192,136.1062 1.5174,4.4369 3.918,9.6811 8.0969,14.1666 1.7602,1.8816 6.2063,5.8542 12.1424,7.4232 4.616,1.2139 8.2639,0.7284 11.8905,-0.3035 3.6266,-0.9711 7.2108,-2.3975 10.6249,-5.8208 7.9088,-7.9057 7.4809,-20.0238 7.3383,-22.1786 -0.3035,-4.7707 -1.2443,-9.2987 -2.4582,-13.9147 -2.4583,-9.3564 -6.2457,-20.0572 -10.9619,-31.456 -9.4292,-22.7795 -22.0389,-47.7805 -34.9127,-65.2702 -46.7395,-63.4918 -141.5477,-112.6257 -248.0127,-134.5039 -25.787,-5.2988 -82.1773,-13.9997 -130.2915,-13.9997 1.4567,0 -3.4749,0 -8.4338,-0.5159 -4.9559,-0.3642 -11.3837,-1.0318 -18.2971,-1.6084 -13.8297,-1.1229 -29.3316,-2.3976 -37.5287,-3.1229 -77.1303,-6.7343 -110.2161,-63.1883 -107.2662,-118.9898 2.9438,-55.8015 41.9748,-109.2904 121.014,-109.2904 23.7324,0 36.5758,0.9711 57.847,7.0833 21.1983,6.1 50.8668,17.9055 102.2921,39.7169 22.303,9.4626 34.8854,15.7204 39.383,18.8068 5.6509,3.8725 2.2762,-0.5462 4.1335,5.7328 1.5477,5.2199 1.1532,19.6324 12.9011,30.6124 7.3443,6.8587 15.5838,9.3776 25.2164,13.4929 9.5233,4.0697 19.4533,8.2183 24.4547,10.9648 21.0891,12.3488 29.3772,17.7629 47.395,41.3193 4.8648,6.4005 14.4762,6.4399 19.3956,0 18.9222,-24.4183 21.8842,-22.0541 46.0415,-30.1056 12.5672,-4.0818 10.6158,-22.4334 -2.5189,-23.7809 -14.0938,-1.5781 -33.717,-10.7585 -45.0339,-19.3107 -2.9438,-2.2457 -3.1107,-2.7617 -4.6372,-4.4703 3.8876,-5.0621 3.226,-12.2607 -1.5175,-16.5277 -8.4307,-7.5598 -14.5034,-19.1832 -19.5655,-30.4454 -1.214,-2.6707 -2.3976,-5.1016 -3.5417,-7.6751 -0.021,0 0,0 0,-0.3035 -0.6677,-2.0637 -1.4567,-3.8603 -2.1851,-5.311 -0.3035,-0.5766 -0.789,-1.1836 -1.0925,-1.7602 -0.3035,-0.3642 -0.3035,-0.8194 -0.5159,-1.1836 -1.1229,-2.1547 -2.4583,-4.3489 -3.9635,-6.4095 -0.015,0 0,0 0,0 v -0.3035 c -0.3946,-0.7891 -0.7284,-1.6085 -1.1836,-2.3672 -1.4567,-2.3975 -3.2958,-5.0075 -5.5659,-7.927 -2.5796,-3.1228 -5.6175,-5.8693 -8.2669,-8.9376 -45.5073,-59.7953 -102.9719,-111.2995 -166.051,-149.4291 -5.2836,-3.1714 -9.9026,-5.7723 -14.7583,-7.6751 -1.821,-0.7284 -5.66,-2.1548 -10.2032,-2.2762 -2.1547,0 -7.0347,0.3035 -11.5536,2.7921 -6.2153,3.4597 -9.15,7.669 -10.54,14.3365 -0.3034,0.9712 0,1.8513 0,2.8831 0,0.3035 -0.4552,0.5463 -0.5159,0.8498 -0.3035,1.8512 0.3035,2.1851 0.5766,3.1198 0.516,3.3444 1.2747,6.0363 1.0926,5.6509 v 0 c 0.7283,1.6388 1.7298,3.2047 2.0333,3.6266 0.9105,1.3353 1.8816,2.4279 2.2761,2.8831 v 0 c 1.1836,1.2746 2.2762,2.4582 3.5417,3.6266 2.5796,2.3975 5.8572,5.2806 9.8662,8.6857 l 0.3035,0.3035 0.3035,0.3035 c 43.8625,33.5015 90.869,74.9361 123.1202,109.2904 -169.7717,-119.5603 -282.0909,-22.2301 -298.6095,-172.1145 V 1947.27 c 0,-5.0288 -3.0743,-9.5476 -7.757,-11.3837 l -41.2373,-16.1908 c -121.6362,-47.7501 -246.3618,-63.6678 -476.6056,-62.2354 z"
     stroke-width="40.4774"
     id="path2" />
</svg>
