<?xml version="1.0" encoding="UTF-8" standalone="no"?>
<svg
   version="1.1"
   width="7030.000000pt"
   height="4686.000000pt"
   viewBox="0 0 7030.000000 4686.000000"
   id="svg4"
   sodipodi:docname="kali-linux.svg"
   inkscape:version="1.4 (e7c3feb100, 2024-10-09)"
   xmlns:inkscape="http://www.inkscape.org/namespaces/inkscape"
   xmlns:sodipodi="http://sodipodi.sourceforge.net/DTD/sodipodi-0.dtd"
   xmlns="http://www.w3.org/2000/svg"
   xmlns:svg="http://www.w3.org/2000/svg">
  <sodipodi:namedview
     id="namedview1"
     pagecolor="#ffffff"
     bordercolor="#666666"
     borderopacity="1.0"
     inkscape:showpageshadow="2"
     inkscape:pageopacity="0.0"
     inkscape:pagecheckerboard="0"
     inkscape:deskcolor="#d1d1d1"
     inkscape:document-units="pt"
     inkscape:zoom="0.096991035"
     inkscape:cx="2866.2443"
     inkscape:cy="3392.0661"
     inkscape:window-width="1908"
     inkscape:window-height="999"
     inkscape:window-x="1920"
     inkscape:window-y="0"
     inkscape:window-maximized="1"
     inkscape:current-layer="svg4"
     showgrid="false" />
  <defs
     id="defs8" />
  <path
     fill="currentcolor"
     d="m 3597.181,1703.3138 c 0,0 -208.1633,-13.8511 -562.6442,97.0674 -361.2485,113.0344 -566.1299,273.2499 -566.1299,273.2499 0,0 538.4278,-300.6259 1146.1618,-317.7077 z m 776.4335,326.8603 27.0621,-1.7734 c 0,0 -155.0462,-188.1174 -451.8154,-279.7525 166.8221,67.8121 312.0206,157.6615 424.7452,281.5055 z m 44.2887,78.1611 c 4.1604,-7.2139 17.5916,22.918 27.7918,35.5766 0.4281,2.5276 1.1416,4.0706 -4.7658,2.8538 -0.4893,-2.5991 -1.3453,-3.3512 -1.3453,-3.3512 0,0 -14.2731,-8.4941 -18.6495,-14.5196 -4.3807,-6.0236 -5.1573,-16.5622 -3.023,-20.5596 z m 364.2042,895.4772 c 0,0 32.9144,-377.882 -560.7892,-465.004 -75.2483,-11.04 -170.4097,-19.5382 -266.6659,-19.7808 -475.8483,6.2906 -493.1953,-548.8237 -134.6253,-576.852 148.6027,-12.2611 326.045,67.9017 499.5144,148.6842 -0.6524,21.5441 0.2446,40.6889 14.3993,58.3804 14.1508,17.6853 68.5052,36.981 85.8745,46.9468 17.3695,9.9699 73.008,45.3446 107.1046,89.7251 7.3954,-13.8307 69.1452,-54.0263 69.1452,-54.0263 0,0 -14.7928,0.3261 -49.2073,-12.5403 -34.4188,-12.8624 -75.2605,-51.7779 -76.2267,-54.0263 -0.958,-2.2525 -1.6104,-5.7891 6.4373,-7.3974 6.1071,-5.1429 -7.7236,-21.8661 -13.8347,-27.9733 -6.1072,-6.1111 -46.957,-75.5702 -47.9191,-77.1806 -0.9582,-1.6103 -1.2843,-3.2146 -4.1808,-5.1469 -9.0079,-2.8967 -48.5674,4.1807 -48.5674,4.1807 0,0 -60.8407,-29.8811 -81.8119,-94.3054 0.3057,11.2847 -10.4326,23.605 0,49.5295 -31.7219,-13.4189 -58.9694,-36.3063 -80.4605,-92.8642 -12.791,32.1683 0,52.6218 0,52.6218 0,0 -74.6999,-20.8734 -86.6511,-89.7637 -13.1173,30.9247 0,49.5254 0,49.5254 0,0 -121.7792,-63.5416 -324.1289,-64.463 -135.4732,-12.4262 -163.6769,-250.7459 -151.1263,-290.862 0,0 -195.4028,-102.9828 -580.0523,-148.4803 -384.6495,-45.5016 -700.1151,-6.8573 -700.1151,-6.8573 0,0 681.2597,-32.6942 1227.0259,188.2601 18.5536,82.9821 74.3655,221.1888 104.4261,287.6209 -86.0151,59.4709 -183.0112,115.3928 -198.1159,313.733 -15.0986,198.332 155.4192,372.7859 366.8745,378.1673 200.7882,10.6956 339.519,12.2142 507.668,99.3912 160.5031,88.7467 292.1054,359.1693 305.1309,602.373 14.0671,-180.449 -53.6512,-568.4945 -369.6468,-686.315 441.6642,77.2906 480.5164,404.7075 480.5164,404.7075 z m -1195.3285,-1330.129 -15.8934,-51.2602 c 0,0 -262.2222,-46.5656 -614.787,-21.5053 -352.5649,25.0603 -708.5338,148.4763 -708.5338,148.4763 0,0 728.3676,-183.2741 1339.2,-75.7129"
     id="path32"
     style="stroke-width:20.3841" />
</svg>
