<?xml version="1.0" standalone="no"?>
<!DOCTYPE svg PUBLIC "-//W3C//DTD SVG 20010904//EN"
 "http://www.w3.org/TR/2001/REC-SVG-20010904/DTD/svg10.dtd">
<svg version="1.0" xmlns="http://www.w3.org/2000/svg"
 width="7030.000000pt" height="4687.000000pt" viewBox="0 0 7030.000000 4687.000000"
 preserveAspectRatio="xMidYMid meet">
<metadata>
Created by potrace 1.16, written by Peter Selinger 2001-2019
</metadata>
<g transform="translate(0.000000,4687.000000) scale(0.100000,-0.100000)"
fill="#000000" stroke="none">
<path fill="#0078c1" d="M22275 26290 c-49 -4 -110 -12 -135 -18 -25 -6 -94 -16 -155 -23 -60
-6 -133 -20 -161 -30 -28 -11 -85 -26 -125 -34 -41 -7 -99 -25 -129 -39 -30
-14 -64 -26 -76 -26 -12 0 -41 -11 -65 -23 -24 -13 -62 -30 -84 -37 -22 -7
-53 -22 -68 -32 -15 -11 -43 -24 -61 -29 -33 -9 -125 -59 -176 -96 -14 -10
-41 -26 -60 -35 -19 -10 -46 -26 -60 -36 -14 -10 -58 -40 -97 -67 -40 -27 -73
-52 -73 -56 0 -4 -9 -10 -19 -14 -10 -3 -30 -16 -42 -28 -13 -13 -77 -69 -141
-126 -64 -57 -118 -107 -120 -111 -2 -5 -41 -49 -87 -99 -46 -50 -91 -102
-100 -115 -9 -13 -36 -50 -61 -82 -24 -33 -62 -86 -84 -119 -21 -33 -52 -79
-67 -102 -16 -23 -29 -45 -29 -50 0 -5 -16 -33 -35 -63 -19 -30 -35 -62 -35
-71 0 -9 -9 -28 -21 -42 -11 -15 -27 -48 -36 -74 -9 -27 -24 -59 -34 -73 -10
-14 -23 -47 -29 -73 -6 -27 -20 -67 -32 -90 -11 -23 -29 -76 -39 -117 -9 -41
-24 -93 -32 -115 -9 -23 -21 -79 -27 -125 -6 -47 -21 -123 -33 -170 -20 -78
-21 -111 -21 -415 0 -304 1 -337 21 -415 12 -47 27 -123 33 -170 6 -47 20
-110 31 -140 11 -30 26 -84 34 -120 8 -36 26 -87 40 -114 14 -27 25 -59 25
-71 0 -12 14 -47 30 -78 17 -31 30 -63 30 -70 0 -8 11 -30 24 -49 13 -20 29
-53 36 -74 7 -22 21 -48 31 -59 10 -11 25 -36 33 -55 8 -19 26 -50 40 -69 14
-19 26 -38 26 -43 0 -9 80 -127 117 -173 13 -16 33 -41 44 -55 58 -74 233
-271 266 -300 21 -18 74 -66 118 -106 78 -71 99 -88 200 -158 28 -19 76 -53
107 -75 32 -23 61 -41 66 -41 5 0 28 -13 50 -30 23 -16 46 -30 51 -30 4 0 26
-12 47 -26 21 -15 59 -34 84 -42 25 -8 61 -26 80 -39 19 -12 40 -23 48 -23 7
0 34 -11 61 -25 27 -13 70 -29 97 -36 27 -6 64 -20 83 -31 19 -11 69 -26 110
-33 42 -7 99 -22 128 -34 29 -11 99 -25 159 -31 59 -6 137 -18 173 -27 95 -24
566 -24 661 -1 36 9 112 22 169 28 58 6 123 18 145 27 23 8 79 23 126 33 47
10 110 30 140 44 30 14 64 26 75 26 11 0 47 14 80 30 33 16 65 30 72 30 6 0
55 23 110 51 189 99 227 120 300 170 23 16 45 29 50 29 5 0 20 10 33 23 25 22
42 35 127 97 26 19 53 39 60 45 6 5 46 42 89 80 153 139 330 332 366 399 6 12
19 30 29 41 49 54 89 108 89 120 0 7 11 27 25 43 14 17 32 46 40 65 8 20 19
38 24 41 12 8 101 185 101 200 0 6 11 27 24 47 13 19 30 55 36 80 7 24 22 64
35 89 12 25 26 63 29 85 4 21 16 55 26 75 10 20 26 76 35 124 9 49 23 107 31
129 18 51 29 134 49 389 14 177 14 216 0 400 -19 248 -31 345 -51 401 -9 23
-22 78 -29 122 -8 44 -23 100 -34 125 -10 25 -29 74 -41 110 -44 133 -66 186
-87 221 -13 20 -23 41 -23 47 0 15 -88 181 -111 211 -11 13 -19 28 -19 34 0 6
-11 24 -24 41 -12 17 -31 47 -41 66 -10 19 -21 37 -26 40 -8 6 -41 49 -83 111
-111 164 -350 401 -556 554 -22 17 -54 41 -71 54 -51 40 -162 111 -175 111 -6
0 -18 7 -25 17 -8 9 -34 25 -59 36 -25 11 -52 26 -60 33 -9 7 -34 20 -56 27
-22 8 -56 26 -76 40 -21 13 -53 28 -73 31 -20 4 -50 15 -68 26 -18 10 -54 24
-82 31 -27 7 -70 22 -95 35 -25 12 -69 25 -99 29 -30 4 -84 18 -121 31 -36 12
-111 28 -166 33 -54 6 -134 17 -176 26 -93 17 -397 27 -523 15z m38 -683 c18
-8 37 -25 43 -38 6 -13 25 -53 42 -89 17 -36 34 -78 38 -94 4 -17 20 -54 36
-84 15 -30 28 -60 28 -68 0 -8 14 -40 30 -71 17 -31 30 -61 30 -68 0 -6 8 -19
18 -27 22 -20 308 -79 345 -71 27 5 50 27 197 188 40 44 107 115 148 158 68
68 80 77 113 77 20 0 42 -7 49 -15 6 -8 35 -26 63 -40 101 -51 135 -70 153
-87 11 -9 36 -23 56 -31 26 -11 39 -24 44 -42 11 -43 -4 -140 -30 -202 -13
-32 -29 -85 -36 -118 -7 -33 -20 -76 -30 -95 -18 -35 -40 -133 -40 -177 0 -21
64 -104 182 -237 39 -44 46 -48 78 -43 156 24 266 37 392 48 l148 12 34 -26
c26 -20 37 -39 46 -79 7 -29 21 -70 32 -92 33 -65 72 -217 61 -235 -14 -23
-104 -70 -175 -90 -35 -10 -87 -28 -115 -40 -29 -11 -77 -31 -105 -42 -29 -12
-83 -29 -119 -39 -36 -9 -76 -24 -90 -33 -13 -8 -53 -23 -88 -32 -35 -9 -74
-23 -86 -31 -38 -25 -82 -33 -119 -23 -43 12 -45 15 -67 103 -17 69 -58 181
-81 221 -7 11 -23 41 -37 66 -72 129 -212 289 -313 357 -74 49 -143 91 -178
108 -19 9 -62 29 -95 45 -33 16 -69 29 -81 29 -11 0 -58 12 -105 26 -77 24
-99 27 -254 27 -150 0 -177 -2 -230 -21 -33 -12 -84 -25 -113 -29 -89 -10
-114 29 -137 221 -8 66 -23 154 -34 194 -11 41 -22 108 -26 150 -4 43 -17 123
-31 178 -30 126 -32 204 -5 228 11 10 55 22 112 31 52 8 128 23 169 34 91 24
93 24 133 8z m-1268 -644 c17 -16 51 -44 73 -63 23 -19 61 -52 84 -73 24 -21
75 -64 113 -95 166 -135 361 -305 372 -325 26 -45 16 -73 -54 -150 -83 -92
-133 -153 -133 -164 0 -5 -13 -24 -29 -43 -15 -19 -32 -46 -36 -60 -4 -14 -17
-43 -30 -65 -13 -22 -28 -60 -34 -85 -7 -25 -21 -67 -32 -93 -27 -64 -42 -240
-34 -402 6 -145 37 -268 101 -400 19 -38 34 -75 34 -81 0 -6 12 -27 28 -47 15
-20 41 -55 57 -79 17 -23 58 -73 93 -110 68 -73 84 -103 75 -139 -6 -28 -93
-113 -208 -204 -21 -16 -59 -47 -84 -68 -25 -21 -63 -52 -85 -70 -21 -18 -51
-43 -66 -57 -15 -14 -47 -41 -70 -60 -23 -19 -52 -44 -64 -55 -54 -51 -122
-95 -148 -95 -21 0 -42 17 -99 83 -40 45 -82 93 -95 107 -81 88 -89 102 -89
151 0 37 6 54 26 76 14 15 32 38 40 49 8 12 48 66 89 119 165 215 170 223 170
255 0 37 -25 123 -43 151 -9 13 -23 53 -31 89 -15 64 -41 100 -72 100 -7 0
-49 11 -94 26 -44 14 -123 31 -175 39 -52 8 -110 21 -129 29 -19 8 -59 19 -89
26 -77 16 -79 22 -75 269 3 199 3 203 27 222 13 10 34 19 47 19 13 0 57 11 97
24 41 13 101 27 133 31 78 8 296 73 310 91 7 8 15 36 19 62 4 26 20 74 36 107
31 66 45 131 35 169 -5 21 -31 57 -98 136 -11 14 -31 41 -44 60 -13 19 -40 55
-59 80 -19 25 -42 56 -52 70 -9 14 -28 38 -42 53 -20 22 -26 39 -26 76 0 45 4
52 94 156 159 185 172 197 205 191 15 -3 43 -18 61 -33z m2733 -1747 c26 -13
63 -27 82 -31 19 -4 58 -18 86 -31 28 -13 73 -28 100 -34 27 -6 62 -19 79 -29
16 -10 53 -24 80 -30 28 -7 65 -21 84 -32 18 -11 56 -25 85 -31 28 -6 84 -26
123 -45 56 -26 74 -40 79 -60 8 -32 -20 -152 -50 -212 -13 -25 -27 -65 -31
-88 -3 -23 -16 -54 -27 -68 -24 -31 -75 -58 -94 -51 -8 3 -97 13 -197 21 -100
8 -215 22 -255 31 -84 18 -99 13 -149 -52 -15 -20 -58 -72 -95 -116 -53 -62
-68 -86 -68 -111 0 -43 25 -145 44 -182 9 -16 20 -55 26 -85 6 -30 22 -80 36
-111 25 -60 41 -160 31 -202 -5 -17 -30 -38 -89 -72 -46 -26 -94 -55 -108 -65
-14 -9 -45 -27 -70 -39 -25 -12 -56 -28 -70 -36 -52 -31 -65 -21 -317 258 -69
75 -133 142 -143 147 -27 14 -97 12 -160 -4 -30 -8 -84 -20 -120 -26 -69 -13
-110 -33 -110 -53 0 -7 -13 -39 -29 -72 -16 -33 -33 -73 -37 -89 -4 -17 -20
-54 -36 -84 -15 -30 -28 -60 -28 -68 0 -7 -14 -42 -31 -76 -17 -35 -36 -74
-43 -88 -25 -52 -98 -60 -215 -24 -25 8 -91 21 -146 29 -72 10 -103 19 -113
32 -19 24 -9 165 18 258 11 38 27 124 35 190 8 66 22 143 31 170 8 28 21 101
29 162 15 120 32 165 67 184 27 15 104 4 171 -23 46 -19 72 -22 232 -22 167
-1 186 1 270 26 50 14 106 29 126 32 21 4 48 15 60 25 13 10 44 25 69 33 43
14 62 25 174 100 57 39 232 210 275 270 17 24 42 66 55 95 14 28 29 54 35 57
5 4 15 23 22 44 6 20 22 60 35 88 13 28 28 75 34 105 7 40 18 61 40 82 37 33
57 34 118 3z"/>
<path d="M27714 25466 c-19 -14 -19 -47 -22 -1973 -1 -1077 0 -1967 3 -1979 8
-37 46 -44 229 -44 167 0 173 1 194 23 l22 23 0 566 c0 625 -3 598 62 598 23
0 49 -16 107 -66 76 -66 247 -222 307 -279 17 -16 75 -70 130 -120 54 -49 110
-101 124 -115 14 -14 48 -45 76 -70 156 -139 424 -383 508 -463 103 -99 96
-97 389 -97 218 0 256 2 267 16 22 26 1 56 -95 139 -49 43 -94 83 -100 90 -5
6 -84 76 -175 156 -91 79 -176 155 -190 169 -14 14 -70 66 -125 115 -54 50
-128 117 -164 150 -37 33 -93 83 -125 110 -33 28 -69 59 -81 70 -11 11 -63 58
-115 105 -239 217 -330 304 -330 315 0 12 129 136 260 250 75 66 97 85 133
120 18 17 55 48 82 70 64 51 207 175 220 191 6 6 51 47 100 89 50 43 97 85
106 94 18 18 35 32 174 150 55 47 109 94 121 105 11 12 51 48 89 81 38 33 81
71 95 85 14 14 38 33 53 43 21 14 27 25 25 45 l-3 27 -265 3 c-146 1 -275 0
-287 -3 -21 -5 -171 -127 -203 -165 -8 -10 -55 -53 -105 -95 -49 -43 -94 -84
-100 -90 -5 -7 -84 -77 -175 -157 -91 -79 -176 -154 -190 -168 -81 -79 -472
-424 -507 -447 -24 -16 -54 -11 -78 13 -13 14 -15 152 -15 1145 0 1139 -1
1159 -34 1181 -6 4 -92 8 -192 8 -140 0 -185 -3 -200 -14z"/>
<path d="M34304 25459 c-19 -21 -19 -70 -22 -1980 l-2 -1960 25 -25 25 -25
174 3 c233 4 216 -14 216 230 0 111 4 197 10 209 7 12 21 19 39 19 24 0 36
-11 75 -69 75 -112 201 -233 331 -318 133 -87 358 -142 605 -150 121 -4 172
-1 230 12 41 9 107 21 145 27 39 6 90 21 115 33 25 12 59 25 75 29 17 4 46 16
65 28 19 12 55 32 80 45 78 40 237 169 295 239 17 19 41 48 55 64 52 59 134
192 156 253 7 21 22 49 33 63 11 13 22 44 26 67 4 23 18 67 31 98 55 134 76
555 40 844 -10 82 -24 161 -32 176 -7 15 -22 58 -33 97 -10 38 -26 81 -35 94
-8 13 -22 43 -30 67 -9 23 -27 56 -41 73 -14 16 -25 36 -25 43 0 7 -16 32 -35
55 -19 23 -35 45 -35 50 0 12 -182 193 -230 228 -103 75 -105 76 -245 151 -21
11 -46 21 -54 21 -8 0 -39 12 -69 26 -30 14 -84 30 -119 35 -35 5 -102 16
-150 24 -109 19 -269 19 -369 0 -44 -8 -113 -19 -154 -25 -41 -6 -88 -19 -105
-29 -17 -10 -54 -26 -82 -35 -28 -9 -57 -23 -63 -31 -6 -8 -28 -19 -47 -26
-68 -22 -247 -181 -299 -266 -52 -84 -117 -119 -129 -70 -3 12 -7 375 -8 805
l-2 784 -24 19 c-21 17 -41 19 -206 19 -172 0 -183 -1 -201 -21z m1716 -1551
c36 -15 81 -31 101 -37 20 -6 51 -23 69 -36 19 -14 39 -25 46 -25 29 0 208
-165 264 -244 34 -48 120 -216 120 -235 0 -7 12 -47 28 -89 l27 -77 0 -300 c0
-282 -1 -303 -21 -350 -12 -27 -27 -75 -34 -105 -7 -30 -24 -71 -36 -90 -13
-19 -24 -39 -24 -45 0 -6 -21 -42 -46 -80 -54 -83 -198 -227 -257 -256 -23
-12 -53 -30 -67 -39 -14 -10 -45 -23 -68 -30 -24 -6 -61 -20 -83 -32 -92 -48
-565 -48 -657 0 -20 10 -63 27 -94 36 -31 9 -60 21 -63 26 -4 6 -27 21 -53 35
-26 13 -75 48 -108 77 -127 110 -217 238 -264 378 -10 30 -26 75 -35 99 -40
110 -40 653 1 762 9 24 23 64 31 89 23 70 65 151 125 237 48 70 204 208 265
235 15 7 43 23 61 35 18 12 47 25 65 28 18 4 52 16 77 28 67 30 133 36 360 33
193 -3 209 -4 270 -28z"/>
<path d="M45447 25242 c-15 -17 -17 -64 -17 -473 0 -346 -3 -460 -13 -479
l-13 -25 -393 -5 c-374 -5 -393 -6 -407 -24 -20 -28 -20 -314 0 -342 14 -18
32 -19 409 -22 307 -2 397 -6 406 -16 7 -8 11 -325 13 -1022 l3 -1009 22 -45
c11 -25 30 -65 41 -90 23 -52 79 -113 125 -136 18 -9 39 -23 48 -30 41 -36
153 -46 552 -51 214 -3 399 -2 412 1 38 10 48 62 43 218 -2 88 -8 141 -16 151
-10 12 -66 15 -345 19 -182 3 -340 9 -350 13 -10 4 -32 28 -50 54 l-32 46 -3
935 c-2 872 -1 936 15 948 13 9 117 12 441 12 273 0 430 4 443 10 18 10 19 23
19 178 0 119 -4 173 -12 185 -12 15 -55 17 -441 19 l-429 3 -19 24 c-18 22
-19 45 -19 477 0 441 -1 455 -20 474 -19 19 -33 20 -208 20 -170 0 -191 -2
-205 -18z"/>
<path d="M42780 24310 c-86 -5 -151 -14 -180 -24 -25 -10 -74 -25 -110 -35
-36 -10 -83 -30 -104 -44 -21 -15 -43 -27 -48 -27 -30 0 -257 -220 -287 -278
-22 -44 -74 -102 -90 -102 -6 0 -20 9 -31 20 -19 19 -20 33 -20 214 0 190 -1
195 -22 210 -18 13 -56 16 -200 16 -165 0 -180 -2 -198 -20 -20 -20 -20 -33
-20 -1370 l0 -1351 25 -25 25 -25 186 3 c170 3 187 5 200 22 12 17 14 127 14
685 1 770 8 989 39 1071 11 30 25 77 32 104 32 132 168 318 299 410 54 38 191
104 230 111 19 4 64 16 100 28 95 31 336 31 430 0 36 -12 81 -25 100 -28 41
-8 145 -64 210 -113 59 -44 117 -111 136 -159 9 -21 24 -48 35 -61 10 -13 21
-44 25 -70 4 -26 16 -72 28 -102 20 -54 21 -75 26 -961 4 -753 7 -909 19 -923
12 -14 37 -16 210 -14 l195 3 13 25 c11 20 13 205 10 960 -3 824 -6 942 -20
990 -9 30 -24 84 -33 120 -9 36 -29 92 -44 125 -16 33 -33 71 -39 85 -12 26
-37 64 -93 139 -46 61 -167 180 -203 198 -16 9 -37 21 -45 28 -25 22 -193 105
-212 105 -10 0 -48 12 -85 26 -54 20 -98 27 -208 34 -77 5 -144 9 -150 8 -5
-1 -71 -4 -145 -8z"/>
<path d="M30755 24236 c-15 -22 -16 -119 -13 -963 4 -848 6 -943 21 -993 10
-30 24 -84 33 -120 8 -36 29 -92 45 -125 16 -33 29 -65 29 -72 0 -6 11 -24 24
-40 13 -15 31 -43 40 -61 40 -78 249 -264 341 -303 17 -7 41 -21 55 -30 14
-10 55 -25 90 -34 35 -9 76 -23 91 -31 46 -23 164 -35 349 -35 202 0 337 14
389 41 20 10 55 22 76 26 44 8 142 63 224 127 63 48 184 184 221 247 14 23 35
49 48 57 20 14 25 14 47 -1 l25 -16 0 -199 c0 -255 -18 -235 216 -239 l174 -3
25 25 25 25 0 1351 c0 1337 0 1350 -20 1370 -19 19 -33 20 -206 20 -109 0
-193 -4 -205 -10 -18 -10 -19 -29 -19 -673 -1 -815 -8 -993 -44 -1096 -14 -41
-26 -82 -26 -90 0 -23 -80 -180 -114 -224 -64 -84 -195 -201 -261 -235 -22
-11 -58 -29 -80 -41 -21 -11 -49 -21 -60 -21 -12 0 -53 -11 -91 -24 -84 -29
-243 -41 -359 -27 -98 12 -263 61 -303 90 -17 11 -35 21 -40 21 -14 0 -86 57
-134 105 -22 22 -49 60 -60 85 -11 25 -27 52 -35 61 -15 17 -59 176 -73 264
-5 28 -9 437 -9 910 -1 762 -3 863 -17 883 -15 21 -20 22 -209 22 l-195 0 -15
-24z"/>
<path d="M37940 24240 c-8 -14 -10 -306 -8 -968 3 -946 3 -947 25 -1012 12
-36 27 -90 34 -120 6 -30 25 -79 40 -109 16 -30 29 -59 29 -66 0 -6 13 -29 30
-51 16 -21 30 -43 30 -48 0 -16 132 -160 191 -209 50 -41 131 -93 159 -102 14
-4 36 -16 50 -25 14 -10 45 -23 70 -30 25 -6 72 -22 105 -35 121 -48 583 -51
712 -5 32 12 83 28 113 36 30 9 62 22 70 29 8 7 31 21 50 30 83 43 252 202
290 275 22 42 82 110 96 110 8 0 23 -9 34 -20 19 -19 20 -33 20 -213 0 -250
-18 -231 216 -235 l174 -3 25 25 25 25 0 1351 c0 1337 0 1350 -20 1370 -19 19
-33 20 -208 20 -147 0 -192 -3 -208 -14 -18 -14 -19 -37 -24 -848 l-5 -833
-27 -75 c-15 -41 -32 -95 -38 -120 -7 -25 -20 -56 -29 -70 -10 -14 -24 -41
-31 -60 -18 -44 -112 -156 -175 -208 -28 -23 -59 -50 -71 -61 -11 -12 -38 -28
-60 -37 -21 -9 -47 -23 -56 -31 -10 -9 -50 -23 -90 -33 -40 -10 -93 -26 -118
-35 -36 -14 -78 -18 -210 -18 -152 0 -171 3 -243 27 -43 14 -84 26 -91 26 -18
0 -144 68 -184 99 -62 49 -129 124 -142 160 -7 20 -21 47 -31 61 -10 14 -25
57 -33 95 -8 39 -21 84 -28 100 -10 24 -14 219 -18 936 -4 748 -7 909 -19 922
-12 15 -40 17 -212 17 -188 0 -199 -1 -209 -20z"/>
<path d="M47509 24243 c-12 -13 -14 -170 -13 -937 l0 -921 26 -95 c14 -52 29
-115 33 -140 4 -25 20 -69 36 -99 16 -30 29 -60 29 -68 0 -14 46 -87 102 -161
52 -69 148 -162 205 -199 28 -18 54 -37 57 -42 4 -5 23 -15 44 -22 20 -6 50
-21 65 -32 16 -11 47 -24 70 -29 23 -5 69 -20 103 -33 77 -31 262 -43 490 -33
125 5 174 12 220 28 33 11 84 28 114 36 30 9 62 22 70 29 8 7 30 20 48 29 99
50 227 176 309 303 51 80 64 89 101 71 l27 -13 5 -204 c6 -260 -11 -241 220
-241 154 0 169 2 194 21 l26 20 0 1359 0 1359 -22 15 c-18 13 -56 16 -204 16
-168 0 -183 -1 -208 -21 l-26 -20 0 -707 c0 -806 -7 -972 -44 -1059 -13 -32
-27 -74 -31 -93 -4 -19 -17 -51 -30 -71 -13 -20 -30 -52 -38 -71 -24 -58 -266
-288 -302 -288 -7 0 -25 -10 -40 -22 -15 -11 -59 -29 -99 -39 -39 -9 -91 -25
-116 -35 -36 -13 -78 -17 -210 -16 -151 0 -172 2 -243 26 -43 14 -84 26 -91
26 -20 0 -141 67 -194 107 -62 46 -128 124 -143 171 -7 20 -20 48 -30 62 -22
32 -58 213 -70 355 -5 61 -9 452 -9 870 0 418 0 768 0 777 0 9 -7 24 -16 32
-24 24 -395 24 -415 -1z"/>
</g>
</svg>
