<?xml version="1.0" standalone="no"?>
<!DOCTYPE svg PUBLIC "-//W3C//DTD SVG 20010904//EN"
 "http://www.w3.org/TR/2001/REC-SVG-20010904/DTD/svg10.dtd">
<svg version="1.0" xmlns="http://www.w3.org/2000/svg"
 width="7030.000000pt" height="4687.000000pt" viewBox="0 0 7030.000000 4687.000000"
 preserveAspectRatio="xMidYMid meet">
<metadata>
Created by potrace 1.16, written by Peter Selinger 2001-2019
</metadata>
<g transform="translate(0.000000,4687.000000) scale(0.100000,-0.100000)"
fill="#000000" stroke="none">
<path fill="#0078c1" d="M34965 29339 c-181 -8 -576 -37 -625 -45 -19 -3 -60 -12 -90 -19 -30
-8 -109 -21 -175 -29 -66 -8 -137 -22 -157 -30 -20 -9 -80 -23 -132 -31 -52
-9 -115 -24 -138 -34 -24 -10 -74 -24 -112 -30 -38 -7 -85 -20 -105 -30 -20
-10 -61 -24 -91 -31 -30 -7 -72 -21 -92 -31 -21 -11 -61 -24 -90 -30 -29 -6
-68 -19 -85 -30 -18 -10 -56 -25 -84 -33 -49 -15 -87 -31 -224 -96 -33 -16
-71 -32 -85 -35 -14 -4 -43 -18 -65 -30 -22 -13 -51 -26 -65 -30 -14 -5 -38
-18 -55 -30 -16 -13 -41 -26 -55 -30 -14 -4 -41 -17 -60 -29 -19 -11 -51 -29
-70 -39 -19 -10 -64 -35 -100 -57 -36 -22 -81 -47 -100 -56 -19 -9 -44 -24
-55 -33 -11 -10 -42 -31 -69 -47 -69 -42 -195 -126 -266 -179 -15 -11 -52 -37
-81 -57 -84 -58 -101 -72 -319 -257 -235 -200 -454 -416 -640 -634 -71 -84
-138 -161 -148 -172 -10 -11 -49 -63 -87 -115 -39 -52 -80 -108 -93 -125 -37
-50 -135 -194 -167 -245 -16 -26 -39 -61 -49 -76 -54 -80 -66 -102 -80 -136
-9 -20 -20 -40 -26 -43 -6 -4 -21 -28 -34 -53 -23 -45 -75 -145 -109 -207 -9
-16 -22 -43 -30 -60 -8 -16 -21 -43 -30 -60 -33 -62 -87 -182 -87 -192 0 -6
-13 -37 -30 -68 -16 -31 -30 -64 -30 -74 0 -9 -11 -36 -24 -61 -13 -25 -29
-65 -36 -90 -7 -25 -21 -62 -31 -82 -11 -21 -24 -61 -30 -90 -6 -29 -20 -70
-31 -92 -11 -21 -26 -70 -34 -108 -8 -39 -22 -84 -30 -100 -8 -16 -24 -73 -34
-126 -10 -53 -25 -113 -33 -132 -9 -20 -21 -74 -27 -120 -6 -47 -20 -118 -31
-159 -11 -41 -26 -138 -34 -215 -8 -78 -21 -175 -30 -216 -8 -43 -19 -197 -26
-361 -13 -326 0 -797 27 -929 8 -41 21 -139 29 -217 8 -77 23 -174 34 -215 11
-40 25 -111 31 -158 6 -46 18 -100 27 -120 8 -19 23 -79 33 -132 10 -53 26
-110 34 -127 9 -17 23 -62 31 -101 8 -39 23 -87 34 -108 10 -20 24 -61 30 -90
6 -29 19 -69 30 -90 10 -20 24 -57 31 -82 7 -25 23 -65 36 -90 13 -25 24 -52
24 -61 0 -10 14 -43 30 -74 17 -31 30 -62 30 -69 0 -10 46 -110 88 -191 9 -16
24 -48 35 -70 10 -22 23 -47 28 -55 5 -8 23 -42 40 -75 71 -138 85 -164 102
-182 9 -11 17 -24 17 -30 0 -6 16 -34 35 -62 19 -28 35 -55 35 -60 0 -5 11
-22 24 -38 13 -15 31 -44 41 -63 10 -19 21 -37 25 -40 3 -3 32 -43 64 -90 31
-47 69 -101 84 -121 15 -20 42 -58 61 -85 36 -51 78 -104 110 -139 10 -11 22
-28 27 -37 5 -9 35 -45 66 -80 31 -35 89 -101 130 -148 183 -212 583 -582 805
-745 48 -35 104 -76 123 -90 33 -25 111 -81 175 -125 17 -12 62 -41 100 -65
39 -24 81 -52 95 -62 14 -10 41 -26 60 -35 19 -10 64 -36 100 -58 36 -22 85
-49 110 -61 25 -11 52 -27 60 -34 9 -8 35 -21 59 -30 23 -8 54 -23 67 -34 14
-11 42 -25 62 -32 20 -6 47 -20 60 -30 13 -10 37 -21 55 -24 18 -4 57 -20 87
-36 87 -45 185 -86 221 -94 19 -4 52 -17 74 -30 22 -12 64 -28 93 -34 29 -6
69 -19 90 -30 20 -10 62 -24 92 -31 30 -7 73 -21 96 -31 23 -11 76 -25 117
-33 42 -8 89 -22 105 -30 17 -9 63 -20 104 -26 40 -6 111 -22 158 -35 47 -13
128 -29 180 -34 52 -6 111 -15 130 -21 85 -25 378 -52 752 -69 273 -13 855 22
1063 64 66 13 151 27 189 30 38 4 104 17 146 30 43 13 104 26 136 30 33 4 87
18 121 31 34 12 83 26 110 29 26 4 75 18 108 31 33 13 85 28 115 35 30 6 71
20 91 30 20 10 58 23 85 30 27 7 67 22 89 34 22 13 56 26 75 30 19 4 53 17 75
30 22 13 57 26 78 30 21 4 53 17 71 30 18 12 56 30 84 39 28 10 56 23 62 31 6
8 24 17 40 20 16 4 46 18 67 32 21 14 55 32 77 40 22 7 47 20 56 27 8 8 40 26
70 41 82 39 132 67 167 93 17 12 36 22 41 22 6 0 23 11 39 24 15 13 46 33 68
45 22 12 56 33 75 46 19 13 49 34 65 45 123 84 267 189 348 253 15 12 110 92
210 177 267 227 460 424 710 722 30 37 151 192 194 251 15 20 42 55 58 76 17
21 38 52 47 67 10 16 30 48 45 70 16 23 37 54 47 70 11 16 35 54 55 84 19 30
45 71 58 91 13 19 23 39 23 45 0 5 12 27 27 49 33 48 63 101 98 175 15 30 33
62 40 70 7 8 18 32 24 52 7 20 21 48 32 62 11 14 26 45 33 70 8 25 23 57 35
72 11 15 21 34 21 43 0 10 16 48 35 87 19 38 35 76 35 85 0 9 11 36 24 61 13
24 31 71 40 103 10 32 24 67 31 79 8 12 19 46 26 76 6 30 20 72 30 92 11 21
26 68 34 105 8 38 26 100 39 138 14 39 26 82 26 97 0 15 11 62 25 105 13 43
31 123 40 178 8 55 22 122 30 149 8 27 22 115 30 195 8 80 21 180 30 221 8 42
19 196 26 352 13 316 -1 788 -27 918 -8 41 -21 140 -29 220 -8 80 -21 168 -29
195 -8 28 -24 104 -35 170 -11 66 -27 136 -35 156 -8 20 -20 67 -26 105 -6 38
-19 90 -30 116 -11 26 -27 79 -35 118 -8 39 -23 87 -34 108 -11 21 -22 56 -26
77 -4 22 -20 70 -36 107 -16 36 -29 72 -29 80 0 7 -14 40 -30 73 -16 33 -30
67 -30 76 0 8 -16 46 -35 85 -19 38 -35 76 -35 84 0 9 -11 32 -24 51 -14 20
-28 49 -32 65 -3 16 -19 49 -34 74 -15 25 -31 56 -35 70 -4 14 -13 32 -20 40
-7 8 -25 40 -40 70 -50 103 -80 158 -97 178 -10 10 -18 23 -18 29 0 6 -15 33
-33 59 -18 27 -38 60 -45 74 -7 14 -23 41 -37 60 -54 77 -68 98 -109 162 -24
37 -54 80 -67 96 -13 17 -42 56 -64 87 -48 69 -154 202 -241 304 -148 171
-211 239 -368 395 -100 98 -197 190 -216 205 -19 14 -93 75 -165 136 -139 117
-167 140 -230 182 -22 15 -44 32 -50 38 -5 7 -30 25 -54 41 -24 16 -62 41 -85
57 -22 15 -54 35 -70 45 -16 9 -40 26 -55 38 -14 12 -42 29 -61 39 -19 10 -48
28 -63 41 -16 13 -34 24 -40 24 -7 0 -30 14 -51 30 -22 17 -45 30 -52 30 -7 0
-25 10 -41 23 -15 13 -44 29 -63 37 -19 7 -46 21 -60 30 -14 10 -45 27 -70 39
-25 12 -56 28 -70 35 -38 22 -172 83 -199 91 -12 4 -39 18 -58 31 -20 13 -43
24 -53 24 -9 0 -39 11 -66 25 -27 14 -73 32 -101 40 -29 9 -67 24 -85 34 -18
10 -55 24 -82 30 -27 7 -65 20 -85 30 -20 10 -63 24 -96 31 -33 7 -76 21 -96
31 -20 10 -67 23 -105 30 -38 6 -88 20 -112 30 -23 10 -86 25 -138 34 -52 8
-111 22 -131 30 -20 8 -90 22 -157 31 -67 8 -146 21 -176 29 -65 17 -194 32
-340 40 -58 3 -154 10 -215 15 -161 14 -359 17 -530 9z m-146 -1405 c25 -5 41
-20 72 -67 21 -34 39 -68 39 -77 0 -9 12 -39 26 -66 14 -27 32 -71 41 -99 8
-27 21 -57 28 -65 7 -8 20 -37 28 -65 8 -27 27 -70 41 -95 14 -25 26 -52 26
-60 0 -9 9 -34 21 -55 11 -22 29 -65 40 -94 11 -30 26 -65 33 -76 8 -12 21
-44 29 -71 8 -27 24 -65 35 -84 11 -19 25 -53 32 -75 18 -56 67 -124 93 -129
12 -3 69 -8 127 -11 105 -6 129 -10 250 -38 36 -9 99 -22 140 -31 41 -8 94
-20 116 -27 41 -12 43 -12 81 22 22 19 120 122 218 229 98 107 187 205 199
216 11 12 77 82 146 155 69 73 158 166 199 206 65 65 77 73 111 73 36 0 154
-53 190 -85 9 -8 34 -22 55 -31 22 -9 47 -22 56 -30 14 -13 45 -31 154 -88 23
-11 55 -31 72 -43 17 -13 35 -23 40 -23 5 0 25 -12 44 -26 19 -14 48 -31 65
-38 62 -27 123 -80 134 -117 12 -43 1 -112 -28 -179 -11 -25 -26 -72 -32 -105
-7 -33 -20 -76 -30 -95 -10 -20 -23 -61 -29 -92 -5 -31 -21 -83 -35 -117 -15
-33 -26 -71 -26 -83 -1 -13 -10 -48 -21 -78 -11 -30 -29 -85 -39 -122 -10 -37
-27 -91 -38 -120 -24 -62 -52 -181 -52 -220 0 -20 20 -49 78 -110 82 -88 236
-266 265 -308 10 -14 33 -48 51 -76 27 -39 43 -53 75 -63 23 -6 45 -10 49 -7
5 3 75 10 158 16 82 6 193 20 246 31 53 10 159 23 235 29 138 11 190 18 338
45 44 8 108 14 142 15 55 0 66 -3 97 -30 19 -17 40 -47 47 -67 6 -20 20 -50
30 -67 9 -17 21 -49 25 -71 4 -22 20 -67 36 -100 15 -33 28 -69 28 -80 0 -12
9 -39 21 -60 11 -22 29 -69 39 -105 11 -36 28 -83 40 -105 11 -21 20 -44 20
-51 0 -6 9 -40 20 -74 11 -34 20 -66 20 -70 0 -3 -14 -27 -30 -52 -26 -38 -38
-48 -78 -57 -26 -6 -72 -22 -102 -35 -30 -13 -84 -34 -120 -46 -152 -51 -207
-71 -231 -85 -15 -8 -51 -20 -80 -26 -30 -6 -69 -19 -87 -30 -18 -10 -60 -26
-95 -35 -34 -8 -71 -22 -83 -29 -12 -8 -48 -21 -80 -30 -32 -10 -72 -25 -89
-35 -16 -10 -54 -23 -83 -29 -29 -6 -70 -20 -91 -30 -21 -11 -60 -25 -87 -32
-27 -7 -69 -22 -95 -35 -25 -12 -63 -26 -85 -30 -21 -3 -59 -17 -84 -29 -25
-12 -67 -27 -94 -34 -27 -7 -66 -21 -87 -31 -21 -11 -56 -20 -78 -20 -33 0
-48 7 -81 38 -22 22 -40 48 -40 60 0 12 -9 45 -20 74 -12 29 -27 86 -35 127
-8 41 -21 84 -30 97 -8 13 -22 48 -29 78 -8 31 -26 75 -40 99 -14 24 -26 50
-26 58 0 8 -9 30 -20 49 -11 19 -31 58 -46 85 -33 66 -75 137 -97 166 -10 13
-37 54 -60 90 -116 179 -441 503 -603 601 -16 10 -56 36 -89 58 -33 22 -76 47
-95 56 -19 9 -47 25 -62 36 -15 10 -42 24 -60 30 -18 6 -45 20 -60 30 -15 10
-51 26 -79 34 -29 9 -63 23 -75 31 -13 8 -54 23 -91 33 -37 10 -93 28 -123 39
-30 11 -69 20 -85 21 -17 0 -76 12 -130 26 -79 20 -136 28 -273 33 -233 11
-506 -2 -597 -28 -38 -10 -104 -24 -144 -30 -41 -7 -95 -21 -120 -32 -99 -44
-183 -32 -215 29 -27 52 -55 167 -66 266 -6 55 -19 134 -30 176 -11 42 -24
121 -30 176 -6 54 -20 131 -30 169 -11 39 -26 126 -35 195 -8 69 -22 147 -30
174 -8 28 -22 103 -30 168 -8 64 -23 152 -34 195 -18 72 -34 180 -48 330 -5
52 -2 67 17 98 26 42 42 50 130 59 36 4 99 16 140 27 41 10 125 26 185 34 61
8 126 19 145 26 42 13 182 37 226 38 17 1 46 -2 63 -5z m-2702 -1281 c18 -16
49 -41 67 -58 19 -16 51 -43 71 -60 21 -16 59 -47 84 -68 25 -21 64 -52 85
-70 21 -18 51 -44 65 -58 14 -14 58 -52 98 -85 101 -83 507 -426 754 -636 230
-196 239 -209 218 -294 -9 -35 -28 -60 -99 -127 -138 -133 -278 -302 -369
-447 -59 -95 -72 -116 -92 -160 -12 -25 -29 -56 -39 -70 -9 -14 -23 -43 -30
-64 -7 -22 -21 -53 -31 -70 -9 -17 -23 -51 -29 -76 -7 -25 -21 -62 -31 -82
-11 -21 -24 -61 -30 -90 -6 -29 -22 -89 -35 -133 -21 -72 -36 -175 -65 -450
-11 -100 -5 -253 16 -390 7 -49 16 -121 20 -160 4 -38 18 -104 30 -145 13 -41
27 -93 31 -115 3 -22 19 -70 35 -107 16 -36 29 -73 29 -81 0 -8 11 -34 23 -58
13 -24 30 -62 37 -84 7 -22 18 -47 25 -55 7 -8 25 -40 39 -70 24 -50 61 -113
110 -186 11 -16 35 -54 55 -84 52 -79 137 -178 266 -311 63 -63 119 -128 125
-143 15 -40 12 -88 -6 -114 -16 -24 -141 -131 -489 -422 -108 -91 -291 -244
-405 -340 -453 -383 -515 -433 -566 -458 -53 -25 -53 -25 -93 -8 -22 10 -59
41 -83 68 -24 28 -54 63 -68 78 -14 15 -39 45 -57 66 -17 22 -58 71 -91 109
-32 39 -65 80 -73 91 -15 22 -107 129 -148 172 -68 72 -65 147 10 243 27 35
61 80 74 99 14 19 41 55 60 80 19 25 46 61 59 80 13 19 33 46 44 60 42 49 88
109 122 160 19 28 58 79 85 113 28 34 72 91 97 127 26 36 58 79 72 95 13 17
32 47 42 67 15 33 16 39 2 70 -9 18 -19 44 -23 58 -4 14 -18 43 -30 65 -13 22
-26 56 -30 75 -4 19 -16 50 -26 69 -11 18 -27 63 -35 98 -8 36 -21 75 -29 87
-8 11 -19 44 -25 71 -5 28 -12 60 -15 72 -9 39 -73 72 -171 88 -50 8 -107 22
-128 30 -20 9 -81 22 -135 30 -54 8 -123 24 -154 34 -30 11 -90 25 -133 31
-42 7 -109 22 -148 35 -39 12 -100 26 -136 30 -36 3 -103 21 -150 39 -80 30
-86 34 -107 76 -21 44 -22 54 -22 445 -1 396 -1 401 22 445 21 42 28 47 107
77 47 17 114 35 150 38 36 4 97 18 137 31 40 12 108 28 152 34 44 6 105 19
136 30 30 10 95 26 143 34 48 8 104 22 124 31 20 8 79 21 131 29 143 21 178
46 192 136 4 25 16 61 26 81 10 20 25 65 33 101 8 36 24 81 35 99 10 19 22 50
26 69 4 19 17 53 30 75 12 22 26 51 30 65 4 14 14 40 23 58 14 31 13 37 -2 70
-10 20 -29 50 -42 67 -14 16 -46 59 -72 95 -25 36 -69 93 -97 127 -27 34 -66
85 -85 113 -34 51 -80 111 -122 160 -11 14 -31 41 -44 60 -13 19 -40 55 -59
80 -19 25 -46 61 -60 80 -13 19 -47 64 -74 99 -75 96 -78 171 -10 243 41 43
133 150 148 172 13 19 85 106 159 193 15 17 43 50 62 74 19 23 65 73 101 110
58 62 69 69 103 69 27 0 49 -8 73 -27z m5602 -3628 c16 -8 51 -19 77 -25 27
-6 69 -21 94 -34 25 -13 62 -26 83 -30 20 -4 65 -20 100 -36 34 -17 71 -30 82
-30 11 0 47 -14 80 -30 33 -16 68 -30 78 -30 10 0 49 -13 85 -29 37 -16 85
-32 107 -36 22 -4 58 -17 80 -30 22 -12 61 -28 87 -34 26 -6 62 -19 80 -30 18
-10 56 -24 83 -30 28 -7 60 -19 72 -26 12 -8 53 -23 91 -34 39 -10 80 -26 93
-34 13 -9 47 -21 74 -28 28 -7 70 -22 95 -34 25 -12 68 -28 95 -34 71 -17 142
-71 150 -115 9 -44 -10 -137 -40 -202 -13 -27 -29 -72 -36 -100 -7 -27 -23
-69 -36 -93 -13 -24 -23 -53 -23 -65 0 -12 -13 -48 -28 -81 -16 -33 -32 -78
-36 -100 -4 -22 -16 -54 -25 -71 -10 -17 -24 -47 -30 -67 -7 -20 -28 -50 -47
-67 -31 -27 -42 -30 -97 -30 -34 1 -98 7 -142 15 -148 27 -200 34 -338 45 -76
6 -182 19 -235 29 -53 11 -164 25 -246 31 -83 6 -153 13 -158 16 -4 3 -26 -1
-49 -7 -32 -10 -48 -24 -75 -63 -18 -28 -41 -62 -51 -76 -29 -42 -183 -220
-265 -308 -58 -61 -78 -90 -78 -110 0 -40 28 -160 52 -217 11 -27 26 -78 34
-113 8 -34 23 -82 34 -106 10 -24 22 -63 26 -87 4 -24 18 -70 31 -102 13 -33
29 -84 34 -115 6 -31 19 -72 29 -92 10 -19 23 -62 30 -95 6 -33 21 -80 32
-105 29 -67 40 -136 28 -179 -11 -37 -72 -90 -134 -117 -17 -7 -46 -24 -65
-38 -19 -14 -39 -26 -44 -26 -5 0 -23 -10 -40 -22 -17 -13 -49 -33 -72 -44
-109 -57 -140 -75 -154 -88 -9 -8 -34 -21 -56 -30 -21 -9 -46 -23 -55 -31 -36
-32 -154 -85 -190 -85 -43 0 -77 31 -308 277 -178 188 -190 201 -351 378 -176
192 -240 255 -262 255 -9 0 -40 -8 -70 -19 -30 -10 -81 -21 -114 -25 -33 -4
-101 -18 -152 -31 -51 -13 -140 -26 -200 -30 -59 -3 -118 -8 -130 -11 -26 -5
-75 -73 -93 -129 -7 -22 -22 -58 -35 -80 -12 -22 -25 -53 -29 -70 -4 -16 -21
-57 -37 -90 -16 -33 -29 -67 -29 -75 0 -8 -14 -37 -30 -65 -16 -27 -30 -57
-30 -66 0 -8 -12 -38 -26 -65 -14 -27 -32 -71 -41 -99 -8 -27 -21 -57 -28 -65
-7 -8 -20 -38 -28 -67 -9 -28 -22 -62 -31 -75 -9 -13 -24 -49 -34 -79 -11 -29
-34 -75 -51 -101 -27 -40 -38 -48 -74 -53 -49 -7 -188 9 -262 31 -27 8 -99 21
-160 29 -60 9 -146 24 -190 35 -44 11 -118 24 -164 29 -77 8 -87 12 -119 44
-31 32 -35 40 -33 87 0 29 10 85 21 124 10 39 24 114 30 166 7 52 22 138 35
190 13 52 26 127 30 165 3 39 17 115 30 170 13 55 29 143 35 195 6 52 19 127
30 165 10 39 24 115 30 170 6 55 20 132 30 170 10 39 25 120 33 181 12 92 20
122 46 168 22 38 41 58 58 62 38 10 123 -2 173 -25 25 -11 88 -27 140 -35 52
-9 118 -23 145 -32 118 -37 679 -34 825 5 41 11 107 25 145 31 39 6 97 21 130
34 33 13 78 27 100 31 22 3 56 16 75 27 19 11 58 27 85 35 28 8 57 21 65 29 9
7 36 20 60 29 24 9 51 22 60 30 8 7 35 23 60 35 25 11 72 39 105 61 33 22 73
47 89 57 102 62 338 276 458 417 33 39 67 79 77 90 15 17 46 62 117 169 50 75
86 136 113 192 16 34 34 64 39 68 6 3 13 21 17 39 4 17 17 50 30 72 12 22 30
67 39 99 10 32 24 68 31 80 8 12 21 54 29 94 14 63 69 240 78 246 72 49 101
55 147 31z"/>
</g>
</svg>
