<?xml version="1.0" standalone="no"?>
<!DOCTYPE svg PUBLIC "-//W3C//DTD SVG 20010904//EN"
 "http://www.w3.org/TR/2001/REC-SVG-20010904/DTD/svg10.dtd">
<svg version="1.0" xmlns="http://www.w3.org/2000/svg"
 width="7030.000000pt" height="4687.000000pt" viewBox="0 0 7030.000000 4687.000000"
 preserveAspectRatio="xMidYMid meet">
<metadata>
Created by potrace 1.16, written by Peter Selinger 2001-2019
</metadata>
<g transform="translate(0.000000,4687.000000) scale(0.100000,-0.100000)"
fill="#000000" stroke="none">
<path d="M27445 29169 c-260 -38 -506 -202 -705 -470 -76 -102 -147 -217 -266
-431 -199 -357 -284 -485 -416 -623 -183 -193 -382 -296 -683 -351 -88 -17
-159 -19 -610 -20 -508 0 -553 -3 -722 -38 -325 -69 -563 -244 -693 -511 -95
-194 -132 -383 -132 -675 0 -221 9 -345 68 -889 65 -607 76 -764 77 -1066 1
-367 -25 -605 -98 -880 -56 -216 -102 -326 -288 -702 -133 -269 -186 -398
-224 -550 -25 -95 -28 -127 -28 -268 0 -179 12 -240 69 -360 68 -144 173 -251
346 -355 109 -66 254 -121 490 -187 308 -87 527 -153 930 -283 651 -210 1024
-310 1875 -500 1735 -387 2109 -498 3025 -900 565 -248 806 -334 1107 -395
346 -70 698 -58 1025 35 451 127 884 410 1216 795 315 366 536 783 612 1153
11 55 20 107 20 116 0 15 -209 16 -2343 18 l-2343 3 552 3140 c304 1727 557
3164 562 3193 l9 52 -100 123 c-55 67 -209 248 -342 402 -133 154 -315 368
-404 475 -315 377 -483 546 -679 687 -296 211 -616 304 -907 262z"/>
<path d="M30475 26938 c-10 -29 -962 -5464 -958 -5470 2 -5 661 -8 1463 -8
l1460 0 5 23 c10 44 165 931 165 944 0 11 -171 13 -960 13 -762 0 -960 3 -959
13 0 6 177 1018 393 2247 216 1229 391 2238 389 2243 -2 4 -227 7 -499 7 -387
0 -496 -3 -499 -12z"/>
<path d="M34165 26938 c-2 -7 -38 -215 -80 -463 -41 -247 -78 -460 -80 -473
l-5 -22 487 2 487 3 82 465 c46 256 83 473 84 483 0 16 -30 17 -485 17 -380 0
-487 -3 -490 -12z"/>
<path d="M37163 25415 c-151 -39 -289 -111 -410 -212 -29 -25 -53 -40 -53 -35
0 5 9 54 20 107 11 53 20 99 20 101 0 2 -215 3 -477 2 l-478 -3 -342 -1940
c-188 -1067 -342 -1948 -342 -1957 -1 -17 29 -18 484 -18 379 0 487 3 490 13
3 6 117 649 254 1427 l250 1415 73 71 c85 81 204 172 265 203 65 32 158 51
259 51 257 0 402 -131 451 -410 19 -104 13 -382 -12 -537 -9 -56 -99 -578
-200 -1159 -102 -581 -185 -1060 -185 -1065 0 -11 967 -12 974 -1 3 5 93 512
200 1128 217 1239 233 1355 222 1649 -13 384 -104 646 -298 857 -199 216 -541
338 -943 337 -104 0 -149 -5 -222 -24z"/>
<path d="M33885 25348 c-84 -459 -681 -3875 -678 -3880 2 -5 222 -8 488 -8
l483 0 6 28 c3 15 157 884 341 1932 184 1048 337 1917 341 1933 l6 27 -491 0
-490 0 -6 -32z"/>
<path d="M39905 25368 c-6 -18 -372 -2124 -389 -2241 -29 -191 -38 -345 -33
-544 6 -228 21 -328 76 -489 91 -270 243 -444 496 -569 195 -96 372 -130 675
-130 195 0 209 2 295 28 117 36 328 139 434 211 46 31 85 56 86 54 2 -2 -5
-44 -15 -93 -11 -50 -19 -100 -20 -112 l0 -23 455 0 c425 0 456 1 462 18 14
35 689 3887 683 3895 -3 4 -222 6 -485 5 l-479 -3 -254 -1420 -253 -1420 -47
-48 c-173 -178 -362 -273 -567 -284 -294 -15 -468 110 -531 382 -23 96 -26
357 -6 500 7 50 98 579 202 1176 105 597 190 1094 190 1103 0 15 -42 16 -485
16 -380 0 -487 -3 -490 -12z"/>
<path d="M43833 25363 c2 -10 192 -447 421 -972 229 -524 416 -959 416 -965 0
-7 -344 -448 -765 -981 -420 -534 -764 -973 -765 -977 0 -5 258 -8 573 -8 444
0 577 3 589 13 8 6 192 267 409 579 238 344 396 563 400 555 5 -9 339 -918
411 -1119 l10 -28 573 0 c347 0 576 4 580 9 3 6 -188 447 -425 981 -287 647
-428 975 -422 983 5 7 352 442 772 967 420 525 767 961 773 968 7 9 -109 12
-574 12 l-584 -1 -410 -624 c-225 -344 -412 -625 -416 -625 -3 0 -96 280 -206
623 l-201 622 -582 3 c-552 2 -582 1 -577 -15z"/>
</g>
</svg>
