<?xml version="1.0" standalone="no"?>
<!DOCTYPE svg PUBLIC "-//W3C//DTD SVG 20010904//EN"
 "http://www.w3.org/TR/2001/REC-SVG-20010904/DTD/svg10.dtd">
<svg version="1.0" xmlns="http://www.w3.org/2000/svg"
 width="7030.000000pt" height="4687.000000pt" viewBox="0 0 7030.000000 4687.000000"
 preserveAspectRatio="xMidYMid meet">
<metadata>
Created by potrace 1.16, written by Peter Selinger 2001-2019
</metadata>
<g transform="translate(0.000000,4687.000000) scale(0.100000,-0.100000)"
fill="#000000" stroke="none">
<path d="M36174 29658 c-15 -13 -48 -33 -74 -45 -25 -13 -70 -39 -100 -58 -30
-19 -75 -46 -100 -60 -25 -14 -70 -41 -100 -60 -30 -19 -75 -46 -100 -60 -73
-42 -113 -66 -155 -95 -22 -14 -54 -32 -72 -39 -18 -7 -38 -20 -44 -28 -7 -8
-28 -21 -47 -28 -18 -8 -47 -26 -64 -40 -16 -14 -35 -25 -42 -25 -7 0 -30 -13
-51 -30 -21 -16 -43 -30 -50 -30 -7 0 -29 -13 -50 -30 -21 -16 -43 -30 -49
-30 -6 0 -33 -16 -60 -35 -27 -19 -55 -35 -62 -35 -6 0 -18 -7 -25 -17 -8 -9
-37 -27 -66 -39 -28 -13 -54 -28 -58 -34 -3 -6 -27 -22 -53 -36 -26 -14 -72
-40 -102 -59 -30 -19 -74 -44 -97 -55 -23 -11 -45 -25 -48 -30 -4 -6 -27 -22
-53 -36 -26 -14 -72 -40 -102 -59 -30 -19 -80 -48 -110 -65 -30 -17 -80 -46
-110 -65 -30 -19 -71 -43 -90 -52 -19 -10 -49 -28 -65 -39 -17 -12 -48 -31
-70 -43 -22 -12 -65 -37 -95 -56 -30 -19 -75 -46 -100 -60 -25 -14 -70 -41
-100 -60 -30 -19 -76 -46 -102 -60 -54 -29 -73 -58 -82 -132 -4 -29 -15 -78
-25 -110 -10 -32 -24 -101 -31 -153 -7 -52 -21 -122 -31 -155 -10 -33 -25
-108 -33 -165 -8 -58 -22 -124 -30 -148 -8 -23 -22 -91 -30 -150 -9 -59 -24
-137 -35 -173 -10 -36 -24 -106 -30 -155 -7 -49 -21 -117 -31 -152 -11 -34
-24 -102 -30 -150 -6 -48 -20 -116 -31 -152 -11 -35 -26 -112 -34 -170 -7 -58
-21 -125 -30 -150 -9 -25 -23 -92 -31 -149 -8 -57 -23 -134 -34 -170 -11 -36
-24 -103 -30 -149 -5 -46 -19 -113 -30 -148 -11 -36 -25 -106 -31 -157 -6 -50
-19 -119 -30 -152 -10 -33 -25 -108 -33 -165 -8 -58 -22 -124 -30 -148 -8 -23
-22 -91 -30 -150 -9 -59 -24 -137 -35 -173 -10 -36 -24 -104 -30 -150 -6 -47
-20 -116 -31 -154 -11 -39 -25 -108 -30 -153 -6 -46 -21 -123 -34 -170 -13
-48 -29 -125 -35 -172 -6 -47 -20 -114 -31 -149 -11 -35 -23 -103 -27 -150
l-6 -87 67 -79 c106 -125 128 -151 174 -201 23 -26 66 -76 95 -112 28 -35 190
-226 360 -423 195 -228 307 -367 307 -380 0 -20 -4 -21 -45 -15 -25 3 -72 19
-103 35 -54 28 -122 60 -277 131 -38 17 -87 41 -108 51 -21 11 -56 27 -78 34
-22 8 -52 23 -67 34 -15 10 -46 24 -68 30 -23 6 -52 19 -65 30 -13 10 -42 24
-64 31 -22 7 -59 24 -82 37 -45 26 -97 33 -115 15 -14 -14 11 -133 47 -232 13
-36 27 -85 31 -110 3 -25 17 -70 29 -100 13 -30 26 -77 30 -105 4 -27 18 -77
30 -110 13 -33 29 -89 36 -125 6 -36 20 -81 30 -101 9 -19 22 -64 29 -100 6
-35 20 -85 31 -111 10 -26 27 -82 35 -125 9 -43 23 -90 30 -105 8 -15 21 -60
29 -100 8 -40 24 -93 34 -118 11 -25 25 -74 31 -110 6 -35 18 -77 26 -92 8
-16 24 -69 34 -118 10 -49 26 -103 35 -119 8 -17 22 -64 30 -105 7 -41 21 -89
30 -106 9 -17 23 -65 31 -107 8 -41 23 -95 34 -120 10 -24 24 -72 30 -106 7
-34 20 -81 30 -105 11 -24 24 -71 30 -105 6 -34 20 -83 31 -109 10 -26 27 -82
35 -125 9 -43 23 -90 30 -105 8 -15 22 -62 30 -105 9 -42 31 -110 50 -150 38
-83 32 -81 159 -59 44 8 161 20 260 26 172 10 236 17 370 40 83 14 429 35 449
27 9 -4 16 -14 16 -24 0 -10 -174 -193 -399 -419 -219 -221 -401 -412 -404
-424 -5 -21 -3 -22 32 -17 21 2 52 12 67 21 16 8 45 22 64 31 19 9 67 31 105
49 39 18 102 48 140 65 39 18 96 46 127 62 31 16 63 29 71 29 8 0 30 11 49 24
19 13 58 31 86 40 28 10 56 23 62 31 6 8 35 21 65 29 29 9 58 22 64 30 7 8 34
22 61 31 27 9 54 22 60 30 6 8 35 22 63 31 29 9 63 25 77 34 14 9 43 23 65 30
22 7 56 24 75 36 19 13 39 24 44 24 8 0 96 40 193 88 27 13 34 14 48 2 14 -12
16 -25 10 -80 -4 -36 -18 -99 -31 -140 -13 -41 -28 -109 -35 -150 -6 -41 -21
-106 -34 -145 -12 -38 -26 -97 -30 -129 -4 -32 -18 -93 -32 -135 -14 -44 -27
-111 -30 -159 -6 -83 -6 -84 17 -80 17 2 33 20 56 63 17 33 43 80 57 105 13
25 35 65 48 90 13 25 32 57 42 72 23 33 58 97 91 165 14 28 29 54 35 57 5 4
21 30 36 59 14 28 39 75 54 102 16 28 40 71 54 97 13 25 33 59 44 75 11 15 25
42 32 60 17 42 33 54 70 55 25 1 39 -8 73 -48 24 -27 59 -65 78 -85 19 -19 87
-91 150 -159 63 -68 126 -135 140 -149 13 -14 65 -71 115 -126 49 -55 97 -107
105 -115 8 -9 58 -63 110 -120 52 -57 109 -118 125 -135 17 -18 86 -92 155
-165 69 -73 139 -148 155 -165 17 -17 68 -74 115 -125 47 -51 122 -131 168
-177 45 -46 82 -88 82 -93 0 -6 9 -10 20 -10 27 0 25 12 -5 48 -14 17 -32 46
-40 66 -8 19 -23 40 -34 45 -10 6 -21 21 -25 35 -3 13 -17 31 -31 40 -14 9
-25 21 -25 27 0 6 -12 26 -27 44 -16 18 -44 54 -63 79 -19 26 -49 64 -65 84
-17 21 -39 48 -48 62 -34 51 -167 224 -207 269 -14 16 -43 55 -65 86 -22 32
-62 86 -90 119 -60 73 -86 108 -123 161 -15 22 -34 47 -42 56 -8 9 -31 37 -50
63 -19 26 -48 64 -65 85 -16 22 -46 60 -65 85 -35 46 -70 91 -122 157 -82 102
-109 145 -106 169 3 22 8 25 43 24 78 -1 268 -25 348 -44 45 -11 132 -25 192
-31 61 -5 148 -19 193 -30 46 -10 145 -26 220 -34 76 -8 168 -22 205 -31 48
-12 72 -13 79 -6 7 7 1 15 -23 25 -19 8 -44 26 -56 40 -12 14 -40 31 -61 37
-22 5 -50 18 -63 29 -13 10 -42 24 -64 31 -22 7 -52 21 -67 32 -15 10 -46 25
-69 33 -24 9 -50 22 -59 29 -8 8 -39 23 -69 35 -29 11 -61 26 -70 34 -9 8 -33
20 -53 26 -20 7 -47 20 -60 31 -13 10 -42 23 -65 29 -22 6 -51 19 -64 30 -13
10 -41 24 -61 30 -20 7 -47 20 -60 30 -13 10 -45 25 -73 35 -27 9 -68 32 -89
52 l-40 37 21 17 c12 9 42 20 67 23 25 4 67 17 93 30 27 14 66 28 87 31 22 4
61 18 86 31 25 13 64 27 86 31 21 3 59 17 84 29 25 12 69 28 98 34 29 6 70 20
91 30 21 11 60 25 87 32 27 7 69 22 94 34 25 12 63 26 85 29 21 4 56 16 76 26
20 11 66 27 103 36 40 10 66 22 66 30 0 35 -35 38 -613 42 -466 4 -570 7 -574
18 -6 17 40 74 76 93 14 7 37 24 51 36 14 13 39 30 55 39 17 9 50 32 75 51 25
19 59 44 75 54 17 11 44 29 60 41 17 12 44 30 60 41 17 10 71 49 120 85 50 36
103 73 119 82 51 29 116 94 116 114 0 11 -47 68 -112 135 -230 236 -290 297
-588 602 -168 172 -309 322 -313 334 -11 30 0 102 25 157 11 25 30 83 43 130
12 47 30 105 38 130 27 76 57 171 81 255 13 44 30 96 39 115 8 19 20 62 27 95
7 33 21 77 32 98 10 21 24 63 29 95 6 31 19 73 30 94 11 21 26 70 34 110 9 40
22 83 30 95 9 12 22 54 30 93 8 39 23 87 34 108 11 21 24 63 30 95 5 31 17 70
25 86 9 16 27 69 40 118 13 48 31 108 40 133 27 79 57 173 80 255 13 44 30 96
39 115 8 19 20 62 27 95 7 33 20 76 30 95 10 19 23 62 30 95 7 33 21 77 31 97
11 21 26 69 34 108 8 39 23 87 34 108 10 20 22 57 26 82 4 25 17 69 30 98 13
29 29 77 34 107 6 30 18 69 27 87 9 18 27 71 39 118 13 47 30 105 38 130 29
82 58 174 81 256 13 45 30 97 38 115 9 19 21 61 28 94 7 33 20 76 30 95 10 19
23 62 30 95 7 33 21 77 31 97 11 21 26 69 34 108 8 39 23 87 34 108 10 20 22
57 26 82 4 25 17 69 30 98 13 29 29 77 34 107 6 30 17 68 25 84 9 16 27 69 40
118 13 48 31 108 40 133 55 160 105 335 105 370 1 39 -35 105 -114 210 -15 19
-36 50 -48 69 -12 19 -34 53 -50 75 -15 23 -35 54 -45 69 -9 16 -32 48 -49 70
-18 23 -33 46 -33 51 0 4 -12 23 -27 41 -16 17 -37 47 -48 65 -47 78 -63 101
-83 123 -12 13 -22 28 -22 33 0 5 -13 25 -29 44 -15 19 -36 49 -45 65 -9 17
-32 50 -51 75 -19 25 -44 63 -56 85 -12 22 -29 49 -39 60 -29 31 -67 86 -91
130 -12 22 -31 52 -43 67 -46 60 -79 106 -124 174 -26 39 -78 117 -117 174
-81 117 -118 173 -143 214 -9 15 -30 45 -47 66 -16 21 -38 51 -47 66 -23 37
-62 96 -113 169 -22 32 -49 73 -60 91 -26 41 -82 104 -94 104 -5 0 -21 -10
-37 -22z"/>
<path d="M33780 18219 c0 -5 5 -7 10 -4 6 3 10 8 10 11 0 2 -4 4 -10 4 -5 0
-10 -5 -10 -11z"/>
<path d="M37515 17220 c3 -5 10 -10 16 -10 5 0 9 5 9 10 0 6 -7 10 -16 10 -8
0 -12 -4 -9 -10z"/>
</g>
</svg>
