<?xml version="1.0" standalone="no"?>
<!DOCTYPE svg PUBLIC "-//W3C//DTD SVG 20010904//EN"
 "http://www.w3.org/TR/2001/REC-SVG-20010904/DTD/svg10.dtd">
<svg version="1.0" xmlns="http://www.w3.org/2000/svg"
 width="7030.000000pt" height="4687.000000pt" viewBox="0 0 7030.000000 4687.000000"
 preserveAspectRatio="xMidYMid meet">
<metadata>
Created by potrace 1.16, written by Peter Selinger 2001-2019
</metadata>
<g transform="translate(0.000000,4687.000000) scale(0.100000,-0.100000)"
fill="#000000" stroke="none">
<path fill="#666666" d="M22522 27614 l-22 -15 0 -2914 0 -2914 22 -15 c20 -14 139 -16 1078
-16 808 0 1059 3 1068 12 18 18 17 617 -1 642 -12 16 -65 17 -824 16 -803 0
-813 0 -833 20 -20 20 -20 24 -20 2594 l0 2575 -22 15 c-19 13 -58 16 -223 16
-165 0 -204 -3 -223 -16z"/>
<path fill="#666666" d="M25230 27623 c-41 -15 -40 92 -40 -2938 0 -2488 2 -2904 14 -2921 13
-18 30 -19 229 -22 187 -3 217 -1 231 13 15 15 16 253 16 2930 0 2635 -2 2915
-16 2929 -13 14 -46 16 -217 15 -111 0 -209 -3 -217 -6z"/>
<path fill="#666666" d="M26674 27620 c-12 -5 -25 -13 -28 -18 -3 -6 -6 -1319 -6 -2918 0
-2606 1 -2910 15 -2924 23 -22 397 -22 420 0 13 14 16 268 26 2340 6 1279 14
2339 18 2355 5 21 13 30 27 30 15 0 22 -12 32 -60 7 -33 24 -89 38 -125 13
-36 29 -87 34 -113 6 -27 19 -65 29 -86 11 -20 24 -62 30 -93 5 -32 19 -74 29
-95 11 -21 25 -65 32 -98 7 -33 20 -76 30 -95 10 -19 23 -62 30 -95 6 -33 20
-77 31 -98 11 -22 26 -70 34 -108 8 -38 23 -86 34 -107 11 -21 24 -63 30 -94
5 -32 19 -74 29 -95 11 -21 25 -64 32 -96 6 -32 22 -82 35 -110 13 -29 26 -72
30 -97 4 -25 16 -62 26 -82 11 -21 26 -70 34 -109 8 -39 22 -80 30 -92 8 -11
22 -55 31 -96 9 -42 25 -92 34 -111 10 -19 23 -62 30 -95 7 -33 19 -73 28 -90
9 -16 26 -66 38 -110 12 -44 29 -100 38 -125 29 -85 58 -175 80 -256 13 -45
30 -98 39 -117 10 -20 22 -59 27 -87 5 -28 19 -72 30 -97 11 -26 27 -75 35
-110 8 -35 22 -77 30 -93 8 -16 22 -59 31 -96 8 -37 23 -83 33 -103 10 -20 22
-56 26 -81 4 -25 17 -68 30 -97 13 -28 29 -78 35 -110 7 -32 20 -74 30 -93 10
-19 23 -62 30 -95 6 -33 20 -77 31 -98 11 -22 26 -70 34 -108 8 -38 23 -86 34
-107 11 -21 24 -63 30 -94 5 -32 19 -74 29 -95 11 -21 25 -65 32 -97 29 -140
19 -136 373 -136 228 0 287 3 296 14 8 10 11 778 11 2932 0 2736 -1 2920 -17
2932 -12 8 -70 12 -203 12 -166 0 -189 -2 -203 -18 -14 -16 -17 -233 -26
-2312 -6 -1262 -14 -2319 -17 -2347 -6 -61 -16 -71 -49 -49 -17 11 -27 34 -40
87 -9 40 -24 91 -34 113 -11 23 -24 68 -31 100 -7 33 -20 76 -30 95 -10 20
-24 63 -30 96 -7 33 -19 74 -28 90 -9 17 -26 66 -38 110 -12 44 -29 100 -38
125 -29 83 -57 174 -80 255 -12 44 -29 94 -38 110 -9 17 -21 57 -28 90 -7 33
-20 76 -30 95 -10 19 -23 62 -30 95 -6 33 -20 77 -31 98 -11 22 -26 71 -35
110 -8 39 -22 82 -30 95 -8 13 -22 55 -30 94 -8 39 -23 87 -33 107 -10 20 -24
63 -31 96 -7 33 -21 77 -32 98 -10 21 -24 63 -29 95 -6 31 -19 73 -29 93 -11
20 -26 66 -34 103 -9 37 -22 79 -30 95 -8 15 -24 61 -34 102 -11 41 -30 102
-41 137 -52 155 -64 192 -86 267 -25 85 -56 181 -81 255 -9 25 -26 81 -38 125
-12 44 -29 94 -38 110 -9 17 -21 57 -28 90 -7 33 -20 76 -30 95 -10 19 -23 62
-30 95 -6 33 -20 77 -31 98 -11 22 -26 70 -34 108 -8 38 -23 86 -34 107 -11
21 -24 63 -30 94 -5 32 -19 74 -29 95 -11 21 -25 64 -32 96 -6 33 -23 82 -36
110 -13 29 -24 61 -24 72 0 11 -5 37 -11 58 -17 63 -37 67 -341 66 -145 0
-273 -4 -284 -9z"/>
<path fill="#666666" d="M30229 27619 c-15 -6 -30 -20 -33 -32 -16 -62 3 -3237 24 -3757 20
-521 43 -734 107 -990 8 -36 22 -92 30 -125 25 -108 82 -275 112 -332 11 -21
30 -58 41 -83 63 -137 180 -299 279 -387 102 -89 119 -103 127 -103 5 0 27
-14 48 -30 22 -17 45 -30 51 -30 7 0 37 -13 67 -29 30 -16 72 -32 94 -36 21
-4 68 -16 104 -28 59 -20 86 -22 280 -22 185 0 221 3 259 18 25 10 70 23 100
28 31 6 72 20 91 31 19 11 51 26 70 33 83 30 241 158 339 275 77 93 141 181
141 195 0 6 11 26 25 45 13 18 30 49 36 69 6 20 18 43 26 52 8 9 23 45 33 79
10 34 26 72 34 85 9 14 23 55 31 93 8 38 23 91 33 118 11 27 25 95 31 151 7
56 16 116 22 135 20 69 29 162 44 429 8 151 20 339 25 419 15 204 29 1525 29
2706 1 957 0 1002 -17 1017 -16 15 -46 17 -215 17 -200 0 -242 -7 -251 -39 -3
-9 -7 -788 -11 -1731 -7 -1796 -15 -2276 -40 -2475 -8 -66 -20 -163 -26 -215
-6 -52 -19 -115 -30 -140 -11 -25 -27 -78 -34 -119 -8 -41 -21 -84 -29 -96 -8
-12 -22 -47 -31 -78 -9 -31 -21 -59 -26 -62 -5 -4 -19 -25 -31 -48 -53 -105
-155 -205 -283 -276 -49 -28 -79 -36 -165 -47 -137 -17 -283 -17 -395 0 -71
11 -103 21 -150 50 -103 62 -200 167 -261 281 -14 28 -32 57 -39 65 -7 8 -18
34 -24 56 -6 23 -22 61 -35 85 -13 24 -27 64 -31 89 -4 25 -16 65 -26 89 -68
156 -83 648 -95 3104 -6 1253 -9 1481 -21 1493 -12 11 -54 14 -211 13 -108 0
-209 -5 -223 -10z"/>
<path fill="#666666" d="M33710 27617 c-21 -11 -25 -20 -23 -55 1 -23 13 -61 26 -84 14 -24
28 -59 32 -78 4 -19 17 -53 30 -75 12 -22 26 -56 30 -75 4 -19 18 -55 30 -80
13 -25 28 -66 35 -90 6 -25 20 -58 30 -75 10 -16 23 -50 30 -75 6 -25 20 -60
31 -78 10 -18 25 -56 34 -85 8 -28 26 -74 40 -101 14 -27 25 -58 25 -68 0 -10
14 -44 30 -75 17 -31 30 -63 30 -72 0 -9 13 -43 29 -76 16 -33 32 -76 36 -95
4 -19 18 -53 30 -75 13 -22 26 -56 30 -75 4 -19 16 -49 26 -67 11 -17 26 -54
35 -83 8 -28 26 -72 40 -97 13 -25 24 -54 24 -63 0 -9 11 -38 25 -63 13 -25
29 -66 35 -89 7 -24 20 -58 30 -75 11 -18 26 -56 35 -85 8 -28 21 -61 29 -73
8 -12 21 -46 30 -75 9 -29 24 -68 35 -85 10 -18 22 -48 26 -66 4 -19 19 -59
35 -89 15 -30 31 -71 35 -90 4 -19 18 -53 31 -76 31 -54 30 -86 -6 -159 -16
-33 -30 -67 -30 -75 0 -8 -14 -42 -30 -75 -16 -33 -30 -67 -30 -76 0 -9 -11
-37 -24 -62 -14 -25 -32 -69 -40 -97 -9 -29 -24 -66 -35 -83 -10 -18 -22 -48
-26 -67 -4 -19 -17 -53 -30 -75 -12 -22 -26 -56 -30 -75 -4 -19 -21 -59 -36
-89 -16 -30 -29 -61 -29 -70 0 -9 -13 -43 -30 -76 -16 -33 -30 -67 -30 -76 0
-8 -11 -38 -25 -65 -14 -27 -32 -71 -40 -98 -8 -27 -21 -59 -29 -71 -8 -12
-21 -46 -30 -75 -9 -29 -25 -68 -36 -87 -11 -19 -25 -55 -31 -81 -7 -26 -22
-65 -34 -87 -13 -22 -26 -56 -30 -75 -4 -19 -18 -53 -30 -75 -13 -22 -26 -56
-30 -75 -4 -19 -17 -53 -30 -75 -12 -22 -27 -61 -34 -87 -6 -26 -20 -62 -30
-80 -11 -18 -25 -53 -31 -78 -7 -25 -20 -58 -30 -75 -10 -16 -25 -54 -34 -84
-9 -30 -22 -64 -30 -76 -8 -12 -22 -48 -31 -80 -10 -32 -25 -72 -35 -89 -10
-17 -24 -51 -30 -76 -7 -25 -20 -58 -30 -75 -10 -16 -23 -50 -30 -75 -6 -25
-20 -60 -30 -77 -11 -18 -24 -52 -30 -75 -7 -24 -21 -62 -33 -86 -25 -50 -18
-61 45 -73 62 -12 385 -11 408 1 25 13 65 83 80 138 6 23 19 57 30 75 10 17
24 52 30 77 7 25 20 59 30 75 10 17 23 50 30 75 6 25 20 60 30 77 11 18 26 56
35 85 8 28 21 61 29 73 8 12 22 49 32 81 9 32 24 70 34 84 10 14 21 41 25 60
4 19 20 62 36 95 16 33 29 67 29 76 0 9 13 40 29 70 15 30 32 70 36 89 4 19
17 53 30 75 12 22 26 56 30 75 4 19 21 59 36 89 16 30 29 61 29 70 0 9 13 43
30 76 16 33 30 67 30 75 0 8 13 42 28 75 16 33 32 74 36 90 4 17 21 57 37 90
16 33 29 67 29 75 0 8 14 42 30 75 16 33 30 67 30 76 0 9 11 36 24 61 13 24
31 70 40 101 17 58 55 101 85 95 9 -2 22 -23 29 -48 7 -25 26 -72 43 -105 16
-33 29 -69 29 -80 0 -11 13 -45 29 -75 16 -30 32 -71 36 -90 4 -19 18 -53 30
-75 13 -22 26 -56 30 -75 4 -19 17 -53 30 -75 12 -22 26 -56 30 -75 4 -19 17
-53 30 -75 12 -22 26 -56 30 -75 4 -19 20 -62 36 -95 16 -33 29 -67 29 -76 0
-9 13 -40 29 -70 15 -30 32 -70 36 -89 4 -19 15 -50 26 -67 10 -18 25 -54 33
-80 7 -27 26 -73 40 -103 14 -30 26 -62 26 -70 0 -8 14 -42 30 -75 16 -33 30
-67 30 -76 0 -9 11 -37 24 -62 14 -25 32 -70 40 -98 9 -29 22 -62 30 -74 8
-12 22 -48 31 -80 10 -32 25 -72 35 -89 10 -17 24 -51 30 -76 7 -25 20 -58 30
-75 10 -16 25 -55 34 -85 9 -30 29 -73 44 -95 l28 -40 221 -3 c191 -2 223 0
237 13 14 15 14 19 -3 53 -10 20 -24 57 -31 82 -6 25 -20 59 -30 75 -10 17
-24 53 -31 80 -6 28 -22 68 -34 90 -13 22 -26 56 -30 75 -4 19 -15 50 -26 68
-10 18 -26 58 -35 90 -9 31 -24 71 -34 87 -10 17 -24 50 -30 75 -7 24 -23 66
-36 92 -13 26 -24 56 -24 66 0 11 -11 39 -24 64 -13 24 -31 70 -40 101 -9 31
-25 71 -35 89 -11 18 -22 49 -26 68 -4 19 -17 53 -30 75 -12 22 -28 63 -34 90
-7 28 -21 64 -31 80 -10 17 -23 50 -30 75 -6 25 -20 59 -30 76 -10 17 -25 56
-34 85 -8 30 -27 76 -41 103 -14 27 -25 57 -25 65 0 9 -14 43 -30 76 -17 33
-30 66 -30 75 0 8 -14 42 -30 75 -16 33 -30 67 -30 75 0 8 -13 42 -29 75 -16
33 -32 76 -36 95 -4 19 -18 53 -30 75 -13 22 -26 56 -30 75 -4 19 -21 59 -36
89 -16 30 -29 63 -29 75 0 12 -12 41 -25 65 -14 24 -30 65 -37 90 -6 25 -22
66 -36 90 -34 59 -34 143 0 203 14 24 30 64 36 89 7 25 23 66 37 90 13 24 25
51 25 59 0 8 13 42 29 75 16 33 32 75 36 93 4 19 20 59 36 89 16 30 29 62 29
72 0 9 14 43 30 76 17 33 30 66 30 75 0 8 14 42 30 75 16 33 30 67 30 76 0 9
13 40 29 70 15 30 32 70 36 89 4 19 17 53 30 75 12 22 26 56 30 75 4 19 21 59
36 89 16 30 29 61 29 70 0 9 13 43 30 76 16 33 30 67 30 75 0 9 13 42 30 75
16 33 30 66 30 74 0 7 16 48 35 91 19 43 35 84 35 91 0 8 14 41 30 74 17 33
30 66 30 75 0 8 14 42 30 75 16 33 30 67 30 76 0 9 13 40 29 70 15 30 32 70
36 89 4 19 18 53 30 75 13 22 26 56 30 75 4 19 16 51 27 70 27 46 70 180 64
196 -9 24 -82 34 -263 34 -181 0 -182 0 -212 -26 -21 -17 -36 -44 -47 -82 -9
-32 -27 -77 -40 -102 -13 -25 -24 -52 -24 -61 0 -10 -13 -42 -29 -72 -16 -30
-32 -70 -36 -89 -4 -18 -15 -48 -26 -65 -10 -18 -25 -55 -33 -82 -8 -26 -26
-70 -40 -97 -14 -27 -26 -56 -26 -64 0 -8 -13 -42 -28 -75 -16 -33 -32 -73
-36 -90 -4 -16 -21 -57 -37 -90 -16 -33 -29 -66 -29 -74 0 -8 -11 -33 -24 -55
-13 -23 -27 -57 -31 -76 -4 -19 -21 -59 -36 -89 -16 -30 -29 -62 -29 -71 0 -9
-13 -41 -29 -71 -15 -30 -32 -69 -36 -87 -4 -19 -20 -59 -36 -89 -16 -30 -29
-61 -29 -69 0 -8 -13 -40 -30 -71 -16 -31 -30 -64 -30 -73 0 -9 -11 -38 -25
-63 -13 -25 -29 -65 -35 -89 -7 -23 -26 -62 -43 -86 -40 -56 -66 -54 -84 6 -6
24 -21 57 -31 75 -11 18 -25 50 -32 72 -7 22 -24 60 -37 84 -12 24 -23 52 -23
61 0 9 -13 42 -30 73 -16 31 -30 63 -30 70 0 8 -11 36 -25 63 -14 27 -31 69
-39 94 -7 25 -25 67 -40 94 -14 27 -26 56 -26 65 0 9 -14 43 -30 76 -16 33
-30 67 -30 76 0 9 -11 37 -24 62 -14 25 -32 69 -40 97 -9 29 -24 66 -35 83
-10 18 -22 48 -26 67 -4 19 -17 53 -30 75 -12 22 -26 56 -30 75 -4 19 -19 60
-35 90 -15 30 -31 71 -35 90 -4 19 -18 53 -30 75 -13 22 -26 56 -30 75 -4 19
-18 53 -30 75 -13 22 -26 56 -30 75 -4 19 -17 53 -30 75 -12 22 -26 55 -30 72
-12 59 -27 63 -250 63 -144 0 -207 -4 -225 -13z"/>
<path fill="#666666" d="M38720 27617 l-25 -13 -3 -2916 c-2 -2703 -1 -2917 15 -2929 13 -12
195 -14 1076 -17 780 -2 1063 1 1073 9 11 9 14 70 14 310 0 294 -5 349 -34
349 -6 0 -379 1 -829 3 l-819 2 -24 28 -24 28 0 2564 0 2564 -22 15 c-29 21
-358 23 -398 3z"/>
<path fill="#666666" d="M41424 27620 c-12 -5 -25 -13 -28 -18 -3 -6 -6 -1319 -6 -2918 0
-2607 1 -2910 15 -2924 13 -12 52 -16 224 -18 182 -3 211 -1 225 13 15 15 16
253 16 2930 0 2635 -2 2915 -16 2929 -13 14 -46 16 -212 15 -108 0 -207 -4
-218 -9z"/>
<path fill="#666666" d="M42343 27620 c-32 -13 -34 -43 -31 -342 3 -263 3 -268 26 -290 l23
-23 583 -3 c577 -2 584 -3 602 -23 18 -21 19 -90 21 -2597 2 -1802 6 -2579 13
-2586 16 -16 437 -21 456 -5 12 10 14 374 14 2583 0 2053 3 2576 13 2596 l13
25 594 2 c593 3 595 3 613 24 15 19 17 50 17 323 0 222 -3 305 -12 314 -15 15
-2909 16 -2945 2z"/>
<path fill="#666666" d="M45807 27612 c-16 -17 -17 -235 -17 -2929 0 -2806 1 -2910 18 -2926
17 -16 109 -17 1120 -17 l1102 0 15 24 c24 36 18 607 -6 631 -13 14 -112 16
-870 18 -799 2 -857 3 -882 20 l-27 17 0 1039 c0 954 1 1040 17 1052 13 12
156 14 821 17 567 2 809 6 819 13 18 16 19 577 1 602 -12 15 -77 17 -814 19
-773 3 -803 4 -823 22 l-21 19 0 843 0 843 26 20 c27 21 32 21 856 21 l830 0
29 29 29 29 0 284 c0 156 -4 288 -8 294 -22 33 -43 34 -1125 34 -1028 0 -1075
-1 -1090 -18z"/>
<path fill="#ffe183" d="M37701 27369 c-13 -5 -37 -20 -53 -34 -16 -14 -35 -25 -42 -25 -7 0
-30 -13 -51 -30 -21 -16 -43 -30 -50 -30 -6 0 -29 -13 -51 -30 -21 -16 -44
-30 -50 -30 -6 0 -29 -12 -50 -28 -21 -15 -55 -35 -74 -45 -19 -10 -63 -35
-98 -55 -34 -20 -99 -59 -145 -86 -45 -26 -93 -57 -107 -67 -14 -10 -47 -30
-75 -44 -27 -14 -75 -41 -105 -60 -30 -19 -73 -44 -95 -56 -22 -12 -59 -38
-83 -57 -47 -39 -66 -87 -78 -202 -4 -36 -17 -101 -30 -146 -13 -45 -28 -120
-34 -167 -6 -47 -19 -113 -30 -147 -11 -33 -24 -100 -30 -148 -6 -48 -20 -114
-30 -147 -11 -33 -26 -107 -34 -165 -8 -58 -22 -125 -31 -150 -9 -25 -23 -92
-31 -149 -8 -57 -23 -134 -34 -170 -11 -36 -24 -104 -30 -149 -6 -46 -20 -112
-31 -147 -20 -66 -46 -244 -41 -281 3 -23 111 -155 237 -289 78 -84 166 -197
162 -209 -6 -18 -57 -19 -76 -2 -10 9 -42 23 -72 32 -30 9 -69 25 -87 36 -18
11 -55 26 -82 33 -44 12 -52 11 -70 -3 -20 -16 -20 -21 -9 -92 6 -41 20 -102
31 -135 11 -33 24 -82 30 -110 5 -27 22 -90 38 -140 16 -49 32 -110 35 -135 4
-25 17 -72 30 -105 12 -33 27 -88 34 -122 6 -35 20 -82 31 -105 10 -24 24 -72
30 -107 6 -36 20 -81 30 -102 11 -20 25 -63 33 -95 8 -32 30 -86 49 -119 l34
-60 110 1 c60 1 168 9 241 19 73 10 139 15 148 11 26 -10 -17 -70 -114 -162
-47 -43 -102 -95 -123 -115 -73 -69 -34 -100 65 -51 34 17 73 33 87 37 14 3
52 19 85 35 33 15 89 42 125 59 36 17 71 31 79 31 7 0 35 12 62 26 49 27 92
28 102 2 7 -20 -31 -220 -48 -254 -18 -34 -17 -85 2 -91 6 -2 16 12 23 32 7
20 21 41 32 48 11 7 31 35 44 62 14 28 47 93 74 145 54 102 59 131 32 171 -40
61 -90 128 -172 234 -25 31 -52 68 -61 81 -8 13 -26 34 -40 48 -13 13 -55 64
-94 111 -38 48 -95 117 -125 153 -84 101 -84 98 -77 360 8 313 24 530 47 641
11 52 27 161 35 243 8 82 22 176 30 209 9 32 22 107 30 165 9 59 24 137 35
173 10 36 24 111 31 165 6 55 19 120 29 145 10 25 23 86 29 135 7 49 23 115
35 145 13 31 27 85 30 119 9 80 19 108 47 122 l22 12 -5 -108 c-3 -82 -10
-121 -26 -156 -11 -27 -25 -90 -32 -145 -6 -54 -19 -127 -30 -163 -10 -36 -25
-123 -34 -195 -9 -71 -22 -153 -31 -181 -8 -28 -22 -111 -30 -185 -9 -74 -24
-179 -35 -234 -10 -55 -23 -161 -30 -235 -6 -74 -17 -173 -25 -220 -22 -130
-35 -306 -35 -500 l0 -176 38 -50 c21 -28 64 -82 96 -120 31 -38 69 -84 84
-102 15 -19 41 -49 57 -67 17 -18 44 -50 62 -71 183 -223 236 -279 297 -312
27 -15 58 -32 69 -39 11 -6 52 -14 91 -18 39 -3 120 -18 179 -32 59 -14 119
-22 132 -19 38 10 30 34 -13 46 -21 5 -49 21 -62 35 -12 13 -39 30 -58 36 -19
6 -50 22 -70 35 -19 13 -41 24 -48 24 -16 0 -71 46 -85 72 -15 28 3 44 55 52
24 4 61 16 82 27 22 11 65 26 98 35 57 15 160 66 172 86 16 26 -22 33 -201 38
-134 4 -188 9 -197 18 -14 14 -7 22 82 87 23 17 54 42 70 57 16 15 35 30 43
35 7 4 23 25 36 46 21 34 22 41 10 70 -12 28 -247 310 -303 362 -31 30 -76 99
-76 117 0 8 7 29 15 45 8 17 20 57 26 89 6 33 21 84 34 114 13 30 26 73 30 95
4 22 18 65 30 95 13 30 28 82 35 115 7 33 20 76 30 95 10 19 23 62 30 95 7 33
20 78 30 100 10 23 26 71 34 108 9 37 23 81 31 97 8 16 22 61 30 100 8 39 23
87 34 108 11 21 24 63 30 94 5 32 19 74 29 95 11 21 25 65 32 98 6 33 20 76
30 96 10 19 23 62 30 95 6 32 22 84 35 114 13 30 29 79 34 108 6 29 20 70 30
90 11 21 24 63 30 94 5 32 19 74 29 95 11 21 27 74 37 118 16 74 16 84 1 119
-8 20 -25 49 -36 64 -12 15 -41 59 -65 97 -24 39 -53 84 -65 100 -86 124 -132
196 -149 230 -10 22 -28 49 -40 59 -11 11 -21 23 -21 28 0 6 -13 28 -29 51
-15 23 -37 56 -47 74 -23 39 -110 169 -136 203 -10 14 -28 40 -39 58 -17 25
-27 32 -52 31 -18 0 -43 -5 -56 -10z m-280 -1239 c13 -64 -16 -171 -42 -154
-5 3 -9 31 -9 62 0 110 35 172 51 92z"/>
<path fill="#666666" d="M23075 21359 c-55 -3 -134 -16 -175 -28 -41 -11 -84 -21 -95 -21 -11
0 -36 -9 -55 -20 -19 -11 -53 -29 -75 -39 -68 -31 -152 -124 -196 -218 -33
-71 -41 -100 -50 -188 -16 -156 0 -269 48 -348 45 -72 129 -149 203 -187 30
-15 69 -35 85 -44 17 -9 37 -16 45 -16 8 0 52 -13 97 -29 46 -16 109 -33 140
-36 32 -4 83 -17 114 -30 30 -12 73 -25 95 -29 46 -9 157 -68 197 -105 16 -14
45 -51 65 -81 l37 -55 0 -110 0 -110 -37 -55 c-42 -64 -74 -95 -143 -138 -67
-41 -257 -77 -355 -67 -129 14 -281 44 -318 64 -20 11 -55 25 -77 32 -22 6
-59 23 -82 36 -54 31 -102 28 -121 -7 -16 -32 -7 -175 14 -207 19 -29 70 -51
164 -69 41 -8 116 -27 165 -42 86 -25 100 -26 315 -26 191 0 232 3 270 18 25
10 74 26 109 37 35 10 75 26 90 36 14 10 37 23 51 29 38 17 122 92 146 130 11
18 28 41 36 51 26 29 70 228 69 313 -1 107 -40 257 -85 324 -49 74 -150 162
-212 185 -28 11 -67 29 -85 40 -19 12 -42 21 -52 21 -11 0 -58 13 -105 29 -48
16 -103 32 -122 36 -19 4 -74 20 -122 36 -47 16 -95 29 -106 29 -35 0 -182 81
-206 114 -71 94 -79 183 -29 301 38 89 73 125 159 167 69 33 69 33 244 36 196
4 269 -8 487 -79 100 -33 113 -20 113 106 0 118 -29 148 -160 165 -47 7 -121
20 -165 30 -95 22 -194 27 -330 19z"/>
<path fill="#666666" d="M37315 21344 c-22 -8 -69 -21 -105 -29 -36 -7 -92 -30 -125 -49 -68
-40 -145 -97 -145 -108 0 -4 -13 -22 -29 -41 -27 -30 -41 -60 -87 -177 -17
-45 -18 -292 -1 -336 7 -17 23 -58 36 -92 31 -80 132 -186 195 -203 22 -6 53
-20 67 -30 15 -10 51 -24 80 -30 30 -5 75 -19 101 -30 26 -10 77 -25 115 -33
38 -8 89 -24 114 -34 25 -11 65 -23 89 -27 38 -6 88 -25 196 -77 21 -10 79
-81 103 -127 18 -33 26 -206 12 -257 -17 -62 -80 -134 -158 -181 -59 -35 -85
-44 -178 -58 -78 -12 -134 -15 -193 -11 -134 11 -270 34 -295 50 -12 9 -50 22
-85 31 -34 9 -81 27 -104 40 -56 32 -96 33 -106 3 -13 -37 -7 -205 8 -223 19
-23 94 -53 163 -65 34 -6 96 -22 137 -36 64 -22 98 -27 235 -31 208 -7 337 6
456 47 198 68 316 176 390 357 27 66 32 95 36 183 5 114 0 145 -46 264 -33 85
-96 167 -172 223 -63 46 -184 105 -254 124 -33 10 -80 24 -105 32 -25 9 -79
22 -120 30 -181 36 -373 115 -411 168 -66 93 -77 192 -32 293 35 79 92 136
178 177 l70 34 220 0 c200 0 225 -2 270 -21 28 -12 75 -27 105 -34 30 -7 70
-21 87 -32 65 -39 90 -15 92 88 2 89 -7 111 -59 149 -41 30 -62 37 -146 50
-55 7 -134 21 -177 29 -105 21 -366 21 -422 0z"/>
<path fill="#666666" d="M24333 21310 c-12 -5 -25 -19 -28 -32 -3 -13 -4 -478 -3 -1034 3
-876 5 -1013 18 -1029 13 -15 26 -17 104 -11 103 7 133 22 140 68 3 18 9 476
15 1018 12 1153 28 1023 -126 1027 -54 2 -108 -1 -120 -7z"/>
<path fill="#666666" d="M27628 21313 c-20 -2 -41 -10 -48 -17 -14 -18 -14 -1713 1 -1893 14
-184 30 -203 169 -203 58 0 83 4 94 16 14 13 16 65 16 413 0 327 3 401 14 417
13 18 31 19 248 24 128 3 238 9 245 13 7 4 54 17 105 28 142 31 280 121 335
218 15 25 32 53 38 61 24 30 68 205 72 290 5 75 1 100 -27 200 -18 63 -38 122
-45 130 -7 8 -22 33 -33 55 -40 77 -145 167 -216 186 -23 6 -66 20 -96 31 -47
17 -91 21 -310 29 -257 8 -494 9 -562 2z m537 -224 c274 -24 335 -53 408 -194
l42 -80 0 -120 c0 -78 -5 -129 -13 -145 -56 -107 -99 -156 -175 -199 -68 -39
-158 -50 -394 -51 -135 0 -143 1 -157 22 -14 19 -16 71 -16 360 0 340 4 380
37 406 20 15 108 15 268 1z"/>
<path fill="#666666" d="M29333 21310 c-14 -6 -24 -21 -28 -42 -3 -18 -5 -483 -3 -1034 2
-830 5 -1004 17 -1017 12 -16 68 -17 621 -17 553 0 609 1 621 17 9 10 15 49
17 108 6 146 49 135 -525 135 l-473 0 -10 26 c-6 16 -10 359 -10 910 0 1032
14 924 -122 923 -46 0 -93 -4 -105 -9z"/>
<path fill="#666666" d="M30915 21313 c-47 -12 -45 33 -45 -1042 0 -799 3 -1021 13 -1041 l13
-25 631 -3 c564 -2 632 0 644 14 8 10 13 47 13 109 1 148 52 135 -510 135
l-473 0 -15 22 c-14 19 -16 71 -16 363 0 292 2 344 16 363 l15 22 443 0 c517
0 476 -10 476 112 0 117 39 108 -478 108 l-441 0 -15 22 c-14 19 -16 65 -16
301 l0 278 25 25 25 25 466 -2 c421 -1 468 0 483 15 21 21 23 168 3 188 -10
10 -137 13 -625 14 -337 1 -621 -1 -632 -3z"/>
<path fill="#666666" d="M33623 21313 c-29 -3 -46 -10 -53 -23 -7 -13 -9 -358 -8 -1038 3
-846 5 -1022 17 -1035 18 -23 227 -25 257 -3 18 14 19 34 24 499 4 385 8 487
18 500 12 14 57 17 377 19 428 4 405 -3 405 108 0 110 23 104 -408 110 l-366
5 -13 25 c-9 18 -13 98 -13 298 l0 273 25 25 25 25 402 -2 402 -1 18 23 c15
18 18 36 16 98 -3 69 -5 77 -28 88 -19 10 -143 12 -540 11 -283 -1 -534 -3
-557 -5z"/>
<path fill="#666666" d="M35503 21309 c-39 -11 -58 -38 -72 -101 -6 -25 -22 -68 -36 -94 -14
-26 -25 -57 -25 -68 0 -12 -13 -48 -29 -81 -16 -33 -32 -76 -36 -95 -4 -19
-18 -55 -30 -80 -12 -25 -26 -61 -30 -80 -4 -19 -20 -62 -36 -95 -16 -33 -29
-69 -29 -80 0 -11 -14 -47 -30 -80 -16 -33 -30 -69 -30 -80 0 -11 -13 -47 -29
-80 -16 -33 -32 -76 -36 -95 -4 -19 -17 -55 -30 -80 -12 -25 -27 -66 -34 -92
-6 -26 -19 -62 -30 -80 -10 -18 -24 -54 -30 -80 -6 -26 -22 -68 -36 -94 -14
-26 -25 -56 -25 -68 0 -12 -13 -48 -29 -82 -16 -34 -32 -76 -36 -95 -4 -19
-17 -56 -30 -84 -13 -27 -33 -81 -44 -118 -24 -76 -18 -101 25 -117 34 -13
180 -13 204 0 11 6 26 32 34 59 8 26 23 66 34 87 11 22 24 58 28 79 3 22 17
61 30 87 13 26 29 70 35 97 8 38 20 58 50 85 l39 36 435 0 c422 0 436 -1 455
-20 11 -11 20 -26 20 -32 0 -7 14 -40 30 -73 16 -33 30 -69 30 -80 0 -11 11
-44 25 -73 14 -30 31 -78 39 -108 8 -30 29 -77 46 -105 l32 -50 112 3 111 3 3
47 c2 34 -4 60 -21 95 -13 26 -29 69 -36 95 -6 26 -22 68 -36 94 -14 26 -25
56 -25 68 0 12 -14 48 -30 81 -16 33 -30 69 -30 80 0 11 -13 47 -28 80 -16 33
-34 81 -40 107 -7 26 -21 62 -31 80 -10 18 -22 49 -26 68 -4 19 -15 53 -26 75
-18 39 -44 111 -89 245 -12 36 -32 88 -45 115 -13 28 -27 66 -30 85 -4 19 -18
55 -30 80 -12 25 -26 61 -30 80 -4 19 -20 62 -36 95 -16 33 -29 69 -29 81 0
11 -11 42 -25 68 -14 26 -29 66 -35 89 -5 23 -25 76 -44 118 -26 57 -42 78
-58 82 -40 9 -232 6 -265 -4z m159 -376 c10 -9 18 -23 18 -32 0 -9 13 -43 29
-77 16 -34 32 -76 36 -95 4 -19 17 -52 30 -74 12 -22 26 -56 30 -75 4 -19 18
-58 31 -86 13 -28 28 -73 34 -99 6 -25 19 -64 30 -85 10 -20 24 -59 31 -86 7
-27 21 -66 31 -87 12 -24 18 -54 16 -80 -3 -42 -3 -42 -53 -50 -27 -5 -175 -7
-327 -5 -330 4 -318 0 -299 100 7 35 23 86 35 113 13 28 29 75 36 105 7 30 20
69 30 85 10 17 23 55 30 85 7 30 21 69 30 85 10 17 24 53 30 80 7 28 21 65 32
84 10 19 25 58 33 87 17 66 29 89 57 108 28 20 27 20 50 -1z"/>
<path fill="#666666" d="M38460 21313 c-40 -15 -50 -35 -50 -99 0 -51 4 -68 23 -90 28 -32 16
-30 380 -40 235 -6 271 -9 290 -25 l22 -17 7 -869 c4 -477 10 -883 13 -901 11
-59 34 -72 130 -72 140 0 125 -110 125 930 0 976 -2 938 58 961 17 6 142 9
330 8 357 -3 340 -8 347 104 4 53 1 70 -14 89 l-19 23 -814 2 c-447 1 -820 -1
-828 -4z"/>
<path fill="#666666" d="M41376 21310 c-21 -4 -42 -13 -47 -21 -5 -8 -9 -460 -9 -1025 0
-1189 -15 -1064 130 -1064 67 0 92 4 104 16 9 8 17 16 18 17 1 1 5 217 8 480
l5 479 24 19 c22 18 44 19 381 19 234 0 368 4 389 11 37 13 43 32 39 119 -3
64 -3 65 -38 76 -20 7 -158 15 -330 19 -162 4 -322 10 -354 14 -93 10 -92 8
-106 315 l-12 259 26 26 26 26 408 2 c224 1 415 2 424 3 27 0 48 52 48 117 0
67 -5 78 -43 92 -33 13 -1028 13 -1091 1z"/>
<path fill="#666666" d="M43014 21313 c-12 -2 -29 -12 -38 -22 -15 -16 -16 -109 -14 -1033 3
-1186 -12 -1058 129 -1058 138 0 129 -30 129 442 0 426 3 451 55 464 80 20
417 -20 490 -58 35 -19 135 -128 163 -180 15 -27 43 -79 64 -116 20 -37 48
-89 62 -117 13 -27 32 -61 40 -75 9 -14 22 -41 30 -60 8 -19 22 -46 30 -60 8
-14 24 -45 36 -70 64 -139 92 -160 211 -160 80 0 109 14 109 54 0 36 -31 124
-55 156 -14 19 -25 40 -25 49 0 8 -13 35 -29 60 -16 25 -32 57 -36 71 -4 13
-16 36 -26 50 -21 28 -56 91 -93 167 -14 28 -30 54 -36 58 -7 4 -20 26 -31 49
-26 56 -53 94 -126 183 -71 84 -79 114 -35 137 42 22 154 135 186 190 33 55
66 199 66 291 0 92 -33 231 -74 310 -45 88 -146 186 -220 214 -28 11 -66 27
-85 37 -26 13 -74 19 -200 25 -171 8 -639 10 -677 2z m714 -237 c29 -8 63 -21
75 -29 38 -25 107 -99 144 -155 30 -44 37 -65 41 -120 6 -85 -10 -159 -52
-242 -26 -53 -42 -71 -94 -106 -34 -23 -79 -44 -99 -47 -62 -10 -438 -20 -466
-13 -58 14 -57 9 -57 357 l0 321 31 30 30 31 197 -6 c124 -4 217 -12 250 -21z"/>
<path fill="#666666" d="M44953 21310 c-12 -5 -25 -19 -28 -32 -3 -13 -4 -478 -3 -1035 3
-934 4 -1014 20 -1029 16 -16 60 -16 635 -7 340 6 626 14 635 18 35 14 48 170
17 199 -11 12 -106 16 -489 24 -261 5 -483 12 -493 17 -43 19 -47 47 -47 375
0 337 5 374 52 385 13 3 217 6 454 8 348 2 434 5 447 16 24 19 24 162 0 182
-13 11 -105 15 -464 19 -413 5 -450 6 -466 23 -16 16 -18 44 -21 280 -2 165 1
273 7 291 22 55 38 57 529 56 246 -1 455 1 464 5 9 4 22 23 29 42 11 35 9 137
-4 150 -4 3 -28 10 -54 14 -67 11 -1193 10 -1220 -1z"/>
<path fill="#666666" d="M46765 21313 c-11 -3 -28 -12 -37 -21 -17 -14 -18 -75 -18 -1016 0
-933 1 -1003 18 -1036 l17 -35 515 2 c283 2 566 6 629 9 102 6 117 9 138 30
20 20 23 33 23 93 0 62 -3 72 -22 85 -19 11 -116 16 -507 23 l-484 9 -18 23
c-18 22 -19 46 -19 365 0 293 2 345 16 364 l15 22 440 0 441 0 27 28 c28 27
31 51 22 150 0 7 -17 20 -36 28 -28 11 -111 14 -464 14 -377 0 -431 2 -445 16
-14 13 -16 55 -16 303 0 280 1 288 21 307 20 18 44 19 478 21 251 2 462 3 469
3 7 0 24 11 37 25 21 20 25 33 25 88 0 111 55 102 -644 104 -330 0 -610 -1
-621 -4z"/>
<path fill="#666666" d="M25142 21298 c-9 -9 -12 -252 -12 -1033 0 -907 2 -1023 16 -1043 14
-20 23 -22 109 -22 72 0 97 4 109 16 9 8 17 16 18 17 1 1 4 364 8 807 4 592 9
812 18 833 10 23 17 28 39 25 29 -3 26 3 98 -203 10 -27 31 -79 46 -115 15
-36 30 -81 34 -100 4 -19 15 -48 25 -65 10 -16 24 -52 30 -80 7 -27 21 -65 31
-83 11 -18 24 -54 30 -80 6 -26 22 -69 34 -97 13 -27 33 -78 44 -112 54 -163
65 -192 94 -251 16 -34 36 -67 43 -73 19 -16 212 -24 246 -10 22 8 31 22 44
68 9 32 25 74 35 93 10 19 27 62 38 95 51 157 65 194 87 240 13 28 24 59 24
70 0 11 13 48 30 82 16 35 32 80 36 100 4 21 20 65 36 98 15 33 28 69 28 80 0
11 11 42 24 70 13 27 34 79 46 115 47 141 66 190 77 201 19 19 40 -30 47 -111
4 -56 19 -1395 16 -1562 0 -53 29 -68 130 -68 86 0 90 1 107 27 17 25 18 89
21 1032 2 891 1 1007 -13 1027 -15 24 -18 24 -194 24 -178 0 -180 0 -210 -26
-21 -18 -36 -43 -47 -82 -8 -32 -26 -79 -39 -107 -13 -27 -27 -66 -30 -85 -4
-19 -17 -55 -30 -80 -12 -25 -27 -66 -34 -92 -6 -26 -22 -68 -36 -94 -14 -26
-25 -57 -25 -68 0 -12 -13 -48 -29 -81 -16 -33 -32 -76 -36 -95 -4 -19 -16
-50 -26 -68 -10 -18 -24 -54 -30 -80 -6 -26 -20 -62 -30 -80 -10 -18 -26 -58
-35 -90 -9 -31 -22 -66 -28 -77 -6 -11 -20 -47 -31 -80 -11 -34 -27 -61 -35
-63 -20 -3 -83 106 -99 170 -6 26 -20 62 -30 80 -10 18 -22 49 -26 68 -4 19
-17 58 -30 85 -21 47 -32 76 -86 238 -11 34 -31 85 -44 112 -12 28 -28 71 -34
97 -6 26 -20 62 -30 80 -10 18 -22 49 -26 68 -4 19 -20 65 -36 102 -16 36 -29
75 -29 86 0 24 -56 133 -78 150 -22 17 -383 17 -400 0z"/>
</g>
</svg>
