<?xml version="1.0" encoding="UTF-8" standalone="no"?>
<!-- Created with Inkscape (http://www.inkscape.org/) -->

<svg
   width="7030.000000pt"
   height="4686.000000pt"
   viewBox="0 0 7030.000000 4686.000000"
   version="1.1"
   id="svg1"
   sodipodi:docname="makita.svg"
   inkscape:version="1.1.2 (0a00cf5339, 2022-02-04)"
   xmlns:inkscape="http://www.inkscape.org/namespaces/inkscape"
   xmlns:sodipodi="http://sodipodi.sourceforge.net/DTD/sodipodi-0.dtd"
   xmlns="http://www.w3.org/2000/svg"
   xmlns:svg="http://www.w3.org/2000/svg">
  <defs
     id="defs2" />
  <sodipodi:namedview
     id="namedview2"
     pagecolor="#ffffff"
     bordercolor="#666666"
     borderopacity="1.0"
     inkscape:showpageshadow="2"
     inkscape:pageopacity="0.0"
     inkscape:pagecheckerboard="0"
     inkscape:deskcolor="#d1d1d1"
     inkscape:document-units="mm"
     inkscape:zoom="0.10200325"
     inkscape:cx="4578.2855"
     inkscape:cy="2563.6438"
     inkscape:window-width="1920"
     inkscape:window-height="995"
     inkscape:window-x="0"
     inkscape:window-y="0"
     inkscape:window-maximized="1"
     inkscape:current-layer="svg1"
     inkscape:pageshadow="2"
     showgrid="false" />
  <path
     id="path822"
     style="stroke-width:1"
     d="m 5428.5547,2730.5918 c -1.152,2.304 -2.3047,5.7598 -2.3047,5.7598 l -54.1426,150.9121 h 191.2324 l 55.295,-156.6719 z m -2833.916,1.1523 v 175.1036 h 350.207 c 0,3.456 -3e-4,1.1514 -1.1523,4.6074 l -229.2481,605.9531 h 200.4492 l 195.8399,-512.6406 h 132.4804 l -184.3203,512.6406 h 200.4473 l 156.6719,-415.873 h 142.8476 v 2.3046 l -158.9746,410.1114 c 0,0 -3e-4,1.153 -1.1523,3.457 h 271.8711 l 130.8105,-94.4121 c 1.8493,3.1002 3.0748,6.3411 5.125,11.4668 8.064,23.04 44.9265,82.9453 66.8145,82.9453 h 150.9121 l 117.5039,-97.9199 c 1.152,3.456 2.305,9.2146 3.457,14.9746 l 2.3047,11.5215 c 5.76,18.432 41.4714,71.4238 63.3594,71.4238 h 172.7988 l 96.7695,-85.248 21.5782,-17.5723 -38.8594,102.8203 h 201.5996 l 111.7441,-292.6074 89.8575,292.6074 h 210.8144 l 99.0723,-96.7676 h 1.1523 c 8.064,39.168 28.7981,73.7278 65.6621,91.0078 2.304,1.152 11.5203,5.7598 13.8242,5.7598 h 244.2247 c 0,0 29.953,-27.648 42.625,-39.168 19.3395,-18.2019 38.6819,-38.6287 59.1308,-53.5586 3.3275,4.4321 6.6147,22.6666 8.834,28.2149 11.52,26.496 38.0173,44.9279 63.3613,58.7519 1.152,1.152 9.2152,5.7598 10.3672,5.7598 h 237.3125 l 96.7656,-93.4297 c 1.5487,2.8389 2.764,5.8757 4.6075,10.4844 8.064,23.04 44.9284,82.9453 66.8164,82.9453 h 150.9121 l 117.5039,-97.9199 c 1.152,3.456 2.3031,9.2146 3.4551,14.9746 l 2.3047,11.5215 c 5.76,18.432 41.4713,71.4238 63.3593,71.4238 h 172.8008 l 96.7676,-85.248 80.6406,-65.6641 h -202.7519 l 149.7597,-425.0879 h -436.6074 c -64.512,0 -123.2643,67.9673 -145.1523,122.1113 l -119.8086,298.3692 h -210.8145 l 102.5293,-278.7852 h 124.416 l 48.3828,-141.6953 h -115.1992 c 0,-2.304 -1.152,1.151 0,-3.457 l 72.5762,-201.5996 c 0,-1.152 1.1523,-2.3035 1.1523,-4.6075 h -196.9922 l -84.0957,209.6641 h -122.1132 l -50.6875,141.6953 h 127.8711 c 0,2.304 1.152,10e-4 0,3.457 l -108.2872,278.7833 h -217.7265 v -2.3047 l 152.0644,-421.6309 h -191.2324 l -167.039,422.7832 -0.7051,3.457 h -77.6309 -56.4473 -35.7128 -1.1524 l -40.3183,-156.6718 274.1757,-269.5684 h -228.0957 l -217.7285,208.5117 v -2.3047 l 145.1524,-415.8711 h -188.9278 c -1.152,0 -2.3047,2.3028 -2.3047,2.3028 l -239.0293,632.4492 h -161.8671 l 149.7597,-425.0879 H 4071.5 c -64.512,0 -123.2643,67.9673 -145.1523,122.1113 l -119.8067,298.3692 h -155.5195 l 153.2168,-420.4805 h -335.2324 l 36.8652,-107.1367 h -331.7773 l 34.5605,-102.5274 z m 1527.5488,369.7911 h 134.7852 l -105.9844,266.1132 h -135.9356 z m 2217.5957,0 h 134.7832 l -105.9844,266.1132 h -135.9355 z"
     transform="scale(0.75000001)" />
</svg>
