<?xml version="1.0" standalone="no"?>
<!DOCTYPE svg PUBLIC "-//W3C//DTD SVG 20010904//EN"
 "http://www.w3.org/TR/2001/REC-SVG-20010904/DTD/svg10.dtd">
<svg version="1.0" xmlns="http://www.w3.org/2000/svg"
 width="7030.000000pt" height="4687.000000pt" viewBox="0 0 7030.000000 4687.000000"
 preserveAspectRatio="xMidYMid meet">
<metadata>
Created by potrace 1.16, written by Peter Selinger 2001-2019
</metadata>
<g transform="translate(0.000000,4687.000000) scale(0.100000,-0.100000)"
fill="#000000" stroke="none">
<path d="M30930 27693 c-14 -3 -31 -10 -37 -15 -10 -8 -13 -869 -13 -4243 0
-3925 1 -4234 17 -4246 13 -12 208 -14 1177 -14 1095 0 1163 1 1189 18 l27 17
0 3028 c0 2600 2 3031 14 3048 14 19 42 19 1483 21 807 2 1483 3 1501 3 19 0
40 8 52 20 20 20 20 33 20 1166 0 753 -3 1152 -10 1164 -6 11 -27 24 -48 30
-37 10 -5316 13 -5372 3z"/>
<path d="M37050 27683 l-35 -18 -3 -4227 -2 -4228 27 -17 c26 -17 93 -18 1189
-18 969 0 1164 2 1177 14 16 12 17 321 17 4246 0 3925 -1 4234 -17 4246 -13
12 -209 14 -1167 17 -1082 2 -1153 1 -1186 -15z"/>
<path d="M33973 24618 c-12 -6 -24 -20 -27 -32 -11 -40 -7 -5356 4 -5376 6
-11 27 -24 48 -30 51 -14 2253 -14 2304 0 21 6 42 19 48 30 11 20 15 5336 4
5376 -3 12 -17 27 -30 33 -34 15 -2319 14 -2351 -1z"/>
</g>
</svg>
