<?xml version="1.0" standalone="no"?>
<!DOCTYPE svg PUBLIC "-//W3C//DTD SVG 20010904//EN"
 "http://www.w3.org/TR/2001/REC-SVG-20010904/DTD/svg10.dtd">
<svg version="1.0" xmlns="http://www.w3.org/2000/svg"
 width="7030.000000pt" height="4687.000000pt" viewBox="0 0 7030.000000 4687.000000"
 preserveAspectRatio="xMidYMid meet">
<metadata>
Created by potrace 1.16, written by Peter Selinger 2001-2019
</metadata>
<g transform="translate(0.000000,4687.000000) scale(0.100000,-0.100000)"
fill="#000000" stroke="none">
<path d="M22745 26248 l-25 -23 0 -2790 0 -2790 25 -22 26 -23 754 0 754 0 15
22 c14 20 16 229 16 2023 0 1243 4 2006 10 2015 8 13 135 16 1010 20 977 5
1002 5 1016 24 12 17 14 136 14 757 0 430 -4 748 -9 762 -6 14 -23 29 -42 36
-23 8 -514 11 -1785 11 l-1753 0 -26 -22z"/>
<path d="M26816 26248 c-14 -20 -16 -304 -16 -2813 0 -2509 2 -2793 16 -2813
l15 -22 753 0 c727 0 755 1 777 19 l24 19 0 2797 0 2797 -24 19 c-22 18 -50
19 -777 19 l-753 0 -15 -22z"/>
<path d="M39640 25431 c-55 -11 -111 -43 -165 -97 -39 -38 -43 -48 -55 -123
-18 -118 -1 -241 41 -295 12 -15 46 -43 77 -63 48 -31 70 -38 144 -46 190 -21
318 22 396 134 l37 52 0 127 0 126 -39 57 c-22 32 -55 65 -75 75 -20 11 -50
27 -67 36 -37 19 -223 30 -294 17z"/>
<path d="M34688 24540 c-53 -5 -114 -13 -135 -19 -21 -6 -81 -15 -133 -21 -52
-7 -115 -20 -139 -31 -24 -11 -74 -26 -109 -34 -36 -9 -79 -24 -96 -34 -17
-10 -49 -24 -71 -31 -53 -17 -63 -26 -70 -64 -5 -25 6 -55 59 -161 36 -71 66
-134 66 -139 0 -21 74 -116 91 -116 10 0 33 9 51 19 18 11 53 25 78 31 25 7
61 20 80 30 20 10 65 24 101 30 35 6 91 21 124 32 47 15 89 20 195 21 l135 2
75 -36 c82 -40 111 -68 156 -144 25 -45 29 -61 32 -156 6 -150 7 -149 -180
-149 -262 -1 -512 -17 -591 -39 -39 -11 -101 -25 -136 -31 -72 -13 -125 -35
-293 -122 -39 -21 -157 -132 -196 -186 -12 -17 -31 -55 -41 -84 -11 -29 -27
-73 -37 -98 -14 -36 -17 -78 -18 -220 l0 -175 37 -109 c54 -160 107 -233 251
-348 18 -16 38 -28 42 -28 5 0 40 -15 79 -34 59 -29 92 -37 208 -51 143 -17
178 -16 389 11 76 9 122 21 155 39 26 14 52 25 57 25 23 0 151 97 225 170 45
45 89 80 100 80 26 0 58 -42 72 -94 6 -22 28 -78 50 -123 l39 -83 205 0 c192
0 206 1 225 20 20 20 20 33 20 819 0 744 -1 809 -20 950 -17 123 -26 162 -50
210 -17 32 -30 63 -30 68 0 29 -190 233 -217 233 -6 0 -25 11 -42 25 -16 14
-53 32 -81 41 -27 8 -65 23 -83 34 -17 10 -63 23 -102 29 -38 5 -101 16 -140
25 -92 19 -266 26 -387 16z m482 -1365 c8 -10 11 -57 8 -167 -3 -150 -4 -154
-37 -223 -49 -99 -115 -170 -196 -209 -16 -8 -68 -26 -114 -41 -70 -23 -96
-27 -160 -23 -178 11 -283 84 -301 209 -13 89 2 201 33 247 13 20 29 44 33 53
19 36 108 91 197 121 99 34 187 44 403 46 96 2 124 -1 134 -13z"/>
<path d="M41631 24539 c-52 -5 -127 -15 -165 -23 -39 -8 -100 -18 -135 -21
-36 -4 -78 -13 -93 -21 -16 -8 -65 -24 -110 -35 -44 -11 -90 -26 -102 -34 -11
-7 -46 -23 -77 -34 -39 -15 -59 -29 -67 -47 -18 -37 -15 -55 18 -103 17 -24
30 -52 30 -61 0 -9 13 -37 30 -61 16 -24 30 -50 30 -58 0 -8 19 -45 41 -83 45
-74 57 -80 111 -49 18 10 49 22 68 26 19 4 52 16 74 27 21 11 70 26 110 34 39
8 98 24 131 35 48 17 87 21 200 22 l140 1 70 -36 c73 -38 101 -63 151 -137 27
-41 29 -52 33 -157 4 -155 6 -154 -171 -154 -264 -1 -529 -18 -598 -39 -36
-11 -94 -25 -130 -31 -62 -11 -175 -53 -230 -85 -14 -8 -43 -24 -65 -34 -49
-24 -171 -143 -207 -202 -46 -76 -85 -213 -92 -324 -18 -285 81 -543 258 -672
141 -104 293 -147 511 -146 142 0 336 27 383 52 21 11 57 29 82 40 67 31 126
76 213 163 44 45 86 78 97 78 29 0 58 -33 70 -82 5 -24 21 -63 34 -88 13 -25
26 -57 30 -72 13 -56 20 -58 236 -58 180 0 200 2 221 19 l24 19 0 824 0 823
-24 135 c-25 141 -59 224 -132 328 -54 76 -218 202 -284 218 -17 4 -51 17 -77
30 -26 13 -78 28 -115 34 -37 5 -99 16 -138 24 -94 19 -269 26 -384 15z m479
-1364 c9 -11 11 -58 9 -172 l-4 -158 -38 -72 c-62 -121 -137 -182 -279 -230
-126 -42 -194 -43 -310 -7 -64 20 -90 34 -116 63 -56 61 -64 84 -64 193 0 92
2 103 33 165 65 128 211 206 414 222 183 15 341 13 355 -4z"/>
<path d="M30611 24513 c-113 -24 -231 -71 -301 -121 -19 -14 -71 -63 -116
-108 -84 -88 -120 -105 -128 -61 -24 122 -67 246 -92 264 -28 21 -432 18 -462
-3 l-22 -15 0 -1174 c0 -738 4 -1183 10 -1199 l10 -26 298 0 c291 0 299 1 318
21 18 20 19 50 25 673 6 713 15 849 63 945 13 25 26 58 30 73 10 44 90 131
157 173 l64 39 125 4 c168 6 193 -2 275 -85 36 -36 65 -72 65 -80 0 -7 12 -42
28 -76 l27 -62 5 -796 c4 -654 7 -799 19 -812 12 -15 46 -17 306 -17 273 0
294 1 316 19 l24 19 6 694 c7 749 10 807 60 919 16 37 29 70 29 74 0 3 19 31
42 61 28 38 63 68 112 97 l71 42 150 0 c145 0 152 -1 184 -25 85 -63 122 -119
174 -255 7 -21 13 -273 16 -828 5 -694 8 -799 21 -807 24 -16 616 -8 632 8 10
10 14 167 16 775 3 767 -2 917 -33 1050 -8 34 -15 76 -15 93 0 17 -11 53 -25
80 -14 27 -32 65 -39 86 -34 96 -157 212 -296 281 -94 46 -296 86 -435 87 -90
0 -305 -43 -370 -74 -27 -13 -66 -31 -85 -40 -61 -29 -116 -73 -190 -156 -90
-100 -102 -102 -163 -22 -68 88 -162 167 -224 189 -19 7 -49 21 -67 32 -17 11
-71 27 -121 35 -49 9 -108 21 -130 26 -72 17 -241 10 -364 -17z"/>
<path d="M37652 24510 c-73 -15 -138 -32 -145 -38 -6 -6 -35 -19 -64 -30 -29
-11 -66 -30 -84 -43 -60 -46 -161 -144 -175 -171 -10 -19 -22 -28 -39 -28 -21
0 -30 10 -51 58 -14 31 -30 84 -36 117 -20 117 -38 125 -283 125 -160 0 -237
-9 -250 -30 -3 -5 -5 -539 -6 -1187 l0 -1178 22 -17 c19 -16 50 -18 320 -18
227 0 300 3 306 13 4 6 11 327 14 712 l5 700 27 84 c15 47 27 92 27 102 0 29
79 169 117 206 19 20 65 52 101 72 l67 36 165 0 165 0 57 -40 c85 -58 130
-133 159 -265 22 -103 23 -119 26 -845 4 -659 6 -742 20 -757 15 -16 42 -18
309 -18 l294 0 15 24 c15 22 16 112 13 908 l-4 883 -33 105 c-35 112 -47 141
-87 207 -42 71 -153 174 -238 220 -84 45 -153 74 -203 82 -32 6 -94 17 -138
25 -118 22 -239 18 -393 -14z"/>
<path d="M44695 24529 c-16 -5 -61 -16 -100 -24 -38 -9 -82 -24 -96 -35 -15
-10 -43 -26 -64 -34 -65 -27 -207 -157 -285 -261 -25 -33 -49 -63 -55 -67 -15
-11 -43 21 -50 56 -3 17 -15 56 -25 86 -11 30 -24 89 -30 130 -7 54 -16 80
-30 92 -29 24 -102 30 -292 26 -147 -3 -168 -5 -187 -22 l-21 -19 2 -1173 c3
-1136 4 -1173 22 -1193 19 -20 27 -21 317 -21 227 0 300 3 306 13 4 6 10 320
13 697 5 638 6 688 23 725 11 22 25 58 31 81 16 49 81 137 133 180 59 47 163
101 213 109 25 4 63 14 85 22 68 24 172 32 269 22 79 -9 92 -9 102 6 7 9 15
64 19 123 3 59 12 167 20 241 21 192 21 195 -17 223 -30 21 -45 23 -153 25
-66 1 -133 -2 -150 -8z"/>
<path d="M46215 24524 c-33 -7 -96 -18 -140 -24 -44 -6 -94 -20 -111 -30 -17
-10 -57 -25 -87 -34 -31 -9 -59 -21 -62 -26 -4 -6 -27 -22 -53 -36 -64 -34
-107 -66 -169 -124 -64 -60 -163 -179 -163 -196 0 -6 -13 -28 -30 -49 -16 -21
-30 -45 -30 -55 0 -9 -11 -39 -25 -65 -14 -26 -35 -84 -45 -129 -11 -44 -28
-106 -37 -136 -13 -45 -16 -103 -16 -320 -1 -244 1 -271 21 -340 12 -41 27
-100 33 -130 6 -30 21 -77 34 -105 13 -27 34 -70 45 -95 38 -83 72 -133 162
-238 50 -59 83 -89 186 -168 38 -30 182 -104 201 -104 9 0 40 -12 70 -25 55
-26 183 -47 361 -60 103 -8 396 25 456 50 21 10 64 25 94 35 30 9 73 29 94 43
21 15 43 27 49 27 38 0 262 212 322 305 51 79 115 203 115 223 0 10 12 44 26
77 31 73 64 328 64 485 -1 135 -33 418 -53 456 -8 16 -23 56 -32 89 -10 33
-25 71 -35 85 -9 14 -27 45 -39 70 -43 91 -75 133 -170 228 -97 96 -168 154
-206 168 -11 4 -32 16 -47 26 -15 10 -51 27 -80 37 -29 11 -66 26 -83 34 -16
9 -75 23 -130 33 -55 9 -120 20 -145 25 -69 12 -278 9 -345 -7z m420 -567
c139 -72 207 -182 249 -400 38 -195 37 -359 -3 -552 -35 -168 -70 -243 -150
-324 -40 -40 -76 -65 -126 -86 -65 -27 -78 -29 -195 -29 -120 0 -128 1 -192
32 -37 18 -71 32 -75 32 -10 0 -89 85 -118 126 -19 27 -48 101 -82 209 -13 40
-16 103 -16 320 -1 283 0 292 50 425 43 116 104 189 202 243 79 43 100 46 251
43 133 -3 136 -3 205 -39z"/>
<path d="M39451 24483 l-21 -18 -3 -1355 -2 -1355 -34 -60 c-74 -129 -159
-158 -413 -137 -192 15 -178 34 -178 -247 0 -158 3 -222 13 -233 11 -15 78
-31 252 -59 28 -4 110 -8 184 -8 116 -1 150 3 260 29 69 17 137 38 151 46 14
8 44 24 68 34 47 22 108 67 159 120 52 54 103 121 103 134 0 7 12 35 27 62 16
29 36 98 51 169 l25 120 4 1351 c2 882 0 1359 -6 1377 -16 41 -60 47 -352 47
-239 0 -269 -2 -288 -17z"/>
<path d="M24787 24233 c-10 -3 -22 -16 -28 -29 -5 -16 -9 -710 -9 -1793 0
-1510 2 -1770 14 -1787 14 -18 35 -19 765 -22 836 -3 814 -4 826 60 3 18 4
821 3 1785 -3 1667 -4 1753 -21 1770 -17 17 -62 18 -775 19 -416 1 -765 0
-775 -3z"/>
</g>
</svg>
