<?xml version="1.0" encoding="UTF-8" standalone="no"?>
<!-- Created with Inkscape (http://www.inkscape.org/) -->

<svg
   version="1.1"
   id="svg680"
   width="7030.000000pt"
   height="4687.000000pt"
   viewBox="0 0 7030.000000 4687.000000"
   xmlns="http://www.w3.org/2000/svg"
   xmlns:svg="http://www.w3.org/2000/svg">
  <defs
     id="defs684" />
  <g
     id="g686"
     transform="matrix(1.3216263,0,0,1.3216263,1857.7025,1513.3974)">
    <g
       id="g706">
      <path
         id="path720"
         style="fill:#fdb701"
         d="M 544.24737 208.01458 C 520.70524 207.66124 496.9118 213.1737 477.8386 224.62675 C 429.90449 253.41016 414.94209 329.74017 446.63371 383.81783 C 451.9379 391.11585 460.1084 402.80646 464.89179 405.7446 L 469.15346 409.28361 L 469.15346 409.28472 L 473.41401 412.82373 C 502.56739 425.43019 595.52443 422.04956 610.59629 412.82927 L 617.37505 407.16442 C 669.77987 363.37161 665.24643 263.89256 609.14655 226.59742 C 591.08022 214.58695 567.78952 208.36792 544.24737 208.01458 z M 598.78334 288.27458 C 599.66124 288.36346 600.41442 288.68766 601.38578 289.13024 C 609.98889 293.05009 606.86635 300.34204 593.68597 307.11235 L 583.58212 312.30282 L 593.75691 317.3625 C 606.90289 323.89892 609.97796 330.95536 601.38578 334.87023 C 597.72406 336.53863 597.97229 336.62694 578.2786 326.72043 C 550.62187 312.80826 550.61629 310.7566 578.18549 296.96195 C 592.38638 289.85632 596.14965 288.00795 598.78334 288.27458 z M 484.0133 288.51067 C 487.43265 288.52004 493.33694 291.19401 505.08442 297.04175 C 533.48128 311.17729 533.52991 313.17088 505.81483 327.03853 C 487.53903 336.1831 486.12491 336.6506 482.32083 334.81149 C 474.06504 330.82013 477.29658 323.57379 490.31435 316.88702 L 500.4182 311.69765 L 490.24342 306.63797 C 478.80682 300.95149 476.73687 298.46444 478.9647 293.08599 C 480.19801 290.10852 481.3538 288.50337 484.0133 288.51067 z M 502.17164 352 L 501.82361 368.24974 C 501.48909 383.8325 501.35403 384.74652 498.54839 390.50016 C 495.72367 396.29295 488.44759 407.43478 483.00025 407.58227 C 482.38931 407.59877 481.80754 404.63755 480.46321 401.75006 C 477.68011 395.77217 476.91202 376.36424 479.16088 368.85823 C 481.49781 361.05824 492.56434 352.04039 499.83631 352.00998 L 502.17164 352 z M 582.11686 352.11306 C 583.28249 351.9992 585.42455 352.49336 589.19266 353.17598 C 598.75495 354.90825 601.50633 360.91973 603.93613 367.07265 C 608.93462 379.73024 605.78341 404.75364 600.17212 407.72082 C 599.65161 407.99606 597.87151 406.17914 594.51946 403.11002 C 584.26165 393.71802 581.71785 385.82074 581.71785 366.15049 C 581.71785 355.55564 579.55248 352.36355 582.11686 352.11306 z M 438.0328 646.00035 L 437.76679 731.90747 L 437.49967 817.81459 L 434.41066 821.6318 C 432.71163 823.73083 428.34416 827.05916 424.70471 829.02903 C 402.28351 841.16456 405.78169 864.91771 430.00048 864.98881 C 440.72246 865.0203 444.5343 866.39307 451.99597 872.91029 C 468.0236 886.90919 479.22286 893.39359 494.49954 897.5182 C 502.36236 899.64111 520.2324 899.37074 529.55157 896.98729 C 537.77719 894.88353 542.34993 892.43512 556.53027 882.5453 C 567.44502 874.93301 572.53677 874.26296 587.12224 878.52083 C 606.04017 884.04345 616.83213 883.03574 627.06216 874.79229 C 636.78875 866.95452 642.64118 864.65903 654.49972 864.03007 C 665.71817 863.43505 668.31954 862.2165 671.93208 855.86364 C 677.17156 846.64964 673.47138 838.92588 658.9498 828.76634 C 655.3472 826.24591 651.07239 822.26911 649.45001 819.92825 L 646.49954 815.67213 L 646.23354 730.83569 L 645.96642 646.00035 L 541.99961 646.00035 L 438.0328 646.00035 z M 508.67774 696.22922 C 538.42982 696.43552 549.41108 737.48464 522.07786 752.36123 C 515.02311 756.20092 504.67268 756.89286 497.42451 754.00937 C 467.79685 742.22286 474.04413 698.8982 505.74057 696.33895 C 506.73873 696.25835 507.71799 696.22256 508.67774 696.22922 z M 586.67778 710.23008 C 616.42987 710.43639 627.41112 751.48438 600.07791 766.36099 C 593.02316 770.20066 582.67273 770.89261 575.42456 768.00912 C 545.7969 756.22263 552.04418 712.89908 583.74062 710.33981 C 584.73877 710.25921 585.71805 710.22342 586.67778 710.23008 z M 503.996 767.9393 C 506.94478 767.77715 510.37661 769.87474 513.59444 774.1539 C 524.50501 788.66303 543.44301 793.02323 560.8008 785.02252 C 571.71929 779.98987 579.32774 782.67598 577.51604 790.92456 C 575.55261 799.86402 548.71739 807.27589 531.99994 803.49563 C 512.88891 799.17414 493.91672 781.6887 498.32007 772.45477 C 499.70118 769.55858 501.70253 768.06541 503.996 767.9393 z " />
      <path
         style="fill:#00a3ee"
         d="M 208,750 V 646 h 104 104 l -0.004,81.75 -0.004,81.75 -4.49999,1.8506 C 398.56217,816.66815 388,833.41048 388,848.58909 V 854 h -90 -90 z m 143,69.52029 c 0,-0.26385 -1.72155,-2.75428 -3.82568,-5.53431 -26.10337,-34.4885 -26.5971,-87.2753 -1.16537,-124.59401 L 351.04638,682 h -7.50857 -7.50856 l -4.51967,5.75 c -26.57842,33.81356 -26.82701,90.26149 -0.55269,125.5 l 5.03289,6.75 h 7.50511 C 347.6227,820 351,819.78413 351,819.52029 Z M 290.7219,794.32768 C 301.03787,789.43243 297.0066,775 285.32327,775 c -11.54033,0 -15.44719,14.16382 -5.30936,19.24845 4.34389,2.17867 6.25395,2.19281 10.70799,0.0792 z m 0.92501,-62.25402 c 6.56229,-4.00145 6.26623,-13.99874 -0.51847,-17.50724 -12.87368,-6.65724 -24.11765,9.98166 -11.81462,17.48335 4.03985,2.46327 8.31895,2.47156 12.33309,0.0239 z"
         id="path718" />
      <path
         id="path716"
         style="display:inline;fill:#f04f21"
         d="m 208,526.5651 c 0,-101.07171 -0.0119,-100.7751 4.23132,-105.30488 5.87793,-6.27484 28.46894,-9.07935 50.08763,-6.21801 10.24252,1.35565 10.86664,1.29837 25.07794,-2.30171 l 4.89689,-1.2405 -0.64865,-18 c -0.35676,-9.9 -0.98834,-18.93678 -1.23033,-20.12306 -1.98649,-12.26997 4.17974,-6.09997 11.41743,-9.85807 7.8381,-3.91026 11.91073,-5.36414 21.92402,-0.8327 7.80898,3.5339 9.94275,1.77084 7.83805,11.48706 -0.31696,1.46322 -0.8245,10.33219 -1.2045,19.69316 l -0.69091,17.01993 2.90056,0.66684 c 1.5953,0.36675 5.93201,1.55933 9.63714,2.65016 4.89018,1.43973 8.31626,1.82711 12.5,1.41336 35.72414,-3.53296 53.44979,-0.84632 58.99696,8.94206 L 415.9671,428.5 415.9835,526.25 416,624 H 312 208 Z m 107.40143,50.04053 c 10.99211,-4.5928 7.86174,-19.63838 -4.07451,-19.58339 -12.18201,0.0561 -15.90844,14.77086 -4.94862,19.54084 3.98647,1.73501 4.96151,1.73961 9.02313,0.0426 z M 319,523.16081 c 0,-10.91156 0.29631,-28.68656 0.65846,-39.5 L 320.31692,464 h -9.28186 -9.28187 l 0.73414,38.75 c 0.40377,21.3125 0.93586,39.0875 1.18242,39.5 0.24655,0.4125 3.79673,0.75 7.88927,0.75 H 319 Z M 378.14865,334.5 365.02846,330.75848 c -20.9609,-5.97748 -21.70775,-24.29434 -41.5783,-14.60244 -4.22859,2.0625 -9.97643,2.15378 -11.45362,2.15378 -1.47719,0 -9.57278,-1.84713 -14.042,-3.90963 -20.9793,-9.68173 -22.86156,4.20263 -42.36549,15.48836 L 245.89137,335.5 c -22.79333,-64.29442 150.50789,-62.38529 132.25728,-1 z M 208.42644,301.11513 c 2.29236,-24.14361 30.73888,-40.18015 52.9444,-29.84706 8.60957,4.00636 12.13229,3.67076 20.31595,-1.93547 21.02502,-14.40321 41.22663,-14.45336 60.17213,-0.14936 7.3739,5.56735 11.99617,6.07147 20.40268,2.22518 22.71918,-10.39486 50.71784,5.1654 53.24616,29.59158 l 0.56929,5.5 c -60.99374,-17.56255 -169.08656,-19.23717 -208.16188,0 z" />
      <path
         style="fill:#727272"
         d="M 2121,712.5 V 578 h 20.5 20.5 v 16 c 0,17.33167 0.2465,18.05509 4,11.7403 20.845,-35.06883 76.1983,-42.87614 106.9143,-15.07973 37.2206,33.68266 35.9077,117.55053 -2.425,154.91893 -30.0596,29.30335 -84.6196,25.93494 -104.4893,-6.45093 -1.375,-2.24113 -2.8375,-4.08688 -3.25,-4.10167 C 2162.3375,735.0121 2162,760.2 2162,791 v 56 h -20.5 -20.5 z m 104.2846,17.57696 c 33.8845,-13.1596 43.7464,-82.84067 15.7336,-111.16841 -25.2603,-25.54428 -69.6245,-9.18166 -77.5202,28.59145 -2.0691,9.89809 -2.0312,41.26104 0.061,50.45929 6.1463,27.02321 35.5067,42.30025 61.7257,32.11767 z M 1243,764.09947 c -41.8593,-9.26767 -66.9491,-40.34238 -68.7472,-85.14619 -1.9848,-49.45423 22.0449,-86.93504 64.2709,-100.24798 22.4806,-7.08767 56.2432,-6.09488 75.0078,2.20562 l 4.4685,1.97662 v 19.15443 19.15443 l -3.25,-2.17618 c -51.6465,-34.58229 -111.3235,9.64082 -96.3715,71.41517 9.7122,40.12578 57.9931,56.09878 93.415,30.90494 l 4.7065,-3.34747 0.2745,17.21844 c 0.3314,20.78545 1.0365,18.84815 -8.2691,22.72207 -18.6451,7.76196 -46.4681,10.38097 -65.5054,6.1661 z m 286.8492,0.39716 c -44.3499,-8.37778 -71.8239,-43.56016 -71.8405,-91.99663 -0.022,-63.51225 39.1194,-100.75498 103.2171,-98.21084 54.3208,2.15608 85.7346,36.67564 85.7346,94.21084 0,49.11711 -24.2648,83.03448 -67.7182,94.65656 -10.2597,2.74405 -37.9795,3.49611 -49.393,1.34007 z m 42.3187,-34.23849 c 25.0085,-9.04101 37.8079,-43.27845 30.3,-81.0503 -7.065,-35.54372 -40.8393,-52.5325 -73.0425,-36.74109 -38.367,18.81388 -38.8901,96.50266 -0.7754,115.15045 12.0472,5.89412 31.2891,7.06184 43.5179,2.64094 z M 1693.5,764.05789 c -9.6868,-1.72276 -23.9019,-6.05977 -25.6757,-7.83361 -0.4784,-0.47834 -0.747,-9.27903 -0.597,-19.55708 l 0.2727,-18.68736 5.4143,3.64729 c 25.7028,17.31448 69.7969,18.479 80.5116,2.12631 9.6701,-14.7584 0.338,-27.07074 -28.6007,-37.73463 -39.9202,-14.71058 -53.853,-27.07624 -56.8131,-50.42303 -4.6468,-36.65067 25.7886,-61.11417 75.9879,-61.07777 18.6852,0.0136 23.5377,0.61314 37.25,4.60276 l 6.75,1.96392 v 18.04099 c 0,9.92254 -0.3375,17.89099 -0.75,17.70765 -0.4125,-0.18333 -4.125,-2.02309 -8.25,-4.08835 -26.5929,-13.31424 -63.4369,-9.10127 -69.0463,7.89517 -4.6233,14.00884 3.247,22.78574 28.5463,31.83463 39.6349,14.17636 55.5249,28.01773 58.7779,51.2 6.0601,43.18654 -42.2894,71.31868 -103.7779,60.38311 z m 278.3492,0.43874 c -44.776,-8.45827 -71.8374,-43.49044 -71.8374,-92.99663 0,-62.50104 39.3313,-99.62331 102.9882,-97.20392 54.9848,2.08979 85.3907,35.6044 85.4658,94.20392 0.064,50.15314 -23.1744,82.87512 -67.2236,94.65656 -10.2597,2.74405 -37.9795,3.49611 -49.393,1.34007 z m 42.3187,-34.23849 c 22.1382,-8.00335 32.7081,-29.31543 31.5645,-63.64331 -1.2959,-38.89548 -18.5534,-59.53011 -49.8459,-59.60005 -29.9991,-0.067 -49.3274,19.51901 -52.7813,53.48522 -3.2493,31.95459 8.561,59.24673 29.4808,68.12635 11.6776,4.95666 30.3572,5.6897 41.5819,1.63179 z M 776,633 V 504 h 29.89301 c 22.98293,0 30.00779,0.28895 30.38953,1.25 28.03319,70.57458 72.25429,183.51838 74.29318,189.75 3.77124,11.52632 3.65163,11.53684 7.86463,-0.69168 3.33818,-9.68928 73.4364,-184.2918 75.7011,-188.55832 0.85138,-1.60392 3.30492,-1.75 29.39375,-1.75 H 1052 v 129 129 h -21 -21 v -87.96636 c 0,-76.944 0.7839,-116.23474 2.523,-126.46072 0.9295,-5.46547 -0.5185,-1.93526 -3.4919,8.51305 C 1007.401,561.81369 988.56201,610.375 967.16655,664 l -38.90082,97.5 -14.88287,0.25605 -14.88286,0.25606 -39.30146,-97.585 c -27.6058,-68.54483 -40.10451,-100.78172 -42,-108.32711 L 814.5,545.35788 814.79177,653.67894 815.08354,762 H 795.54177 776 Z m 324,37 v -92 h 21 21 v 92 92 h -21 -21 z m 248,0 v -92 h 20.5 20.5 v 18.5 c 0,18.74606 0.5458,21.51487 2.9073,14.75 4.717,-13.51214 15.9182,-26.63832 27.5927,-32.33454 7.9764,-3.89186 25.2727,-4.98817 32.25,-2.04414 l 3.25,1.37132 v 19.48567 c 0,18.18077 -0.1172,19.43475 -1.75,18.72531 -24.0748,-10.46021 -45.1155,-2.60196 -56.3522,21.04638 -6.8062,14.32411 -7.0695,16.87315 -7.6174,73.75 l -0.489,50.75 H 1368.3957 1348 Z m 479,-44 V 490 h 20.5 20.5 v 136 136 h -20.5 -20.5 z m -715.6447,-88.44658 c -13.285,-5.78053 -18.7526,-23.41312 -10.7783,-34.75919 15.3381,-21.82348 51.557,-7.3634 45.4385,18.14098 -3.2697,13.62976 -21.4715,22.35682 -34.6602,16.61821 z"
         id="path714" />
      <path
         style="fill:#7eb900"
         d="M 438.23565,525.25 438.5,426.5 l 2.40107,-3.36653 c 3.05934,-4.28949 9.20354,-7.08347 15.63883,-7.11151 16.71825,-0.0728 35.02139,-11.19274 42.00872,-25.52196 2.80564,-5.75364 2.94009,-6.66722 3.27461,-22.25 L 502.17208,352 H 542.08604 582 v 13.8185 c 0,30.94505 14.41284,47.28626 44.25702,50.17843 10.53556,1.02098 14.70569,3.22887 17.67203,9.3565 C 645.9801,429.59034 646,430.56541 646,526.81572 V 624 H 541.98565 437.9713 Z M 453.5,407.09715 C 441.725,401.9254 445.19509,384.5 458,384.5 c 14.61076,0 15.92363,21.52486 1.40662,23.06194 -2.14864,0.2275 -4.80662,0.0183 -5.90662,-0.46479 z M 640,402 c -3.58507,-3.58507 -1.01909,-10 4,-10 2.57556,0 6,3.42444 6,6 0,2.57556 -3.42444,6 -6,6 -1.1,0 -2.9,-0.9 -4,-2 z M 621.5,383.09715 C 609.725,377.9254 613.19509,360.5 626,360.5 c 14.61076,0 15.92363,21.52486 1.40662,23.06194 -2.14864,0.2275 -4.80662,0.0183 -5.90662,-0.46479 z"
         id="path712" />
      <path
         style="fill:#a72c08"
         d="m 276.23207,370.93952 c -11.09947,-2.18807 -21.217,-10.40888 -26.37442,-21.43002 l -2.91877,-6.23726 -5.79807,-0.52576 c -19.40575,-1.75965 -36.95179,-23.75662 -31.6594,-39.6905 6.90294,-20.78282 32.26392,-31.92042 51.88943,-22.78791 8.10019,3.76933 12.22638,3.59065 18.26997,-0.79114 21.28073,-15.42922 43.43765,-15.42922 64.71838,0 5.98042,4.33599 9.4594,4.49591 17.92094,0.82377 20.56022,-8.92273 44.74867,1.52366 52.15874,22.52605 5.5359,15.69039 -12.1877,38.16133 -31.47886,39.91059 l -5.69724,0.51661 -2.31516,5.62303 c -8.01878,19.47586 -31.7442,28.14044 -51.4411,18.78642 -9.3928,-4.46061 -12.97576,-4.57571 -20.98453,-0.67411 -9.35126,4.55563 -17.22072,5.73807 -26.28991,3.95023 z m -18.78076,-54.3403 c 11.57784,-11.25238 28.33189,-13.66044 44.17455,-6.34922 4.46922,2.0625 9.33448,3.75 10.81167,3.75 1.47719,0 6.14555,-1.6875 10.37414,-3.75 19.87055,-9.6919 42.05521,-2.34341 51.79416,17.1564 l 3.54282,7.0936 -0.51413,-5.86682 c -2.21137,-25.23448 -31.97299,-40.0095 -55.55363,-27.57934 -7.62636,4.02011 -11.92941,3.86931 -21.67667,-0.75964 -23.75453,-11.28098 -51.91074,4.09669 -54.03663,29.5124 l -0.47622,5.6934 3.47239,-7.20768 c 2.04126,-4.23707 5.37451,-9.05633 8.08755,-11.6931 z"
         id="path710" />
      <path
         id="path299"
         style="fill:#000000"
         d="m 574.8285,758.42298 c -6.39164,-1.96712 -12.29888,-8.6973 -13.89536,-15.83114 -4.79774,-21.43856 22.44865,-35.46167 36.93178,-19.00796 14.93915,16.97177 -1.29877,41.52916 -23.03642,34.8391 z m -70,-12 c -6.39164,-1.96712 -12.29888,-8.6973 -13.89536,-15.83114 -4.79774,-21.43856 22.44865,-35.46167 36.93178,-19.00796 14.93915,16.97177 -1.29877,41.52916 -23.03642,34.8391 z" />
    </g>
  </g>
</svg>
