<?xml version="1.0" encoding="UTF-8" standalone="no"?>
<!-- Created with Inkscape (http://www.inkscape.org/) -->

<svg
   version="1.1"
   id="svg680"
   width="7030.000000pt"
   height="4687.000000pt"
   viewBox="0 0 7030.000000 4687.000000"
   xmlns="http://www.w3.org/2000/svg"
   xmlns:svg="http://www.w3.org/2000/svg">
  <defs
     id="defs684" />
  <g
     id="g686"
     transform="matrix(1.3216263,0,0,1.3216263,1857.7025,1513.3974)">
    <g
       id="g706">
      <path
         style="fill:#fdb701"
         d="M 494.5,897.51841 C 479.2233,893.3938 468.02335,886.90964 451.9957,872.9107 444.53401,866.39348 440.722,865.02062 430,864.98913 c -24.21883,-0.0711 -27.71674,-23.82414 -5.29548,-35.95971 3.63945,-1.96987 8.0073,-5.29897 9.70633,-7.398 L 437.5,817.81499 437.76638,731.9075 438.03277,646 h 103.96705 103.96705 l 0.26657,84.83589 0.26656,84.8359 2.94978,4.25614 c 1.62238,2.34088 5.89738,6.31833 9.5,8.83878 14.5216,10.15956 18.22204,17.88312 12.98254,27.09714 -3.61254,6.35288 -6.21385,7.57152 -17.43232,8.16654 -11.85856,0.62896 -17.71115,2.92464 -27.43776,10.76243 -10.23005,8.24347 -21.0225,9.2509 -39.94047,3.72826 -14.58549,-4.25787 -19.6764,-3.58819 -30.59117,4.02412 -14.18036,9.88984 -18.75383,12.33796 -26.97947,14.44172 -9.31919,2.38345 -27.18829,2.6544 -35.05113,0.53149 z M 600.07743,766.36134 c 28.21498,-15.35652 15.60442,-58.60094 -16.33662,-56.02192 -31.6965,2.55927 -37.94421,45.88354 -8.31649,57.67007 7.24819,2.88349 17.59834,2.19154 24.65311,-1.64815 z m -78,-14 c 28.21498,-15.35652 15.60442,-58.60094 -16.33662,-56.02192 -31.6965,2.55927 -37.94421,45.88354 -8.31649,57.67007 7.24819,2.88349 17.59834,2.19154 24.65311,-1.64815 z m -52.92434,-343.07742 -4.26138,-3.53974 c -4.78341,-2.93814 -12.95407,-14.62825 -18.25828,-21.92629 -31.69168,-54.07776 -16.72941,-130.40776 31.2048,-159.19123 38.14647,-22.90614 95.17562,-22.0502 131.30835,1.97078 56.1,37.29522 60.63314,136.77423 8.22822,180.56712 l -6.77851,5.66455 c -15.0719,9.22031 -108.02837,12.6015 -137.18181,-0.005 l -4.26139,-3.53974 z"
         id="path720" />
      <path
         style="fill:#00a3ee"
         d="M 208,750 V 646 h 104 104 l -0.004,81.75 -0.004,81.75 -4.49999,1.8506 C 398.56217,816.66815 388,833.41048 388,848.58909 V 854 h -90 -90 z m 143,69.52029 c 0,-0.26385 -1.72155,-2.75428 -3.82568,-5.53431 -26.10337,-34.4885 -26.5971,-87.2753 -1.16537,-124.59401 L 351.04638,682 h -7.50857 -7.50856 l -4.51967,5.75 c -26.57842,33.81356 -26.82701,90.26149 -0.55269,125.5 l 5.03289,6.75 h 7.50511 C 347.6227,820 351,819.78413 351,819.52029 Z M 290.7219,794.32768 C 301.03787,789.43243 297.0066,775 285.32327,775 c -11.54033,0 -15.44719,14.16382 -5.30936,19.24845 4.34389,2.17867 6.25395,2.19281 10.70799,0.0792 z m 0.92501,-62.25402 c 6.56229,-4.00145 6.26623,-13.99874 -0.51847,-17.50724 -12.87368,-6.65724 -24.11765,9.98166 -11.81462,17.48335 4.03985,2.46327 8.31895,2.47156 12.33309,0.0239 z"
         id="path718" />
      <path
         style="fill:#f04f21"
         d="m 208,526.5651 c 0,-101.07171 -0.0119,-100.7751 4.23132,-105.30488 5.87793,-6.27484 28.46894,-9.07935 50.08763,-6.21801 10.24252,1.35565 10.86664,1.29837 25.07794,-2.30171 l 4.89689,-1.2405 -0.64865,-18 c -0.35676,-9.9 -0.98834,-18.93678 -1.23033,-20.12306 -1.98649,-12.26997 4.17974,-6.09997 11.41743,-9.85807 7.8381,-3.91026 11.91073,-5.36414 21.92402,-0.8327 7.80898,3.5339 9.94275,1.77084 7.83805,11.48706 -0.31696,1.46322 -0.8245,10.33219 -1.2045,19.69316 l -0.69091,17.01993 2.90056,0.66684 c 1.5953,0.36675 5.93201,1.55933 9.63714,2.65016 4.89018,1.43973 8.31626,1.82711 12.5,1.41336 35.72414,-3.53296 53.44979,-0.84632 58.99696,8.94206 L 415.9671,428.5 415.9835,526.25 416,624 H 312 208 Z m 107.40143,50.04053 c 10.99211,-4.5928 7.86174,-19.63838 -4.07451,-19.58339 -12.18201,0.0561 -15.90844,14.77086 -4.94862,19.54084 3.98647,1.73501 4.96151,1.73961 9.02313,0.0426 z M 319,523.16081 c 0,-10.91156 0.29631,-28.68656 0.65846,-39.5 L 320.31692,464 h -9.28186 -9.28187 l 0.73414,38.75 c 0.40377,21.3125 0.93586,39.0875 1.18242,39.5 0.24655,0.4125 3.79673,0.75 7.88927,0.75 H 319 Z M 480.46376,401.75 c -2.7831,-5.97789 -3.55206,-25.38554 -1.3032,-32.89156 2.33693,-7.8 13.4035,-16.81826 20.67548,-16.84867 l 2.33604,-0.01 -0.34885,16.25 c -0.33452,15.58278 -0.46897,16.49636 -3.27461,22.25 -2.82473,5.7928 -10.10128,16.93542 -15.54862,17.08291 -0.61095,0.0165 -1.19191,-2.94541 -2.53624,-5.83291 z m 114.05541,1.35949 c -10.25782,-9.39201 -12.80097,-17.28852 -12.80097,-36.95879 0,-15.41072 -4.58301,-15.15905 7.47496,-12.97468 9.5623,1.73227 12.31311,7.74408 14.74291,13.89701 4.9985,12.6576 1.84703,37.68054 -3.76426,40.64772 -0.52051,0.27524 -2.30059,-1.54214 -5.65264,-4.61126 z M 378.14865,334.5 365.02846,330.75848 c -20.9609,-5.97748 -21.70775,-24.29434 -41.5783,-14.60244 -4.22859,2.0625 -9.97643,2.15378 -11.45362,2.15378 -1.47719,0 -9.57278,-1.84713 -14.042,-3.90963 -20.9793,-9.68173 -22.86156,4.20263 -42.36549,15.48836 L 245.89137,335.5 c -22.79333,-64.29442 150.50789,-62.38529 132.25728,-1 z M 208.42644,301.11513 c 2.29236,-24.14361 30.73888,-40.18015 52.9444,-29.84706 8.60957,4.00636 12.13229,3.67076 20.31595,-1.93547 21.02502,-14.40321 41.22663,-14.45336 60.17213,-0.14936 7.3739,5.56735 11.99617,6.07147 20.40268,2.22518 22.71918,-10.39486 50.71784,5.1654 53.24616,29.59158 l 0.56929,5.5 c -60.99374,-17.56255 -169.08656,-19.23717 -208.16188,0 z"
         id="path716"
         class="UnoptimicedTransforms" />
      <path
         style="fill:#727272"
         d="M 2121,712.5 V 578 h 20.5 20.5 v 16 c 0,17.33167 0.2465,18.05509 4,11.7403 20.845,-35.06883 76.1983,-42.87614 106.9143,-15.07973 37.2206,33.68266 35.9077,117.55053 -2.425,154.91893 -30.0596,29.30335 -84.6196,25.93494 -104.4893,-6.45093 -1.375,-2.24113 -2.8375,-4.08688 -3.25,-4.10167 C 2162.3375,735.0121 2162,760.2 2162,791 v 56 h -20.5 -20.5 z m 104.2846,17.57696 c 33.8845,-13.1596 43.7464,-82.84067 15.7336,-111.16841 -25.2603,-25.54428 -69.6245,-9.18166 -77.5202,28.59145 -2.0691,9.89809 -2.0312,41.26104 0.061,50.45929 6.1463,27.02321 35.5067,42.30025 61.7257,32.11767 z M 1243,764.09947 c -41.8593,-9.26767 -66.9491,-40.34238 -68.7472,-85.14619 -1.9848,-49.45423 22.0449,-86.93504 64.2709,-100.24798 22.4806,-7.08767 56.2432,-6.09488 75.0078,2.20562 l 4.4685,1.97662 v 19.15443 19.15443 l -3.25,-2.17618 c -51.6465,-34.58229 -111.3235,9.64082 -96.3715,71.41517 9.7122,40.12578 57.9931,56.09878 93.415,30.90494 l 4.7065,-3.34747 0.2745,17.21844 c 0.3314,20.78545 1.0365,18.84815 -8.2691,22.72207 -18.6451,7.76196 -46.4681,10.38097 -65.5054,6.1661 z m 286.8492,0.39716 c -44.3499,-8.37778 -71.8239,-43.56016 -71.8405,-91.99663 -0.022,-63.51225 39.1194,-100.75498 103.2171,-98.21084 54.3208,2.15608 85.7346,36.67564 85.7346,94.21084 0,49.11711 -24.2648,83.03448 -67.7182,94.65656 -10.2597,2.74405 -37.9795,3.49611 -49.393,1.34007 z m 42.3187,-34.23849 c 25.0085,-9.04101 37.8079,-43.27845 30.3,-81.0503 -7.065,-35.54372 -40.8393,-52.5325 -73.0425,-36.74109 -38.367,18.81388 -38.8901,96.50266 -0.7754,115.15045 12.0472,5.89412 31.2891,7.06184 43.5179,2.64094 z M 1693.5,764.05789 c -9.6868,-1.72276 -23.9019,-6.05977 -25.6757,-7.83361 -0.4784,-0.47834 -0.747,-9.27903 -0.597,-19.55708 l 0.2727,-18.68736 5.4143,3.64729 c 25.7028,17.31448 69.7969,18.479 80.5116,2.12631 9.6701,-14.7584 0.338,-27.07074 -28.6007,-37.73463 -39.9202,-14.71058 -53.853,-27.07624 -56.8131,-50.42303 -4.6468,-36.65067 25.7886,-61.11417 75.9879,-61.07777 18.6852,0.0136 23.5377,0.61314 37.25,4.60276 l 6.75,1.96392 v 18.04099 c 0,9.92254 -0.3375,17.89099 -0.75,17.70765 -0.4125,-0.18333 -4.125,-2.02309 -8.25,-4.08835 -26.5929,-13.31424 -63.4369,-9.10127 -69.0463,7.89517 -4.6233,14.00884 3.247,22.78574 28.5463,31.83463 39.6349,14.17636 55.5249,28.01773 58.7779,51.2 6.0601,43.18654 -42.2894,71.31868 -103.7779,60.38311 z m 278.3492,0.43874 c -44.776,-8.45827 -71.8374,-43.49044 -71.8374,-92.99663 0,-62.50104 39.3313,-99.62331 102.9882,-97.20392 54.9848,2.08979 85.3907,35.6044 85.4658,94.20392 0.064,50.15314 -23.1744,82.87512 -67.2236,94.65656 -10.2597,2.74405 -37.9795,3.49611 -49.393,1.34007 z m 42.3187,-34.23849 c 22.1382,-8.00335 32.7081,-29.31543 31.5645,-63.64331 -1.2959,-38.89548 -18.5534,-59.53011 -49.8459,-59.60005 -29.9991,-0.067 -49.3274,19.51901 -52.7813,53.48522 -3.2493,31.95459 8.561,59.24673 29.4808,68.12635 11.6776,4.95666 30.3572,5.6897 41.5819,1.63179 z M 776,633 V 504 h 29.89301 c 22.98293,0 30.00779,0.28895 30.38953,1.25 28.03319,70.57458 72.25429,183.51838 74.29318,189.75 3.77124,11.52632 3.65163,11.53684 7.86463,-0.69168 3.33818,-9.68928 73.4364,-184.2918 75.7011,-188.55832 0.85138,-1.60392 3.30492,-1.75 29.39375,-1.75 H 1052 v 129 129 h -21 -21 v -87.96636 c 0,-76.944 0.7839,-116.23474 2.523,-126.46072 0.9295,-5.46547 -0.5185,-1.93526 -3.4919,8.51305 C 1007.401,561.81369 988.56201,610.375 967.16655,664 l -38.90082,97.5 -14.88287,0.25605 -14.88286,0.25606 -39.30146,-97.585 c -27.6058,-68.54483 -40.10451,-100.78172 -42,-108.32711 L 814.5,545.35788 814.79177,653.67894 815.08354,762 H 795.54177 776 Z m 324,37 v -92 h 21 21 v 92 92 h -21 -21 z m 248,0 v -92 h 20.5 20.5 v 18.5 c 0,18.74606 0.5458,21.51487 2.9073,14.75 4.717,-13.51214 15.9182,-26.63832 27.5927,-32.33454 7.9764,-3.89186 25.2727,-4.98817 32.25,-2.04414 l 3.25,1.37132 v 19.48567 c 0,18.18077 -0.1172,19.43475 -1.75,18.72531 -24.0748,-10.46021 -45.1155,-2.60196 -56.3522,21.04638 -6.8062,14.32411 -7.0695,16.87315 -7.6174,73.75 l -0.489,50.75 H 1368.3957 1348 Z m 479,-44 V 490 h 20.5 20.5 v 136 136 h -20.5 -20.5 z m -715.6447,-88.44658 c -13.285,-5.78053 -18.7526,-23.41312 -10.7783,-34.75919 15.3381,-21.82348 51.557,-7.3634 45.4385,18.14098 -3.2697,13.62976 -21.4715,22.35682 -34.6602,16.61821 z"
         id="path714" />
      <path
         style="fill:#7eb900"
         d="M 438.23565,525.25 438.5,426.5 l 2.40107,-3.36653 c 3.05934,-4.28949 9.20354,-7.08347 15.63883,-7.11151 16.71825,-0.0728 35.02139,-11.19274 42.00872,-25.52196 2.80564,-5.75364 2.94009,-6.66722 3.27461,-22.25 L 502.17208,352 H 542.08604 582 v 13.8185 c 0,30.94505 14.41284,47.28626 44.25702,50.17843 10.53556,1.02098 14.70569,3.22887 17.67203,9.3565 C 645.9801,429.59034 646,430.56541 646,526.81572 V 624 H 541.98565 437.9713 Z M 453.5,407.09715 C 441.725,401.9254 445.19509,384.5 458,384.5 c 14.61076,0 15.92363,21.52486 1.40662,23.06194 -2.14864,0.2275 -4.80662,0.0183 -5.90662,-0.46479 z M 640,402 c -3.58507,-3.58507 -1.01909,-10 4,-10 2.57556,0 6,3.42444 6,6 0,2.57556 -3.42444,6 -6,6 -1.1,0 -2.9,-0.9 -4,-2 z M 621.5,383.09715 C 609.725,377.9254 613.19509,360.5 626,360.5 c 14.61076,0 15.92363,21.52486 1.40662,23.06194 -2.14864,0.2275 -4.80662,0.0183 -5.90662,-0.46479 z"
         id="path712" />
      <path
         style="fill:#a72c08"
         d="m 276.23207,370.93952 c -11.09947,-2.18807 -21.217,-10.40888 -26.37442,-21.43002 l -2.91877,-6.23726 -5.79807,-0.52576 c -19.40575,-1.75965 -36.95179,-23.75662 -31.6594,-39.6905 6.90294,-20.78282 32.26392,-31.92042 51.88943,-22.78791 8.10019,3.76933 12.22638,3.59065 18.26997,-0.79114 21.28073,-15.42922 43.43765,-15.42922 64.71838,0 5.98042,4.33599 9.4594,4.49591 17.92094,0.82377 20.56022,-8.92273 44.74867,1.52366 52.15874,22.52605 5.5359,15.69039 -12.1877,38.16133 -31.47886,39.91059 l -5.69724,0.51661 -2.31516,5.62303 c -8.01878,19.47586 -31.7442,28.14044 -51.4411,18.78642 -9.3928,-4.46061 -12.97576,-4.57571 -20.98453,-0.67411 -9.35126,4.55563 -17.22072,5.73807 -26.28991,3.95023 z m -18.78076,-54.3403 c 11.57784,-11.25238 28.33189,-13.66044 44.17455,-6.34922 4.46922,2.0625 9.33448,3.75 10.81167,3.75 1.47719,0 6.14555,-1.6875 10.37414,-3.75 19.87055,-9.6919 42.05521,-2.34341 51.79416,17.1564 l 3.54282,7.0936 -0.51413,-5.86682 c -2.21137,-25.23448 -31.97299,-40.0095 -55.55363,-27.57934 -7.62636,4.02011 -11.92941,3.86931 -21.67667,-0.75964 -23.75453,-11.28098 -51.91074,4.09669 -54.03663,29.5124 l -0.47622,5.6934 3.47239,-7.20768 c 2.04126,-4.23707 5.37451,-9.05633 8.08755,-11.6931 z"
         id="path710" />
      <path
         style="fill:#000000"
         d="m 532,803.49562 c -19.11107,-4.32151 -38.08307,-21.80714 -33.67972,-31.04107 3.15682,-6.61991 9.55371,-5.90836 15.27432,1.69904 10.91059,14.50917 29.84845,18.86936 47.20626,10.86863 10.91851,-5.03267 18.52729,-2.34574 16.71559,5.90286 -1.96343,8.93948 -28.79898,16.3508 -45.51645,12.57054 z m 42.8285,-45.07264 c -6.39164,-1.96712 -12.29888,-8.6973 -13.89536,-15.83114 -4.79774,-21.43856 22.44865,-35.46167 36.93178,-19.00796 14.93915,16.97177 -1.29877,41.52916 -23.03642,34.8391 z m -70,-12 c -6.39164,-1.96712 -12.29888,-8.6973 -13.89536,-15.83114 -4.79774,-21.43856 22.44865,-35.46167 36.93178,-19.00796 14.93915,16.97177 -1.29877,41.52916 -23.03642,34.8391 z M 482.32118,334.81127 c -8.25581,-3.99136 -5.02446,-11.23721 7.99335,-17.924 l 10.10389,-5.19002 -10.17513,-5.05926 c -11.43662,-5.68648 -13.50665,-8.17375 -11.27882,-13.5522 2.819,-6.80568 5.23575,-6.43962 26.1202,3.95636 28.39692,14.13558 28.44544,16.1282 0.7303,29.99587 -18.27584,9.14459 -19.68969,9.61238 -23.49379,7.77325 z m 95.95784,-8.09125 c -27.65679,-13.91219 -27.66326,-15.96335 -0.094,-29.75804 18.93455,-9.47418 19.31489,-9.60258 23.20033,-7.83226 8.60313,3.91985 5.48051,11.2127 -7.69989,17.98301 l -10.10389,5.19002 10.17513,5.05926 c 13.146,6.53642 16.22085,13.5934 7.62865,17.50827 -3.66174,1.6684 -3.41261,1.75627 -23.10634,-8.15026 z"
         id="path708" />
    </g>
  </g>
</svg>
