<?xml version="1.0" encoding="UTF-8" standalone="no"?>
<!-- Created with Inkscape (http://www.inkscape.org/) -->

<svg
   version="1.1"
   id="svg680"
   width="7030.000000pt"
   height="4687.000000pt"
   viewBox="0 0 7030.000000 4687.000000"
   sodipodi:docname="microslop.svg"
   xml:space="preserve"
   inkscape:version="1.2.2 (b0a8486541, 2022-12-01)"
   xmlns:inkscape="http://www.inkscape.org/namespaces/inkscape"
   xmlns:sodipodi="http://sodipodi.sourceforge.net/DTD/sodipodi-0.dtd"
   xmlns="http://www.w3.org/2000/svg"
   xmlns:svg="http://www.w3.org/2000/svg"><sodipodi:namedview
     id="namedview13"
     pagecolor="#ffffff"
     bordercolor="#666666"
     borderopacity="1.0"
     inkscape:showpageshadow="2"
     inkscape:pageopacity="0.0"
     inkscape:pagecheckerboard="0"
     inkscape:deskcolor="#d1d1d1"
     inkscape:document-units="pt"
     showgrid="false"
     inkscape:zoom="0.11946877"
     inkscape:cx="4591.1578"
     inkscape:cy="3440.2295"
     inkscape:window-width="1920"
     inkscape:window-height="995"
     inkscape:window-x="0"
     inkscape:window-y="0"
     inkscape:window-maximized="1"
     inkscape:current-layer="svg680" /><defs
     id="defs684" /><g
     id="g686"
     transform="matrix(1.3216263,0,0,1.3216263,1857.7025,1513.3974)"
     style="display:inline"><g
       id="g706"><path
         id="path720"
         style="fill:#fdb701"
         d="m 544.24737,208.01458 c -23.54213,-0.35334 -47.33557,5.15912 -66.40877,16.61217 -47.93411,28.78341 -62.89651,105.11342 -31.20489,159.19108 5.30419,7.29802 13.47469,18.98863 18.25808,21.92677 l 4.26167,3.53901 v 10e-4 l 4.26055,3.53901 c 29.15338,12.60646 122.11042,9.22583 137.18228,0.006 l 6.77876,-5.66485 c 52.40482,-43.79281 47.87138,-143.27186 -8.2285,-180.567 -18.06633,-12.01047 -41.35703,-18.2295 -64.89918,-18.58284 z m 54.53597,80.26 c 0.8779,0.0889 1.63108,0.41308 2.60244,0.85566 8.60311,3.91985 5.48057,11.2118 -7.69981,17.98211 l -10.10385,5.19047 10.17479,5.05968 c 13.14598,6.53642 16.22105,13.59286 7.62887,17.50773 -3.66172,1.6684 -3.41349,1.75671 -23.10718,-8.1498 -27.65673,-13.91217 -27.66231,-15.96383 -0.0931,-29.75848 14.20089,-7.10563 17.96416,-8.954 20.59785,-8.68737 z m -114.77004,0.23609 c 3.41935,0.009 9.32364,2.68334 21.07112,8.53108 28.39686,14.13554 28.44549,16.12913 0.73041,29.99678 -18.2758,9.14457 -19.68992,9.61207 -23.494,7.77296 -8.25579,-3.99136 -5.02425,-11.2377 7.99352,-17.92447 l 10.10385,-5.18937 -10.17478,-5.05968 c -11.4366,-5.68648 -13.50655,-8.17353 -11.27872,-13.55198 1.23331,-2.97747 2.3891,-4.58262 5.0486,-4.57532 z M 502.17164,352 l -0.34803,16.24974 c -0.33452,15.58276 -0.46958,16.49678 -3.27522,22.25042 -2.82472,5.79279 -10.1008,16.93462 -15.54814,17.08211 -0.61094,0.0165 -1.19271,-2.94472 -2.53704,-5.83221 -2.7831,-5.97789 -3.55119,-25.38582 -1.30233,-32.89183 2.33693,-7.79999 13.40346,-16.81784 20.67543,-16.84825 z m 79.94522,0.11306 c 1.16563,-0.11386 3.30769,0.3803 7.0758,1.06292 9.56229,1.73227 12.31367,7.74375 14.74347,13.89667 4.99849,12.65759 1.84728,37.68099 -3.76401,40.64817 -0.52051,0.27524 -2.30061,-1.54168 -5.65266,-4.6108 -10.25781,-9.392 -12.80161,-17.28928 -12.80161,-36.95953 0,-10.59485 -2.16537,-13.78694 0.39901,-14.03743 z m -144.08406,293.88729 -0.26601,85.90712 -0.26712,85.90712 -3.08901,3.81721 c -1.69903,2.09903 -6.0665,5.42736 -9.70595,7.39723 -22.4212,12.13553 -18.92302,35.88868 5.29577,35.95978 10.72198,0.0315 14.53382,1.40426 21.99549,7.92148 16.02763,13.9989 27.22689,20.4833 42.50357,24.60791 7.86282,2.12291 25.73286,1.85254 35.05203,-0.53091 8.22562,-2.10376 12.79836,-4.55217 26.9787,-14.44199 10.91475,-7.61229 16.0065,-8.28234 30.59197,-4.02447 18.91793,5.52262 29.70989,4.51491 39.93992,-3.72854 9.72659,-7.83777 15.57902,-10.13326 27.43756,-10.76222 11.21845,-0.59502 13.81982,-1.81357 17.43236,-8.16643 5.23948,-9.214 1.5393,-16.93776 -12.98228,-27.0973 -3.6026,-2.52043 -7.87741,-6.49723 -9.49979,-8.83809 l -2.95047,-4.25612 -0.266,-84.83644 -0.26712,-84.83534 H 541.99961 Z m 70.64494,50.22887 c 29.75208,0.2063 40.73334,41.25542 13.40012,56.13201 -7.05475,3.83969 -17.40518,4.53163 -24.65335,1.64814 -29.62766,-11.78651 -23.38038,-55.11117 8.31606,-57.67042 0.99816,-0.0806 1.97742,-0.11639 2.93717,-0.10973 z m 78.00004,14.00086 c 29.75209,0.20631 40.73334,41.2543 13.40013,56.13091 -7.05475,3.83967 -17.40518,4.53162 -24.65335,1.64813 -29.62766,-11.78649 -23.38038,-55.11004 8.31606,-57.66931 0.99815,-0.0806 1.97743,-0.11639 2.93716,-0.10973 z M 503.996,767.9393 c 2.94878,-0.16215 6.38061,1.93544 9.59844,6.2146 10.91057,14.50913 29.84857,18.86933 47.20636,10.86862 10.91849,-5.03265 18.52694,-2.34654 16.71524,5.90204 -1.96343,8.93946 -28.79865,16.35133 -45.5161,12.57107 -19.11103,-4.32149 -38.08322,-21.80693 -33.67987,-31.04086 1.38111,-2.89619 3.38246,-4.38936 5.67593,-4.51547 z" /><path
         style="fill:#00a3ee"
         d="M 208,750 V 646 h 104 104 l -0.004,81.75 -0.004,81.75 -4.49999,1.8506 C 398.56217,816.66815 388,833.41048 388,848.58909 V 854 h -90 -90 z m 143,69.52029 c 0,-0.26385 -1.72155,-2.75428 -3.82568,-5.53431 -26.10337,-34.4885 -26.5971,-87.2753 -1.16537,-124.59401 L 351.04638,682 h -7.50857 -7.50856 l -4.51967,5.75 c -26.57842,33.81356 -26.82701,90.26149 -0.55269,125.5 l 5.03289,6.75 h 7.50511 C 347.6227,820 351,819.78413 351,819.52029 Z M 290.7219,794.32768 C 301.03787,789.43243 297.0066,775 285.32327,775 c -11.54033,0 -15.44719,14.16382 -5.30936,19.24845 4.34389,2.17867 6.25395,2.19281 10.70799,0.0792 z m 0.92501,-62.25402 c 6.56229,-4.00145 6.26623,-13.99874 -0.51847,-17.50724 -12.87368,-6.65724 -24.11765,9.98166 -11.81462,17.48335 4.03985,2.46327 8.31895,2.47156 12.33309,0.0239 z"
         id="path718" /><path
         id="path716"
         style="display:inline;fill:#f04f21"
         d="m 208,526.5651 c 0,-101.07171 -0.0119,-100.7751 4.23132,-105.30488 5.87793,-6.27484 28.46894,-9.07935 50.08763,-6.21801 10.24252,1.35565 10.86664,1.29837 25.07794,-2.30171 l 4.89689,-1.2405 -0.64865,-18 c -0.35676,-9.9 -0.98834,-18.93678 -1.23033,-20.12306 -1.98649,-12.26997 4.17974,-6.09997 11.41743,-9.85807 7.8381,-3.91026 11.91073,-5.36414 21.92402,-0.8327 7.80898,3.5339 9.94275,1.77084 7.83805,11.48706 -0.31696,1.46322 -0.8245,10.33219 -1.2045,19.69316 l -0.69091,17.01993 2.90056,0.66684 c 1.5953,0.36675 5.93201,1.55933 9.63714,2.65016 4.89018,1.43973 8.31626,1.82711 12.5,1.41336 35.72414,-3.53296 53.44979,-0.84632 58.99696,8.94206 L 415.9671,428.5 415.9835,526.25 416,624 H 312 208 Z m 107.40143,50.04053 c 10.99211,-4.5928 7.86174,-19.63838 -4.07451,-19.58339 -12.18201,0.0561 -15.90844,14.77086 -4.94862,19.54084 3.98647,1.73501 4.96151,1.73961 9.02313,0.0426 z M 319,523.16081 c 0,-10.91156 0.29631,-28.68656 0.65846,-39.5 L 320.31692,464 h -9.28186 -9.28187 l 0.73414,38.75 c 0.40377,21.3125 0.93586,39.0875 1.18242,39.5 0.24655,0.4125 3.79673,0.75 7.88927,0.75 H 319 Z M 378.14865,334.5 365.02846,330.75848 c -20.9609,-5.97748 -21.70775,-24.29434 -41.5783,-14.60244 -4.22859,2.0625 -9.97643,2.15378 -11.45362,2.15378 -1.47719,0 -9.57278,-1.84713 -14.042,-3.90963 -20.9793,-9.68173 -22.86156,4.20263 -42.36549,15.48836 L 245.89137,335.5 c -22.79333,-64.29442 150.50789,-62.38529 132.25728,-1 z M 208.42644,301.11513 c 2.29236,-24.14361 30.73888,-40.18015 52.9444,-29.84706 8.60957,4.00636 12.13229,3.67076 20.31595,-1.93547 21.02502,-14.40321 41.22663,-14.45336 60.17213,-0.14936 7.3739,5.56735 11.99617,6.07147 20.40268,2.22518 22.71918,-10.39486 50.71784,5.1654 53.24616,29.59158 l 0.56929,5.5 c -60.99374,-17.56255 -169.08656,-19.23717 -208.16188,0 z" /><path
         style="fill:#727272"
         d="M 2121,712.5 V 578 h 20.5 20.5 v 16 c 0,17.33167 0.2465,18.05509 4,11.7403 20.845,-35.06883 76.1983,-42.87614 106.9143,-15.07973 37.2206,33.68266 35.9077,117.55053 -2.425,154.91893 -30.0596,29.30335 -84.6196,25.93494 -104.4893,-6.45093 -1.375,-2.24113 -2.8375,-4.08688 -3.25,-4.10167 C 2162.3375,735.0121 2162,760.2 2162,791 v 56 h -20.5 -20.5 z m 104.2846,17.57696 c 33.8845,-13.1596 43.7464,-82.84067 15.7336,-111.16841 -25.2603,-25.54428 -69.6245,-9.18166 -77.5202,28.59145 -2.0691,9.89809 -2.0312,41.26104 0.061,50.45929 6.1463,27.02321 35.5067,42.30025 61.7257,32.11767 z M 1243,764.09947 c -41.8593,-9.26767 -66.9491,-40.34238 -68.7472,-85.14619 -1.9848,-49.45423 22.0449,-86.93504 64.2709,-100.24798 22.4806,-7.08767 56.2432,-6.09488 75.0078,2.20562 l 4.4685,1.97662 v 19.15443 19.15443 l -3.25,-2.17618 c -51.6465,-34.58229 -111.3235,9.64082 -96.3715,71.41517 9.7122,40.12578 57.9931,56.09878 93.415,30.90494 l 4.7065,-3.34747 0.2745,17.21844 c 0.3314,20.78545 1.0365,18.84815 -8.2691,22.72207 -18.6451,7.76196 -46.4681,10.38097 -65.5054,6.1661 z m 286.8492,0.39716 c -44.3499,-8.37778 -71.8239,-43.56016 -71.8405,-91.99663 -0.022,-63.51225 39.1194,-100.75498 103.2171,-98.21084 54.3208,2.15608 85.7346,36.67564 85.7346,94.21084 0,49.11711 -24.2648,83.03448 -67.7182,94.65656 -10.2597,2.74405 -37.9795,3.49611 -49.393,1.34007 z m 42.3187,-34.23849 c 25.0085,-9.04101 37.8079,-43.27845 30.3,-81.0503 -7.065,-35.54372 -40.8393,-52.5325 -73.0425,-36.74109 -38.367,18.81388 -38.8901,96.50266 -0.7754,115.15045 12.0472,5.89412 31.2891,7.06184 43.5179,2.64094 z M 1693.5,764.05789 c -9.6868,-1.72276 -23.9019,-6.05977 -25.6757,-7.83361 -0.4784,-0.47834 -0.747,-9.27903 -0.597,-19.55708 l 0.2727,-18.68736 5.4143,3.64729 c 25.7028,17.31448 69.7969,18.479 80.5116,2.12631 9.6701,-14.7584 0.338,-27.07074 -28.6007,-37.73463 -39.9202,-14.71058 -53.853,-27.07624 -56.8131,-50.42303 -4.6468,-36.65067 25.7886,-61.11417 75.9879,-61.07777 18.6852,0.0136 23.5377,0.61314 37.25,4.60276 l 6.75,1.96392 v 18.04099 c 0,9.92254 -0.3375,17.89099 -0.75,17.70765 -0.4125,-0.18333 -4.125,-2.02309 -8.25,-4.08835 -26.5929,-13.31424 -63.4369,-9.10127 -69.0463,7.89517 -4.6233,14.00884 3.247,22.78574 28.5463,31.83463 39.6349,14.17636 55.5249,28.01773 58.7779,51.2 6.0601,43.18654 -42.2894,71.31868 -103.7779,60.38311 z m 278.3492,0.43874 c -44.776,-8.45827 -71.8374,-43.49044 -71.8374,-92.99663 0,-62.50104 39.3313,-99.62331 102.9882,-97.20392 54.9848,2.08979 85.3907,35.6044 85.4658,94.20392 0.064,50.15314 -23.1744,82.87512 -67.2236,94.65656 -10.2597,2.74405 -37.9795,3.49611 -49.393,1.34007 z m 42.3187,-34.23849 c 22.1382,-8.00335 32.7081,-29.31543 31.5645,-63.64331 -1.2959,-38.89548 -18.5534,-59.53011 -49.8459,-59.60005 -29.9991,-0.067 -49.3274,19.51901 -52.7813,53.48522 -3.2493,31.95459 8.561,59.24673 29.4808,68.12635 11.6776,4.95666 30.3572,5.6897 41.5819,1.63179 z M 776,633 V 504 h 29.89301 c 22.98293,0 30.00779,0.28895 30.38953,1.25 28.03319,70.57458 72.25429,183.51838 74.29318,189.75 3.77124,11.52632 3.65163,11.53684 7.86463,-0.69168 3.33818,-9.68928 73.4364,-184.2918 75.7011,-188.55832 0.85138,-1.60392 3.30492,-1.75 29.39375,-1.75 H 1052 v 129 129 h -21 -21 v -87.96636 c 0,-76.944 0.7839,-116.23474 2.523,-126.46072 0.9295,-5.46547 -0.5185,-1.93526 -3.4919,8.51305 C 1007.401,561.81369 988.56201,610.375 967.16655,664 l -38.90082,97.5 -14.88287,0.25605 -14.88286,0.25606 -39.30146,-97.585 c -27.6058,-68.54483 -40.10451,-100.78172 -42,-108.32711 L 814.5,545.35788 814.79177,653.67894 815.08354,762 H 795.54177 776 Z m 324,37 v -92 h 21 21 v 92 92 h -21 -21 z m 248,0 v -92 h 20.5 20.5 v 18.5 c 0,18.74606 0.5458,21.51487 2.9073,14.75 4.717,-13.51214 15.9182,-26.63832 27.5927,-32.33454 7.9764,-3.89186 25.2727,-4.98817 32.25,-2.04414 l 3.25,1.37132 v 19.48567 c 0,18.18077 -0.1172,19.43475 -1.75,18.72531 -24.0748,-10.46021 -45.1155,-2.60196 -56.3522,21.04638 -6.8062,14.32411 -7.0695,16.87315 -7.6174,73.75 l -0.489,50.75 H 1368.3957 1348 Z m 479,-44 V 490 h 20.5 20.5 v 136 136 h -20.5 -20.5 z m -715.6447,-88.44658 c -13.285,-5.78053 -18.7526,-23.41312 -10.7783,-34.75919 15.3381,-21.82348 51.557,-7.3634 45.4385,18.14098 -3.2697,13.62976 -21.4715,22.35682 -34.6602,16.61821 z"
         id="path714" /><path
         style="fill:#7eb900"
         d="M 438.23565,525.25 438.5,426.5 l 2.40107,-3.36653 c 3.05934,-4.28949 9.20354,-7.08347 15.63883,-7.11151 16.71825,-0.0728 35.02139,-11.19274 42.00872,-25.52196 2.80564,-5.75364 2.94009,-6.66722 3.27461,-22.25 L 502.17208,352 H 542.08604 582 v 13.8185 c 0,30.94505 14.41284,47.28626 44.25702,50.17843 10.53556,1.02098 14.70569,3.22887 17.67203,9.3565 C 645.9801,429.59034 646,430.56541 646,526.81572 V 624 H 541.98565 437.9713 Z M 453.5,407.09715 C 441.725,401.9254 445.19509,384.5 458,384.5 c 14.61076,0 15.92363,21.52486 1.40662,23.06194 -2.14864,0.2275 -4.80662,0.0183 -5.90662,-0.46479 z M 640,402 c -3.58507,-3.58507 -1.01909,-10 4,-10 2.57556,0 6,3.42444 6,6 0,2.57556 -3.42444,6 -6,6 -1.1,0 -2.9,-0.9 -4,-2 z M 621.5,383.09715 C 609.725,377.9254 613.19509,360.5 626,360.5 c 14.61076,0 15.92363,21.52486 1.40662,23.06194 -2.14864,0.2275 -4.80662,0.0183 -5.90662,-0.46479 z"
         id="path712" /><path
         style="fill:#a72c08"
         d="m 276.23207,370.93952 c -11.09947,-2.18807 -21.217,-10.40888 -26.37442,-21.43002 l -2.91877,-6.23726 -5.79807,-0.52576 c -19.40575,-1.75965 -36.95179,-23.75662 -31.6594,-39.6905 6.90294,-20.78282 32.26392,-31.92042 51.88943,-22.78791 8.10019,3.76933 12.22638,3.59065 18.26997,-0.79114 21.28073,-15.42922 43.43765,-15.42922 64.71838,0 5.98042,4.33599 9.4594,4.49591 17.92094,0.82377 20.56022,-8.92273 44.74867,1.52366 52.15874,22.52605 5.5359,15.69039 -12.1877,38.16133 -31.47886,39.91059 l -5.69724,0.51661 -2.31516,5.62303 c -8.01878,19.47586 -31.7442,28.14044 -51.4411,18.78642 -9.3928,-4.46061 -12.97576,-4.57571 -20.98453,-0.67411 -9.35126,4.55563 -17.22072,5.73807 -26.28991,3.95023 z m -18.78076,-54.3403 c 11.57784,-11.25238 28.33189,-13.66044 44.17455,-6.34922 4.46922,2.0625 9.33448,3.75 10.81167,3.75 1.47719,0 6.14555,-1.6875 10.37414,-3.75 19.87055,-9.6919 42.05521,-2.34341 51.79416,17.1564 l 3.54282,7.0936 -0.51413,-5.86682 c -2.21137,-25.23448 -31.97299,-40.0095 -55.55363,-27.57934 -7.62636,4.02011 -11.92941,3.86931 -21.67667,-0.75964 -23.75453,-11.28098 -51.91074,4.09669 -54.03663,29.5124 l -0.47622,5.6934 3.47239,-7.20768 c 2.04126,-4.23707 5.37451,-9.05633 8.08755,-11.6931 z"
         id="path710" /><path
         id="path299"
         style="fill:#000000"
         d="m 574.8285,758.42298 c -6.39164,-1.96712 -12.29888,-8.6973 -13.89536,-15.83114 -4.79774,-21.43856 22.44865,-35.46167 36.93178,-19.00796 14.93915,16.97177 -1.29877,41.52916 -23.03642,34.8391 z m -70,-12 c -6.39164,-1.96712 -12.29888,-8.6973 -13.89536,-15.83114 -4.79774,-21.43856 22.44865,-35.46167 36.93178,-19.00796 14.93915,16.97177 -1.29877,41.52916 -23.03642,34.8391 z" /><path
         style="fill:#f8c90e;stroke-width:0.998974"
         d="m 497.25503,888.06203 c -7.24229,-1.57057 -18.69499,-6.72255 -25.78959,-11.60139 -2.61299,-1.79695 -8.67423,-6.78399 -13.46939,-11.08225 -10.68834,-9.58085 -13.80541,-11.00909 -24.46977,-11.2121 -8.98847,-0.17108 -12.26497,-1.7884 -12.26497,-6.05428 0,-4.46488 3.15604,-6.76038 9.97249,-7.25349 12.91008,-0.93377 23.31484,3.23389 34.9732,14.00873 14.85594,13.73012 26.78798,19.89949 41.23821,21.32198 13.00859,1.28055 23.45231,-2.09514 37.18902,-12.02057 4.39542,-3.17593 10.01464,-6.65899 12.48712,-7.74 7.02301,-3.07077 17.67663,-3.36608 29.4696,-0.81695 20.64653,4.46291 21.47725,4.34964 35.94564,-4.90154 12.91499,-8.25786 20.10931,-10.59142 30.1648,-9.78431 5.34463,0.42902 7.1064,0.99688 8.52397,2.74753 2.37684,2.93524 2.25903,6.50804 -0.29895,9.06602 -1.8083,1.80831 -2.83832,2.00117 -7.74198,1.44943 -7.7702,-0.87415 -13.40106,1.045 -24.48241,8.34442 -5.02979,3.31319 -11.11207,6.71581 -13.51623,7.56136 -6.23837,2.19404 -14.87674,1.90667 -28.61701,-0.95216 -6.58098,-1.36922 -13.42165,-2.49306 -15.20135,-2.49745 -5.21047,-0.0129 -12.94488,3.48207 -20.59977,9.308 -9.01298,6.85965 -13.87071,9.29794 -23.3566,11.72404 -8.87936,2.27099 -20.7601,2.42262 -30.15603,0.38498 z"
         id="path385"
         sodipodi:nodetypes="sssssssssssssssssssssss" /></g></g></svg>
