<?xml version="1.0" encoding="UTF-8" standalone="no"?>
<svg
   version="1.0"
   width="7030.000000pt"
   height="4687.000000pt"
   viewBox="0 0 7030.000000 4687.000000"
   preserveAspectRatio="xMidYMid meet"
   id="svg4846"
   sodipodi:docname="mint.svg"
   inkscape:version="1.2.2 (b0a8486541, 2022-12-01)"
   xmlns:inkscape="http://www.inkscape.org/namespaces/inkscape"
   xmlns:sodipodi="http://sodipodi.sourceforge.net/DTD/sodipodi-0.dtd"
   xmlns="http://www.w3.org/2000/svg"
   xmlns:svg="http://www.w3.org/2000/svg">
  <defs
     id="defs4850" />
  <sodipodi:namedview
     id="namedview4848"
     pagecolor="#ffffff"
     bordercolor="#666666"
     borderopacity="1.0"
     inkscape:showpageshadow="2"
     inkscape:pageopacity="0.0"
     inkscape:pagecheckerboard="0"
     inkscape:deskcolor="#d1d1d1"
     inkscape:document-units="pt"
     showgrid="false"
     inkscape:zoom="0.070679232"
     inkscape:cx="4011.0792"
     inkscape:cy="2263.7484"
     inkscape:window-width="1908"
     inkscape:window-height="999"
     inkscape:window-x="3840"
     inkscape:window-y="0"
     inkscape:window-maximized="1"
     inkscape:current-layer="svg4846" />
  <metadata
     id="metadata4838">
Created by potrace 1.16, written by Peter Selinger 2001-2019
</metadata>
  <g
     id="g5367"
     transform="matrix(6.4183233,0,0,6.4183233,-28767.665,-19655.024)">
    <path
       id="path32"
       style="display:inline;fill:#69b53f;fill-opacity:1;stroke:#ffffff;stroke-width:0;stroke-miterlimit:4;stroke-dasharray:none;stroke-opacity:1"
       d="m 5029.7666,3338.9561 a 88.5,88.5 0 0 0 -88.5,88.5 88.5,88.5 0 0 0 88.5,88.5 88.5,88.5 0 0 0 88.5,-88.5 88.5,88.5 0 0 0 -88.5,-88.5 z m -52.5,39.75 h 15 v 67.5 c 0,8.373 6.6269,15 15,15 h 45 c 8.3731,0 15,-6.627 15,-15 v -37.5 c 0,-4.231 -3.269,-7.5 -7.5,-7.5 -4.231,0 -7.5,3.269 -7.5,7.5 v 37.5 h -15 v -37.5 c 0,-4.231 -3.269,-7.5 -7.5,-7.5 -4.231,0 -7.5,3.269 -7.5,7.5 v 37.5 h -15 v -37.5 c 0,-12.3376 10.1624,-22.5 22.5,-22.5 5.7637,0 11.0001,2.2788 15,5.9003 3.9999,-3.6215 9.2363,-5.9003 15,-5.9003 12.3376,0 22.5,10.1624 22.5,22.5 v 37.5 c 0,16.4796 -13.5203,30 -30,30 h -45 c -16.4797,0 -30,-13.5204 -30,-30 z" />
    <circle
       style="display:inline;fill:none;fill-opacity:1;stroke:#ffffff;stroke-width:15;stroke-miterlimit:4;stroke-dasharray:none;stroke-opacity:1"
       id="path32-3"
       cx="5029.7661"
       cy="3427.4565"
       r="88.5" />
  </g>
</svg>
