<?xml version="1.0" encoding="UTF-8" standalone="no"?>
<svg
   version="1.0"
   width="7030.000000pt"
   height="4687.000000pt"
   viewBox="0 0 7030.000000 4687.000000"
   preserveAspectRatio="xMidYMid meet"
   id="svg4846"
   sodipodi:docname="mint_text.svg"
   inkscape:version="1.2.2 (b0a8486541, 2022-12-01)"
   xmlns:inkscape="http://www.inkscape.org/namespaces/inkscape"
   xmlns:sodipodi="http://sodipodi.sourceforge.net/DTD/sodipodi-0.dtd"
   xmlns="http://www.w3.org/2000/svg"
   xmlns:svg="http://www.w3.org/2000/svg">
  <defs
     id="defs4850" />
  <sodipodi:namedview
     id="namedview4848"
     pagecolor="#ffffff"
     bordercolor="#666666"
     borderopacity="1.0"
     inkscape:showpageshadow="2"
     inkscape:pageopacity="0.0"
     inkscape:pagecheckerboard="0"
     inkscape:deskcolor="#d1d1d1"
     inkscape:document-units="pt"
     showgrid="false"
     inkscape:zoom="0.070679232"
     inkscape:cx="4322.3447"
     inkscape:cy="4895.356"
     inkscape:window-width="1908"
     inkscape:window-height="999"
     inkscape:window-x="3840"
     inkscape:window-y="0"
     inkscape:window-maximized="1"
     inkscape:current-layer="svg4846" />
  <metadata
     id="metadata4838">
Created by potrace 1.16, written by Peter Selinger 2001-2019
</metadata>
  <g
     id="g6112"
     transform="matrix(2.9095783,0,0,2.9095783,-6717.0505,-4471.9003)">
    <g
       id="g5494"
       transform="translate(-591.58111,-235.0509)">
      <g
         id="g923"
         style="fill:#ffffff;stroke:#ffffff;stroke-opacity:1"
         transform="matrix(0.75,0,0,0.75,3709.4848,2482.5509)">
        <path
           d="m 324.81389,193.72028 q -16.05337,-0.37334 -22.77338,-6.90668 -6.72001,-6.53335 -6.72001,-20.34671 V 49.986682 l 17.36003,-2.986673 V 163.66689 q 0,4.29334 0.74667,7.09335 0.74667,2.8 2.42667,4.48 1.68,1.68001 4.48001,2.61334 2.8,0.74667 6.90668,1.30667 z"
           style="fill:#ffffff;fill-opacity:1;stroke:#ffffff;stroke-width:2.641;stroke-opacity:1"
           id="path868" />
        <path
           d="M 362.01373,191.85361 H 344.6537 V 94.786763 h 17.36003 z M 353.24038,77.240065 q -4.66667,0 -8.02668,-2.986673 -3.17334,-3.173339 -3.17334,-8.400015 0,-5.226676 3.17334,-8.213348 3.36001,-3.173339 8.02668,-3.173339 4.66668,0 7.84002,3.173339 3.36,2.986672 3.36,8.213348 0,5.226676 -3.36,8.400015 -3.17334,2.986673 -7.84002,2.986673 z"
           style="fill:#ffffff;fill-opacity:1;stroke:#ffffff;stroke-width:2.641;stroke-opacity:1"
           id="path870" />
        <path
           d="m 389.88014,97.586768 q 5.97335,-1.493336 15.8667,-3.173339 9.89335,-1.680003 22.77337,-1.680003 11.57336,0 19.2267,3.360006 7.65335,3.173339 12.13336,9.146688 4.66668,5.78667 6.53335,14.00002 1.86667,8.21335 1.86667,18.1067 v 54.50677 h -17.36004 v -50.77343 q 0,-8.96002 -1.30667,-15.30669 -1.12,-6.34668 -3.92,-10.26669 -2.80001,-3.92001 -7.46668,-5.60001 -4.66668,-1.86667 -11.57336,-1.86667 -2.8,0 -5.78667,0.18667 -2.98668,0.18666 -5.78668,0.56 -2.61334,0.18667 -4.85334,0.56 -2.05334,0.37333 -2.98668,0.56 v 81.94682 h -17.36003 z"
           style="fill:#ffffff;fill-opacity:1;stroke:#ffffff;stroke-width:2.641;stroke-opacity:1"
           id="path872" />
        <path
           d="m 571.30704,189.0536 q -5.97334,1.49334 -15.86669,3.17334 -9.70669,1.68 -22.58671,1.68 -11.20002,0 -18.85337,-3.17333 -7.65335,-3.36001 -12.32002,-9.33336 -4.66668,-5.97334 -6.72001,-14.00002 -2.05334,-8.21335 -2.05334,-18.1067 V 94.786763 h 17.36003 v 50.773427 q 0,17.73337 5.60001,25.38671 5.60001,7.65335 18.85337,7.65335 2.8,0 5.78668,-0.18667 2.98667,-0.18666 5.60001,-0.37333 2.61333,-0.37334 4.66667,-0.56 2.24001,-0.37334 3.17334,-0.74667 V 94.786763 h 17.36003 z"
           style="fill:#ffffff;fill-opacity:1;stroke:#ffffff;stroke-width:2.641;stroke-opacity:1"
           id="path874" />
        <path
           d="m 656.7271,191.85361 q -2.05334,-4.10668 -5.04001,-9.14669 -2.98667,-5.04001 -6.53334,-10.26668 -3.54668,-5.41334 -7.28002,-10.64002 -3.73334,-5.22668 -7.28001,-9.89335 -3.54667,4.66667 -7.28001,10.08002 -3.73334,5.22667 -7.28002,10.64002 -3.36,5.22667 -6.34668,10.26668 -2.98667,5.04001 -5.04001,8.96002 h -17.92003 q 6.53335,-12.69336 15.49336,-25.76005 9.14669,-13.25336 18.1067,-25.20005 L 588.22031,94.786763 h 19.60003 l 23.14671,33.973397 23.33338,-33.973397 h 18.48003 l -31.36005,44.986747 q 8.96001,12.13336 18.29336,25.76005 9.52002,13.44002 16.05336,26.32005 z"
           style="fill:#ffffff;fill-opacity:1;stroke:#ffffff;stroke-width:2.641;stroke-opacity:1"
           id="path876" />
        <path
           d="m 692.06044,97.586768 q 5.97334,-1.493336 15.68003,-3.173339 9.89335,-1.680003 22.77337,-1.680003 9.33335,0 15.68003,2.613338 6.34668,2.426671 10.64002,7.280016 1.30667,-0.93334 4.10668,-2.61334 2.8,-1.680004 6.90668,-3.17334 4.10667,-1.680003 9.14668,-2.800005 5.04001,-1.306669 10.82669,-1.306669 11.20002,0 18.29336,3.360006 7.09335,3.173339 11.01336,9.146688 4.10667,5.97334 5.41334,14.18669 1.49333,8.21335 1.49333,17.92003 v 54.50677 h -17.36003 v -50.77343 q 0,-8.58668 -0.93333,-14.74669 -0.74667,-6.16001 -3.17334,-10.26669 -2.24001,-4.10667 -6.34668,-5.97334 -3.92001,-2.05334 -10.26669,-2.05334 -8.77334,0 -14.56002,2.42667 -5.60001,2.24001 -7.65335,4.10668 1.49334,4.85334 2.24001,10.64002 0.74666,5.78667 0.74666,12.13335 v 54.50677 h -17.36003 v -50.77343 q 0,-8.58668 -0.93333,-14.74669 -0.93334,-6.16001 -3.36001,-10.26669 -2.24,-4.10667 -6.34668,-5.97334 -3.92001,-2.05334 -10.08002,-2.05334 -2.61333,0 -5.60001,0.18667 -2.98667,0.18666 -5.78667,0.56 -2.61334,0.18667 -4.85335,0.56 -2.24,0.37333 -2.98667,0.56 v 81.94682 h -17.36003 z"
           style="fill:#ffffff;fill-opacity:1;stroke:#ffffff;stroke-width:2.641;stroke-opacity:1"
           id="path878" />
        <path
           d="M 868.14041,191.85361 H 850.78038 V 94.786763 h 17.36003 z M 859.36706,77.240065 q -4.66667,0 -8.02668,-2.986673 -3.17334,-3.173339 -3.17334,-8.400015 0,-5.226676 3.17334,-8.213348 3.36001,-3.173339 8.02668,-3.173339 4.66668,0 7.84002,3.173339 3.36,2.986672 3.36,8.213348 0,5.226676 -3.36,8.400015 -3.17334,2.986673 -7.84002,2.986673 z"
           style="fill:#ffffff;fill-opacity:1;stroke:#ffffff;stroke-width:2.641;stroke-opacity:1"
           id="path880" />
        <path
           d="m 896.00682,97.586768 q 5.97335,-1.493336 15.8667,-3.173339 9.89335,-1.680003 22.77337,-1.680003 11.57336,0 19.2267,3.360006 7.65335,3.173339 12.13336,9.146688 4.66667,5.78667 6.53334,14.00002 1.86667,8.21335 1.86667,18.1067 v 54.50677 h -17.36003 v -50.77343 q 0,-8.96002 -1.30667,-15.30669 -1.12,-6.34668 -3.92,-10.26669 -2.80001,-3.92001 -7.46668,-5.60001 -4.66668,-1.86667 -11.57336,-1.86667 -2.8,0 -5.78668,0.18667 -2.98667,0.18666 -5.78667,0.56 -2.61334,0.18667 -4.85335,0.56 -2.05333,0.37333 -2.98667,0.56 v 81.94682 h -17.36003 z"
           style="fill:#ffffff;fill-opacity:1;stroke:#ffffff;stroke-width:2.641;stroke-opacity:1"
           id="path882" />
        <path
           d="m 1016.8936,94.786763 h 36.7734 v 14.560027 h -36.7734 v 44.80008 q 0,7.28001 1.12,12.13336 1.12,4.66667 3.36,7.46668 2.24,2.61334 5.6,3.73334 3.36,1.12 7.84,1.12 7.84,0 12.5067,-1.68 4.8533,-1.86667 6.72,-2.61334 l 3.36,14.37336 q -2.6133,1.30667 -9.1467,3.17334 -6.5333,2.05333 -14.9333,2.05333 -9.8934,0 -16.4267,-2.42667 -6.3467,-2.61333 -10.2667,-7.65334 -3.92,-5.04001 -5.6,-12.32003 -1.49335,-7.46668 -1.49335,-17.17336 V 67.720047 l 17.36005,-2.986672 z"
           style="fill:#ffffff;fill-opacity:1;stroke:#ffffff;stroke-width:2.641;stroke-opacity:1"
           id="path884" />
      </g>
    </g>
    <g
       id="g5367"
       transform="matrix(0.95940965,0,0,0.95940965,-1610.4852,-946.50881)">
      <path
         id="path32-6"
         style="display:inline;fill:#69b53f;fill-opacity:1;stroke:#ffffff;stroke-width:0;stroke-miterlimit:4;stroke-dasharray:none;stroke-opacity:1"
         d="m 5029.7666,3338.9561 a 88.5,88.5 0 0 0 -88.5,88.5 88.5,88.5 0 0 0 88.5,88.5 88.5,88.5 0 0 0 88.5,-88.5 88.5,88.5 0 0 0 -88.5,-88.5 z m -52.5,39.75 h 15 v 67.5 c 0,8.373 6.6269,15 15,15 h 45 c 8.3731,0 15,-6.627 15,-15 v -37.5 c 0,-4.231 -3.269,-7.5 -7.5,-7.5 -4.231,0 -7.5,3.269 -7.5,7.5 v 37.5 h -15 v -37.5 c 0,-4.231 -3.269,-7.5 -7.5,-7.5 -4.231,0 -7.5,3.269 -7.5,7.5 v 37.5 h -15 v -37.5 c 0,-12.3376 10.1624,-22.5 22.5,-22.5 5.7637,0 11.0001,2.2788 15,5.9003 3.9999,-3.6215 9.2363,-5.9003 15,-5.9003 12.3376,0 22.5,10.1624 22.5,22.5 v 37.5 c 0,16.4796 -13.5203,30 -30,30 h -45 c -16.4797,0 -30,-13.5204 -30,-30 z" />
      <circle
         style="display:inline;fill:none;fill-opacity:1;stroke:#ffffff;stroke-width:15;stroke-miterlimit:4;stroke-dasharray:none;stroke-opacity:1"
         id="path32-3"
         cx="5029.7661"
         cy="3427.4565"
         r="88.5" />
    </g>
  </g>
</svg>
