<?xml version="1.0" standalone="no"?>
<!DOCTYPE svg PUBLIC "-//W3C//DTD SVG 20010904//EN"
 "http://www.w3.org/TR/2001/REC-SVG-20010904/DTD/svg10.dtd">
<svg version="1.0" xmlns="http://www.w3.org/2000/svg"
 width="7030.000000pt" height="4687.000000pt" viewBox="0 0 7030.000000 4687.000000"
 preserveAspectRatio="xMidYMid meet">
<metadata>
Created by potrace 1.16, written by Peter Selinger 2001-2019
</metadata>
<g transform="translate(0.000000,4687.000000) scale(0.100000,-0.100000)"
fill="#000000" stroke="none">
<path d="M28068 29358 c-17 -17 -18 -102 -18 -1831 0 -1624 2 -1815 16 -1835
l15 -22 725 0 c711 0 724 0 744 -20 12 -12 20 -33 20 -52 0 -18 1 -861 3
-1873 3 -1635 5 -1857 19 -1990 10 -82 22 -205 28 -272 5 -67 21 -168 34 -225
14 -57 28 -128 31 -158 4 -30 14 -71 22 -90 8 -19 23 -72 34 -118 10 -46 28
-100 38 -120 11 -21 24 -63 29 -93 6 -31 20 -71 31 -90 10 -19 25 -54 31 -79
7 -25 20 -56 30 -70 9 -14 23 -43 30 -65 20 -61 91 -204 189 -376 14 -26 38
-69 52 -95 15 -27 36 -58 48 -68 12 -11 21 -25 21 -32 0 -7 11 -25 24 -41 13
-15 30 -41 39 -58 8 -16 23 -40 34 -52 10 -12 34 -42 53 -68 19 -25 49 -63 65
-84 17 -22 46 -60 65 -86 45 -61 540 -558 588 -591 20 -13 53 -37 73 -52 20
-15 54 -40 75 -56 21 -17 44 -35 49 -41 6 -7 30 -25 54 -41 24 -16 60 -40 81
-54 55 -37 99 -65 153 -97 27 -15 61 -38 75 -49 15 -12 48 -31 74 -44 26 -12
52 -28 59 -36 6 -8 17 -14 23 -14 10 0 183 -84 241 -117 49 -28 172 -83 185
-83 8 0 35 -11 60 -24 25 -13 65 -29 90 -36 25 -6 59 -20 75 -30 17 -10 57
-23 90 -30 33 -7 77 -21 97 -31 21 -11 69 -26 108 -34 38 -8 87 -22 107 -30
20 -9 73 -22 118 -30 45 -8 117 -23 161 -34 43 -11 120 -25 169 -31 50 -6 146
-20 215 -32 l125 -22 3662 -3 c3660 -3 3663 -3 3683 17 20 20 20 25 20 3691 0
3129 -2 3694 -15 3832 -8 89 -19 223 -24 297 -6 74 -18 160 -26 190 -8 30 -22
101 -30 158 -8 56 -24 125 -35 152 -11 28 -25 83 -31 123 -6 39 -21 92 -34
117 -12 25 -26 63 -29 84 -4 22 -18 60 -30 85 -13 26 -28 68 -35 95 -7 27 -20
61 -30 75 -9 14 -25 47 -35 73 -9 25 -24 52 -32 58 -7 7 -14 18 -14 24 0 10
-66 153 -95 206 -8 14 -25 48 -38 75 -26 55 -120 202 -161 251 -14 18 -26 37
-26 43 0 5 -13 25 -29 43 -15 18 -34 44 -41 58 -7 14 -37 54 -67 90 -29 36
-83 101 -119 145 -120 146 -393 414 -562 553 -19 15 -46 38 -62 52 -15 14 -47
40 -71 58 -24 18 -64 48 -89 67 -25 19 -49 35 -54 35 -4 0 -22 12 -40 26 -49
41 -98 72 -143 94 -23 11 -45 25 -48 30 -4 6 -27 22 -53 36 -26 14 -74 41
-107 59 -57 32 -303 156 -430 216 -33 16 -73 31 -90 35 -16 3 -49 17 -72 30
-23 13 -65 29 -95 35 -29 6 -70 20 -90 30 -21 11 -61 24 -90 30 -29 6 -78 22
-108 34 -30 13 -80 26 -110 30 -30 4 -81 18 -115 30 -33 13 -91 26 -130 30
-38 3 -115 17 -170 30 -135 32 -418 54 -820 65 -181 5 -1765 14 -3520 19
-1754 6 -3575 12 -4045 14 -810 3 -855 2 -872 -15z m6147 -988 c2631 -8 2640
-8 2750 -29 61 -12 154 -26 208 -32 54 -5 120 -18 147 -29 26 -10 86 -26 133
-34 46 -8 101 -22 122 -30 21 -9 66 -23 100 -31 34 -8 78 -23 96 -33 19 -11
56 -25 83 -31 27 -7 68 -23 91 -37 23 -13 48 -24 56 -24 8 0 41 -13 74 -30 33
-16 76 -36 95 -45 19 -9 67 -33 105 -55 39 -22 89 -48 111 -59 23 -11 45 -25
49 -31 4 -6 26 -20 49 -31 45 -21 86 -48 146 -94 21 -16 61 -46 90 -65 208
-141 589 -528 740 -751 19 -28 47 -65 61 -83 15 -17 34 -47 43 -66 9 -19 34
-64 56 -100 22 -36 49 -83 60 -105 11 -22 27 -49 35 -60 9 -11 20 -37 26 -59
6 -22 22 -56 35 -75 13 -20 24 -43 24 -52 0 -8 11 -38 25 -65 14 -27 33 -78
41 -113 8 -35 24 -81 35 -102 10 -22 26 -71 33 -111 8 -40 21 -89 30 -109 8
-20 22 -92 31 -160 8 -68 20 -142 25 -164 29 -123 31 -365 28 -3115 l-3 -2795
-21 -50 c-12 -27 -25 -69 -29 -92 -3 -22 -17 -56 -30 -74 -14 -18 -30 -48 -36
-68 -14 -40 -44 -82 -138 -190 -60 -67 -89 -92 -175 -146 -18 -11 -45 -30 -60
-42 -15 -12 -44 -27 -64 -34 -20 -6 -49 -20 -63 -30 -14 -10 -38 -21 -55 -24
-16 -4 -69 -21 -119 -38 l-90 -31 -2585 -9 c-2605 -9 -2734 -8 -2995 24 -44 6
-102 17 -130 24 -27 8 -90 19 -140 26 -49 6 -112 20 -140 30 -27 10 -81 25
-120 33 -74 15 -239 71 -290 98 -16 8 -54 21 -82 28 -29 6 -63 20 -75 30 -13
9 -41 23 -63 30 -22 7 -47 19 -56 27 -9 8 -41 23 -70 34 -29 11 -63 29 -77 40
-14 10 -30 19 -36 19 -7 0 -35 15 -63 33 -29 17 -75 46 -103 62 -28 17 -68 43
-88 58 -20 16 -53 38 -72 48 -53 29 -310 234 -390 311 -84 81 -278 289 -315
337 -61 81 -103 134 -124 156 -10 11 -28 38 -40 60 -12 22 -35 60 -51 85 -17
25 -38 58 -48 73 -9 16 -31 51 -49 79 -17 27 -34 60 -37 74 -4 13 -17 40 -31
60 -14 20 -25 45 -25 54 0 9 -12 35 -26 56 -15 21 -33 61 -40 87 -7 27 -19 59
-28 72 -8 13 -21 45 -27 72 -7 26 -22 68 -34 93 -12 25 -28 76 -34 113 -7 38
-21 92 -32 120 -11 28 -25 92 -30 142 -6 49 -15 106 -20 125 -26 89 -31 407
-37 2315 l-7 2000 -23 60 c-13 33 -29 79 -36 102 -8 23 -23 54 -33 70 -11 15
-24 39 -28 53 -4 14 -21 41 -36 60 -16 19 -29 39 -29 45 0 14 -98 114 -179
182 -81 68 -143 107 -199 127 -22 8 -51 21 -64 29 -45 29 -139 38 -487 45
l-353 7 -23 27 -22 26 -8 822 -7 821 23 26 24 25 1250 -7 c688 -4 2438 -11
3890 -15z"/>
<path d="M31545 27304 c-48 -13 -46 134 -39 -2834 6 -2690 6 -2797 24 -2855
11 -33 24 -95 30 -138 5 -43 15 -88 21 -99 7 -12 22 -54 34 -92 41 -126 144
-358 165 -371 6 -4 19 -23 31 -43 19 -35 35 -60 96 -146 40 -57 168 -204 222
-254 85 -81 236 -209 261 -222 14 -7 39 -24 55 -37 55 -45 99 -71 240 -142
170 -86 221 -105 440 -167 l100 -29 1980 -3 c2038 -3 2221 0 2345 36 36 11 92
22 125 27 33 4 76 15 95 25 20 10 64 26 99 35 35 9 84 27 109 40 26 13 90 45
142 70 105 51 159 82 187 107 10 8 33 23 50 32 48 24 195 150 295 252 146 150
179 187 217 243 20 30 47 70 60 90 13 20 28 38 33 40 5 1 20 26 33 55 13 28
30 62 38 76 9 14 34 66 57 115 23 50 49 106 59 125 10 19 24 62 31 95 7 33 21
77 31 97 10 20 26 81 34 135 8 54 19 114 25 133 7 23 10 563 10 1592 0 1292
-2 1569 -14 1630 -8 40 -17 105 -21 143 -4 39 -18 95 -31 125 -13 30 -28 77
-34 105 -6 27 -19 65 -30 85 -10 19 -28 55 -40 80 -37 79 -75 147 -90 165 -8
10 -24 32 -35 50 -11 18 -32 50 -46 71 -40 60 -288 305 -347 344 -29 19 -68
47 -85 61 -18 15 -48 34 -67 42 -19 9 -46 22 -60 30 -83 49 -241 114 -330 137
-143 37 -433 74 -509 65 -165 -20 -415 -66 -449 -84 -22 -11 -61 -25 -87 -32
-49 -12 -168 -70 -195 -94 -8 -8 -35 -23 -60 -34 -44 -21 -59 -31 -175 -121
-32 -25 -69 -53 -82 -64 -33 -26 -85 -16 -132 26 -21 18 -64 51 -96 73 -31 22
-73 52 -93 68 -19 15 -39 27 -45 27 -6 0 -24 11 -41 24 -17 13 -42 26 -56 31
-14 4 -44 18 -68 32 -24 13 -64 30 -90 37 -26 8 -69 23 -97 34 -88 36 -430 86
-538 78 -98 -7 -367 -53 -427 -73 -116 -39 -168 -60 -201 -80 -20 -13 -43 -23
-51 -23 -7 0 -38 -16 -68 -35 -30 -19 -60 -35 -66 -35 -7 0 -32 -16 -56 -35
-23 -20 -54 -45 -68 -55 -74 -59 -217 -186 -234 -209 -11 -14 -45 -56 -76 -93
-94 -114 -172 -227 -185 -268 -4 -14 -18 -41 -31 -60 -12 -19 -26 -48 -30 -65
-4 -16 -16 -48 -27 -70 -11 -22 -30 -80 -43 -130 -13 -49 -31 -115 -41 -145
-16 -51 -18 -143 -18 -1353 0 -1143 2 -1299 15 -1307 9 -6 216 -10 511 -10
410 0 498 2 514 14 19 14 20 44 23 1253 l4 1238 45 94 c37 77 60 109 122 171
110 110 168 148 271 175 105 28 229 30 307 6 37 -12 74 -21 83 -21 10 0 34
-11 54 -25 20 -14 51 -32 68 -41 79 -41 219 -217 239 -301 7 -26 19 -61 28
-78 14 -27 16 -153 19 -1247 l2 -1218 24 -15 c21 -14 85 -15 513 -13 397 2
493 6 506 17 16 12 17 108 17 1185 0 644 4 1209 9 1256 12 113 59 204 159 311
89 95 177 156 252 173 30 8 68 19 83 25 90 35 325 -10 438 -84 132 -87 236
-221 271 -348 27 -96 28 -124 37 -1677 6 -1047 5 -1326 -5 -1370 -34 -148 -52
-209 -76 -250 -14 -25 -29 -56 -33 -69 -19 -63 -181 -273 -231 -299 -13 -7
-24 -16 -24 -21 0 -7 -51 -44 -136 -96 -18 -12 -41 -28 -51 -37 -10 -8 -35
-21 -55 -27 -20 -7 -47 -20 -60 -31 -13 -10 -44 -23 -68 -29 -25 -7 -70 -22
-100 -35 -35 -15 -101 -30 -180 -40 -182 -23 -744 -35 -1190 -26 -212 5 -763
11 -1225 15 -462 4 -984 10 -1160 14 -319 7 -320 7 -370 34 -27 14 -63 29 -80
33 -34 8 -134 65 -181 104 -95 77 -119 98 -151 133 -20 20 -44 49 -55 65 -10
15 -33 47 -52 72 -49 64 -152 277 -176 365 -5 17 -18 67 -30 113 l-23 82 -6
2670 c-6 2456 -7 2671 -22 2686 -15 14 -66 16 -470 19 -250 2 -463 2 -474 -1z"/>
</g>
</svg>
