<?xml version="1.0" encoding="UTF-8" standalone="no"?>
<!-- Created with Inkscape (http://www.inkscape.org/) -->

<svg
   width="7030.000000pt"
   height="4686.000000pt"
   viewBox="0 0 7030.000000 4686.000000"
   id="svg2"
   version="1.1"
   inkscape:version="1.4 (e7c3feb100, 2024-10-09)"
   sodipodi:docname="MX-logo-andName.svg"
   xmlns:inkscape="http://www.inkscape.org/namespaces/inkscape"
   xmlns:sodipodi="http://sodipodi.sourceforge.net/DTD/sodipodi-0.dtd"
   xmlns="http://www.w3.org/2000/svg"
   xmlns:svg="http://www.w3.org/2000/svg"
   xmlns:rdf="http://www.w3.org/1999/02/22-rdf-syntax-ns#"
   xmlns:cc="http://creativecommons.org/ns#"
   xmlns:dc="http://purl.org/dc/elements/1.1/">
  <defs
     id="defs4" />
  <sodipodi:namedview
     id="base"
     pagecolor="#ffffff"
     bordercolor="#666666"
     borderopacity="1.0"
     inkscape:pageopacity="0.0"
     inkscape:pageshadow="2"
     inkscape:zoom="0.087695313"
     inkscape:cx="2702.539"
     inkscape:cy="1676.2584"
     inkscape:document-units="px"
     inkscape:current-layer="layer1"
     showgrid="false"
     inkscape:window-width="2560"
     inkscape:window-height="1416"
     inkscape:window-x="0"
     inkscape:window-y="0"
     inkscape:window-maximized="1"
     units="px"
     borderlayer="true"
     inkscape:showpageshadow="false"
     inkscape:pagecheckerboard="0"
     inkscape:deskcolor="#d1d1d1" />
  <metadata
     id="metadata7">
    <rdf:RDF>
      <cc:Work
         rdf:about="">
        <dc:format>image/svg+xml</dc:format>
        <dc:type
           rdf:resource="http://purl.org/dc/dcmitype/StillImage" />
        <dc:title />
      </cc:Work>
    </rdf:RDF>
  </metadata>
  <g
     inkscape:label="Layer 1"
     inkscape:groupmode="layer"
     id="layer1"
     transform="translate(0,-552.3622)">
    <g
       transform="matrix(10.823822,0,0,10.823822,-15347.153,-7690.1771)"
       id="g4753"
       style="fill:#000000">
      <path
         inkscape:connector-curvature="0"
         id="path3417-0"
         d="m 1874.3965,955.99742 -13.9124,16.22055 -13.8672,-16.15734 -5.6892,4.88368 14.6167,17.03149 -2.1348,2.4888 -3.623,-4.28225 -9.8938,11.69267 -9.8956,11.69085 h 19.7894 12.5307 7.2587 5.1076 12.3681 l -6.1841,-7.42848 -6.184,-7.42847 -1.7121,2.05715 -9.5037,-11.07317 14.3657,-16.74793 z m -15.8684,25.4533 9.5777,11.16168 -2.189,2.62969 -6.2365,-7.36707 -3.3087,-3.9102 z"
         style="fill:#000000;fill-rule:evenodd;stroke:#000000;stroke-width:0;stroke-linecap:butt;stroke-linejoin:miter;stroke-miterlimit:4;stroke-dasharray:none;stroke-opacity:1" />
      <g
         transform="translate(72.370486,-103.41448)"
         id="text4600-1-1"
         style="font-style:normal;font-weight:normal;font-size:38.0675px;line-height:125%;font-family:sans-serif;letter-spacing:0px;word-spacing:0px;fill:#000000;fill-opacity:1;stroke:none;stroke-width:1px;stroke-linecap:butt;stroke-linejoin:miter;stroke-opacity:1">
        <path
           inkscape:connector-curvature="0"
           id="path4739"
           style="font-style:normal;font-variant:normal;font-weight:normal;font-stretch:normal;font-family:'Crackdown R BRK';-inkscape-font-specification:'Crackdown R BRK';fill:#000000"
           d="m 1539.1671,1076.9686 q 1.8273,0 3.5022,0.1142 1.675,0.076 3.388,0.4949 0.1142,0 0.4949,0.1142 0.4188,0.1142 0.8756,0.2665 0.4568,0.1142 0.8375,0.2284 0.4187,0.1142 0.5329,0.1523 0.2284,0.038 0.2665,0.038 0.076,0 0.1903,0 0.1142,-0.038 1.3704,-0.3426 1.2563,-0.3045 3.5022,-0.6852 2.246,-0.3807 4.8727,-0.3807 1.675,0 3.4261,0.1142 1.7891,0.076 3.4641,0.4949 1.713,0.3807 3.2357,1.142 1.5608,0.7614 2.779,2.1318 0.1522,0.1903 0.2664,0.6472 0.1142,0.4187 0.1142,0.5329 v 20.1758 q 0,0.4568 -0.4568,0.7232 -0.4568,0.2284 -1.0278,0.3426 -0.571,0.076 -1.142,0.1143 -0.533,0 -0.7614,0 -0.1522,0 -0.6852,0 -0.5329,-0.038 -1.142,-0.1143 -0.571,-0.1142 -1.0278,-0.3045 -0.4568,-0.1903 -0.4568,-0.5329 v -20.0235 q 0,-0.6091 -0.4569,-1.0659 -0.4568,-0.4568 -1.1039,-0.7614 -0.6472,-0.3426 -1.3324,-0.4948 -0.6471,-0.1904 -1.1039,-0.1904 h -5.2153 q -0.2664,0 -0.9136,0.1904 -0.6091,0.1522 -1.2562,0.4187 -0.6472,0.2665 -1.142,0.6091 -0.4949,0.3426 -0.4949,0.7233 v 20.1757 q 0,0.533 -0.4568,0.7994 -0.4188,0.2665 -1.0278,0.4188 -0.5711,0.1142 -1.1801,0.1523 -0.5711,0 -0.8375,0 -0.2665,0 -0.8375,0 -0.571,-0.038 -1.1801,-0.1523 -0.571,-0.1523 -1.0278,-0.4188 -0.4188,-0.2664 -0.4188,-0.7994 v -20.1757 q 0,-0.3807 -0.5329,-0.7233 -0.4949,-0.3426 -1.1801,-0.6091 -0.6471,-0.2665 -1.2562,-0.4187 -0.6091,-0.1904 -0.8375,-0.1904 h -5.2533 q -0.4568,0 -1.142,0.1904 -0.6472,0.1522 -1.2943,0.4948 -0.6091,0.3046 -1.0659,0.7614 -0.4568,0.4568 -0.4568,1.0659 v 20.2138 q 0,0.1142 -0.3046,0.2665 -0.2665,0.1142 -0.6471,0.2284 -0.3426,0.1142 -0.6852,0.1903 -0.3426,0.076 -0.4188,0.076 h -1.2562 q -0.2284,0 -0.7994,0 -0.533,-0.038 -1.104,-0.1143 -0.571,-0.1142 -1.0278,-0.3426 -0.4568,-0.2664 -0.4568,-0.7232 v -20.1758 q 0,-0.8375 0.6091,-1.4466 0.609,-0.609 1.142,-1.0659 0.9897,-0.9136 2.4363,-1.4084 1.4846,-0.4949 3.0835,-0.7614 1.5988,-0.2665 3.1596,-0.3045 1.5988,-0.076 2.855,-0.076 z" />
        <path
           inkscape:connector-curvature="0"
           id="path4741"
           style="font-style:normal;font-variant:normal;font-weight:normal;font-stretch:normal;font-family:'Crackdown R BRK';-inkscape-font-specification:'Crackdown R BRK';fill:#000000"
           d="m 1574.2094,1102.1312 q 0,-0.2284 0.2284,-0.571 0.2665,-0.3807 0.3426,-0.4949 l 8.5272,-10.2782 q 0.1142,-0.1142 0.2664,-0.3426 0.1523,-0.2284 0.1523,-0.2284 0,-0.038 -0.1523,-0.2665 -0.1522,-0.2284 -0.2664,-0.3426 l -8.5272,-10.2782 q -0.076,-0.1142 -0.3426,-0.4568 -0.2284,-0.3807 -0.2284,-0.6091 0,-0.4949 0.4188,-0.7233 0.4568,-0.2664 1.0278,-0.3806 0.571,-0.1142 1.1039,-0.1142 0.5711,-0.038 0.8375,-0.038 0.4949,0 1.3324,0.038 0.8375,0 1.2943,0.3426 0.076,0.076 0.2665,0.2664 0.1903,0.1523 0.4187,0.3807 0.2284,0.1904 0.4187,0.4188 0.1904,0.1903 0.2665,0.3045 0.1142,0.1523 0.4949,0.6091 0.3807,0.4568 0.8755,1.0659 0.533,0.609 1.104,1.3323 0.6091,0.6852 1.104,1.2943 0.5329,0.6091 0.9136,1.104 0.4187,0.4568 0.5329,0.6091 0.076,0.1142 0.3807,0.4187 0.3045,0.2665 0.3807,0.3426 0.038,0 0.038,0.038 0.038,0 0.076,0 0.038,0 0.038,0 0.038,-0.038 0.076,-0.038 l 0.571,-0.571 q 0.3426,-0.3807 1.1801,-1.4085 0.8755,-1.0278 1.8272,-2.1698 0.9517,-1.1421 1.7892,-2.1699 0.8755,-1.0278 1.2182,-1.4466 0.6471,-0.571 1.4846,-0.6471 0.8755,-0.1142 1.713,-0.1142 0.3426,0 0.8756,0.038 0.571,0 1.0659,0.1142 0.5329,0.1142 0.9136,0.4187 0.3807,0.2665 0.3807,0.7994 0,0.076 -0.038,0.2284 0,0.1142 0,0.1523 l -9.1362,11.0396 q -0.038,0.076 -0.1142,0.2284 -0.076,0.1142 -0.076,0.1903 0,0.038 0.076,0.1903 0.076,0.1142 0.1142,0.1904 l 9.1362,11.0395 q 0,0.038 0.038,0.2285 0.038,0.1522 0.038,0.2284 0,0.7613 -0.7994,1.0278 -0.7994,0.2665 -1.5988,0.2665 h -0.8756 -0.7613 q -0.6852,0 -1.4085,-0.1523 -0.6852,-0.1523 -1.0278,-0.6091 -0.3427,-0.4187 -1.2182,-1.4466 -0.8375,-1.0278 -1.7892,-2.1698 -0.9517,-1.142 -1.8272,-2.1318 -0.8375,-1.0278 -1.1801,-1.4466 l -0.571,-0.571 q -0.038,0 -0.076,0 0,-0.038 -0.038,-0.038 -0.038,0 -0.076,0.038 0,0 -0.038,0 -0.076,0.076 -0.3807,0.3807 -0.3045,0.2665 -0.3807,0.3807 -0.1142,0.1523 -0.5329,0.6471 -0.3807,0.4568 -0.9136,1.0659 -0.4949,0.6091 -1.104,1.3324 -0.571,0.6852 -1.104,1.2943 -0.4948,0.6091 -0.8755,1.0659 -0.3807,0.4568 -0.4949,0.609 -0.5329,0.6091 -0.9517,0.9517 -0.4187,0.3426 -0.8755,0.533 -0.4568,0.1522 -0.9898,0.2284 -0.5329,0.038 -1.2562,0.038 h -0.8756 q -0.3806,0 -0.7994,-0.038 -0.4187,-0.076 -0.7994,-0.1904 -0.3426,-0.1522 -0.6091,-0.3806 -0.2284,-0.2665 -0.2284,-0.6472 z" />
        <path
           inkscape:connector-curvature="0"
           id="path4743"
           style="font-style:normal;font-variant:normal;font-weight:normal;font-stretch:normal;font-family:'Crackdown R BRK';-inkscape-font-specification:'Crackdown R BRK';fill:#000000"
           d="m 1624.9587,1077.0067 q 0.1523,0 0.6852,0.038 0.533,0.038 1.104,0.1522 0.6091,0.1142 1.0659,0.3046 0.4568,0.1903 0.4568,0.4948 v 20.1377 q 0,0.4949 0.4949,0.9517 0.4948,0.4188 1.142,0.7614 0.6852,0.3426 1.3324,0.5329 0.6852,0.1904 0.9897,0.1904 h 12.7907 q 0.3045,0 0.7994,0.076 0.4949,0.076 0.9898,0.2665 0.4948,0.1903 0.8374,0.4948 0.3426,0.2665 0.3426,0.6472 0,0.3426 -0.2284,0.6091 -0.1903,0.2284 -0.4948,0.4187 -0.3046,0.1523 -0.6472,0.2284 -0.3426,0.076 -0.6091,0.076 h -14.1611 q -0.5329,0 -1.4846,-0.1143 -0.9517,-0.1142 -2.0937,-0.3806 -1.142,-0.2665 -2.3602,-0.6472 -1.1801,-0.3806 -2.1698,-0.9136 -0.9517,-0.571 -1.5608,-1.2562 -0.6091,-0.6852 -0.6091,-1.5227 v -20.3661 q 0,-0.4568 0.4568,-0.6852 0.4568,-0.2665 1.0278,-0.3426 0.5711,-0.1142 1.104,-0.1142 0.571,-0.038 0.7994,-0.038 z" />
        <path
           inkscape:connector-curvature="0"
           id="path4745"
           style="font-style:normal;font-variant:normal;font-weight:normal;font-stretch:normal;font-family:'Crackdown R BRK';-inkscape-font-specification:'Crackdown R BRK';fill:#000000"
           d="m 1653.0959,1084.9628 h 0.7614 q 0.3807,0 0.8375,0.076 0.4948,0.038 0.8755,0.1904 0.3807,0.1522 0.6472,0.3806 0.2664,0.1904 0.2664,0.533 v 16.0645 q 0,0.3426 -0.2664,0.571 -0.2284,0.1903 -0.6091,0.3426 -0.3807,0.1522 -0.8375,0.2284 -0.4568,0.038 -0.8375,0.038 h -0.7613 q -0.1142,0 -0.6472,0 -0.5329,-0.038 -1.142,-0.1143 -0.571,-0.076 -1.0278,-0.2664 -0.4568,-0.2284 -0.4568,-0.571 v -16.6736 q 0,-0.1142 0.2284,-0.2284 0.2664,-0.1523 0.571,-0.2665 0.3426,-0.1142 0.6091,-0.1903 0.2664,-0.076 0.3426,-0.076 h 0.1522 q 0.1904,0 0.4188,0 0.2284,-0.038 0.4568,-0.038 0.2665,0 0.4187,0 z m -3.2357,-6.5476 q 0,-0.533 0.3807,-0.7994 0.3806,-0.3046 0.8755,-0.4188 0.533,-0.1142 1.0659,-0.1142 0.571,-0.038 0.9136,-0.038 0.3046,0 0.8756,0.038 0.571,0 1.1039,0.1142 0.5711,0.1142 0.9898,0.4188 0.4187,0.2664 0.4187,0.7994 0,0.4568 -0.4568,0.7613 -0.4187,0.2665 -0.9897,0.4188 -0.571,0.1142 -1.1421,0.1523 -0.571,0.038 -0.7994,0.038 -0.3045,0 -0.8755,-0.038 -0.533,-0.038 -1.0659,-0.1523 -0.533,-0.1523 -0.9136,-0.4188 -0.3807,-0.2664 -0.3807,-0.7613 z" />
        <path
           inkscape:connector-curvature="0"
           id="path4747"
           style="font-style:normal;font-variant:normal;font-weight:normal;font-stretch:normal;font-family:'Crackdown R BRK';-inkscape-font-specification:'Crackdown R BRK';fill:#000000"
           d="m 1671.7341,1084.9628 q 1.5989,0 3.35,0.076 1.7891,0.076 3.5022,0.4188 1.713,0.3426 3.2357,1.1039 1.5227,0.7233 2.6267,2.0937 0.076,0.1142 0.2284,0.4188 0.1522,0.2665 0.1522,0.3426 v 13.2094 q 0,0.1523 -0.3045,0.3045 -0.2665,0.1142 -0.6091,0.2284 -0.3426,0.1142 -0.6852,0.1904 -0.3045,0.038 -0.3426,0.038 h -1.2562 q -0.1904,0 -0.7614,-0.038 -0.5329,-0.038 -1.1801,-0.1523 -0.6091,-0.1142 -1.1039,-0.3426 -0.4568,-0.2284 -0.4568,-0.6471 v -12.41 q 0,-0.6472 -0.8756,-1.0659 -0.8755,-0.4188 -1.9795,-0.6472 -1.104,-0.2284 -2.1699,-0.3045 -1.0278,-0.1142 -1.3704,-0.1142 -0.4568,0 -1.5607,0.1142 -1.0659,0.076 -2.208,0.3426 -1.1039,0.2665 -1.9795,0.7613 -0.8375,0.4949 -0.8375,1.3324 v 12.2197 q 0,0.3426 -0.4948,0.5329 -0.4949,0.1903 -1.104,0.3045 -0.571,0.076 -1.142,0.1143 -0.533,0 -0.6472,0 h -0.7994 q -0.3807,0 -0.8375,-0.038 -0.4187,-0.076 -0.7994,-0.2284 -0.3807,-0.1523 -0.6471,-0.3426 -0.2284,-0.2284 -0.2284,-0.571 v -12.41 q 0,-0.7995 0.571,-1.4466 0.6091,-0.6852 1.5607,-1.2182 0.9517,-0.5329 2.0938,-0.9516 1.1801,-0.4188 2.284,-0.6853 1.142,-0.2664 2.0937,-0.3806 0.9517,-0.1523 1.4847,-0.1523 z" />
        <path
           inkscape:connector-curvature="0"
           id="path4749"
           style="font-style:normal;font-variant:normal;font-weight:normal;font-stretch:normal;font-family:'Crackdown R BRK';-inkscape-font-specification:'Crackdown R BRK';fill:#000000"
           d="m 1690.1641,1084.9247 q 0.1904,0 0.7614,0.038 0.571,0.038 1.1801,0.1523 0.6091,0.1142 1.0659,0.3806 0.4948,0.2284 0.4948,0.6091 v 12.41 q 0,0.4188 0.4949,0.7614 0.4949,0.3426 1.142,0.609 0.6472,0.2665 1.2563,0.4188 0.6471,0.1523 0.9136,0.1523 h 5.2152 q 0.3426,0 0.9898,-0.1523 0.6852,-0.1904 1.3324,-0.4949 0.6852,-0.3426 1.18,-0.7613 0.4949,-0.4188 0.4949,-0.9137 v -12.41 q 0,-0.1142 0.2284,-0.2284 0.2665,-0.1522 0.571,-0.2664 0.3426,-0.1142 0.6472,-0.1904 0.3045,-0.1142 0.3807,-0.1142 h 1.4846 0.7613 q 0.3807,0 0.8375,0.038 0.4568,0.038 0.8375,0.1903 0.4187,0.1142 0.6852,0.3426 0.2665,0.2284 0.2665,0.6091 v 12.2197 q 0,0.4187 -0.2284,0.8375 -0.1903,0.4187 -0.4949,0.7994 -0.2665,0.3426 -0.6091,0.6471 -0.3426,0.2665 -0.609,0.4568 -1.2182,0.8375 -2.5886,1.3324 -1.3705,0.4568 -2.817,0.6852 -1.4466,0.2284 -2.9312,0.2665 -1.4847,0.038 -2.8551,0.038 h -0.8375 -1.9414 -0.4188 q -0.6852,0 -1.713,-0.1143 -0.9897,-0.1522 -2.1318,-0.4187 -1.142,-0.2665 -2.284,-0.6852 -1.142,-0.4568 -2.0937,-1.0278 -0.9136,-0.571 -1.4847,-1.3324 -0.571,-0.7613 -0.571,-1.675 v -11.8389 q 0,-0.4188 0.2284,-0.6853 0.2665,-0.2664 0.6091,-0.4187 0.3807,-0.1523 0.7994,-0.1903 0.4568,-0.076 0.8756,-0.076 h 0.8755 z" />
        <path
           inkscape:connector-curvature="0"
           id="path4751"
           style="font-style:normal;font-variant:normal;font-weight:normal;font-stretch:normal;font-family:'Crackdown R BRK';-inkscape-font-specification:'Crackdown R BRK';fill:#000000"
           d="m 1715.2887,1102.0932 q 0,-0.076 0,-0.1523 0.038,-0.076 0.038,-0.1142 l 0.9517,-0.9517 7.9561,-6.3953 q 0.076,-0.038 0.1142,-0.1142 0.076,-0.076 0.076,-0.076 0.038,-0.038 0.038,-0.1142 0,-0.076 -0.038,-0.1142 -0.1142,-0.1522 -0.1904,-0.1903 l -7.9561,-6.3954 -0.9517,-0.9516 q 0,-0.038 -0.038,-0.1142 0,-0.076 0,-0.1523 0,-0.4949 0.4187,-0.7614 0.4568,-0.3045 1.0278,-0.4187 0.6091,-0.1142 1.1801,-0.1142 0.6091,-0.038 0.9136,-0.038 0.533,0 1.2563,0.038 0.7613,0 1.2562,0.3807 l 7.1567,5.634 q 0.038,0 0.2284,-0.1523 0.2284,-0.1523 0.3807,-0.2284 0.3426,-0.3046 1.2562,-0.9898 0.9136,-0.7233 1.9414,-1.5227 1.0278,-0.7994 1.9415,-1.5227 0.9136,-0.7233 1.2562,-1.0278 0.7613,-0.4949 1.4846,-0.5329 0.7233,-0.076 1.5989,-0.076 h 0.7994 q 0.3806,0 0.7613,0.076 0.4188,0.038 0.7614,0.1903 0.3426,0.1523 0.571,0.3807 0.2284,0.2284 0.2284,0.6091 0,0.1903 -0.038,0.4187 0,0.1903 -0.1523,0.3045 l -9.06,7.2709 9.06,7.2709 q 0.1904,0.1903 0.1904,0.2665 v 0.3426 q 0,0.5329 -0.4188,0.7994 -0.3806,0.2665 -0.9136,0.3807 -0.5329,0.1142 -1.1039,0.1523 -0.533,0 -0.8756,0 -0.8375,0 -1.5227,-0.038 -0.6471,-0.076 -1.3704,-0.533 -0.3426,-0.3045 -1.2562,-0.9897 -0.9137,-0.7233 -1.9415,-1.5227 -1.0278,-0.7994 -1.9414,-1.5227 -0.9136,-0.7233 -1.2562,-1.0278 -0.076,-0.038 -0.3046,-0.1904 -0.2284,-0.1522 -0.3045,-0.1903 -0.3426,0.3045 -1.2563,1.0278 -0.8755,0.7233 -1.9033,1.5227 -1.0278,0.7994 -1.9415,1.5227 -0.9136,0.7233 -1.2943,0.9898 -0.8374,0.6471 -1.6369,0.7994 -0.7994,0.1523 -1.8272,0.1523 h -0.8756 q -0.3806,0 -0.8374,-0.038 -0.4188,-0.076 -0.7995,-0.2284 -0.3426,-0.1523 -0.609,-0.3807 -0.2284,-0.2665 -0.2284,-0.6471 z" />
      </g>
    </g>
  </g>
</svg>
