<?xml version="1.0" encoding="UTF-8" standalone="no"?>
<svg
   width="7030.000000pt"
   height="4686.000000pt"
   viewBox="0 0 7030.000000 4686.000000"
   id="svg3037"
   version="1.1"
   sodipodi:docname="nixos.svg"
   inkscape:version="1.2.2 (b0a8486541, 2022-12-01)"
   xmlns:inkscape="http://www.inkscape.org/namespaces/inkscape"
   xmlns:sodipodi="http://sodipodi.sourceforge.net/DTD/sodipodi-0.dtd"
   xmlns:xlink="http://www.w3.org/1999/xlink"
   xmlns="http://www.w3.org/2000/svg"
   xmlns:svg="http://www.w3.org/2000/svg"
   xmlns:rdf="http://www.w3.org/1999/02/22-rdf-syntax-ns#"
   xmlns:cc="http://creativecommons.org/ns#"
   xmlns:dc="http://purl.org/dc/elements/1.1/">
  <sodipodi:namedview
     id="namedview1"
     pagecolor="#ffffff"
     bordercolor="#666666"
     borderopacity="1.0"
     inkscape:showpageshadow="2"
     inkscape:pageopacity="0.0"
     inkscape:pagecheckerboard="0"
     inkscape:deskcolor="#d1d1d1"
     inkscape:document-units="pt"
     inkscape:zoom="0.06858302"
     inkscape:cx="3739.9928"
     inkscape:cy="2449.5859"
     inkscape:window-width="1908"
     inkscape:window-height="999"
     inkscape:window-x="3840"
     inkscape:window-y="0"
     inkscape:window-maximized="1"
     inkscape:current-layer="svg3037"
     showgrid="false" />
  <defs
     id="defs5498">
    <linearGradient
       gradientUnits="userSpaceOnUse"
       id="linear-gradient-2554fbbc168494bd92c970521b88236e"
       x1="-320"
       x2="128"
       y1="-554.25629"
       y2="221.7025">
      <stop
         offset="0%"
         stop-color="#3e5993"
         id="stop6224" />
      <stop
         offset="25%"
         stop-color="#4564a5"
         id="stop6226" />
      <stop
         offset="100%"
         stop-color="#4d6fb7"
         id="stop6228" />
    </linearGradient>
    <linearGradient
       gradientUnits="userSpaceOnUse"
       id="linear-gradient-f683afeaafe0676dd2d738a2ab63a1d7"
       x1="-320"
       x2="128"
       y1="-554.25629"
       y2="221.7025">
      <stop
         offset="0%"
         stop-color="#6d9bbc"
         id="stop6231" />
      <stop
         offset="25%"
         stop-color="#72a9cf"
         id="stop6233" />
      <stop
         offset="100%"
         stop-color="#77b6e1"
         id="stop6235" />
    </linearGradient>
    <linearGradient
       inkscape:collect="always"
       xlink:href="#linear-gradient-2554fbbc168494bd92c970521b88236e"
       id="linearGradient6322"
       gradientUnits="userSpaceOnUse"
       x1="-320"
       y1="-554.25629"
       x2="128"
       y2="221.7025" />
    <linearGradient
       inkscape:collect="always"
       xlink:href="#linear-gradient-f683afeaafe0676dd2d738a2ab63a1d7"
       id="linearGradient6324"
       gradientUnits="userSpaceOnUse"
       x1="-320"
       y1="-554.25629"
       x2="128"
       y2="221.7025" />
    <linearGradient
       inkscape:collect="always"
       xlink:href="#linear-gradient-2554fbbc168494bd92c970521b88236e"
       id="linearGradient6983"
       gradientUnits="userSpaceOnUse"
       x1="-320"
       y1="-554.25629"
       x2="128"
       y2="221.7025" />
    <linearGradient
       inkscape:collect="always"
       xlink:href="#linear-gradient-f683afeaafe0676dd2d738a2ab63a1d7"
       id="linearGradient6985"
       gradientUnits="userSpaceOnUse"
       x1="-320"
       y1="-554.25629"
       x2="128"
       y2="221.7025" />
    <linearGradient
       inkscape:collect="always"
       xlink:href="#linear-gradient-2554fbbc168494bd92c970521b88236e"
       id="linearGradient6987"
       gradientUnits="userSpaceOnUse"
       x1="-320"
       y1="-554.25629"
       x2="128"
       y2="221.7025" />
    <linearGradient
       inkscape:collect="always"
       xlink:href="#linear-gradient-f683afeaafe0676dd2d738a2ab63a1d7"
       id="linearGradient6989"
       gradientUnits="userSpaceOnUse"
       x1="-320"
       y1="-554.25629"
       x2="128"
       y2="221.7025" />
  </defs>
  <metadata
     id="metadata5594">
    <rdf:RDF>
      <cc:Work
         rdf:about="">
        <dc:format>image/svg+xml</dc:format>
        <dc:type
           rdf:resource="http://purl.org/dc/dcmitype/StillImage" />
        <dc:title />
      </cc:Work>
    </rdf:RDF>
  </metadata>
  <g
     id="g7003"
     transform="matrix(0.74859177,0,0,0.74859177,1177.8003,476.5148)">
    <polygon
       fill="url(#linear-gradient-2554fbbc168494bd92c970521b88236e)"
       points="-176,-526.54345 384,443.40501 128,443.40501 -4.0726089e-14,221.7025 -128,443.40501 -256,443.40501 -320,332.55376 -128,0 -304,-304.84094 "
       transform="matrix(0.75,0,0,0.75,2882.1285,2909.0207)"
       id="polygon6240"
       style="fill:url(#linearGradient6983)" />
    <polygon
       fill="url(#linear-gradient-f683afeaafe0676dd2d738a2ab63a1d7)"
       points="-176,-526.54345 384,443.40501 128,443.40501 -4.0726089e-14,221.7025 -128,443.40501 -256,443.40501 -320,332.55376 -128,0 -304,-304.84094 "
       transform="matrix(0.375,0.64951905,-0.64951905,0.375,2642.1285,2493.3285)"
       id="polygon6242"
       style="fill:url(#linearGradient6985)" />
    <polygon
       fill="url(#linear-gradient-2554fbbc168494bd92c970521b88236e)"
       points="-176,-526.54345 384,443.40501 128,443.40501 -4.0726089e-14,221.7025 -128,443.40501 -256,443.40501 -320,332.55376 -128,0 -304,-304.84094 "
       transform="matrix(-0.375,0.64951905,-0.64951905,-0.375,2882.1285,2077.6363)"
       id="polygon6244"
       style="fill:url(#linearGradient6987)" />
    <polygon
       fill="url(#linear-gradient-f683afeaafe0676dd2d738a2ab63a1d7)"
       points="-176,-526.54345 384,443.40501 128,443.40501 -4.0726089e-14,221.7025 -128,443.40501 -256,443.40501 -320,332.55376 -128,0 -304,-304.84094 "
       transform="matrix(-0.75,0,0,-0.75,3362.1285,2077.6363)"
       id="polygon6246"
       style="fill:url(#linearGradient6989)" />
    <polygon
       fill="url(#linear-gradient-2554fbbc168494bd92c970521b88236e)"
       points="-176,-526.54345 384,443.40501 128,443.40501 -4.0726089e-14,221.7025 -128,443.40501 -256,443.40501 -320,332.55376 -128,0 -304,-304.84094 "
       transform="matrix(-0.375,-0.64951905,0.64951905,-0.375,3602.1285,2493.3285)"
       id="polygon6248"
       style="fill:url(#linearGradient6322)" />
    <polygon
       fill="url(#linear-gradient-f683afeaafe0676dd2d738a2ab63a1d7)"
       points="-176,-526.54345 384,443.40501 128,443.40501 -4.0726089e-14,221.7025 -128,443.40501 -256,443.40501 -320,332.55376 -128,0 -304,-304.84094 "
       transform="matrix(0.375,-0.64951905,0.64951905,0.375,3362.1285,2909.0207)"
       id="polygon6250"
       style="fill:url(#linearGradient6324)" />
  </g>
</svg>
