<?xml version="1.0" encoding="UTF-8" standalone="no"?>
<svg
   width="7030.000000pt"
   height="4686.000000pt"
   viewBox="0 0 7030.000000 4686.000000"
   id="svg3037"
   version="1.1"
   sodipodi:docname="nixos_text.svg"
   inkscape:version="1.2.2 (b0a8486541, 2022-12-01)"
   xmlns:inkscape="http://www.inkscape.org/namespaces/inkscape"
   xmlns:sodipodi="http://sodipodi.sourceforge.net/DTD/sodipodi-0.dtd"
   xmlns:xlink="http://www.w3.org/1999/xlink"
   xmlns="http://www.w3.org/2000/svg"
   xmlns:svg="http://www.w3.org/2000/svg"
   xmlns:rdf="http://www.w3.org/1999/02/22-rdf-syntax-ns#"
   xmlns:cc="http://creativecommons.org/ns#"
   xmlns:dc="http://purl.org/dc/elements/1.1/">
  <sodipodi:namedview
     id="namedview1"
     pagecolor="#ffffff"
     bordercolor="#666666"
     borderopacity="1.0"
     inkscape:showpageshadow="2"
     inkscape:pageopacity="0.0"
     inkscape:pagecheckerboard="0"
     inkscape:deskcolor="#d1d1d1"
     inkscape:document-units="pt"
     inkscape:zoom="0.096991037"
     inkscape:cx="5201.5116"
     inkscape:cy="2072.3564"
     inkscape:window-width="1908"
     inkscape:window-height="999"
     inkscape:window-x="3840"
     inkscape:window-y="0"
     inkscape:window-maximized="1"
     inkscape:current-layer="svg3037"
     showgrid="false" />
  <defs
     id="defs5498">
    <linearGradient
       gradientUnits="userSpaceOnUse"
       id="linearGradient7703"
       x1="-320"
       x2="128"
       y1="-554.25629"
       y2="221.7025">
      <stop
         offset="0"
         stop-color="#3e5993"
         id="stop7697"
         style="stop-color:#6d9bbc;stop-opacity:1;" />
      <stop
         offset="25%"
         stop-color="#4564a5"
         id="stop7699" />
      <stop
         offset="100%"
         stop-color="#4d6fb7"
         id="stop7701" />
    </linearGradient>
    <linearGradient
       gradientUnits="userSpaceOnUse"
       id="linearGradient7695"
       x1="-320"
       x2="128"
       y1="-554.25629"
       y2="221.7025">
      <stop
         offset="0"
         stop-color="#3e5993"
         id="stop7689"
         style="stop-color:#6d9bbc;stop-opacity:1;" />
      <stop
         offset="25%"
         stop-color="#4564a5"
         id="stop7691" />
      <stop
         offset="100%"
         stop-color="#4d6fb7"
         id="stop7693" />
    </linearGradient>
    <linearGradient
       gradientUnits="userSpaceOnUse"
       id="linear-gradient-2554fbbc168494bd92c970521b88236e"
       x1="-320"
       x2="128"
       y1="-554.25629"
       y2="221.7025">
      <stop
         offset="0%"
         stop-color="#3e5993"
         id="stop6224" />
      <stop
         offset="25%"
         stop-color="#4564a5"
         id="stop6226" />
      <stop
         offset="100%"
         stop-color="#4d6fb7"
         id="stop6228" />
    </linearGradient>
    <linearGradient
       gradientUnits="userSpaceOnUse"
       id="linear-gradient-f683afeaafe0676dd2d738a2ab63a1d7"
       x1="-320"
       x2="128"
       y1="-554.25629"
       y2="221.7025">
      <stop
         offset="0%"
         stop-color="#6d9bbc"
         id="stop6231" />
      <stop
         offset="25%"
         stop-color="#72a9cf"
         id="stop6233" />
      <stop
         offset="100%"
         stop-color="#77b6e1"
         id="stop6235" />
    </linearGradient>
    <linearGradient
       inkscape:collect="always"
       xlink:href="#linear-gradient-2554fbbc168494bd92c970521b88236e"
       id="linearGradient6322"
       gradientUnits="userSpaceOnUse"
       x1="-320"
       y1="-554.25629"
       x2="128"
       y2="221.7025" />
    <linearGradient
       inkscape:collect="always"
       xlink:href="#linear-gradient-f683afeaafe0676dd2d738a2ab63a1d7"
       id="linearGradient6324"
       gradientUnits="userSpaceOnUse"
       x1="-320"
       y1="-554.25629"
       x2="128"
       y2="221.7025" />
    <linearGradient
       inkscape:collect="always"
       xlink:href="#linear-gradient-2554fbbc168494bd92c970521b88236e"
       id="linearGradient6983"
       gradientUnits="userSpaceOnUse"
       x1="-320"
       y1="-554.25629"
       x2="128"
       y2="221.7025" />
    <linearGradient
       inkscape:collect="always"
       xlink:href="#linear-gradient-f683afeaafe0676dd2d738a2ab63a1d7"
       id="linearGradient6985"
       gradientUnits="userSpaceOnUse"
       x1="-320"
       y1="-554.25629"
       x2="128"
       y2="221.7025" />
    <linearGradient
       inkscape:collect="always"
       xlink:href="#linear-gradient-2554fbbc168494bd92c970521b88236e"
       id="linearGradient6987"
       gradientUnits="userSpaceOnUse"
       x1="-320"
       y1="-554.25629"
       x2="128"
       y2="221.7025" />
    <linearGradient
       inkscape:collect="always"
       xlink:href="#linear-gradient-f683afeaafe0676dd2d738a2ab63a1d7"
       id="linearGradient6989"
       gradientUnits="userSpaceOnUse"
       x1="-320"
       y1="-554.25629"
       x2="128"
       y2="221.7025" />
  </defs>
  <metadata
     id="metadata5594">
    <rdf:RDF>
      <cc:Work
         rdf:about="">
        <dc:format>image/svg+xml</dc:format>
        <dc:type
           rdf:resource="http://purl.org/dc/dcmitype/StillImage" />
      </cc:Work>
    </rdf:RDF>
  </metadata>
  <g
     id="g7724"
     transform="matrix(0.73770269,0,0,0.73770269,-75.054929,614.5626)">
    <g
       id="g7003"
       transform="matrix(0.74859177,0,0,0.74859177,1177.8003,476.5148)">
      <polygon
         fill="url(#linear-gradient-2554fbbc168494bd92c970521b88236e)"
         points="-4.0726089e-14,221.7025 -128,443.40501 -256,443.40501 -320,332.55376 -128,0 -304,-304.84094 -176,-526.54345 384,443.40501 128,443.40501 "
         transform="matrix(0.75,0,0,0.75,2882.1285,2909.0207)"
         id="polygon6240"
         style="fill:url(#linearGradient6983)" />
      <polygon
         fill="url(#linear-gradient-f683afeaafe0676dd2d738a2ab63a1d7)"
         points="-4.0726089e-14,221.7025 -128,443.40501 -256,443.40501 -320,332.55376 -128,0 -304,-304.84094 -176,-526.54345 384,443.40501 128,443.40501 "
         transform="matrix(0.375,0.64951905,-0.64951905,0.375,2642.1285,2493.3285)"
         id="polygon6242"
         style="fill:url(#linearGradient6985)" />
      <polygon
         fill="url(#linear-gradient-2554fbbc168494bd92c970521b88236e)"
         points="-4.0726089e-14,221.7025 -128,443.40501 -256,443.40501 -320,332.55376 -128,0 -304,-304.84094 -176,-526.54345 384,443.40501 128,443.40501 "
         transform="matrix(-0.375,0.64951905,-0.64951905,-0.375,2882.1285,2077.6363)"
         id="polygon6244"
         style="fill:url(#linearGradient6987)" />
      <polygon
         fill="url(#linear-gradient-f683afeaafe0676dd2d738a2ab63a1d7)"
         points="-4.0726089e-14,221.7025 -128,443.40501 -256,443.40501 -320,332.55376 -128,0 -304,-304.84094 -176,-526.54345 384,443.40501 128,443.40501 "
         transform="matrix(-0.75,0,0,-0.75,3362.1285,2077.6363)"
         id="polygon6246"
         style="fill:url(#linearGradient6989)" />
      <polygon
         fill="url(#linear-gradient-2554fbbc168494bd92c970521b88236e)"
         points="-4.0726089e-14,221.7025 -128,443.40501 -256,443.40501 -320,332.55376 -128,0 -304,-304.84094 -176,-526.54345 384,443.40501 128,443.40501 "
         transform="matrix(-0.375,-0.64951905,0.64951905,-0.375,3602.1285,2493.3285)"
         id="polygon6248"
         style="fill:url(#linearGradient6322)" />
      <polygon
         fill="url(#linear-gradient-f683afeaafe0676dd2d738a2ab63a1d7)"
         points="-4.0726089e-14,221.7025 -128,443.40501 -256,443.40501 -320,332.55376 -128,0 -304,-304.84094 -176,-526.54345 384,443.40501 128,443.40501 "
         transform="matrix(0.375,-0.64951905,0.64951905,0.375,3362.1285,2909.0207)"
         id="polygon6250"
         style="fill:url(#linearGradient6324)" />
    </g>
    <g
       transform="matrix(0.56034312,0,0,0.56034312,4161.2021,2715.4139)"
       id="g6262">
      <path
         d="m 1251.5176,-1331 h 155 V 0 h -148 L 514.51758,-1055 V 0 h -155 v -1331 h 148 l 744.00002,1056"
         fill="#000000"
         id="path6252" />
      <path
         d="m 1726.3008,-1144 v -145 c -40,-11 -118,-11 -158,0 v 145 c 40,11 118,11 158,0 m 0,1144 v -935 l -158,-18 V 0"
         fill="#000000"
         id="path6254" />
      <path
         d="m 2688.1318,-935 -337,455 335,480 h -193 l -230,-370 -228,370 h -183 l 334,-467 -318,-468 h 194 l 208,361 227,-361"
         fill="#000000"
         id="path6256" />
      <path
         d="m 3389.0107,-1356 c 333,0 611,243 611,691 0,448 -278,690 -611,690 -333,0 -611,-242 -611,-690 0,-448 278,-691 611,-691 m 0,1245 c 266,0 435,-221 435,-554 0,-333 -169,-554 -435,-554 -266,0 -435,221 -435,554 0,333 169,554 435,554"
         fill="#000000"
         id="path6258" />
      <path
         d="m 4371.9873,25 c -131,0 -273,-34 -354,-113 l 72,-115 c 85,56 187,84 288,84 153,0 271,-66 271,-206 0,-122 -88,-194 -291,-313 -155,-90 -275,-185 -275,-374 0,-216 174,-344 424,-344 104,0 196,20 279,69 l -54,120 c -65,-34 -160,-45 -237,-45 -156,0 -243,65 -243,178 0,111 79,194 208,270 239,140 365,233 365,424 0,241 -203,365 -453,365"
         fill="#000000"
         id="path6260" />
    </g>
  </g>
</svg>
