<?xml version="1.0" encoding="UTF-8" standalone="no"?>
<svg
   version="1.1"
   width="7030.000000pt"
   height="4686.000000pt"
   viewBox="0 0 7030.000000 4686.000000"
   id="svg1"
   sodipodi:docname="nobara.svg"
   inkscape:version="1.4 (e7c3feb100, 2024-10-09)"
   xmlns:inkscape="http://www.inkscape.org/namespaces/inkscape"
   xmlns:sodipodi="http://sodipodi.sourceforge.net/DTD/sodipodi-0.dtd"
   xmlns="http://www.w3.org/2000/svg"
   xmlns:svg="http://www.w3.org/2000/svg">
  <defs
     id="defs1" />
  <sodipodi:namedview
     id="namedview1"
     pagecolor="#ffffff"
     bordercolor="#000000"
     borderopacity="0.25"
     inkscape:showpageshadow="2"
     inkscape:pageopacity="0.0"
     inkscape:pagecheckerboard="0"
     inkscape:deskcolor="#d1d1d1"
     inkscape:document-units="pt"
     inkscape:zoom="0.11351351"
     inkscape:cx="4620.5952"
     inkscape:cy="3043.6905"
     inkscape:window-width="1896"
     inkscape:window-height="1016"
     inkscape:window-x="1932"
     inkscape:window-y="52"
     inkscape:window-maximized="1"
     inkscape:current-layer="svg1" />
  <path
     d="m 3186.614,1869.9528 c -80.6246,-2.4234 -141.0454,75.0706 -140.7395,154.1061 -0.2185,217.0557 -0.298,434.1312 0.2185,651.1868 2.1215,77.7225 77.1802,140.8528 153.8956,132.927 48.105,-2.2506 87.4718,-35.9303 113.321,-75.166 50.9357,-63.8414 169.9339,-65.8417 220.075,5.4905 21.4493,22.6213 28.7673,84.9351 28.509,76.8941 -1.3706,-58.7403 0.9336,-117.3674 -2.8604,-176.3143 -12.4072,-67.7228 -79.2639,-110.0017 -147.4735,-112.8621 -55.131,-3.8994 -86.854,-73.1478 -84.232,-112.0676 0.596,-61.1777 -5.4288,-127.951 32.0449,-180.013 56.8294,-89.8992 192.8829,-110.1805 273.5493,-41.0374 32.897,25.5334 51.2535,75.6368 72.8061,106.6348 l 137.6407,39.3211 -140.7395,40.213 c 0.3973,100.8603 -0.8144,201.7602 0.6158,302.5907 5.0574,78.0582 84.6193,140.3244 161.4976,124.6873 73.4318,-9.35 116.68,-80.716 119.3538,-155.1867 -0.7747,-116.1299 1.6487,-232.3511 -1.3508,-348.4173 -11.8053,-187.4144 -148.4528,-358.2302 -328.2353,-411.9032 -117.2105,-36.7467 -248.7986,-25.144 -357.3761,32.468 -26.1333,-33.5049 -67.997,-53.8756 -110.5083,-53.5617 z m 328.3744,375.2935 c -68.3327,-3.1167 -117.7944,79.9354 -82.4998,138.5465 29.8876,61.8093 123.3564,63.5912 161.1102,6.5135 42.1577,-58.9846 -3.5954,-142.2949 -78.6104,-145.06 z"
     id="path1"
     style="stroke-width:19.8642" />
</svg>
