<?xml version="1.0" encoding="UTF-8" standalone="no"?>
<!-- Created with Inkscape (http://www.inkscape.org/) -->

<svg
   version="1.1"
   id="svg1"
   width="7030.000000pt"
   height="4686.000000pt"
   viewBox="0 0 7030.000000 4686.000000"
   sodipodi:docname="nobara_text.svg"
   inkscape:version="1.4 (e7c3feb100, 2024-10-09)"
   xmlns:inkscape="http://www.inkscape.org/namespaces/inkscape"
   xmlns:sodipodi="http://sodipodi.sourceforge.net/DTD/sodipodi-0.dtd"
   xmlns="http://www.w3.org/2000/svg"
   xmlns:svg="http://www.w3.org/2000/svg">
  <defs
     id="defs1" />
  <sodipodi:namedview
     id="namedview1"
     pagecolor="#ffffff"
     bordercolor="#000000"
     borderopacity="0.25"
     inkscape:showpageshadow="2"
     inkscape:pageopacity="0.0"
     inkscape:pagecheckerboard="0"
     inkscape:deskcolor="#d1d1d1"
     inkscape:zoom="0.07888044"
     inkscape:cx="4912.498"
     inkscape:cy="3530.6598"
     inkscape:window-width="1896"
     inkscape:window-height="1016"
     inkscape:window-x="1932"
     inkscape:window-y="52"
     inkscape:window-maximized="1"
     inkscape:current-layer="svg1"
     inkscape:document-units="pt" />
  <path
     style="fill:#000000;stroke-width:0.574928"
     d="m 3828.7361,2651.4806 c -25.0902,-2.1009 -40.3572,-4.9498 -58.9301,-10.9963 -41.4337,-13.4893 -78.5744,-40.5733 -106.1334,-77.3953 -34.2661,-45.7835 -49.5432,-104.5762 -43.3141,-166.6905 2.7634,-27.556 9.771,-52.8603 21.2449,-76.7156 16.6128,-34.5394 42.4347,-64.3734 74.7343,-86.3462 33.5367,-22.8142 68.7393,-35.3028 110.3861,-39.1608 9.4703,-0.8773 34.2337,-0.7286 44.5976,0.2678 38.9818,3.7478 72.1774,15.5316 105.1711,37.3339 45.7273,30.2168 79.1294,77.9055 92.7889,132.4759 2.4144,9.6459 4.9488,22.8241 4.9488,25.733 0,0.7385 0.5529,1.858 1.2287,2.4876 l 1.2287,1.1447 -0.1,98.7713 c -0.098,96.8347 -0.1224,98.8841 -1.2684,104.5206 -2.2202,10.9198 -7.3551,21.6314 -14.496,30.2394 -6.7636,8.153 -19.4999,15.6396 -32.3929,19.041 -6.3802,1.6832 -7.4364,1.7957 -16.8677,1.7957 -9.4122,0 -10.4961,-0.1148 -16.8034,-1.7795 -11.3125,-2.9856 -22.2047,-8.8305 -29.0908,-15.6105 -2.5976,-2.5576 -7.0313,-7.9275 -8.5093,-10.3059 -0.066,-0.1055 -1.6149,0.7649 -3.443,1.9343 -1.8281,1.1694 -6.4418,3.7635 -10.2526,5.7647 -22.1648,11.6393 -47.5863,19.249 -74.7704,22.382 -7.5459,0.8696 -34.0346,1.6046 -39.9574,1.1087 z m 36.7064,-125.905 c 27.9406,-4.1944 52.7403,-21.0052 67.1788,-45.5384 14.0324,-23.843 18.5264,-52.6721 12.7457,-81.7639 -1.7134,-8.6225 -4.01,-15.2946 -8.233,-23.9186 -7.6641,-15.6508 -17.3566,-27.6045 -29.6328,-36.5461 -19.993,-14.562 -38.0453,-20.0691 -63.2159,-19.2846 -14.0792,0.4388 -23.4632,2.3393 -34.5851,7.0045 -16.3463,6.8565 -33.3638,20.3437 -43.1828,34.2246 -6.6614,9.417 -12.9486,22.7618 -15.6446,33.2066 -3.8969,15.0969 -4.4879,36.9837 -1.4277,52.8759 4.2118,21.8736 15.8848,42.6777 31.6909,56.481 15.9654,13.9423 35.4272,22.2756 56.3609,24.1331 7.2971,0.6475 20.5763,0.2321 27.9456,-0.8741 z m -1420.7154,120.3617 c -0.6852,-5.943 -3.0064,-13.3174 -6.3838,-20.2802 -15.1045,-31.1397 -50.4517,-46.031 -83.7216,-35.2708 -13.9215,4.5026 -27.0801,14.6927 -36.1414,27.988 -7.0407,10.3307 -15.54,17.8056 -26.2382,23.0757 -6.4955,3.1998 -11.0668,4.7783 -17.7731,6.1371 -5.6971,1.1544 -19.4922,0.8182 -26.4963,-0.6457 -24.5155,-5.1239 -44.4094,-22.8051 -51.9873,-46.2049 -3.4221,-10.5668 -3.2058,1.7548 -3.2058,-182.6282 0,-163.3599 0.04,-169.7836 1.0719,-174.4906 3.1082,-14.1707 10.1428,-26.6713 20.4832,-36.3988 27.6178,-25.9808 70.9409,-24.7655 97.052,2.7226 4.0572,4.2712 5.0851,4.9046 6.181,3.8087 0.7277,-0.7276 14.7453,-7.085 21.2435,-9.6344 17.644,-6.9222 37.4135,-11.7799 58.3552,-14.3388 11.7906,-1.4407 38.949,-1.4448 50.5879,-0.01 45.6654,5.6391 83.8087,21.536 119.0157,49.6019 9.948,7.9302 26.7797,24.7608 34.7199,34.7176 27.7094,34.7467 43.8855,73.4763 49.5864,118.7225 0.9218,7.3158 1.0332,16.2967 1.2233,98.6001 0.151,65.3197 0.027,92.0331 -0.4446,95.8698 -3.6743,29.8863 -25.3985,53.4937 -54.9013,59.6601 -7.1486,1.494 -20.7898,1.8006 -26.7488,0.6009 -24.1984,-4.8714 -44.3,-22.4167 -52.0155,-45.4005 -3.5956,-10.7111 -3.3606,-4.9243 -3.5766,-88.0777 l -0.1973,-75.9473 33.795,-9.6359 c 18.5873,-5.2996 33.9749,-9.8016 34.1948,-10.0042 0.2198,-0.2027 -15.4744,-4.896 -34.876,-10.4295 l -35.2756,-10.061 -1.2475,-4.5997 c -1.7047,-6.2858 -5.8504,-15.9818 -9.2563,-21.6486 -13.8226,-22.9988 -34.8838,-37.9681 -61.464,-43.6855 -5.1581,-1.1096 -7.752,-1.2986 -17.8227,-1.2986 -12.9949,0 -18.5482,0.8267 -29.0339,4.3219 -27.3424,9.1141 -49.418,31.225 -58.2942,58.3874 -4.3193,13.2176 -4.7858,18.788 -4.5169,53.9419 0.1983,25.9335 0.3416,29.7175 1.2403,32.7501 6.081,20.5208 24.1212,34.2162 45.0923,34.2324 28.7162,0.022 55.5713,19.3889 64.7337,46.6833 3.4291,10.2151 3.3598,9.2951 3.6081,47.8889 0.1262,19.605 0.1508,37.7152 0.055,40.2449 l -0.1746,4.5994 z m 433.0787,2.981 c -45.4983,-4.2348 -84.7493,-18.8667 -118.3502,-44.1183 -21.4988,-16.1567 -39.1975,-35.2933 -53.8225,-58.1954 -5.2183,-8.1719 -14.8325,-26.8073 -18.0929,-35.0706 -7.6014,-19.2646 -12.6317,-39.3994 -15.3691,-61.5173 -0.8141,-6.5774 -1.0338,-12.643 -1.0417,-28.7463 -0.011,-21.9684 0.3817,-27.4377 3.1608,-44.0523 15.7542,-94.1858 86.94,-165.7905 181.0935,-182.1591 25.4097,-4.4175 53.9401,-4.918 79.34,-1.3921 48.2216,6.694 91.011,27.3405 124.9697,60.2995 36.0793,35.0173 58.3744,79.2321 65.8886,130.668 2.0371,13.9442 2.571,21.8165 2.5432,37.4984 -0.03,16.8282 -0.8791,27.2466 -3.3976,41.6822 -11.2288,64.3628 -49.2976,120.2918 -104.588,153.6562 -26.8521,16.2037 -54.6804,25.7116 -88.8655,30.3623 -7.2459,0.9857 -12.5647,1.2479 -28.4589,1.4027 -10.7512,0.1048 -22.0054,-0.038 -25.0094,-0.3179 z m 40.5324,-125.5384 c 35.5201,-6.123 63.2079,-29.6672 74.9562,-63.7384 4.6085,-13.3652 6.079,-24.4141 5.6696,-42.5985 -0.3962,-17.5914 -2.4717,-28.1449 -8.2144,-41.7668 -9.0695,-21.5136 -24.0144,-37.8924 -44.0646,-48.2925 -23.0964,-11.9801 -55.0707,-14.2354 -80.9526,-5.7096 -24.1469,7.9541 -45.1251,26.5825 -56.2819,49.9776 -7.756,16.2638 -10.8958,32.8277 -10.2442,54.0432 0.9129,29.7184 10.0356,52.155 28.8683,70.9995 15.6031,15.6129 35.9591,25.3823 58.0677,27.8683 6.6506,0.7478 26.0534,0.2761 32.1959,-0.7828 z m 437.7746,125.5615 c -38.1721,-2.8334 -74.1709,-14.14 -104.0291,-32.6738 -27.5174,-17.0808 -50.4245,-39.0208 -68.5887,-65.6929 -17.6512,-25.9185 -30.0673,-57.9586 -35.1758,-90.7718 -2.9715,-19.0861 -2.7956,-7.9229 -3.0207,-191.7507 -0.1484,-121.2765 -0.026,-172.3612 0.4209,-176.3016 3.0891,-27.2111 19.7906,-47.3144 45.4764,-54.7392 11.3242,-3.2735 24.6261,-3.5329 35.3036,-0.6886 6.4404,1.7155 15.6074,5.868 20.9228,9.4777 13.1729,8.9455 22.3793,23.2382 26.3297,40.8763 0.8606,3.8425 0.9842,10.9495 1.1673,67.1085 0.1126,34.546 0.3281,62.8108 0.4789,62.8108 0.1507,0 3.569,-1.6505 7.5962,-3.6678 31.7376,-15.8979 67.9489,-23.1691 107.3595,-21.5576 43.7912,1.7907 84.1198,15.5432 119.1119,40.6185 42.6954,30.5955 73.5248,76.416 86.4205,128.4434 5.3913,21.7512 7.1528,38.5917 6.7243,64.2873 -0.3125,18.7354 -1.088,27.1248 -3.8544,41.6927 -10.8714,57.251 -43.7843,108.6121 -91.1896,142.303 -9.3545,6.6481 -17.6752,11.5559 -29.2488,17.2514 -25.0262,12.3159 -50.4497,19.4154 -80.2024,22.3965 -8.2603,0.8276 -33.8873,1.1802 -42.0025,0.5779 z m 26.5083,-124.791 c 23.8922,-1.8753 42.9936,-10.1632 59.3117,-25.7348 14.6491,-13.9789 25.7683,-34.1432 29.7004,-53.8607 3.9311,-19.7121 2.8844,-41.9298 -2.8078,-59.5995 -2.2816,-7.0826 -8.6848,-19.9282 -13.8543,-27.7935 -5.5319,-8.4165 -16.2423,-19.2018 -24.48,-24.651 -17.5236,-11.592 -34.4974,-16.4536 -57.3851,-16.4364 -21.6516,0.016 -38.8382,5.0518 -55.768,16.3393 -20.9157,13.9449 -36.0779,37.808 -41.1412,64.7502 -1.7856,9.501 -2.2036,28.9884 -0.8505,39.6446 6.1405,48.3606 41.8816,83.7491 88.1852,87.315 8.9845,0.6919 10.5872,0.6942 19.0896,0.027 z m 771.2365,124.3891 c -8.3756,-0.761 -17.9222,-3.4671 -25.2725,-7.1641 -17.4402,-8.7721 -27.9108,-23.3814 -32.3321,-45.112 -0.9867,-4.8499 -1.038,-13.4085 -1.038,-173.2683 0,-159.3331 0.054,-168.438 1.03,-173.3406 4.9951,-25.0944 18.695,-41.3119 41.2272,-48.8037 6.7022,-2.2285 16.032,-3.804 22.4959,-3.7988 9.2979,0.01 20.493,2.5388 28.9906,6.5551 7.1896,3.3983 10.9838,5.9351 15.9927,10.6931 l 4.2939,4.0787 5.1482,-2.9272 c 18.1823,-10.3379 40.9481,-17.7109 65.0858,-21.079 10.2525,-1.4306 39.2429,-1.4348 49.4438,-0.01 16.0571,2.2473 26.3172,5.1563 37.6577,10.677 20.82,10.1355 32.8663,25.2351 36.2409,45.4264 4.4823,26.8189 -9.5999,54.3762 -33.4084,65.3763 -11.1857,5.1682 -21.812,6.2211 -45.6646,4.5248 -30.7215,-2.1849 -44.92,-0.7329 -62.2576,6.3664 -10.2714,4.2059 -14.7941,7.1562 -21.9693,14.3314 -6.445,6.445 -9.0773,10.1689 -11.5964,16.4057 -3.5102,8.6905 -3.2717,0.5749 -3.6408,123.8766 -0.3712,124.0771 -0.079,114.3875 -3.7818,125.4968 -5.5566,16.6728 -17.6256,29.7833 -33.5012,36.3924 -9.9919,4.1596 -22.9276,6.2281 -33.144,5.3 z m 432.9205,0.042 c -59.3365,-4.7026 -105.4721,-26.3463 -145.8806,-68.4372 -13.3044,-13.8584 -28.01,-34.6607 -36.5124,-51.6498 -12.5368,-25.0506 -20.2071,-51.7685 -23.5201,-81.9272 -1.2199,-11.1054 -1.3897,-39.4224 -0.2998,-50.0187 4.2749,-41.5642 16.0768,-75.4634 37.1283,-106.6456 17.5094,-25.9356 41.0057,-48.4607 67.6099,-64.8151 32.7736,-20.1469 65.2972,-30.6947 104.3031,-33.827 12.2486,-0.9836 38.2726,-0.3897 49.5004,1.1297 33.5671,4.5422 60.6582,13.9124 88.241,30.5206 29.4297,17.7202 51.7489,38.8608 70.4193,66.7008 18.9799,28.3017 30.3881,57.1293 36.201,91.4771 0.9741,5.756 1.645,8.277 2.3376,8.7834 0.9057,0.6623 0.9662,7.3539 0.8964,99.1467 -0.081,106.5345 0.033,102.5164 -3.1781,112.3523 -6.0481,18.5279 -18.0489,31.7891 -35.0346,38.7141 -2.741,1.1175 -7.4986,2.705 -10.5724,3.5279 -5.0534,1.3527 -6.6074,1.4973 -16.2248,1.509 -9.6457,0.011 -11.1448,-0.1247 -16.098,-1.4645 -15.1849,-4.1075 -27.5462,-11.6574 -34.7274,-21.2105 -1.4678,-1.9527 -2.8706,-3.9109 -3.1172,-4.3516 -0.3524,-0.6297 -1.489,-0.1719 -5.3052,2.1366 -23.2223,14.0477 -51.928,23.5114 -82.7594,27.2843 -7.4238,0.9085 -36.4081,1.6194 -43.407,1.0647 z m 41.1709,-126.0747 c 40.437,-6.9784 71.0113,-38.7942 78.7775,-81.9763 1.6645,-9.2552 1.8405,-29.5258 0.3394,-39.095 -3.3306,-21.2325 -12.7585,-40.7711 -26.8621,-55.6694 -11.261,-11.8956 -28.7217,-22.5737 -43.7594,-26.7612 -14.6261,-4.0729 -35.2898,-4.5846 -50.5178,-1.251 -20.2593,4.435 -41.6968,17.7129 -54.7785,33.9285 -11.928,14.7856 -19.0695,31.1037 -22.0255,50.328 -1.2992,8.4498 -1.3163,26.9184 -0.033,35.5714 6.9588,46.9175 41.8923,81.2079 87.6164,86.0034 7.6677,0.8042 23.5009,0.2576 31.2429,-1.0784 z m -2217.2718,-51.5576 c -17.1569,-3.8366 -30.4112,-16.5024 -35.1409,-33.5808 -0.7754,-2.7999 -1.0302,-5.7553 -1.016,-11.786 0.018,-7.4658 0.1503,-8.4447 1.8322,-13.5108 5.0494,-15.2087 16.5847,-26.2143 32.025,-30.5539 3.6923,-1.0378 6.0166,-1.287 11.786,-1.263 8.7762,0.036 13.7554,1.2393 21.4297,5.1778 4.3468,2.2309 6.2956,3.7135 10.7949,8.2127 4.4992,4.4993 5.982,6.4482 8.2127,10.795 13.5671,26.4359 0.3006,57.3658 -28.211,65.7721 -5.3709,1.5835 -16.272,1.9535 -21.7126,0.7369 z"
     id="path1"
     inkscape:label="path1"
     sodipodi:nodetypes="sssssssssssscsssssssssssssssssssssssssssssssssscssssssssssssssscssscsssssssssssscscssssssssssssssscssssssssssssssssssssssssssssssssssssssssssssssssssssssscssssssssssssssssssssssssssssssssssssssssssssssscssssssssssssss" />
</svg>
