<?xml version="1.0" encoding="UTF-8" standalone="no"?>
<svg
   width="7030.000000pt"
   height="4686.000000pt"
   viewBox="0 0 7030.000000 4686.000000"
   version="1.1"
   id="svg8"
   sodipodi:docname="pop_os.svg"
   inkscape:version="1.4 (e7c3feb100, 2024-10-09)"
   xmlns:inkscape="http://www.inkscape.org/namespaces/inkscape"
   xmlns:sodipodi="http://sodipodi.sourceforge.net/DTD/sodipodi-0.dtd"
   xmlns="http://www.w3.org/2000/svg"
   xmlns:svg="http://www.w3.org/2000/svg"
   xmlns:rdf="http://www.w3.org/1999/02/22-rdf-syntax-ns#"
   xmlns:cc="http://creativecommons.org/ns#"
   xmlns:dc="http://purl.org/dc/elements/1.1/">
  <sodipodi:namedview
     id="namedview1"
     pagecolor="#ffffff"
     bordercolor="#666666"
     borderopacity="1.0"
     inkscape:showpageshadow="2"
     inkscape:pageopacity="0.0"
     inkscape:pagecheckerboard="0"
     inkscape:deskcolor="#d1d1d1"
     inkscape:document-units="pt"
     inkscape:zoom="0.19398207"
     inkscape:cx="4954.066"
     inkscape:cy="2989.967"
     inkscape:window-width="2560"
     inkscape:window-height="1416"
     inkscape:window-x="0"
     inkscape:window-y="0"
     inkscape:window-maximized="1"
     inkscape:current-layer="svg8" />
  <defs
     id="defs2" />
  <metadata
     id="metadata5">
    <rdf:RDF>
      <cc:Work
         rdf:about="">
        <dc:format>image/svg+xml</dc:format>
        <dc:type
           rdf:resource="http://purl.org/dc/dcmitype/StillImage" />
      </cc:Work>
    </rdf:RDF>
  </metadata>
  <g
     id="layer1"
     style="display:inline"
     transform="matrix(8.7631162,0,0,8.7631162,2921.445,1749.4449)">
    <g
       style="display:inline;enable-background:new"
       id="g1063"
       transform="matrix(2.2577776,0,0,2.2577776,-510.81756,-501.22662)">
      <path
         id="circle1047"
         d="m 256.24795,222 a 30.000002,30.000002 0 0 0 -30,30 30.000002,30.000002 0 0 0 30,30 30.000002,30.000002 0 0 0 30.00001,-30 30.000002,30.000002 0 0 0 -30.00001,-30 z m -5.64743,7.28988 c 2.54796,-0.0195 3.66736,0.6065 5.2034,1.58959 2.41014,1.58562 4.12261,4.05928 4.75686,6.91337 0.63421,2.85412 0.44409,5.07392 -0.31701,6.65955 v 0.1268 c -1.52216,3.23467 -4.05924,5.83508 -7.611,7.10358 l 3.04435,7.92824 c 0.57082,1.45877 1.07817,2.98087 0.63424,4.37622 -0.44398,1.39535 -2.47369,1.83943 -3.93242,0.31723 -2.7907,-2.98098 -12.17765,-21.75468 -12.87529,-23.15003 -0.69767,-1.39535 -1.45867,-2.53707 -1.45867,-3.93242 0.0634,-2.09298 3.29803,-4.24946 4.88365,-5.32768 1.58563,-1.07823 4.69354,-2.53713 7.42081,-2.60056 0.0852,-0.002 0.16889,-0.003 0.25108,-0.004 z m -2.74131,5.7811 c -1.97264,0.0541 -0.89308,4.17261 -0.49073,5.32219 0.44397,1.2685 1.64904,3.9324 2.98096,5.26428 0.31713,0.31713 0.63431,0.57082 1.01486,0.63424 0.38055,0.0634 1.14155,-0.31704 1.45867,-0.82444 0.31713,-0.5074 0.38063,-0.88786 0.38063,-1.39526 a 8.1183936,8.1183936 0 0 0 -0.12703,-3.04459 c -0.57082,-1.96617 -1.77573,-3.86875 -3.36136,-5.13725 -0.31712,-0.2537 -0.69768,-0.57101 -1.14166,-0.69786 -0.27352,-0.0892 -0.51028,-0.1269 -0.71434,-0.12131 z m 21.15143,5.06882 c 0.2695,0.001 0.52485,0.0215 0.74684,0.0632 a 5.7082455,5.7082455 0 0 1 3.10776,1.52229 c 0.76107,0.69768 0.82453,1.45876 0.57083,2.41013 -0.2537,0.95138 -1.14163,2.98085 -1.8393,4.43962 l -1.77589,3.36159 c -3.42495,6.08877 -4.12273,6.72309 -5.07408,6.34254 -1.14164,-0.44398 -0.76099,-6.53286 0.31723,-13.95355 0.31712,-2.0296 0.82443,-3.04439 1.39526,-3.55179 0.44595,-0.3964 1.58883,-0.63802 2.55135,-0.634 z m -4.8008,20.83145 c 1.41149,-0.004 2.01457,1.73556 1.67862,3.07938 -0.12685,0.57082 -0.44385,1.07836 -0.95123,1.39549 -0.5074,0.31712 -1.71245,0.31699 -2.41013,-0.25383 -0.69767,-0.57083 -0.82473,-1.522 -0.63446,-2.2831 0.19028,-0.76108 0.82454,-1.58582 1.71249,-1.83952 0.21555,-0.0669 0.41734,-0.0979 0.60471,-0.0984 z m -19.9775,9.0287 h 24.03123 c 1.09934,0 1.9844,0.88507 1.9844,1.98441 v 0.0314 c 0,1.09934 -0.88506,1.98417 -1.9844,1.98417 h -24.03123 c -1.09934,0 -1.9844,-0.88483 -1.9844,-1.98417 v -0.0314 c 0,-1.09934 0.88506,-1.98441 1.9844,-1.98441 z" />
    </g>
  </g>
</svg>
