<?xml version="1.0" encoding="UTF-8" standalone="no"?>
<svg
   width="7030.000000pt"
   height="4686.000000pt"
   viewBox="0 0 7030.000000 4686.000000"
   version="1.1"
   id="svg1"
   sodipodi:docname="raspberry-pi.svg"
   inkscape:version="1.4 (e7c3feb100, 2024-10-09)"
   xmlns:inkscape="http://www.inkscape.org/namespaces/inkscape"
   xmlns:sodipodi="http://sodipodi.sourceforge.net/DTD/sodipodi-0.dtd"
   xmlns="http://www.w3.org/2000/svg"
   xmlns:svg="http://www.w3.org/2000/svg">
  <defs
     id="defs1" />
  <sodipodi:namedview
     id="namedview1"
     pagecolor="#ffffff"
     bordercolor="#666666"
     borderopacity="1.0"
     inkscape:showpageshadow="2"
     inkscape:pageopacity="0.0"
     inkscape:pagecheckerboard="0"
     inkscape:deskcolor="#d1d1d1"
     inkscape:document-units="pt"
     inkscape:zoom="0.13716604"
     inkscape:cx="4767.944"
     inkscape:cy="2770.365"
     inkscape:window-width="2560"
     inkscape:window-height="1416"
     inkscape:window-x="0"
     inkscape:window-y="0"
     inkscape:window-maximized="1"
     inkscape:current-layer="svg1" />
  <path
     d="m 3321.0809,1802.539 h 0.021 c -5.465,0.1688 -11.3519,2.1944 -18.0197,7.4484 -16.3527,-6.309 -32.2835,-8.5035 -46.4207,4.3467 -21.9443,-2.8486 -28.9075,3.0174 -34.3936,9.8538 -4.8108,-0.099 -35.8705,-4.9375 -50.2187,16.3739 -35.8707,-4.2412 -47.2648,21.1003 -34.3936,44.7327 -7.3218,11.3519 -14.918,22.5774 2.2156,44.0997 -6.0559,12.0483 -2.3,25.1093 11.985,40.9346 -3.777,16.9436 3.6503,28.9075 16.9435,38.1917 -2.4899,23.2103 21.3113,36.7145 28.2744,41.5675 2.722,13.5043 8.398,26.1645 35.4486,33.3386 4.4732,20.1298 20.7838,23.6324 36.5036,27.8525 -52.1178,30.3844 -96.8505,70.2641 -96.6396,168.1696 l -7.6382,13.6308 c -59.714,36.2926 -113.7309,153.3995 -29.5406,248.984 5.5073,29.7514 14.707,51.0627 22.9994,74.6951 12.2804,95.3735 92.4195,139.8952 113.5199,145.1703 31.0174,23.6324 63.934,45.9987 108.6667,61.6129 41.9896,43.4668 87.5663,59.925 133.565,59.925 0.6711,-4e-4 1.3547,0 2.0278,0 45.7877,0.029 91.3644,-16.5004 133.5651,-59.925 44.7327,-15.6775 77.6492,-37.9805 108.6667,-61.6129 21.1003,-5.2751 101.2816,-49.7968 113.5198,-145.1703 8.208,-23.6324 17.4289,-44.9437 22.9993,-74.6951 84.1903,-94.9516 30.3846,-211.0033 -29.5404,-248.984 l -7.6595,-13.6308 c 0.3039,-97.9055 -44.5217,-137.7852 -96.6394,-168.1696 15.783,-4.2201 32.0725,-7.7017 36.5035,-27.8525 27.2194,-7.0475 32.7055,-19.7921 35.4486,-33.3386 7.0897,-4.8108 30.8065,-18.2728 28.2744,-41.5675 13.2932,-9.3053 20.6994,-21.3114 16.9436,-38.1917 14.2849,-15.8253 18.0407,-28.9075 11.985,-40.9346 17.1545,-21.5223 9.5373,-32.9165 2.2156,-44.0997 12.85,-23.6324 1.5107,-48.9528 -34.3936,-44.7327 -14.2849,-21.3114 -45.3658,-16.4582 -50.2188,-16.3739 -5.3806,-6.8364 -12.4914,-12.7024 -34.3936,-9.8538 -14.1794,-12.829 -29.9624,-10.6346 -46.4207,-4.3467 -19.4123,-15.3189 -32.2835,-3.0384 -46.8428,1.6036 -23.4213,-7.6805 -28.9074,2.8485 -40.5126,7.1319 -25.5314,-5.4228 -33.3385,6.3723 -45.7877,18.8216 l -14.306,-0.2849 c -38.6137,22.7883 -57.8149,69.209 -64.567,93.0525 -6.8154,-23.8435 -25.9534,-70.2642 -64.5671,-93.0525 l -14.2849,0.2849 c -12.3015,-12.4493 -20.0875,-24.2655 -45.7877,-18.8216 -11.5419,-4.2834 -16.9014,-14.8124 -40.5127,-7.1319 -9.6217,-3.0384 -18.4838,-9.3685 -28.9074,-9.052 z m 388.2461,27.4304 c -5.3595,6.6466 -12.8712,13.1033 -4.9164,20.7416 10.9722,-6.942 21.9443,-13.884 48.1087,-18.8214 -5.8658,6.6465 -17.9985,13.272 -10.6345,19.9186 13.7574,-5.3383 28.9075,-9.2208 45.7878,-11.4574 -8.0604,6.731 -14.7914,13.3354 -8.187,18.5472 14.728,-4.5999 35.0265,-10.8034 54.8608,-5.465 l -12.5546,12.829 c -1.3926,1.7154 29.3295,1.3356 49.5858,1.6352 -7.4062,10.4448 -14.9602,20.5307 -19.3702,38.4027 2.013,2.0699 12.0695,0.9199 21.5224,0 -9.7273,20.7838 -26.5865,25.9534 -30.5955,35.0265 5.9503,4.5577 14.1794,3.3761 23.2104,0.2722 -7.0053,14.6436 -21.7334,24.6874 -33.3385,36.5036 2.9329,2.11 8.0602,3.3761 20.193,1.9117 -10.719,11.563 -23.6324,22.1553 -39.0357,31.6505 2.722,3.1862 12.0694,3.0596 20.7417,3.2705 -13.9052,13.8207 -31.8616,20.9737 -48.5308,29.9625 8.3558,5.8026 14.3272,4.4522 20.7416,4.3678 -11.8584,9.896 -32.0725,15.0445 -50.8518,21.0159 3.566,5.6127 7.132,7.153 14.7281,8.7355 -19.8132,11.141 -48.1088,6.0348 -56.1269,11.7318 1.9328,5.5916 7.3851,9.2419 13.9262,12.2804 -31.8615,1.88 -119.2169,-1.1795 -135.8861,-68.1541 32.7054,-36.5036 92.2084,-79.1262 194.756,-132.0881 -79.7592,27.0085 -151.7114,63.3011 -211.0033,112.8868 -70.8971,-33.5495 -21.9443,-117.9508 12.5547,-151.5003 1.7513,8.8621 3.7347,14.4537 6.0136,16.0995 11.2465,-12.2381 20.4462,-24.6874 35.0265,-36.5036 0.046,6.921 -3.4393,14.4326 5.1907,19.9187 7.7649,-10.6135 18.2729,-20.0663 32.2835,-28.0634 -6.7099,11.7529 -1.152,15.3188 2.4477,20.193 10.6557,-9.263 20.7627,-18.6527 40.3017,-25.9534 z m -388.2461,0 c 19.6233,7.2797 29.7514,16.6482 40.3016,25.9535 3.6082,-4.8742 9.1787,-8.4402 2.4477,-20.1931 13.9472,8.0392 24.4763,17.5133 32.2835,28.0634 8.63,-5.4861 5.1274,-12.9977 5.1907,-19.9186 14.4748,11.7739 23.6323,24.2653 35.0265,36.5035 2.2577,-1.65 4.2623,-7.2585 6.0136,-16.0996 34.6045,33.5496 83.3463,117.9509 12.5547,151.5004 -60.3469,-49.7967 -132.2991,-85.8783 -211.0033,-112.8867 102.5475,52.7508 162.0505,95.5845 194.756,132.0881 -16.7325,67.099 -104.0246,70.053 -135.8861,68.1541 6.5411,-3.0385 11.985,-6.6889 13.9262,-12.2805 -7.997,-5.6971 -36.2925,-0.5971 -56.1269,-11.7318 7.6173,-1.5783 11.1832,-3.1228 14.7281,-8.7355 -18.7161,-5.9714 -38.8246,-11.1198 -50.8518,-21.0159 6.3933,0.078 12.3859,1.4348 20.7416,-4.3678 -16.7748,-9.031 -34.6046,-16.2051 -48.5308,-29.9625 8.6723,-0.2131 18.0197,-0.086 20.7416,-3.2705 -15.361,-9.5162 -28.2744,-20.0876 -39.0356,-31.6506 12.1327,1.4645 17.2601,0.2006 20.193,-1.9116 -11.6051,-11.8795 -26.3753,-21.9444 -33.3385,-36.5036 9.0099,3.1017 17.2601,4.3045 23.2104,-0.2722 -3.9458,-8.9043 -20.826,-14.1372 -30.5955,-35.0266 9.4951,0.9201 19.5389,2.07 21.5224,0 -4.41,-17.9352 -11.964,-28.0633 -19.3702,-38.4025 20.2985,-0.3018 51.0629,0.076 49.5858,-1.6396 l -12.5547,-12.8289 c 19.8343,-5.3384 40.0906,0.8608 54.8609,5.4649 6.6044,-5.2117 -0.1139,-11.8162 -8.187,-18.5471 16.8592,2.2577 32.0726,6.1191 45.7878,11.4575 7.364,-6.6467 -4.7687,-13.2722 -10.6346,-19.9188 25.9534,4.9375 37.1366,11.8795 48.1088,18.8215 7.9548,-7.6172 0.4558,-14.095 -4.9164,-20.7416 z m 186.949,276.4144 c 1.7639,-0.04 3.5237,-0.038 5.2962,0 v 0 c 50.2187,-0.5529 112.4647,37.5586 112.2537,73.2181 -0.2194,31.6506 -43.6777,57.1819 -111.8317,56.7599 -66.6771,-0.7954 -111.6209,-32.0725 -111.4098,-62.879 0.1266,-24.4763 51.0627,-66.044 105.7126,-67.31 z m -165.6377,21.3113 c 11.2254,-0.2089 22.7883,0.6647 34.6045,2.6586 35.0267,5.866 -167.5366,182.5179 -170.4907,143.2713 -2.7852,-89.8874 57.182,-144.3262 135.8862,-145.8033 z m 331.2752,3.0173 c 78.7043,1.4623 138.6292,55.9159 135.8862,145.8034 -3.1229,39.4576 -205.5172,-137.3632 -170.4907,-143.2713 11.8584,-2.0024 23.4213,-2.8696 34.6045,-2.6587 z m -38.4026,109.7218 a 129.97805,110.14373 56 0 1 4.8109,0.065 129.97805,110.14373 56 0 1 85.6673,232.1036 130.15706,110.29544 56 1 1 -143.2712,-217.3334 129.97805,110.14373 56 0 1 52.9619,-15.6775 z m -248.9839,6.098 a 110.14373,129.97805 34 0 1 57.8149,15.6142 110.29545,130.15708 34 0 1 -143.2713,217.3334 110.14373,129.97805 34 0 1 85.6674,-232.1036 z m 432.5568,66.466 c 1.5425,-0.025 3.165,0.1858 4.8953,0.6478 91.1535,52.1178 75.3282,167.9587 26.1644,207.4163 -43.2556,19.2435 -78.9152,-207.4163 -31.0174,-208.2603 z m -624.5699,3.0174 c 47.6869,0.7871 12.2805,227.8835 -31.0174,208.0492 -49.1638,-39.4576 -64.9891,-155.5094 26.1644,-207.4163 1.7176,-0.4599 3.355,-0.6688 4.8953,-0.6435 z m 322.8352,155.9314 a 122.80394,113.30878 0 0 1 119.8499,113.9418 122.80394,113.30878 0 1 1 -244.7639,0 122.80394,113.30878 0 0 1 125.758,-113.9418 z m 267.9742,42.6227 c 9.6006,-0.2511 18.5683,2.4476 26.5864,8.7144 21.7333,21.7334 34.6046,103.6027 -3.5871,152.5555 -52.5397,73.0071 -123.8589,75.7501 -150.2344,55.4938 -27.6413,-26.1644 -6.5621,-107.4007 31.4396,-151.9224 v -0.021 c 32.7055,-36.9256 66.888,-64.145 95.7955,-64.778 z m -554.9387,17.3444 c 31.6505,-0.6498 70.4751,24.4765 102.1255,60.98 v 0 c 35.2376,42.4117 51.0628,116.6848 21.7334,138.6292 -27.6414,16.7326 -95.1625,9.8539 -143.0603,-58.8699 -32.2835,-57.8149 -28.0634,-116.4738 -5.465,-133.7761 7.4274,-4.5155 15.7198,-6.7099 24.6875,-6.8999 z m 293.2945,202.7743 c 47.8978,0.2954 106.1347,17.5554 106.3458,40.0906 0.8186,23.2103 -60.136,75.7502 -119.0059,74.6952 -60.98,2.6375 -120.9049,-50.0078 -120.0609,-68.1541 -0.9137,-26.7974 74.2731,-47.6868 123.4369,-46.4207 3.0806,-0.1351 6.2246,-0.1878 9.4319,-0.1688 z"
     id="path1"
     style="stroke-width:2.11003" />
</svg>
