<?xml version="1.0" encoding="UTF-8" standalone="no"?>
<!-- Generator: Adobe Illustrator 13.0.0, SVG Export Plug-In . SVG Version: 6.00 Build 14948)  -->

<svg
   version="1.1"
   id="Layer_1"
   x="0px"
   y="0px"
   width="7030.000000pt"
   height="4686.000000pt"
   viewBox="0 0 7030.000000 4686.000000"
   style="enable-background:new 0 0 300 300;"
   xml:space="preserve"
   sodipodi:docname="rebel_alliance.svg"
   inkscape:version="1.4.2 (ebf0e940d0, 2025-05-08)"
   xmlns:inkscape="http://www.inkscape.org/namespaces/inkscape"
   xmlns:sodipodi="http://sodipodi.sourceforge.net/DTD/sodipodi-0.dtd"
   xmlns="http://www.w3.org/2000/svg"
   xmlns:svg="http://www.w3.org/2000/svg"><defs
   id="defs1" /><sodipodi:namedview
   id="namedview1"
   pagecolor="#ffffff"
   bordercolor="#666666"
   borderopacity="1.0"
   inkscape:showpageshadow="2"
   inkscape:pageopacity="0.0"
   inkscape:pagecheckerboard="0"
   inkscape:deskcolor="#d1d1d1"
   inkscape:document-units="pt"
   inkscape:zoom="0.096991037"
   inkscape:cx="3706.5281"
   inkscape:cy="2062.0462"
   inkscape:window-width="2560"
   inkscape:window-height="1416"
   inkscape:window-x="0"
   inkscape:window-y="0"
   inkscape:window-maximized="1"
   inkscape:current-layer="Layer_1" />
<g
   id="g1"
   transform="matrix(5.2271335,0,0,5.2271335,2726.5762,1561.5383)">
	<path
   d="M 7.42,145.986 C 9.185,99.193 32.899,56.035 76.25,27.516 c 0.128,0.048 1.251,-0.361 0.738,0.61 -3.434,3.184 -65.172,76.114 -8.344,133.68 0,0 29.858,28.704 53.011,1.468 0,0 22.847,-29.577 -0.289,-74.413 0,0 -5.856,-14.64 -26.955,-23.721 l 16.992,-18.748 c 0,0 14.359,6.161 25.478,22.871 0,0 0.593,-17.593 -12.884,-36.34 l 26.345,-29.89 26.08,29.609 c 0,0 -11.993,16.991 -12.876,36.902 0,0 8.191,-13.477 25.776,-23.151 l 16.686,18.748 c 0,0 -16.045,5.287 -26.794,23.529 -9.242,16.902 -16.357,53.05 0.416,75.223 0,0 18.772,26.618 51.792,-1.571 0,0 60.712,-54.399 -6.226,-133.048 0,0 -3.658,-3.233 0.449,-1.476 29.586,21.54 65.012,49.946 68.67,120.837 -1.444,85.966 -59.012,147.334 -143.074,147.334 C 68.934,295.968 4.95,227.283 7.42,145.986"
   id="path1" />
</g>
</svg>
