<?xml version="1.0" standalone="no"?>
<!DOCTYPE svg PUBLIC "-//W3C//DTD SVG 20010904//EN"
 "http://www.w3.org/TR/2001/REC-SVG-20010904/DTD/svg10.dtd">
<svg version="1.0" xmlns="http://www.w3.org/2000/svg"
 width="7030.000000pt" height="4688.000000pt" viewBox="0 0 7030.000000 4688.000000"
 preserveAspectRatio="xMidYMid meet">
<metadata>
Created by potrace 1.16, written by Peter Selinger 2001-2019
</metadata>
<g transform="translate(0.000000,4688.000000) scale(0.100000,-0.100000)"
fill="#000000" stroke="none">
<path d="M26700 27176 c0 -2 42 -27 93 -54 219 -117 515 -312 710 -467 180
-144 410 -374 516 -515 149 -200 243 -443 287 -740 25 -170 15 -480 -20 -646
-35 -167 -76 -288 -145 -429 -109 -223 -246 -386 -451 -537 -206 -153 -351
-235 -734 -418 -114 -55 -246 -125 -293 -156 -156 -104 -322 -295 -380 -437
-31 -76 -41 -192 -23 -268 51 -215 271 -442 677 -699 248 -157 380 -246 531
-359 483 -362 879 -750 1082 -1061 79 -121 215 -398 275 -562 l48 -128 803 0
804 0 0 3740 0 3740 -1890 0 c-1039 0 -1890 -2 -1890 -4z"/>
<path d="M23004 26606 c-2 -6 -3 -1561 -2 -3456 l3 -3445 1253 -3 1254 -2 19
22 c10 13 52 73 93 133 181 269 268 528 253 759 -13 201 -63 306 -299 631
-316 436 -417 593 -551 860 -90 181 -122 278 -138 419 -27 241 40 541 173 773
57 100 152 217 283 348 183 184 310 269 715 480 417 218 585 324 718 453 92
90 148 169 187 267 56 139 42 375 -35 574 -64 167 -196 320 -380 443 -184 124
-599 312 -861 392 -452 137 -1241 253 -2249 331 -443 34 -431 33 -436 21z"/>
<path d="M35613 26115 c-147 -32 -309 -156 -372 -286 -66 -136 -65 -292 5
-436 152 -317 627 -391 880 -138 155 154 197 381 107 574 -35 74 -167 206
-245 243 -117 57 -243 72 -375 43z"/>
<path d="M34110 24433 c-222 -15 -450 -95 -636 -224 -92 -64 -207 -170 -260
-240 l-39 -50 -6 74 c-10 122 -32 172 -109 248 -77 76 -150 115 -242 128 -88
12 -169 -2 -252 -43 -89 -43 -151 -103 -185 -175 l-26 -56 -3 -1527 c-2 -1492
-2 -1529 17 -1583 45 -127 162 -211 326 -234 181 -26 365 61 437 207 l33 67 6
920 c5 889 6 923 26 1013 31 132 49 185 102 287 37 72 64 108 136 180 131 131
243 189 415 216 93 14 255 6 341 -17 90 -25 257 -25 327 -1 111 39 217 178
243 319 29 160 -47 338 -178 415 -24 14 -76 34 -116 44 -65 17 -260 41 -297
37 -8 -1 -35 -3 -60 -5z"/>
<path d="M35663 24429 c-70 -12 -148 -48 -210 -97 -71 -57 -110 -138 -124
-257 -6 -58 -9 -625 -7 -1565 l3 -1475 22 -53 c28 -70 63 -114 120 -153 133
-92 315 -108 461 -39 86 40 165 117 194 189 l23 56 0 1545 0 1545 -23 56 c-68
170 -272 280 -459 248z"/>
<path d="M37135 24433 c-61 -8 -132 -37 -195 -79 -115 -76 -161 -157 -168
-296 -3 -51 1 -108 7 -135 11 -44 1159 -2758 1220 -2883 42 -87 123 -162 232
-215 52 -24 121 -52 154 -60 81 -22 250 -22 340 -1 158 37 319 145 377 253 15
26 294 685 621 1463 648 1539 628 1486 606 1622 -27 167 -169 300 -352 328
-162 25 -331 -51 -396 -178 -11 -22 -212 -543 -446 -1158 -235 -616 -434
-1132 -443 -1148 -55 -95 -190 -100 -259 -10 -14 20 -210 512 -459 1156 -239
617 -445 1140 -459 1163 -50 86 -152 154 -265 175 -53 10 -60 10 -115 3z"/>
<path d="M42300 24434 c-392 -26 -697 -121 -972 -304 -431 -287 -684 -714
-739 -1249 -15 -144 -7 -448 16 -596 63 -410 215 -737 466 -999 210 -220 452
-366 749 -451 571 -164 1365 -94 1840 162 129 70 248 152 284 197 47 57 63 92
76 166 24 134 -15 252 -116 352 -71 72 -130 101 -211 106 -73 5 -122 -9 -183
-52 -346 -246 -901 -347 -1321 -241 -336 84 -573 278 -688 562 -54 132 -60
203 -19 230 7 4 526 10 1153 13 l1140 5 60 23 c149 56 243 159 292 317 24 81
24 327 -1 470 -62 354 -245 664 -534 905 -297 249 -643 368 -1107 383 -71 2
-155 3 -185 1z m380 -743 c114 -30 233 -89 322 -159 169 -135 244 -254 269
-428 13 -86 2 -130 -37 -140 -13 -3 -411 -2 -884 2 -789 8 -861 10 -876 26
-16 16 -16 22 -1 100 22 112 80 227 157 311 134 146 384 270 616 307 105 16
338 6 434 -19z"/>
<path d="M46591 24429 c-111 -10 -258 -49 -368 -97 -170 -73 -375 -228 -485
-365 l-38 -49 0 39 c0 118 -41 224 -113 290 -97 89 -181 124 -298 125 -185 1
-348 -109 -394 -265 -23 -76 -23 -3037 0 -3114 38 -127 162 -219 328 -242 199
-27 400 83 460 253 8 21 13 327 17 951 6 903 7 922 28 1018 77 337 266 560
547 646 109 33 319 36 440 6 54 -13 114 -19 185 -19 94 0 111 3 168 28 233
107 302 461 126 655 -49 55 -102 85 -194 110 -65 18 -267 44 -310 40 -8 -1
-53 -5 -99 -10z"/>
</g>
</svg>
