<?xml version="1.0" standalone="no"?>
<!DOCTYPE svg PUBLIC "-//W3C//DTD SVG 20010904//EN"
 "http://www.w3.org/TR/2001/REC-SVG-20010904/DTD/svg10.dtd">
<svg version="1.0" xmlns="http://www.w3.org/2000/svg"
 width="7030.000000pt" height="4688.000000pt" viewBox="0 0 7030.000000 4688.000000"
 preserveAspectRatio="xMidYMid meet">
<metadata>
Created by potrace 1.16, written by Peter Selinger 2001-2019
</metadata>
<g transform="translate(0.000000,4688.000000) scale(0.100000,-0.100000)"
fill="#000000" stroke="none">
<path d="M35110 27176 c0 -2 53 -33 119 -69 236 -129 478 -290 698 -465 147
-116 432 -405 512 -517 194 -276 291 -605 291 -995 0 -552 -215 -1027 -596
-1317 -201 -153 -371 -252 -713 -415 -113 -54 -238 -117 -278 -140 -195 -111
-381 -310 -452 -483 -36 -88 -41 -217 -11 -305 45 -134 146 -266 313 -406 92
-77 217 -164 608 -419 428 -279 961 -743 1212 -1055 178 -221 320 -481 432
-795 l33 -90 806 -3 806 -2 0 3740 0 3740 -1890 0 c-1039 0 -1890 -2 -1890 -4z"/>
<path d="M31414 26611 c-2 -2 -4 -1558 -4 -3458 l0 -3453 1258 0 1257 0 66 93
c296 415 371 785 224 1103 -39 85 -71 133 -268 404 -266 365 -411 597 -543
867 -121 247 -143 505 -69 790 70 268 176 443 410 679 210 211 277 255 865
564 320 168 471 269 600 401 81 82 127 152 168 251 67 167 22 481 -101 693
-49 86 -201 240 -307 312 -146 99 -451 246 -724 347 -423 158 -1264 292 -2391
380 -356 28 -435 33 -441 27z"/>
</g>
</svg>
