<?xml version="1.0" encoding="UTF-8" standalone="no"?>
<!-- Created with Inkscape (http://www.inkscape.org/) -->

<svg
   width="7030.000000pt"
   height="4686.000000pt"
   viewBox="0 0 7030.000000 4686.000000"
   version="1.1"
   id="svg1"
   sodipodi:docname="sorogon.svg"
   inkscape:version="1.4 (e7c3feb100, 2024-10-09)"
   xmlns:inkscape="http://www.inkscape.org/namespaces/inkscape"
   xmlns:sodipodi="http://sodipodi.sourceforge.net/DTD/sodipodi-0.dtd"
   xmlns="http://www.w3.org/2000/svg"
   xmlns:svg="http://www.w3.org/2000/svg">
  <defs
     id="defs2" />
  <sodipodi:namedview
     id="namedview2"
     pagecolor="#ffffff"
     bordercolor="#666666"
     borderopacity="1.0"
     inkscape:showpageshadow="2"
     inkscape:pageopacity="0.0"
     inkscape:pagecheckerboard="0"
     inkscape:deskcolor="#d1d1d1"
     inkscape:document-units="mm"
     inkscape:zoom="0.10200325"
     inkscape:cx="4578.2853"
     inkscape:cy="4058.6941"
     inkscape:window-width="2560"
     inkscape:window-height="1416"
     inkscape:window-x="0"
     inkscape:window-y="0"
     inkscape:window-maximized="1"
     inkscape:current-layer="svg1" />
  <path
     id="text1"
     d="m 2717.1431,1799.4146 c -7.2479,0 -11.7637,3.6382 -13.3759,10.872 l -189.5678,821.47 c -1.6408,3.9949 -1.6408,7.198 0,9.6164 2.4255,2.4255 5.5644,3.6383 9.6164,3.6383 h 12.1204 c 7.248,0 11.6639,-3.6383 13.2761,-10.8649 l 189.6677,-821.47 c 1.6408,-3.995 1.1414,-7.1981 -1.2841,-9.6164 -1.6408,-2.4255 -4.423,-3.6383 -8.4679,-3.6383 z m 1094.4254,230.7372 c -48.3175,0 -87.4538,16.5149 -117.2519,49.5304 -29.7981,32.2164 -44.6223,74.0707 -44.6223,125.6128 v 274.2038 c 0,51.5421 14.8242,93.3964 44.6223,125.6128 29.7981,32.2094 68.9344,48.3818 117.2519,48.3818 27.3797,0 51.9273,-6.1351 73.6713,-18.1842 21.744,-12.8837 39.5001,-30.5329 53.19,-53.083 1.6408,-1.6407 2.7822,-2.0688 3.5669,-1.2841 1.6408,0 2.4255,1.2128 2.4255,3.6383 v 56.7427 c 0,69.2554 -14.0323,122.0744 -42.2181,158.3144 -27.3797,36.2399 -71.7166,54.3385 -132.925,54.3385 -8.0542,0 -12.0134,3.995 -12.0134,12.0205 v 8.4608 c 0,8.0541 4.7796,12.1275 14.4175,12.1275 140.1302,0 210.2559,-81.333 210.2559,-244.0133 v -590.7328 c 0,-8.0541 -4.0663,-12.1204 -12.1204,-12.1204 h -13.2761 c -8.0541,0 -12.1204,4.0663 -12.1204,12.1204 v 47.1262 c 0,2.4256 -0.7847,3.995 -2.4255,4.7797 -0.7847,0 -1.9261,-0.7847 -3.5669,-2.4255 -12.8837,-22.5501 -30.1905,-39.8568 -51.9344,-51.9344 -21.744,-12.8837 -46.741,-19.3327 -74.9269,-19.3327 z m 507.3452,1.1414 c -28.992,0 -55.1233,6.9199 -78.4795,20.5883 -22.5501,13.6899 -40.3062,33.0298 -53.19,57.9982 -0.7847,2.4255 -2.0688,3.6383 -3.6382,3.6383 -1.6408,0 -2.4256,-1.2128 -2.4256,-3.6383 v -57.9982 c 0,-8.0541 -4.0663,-12.1204 -12.1204,-12.1204 h -12.0134 c -8.0541,0 -12.1275,4.0663 -12.1275,12.1204 v 581.0165 c 0,8.0541 4.0663,12.1204 12.1275,12.1204 h 12.0134 c 8.0541,0 12.1204,-4.0663 12.1204,-12.1204 v -404.6249 c 0,-50.7359 11.6568,-90.657 35.013,-119.6489 23.3491,-28.992 54.7951,-43.4737 94.2524,-43.4737 39.4645,0 69.6692,13.6899 90.607,41.0696 21.744,26.5736 32.6017,64.0191 32.6017,112.3367 v 414.3412 c 0,8.0541 4.0663,12.1204 12.1205,12.1204 h 12.0205 c 8.0541,0 12.1204,-4.0663 12.1204,-12.1204 v -419.1494 c 0,-57.1778 -13.3403,-101.8571 -39.921,-134.0736 -26.5736,-32.2093 -63.5698,-48.3818 -111.0812,-48.3818 z m -1275.6252,3.6383 c -47.5186,0 -85.7489,14.1322 -114.7408,42.318 -28.193,28.193 -42.3252,65.6314 -42.3252,112.3367 0,32.2165 6.4205,58.7972 19.3328,79.7351 13.6898,20.9378 30.2047,37.0033 49.5303,48.2819 19.3327,11.2715 45.1216,23.8271 77.3309,37.5169 30.6042,12.8837 54.36,24.5333 71.2672,35.0058 17.7205,9.6664 32.5446,22.8997 44.6222,39.814 12.0848,16.9144 18.1842,38.6298 18.1842,65.2106 0,37.0389 -11.3071,66.9012 -33.8572,89.4513 -21.744,22.543 -50.7075,33.8573 -86.9474,33.8573 -38.6512,0 -69.6478,-10.9648 -93.004,-32.7087 -22.5501,-22.5501 -33.8573,-50.2723 -33.8573,-83.2877 v -4.7797 c 0,-8.0541 -3.9236,-12.1204 -12.0134,-12.1204 h -10.9718 c -8.0542,0 -12.0206,4.0663 -12.0206,12.1204 v 5.9211 c 0,41.8757 14.9312,76.9385 44.7293,105.1244 29.7909,27.3868 68.3708,41.0696 115.8894,41.0696 47.5114,0 85.8487,-14.0323 114.8407,-42.2182 28.992,-28.1858 43.4737,-65.7313 43.4737,-112.4366 0,-33.8287 -7.2409,-61.5437 -21.7369,-83.2877 -14.496,-21.744 -31.8027,-38.2588 -51.9344,-49.5374 -20.1317,-12.0776 -47.6113,-25.4179 -82.239,-39.9139 -28.193,-12.0848 -50.7003,-22.9425 -67.6147,-32.6089 -16.1082,-9.6592 -29.7909,-22.5572 -41.0695,-38.6654 -10.4654,-16.9072 -15.6731,-37.3885 -15.6731,-61.5509 0,-36.2328 10.8577,-65.6457 32.6017,-88.1958 21.744,-22.5501 50.7074,-33.8572 86.9474,-33.8572 36.2399,0 65.6456,11.7566 88.1957,35.1128 23.3563,22.5501 35.0059,51.0641 35.0059,85.6918 v 3.6383 c 0,8.0541 4.0662,12.1275 12.1204,12.1275 h 9.6164 c 8.0541,0 12.1204,-4.0663 12.1204,-12.1275 v -3.6383 c 0,-45.1002 -14.4746,-81.7468 -43.4665,-109.9326 -28.1859,-28.992 -65.6315,-43.4737 -112.3368,-43.4737 z m 456.5593,0 c -28.193,0 -52.7334,8.4822 -73.6784,25.3894 -20.1317,16.1082 -36.1972,39.0721 -48.2748,68.8702 -0.7847,3.2102 -2.0688,4.7797 -3.6382,4.7797 -1.6408,0 -2.4255,-1.2128 -2.4255,-3.6383 v -78.4795 c 0,-8.0541 -4.0663,-12.1204 -12.1205,-12.1204 h -12.0205 c -8.047,0 -12.1204,4.0663 -12.1204,12.1204 v 581.0164 c 0,8.0542 4.0663,12.1205 12.1204,12.1205 h 12.0205 c 8.0542,0 12.1205,-4.0663 12.1205,-12.1205 v -376.8242 c 0,-51.5421 11.3071,-94.2952 33.8572,-128.1168 23.3562,-34.6277 52.7691,-52.284 88.2029,-53.083 15.295,0 29.3273,2.8535 42.2182,8.4607 8.0469,3.995 13.2547,1.9975 15.673,-6.0637 l 4.9224,-14.5245 c 2.4255,-7.248 0.7134,-12.4486 -4.9224,-15.6731 -14.496,-8.0541 -31.8027,-12.1204 -51.9344,-12.1204 z m 317.7774,29.049 c 37.046,0 67.2508,13.2405 90.607,39.8141 24.1552,25.7746 36.1544,59.5962 36.1544,101.4719 v 273.0552 c 0,41.8757 -11.9992,76.0469 -36.1544,102.6204 -23.3562,25.7675 -53.561,38.6655 -90.607,38.6655 -38.6512,0 -70.5467,-12.898 -95.508,-38.6655 -24.1624,-26.5735 -36.1615,-60.7447 -36.1615,-102.6204 v -273.0552 c 0,-41.8757 11.9991,-75.6973 36.1615,-101.4719 24.9613,-26.5736 56.8568,-39.8141 95.508,-39.8141 z m -1392.8772,14.4247 c -2.4255,0 -4.423,0.7134 -6.0637,1.2127 l -423.9576,217.4683 c -5.6358,2.4255 -8.4608,7.1696 -8.4608,14.4176 v 18.1841 c 0,7.248 2.8536,12.0063 8.4608,14.4247 l 423.9576,217.4611 c 3.9949,1.6408 7.2979,1.6408 9.7163,0 3.2102,-1.6407 4.7796,-4.4229 4.7796,-8.4678 v -13.269 c 0,-7.248 -2.8535,-12.1061 -8.4678,-14.5245 l -398.661,-200.4327 c -1.6408,-0.7847 -2.4255,-2.0688 -2.4255,-3.6382 0,-1.6408 0.7847,-2.8536 2.4255,-3.6383 l 398.661,-201.6882 c 5.6357,-2.4255 8.4678,-7.2766 8.4678,-14.5245 v -13.269 c 0,-6.4205 -2.8535,-9.7163 -8.4678,-9.7163 z m 2180.7039,0 c -1.7834,0 -3.4956,0.7134 -5.1363,1.2127 -2.4256,1.6408 -3.567,4.423 -3.567,8.4679 v 13.269 c 0,7.248 2.8536,12.1133 8.4679,14.5245 l 398.5611,201.6882 c 1.6408,0.7847 2.4255,2.0688 2.4255,3.6383 0,1.6408 -0.7847,2.8535 -2.4255,3.6383 l -398.5611,200.4326 c -5.6357,2.4255 -8.4679,7.2765 -8.4679,14.5245 v 13.269 c 0,6.4205 2.8536,9.7234 8.4679,9.7234 2.4255,0 4.3517,-0.7134 5.9924,-1.2841 l 424.0575,-217.4611 c 5.6357,-2.4255 8.4679,-7.1767 8.4679,-14.4247 v -18.1842 c 0,-7.2479 -2.8536,-12.0062 -8.4679,-14.4175 l -424.0575,-217.4683 c -1.9974,-0.7847 -3.9236,-1.2127 -5.7784,-1.2127 z m -1226.3017,637.1313 c -7.7545,0 -13.9966,2.4968 -18.812,7.4192 -4.851,4.9224 -7.2123,11.2715 -7.2123,19.0188 v 38.7725 c 0,7.8687 2.2828,14.2963 6.9912,19.2257 4.7797,4.8511 11.1502,7.2124 19.0188,7.2124 7.9828,0 14.4104,-2.4255 19.2257,-7.2124 4.8511,-4.9223 7.2124,-11.357 7.2124,-19.2257 v -38.7725 c 0,-7.8686 -2.4255,-14.2034 -7.2124,-19.0188 -4.851,-4.9224 -11.2429,-7.4192 -19.2257,-7.4192 z m 121.2184,0 c -7.7545,0 -13.9966,2.4968 -18.812,7.4192 -4.851,4.9224 -7.3122,11.2715 -7.3122,19.0188 v 38.7725 c 0,7.8687 2.4255,14.2963 7.1339,19.2257 4.7796,4.8511 11.1502,7.2124 19.0188,7.2124 7.9828,0 14.4104,-2.4255 19.2257,-7.2124 4.8511,-4.9223 7.2124,-11.357 7.2124,-19.2257 v -38.7725 c 0,-7.8686 -2.4256,-14.2034 -7.2124,-19.0188 -4.851,-4.9224 -11.2429,-7.4192 -19.2257,-7.4192 z m 69.3838,0 c -7.2765,0 -13.1049,2.4968 -17.4494,7.4192 -4.209,4.851 -6.2778,11.1502 -6.2778,19.0188 v 38.2446 c 0,7.8687 2.0688,14.2963 6.2778,19.2329 4.3517,4.851 10.1729,7.2123 17.4494,7.2123 3.7809,0 7.1909,-0.7847 10.2442,-2.2828 3.1389,-1.6408 5.7071,-4.0663 7.7331,-7.2052 0,-0.7134 0,-0.7134 0.7134,-0.7134 0,0 0.7134,0 0.7134,0.7134 v 6.7058 c 0,9.6307 -1.9975,16.9215 -5.8498,21.7368 -3.7809,4.8511 -10.0944,7.2052 -19.0188,7.2052 -1.4981,0 -2.2829,0.7134 -2.2829,1.7835 v 4.7083 c 0,1.1415 0.7134,1.7835 1.7835,1.7835 12.2132,0.7134 21.0235,-2.4255 26.5451,-8.7818 5.493,-6.3491 8.3608,-15.5946 8.3608,-27.6936 v -85.9985 c 0,-1.2128 -0.7134,-1.7122 -1.7834,-1.7122 h -6.0638 c -1.1414,0 -1.6408,0.7134 -1.6408,1.7122 v 6.1351 c 0,0 0,0.7134 -0.7134,0.7134 0,0 0,0 -0.7134,-0.7134 -1.8548,-3.0676 -4.3516,-5.3504 -7.5262,-6.9912 -3.1389,-1.6408 -6.7058,-2.4969 -10.4511,-2.4969 z m 73.8853,0 c -7.7545,0 -14.1036,2.4968 -18.919,7.4192 -4.851,4.9224 -7.2052,11.2715 -7.2052,19.0188 v 38.7725 c 0,7.8687 2.2829,14.2963 6.9912,19.2257 4.851,4.8511 11.2572,7.2124 19.1259,7.2124 7.9827,0 14.3033,-2.4255 19.1187,-7.2124 4.851,-4.9223 7.2123,-11.357 7.2123,-19.2257 v -38.7725 c 0,-7.8686 -2.4255,-14.2034 -7.2123,-19.0188 -4.851,-4.9224 -11.136,-7.4192 -19.1187,-7.4192 z m 76.5961,0 c -8.4536,0 -14.71,3.2102 -18.7049,9.8233 0,0 -0.7134,0.7134 -0.7134,0.7134 0,0 0,0 0,-0.7134 v -6.7771 c 0,-1.2128 -0.7134,-1.7122 -1.7835,-1.7122 h -5.8497 c -1.1414,0 -1.7835,0.7134 -1.7835,1.7122 v 85.2709 c 0,1.1414 0.7134,1.7834 1.7835,1.7834 h 5.8497 c 1.1415,0 1.7835,-0.7134 1.7835,-1.7834 v -58.8329 c 0,-6.5631 1.4268,-11.7138 4.423,-15.4662 2.9249,-3.7809 6.9198,-5.6357 12.1204,-5.6357 5.065,0 8.9886,1.7834 11.8065,5.3504 2.7822,3.4955 4.2803,8.3894 4.2803,14.7314 v 59.8815 c 0,1.1414 0.7134,1.7835 1.6408,1.7835 h 5.8498 c 1.1414,0 1.7834,-0.7134 1.7834,-1.7835 v -60.7162 c 0,-8.689 -1.9974,-15.4591 -5.8497,-20.2744 -3.8523,-4.851 -9.3454,-7.2123 -16.5078,-7.2123 z m -407.8636,0.7134 c -7.3978,0 -13.2975,2.1401 -17.7633,6.3491 -4.4943,4.209 -6.7058,9.8733 -6.7058,17.0356 0,4.9224 0.9987,9.0386 2.9962,12.3273 2.1402,3.1389 4.5657,5.7785 7.5262,7.6333 2.9249,1.7834 6.7059,3.5669 11.2858,5.4217 4.209,1.7834 7.569,3.2816 10.0302,4.7083 2.4968,1.2841 4.4943,3.0676 6.1351,5.3504 1.6408,2.2115 2.4968,5.065 2.4968,8.4608 0,4.5656 -1.5694,8.3537 -4.4943,11.2857 -2.7822,2.8535 -6.4918,4.209 -11.1787,4.209 -4.7797,0 -8.7533,-1.3555 -11.8065,-4.209 -3.0676,-2.7822 -4.6371,-6.3491 -4.6371,-10.551 v -1.1414 c 0,-1.2127 -0.7133,-1.7121 -1.7834,-1.7121 h -5.4217 c -1.1415,0 -1.7835,0.7134 -1.7835,1.7121 v 1.1414 c 0,6.5632 2.2828,11.9706 6.9198,16.1939 4.7084,4.1376 10.8649,6.1351 18.4981,6.1351 7.5191,0 13.4972,-2.1402 18.0772,-6.3491 4.5656,-4.3517 6.9198,-10.0944 6.9198,-17.1355 0,-5.0651 -1.1414,-9.1528 -3.3529,-12.4415 -2.2115,-3.2815 -4.9937,-5.8497 -8.1469,-7.6261 -3.0675,-1.8548 -6.9911,-3.7809 -11.8136,-5.7784 -4.1376,-1.8548 -7.2623,-3.4956 -9.6093,-4.7797 -2.2115,-1.2841 -4.1376,-2.9962 -5.6357,-5.1363 -1.4982,-2.1402 -2.2829,-4.7797 -2.2829,-7.94 0,-4.5657 1.3555,-8.261 4.209,-11.0789 2.8535,-2.9249 6.5631,-4.3516 11.2857,-4.3516 4.7084,0 8.5607,1.4267 11.4998,4.3516 2.9249,2.9249 4.3517,6.6345 4.3517,10.9719 v 0.856 c 0,1.2128 0.7133,1.7835 1.7834,1.7835 h 5.2077 c 1.1415,0 1.7835,-0.7134 1.7835,-1.7835 v -0.7133 c 0,-6.9199 -2.2115,-12.5841 -6.7058,-16.9287 -4.4943,-4.3516 -10.4582,-6.4918 -17.9773,-6.4918 z m 141.8067,0 c -3.995,0 -7.4049,1.2127 -10.3441,3.5669 -2.7822,2.3542 -5.065,5.5644 -6.7058,9.8233 0,0 0,0.7134 -0.7134,0.7134 0,0 -0.7134,0 -0.7134,-0.7134 v -10.9718 c 0,-1.2128 -0.7134,-1.7122 -1.7834,-1.7122 h -5.7785 c -1.2127,0 -1.7834,0.7134 -1.7834,1.7122 v 85.2709 c 0,1.1414 0.7134,1.7834 1.7834,1.7834 h 5.7785 c 1.1414,0 1.7834,-0.7134 1.7834,-1.7834 v -53.7179 c 0,-6.7058 1.4268,-12.3487 4.423,-16.9286 2.9249,-4.5657 6.7772,-6.9199 11.4926,-6.9912 2.7109,0 4.9937,0 6.9199,0.856 1.1414,0.7134 1.9261,0 2.2828,-0.856 l 1.3554,-5.9211 c 0,-1.0701 -0.014,-1.8548 -0.856,-2.2829 -2.1402,-1.2127 -4.7084,-1.7834 -7.6261,-1.7834 z m -75.0267,7.5191 c 5.065,0 9.1599,1.7834 12.3273,5.3503 3.1389,3.4243 4.7797,7.8616 4.7797,13.376 v 37.8308 c 0,5.4218 -1.6408,9.9589 -4.7797,13.483 -3.1389,3.4243 -7.2765,5.1364 -12.3273,5.1364 -4.9224,0 -8.953,-1.7121 -12.1276,-5.1364 -3.0675,-3.4956 -4.5656,-8.0826 -4.5656,-13.483 v -37.8308 c 0,-5.493 1.5694,-9.966 4.5656,-13.376 3.1389,-3.4955 7.191,-5.3503 12.1276,-5.3503 z m 121.2184,0 c 5.065,0 9.1598,1.7834 12.3273,5.3503 3.1389,3.4243 4.7083,7.8616 4.7083,13.376 v 37.8308 c 0,5.4218 -1.5694,9.9589 -4.7083,13.483 -3.1389,3.4243 -7.2766,5.1364 -12.3273,5.1364 -4.9224,0 -8.953,-1.7121 -12.1204,-5.1364 -3.0676,-3.4956 -4.637,-8.0826 -4.637,-13.483 v -37.8308 c 0,-5.493 1.5694,-9.966 4.637,-13.376 3.1389,-3.4955 7.1837,-5.3503 12.1204,-5.3503 z m 71.8949,0 c 4.851,0 8.7533,1.7834 11.8065,5.3503 3.0676,3.4243 4.5657,7.8616 4.5657,13.376 v 37.3101 c 0,5.493 -1.5694,10.073 -4.5657,13.4829 -3.0675,3.4243 -6.9911,4.9937 -11.8065,4.9937 -4.9223,0 -9.0528,-1.6408 -12.2274,-4.9937 -3.1389,-3.4956 -4.7083,-8.0826 -4.7083,-13.4829 v -37.3101 c 0,-5.493 1.4981,-9.966 4.7083,-13.376 3.1389,-3.4955 7.2908,-5.3503 12.2274,-5.3503 z m 71.3742,0 c 5.065,0 9.1599,1.7834 12.3273,5.3503 3.1389,3.4243 4.7083,7.8616 4.7083,13.376 v 37.8308 c 0,5.4218 -1.5694,9.9589 -4.7083,13.483 -3.1389,3.4243 -7.2765,5.1364 -12.3273,5.1364 -4.9224,0 -9.06,-1.7121 -12.2274,-5.1364 -3.0676,-3.4956 -4.5657,-8.0826 -4.5657,-13.483 v -37.8308 c 0,-5.493 1.5695,-9.966 4.5657,-13.376 3.1389,-3.4955 7.2908,-5.3503 12.2274,-5.3503 z"
     style="stroke-width:71.3385;fill:#000000" />
</svg>
