<?xml version="1.0" encoding="UTF-8" standalone="no"?>
<svg
   fill="none"
   width="7030.000000pt"
   height="4686.000000pt"
   viewBox="0 0 7030.000000 4686.000000"
   version="1.1"
   id="svg91"
   xmlns="http://www.w3.org/2000/svg"
   xmlns:svg="http://www.w3.org/2000/svg">
   <defs
      id="defs95" />
   <g
      id="g1156"
      transform="translate(0.00657493,135.80005)">
      <path
         style="clip-rule:evenodd;fill:#000000;fill-rule:evenodd;stroke-width:22.3058"
         d="m 4482.084,1975.8626 h 336.9508 l -248.1519,418.5602 h 244.2482 v 64.1631 h -361.6877 l 248.174,-418.4885 H 4482.084 Z"
         id="path836" />
      <path
         id="path834"
         style="clip-rule:evenodd;fill:#000000;fill-rule:evenodd;stroke-width:22.3058"
         d="m 3004.7055,1975.8196 h 79.2085 c 40.3155,0 90.4792,-7e-4 131.7114,22.5059 41.3349,23.4411 66.958,68.4201 66.958,117.3969 0,69.6075 -46.1608,124.3598 -113.3481,136.0078 l 155.5562,206.8551 h -86.9854 l -144.1685,-199.8999 h -17.5444 v 199.8999 h -71.3877 z m 71.3877,62.9668 v 160.7417 h 14.2984 c 58.0686,0 124.7256,-9.2536 124.7256,-81.3281 0,-54.1808 -40.6611,-79.4136 -127.9571,-79.4136 z" />
      <path
         style="clip-rule:evenodd;fill:#000000;fill-rule:evenodd;stroke-width:22.3058"
         d="m 2408.098,1965.8176 c 79.0718,0 155.1078,34.8806 203.3687,93.3062 l 3.1084,3.7705 -50.6412,46.6436 -3.4203,-4.5176 c -35.0023,-46.2689 -92.4151,-75.0205 -149.8258,-75.0205 -106.7443,0 -190.3403,81.9533 -190.3403,186.5786 0,100.0549 86.4865,187.8267 185.1094,187.8267 68.1018,0 148.879,-56.3988 154.982,-130.0459 h -71.0948 v -64.1939 h 149.2207 v 23.9415 c 0,135.8534 -99.6706,234.4834 -237.0073,234.4834 -136.9308,0 -252.6182,-114.5458 -252.6182,-250.1383 0,-139.3085 116.2589,-252.6343 259.1587,-252.6343 z"
         id="path832" />
      <path
         style="clip-rule:evenodd;fill:none;fill-rule:evenodd;stroke:#000000;stroke-width:21.5865;stroke-opacity:1"
         d="m 4309.1535,1886.0809 v 642.2384 h 654.1476 v -642.2384 z"
         id="path828" />
      <path
         id="path826"
         style="clip-rule:evenodd;fill:#000000;fill-rule:evenodd;stroke-width:22.3058"
         d="m 3550.8506,1875.2873 v 663.8248 h 675.7339 v -663.8248 z m 330.2886,89.6836 h 15.2139 l 234.3559,493.6144 h -76.9497 l -55.8721,-118.4282 h -218.2705 l -55.872,118.4282 h -76.9614 z m 7.623,137.4674 -79.0737,173.5342 h 158.1153 z" />
      <path
         style="clip-rule:evenodd;fill:none;fill-rule:evenodd;stroke:#000000;stroke-width:21.587;stroke-opacity:1"
         d="m 2814.1488,1886.0812 v 642.2379 h 654.1471 v -642.2379 z"
         id="path824" />
      <path
         style="clip-rule:evenodd;fill:none;fill-rule:evenodd;stroke:#000000;stroke-width:21.587;stroke-opacity:1"
         d="m 2066.686,1886.0812 v 642.2379 h 654.1471 v -642.2379 z"
         id="path1" />
   </g>
</svg>