<?xml version="1.0" encoding="UTF-8" standalone="no"?>
<svg
   fill="none"
   width="7030.000000pt"
   height="4686.000000pt"
   viewBox="0 0 7030.000000 4686.000000"
   version="1.1"
   id="svg91"
   sodipodi:docname="stadt-graz.svg"
   inkscape:version="1.2.2 (b0a8486541, 2022-12-01)"
   xmlns:inkscape="http://www.inkscape.org/namespaces/inkscape"
   xmlns:sodipodi="http://sodipodi.sourceforge.net/DTD/sodipodi-0.dtd"
   xmlns="http://www.w3.org/2000/svg"
   xmlns:svg="http://www.w3.org/2000/svg">
  <sodipodi:namedview
     id="namedview1134"
     pagecolor="#ffffff"
     bordercolor="#666666"
     borderopacity="1.0"
     inkscape:showpageshadow="2"
     inkscape:pageopacity="0.0"
     inkscape:pagecheckerboard="0"
     inkscape:deskcolor="#d1d1d1"
     inkscape:document-units="pt"
     showgrid="false"
     inkscape:zoom="0.098597642"
     inkscape:cx="4092.39"
     inkscape:cy="2393.5664"
     inkscape:window-width="1908"
     inkscape:window-height="999"
     inkscape:window-x="3840"
     inkscape:window-y="0"
     inkscape:window-maximized="1"
     inkscape:current-layer="svg91" />
  <defs
     id="defs95" />
  <g
     id="g1294"
     transform="translate(-357.6855,-502.34815)"
     style="display:inline">
    <path
       id="path1025"
       style="clip-rule:evenodd;fill:#006f9a;fill-rule:evenodd;stroke-width:22.3058"
       d="m 3908.5427,2513.4358 v 663.8247 h 675.7339 v -663.8247 z m 330.2886,89.6836 h 15.2138 l 234.356,493.6143 h -76.9497 l -55.8721,-118.4283 h -218.2705 l -55.8721,118.4283 h -76.9614 z m 7.623,137.4683 -79.0737,173.5341 h 158.1152 z" />
    <path
       id="path1023"
       style="clip-rule:evenodd;fill:#98958c;fill-rule:evenodd;stroke-width:22.3058"
       d="m 3161.0373,2513.4358 v 663.8247 h 675.7222 v -663.8247 z m 201.3604,100.5322 h 79.2085 c 40.3153,0 90.4792,-7e-4 131.7114,22.5059 41.3349,23.4411 66.958,68.4202 66.958,117.397 0,69.6073 -46.161,124.3598 -113.3481,136.0078 l 155.5561,206.855 h -86.9853 l -144.1685,-199.8999 h -17.5444 v 199.8999 h -71.3877 z m 71.3877,62.9678 v 160.7417 h 14.2983 c 58.0686,0 124.7256,-9.2537 124.7256,-81.3281 0,-54.1808 -40.6611,-79.4136 -127.957,-79.4136 z" />
    <path
       id="path1021"
       style="clip-rule:evenodd;fill:#98958c;fill-rule:evenodd;stroke-width:22.3058"
       d="m 4656.0422,2513.4358 v 663.8247 h 675.7544 v -663.8247 z m 183.7339,100.5762 h 336.9507 l -248.1519,418.56 h 244.2481 v 64.1631 h -361.6875 l 248.1738,-418.4897 h -219.5332 z" />
    <path
       id="path1017"
       style="clip-rule:evenodd;fill:#98958c;fill-rule:evenodd;stroke-width:22.3058"
       d="m 2413.5744,2513.4358 v 663.8247 h 675.7222 v -663.8247 z m 352.2159,90.5303 c 79.0717,0 155.1078,34.8806 203.3686,93.3061 l 3.1084,3.7705 -50.6411,46.6436 -3.4204,-4.5176 c -35.0023,-46.2688 -92.4151,-75.0205 -149.8257,-75.0205 -106.7442,0 -190.3403,81.9534 -190.3403,186.5786 0,100.0548 86.4865,187.8267 185.1093,187.8267 68.1018,0 148.879,-56.3989 154.982,-130.0459 h -71.0947 v -64.1939 h 149.2207 v 23.9414 c 0,135.8533 -99.6708,234.4834 -237.0074,234.4834 -136.9306,0 -252.6181,-114.5458 -252.6181,-250.1381 0,-139.3084 116.259,-252.6343 259.1587,-252.6343 z" />
  </g>
</svg>
