<?xml version="1.0" encoding="UTF-8" standalone="no"?>
<svg
   width="7030.000000pt"
   height="4686.000000pt"
   viewBox="0 0 7030.000000 4686.000000"
   version="1.1"
   id="svg1"
   sodipodi:docname="tux.svg"
   inkscape:version="1.4 (e7c3feb100, 2024-10-09)"
   xmlns:inkscape="http://www.inkscape.org/namespaces/inkscape"
   xmlns:sodipodi="http://sodipodi.sourceforge.net/DTD/sodipodi-0.dtd"
   xmlns="http://www.w3.org/2000/svg"
   xmlns:svg="http://www.w3.org/2000/svg">
  <defs
     id="defs1" />
  <sodipodi:namedview
     id="namedview1"
     pagecolor="#ffffff"
     bordercolor="#666666"
     borderopacity="1.0"
     inkscape:showpageshadow="2"
     inkscape:pageopacity="0.0"
     inkscape:pagecheckerboard="0"
     inkscape:deskcolor="#d1d1d1"
     inkscape:document-units="pt"
     inkscape:zoom="0.13716604"
     inkscape:cx="4571.1023"
     inkscape:cy="3061.9824"
     inkscape:window-width="2560"
     inkscape:window-height="1416"
     inkscape:window-x="0"
     inkscape:window-y="0"
     inkscape:window-maximized="1"
     inkscape:current-layer="svg1" />
  <path
     d="m 3400.4271,1857.8238 c -29.6612,35.5098 -35.5098,83.9702 -33.8388,128.6707 1.8403,37.1809 3.3839,74.1528 3.8434,111.3336 0.042,22.1414 4.9087,44.4917 2.4857,66.6331 -5.8278,15.4363 -15.1021,29.0345 -25.9012,41.3584 -21.3059,27.5723 -44.0739,53.8914 -64.5443,82.0903 -16.1883,21.5148 -21.5147,48.0427 -28.6167,73.3173 -12.1986,41.7762 -34.8831,79.3748 -53.8913,118.0178 -7.2273,15.2065 -8.585,33.4209 -3.7181,49.2959 -13.8279,12.0942 -16.8985,32.5854 -31.1233,44.0739 -23.8124,7.3108 -52.0113,-1.0987 -73.3172,14.5381 -14.9768,10.089 -21.9325,29.0345 -18.3398,46.5805 4.7625,29.2433 14.2248,61.411 -0.058,89.61 -9.5458,17.9011 -20.8881,39.0607 -12.303,59.5311 6.1202,14.8723 20.8254,24.4391 36.5541,26.319 34.2565,10.0263 68.3041,21.5147 103.1873,29.2433 27.1545,7.0393 54.9357,12.2196 81.0458,22.7681 20.4286,9.4623 42.8207,20.4285 65.7976,14.0577 34.4653,-6.7887 68.3041,-30.4967 76.6593,-66.2153 3.2377,-11.6974 23.1858,-8.7313 33.8387,-9.2535 18.5278,-0.9107 35.9276,0.1943 54.1002,0.4199 42.194,0.5264 84.1791,7.7286 124.9109,18.486 3.4257,23.3946 21.7236,41.5673 43.2384,49.7137 29.6611,13.4101 65.5887,13.1803 93.5787,-3.6764 27.1546,-15.5616 45.5361,-42.1939 71.4373,-59.5311 29.87,-21.9325 66.4242,-32.5854 97.1297,-53.4735 12.2405,-8.7103 22.3503,-20.6792 27.7812,-34.6743 3.8016,-10.6111 0.6977,-27.99 -9.1072,-37.1808 -11.384,-11.0289 -25.9013,-18.0473 -37.5986,-29.0345 -13.995,-11.4675 -30.7055,-25.0657 -30.2877,-45.1183 -0.234,-20.6792 -5.7443,-43.4472 -21.5148,-53.4735 -1.646,-1.0507 -7.9793,-5.222 -13.1177,-6.914 2.0533,-5.4309 6.7677,-17.1282 7.4779,-22.3503 5.8278,-42.4028 -1.0548,-84.8057 -12.0315,-125.3286 -12.7,-41.5673 -27.5723,-83.7613 -54.3091,-118.6444 -18.9037,-23.1858 -40.1052,-44.4917 -56.6068,-69.7663 -8.2299,-12.6582 -15.6243,-25.4835 -21.7236,-39.2697 -9.8801,-21.9325 -19.1126,-44.0739 -31.9588,-64.5442 -3.1541,-33.421 -5.4936,-67.0508 -5.7025,-100.6807 -0.5702,-37.1808 -5.5771,-75.406 -24.439,-108.2004 -21.3059,-39.6874 -58.2779,-71.0195 -102.1429,-82.2991 -14.5381,-3.9896 -29.6611,-6.0576 -58.2778,-6.2247 -28.6167,-0.1671 -72.064,16.3345 -98.5919,49.7137 z m 170.6558,77.7038 c 15.6661,0.919 26.5279,15.9585 31.9588,29.4522 3.0705,6.9139 0.6496,11.76 -2.5484,2.6737 -8.5432,-14.4755 -22.3502,-26.7368 -39.0607,-30.2878 2.7572,-2.9661 6.538,-2.0199 9.6503,-1.8381 z m -150.3944,8.1463 c 12.0316,0.4408 23.1858,7.1437 31.5411,15.4154 4.3656,5.5354 10.0471,24.2302 2.0846,9.9637 -7.3317,-13.2013 -21.3059,-23.6036 -36.7631,-25.2746 1.0444,-0.084 2.0888,-0.088 3.1332,-0.1045 z m 133.475,14.747 c 26.9457,0.5201 45.745,26.1102 49.296,50.967 2.8825,20.6792 1.7546,44.4917 -12.3658,60.9933 -7.0811,-3.1124 -22.9769,-4.4492 -24.2302,-8.0002 24.4391,-11.1124 23.1858,-50.1314 0.4345,-63.0821 -14.0368,-8.021 -32.1677,0.1379 -36.5542,15.1648 -3.6972,10.82 -3.7181,23.1858 1.153,33.6299 -12.7626,-4.9087 -22.768,-12.9716 -26.1101,-26.7368 -4.0732,-21.3059 6.1202,-43.865 24.4391,-55.3535 7.8121,-4.6789 16.8984,-7.9375 24.0213,-7.5824 z m -135.7727,7.8122 c 20.2615,-0.1421 34.0476,19.1544 39.8963,36.5542 3.3212,11.6137 9.7756,31.3321 -6.1202,35.9275 -12.6164,9.0863 -8.9401,-10.632 -9.8801,-19.6975 -1.5165,-14.7052 -26.7368,-29.2433 -35.9275,-11.1125 -7.9166,17.6923 -4.6372,41.5674 12.3657,52.847 -6.3291,5.9739 -16.0211,20.7418 -20.6792,5.8904 -9.3161,-17.8593 -8.585,-38.8519 -9.4205,-58.4867 -0.2193,-18.2353 9.0445,-40.5229 29.6611,-41.9851 z m 140.577,38.643 c 10.7782,0.067 21.3059,15.3109 14.9976,24.4391 -7.6659,-2.0074 -5.4518,-17.379 -16.8775,-17.0447 -3.8852,-1.9802 -2.8408,-7.8331 1.8799,-7.3109 z m -132.8484,2.6736 c 10.2352,1.1343 16.9612,18.6531 8.1673,24.648 -5.2429,-4.9296 -1.0966,-16.3763 -10.4232,-20.2823 -0.9316,-1.7922 -0.088,-4.5119 2.2559,-4.303 z m 58.2778,30.0789 c 26.5279,-0.7979 47.2072,18.9455 71.0196,27.3634 12.4911,5.7443 26.5279,6.8931 39.0608,12.4702 8.9401,5.7234 11.3631,17.8803 8.2925,27.5723 -2.5483,11.5929 -1.3076,27.5723 -16.2509,30.9144 -23.6036,5.7652 -40.1052,24.648 -60.3666,36.5542 -23.8125,12.9506 -54.9357,21.097 -80.0015,6.5798 -19.5095,-12.0107 -27.5723,-35.5098 -45.7449,-48.8782 11.6138,5.8905 18.6322,18.8411 31.9588,22.1414 25.4835,8.5223 52.2202,-0.1567 77.286,-6.538 21.097,-5.974 39.2696,-19.1544 55.1446,-34.0476 5.6189,-5.8696 27.99,-10.4232 20.7627,-18.3815 -14.747,-3.8852 -21.9325,12.4075 -33.0032,18.5904 -18.7157,15.0185 -40.5229,26.5279 -64.5442,30.2877 -24.4391,5.3474 -53.2647,6.7887 -73.5261,-10.3187 -6.8722,-8.3761 -22.5592,-10.9454 -26.9457,-11.5302 -3.7181,-10.3187 1.3828,-22.5592 7.6868,-30.9144 7.4989,-10.3605 18.9246,-16.5434 27.1546,-26.1101 16.7313,-15.4781 39.0607,-25.4835 62.0376,-25.6924 z m 13.7235,11.6974 c -11.1751,0.2381 -4.1149,6.8513 2.2977,8.7521 17.0656,5.4727 15.5408,-8.5433 -2.2977,-8.7521 z m -47.8337,1.8611 c -12.4911,3.2794 -1.3222,15.0603 1.6773,1.9217 0.021,-0.8815 -0.6831,-2.0136 -1.6773,-1.9217 z m 151.2299,87.3123 c 9.3578,25.0657 22.1413,48.4604 33.8387,72.2728 12.1986,25.9013 20.5539,53.6825 24.648,82.0903 36.1364,36.5542 55.5623,86.8945 59.9488,137.6526 3.5719,36.1364 1.2805,72.4817 -3.2376,108.2004 -16.9194,-2.3395 -36.5542,-7.4153 -51.1759,4.1985 -15.0394,11.4049 -14.935,31.9588 -13.0133,49.087 1.7191,28.4079 1.6899,56.8157 -1.1154,85.2235 -32.5855,32.1677 -68.513,64.5443 -114.4668,75.4061 -25.9013,6.2246 -52.8469,8.1672 -79.166,3.4674 -14.8096,-2.3186 -29.4522,-6.2038 -43.2383,-11.9062 -9.4206,-17.8593 -22.977,-33.0032 -35.3009,-48.8782 15.7078,0 30.7055,-13.3684 29.2433,-29.87 -1.8569,-24.2302 -22.5591,-40.314 -40.5229,-54.1002 -32.3766,-25.4835 -64.3354,-51.5936 -93.3698,-80.8369 -17.5878,-19.4051 -19.8646,-47.416 -19.9691,-72.2729 0,-27.3634 10.4859,-52.8469 22.5592,-76.8682 7.3944,-15.4363 14.1621,-31.5411 24.6479,-45.1183 -8.4805,26.5279 -19.593,52.2202 -30.7055,77.9126 -13.995,35.3009 -13.7443,77.4949 6.9975,110.0803 -0.9671,-75.6149 26.3191,-149.5588 68.3041,-210.9698 -3.8643,-30.9144 9.713,-60.5756 27.3635,-85.0146 12.6164,-18.4233 28.8256,-36.7631 28.8256,-60.3667 1.4579,-7.1228 -3.1959,-28.8255 6.8721,-14.4128 13.4311,14.9768 25.2746,34.0477 46.1628,39.0608 28.8255,7.4571 59.5311,-2.0617 83.9701,-17.8384 15.1857,-10.2979 29.87,-22.7681 48.2516,-26.3191 5.1593,-1.6961 10.2143,-4.3656 13.4728,-8.8356 z m 18.7366,42.1939 c -3.0288,-6.0575 -3.0288,-6.0575 0,0 z m 71.6462,118.6445 c 21.7236,12.3449 45.9538,21.5147 63.4998,40.1052 29.2434,28.1989 39.0608,72.0639 31.5411,111.3336 -3.4466,20.6374 -10.1516,40.5229 -17.8176,59.9488 -8.3761,2.9244 -9.9009,1.2575 -5.8695,-6.538 13.5981,-39.2696 24.0213,-83.3435 9.2534,-123.8664 -8.7103,-25.6924 -27.7812,-46.7894 -51.3847,-59.9489 -10.2352,-6.3291 -20.6375,-12.6373 -29.2434,-21.097 z m 66.2153,217.2363 c 15.687,1.2533 31.541,1.2595 47.2071,3.3421 17.4834,2.9452 -8.0001,0.6245 -15.499,1.1927 -17.2953,1.3118 -36.3453,1.4287 -50.1314,13.3684 -4.867,3.8225 -10.2352,6.4962 -3.9061,-0.94 5.4518,-7.8121 13.2848,-14.0577 22.3503,-16.9611 z m -526.3803,9.2952 c 24.0213,1.7337 38.4341,23.6036 51.1759,41.3585 22.9769,31.3321 43.2384,64.7531 62.6643,98.3829 17.1282,31.1233 45.7449,54.3091 60.1577,87.1034 14.7888,33.0032 3.4884,75.8239 -27.5723,95.2498 -21.3058,14.6008 -49.2959,14.2248 -72.4817,4.4074 -24.648,-10.3605 -49.2959,-20.8672 -75.6149,-26.7368 -36.5542,-8.7521 -73.735,-15.8123 -109.2448,-28.6167 -15.5408,-5.7024 -36.972,-6.2664 -44.7006,-23.6036 -6.7468,-18.6948 7.7495,-35.3009 13.7235,-52.0113 11.5302,-32.5855 -0.073,-67.0509 0.3843,-100.4718 -0.2631,-15.7288 10.3397,-31.5411 26.5279,-33.6299 20.0944,-4.0732 43.8651,4.7625 60.7844,-10.1307 16.6479,-14.4337 19.6766,-41.7762 41.9851,-49.9226 3.8017,-1.3097 7.8748,-1.8005 11.8854,-1.5937 z m 492.9593,26.7368 c -4.3029,18.2771 -4.7625,40.314 8.2926,55.3535 18.0264,16.8358 46.7894,16.794 68.0952,6.517 22.9769,-10.7991 43.865,-29.8699 51.3848,-54.7268 13.055,2.4648 22.768,13.4311 25.0657,26.319 3.7181,14.8097 0.424,31.5411 9.7965,44.7006 11.7809,18.0891 29.87,30.7055 46.7894,43.865 10.9871,7.0393 24.8568,15.7914 23.8124,30.7055 -3.3003,18.862 -20.1779,32.1677 -36.1364,40.9407 -34.2565,18.2562 -71.4373,32.5854 -100.6807,59.1133 -22.9769,19.4678 -41.9851,45.745 -72.4817,54.1002 -27.3634,7.854 -58.2778,0.3405 -80.4192,-17.2118 -18.4442,-15.4363 -17.7131,-41.5673 -15.875,-63.4998 4.5536,-41.7762 15.4363,-82.7169 16.9403,-124.702 1.717,-27.5723 0.042,-55.1446 -1.3536,-82.7169 -0.6433,-11.5511 7.1229,-24.0213 19.6348,-24.4391 11.6556,0.7896 28.8256,-0.5786 37.1809,5.6816 z"
     id="path1"
     style="stroke-width:2.08881" />
</svg>
