<?xml version="1.0" standalone="no"?>
<!DOCTYPE svg PUBLIC "-//W3C//DTD SVG 20010904//EN"
 "http://www.w3.org/TR/2001/REC-SVG-20010904/DTD/svg10.dtd">
<svg version="1.0" xmlns="http://www.w3.org/2000/svg"
 width="7030.000000pt" height="4687.000000pt" viewBox="0 0 7030.000000 4687.000000"
 preserveAspectRatio="xMidYMid meet">
<metadata>
Created by potrace 1.16, written by Peter Selinger 2001-2019
</metadata>
<g transform="translate(0.000000,4687.000000) scale(0.100000,-0.100000)"
fill="#000000" stroke="none">
<path d="M35075 29840 c-122 -11 -416 -73 -545 -116 -286 -95 -591 -286 -731
-460 -188 -231 -309 -482 -394 -816 -53 -208 -57 -274 -65 -1233 -9 -1044 -11
-1063 -106 -1410 -55 -199 -70 -237 -159 -420 -120 -247 -199 -360 -520 -750
-44 -53 -105 -125 -135 -159 -97 -107 -380 -482 -428 -566 -14 -25 -37 -58
-52 -75 -69 -76 -345 -529 -417 -683 -23 -51 -56 -112 -71 -135 -31 -46 -192
-445 -253 -624 -21 -61 -49 -158 -63 -216 -69 -278 -83 -398 -94 -797 l-7
-245 -30 -42 c-47 -65 -333 -401 -392 -459 -62 -62 -150 -107 -383 -196 -310
-118 -408 -182 -504 -326 -95 -145 -115 -266 -91 -552 8 -102 20 -248 26 -325
16 -195 8 -272 -46 -448 -60 -200 -75 -278 -75 -394 0 -168 37 -261 144 -368
98 -98 234 -164 421 -204 96 -21 411 -70 555 -86 495 -55 729 -118 1091 -291
343 -163 816 -277 1084 -259 258 17 494 86 630 186 22 16 108 96 190 178 96
94 166 155 195 168 30 15 117 32 260 53 118 17 289 42 380 55 472 69 660 76
920 37 184 -27 248 -35 610 -72 299 -31 381 -46 419 -77 11 -10 46 -64 76
-121 103 -193 248 -354 383 -425 76 -40 264 -115 354 -141 108 -31 416 -14
601 34 173 44 417 161 575 274 101 74 253 210 418 379 217 220 309 279 854
555 402 203 427 216 542 294 158 108 227 208 250 365 10 69 9 93 -5 160 -21
100 -95 248 -187 373 -38 52 -99 136 -135 185 -114 157 -180 320 -259 644 -63
255 -145 387 -331 536 -96 76 -99 88 -60 237 67 259 96 573 77 851 -25 354
-68 538 -236 1007 -54 149 -217 485 -328 675 -127 216 -141 239 -212 340 -121
175 -351 476 -461 605 -130 152 -514 653 -608 793 -128 189 -294 565 -331 747
-26 127 -36 267 -46 653 -25 938 -31 1091 -46 1218 -43 376 -140 725 -270 979
-277 538 -751 847 -1379 899 -172 14 -495 20 -600 11z m782 -1791 c86 -21 123
-39 182 -87 49 -40 150 -172 187 -244 106 -209 137 -469 82 -678 -53 -198
-128 -327 -202 -346 -34 -8 -105 13 -186 55 -53 27 -55 30 -58 73 -2 24 7 87
18 139 64 286 15 494 -134 571 -58 30 -197 37 -246 11 -61 -32 -126 -172 -165
-355 -19 -91 -44 -128 -86 -128 -35 0 -176 69 -203 99 -26 28 -31 98 -17 230
34 323 136 491 371 609 168 84 279 97 457 51z m-1652 -124 c58 -28 195 -152
195 -176 0 -8 11 -25 25 -37 46 -44 115 -306 115 -438 0 -114 -69 -207 -173
-235 -80 -21 -104 3 -127 128 -16 94 -80 235 -128 286 -21 22 -35 27 -71 27
-91 0 -142 -58 -169 -191 -21 -107 -7 -225 43 -363 41 -113 42 -134 14 -170
-50 -63 -116 -69 -180 -17 -107 88 -187 414 -160 647 25 208 129 419 255 514
72 55 93 60 209 56 81 -3 108 -9 152 -31z m797 -944 c89 -23 328 -120 461
-188 51 -25 196 -90 323 -143 231 -97 323 -148 412 -229 l42 -39 0 -122 c0
-91 -4 -131 -16 -155 -19 -41 -164 -182 -254 -248 -40 -30 -129 -75 -235 -121
-93 -40 -276 -127 -405 -193 -294 -150 -349 -167 -545 -167 -138 -1 -141 0
-215 33 -124 56 -243 127 -347 209 -55 42 -148 111 -209 152 -133 91 -309 262
-344 335 -62 127 -9 254 155 373 28 20 149 109 270 197 121 88 243 175 270
192 75 47 215 111 281 128 79 20 253 13 356 -14z m1324 -1109 c6 -4 16 -17 22
-29 15 -27 83 -241 128 -399 18 -67 42 -142 53 -166 10 -25 56 -146 101 -269
46 -123 105 -276 132 -339 28 -63 65 -153 83 -200 42 -109 214 -475 440 -940
97 -201 201 -417 230 -480 76 -165 198 -523 229 -675 32 -149 55 -211 96 -250
24 -23 42 -29 110 -36 252 -28 569 -131 765 -247 236 -140 415 -356 470 -567
28 -108 14 -243 -27 -269 -26 -16 -51 15 -83 99 -36 96 -76 155 -154 226 -215
198 -703 399 -966 399 -125 0 -250 -46 -315 -116 -22 -24 -70 -104 -109 -181
-76 -151 -98 -177 -223 -262 -91 -62 -209 -184 -256 -263 -52 -88 -99 -204
-127 -315 -30 -121 -90 -580 -105 -813 -14 -203 -68 -533 -110 -660 -49 -151
-94 -226 -173 -285 -97 -74 -437 -245 -628 -316 -158 -59 -445 -135 -602 -159
-40 -7 -200 -14 -357 -17 l-285 -5 -140 31 c-334 75 -571 167 -773 300 -115
76 -195 155 -287 285 -84 118 -115 173 -115 204 0 33 41 70 86 77 102 15 209
100 245 194 50 127 29 341 -43 456 -17 28 -46 76 -64 108 -102 177 -322 393
-668 655 -279 211 -412 325 -453 390 -79 123 -133 299 -154 501 -15 143 -6
489 16 631 34 223 119 496 243 775 84 192 336 676 618 1191 157 288 267 523
363 776 64 170 156 496 181 643 16 92 23 113 44 132 14 12 33 19 44 16 10 -2
63 -35 118 -73 337 -235 512 -335 631 -364 83 -21 281 -28 400 -16 166 17 251
52 609 246 117 64 260 136 316 160 137 60 207 96 303 159 101 66 118 73 141
57z m-4644 -4972 c40 -12 104 -45 156 -80 209 -139 295 -259 582 -810 223
-428 206 -403 634 -950 173 -221 241 -320 310 -451 92 -175 98 -202 94 -418
l-3 -186 -35 -65 c-22 -42 -67 -97 -125 -156 -76 -76 -105 -97 -185 -137 -153
-74 -315 -104 -521 -94 -229 11 -426 68 -819 235 -345 146 -474 178 -1115 273
-488 72 -523 83 -667 218 l-48 44 0 147 c0 165 14 264 60 414 36 120 38 183
14 582 -12 208 -13 278 -3 322 16 82 70 193 109 225 44 38 229 126 360 172
251 89 335 152 536 402 169 209 276 296 409 330 65 17 173 10 257 -17z m5892
-89 c9 -10 39 -79 65 -154 62 -171 93 -229 161 -297 111 -112 208 -146 390
-137 186 10 274 44 494 192 211 142 267 164 411 165 137 0 258 -40 351 -116
76 -61 160 -255 210 -483 13 -62 34 -141 45 -175 31 -94 112 -257 147 -297
105 -120 179 -224 225 -319 44 -90 51 -114 52 -165 0 -78 -31 -142 -105 -217
-82 -81 -157 -126 -515 -306 -510 -256 -549 -282 -804 -521 -320 -301 -410
-371 -596 -463 -215 -107 -345 -140 -555 -141 -122 -1 -143 2 -215 27 -147 50
-250 112 -329 198 -80 86 -131 164 -160 247 -16 45 -20 90 -24 239 -6 266 7
342 128 727 124 394 139 469 195 955 61 539 84 650 165 815 97 199 205 291
264 226z"/>
<path d="M35760 26209 c-320 -178 -380 -210 -495 -260 -356 -152 -594 -184
-817 -109 -131 44 -219 98 -368 225 -145 124 -175 145 -211 145 -65 0 -34 -60
86 -163 155 -135 294 -215 502 -289 111 -39 124 -42 228 -42 255 0 459 71 985
342 230 119 287 153 298 175 17 35 2 57 -37 57 -15 0 -91 -36 -171 -81z"/>
</g>
</svg>
