<?xml version="1.0" standalone="no"?>
<!DOCTYPE svg PUBLIC "-//W3C//DTD SVG 20010904//EN"
 "http://www.w3.org/TR/2001/REC-SVG-20010904/DTD/svg10.dtd">
<svg version="1.0" xmlns="http://www.w3.org/2000/svg"
 width="7030.000000pt" height="4687.000000pt" viewBox="0 0 7030.000000 4687.000000"
 preserveAspectRatio="xMidYMid meet">
<metadata>
Created by potrace 1.16, written by Peter Selinger 2001-2019
</metadata>
<g transform="translate(0.000000,4687.000000) scale(0.100000,-0.100000)"
fill="#000000" stroke="none">
<path fill="#ea4f06" d="M23013 29603 c-13 -2 -32 -16 -43 -30 -20 -26 -20 -26 -20 -4514 l0
-4488 24 -28 24 -28 2840 0 c2377 0 2842 2 2855 14 9 7 21 30 27 50 14 52 14
8912 -1 8964 -20 73 228 67 -2881 66 -1542 -1 -2813 -4 -2825 -6z m3983 -3959
c172 -84 269 -191 329 -364 25 -71 30 -101 30 -180 0 -81 -5 -109 -33 -189
-33 -95 -42 -110 -125 -208 -70 -83 -123 -118 -257 -169 -65 -25 -88 -29 -180
-29 -92 0 -115 4 -180 28 -75 29 -89 35 -150 72 -32 20 -106 89 -145 136 -11
13 -37 58 -58 99 -75 147 -75 374 0 521 55 108 173 225 278 273 107 50 139 56
286 52 122 -3 127 -5 205 -42z m-965 -24 c25 -14 24 -42 -1 -65 -10 -9 -27
-38 -37 -64 -9 -25 -25 -59 -34 -76 -10 -16 -23 -61 -29 -100 -27 -164 -38
-175 -197 -188 -70 -5 -141 -17 -173 -29 -30 -10 -82 -26 -115 -34 -33 -8 -71
-23 -85 -33 -14 -10 -43 -24 -65 -31 -22 -7 -51 -21 -64 -32 -14 -10 -43 -27
-65 -38 -23 -11 -57 -32 -77 -47 -20 -16 -60 -47 -90 -69 -55 -42 -157 -146
-217 -222 -52 -65 -62 -65 -212 -1 -46 19 -98 31 -175 40 -167 18 -170 33 -42
204 116 155 224 271 326 349 97 74 126 95 151 112 14 9 38 26 55 37 16 12 50
32 75 44 25 13 56 30 70 38 54 30 176 85 190 85 8 0 39 11 68 25 28 13 79 29
111 35 33 6 86 20 118 31 92 32 468 53 514 29z m1550 -920 c10 -6 30 -33 44
-60 13 -27 29 -51 35 -55 5 -3 15 -25 21 -48 6 -23 20 -55 31 -70 11 -16 27
-53 35 -84 8 -30 23 -71 33 -91 11 -19 22 -56 25 -81 4 -25 19 -86 33 -136 27
-89 27 -93 27 -395 -1 -260 -3 -313 -18 -360 -10 -30 -26 -93 -36 -140 -11
-47 -31 -112 -45 -145 -14 -33 -26 -66 -26 -74 0 -7 -11 -34 -25 -60 -14 -25
-32 -62 -40 -81 -27 -61 -129 -236 -154 -261 -9 -9 -24 -26 -33 -38 -24 -29
-46 -17 -59 33 -6 22 -17 48 -25 56 -7 9 -20 33 -29 53 -19 45 -88 138 -144
192 -47 46 -54 86 -20 128 11 15 27 48 36 74 9 27 24 58 34 71 9 12 20 42 24
65 4 23 18 71 31 106 60 158 59 627 0 770 -13 31 -26 73 -30 93 -4 21 -20 63
-36 94 -40 75 -39 108 4 148 132 121 174 169 217 247 34 60 51 70 90 49z
m-3077 -364 c41 -20 78 -36 83 -36 12 0 151 -137 181 -177 27 -38 81 -164 92
-218 5 -22 9 -74 9 -115 0 -93 -9 -135 -48 -228 -32 -76 -49 -102 -115 -178
-120 -137 -361 -221 -531 -184 -62 13 -186 64 -230 94 -84 58 -183 170 -200
226 -4 14 -19 48 -34 75 -24 47 -25 58 -25 195 0 137 1 148 25 195 15 28 30
61 34 74 12 38 90 135 152 188 64 55 173 110 243 123 25 5 100 7 168 5 116 -4
126 -6 196 -39z m136 -1356 c8 -5 26 -29 40 -54 86 -152 250 -334 375 -414 22
-14 49 -34 61 -44 23 -20 83 -54 154 -88 25 -12 61 -30 80 -40 19 -10 55 -23
80 -30 25 -6 66 -20 92 -31 26 -11 82 -24 124 -29 110 -14 107 -10 149 -195
15 -66 35 -130 44 -144 10 -15 22 -37 26 -51 4 -14 17 -38 28 -54 29 -40 14
-60 -49 -64 -81 -6 -292 18 -344 38 -26 10 -76 24 -111 30 -35 7 -87 23 -115
36 -28 13 -58 24 -66 24 -8 0 -39 13 -69 29 -30 15 -71 34 -91 40 -20 7 -42
18 -48 26 -7 8 -35 26 -63 39 -29 14 -70 39 -92 55 -22 17 -58 42 -80 57 -44
29 -157 126 -221 189 -100 99 -303 366 -304 400 0 6 -14 30 -30 54 -17 24 -30
52 -30 61 0 10 -9 29 -20 43 -23 29 -26 52 -7 64 6 4 80 10 162 14 123 5 158
10 195 27 47 23 105 28 130 12z m2113 -154 c71 -16 121 -33 146 -50 20 -14 43
-26 50 -26 22 0 149 -133 187 -195 22 -37 46 -97 61 -155 70 -269 -46 -540
-287 -672 -74 -40 -189 -68 -285 -68 -84 0 -212 27 -255 54 -19 11 -51 28 -70
38 -57 27 -146 121 -182 192 -11 23 -27 48 -34 57 -20 22 -45 159 -45 244 -1
114 19 202 64 284 44 81 142 188 197 216 19 10 47 27 61 37 28 21 188 60 269
66 8 1 64 -9 123 -22z"/>
<path d="M34225 26095 c-49 -13 -121 -27 -158 -31 -42 -4 -77 -14 -90 -24
l-22 -18 -3 -2109 c-1 -1159 0 -2118 3 -2130 7 -32 113 -80 212 -98 45 -7 110
-23 145 -33 35 -11 97 -23 138 -26 41 -4 149 -16 240 -28 136 -16 202 -19 370
-15 113 3 221 10 240 16 19 5 75 15 124 21 49 6 105 19 125 30 20 10 62 25 93
33 31 8 70 24 86 35 15 11 40 24 54 27 79 20 322 209 399 310 21 27 58 77 83
110 25 33 46 64 46 69 0 5 11 23 24 40 13 17 26 42 31 56 4 14 17 43 30 65 13
23 30 68 39 101 9 34 24 81 35 105 10 24 22 73 26 109 4 36 11 85 17 110 5 25
14 70 19 100 13 76 12 396 -1 455 -6 27 -19 105 -30 174 -10 69 -30 156 -44
194 -15 37 -26 75 -26 85 0 9 -13 44 -29 77 -16 33 -34 71 -40 85 -52 116
-144 244 -250 349 -125 124 -187 168 -333 239 -47 23 -92 42 -100 42 -8 0 -47
11 -87 25 -111 39 -208 48 -465 43 -227 -5 -233 -6 -324 -37 -51 -17 -98 -31
-105 -31 -6 0 -37 -13 -67 -29 -30 -15 -68 -31 -85 -35 -16 -4 -39 -16 -50
-26 -30 -27 -79 -34 -99 -15 -14 15 -16 90 -16 801 l0 784 -26 10 c-32 12 -22
13 -129 -15z m1239 -1829 c60 -20 122 -46 137 -57 15 -10 31 -19 37 -19 12 0
93 -64 146 -116 62 -60 136 -161 152 -207 8 -23 21 -48 28 -57 8 -8 21 -42 30
-76 9 -34 23 -78 32 -99 19 -47 41 -222 50 -410 8 -185 -17 -453 -51 -535 -12
-30 -26 -70 -30 -88 -8 -37 -75 -174 -98 -201 -8 -9 -22 -29 -30 -46 -16 -31
-130 -149 -189 -196 -18 -14 -49 -34 -68 -44 -19 -9 -42 -23 -50 -30 -8 -7
-33 -18 -55 -25 -22 -7 -58 -22 -80 -33 -53 -26 -270 -57 -410 -57 -60 0 -202
9 -315 20 -221 21 -281 39 -307 91 -10 19 -12 236 -10 990 l2 965 29 35 c29
34 89 74 156 104 19 8 58 26 85 40 28 13 70 29 95 35 25 6 63 18 85 27 67 26
132 32 330 29 l190 -2 109 -38z"/>
<path d="M30179 25621 l-24 -19 0 -1279 c0 -1143 2 -1297 18 -1461 10 -111 25
-205 37 -240 10 -31 26 -87 34 -125 9 -37 23 -78 31 -90 8 -13 22 -46 30 -74
8 -28 23 -61 34 -74 10 -13 23 -41 30 -61 7 -20 19 -42 27 -49 9 -7 24 -29 34
-50 19 -35 185 -210 246 -256 16 -13 45 -37 65 -53 20 -17 56 -37 79 -45 23
-8 53 -24 67 -35 14 -11 30 -20 35 -20 5 0 43 -13 84 -30 41 -16 104 -35 142
-41 37 -6 103 -20 147 -32 71 -18 109 -21 335 -20 226 0 265 2 340 21 47 12
116 26 154 32 37 6 85 19 105 29 20 11 56 24 81 31 25 6 61 22 80 34 19 12 49
28 67 35 18 7 38 20 44 28 7 8 29 23 50 33 45 24 219 194 255 252 15 23 35 51
45 62 11 11 19 25 19 31 0 6 11 26 25 45 13 18 30 49 36 69 7 20 20 47 30 61
9 14 24 53 33 86 9 34 24 81 35 105 10 24 22 69 26 99 4 30 19 114 33 185 l27
130 0 1336 c0 1118 -2 1339 -14 1352 -12 15 -39 17 -206 17 -171 0 -194 -2
-208 -18 -15 -16 -16 -137 -19 -1307 -3 -1285 -3 -1290 -26 -1425 -33 -200
-79 -360 -120 -418 -11 -15 -23 -38 -27 -51 -14 -46 -136 -181 -232 -256 -50
-39 -159 -105 -174 -105 -7 0 -37 -12 -67 -26 -65 -31 -264 -63 -386 -64 -131
0 -312 28 -388 61 -36 16 -73 29 -81 29 -8 0 -25 8 -38 19 -13 10 -40 26 -59
36 -19 10 -50 30 -68 44 -59 46 -182 174 -207 216 -56 93 -101 195 -123 275
-12 47 -30 112 -39 145 -15 54 -17 204 -22 1437 -5 1109 -9 1380 -19 1390 -9
10 -63 14 -201 16 -174 3 -189 2 -212 -17z"/>
<path d="M43720 25553 c-59 -10 -220 -52 -239 -62 -11 -7 -23 -22 -26 -34 -3
-12 -4 -654 -2 -1427 3 -1384 3 -1408 25 -1585 32 -256 88 -419 193 -559 61
-81 189 -181 264 -206 22 -7 56 -21 75 -31 36 -18 181 -43 350 -59 78 -8 124
-6 260 11 204 25 252 34 288 53 16 8 51 20 78 27 27 7 79 28 117 47 62 31 67
36 67 66 0 18 -11 65 -25 104 -14 39 -25 80 -25 89 0 37 -22 93 -39 102 -17 9
-70 -6 -246 -72 -74 -28 -308 -43 -458 -29 -120 11 -138 15 -202 48 -85 44
-150 103 -179 164 -12 25 -29 56 -38 70 -9 14 -29 93 -44 175 l-27 150 -4 789
c-3 434 -2 804 2 823 12 63 10 63 610 63 l536 0 15 35 c10 24 14 73 14 163 0
111 -2 131 -18 145 -16 15 -76 17 -570 19 -514 3 -553 4 -569 21 -17 16 -18
50 -20 448 -2 311 -5 435 -14 445 -11 14 -89 17 -149 7z"/>
<path d="M41150 24680 c-74 -4 -164 -14 -200 -23 -36 -8 -114 -22 -175 -31
-60 -8 -139 -24 -174 -36 -35 -11 -89 -23 -120 -26 -88 -10 -118 -26 -131 -71
-8 -27 -10 -430 -8 -1421 l3 -1384 28 -24 c27 -23 34 -24 183 -24 l156 0 29
29 29 29 0 1252 0 1251 23 23 c15 15 41 25 74 30 29 3 87 16 130 28 71 19 104
21 378 22 l300 1 106 -37 c134 -47 168 -67 251 -151 75 -77 132 -172 152 -255
8 -32 21 -77 30 -102 34 -91 39 -227 45 -1150 3 -503 10 -921 15 -929 20 -31
74 -41 225 -41 l150 0 20 26 c21 27 21 31 21 928 0 933 -6 1118 -40 1228 -10
35 -26 95 -34 135 -8 39 -22 82 -30 96 -9 13 -23 47 -31 75 -9 28 -20 54 -25
57 -6 4 -20 25 -32 48 -57 113 -262 303 -358 332 -14 4 -35 16 -48 26 -13 10
-48 23 -79 29 -30 7 -80 20 -110 31 -107 37 -387 47 -753 29z"/>
<path d="M37187 24612 c-16 -17 -17 -82 -17 -888 0 -885 7 -1120 35 -1209 9
-27 24 -92 35 -143 11 -50 26 -102 35 -115 8 -13 22 -46 30 -73 8 -27 26 -65
40 -84 14 -18 25 -39 25 -46 0 -37 267 -304 304 -304 7 0 31 -12 52 -27 21
-14 64 -32 94 -40 30 -8 70 -23 90 -33 36 -18 116 -30 343 -50 188 -16 714 20
849 59 37 11 94 22 125 26 60 6 203 45 261 70 17 8 32 20 32 27 0 7 0 643 0
1413 l1 1400 -22 18 c-18 15 -44 17 -190 17 -156 0 -171 -2 -189 -20 -20 -20
-20 -33 -20 -1275 l0 -1255 -32 -20 c-75 -45 -147 -57 -436 -70 -227 -10 -457
1 -522 25 -125 47 -161 64 -211 102 -135 100 -205 229 -264 488 -25 110 -35
458 -35 1229 0 697 -1 765 -17 777 -12 11 -62 15 -197 17 -168 3 -183 2 -199
-16z"/>
<path d="M45605 24618 c-11 -6 -23 -16 -27 -22 -11 -16 -9 -1664 2 -1776 20
-209 50 -402 69 -447 11 -27 25 -70 31 -98 6 -27 19 -63 30 -80 10 -16 25 -49
33 -72 8 -23 24 -54 36 -70 12 -15 43 -55 69 -88 43 -56 116 -126 192 -184 38
-29 179 -101 197 -101 8 0 40 -11 73 -25 34 -14 96 -29 147 -35 260 -29 304
-30 557 -15 314 19 413 30 500 55 38 10 96 22 130 26 33 4 94 17 135 30 40 13
81 24 90 24 9 0 27 7 39 16 l22 15 0 1418 c0 1217 -2 1420 -14 1430 -10 9 -68
11 -201 9 -171 -3 -188 -5 -201 -22 -12 -17 -14 -207 -14 -1269 0 -826 -3
-1255 -10 -1267 -11 -21 -106 -54 -185 -64 -203 -26 -677 -24 -770 4 -162 48
-308 149 -361 252 -13 26 -28 49 -34 53 -5 3 -16 27 -24 53 -8 26 -23 67 -34
92 -11 25 -25 86 -31 135 -6 50 -18 126 -27 170 -14 69 -17 203 -21 960 -4
799 -6 881 -20 893 -22 16 -349 17 -378 0z"/>
</g>
</svg>
