<?xml version="1.0" standalone="no"?>
<!DOCTYPE svg PUBLIC "-//W3C//DTD SVG 20010904//EN"
 "http://www.w3.org/TR/2001/REC-SVG-20010904/DTD/svg10.dtd">
<svg version="1.0" xmlns="http://www.w3.org/2000/svg"
 width="7030.000000pt" height="4687.000000pt" viewBox="0 0 7030.000000 4687.000000"
 preserveAspectRatio="xMidYMid meet">
<metadata>
Created by potrace 1.16, written by Peter Selinger 2001-2019
</metadata>
<g transform="translate(0.000000,4687.000000) scale(0.100000,-0.100000)"
fill="#ffffff" stroke="none">
<path d="M37770 29709 c-758 -55 -1425 -594 -1639 -1324 -56 -193 -65 -266
-65 -525 -1 -229 1 -253 26 -371 83 -385 267 -715 546 -980 267 -254 588 -415
964 -485 131 -24 399 -29 548 -10 801 105 1430 696 1592 1497 20 100 23 143
23 349 0 208 -3 248 -24 350 -153 748 -718 1317 -1458 1469 -86 18 -345 44
-393 39 -8 0 -62 -4 -120 -9z"/>
<path d="M34920 29509 c-1176 -78 -2329 -508 -3277 -1223 -241 -181 -392 -313
-634 -555 -315 -315 -530 -574 -749 -901 -107 -160 -230 -361 -230 -376 0 -8
59 -13 208 -17 114 -3 252 -12 307 -21 146 -23 372 -81 515 -133 122 -44 356
-152 455 -211 l50 -30 102 137 c719 963 1806 1604 3003 1770 177 25 358 41
467 41 l82 0 5 33 c3 17 7 64 10 102 9 142 91 480 161 671 75 203 208 451 336
628 28 37 48 71 44 74 -19 20 -609 27 -855 11z"/>
<path d="M40320 26679 c-204 -413 -493 -750 -880 -1024 -52 -36 -96 -68 -98
-69 -1 -2 26 -61 62 -132 260 -525 412 -1090 457 -1699 21 -288 2 -704 -47
-1005 -88 -550 -294 -1130 -558 -1575 -36 -60 -65 -114 -65 -120 0 -5 27 -32
60 -60 84 -69 233 -226 322 -337 205 -257 352 -529 455 -843 25 -77 48 -144
52 -148 7 -9 191 235 297 393 689 1033 1049 2272 1020 3510 -12 504 -68 911
-192 1396 -164 639 -459 1307 -803 1816 l-18 27 -64 -130z"/>
<path d="M29970 25629 c-412 -43 -797 -219 -1097 -502 -747 -707 -776 -1891
-65 -2629 348 -361 775 -553 1277 -575 472 -20 926 143 1302 467 216 186 423
496 522 781 160 463 127 986 -89 1424 -222 451 -607 788 -1076 944 -256 85
-519 116 -774 90z"/>
<path d="M31190 21309 c-161 -72 -426 -145 -655 -181 -120 -19 -178 -22 -405
-21 -182 0 -295 5 -360 15 -52 9 -97 14 -99 12 -13 -12 233 -526 344 -719 705
-1225 1769 -2141 3075 -2650 620 -242 1338 -392 1954 -410 94 -3 199 -7 234
-10 34 -2 62 -1 62 4 0 4 -42 71 -93 147 -248 373 -409 847 -434 1282 -3 62
-11 116 -17 120 -6 5 -67 16 -136 26 -244 33 -635 131 -888 222 -371 134 -674
287 -1007 509 -598 399 -1088 932 -1454 1583 -29 50 -58 92 -64 91 -7 0 -32
-9 -57 -20z"/>
<path d="M37325 20824 c-16 -2 -66 -9 -110 -15 -124 -17 -295 -64 -429 -119
-573 -236 -992 -749 -1117 -1366 -31 -154 -38 -444 -15 -604 33 -225 85 -390
189 -595 372 -736 1208 -1140 2019 -975 749 153 1323 739 1464 1495 26 139 27
517 1 652 -85 450 -321 845 -672 1126 -243 195 -537 327 -850 383 -86 15 -413
28 -480 18z"/>
</g>
</svg>
