<?xml version="1.0" encoding="UTF-8" standalone="no"?>
<svg
   xml:space="preserve"
   id="Ebene_1"
   x="0"
   y="0"
   version="1.1"
   width="7030.000000pt"
   height="4657.000000pt"
   viewBox="0 0 7030.000000 4657.000000"
   sodipodi:docname="wienenergie_text.svg"
   inkscape:version="1.4 (e7c3feb100, 2024-10-09)"
   xmlns:inkscape="http://www.inkscape.org/namespaces/inkscape"
   xmlns:sodipodi="http://sodipodi.sourceforge.net/DTD/sodipodi-0.dtd"
   xmlns="http://www.w3.org/2000/svg"
   xmlns:svg="http://www.w3.org/2000/svg"><defs
     id="defs2" /><sodipodi:namedview
     id="namedview2"
     pagecolor="#ffffff"
     bordercolor="#000000"
     borderopacity="0.25"
     inkscape:showpageshadow="2"
     inkscape:pageopacity="0.0"
     inkscape:pagecheckerboard="0"
     inkscape:deskcolor="#d1d1d1"
     inkscape:document-units="pt"
     inkscape:zoom="0.11596728"
     inkscape:cx="4686.6667"
     inkscape:cy="3108.6354"
     inkscape:window-width="1896"
     inkscape:window-height="1016"
     inkscape:window-x="3852"
     inkscape:window-y="52"
     inkscape:window-maximized="1"
     inkscape:current-layer="Ebene_1" /><style
     id="style1">.st1{fill:#ec6827}</style><path
     id="path1"
     style="fill:#000000;stroke-width:12.0624"
     d="m 1685.2242,2072.1157 a 6.0311651,6.0311651 0 0 0 -3.7454,1.3076 l -291.5453,215.5851 -9.5775,7.1023 a 5.7899184,5.7899184 0 0 0 -2.1025,4.4884 5.9708535,5.9708535 0 0 0 5.9552,5.9372 l 315.2575,-0.1206 c 28.7927,-1.0133 44.1602,-4.0964 53.0259,-9.9829 10.7958,-7.165 13.9827,-15.4216 16.0092,-20.8859 14.3059,-39.3112 32.8083,-164.7244 33.713,-170.8279 0.8685,6.1035 19.3708,131.5167 33.713,170.8279 1.9903,5.4643 5.1772,13.7329 15.9729,20.8859 8.8538,5.8865 24.214,8.9576 53.0791,9.9829 h 128.4566 a 5.7899184,5.7899184 0 0 0 3.4281,-1.0616 l 166.8352,-122.8029 a 5.9346665,5.9346665 0 0 0 -3.428,-10.8127 h -317.1308 l 120.6282,-88.9489 a 5.9587911,5.9587911 0 0 0 -3.5512,-10.7607 z m 1627.3374,91.6158 v 321.5841 h 93.2418 v -143.4235 h 1.8902 l 176.4996,150.562 h 15.7087 v -320.6299 h -93.2418 v 142.4513 h -1.9082 l -176.4828,-150.544 z m 729.7649,0 v 321.5841 h 93.2418 v -143.4235 h 1.8732 l 176.4997,150.562 h 15.7257 v -320.6299 h -93.2419 v 142.4513 h -1.9082 l -176.4827,-150.544 z m 1073.7355,0.9409 c -53.9186,0 -96.8858,16.0223 -128.9161,48.06 -31.7155,31.7082 -47.5654,71.0229 -47.5654,117.9611 -0.011,49.166 14.5761,88.3469 43.767,117.5377 28.8446,28.8603 70.7106,43.2893 125.5942,43.2893 44.3978,0 82.4459,-6.0215 114.1615,-18.0754 v -153.6705 h -80.855 v 94.6724 c -9.1987,2.5331 -18.5628,3.7984 -28.0764,3.7984 -26.6456,0 -39.9768,0 -59.9521,-23.0583 -13.3168,-15.3831 -19.9668,-36.2388 -19.9668,-62.5673 0,-28.5551 8.1578,-51.0646 24.4901,-67.5503 16.3397,-16.4928 38.3064,-24.7542 65.8893,-24.7542 32.0292,0 60.1042,6.8225 84.212,20.4601 v -78.9817 c -25.6843,-11.4194 -56.6193,-17.1213 -92.7823,-17.1213 z m -2490.4345,1.8901 -68.046,140.8072 h -1.8901 l -58.5216,-135.5769 h -99.9027 l 140.3489,321.601 h 11.4146 l 82.3037,-169.8207 82.7812,169.8207 h 11.4147 l 140.3307,-321.601 h -98.9497 l -57.5481,135.5769 h -1.9096 l -70.8891,-140.8072 z m 263.0794,5.2303 v 313.5264 h 93.2418 v -313.5264 z m 150.3136,0 v 313.5264 h 227.8827 v -70.4126 h -134.6228 v -58.0439 h 111.3172 v -67.0907 h -111.3172 v -48.0442 h 127.962 v -69.935 z m 729.7661,0 v 313.5264 h 227.8815 v -70.4126 h -134.6408 v -58.0439 h 111.3352 v -67.0907 h -111.3352 v -48.0442 h 127.98 v -69.935 z m 616.5383,0 v 313.5264 h 227.8827 v -70.4126 h -134.6409 v -58.0439 h 111.3353 v -67.0907 h -111.3353 v -48.0442 h 127.9801 v -69.935 z m 273.5592,0 v 313.5264 h 93.2406 v -82.3049 c 6.6668,-1.8974 17.7714,-4.4389 33.3076,-7.6148 l 42.813,89.9017 h 95.6264 l -61.8423,-118.4376 c 31.0798,-20.6109 46.6112,-49.7873 46.6112,-87.5351 0,-30.4611 -10.7849,-56.0042 -32.3524,-76.6139 -21.5674,-20.611 -51.8463,-30.9218 -90.8559,-30.9218 z m 614.648,0 v 313.5264 h 93.2418 v -313.5264 z m 150.3136,0 v 313.5264 h 227.9009 v -70.4126 h -134.641 v -58.0439 h 111.3172 v -67.0907 h -111.3172 v -48.0442 h 127.962 v -69.935 z m -672.1975,68.0448 h 23.7833 c 13.6376,0 24.097,3.4884 31.3982,10.4605 7.2941,6.9804 10.955,16.3443 10.955,28.0762 0.011,12.3759 -3.7417,22.3504 -11.2204,29.9496 -7.446,7.6161 -18.9281,13.3361 -34.4729,17.1393 l -20.4432,5.2303 z M 1571.275,2350.6252 a 6.0311651,6.0311651 0 0 0 -4.2062,1.7491 l -165.7389,122.1492 a 5.9467287,5.9467287 0 0 0 3.4282,10.8488 l 316.8654,-0.1206 -120.6643,89.0719 a 5.9467287,5.9467287 0 0 0 3.6753,10.6365 h 314.9571 a 6.0311651,6.0311651 0 0 0 3.6055,-1.2194 l 300.4858,-222.2461 a 6.0311651,6.0311651 0 0 0 2.6682,-4.9649 c 0,-3.2809 -2.691,-5.955 -5.972,-5.955 h -315.0994 c -28.8049,1.0493 -44.1482,4.1337 -53.0261,9.9839 -10.8198,7.1891 -13.9995,15.4567 -16.0259,20.8847 -14.3301,39.3473 -32.7964,164.7486 -33.7131,170.8642 -0.8685,-6.1156 -19.3721,-131.5169 -33.678,-170.8642 -1.9903,-5.428 -5.1832,-13.7076 -15.991,-20.8847 -8.8899,-5.8502 -24.2562,-8.9225 -53.0611,-9.9839 z" /></svg>
