<?xml version="1.0" encoding="UTF-8" standalone="no"?>
<svg
   xml:space="preserve"
   id="Ebene_1"
   x="0"
   y="0"
   version="1.1"
   width="7030.000000pt"
   height="4657.000000pt"
   viewBox="0 0 7030.000000 4657.000000"
   sodipodi:docname="wienenergie.svg"
   inkscape:version="1.2.2 (b0a8486541, 2022-12-01)"
   xmlns:inkscape="http://www.inkscape.org/namespaces/inkscape"
   xmlns:sodipodi="http://sodipodi.sourceforge.net/DTD/sodipodi-0.dtd"
   xmlns="http://www.w3.org/2000/svg"
   xmlns:svg="http://www.w3.org/2000/svg"><defs
     id="defs2" /><sodipodi:namedview
     id="namedview2"
     pagecolor="#ffffff"
     bordercolor="#000000"
     borderopacity="0.25"
     inkscape:showpageshadow="2"
     inkscape:pageopacity="0.0"
     inkscape:pagecheckerboard="0"
     inkscape:deskcolor="#d1d1d1"
     inkscape:document-units="pt"
     inkscape:zoom="0.11596728"
     inkscape:cx="4660.7974"
     inkscape:cy="3104.3239"
     inkscape:window-width="1908"
     inkscape:window-height="999"
     inkscape:window-x="3840"
     inkscape:window-y="0"
     inkscape:window-maximized="1"
     inkscape:current-layer="Ebene_1"
     showgrid="false" /><style
     id="style1">.st1{fill:#ec6827}</style><g
     id="g8992"
     transform="matrix(1.5191903,0,0,1.5191903,-2606.0517,-2436.6846)"><path
       d="m 3831.4946,3393.0455 a 5.9462056,5.9462056 0 0 1 -3.6666,-10.6268 l 120.6609,-89.0604 h -316.8495 a 5.9462056,5.9462056 0 0 1 -3.4254,-10.8439 l 165.7218,-122.1437 a 6.0306345,6.0306345 0 0 1 4.2086,-1.7368 h 128.5008 c 28.8023,1.0614 44.1683,4.125 53.0583,9.9755 10.8069,7.1756 13.9911,15.4625 15.9804,20.8901 14.3046,39.3439 32.8195,164.7328 33.6879,170.8471 0.9166,-6.1143 19.3816,-131.5032 33.7104,-170.8471 2.0263,-5.4276 5.1992,-13.7032 16.0174,-20.8901 8.8771,-5.8505 24.219,-8.927 53.0213,-9.9755 h 315.0645 c 3.2807,0 5.9824,2.6648 5.9824,5.947 a 6.0306345,6.0306345 0 0 1 -2.6647,4.9564 L 4150.044,3391.767 a 6.0306345,6.0306345 0 0 1 -3.6055,1.2222 z"
       style="fill:#000050;stroke-width:12.0613"
       id="path8390" /><path
       style="fill:#ec6827;stroke-width:12.0613"
       d="m 4427.0801,2979.8505 a 5.9341443,5.9341443 0 0 1 3.4254,10.8182 l -166.8074,122.7853 a 5.7894091,5.7894091 0 0 1 -3.4254,1.0614 h -128.4525 c -28.8634,-1.0292 -44.2166,-4.088 -53.0696,-9.9739 -10.7956,-7.1531 -13.991,-15.4255 -15.982,-20.8901 -14.34,-39.3085 -32.8307,-164.7087 -33.6991,-170.8117 -0.9006,6.103 -19.4058,131.5032 -33.7105,170.8117 -2.0263,5.4646 -5.2105,13.7257 -16.0061,20.8901 -8.8642,5.8859 -24.2431,8.9624 -53.0326,9.9739 l -315.2221,0.1608 a 5.9703282,5.9703282 0 0 1 -5.9582,-5.947 5.7894091,5.7894091 0 0 1 2.1115,-4.4868 l 9.5638,-7.092 291.5209,-215.5719 a 6.0306345,6.0306345 0 0 1 3.7518,-1.3026 h 314.9551 a 5.9582669,5.9582669 0 0 1 3.5589,10.7474 l -120.6256,88.9398 z"
       id="path8392" /></g></svg>
