<?xml version="1.0" encoding="UTF-8" standalone="no"?>
<svg
   xml:space="preserve"
   id="Ebene_1"
   x="0"
   y="0"
   version="1.1"
   width="7030.000000pt"
   height="4657.000000pt"
   viewBox="0 0 7030.000000 4657.000000"
   sodipodi:docname="wienenergie_text.svg"
   inkscape:version="1.2.2 (b0a8486541, 2022-12-01)"
   xmlns:inkscape="http://www.inkscape.org/namespaces/inkscape"
   xmlns:sodipodi="http://sodipodi.sourceforge.net/DTD/sodipodi-0.dtd"
   xmlns="http://www.w3.org/2000/svg"
   xmlns:svg="http://www.w3.org/2000/svg"><defs
     id="defs2" /><sodipodi:namedview
     id="namedview2"
     pagecolor="#ffffff"
     bordercolor="#000000"
     borderopacity="0.25"
     inkscape:showpageshadow="2"
     inkscape:pageopacity="0.0"
     inkscape:pagecheckerboard="0"
     inkscape:deskcolor="#d1d1d1"
     inkscape:document-units="pt"
     inkscape:zoom="0.1640025"
     inkscape:cx="4204.2042"
     inkscape:cy="3634.0909"
     inkscape:window-width="1908"
     inkscape:window-height="999"
     inkscape:window-x="3840"
     inkscape:window-y="0"
     inkscape:window-maximized="1"
     inkscape:current-layer="Ebene_1"
     showgrid="false" /><style
     id="style1">.st1{fill:#ec6827}</style><g
     id="g8908"
     transform="matrix(16.081692,0,0,16.081692,-27582.732,-40001.889)"><path
       d="m 1814.9539,2648.1526 a 0.36975,0.36975 0 0 1 -0.228,-0.6608 l 7.503,-5.538 h -19.7025 a 0.36975,0.36975 0 0 1 -0.213,-0.6743 l 10.305,-7.5952 a 0.375,0.375 0 0 1 0.2617,-0.108 h 7.9905 c 1.791,0.066 2.7465,0.2565 3.2993,0.6203 0.672,0.4462 0.87,0.9615 0.9937,1.299 0.8895,2.4465 2.0408,10.2435 2.0948,10.6237 0.057,-0.3802 1.2052,-8.1772 2.0962,-10.6237 0.126,-0.3375 0.3233,-0.8521 0.996,-1.299 0.552,-0.3638 1.506,-0.5551 3.297,-0.6203 h 19.5915 c 0.204,0 0.372,0.1657 0.372,0.3698 a 0.375,0.375 0 0 1 -0.1657,0.3082 l -18.6833,13.8188 a 0.375,0.375 0 0 1 -0.2242,0.076 z"
       style="fill:#000050;stroke-width:0.75"
       id="path8390" /><path
       d="m 1851.9889,2622.4591 a 0.369,0.369 0 0 1 0.213,0.6727 l -10.3725,7.6351 a 0.36,0.36 0 0 1 -0.213,0.066 h -7.9875 c -1.7948,-0.064 -2.7495,-0.2542 -3.3,-0.6202 -0.6713,-0.4448 -0.87,-0.9592 -0.9938,-1.299 -0.8917,-2.4443 -2.0415,-10.242 -2.0955,-10.6215 -0.056,0.3795 -1.2067,8.1772 -2.0962,10.6215 -0.126,0.3398 -0.324,0.8535 -0.9953,1.299 -0.5512,0.366 -1.5075,0.5573 -3.2977,0.6202 l -19.6013,0.01 a 0.37125,0.37125 0 0 1 -0.3705,-0.3698 0.36,0.36 0 0 1 0.1313,-0.279 l 0.5947,-0.441 18.1275,-13.4048 a 0.375,0.375 0 0 1 0.2333,-0.081 h 19.5847 a 0.3705,0.3705 0 0 1 0.2213,0.6683 l -7.5008,5.5305 z m 31.95,19.998 -5.1473,-10.56 -5.118,10.56 h -0.7095 l -8.7262,-19.9965 h 6.2115 l 3.639,8.43 h 0.1177 l 4.2308,-8.7555 h 0.6802 l 4.407,8.7555 h 0.1185 l 3.5783,-8.43 h 6.153 l -8.7255,19.9965 z m 16.653,-19.9965 v 19.494 h -5.7975 v -19.494 z m 9.3465,15.1163 h 8.3707 v 4.3777 h -14.169 v -19.494 h 13.755 v 4.3485 h -7.9567 v 2.9873 h 6.9217 v 4.1715 h -6.9217 z m 45.3742,0 h 8.3715 v 4.3777 h -14.1697 v -19.494 h 13.755 v 4.3485 h -7.9568 v 2.9873 h 6.9218 v 4.1715 h -6.9218 z m 38.3348,0 h 8.3715 v 4.3777 h -14.1698 v -19.494 h 13.755 v 4.3485 h -7.9567 v 2.9873 h 6.9217 v 4.1715 h -6.9217 z m 17.0085,4.3777 h -5.7975 v -19.494 h 7.8682 q 3.6383,0 5.6498,1.9223 2.0115,1.9222 2.0115,4.7632 0,3.5205 -2.8988,5.4428 l 3.846,7.3649 h -5.946 l -2.6625,-5.5904 q -1.449,0.2962 -2.0707,0.4732 z m 4.0822,-12.8677 q 0,-1.0943 -0.6802,-1.7453 -0.681,-0.6502 -1.953,-0.6502 h -1.479 v 5.649 l 1.2712,-0.3255 q 1.4498,-0.3548 2.1443,-1.065 0.6975,-0.7088 0.6967,-1.863 m 7.5728,3.2535 q 0,-4.3778 2.958,-7.335 2.9872,-2.988 8.016,-2.988 3.3727,0 5.7682,1.065 v 4.9109 q -2.2485,-1.272 -5.2357,-1.272 -2.5725,0 -4.0965,1.5383 -1.5233,1.5375 -1.5233,4.2007 0,2.4555 1.242,3.8903 c 1.242,1.4348 2.0708,1.434 3.7275,1.434 q 0.8873,0 1.7453,-0.2362 v -5.8868 h 5.028 v 9.5543 q -2.958,1.1242 -7.0988,1.1242 -5.1187,0 -7.809,-2.6917 -2.7225,-2.7225 -2.7217,-7.308 m 26.562,-9.8798 v 19.494 h -5.7968 v -19.494 z m 9.3472,15.1163 h 8.3715 v 4.3777 h -14.1697 v -19.494 h 13.7549 v 4.3485 h -7.9567 v 2.9873 h 6.9218 v 4.1715 h -6.9218 z m -125.0032,-15.1141 v 8.8568 h -0.1185 l -10.9733,-9.36 h -0.9765 v 19.995 h 5.7975 v -8.9183 h 0.117 l 10.9748,9.3623 h 0.9765 v -19.9358 z m 45.3742,0 v 8.8568 h -0.1185 l -10.9732,-9.36 h -0.9765 v 19.995 h 5.7975 v -8.9183 h 0.1162 l 10.9748,9.3623 h 0.9772 v -19.9358 z"
       class="st1"
       id="path8392"
       style="fill:#ec6827;stroke-width:0.75" /></g></svg>
