<?xml version="1.0" encoding="UTF-8" standalone="no"?>
<svg
   xml:space="preserve"
   id="Ebene_1"
   x="0"
   y="0"
   version="1.1"
   width="7030.000000pt"
   height="4657.000000pt"
   viewBox="0 0 7030.000000 4657.000000"
   sodipodi:docname="wienenergie.svg"
   inkscape:version="1.4 (e7c3feb100, 2024-10-09)"
   xmlns:inkscape="http://www.inkscape.org/namespaces/inkscape"
   xmlns:sodipodi="http://sodipodi.sourceforge.net/DTD/sodipodi-0.dtd"
   xmlns="http://www.w3.org/2000/svg"
   xmlns:svg="http://www.w3.org/2000/svg"><defs
     id="defs2" /><sodipodi:namedview
     id="namedview2"
     pagecolor="#ffffff"
     bordercolor="#000000"
     borderopacity="0.25"
     inkscape:showpageshadow="2"
     inkscape:pageopacity="0.0"
     inkscape:pagecheckerboard="0"
     inkscape:deskcolor="#d1d1d1"
     inkscape:document-units="pt"
     inkscape:zoom="0.11596728"
     inkscape:cx="4686.6667"
     inkscape:cy="3108.6354"
     inkscape:window-width="1896"
     inkscape:window-height="1016"
     inkscape:window-x="3852"
     inkscape:window-y="52"
     inkscape:window-maximized="1"
     inkscape:current-layer="Ebene_1" /><style
     id="style1">.st1{fill:#ec6827}</style><path
     id="path14"
     style="fill:#000000;stroke-width:18.3173"
     d="m 3815.5435,1939.0449 -478.3337,0.1306 a 9.1586124,9.1586124 0 0 0 -5.6856,1.9864 l -442.7272,327.3769 -14.5432,10.7841 a 8.7922677,8.7922677 0 0 0 -3.1922,6.8155 9.0670263,9.0670263 0 0 0 9.0424,9.0157 l 478.734,-0.1824 c 43.7231,-1.5388 67.0594,-6.2206 80.5224,-15.1595 16.3939,-10.8804 21.2335,-23.4182 24.3109,-31.716 21.7241,-59.6959 49.8214,-250.1408 51.1952,-259.4092 1.3189,9.2684 29.414,199.7133 51.1933,259.4092 3.0224,8.2978 7.8636,20.8538 24.2574,31.716 13.4449,8.9389 36.7694,13.6025 80.6024,15.1595 h 195.0673 a 8.7922677,8.7922677 0 0 0 5.2053,-1.6127 l 253.3476,-186.481 a 9.0120747,9.0120747 0 0 0 -5.2052,-16.4208 h -481.5792 l 183.1802,-135.0721 a 9.048709,9.048709 0 0 0 -5.3921,-16.3408 z m -456.2228,422.9852 -195.1475,0.076 a 9.1586124,9.1586124 0 0 0 -6.3864,2.6582 l -251.6836,185.4889 a 9.0303917,9.0303917 0 0 0 5.2074,16.4743 l 481.1742,-0.1847 -183.2356,135.2612 a 9.0303917,9.0303917 0 0 0 5.5811,16.1517 h 478.278 a 9.1586124,9.1586124 0 0 0 5.4767,-1.8508 l 456.3005,-337.4913 a 9.1586124,9.1586124 0 0 0 4.053,-7.5408 c 0,-4.9822 -4.0867,-9.0424 -9.0691,-9.0424 h -478.4938 c -43.7416,1.5935 -67.0408,6.278 -80.5223,15.1618 -16.4304,10.917 -21.2603,23.4712 -24.3375,31.7138 -21.7609,59.7508 -49.8012,250.1779 -51.1933,259.4647 -1.3188,-9.2868 -29.4177,-199.7139 -51.1419,-259.4647 -3.0224,-8.2426 -7.872,-20.815 -24.2842,-31.7138 -13.4997,-8.8838 -36.834,-13.55 -80.5757,-15.1618 z" /></svg>
