<?xml version="1.0" standalone="no"?>
<!DOCTYPE svg PUBLIC "-//W3C//DTD SVG 20010904//EN"
 "http://www.w3.org/TR/2001/REC-SVG-20010904/DTD/svg10.dtd">
<svg version="1.0" xmlns="http://www.w3.org/2000/svg"
 width="7030.000000pt" height="4687.000000pt" viewBox="0 0 7030.000000 4687.000000"
 preserveAspectRatio="xMidYMid meet">
<metadata>
Created by potrace 1.16, written by Peter Selinger 2001-2019
</metadata>
<g transform="translate(0.000000,4687.000000) scale(0.100000,-0.100000)"
fill="#000000" stroke="none">
<path d="M40935 29434 c-66 -7 -145 -20 -176 -29 -31 -8 -121 -22 -200 -30
-79 -9 -187 -24 -239 -35 -53 -11 -149 -24 -215 -30 -119 -11 -135 -14 -270
-43 -38 -8 -115 -18 -170 -21 -55 -4 -138 -16 -185 -27 -46 -11 -148 -26 -225
-34 -77 -8 -170 -21 -207 -30 -37 -8 -131 -22 -210 -30 -79 -9 -186 -24 -238
-35 -52 -11 -149 -24 -215 -30 -66 -6 -158 -20 -205 -31 -47 -11 -137 -25
-200 -30 -63 -6 -153 -19 -200 -29 -47 -10 -150 -26 -230 -34 -80 -9 -190 -25
-245 -35 -55 -11 -131 -22 -170 -26 -109 -10 -215 -26 -273 -41 -30 -7 -110
-18 -179 -24 -69 -6 -162 -20 -207 -30 -44 -11 -137 -24 -206 -30 -69 -6 -163
-20 -210 -30 -47 -10 -152 -26 -235 -35 -82 -9 -188 -25 -235 -35 -47 -10
-140 -24 -208 -29 -68 -6 -158 -20 -200 -31 -42 -10 -138 -24 -212 -30 -170
-14 -262 -34 -300 -67 l-30 -25 2 -2369 c3 -2261 4 -2369 21 -2386 17 -17 52
-18 605 -15 323 2 927 8 1342 12 841 10 2644 27 3777 36 527 5 747 10 758 18
14 10 15 303 15 2831 l0 2820 -21 18 c-24 19 -37 19 -204 1z"/>
<path d="M33880 28404 c-30 -7 -118 -20 -196 -29 -77 -8 -183 -23 -235 -34
-51 -11 -155 -24 -229 -31 -74 -6 -180 -20 -235 -31 -55 -10 -152 -24 -215
-29 -143 -12 -189 -19 -265 -36 -33 -7 -132 -20 -220 -29 -88 -8 -185 -22
-215 -30 -30 -9 -127 -22 -215 -30 -88 -9 -203 -24 -255 -35 -52 -10 -156 -24
-230 -30 -74 -7 -177 -20 -229 -31 -52 -11 -149 -24 -215 -29 -148 -12 -184
-18 -261 -37 -33 -8 -125 -21 -205 -28 -80 -8 -190 -23 -245 -34 -55 -11 -160
-25 -233 -31 -74 -6 -176 -20 -228 -30 -52 -11 -156 -24 -232 -30 -179 -14
-350 -52 -376 -83 -18 -21 -19 -50 -12 -1032 3 -555 6 -1457 6 -2002 l0 -993
27 -17 c25 -17 63 -18 568 -14 297 2 1385 6 2417 10 1521 5 1879 8 1890 19 11
11 12 443 10 2350 -2 1285 -6 2345 -8 2355 -7 21 -80 22 -164 1z"/>
<path d="M29190 23173 c-8 -3 -23 -12 -32 -21 -17 -14 -18 -124 -18 -2032 0
-1997 0 -2017 20 -2035 14 -13 47 -20 117 -26 54 -5 143 -18 198 -29 55 -11
152 -24 215 -30 63 -6 158 -20 210 -31 52 -11 165 -26 250 -34 85 -8 200 -23
255 -34 55 -11 156 -24 225 -30 69 -6 141 -15 160 -21 60 -17 140 -29 275 -40
72 -6 173 -20 225 -30 52 -11 167 -26 255 -35 88 -8 187 -22 220 -30 33 -8
126 -21 206 -30 81 -8 191 -23 245 -34 55 -11 158 -24 229 -30 72 -6 173 -19
225 -30 52 -11 149 -25 215 -31 66 -6 162 -20 213 -30 50 -11 152 -24 225 -30
72 -6 177 -20 232 -31 55 -10 165 -26 245 -34 80 -9 160 -20 178 -25 38 -10
58 -5 66 17 4 9 6 1065 6 2347 0 2296 0 2331 -19 2347 -18 14 -102 17 -783 22
-420 3 -1262 10 -1873 16 -610 5 -1348 12 -1640 15 -291 2 -537 2 -545 -1z"/>
<path d="M34660 23092 l-25 -20 3 -2339 c2 -1286 6 -2350 8 -2366 8 -38 43
-53 145 -61 47 -3 130 -15 185 -26 54 -11 163 -26 241 -35 78 -8 170 -22 205
-30 35 -8 133 -21 218 -30 85 -8 182 -22 215 -30 33 -8 132 -22 220 -30 88 -9
183 -22 210 -29 69 -19 101 -24 248 -36 71 -6 181 -22 245 -35 65 -12 160 -26
212 -30 52 -4 149 -17 215 -30 66 -13 158 -26 205 -30 47 -3 146 -17 220 -30
74 -13 185 -29 247 -35 62 -6 154 -19 205 -30 51 -10 149 -24 219 -29 69 -6
163 -19 210 -30 46 -11 145 -25 219 -31 74 -6 173 -20 220 -31 47 -11 155 -26
240 -34 85 -8 196 -23 245 -34 50 -11 146 -25 214 -31 68 -6 165 -20 215 -30
50 -11 145 -24 211 -30 66 -7 161 -20 210 -30 50 -10 144 -23 210 -30 66 -6
164 -20 217 -31 53 -10 163 -26 245 -35 159 -16 187 -13 201 28 14 39 16 5540
3 5581 -7 21 -22 39 -38 46 -20 9 -763 13 -3232 18 l-3206 6 -25 -21z"/>
</g>
</svg>
