<?xml version="1.0" encoding="UTF-8" standalone="no"?>
<svg
   version="1.0"
   width="7030.000000pt"
   height="4687.000000pt"
   viewBox="0 0 7030.000000 4687.000000"
   preserveAspectRatio="xMidYMid meet"
   id="svg34"
   sodipodi:docname="windoof_11.svg"
   inkscape:version="1.2.2 (b0a8486541, 2022-12-01)"
   xmlns:inkscape="http://www.inkscape.org/namespaces/inkscape"
   xmlns:sodipodi="http://sodipodi.sourceforge.net/DTD/sodipodi-0.dtd"
   xmlns="http://www.w3.org/2000/svg"
   xmlns:svg="http://www.w3.org/2000/svg">
   <defs
      id="defs38">
      <rect
         x="3191.3798"
         y="2553.1038"
         width="4475.1033"
         height="1226.3504"
         id="rect144" />
   </defs>
   <sodipodi:namedview
      id="namedview36"
      pagecolor="#ffffff"
      bordercolor="#666666"
      borderopacity="1.0"
      inkscape:showpageshadow="2"
      inkscape:pageopacity="0.0"
      inkscape:pagecheckerboard="0"
      inkscape:deskcolor="#d1d1d1"
      inkscape:document-units="pt"
      showgrid="false"
      inkscape:zoom="0.098597642"
      inkscape:cx="5142.1108"
      inkscape:cy="3235.3715"
      inkscape:window-width="1908"
      inkscape:window-height="999"
      inkscape:window-x="3840"
      inkscape:window-y="0"
      inkscape:window-maximized="1"
      inkscape:current-layer="svg34" />
   <g
      transform="matrix(0.1,0,0,-0.1,0,4687)"
      fill="#000000"
      stroke="none"
      id="g32"
      style="display:inline">
      <path
         fill="#0079d5"
         d="m 14647,27223 c -49,-13 -47,65 -47,-1805 0,-1562 2,-1746 16,-1766 l 15,-22 h 1763 c 1462,0 1765,2 1775,13 8,10 11,498 11,1777 0,1573 -1,1765 -15,1786 l -15,24 -1743,-1 c -958,-1 -1750,-3 -1760,-6 z"
         id="path4" />
      <path
         fill="#0079d5"
         d="m 18622,27215 c -18,-8 -37,-26 -42,-41 -7,-17 -9,-618 -8,-1770 3,-1414 5,-1745 16,-1756 11,-11 346,-13 1778,-16 1211,-1 1771,1 1785,8 19,11 19,36 19,1779 v 1768 l -21,19 c -21,19 -66,19 -1758,21 -1482,2 -1741,0 -1769,-12 z"
         id="path6" />
      <path
         fill="#0079d5"
         d="m 14616,23218 c -14,-20 -16,-204 -16,-1766 0,-1888 -3,-1791 52,-1806 13,-3 805,-6 1760,-6 h 1738 l 15,24 c 14,21 15,213 15,1786 0,1279 -3,1767 -11,1777 -10,11 -313,13 -1775,13 h -1763 z"
         id="path28" />
      <path
         fill="#0079d5"
         d="m 18604,23230 c -14,-6 -23,-21 -27,-47 -11,-66 -8,-3459 3,-3488 22,-58 -78,-55 1814,-53 1689,3 1734,3 1755,22 l 21,19 v 1768 c 0,1738 0,1768 -19,1779 -24,12 -3515,13 -3547,0 z"
         id="path30" />
   </g>
   <path
      style="display:inline;fill:#0079d5;stroke-width:1.70465"
      d="m 3730.9016,2568.7574 c -27.1721,-3.5222 -46.2506,-13.1855 -66.7561,-33.8139 -29.1858,-29.3591 -42.5395,-68.2001 -42.5395,-123.7305 0,-23.824 2.9504,-47.346 8.3449,-66.5268 14.3091,-50.8803 51.1523,-89.5296 96.8347,-101.5808 17.7376,-4.68 51.055,-5.1573 66.9701,-0.9603 23.7358,6.2589 46.1193,21.6938 57.4345,39.6047 2.6316,4.1665 5.3605,7.5757 6.0637,7.5778 0.7031,0 1.2784,-44.1049 1.2784,-98.0145 v -98.0173 h 35.7977 35.7976 v 235.2416 235.2417 h -35.7976 -35.7977 v -27.2744 c 0,-15.0009 -0.5753,-27.2687 -1.2784,-27.2609 -0.7032,0 -3.0223,3.0662 -5.153,6.7973 -5.6169,9.8365 -22.9909,27.8185 -33.8281,35.0113 -12.613,8.3721 -33.1142,15.6118 -50.3213,17.7688 -15.8248,1.9846 -21.3202,1.9753 -37.0499,-0.07 z m 63.3321,-56.9219 c 6.3569,-1.3467 15.4171,-4.5492 20.1333,-7.1162 18.5992,-10.1227 35.0462,-32.465 41.8533,-56.8564 2.5656,-9.193 3.094,-17.6133 3.0998,-49.4349 0,-35.7706 -0.2558,-39.0946 -3.9307,-49.3424 -10.6761,-29.7966 -33.1384,-48.6778 -62.9123,-52.8833 -36.3609,-5.136 -68.6668,11.8836 -84.6358,44.5895 -20.8351,42.6708 -18.3058,106.5143 5.5671,140.5071 9.3401,13.3005 16.4484,19.3619 29.9593,25.5477 16.491,7.5495 31.7291,9.0446 50.866,4.9889 z m 348.3544,57.0014 c -63.5871,-7.2191 -110.2199,-43.9551 -128.8354,-101.4927 -13.9106,-42.9948 -10.7357,-103.3848 7.4479,-141.6748 15.8341,-33.3423 42.3322,-58.8253 75.8257,-72.9229 41.2106,-17.3455 102.2613,-18.3647 143.6607,-2.3992 24.5207,9.4559 47.5732,27.7851 62.5933,49.7658 34.363,50.2908 36.6003,139.1029 4.918,195.2413 -10.017,17.749 -35.1265,42.852 -52.8129,52.8001 -30.8804,17.3683 -73.3696,25.1592 -112.7973,20.6824 z m 47.4687,-57.0731 c 31.7215,-6.7192 52.1658,-27.1395 62.2843,-62.2084 5.5991,-19.4073 6.5737,-58.3352 2.0123,-80.3529 -4.3284,-20.8911 -11.684,-36.287 -23.3672,-48.9063 -16.224,-17.5238 -35.5228,-24.971 -63.9123,-24.6642 -49.7268,0.5399 -81.6797,33.3053 -88.6027,90.8635 -3.5393,29.4237 1.2401,59.7033 12.9375,81.9638 18.4898,35.1848 57.0561,52.1147 98.6481,43.3045 z m 332.6681,57.0731 c -63.5877,-7.2191 -110.2198,-43.9551 -128.8353,-101.4927 -13.9106,-42.9948 -10.7357,-103.3848 7.4478,-141.6748 15.8341,-33.3423 42.3322,-58.8253 75.8258,-72.9229 41.2106,-17.3455 102.2612,-18.3647 143.6607,-2.3992 24.5207,9.4559 47.5732,27.7851 62.5933,49.7658 34.363,50.2908 36.6003,139.1029 4.9179,195.2413 -10.017,17.749 -35.1264,42.852 -52.8129,52.8001 -30.8804,17.3683 -73.3687,25.1592 -112.7973,20.6824 z m 47.4688,-57.0731 c 31.7214,-6.7192 52.1658,-27.1395 62.2843,-62.2084 5.5991,-19.4073 6.5736,-58.3352 2.0122,-80.3529 -4.3284,-20.8911 -11.6839,-36.287 -23.3672,-48.9063 -16.224,-17.5238 -35.5228,-24.971 -63.9123,-24.6642 -49.7267,0.5399 -81.6797,33.3053 -88.6027,90.8635 -3.5392,29.4237 1.2401,59.7033 12.9384,81.9638 18.489,35.1848 57.0552,52.1147 98.6473,43.3045 z M 2527.488,2392.0356 c -26.442,-94.4588 -54.475,-194.5779 -62.2957,-222.4873 l -14.2189,-50.7432 40.121,0.4546 40.1218,0.4547 41.3917,167.0556 c 23.3303,94.1584 42.313,174.3082 43.502,183.6759 1.1605,9.1413 2.5698,16.6203 3.1316,16.6203 0.5611,0 1.9518,-5.5613 3.0896,-12.3586 1.1371,-6.7973 23.6968,-89.6433 50.1324,-184.1022 l 48.064,-171.7434 h 37.5783 37.5776 l 43.1866,168.3149 c 23.7521,92.5738 44.1716,175.0555 45.3763,183.2925 1.2046,8.2377 2.6166,15.4037 3.1372,15.9243 0.5185,0.5184 1.4576,-2.7666 2.0811,-7.3059 1.8915,-13.7749 7.8975,-39.4307 47.4269,-202.5834 l 37.9967,-156.8278 37.8198,-0.4616 c 20.8016,-0.2486 37.78,-0.2486 37.7302,0 -0.071,0.2486 -27.474,100.1808 -60.944,222.0632 l -60.8539,221.6045 -41.2788,0.4546 -41.2781,0.4546 -2.5406,-8.98 c -15.0443,-53.1687 -82.2394,-302.4439 -84.6735,-314.1122 -1.7601,-8.438 -3.2104,-18.9855 -3.2225,-23.439 -0.072,-12.8026 -2.7275,-9.4423 -4.9044,6.124 -1.0946,7.8208 -21.9226,87.2617 -46.2841,176.5349 -24.3622,89.2725 -44.2946,162.6513 -44.2946,163.0625 0,0.412 -19.0353,0.7487 -42.3002,0.7487 h -42.3001 z m 577.5893,12.3587 v -159.3847 h 34.9452 34.9454 v 159.3847 159.3848 h -34.9454 -34.9452 z m 165.3509,0 v -159.3847 h 35.7976 35.7977 l 0.1,27.7006 c 0.078,22.115 0.5114,27.0549 2.1308,24.4993 7.1503,-11.272 20.5957,-26.8525 29.0529,-33.6654 21.0623,-16.9684 42.6397,-24.1456 72.6997,-24.1832 33.132,-0.072 52.7923,7.2554 72.5294,26.9199 13.9241,13.873 22.3238,29.305 28.3177,52.0287 3.7481,14.2076 3.8341,16.7347 4.4094,129.9795 l 0.5895,115.4901 h -34.9048 -34.9048 l -0.6393,-102.7051 c -0.6179,-98.5181 -0.7906,-103.2379 -4.2751,-115.7785 -8.5744,-30.8562 -22.0411,-44.693 -48.2409,-49.5655 -13.0896,-2.4341 -30.308,0.2061 -43.4991,6.6623 -12.0732,5.9116 -26.9277,21.0404 -33.279,33.8934 -10.0823,20.404 -10.0389,19.8522 -10.0617,128.1975 v 99.2959 h -35.7976 -35.7977 z m 1527.366,28.1267 v -131.258 h -27.2744 -27.2744 v -28.1267 -28.1267 h 27.2744 27.2744 v -32.8145 c 0.07,-51.2723 5.4109,-68.3849 28.7866,-91.8216 14.7153,-14.7538 29.9542,-23.4382 51.0706,-29.1055 15.7573,-4.2282 53.7306,-4.8611 67.5652,-1.1258 l 8.5232,2.3012 0.4688,29.4053 c 0.2557,16.1728 0.2557,29.4045 0,29.4045 -0.2557,-7e-4 -4.6857,-1.6557 -9.8422,-3.6785 -7.0068,-2.7488 -13.0356,-3.6749 -23.8651,-3.6657 -18.1403,0 -29.555,4.4555 -38.9847,15.1678 -10.1667,11.5504 -12.3899,20.7712 -13.4233,55.6753 l -0.895,30.2575 h 37.7317 37.7317 v 28.1267 28.1267 h -36.6499 -36.65 v 131.258 131.2581 h -35.7977 -35.7975 V 2432.521 Z m 444.9136,-51.9917 c 0,-100.7874 -0.4333,-183.2499 -0.971,-183.2499 -0.5326,0 -4.2247,2.2381 -8.2001,4.9734 -16.0251,11.0254 -42.293,22.7037 -70.5213,31.3534 l -14.0634,4.3085 v -30.2617 -30.2619 l 22.5866,-8.2426 c 29.2774,-10.684 66.6319,-29.4649 92.9965,-46.755 l 20.975,-13.7559 h 14.3964 14.3966 v 227.5708 227.5707 h -35.7977 -35.7976 z m 255.6973,0 c 0,-100.7874 -0.4331,-183.2499 -0.9709,-183.2499 -0.5327,0 -4.2247,2.2381 -8.2,4.9734 -16.0251,11.0254 -42.2931,22.7037 -70.5213,31.3534 l -14.0635,4.3085 v -30.2617 -30.2619 l 22.5867,-8.2426 c 29.2774,-10.684 66.6319,-29.4649 92.9964,-46.755 l 20.9751,-13.7559 h 14.3964 14.3964 v 227.5708 227.5707 h -35.7976 -35.7977 z M 3130.1654,2176.7484 c -19.1354,-4.7461 -31.8663,-20.2861 -31.8976,-38.9343 0,-16.9314 12.4781,-33.5688 28.8534,-38.3851 11.5497,-3.398 15.9413,-3.4093 27.1828,-0.072 17.3639,5.1566 29.0784,20.487 29.1495,38.1465 0.072,15.6075 -10.0965,30.7789 -24.6962,36.8787 -7.5331,3.1479 -20.9593,4.2587 -28.5919,2.3652 z"
      id="path398" />
</svg>