<?xml version="1.0" standalone="no"?>
<!DOCTYPE svg PUBLIC "-//W3C//DTD SVG 20010904//EN"
 "http://www.w3.org/TR/2001/REC-SVG-20010904/DTD/svg10.dtd">
<svg version="1.0" xmlns="http://www.w3.org/2000/svg"
 width="7030.000000pt" height="4687.000000pt" viewBox="0 0 7030.000000 4687.000000"
 preserveAspectRatio="xMidYMid meet">
<metadata>
Created by potrace 1.16, written by Peter Selinger 2001-2019
</metadata>
<g transform="translate(0.000000,4687.000000) scale(0.100000,-0.100000)"
fill="#0079d5" stroke="none">
<path d="M14647 27223 c-49 -13 -47 65 -47 -1805 0 -1562 2 -1746 16 -1766
l15 -22 1763 0 c1462 0 1765 2 1775 13 8 10 11 498 11 1777 0 1573 -1 1765
-15 1786 l-15 24 -1743 -1 c-958 -1 -1750 -3 -1760 -6z"/>
<path d="M18622 27215 c-18 -8 -37 -26 -42 -41 -7 -17 -9 -618 -8 -1770 3
-1414 5 -1745 16 -1756 11 -11 346 -13 1778 -16 1211 -1 1771 1 1785 8 19 11
19 36 19 1779 l0 1768 -21 19 c-21 19 -66 19 -1758 21 -1482 2 -1741 0 -1769
-12z"/>
<path d="M38445 25955 l-25 -24 0 -891 c0 -984 4 -930 -62 -875 -18 15 -59 50
-91 78 -32 29 -75 61 -95 71 -20 10 -47 27 -60 37 -13 10 -37 21 -55 25 -18 3
-50 17 -72 29 -22 13 -62 26 -90 30 -27 3 -84 16 -125 28 -66 18 -101 21 -285
21 -171 1 -223 -2 -280 -17 -38 -10 -105 -25 -147 -32 -42 -8 -88 -21 -101
-29 -13 -9 -48 -23 -78 -32 -30 -9 -61 -22 -69 -29 -8 -8 -35 -23 -60 -35 -25
-11 -60 -31 -79 -43 -138 -91 -357 -332 -421 -463 -10 -22 -28 -51 -38 -65
-11 -13 -25 -42 -32 -64 -7 -22 -21 -53 -30 -70 -10 -16 -24 -52 -31 -80 -6
-27 -20 -66 -30 -85 -9 -20 -27 -88 -38 -152 -12 -64 -26 -129 -31 -144 -34
-88 -37 -681 -5 -824 9 -36 22 -101 31 -145 9 -44 29 -115 45 -157 16 -42 29
-82 29 -89 0 -15 83 -181 123 -245 48 -78 68 -106 99 -139 15 -16 45 -48 65
-71 55 -59 181 -164 197 -164 8 0 28 -11 44 -25 17 -14 50 -32 73 -41 24 -8
54 -21 66 -29 12 -9 51 -22 85 -30 35 -8 90 -25 123 -37 57 -22 73 -23 355
-23 292 1 296 1 375 27 44 15 98 30 120 34 22 4 64 20 94 35 30 16 59 29 65
29 13 0 99 53 166 102 25 18 82 70 127 115 46 46 89 83 97 83 23 0 27 -27 25
-184 -1 -144 0 -151 21 -168 20 -17 51 -18 365 -18 300 0 346 2 359 16 15 14
16 238 14 2386 -3 2333 -3 2370 -22 2384 -16 11 -81 14 -353 14 l-334 0 -24
-25z m-660 -2095 c68 -15 198 -65 249 -95 56 -34 202 -174 228 -220 10 -16 22
-37 27 -45 34 -56 74 -151 86 -208 8 -37 22 -92 30 -122 12 -42 15 -112 14
-305 0 -137 -4 -270 -9 -295 -31 -161 -56 -261 -75 -300 -12 -25 -25 -58 -29
-75 -4 -16 -18 -43 -30 -60 -13 -16 -30 -46 -40 -65 -37 -77 -192 -232 -265
-264 -14 -6 -38 -19 -52 -28 -49 -34 -226 -73 -329 -72 -112 0 -291 41 -349
80 -20 13 -41 24 -47 24 -14 0 -81 53 -137 108 -43 42 -113 140 -128 179 -5
14 -18 38 -29 53 -11 15 -25 52 -31 81 -6 30 -18 66 -25 80 -22 44 -33 109
-43 265 -12 176 1 474 25 556 9 29 26 89 38 133 13 44 32 96 43 115 12 19 24
46 28 59 23 77 184 269 257 307 15 8 43 25 62 38 20 13 52 27 73 31 20 4 50
13 66 22 16 8 47 18 70 23 57 11 273 11 322 0z"/>
<path d="M53063 25811 c-11 -6 -41 -25 -66 -43 -126 -92 -221 -152 -324 -203
-28 -14 -56 -32 -63 -40 -6 -8 -28 -19 -48 -26 -20 -7 -53 -22 -72 -35 -19
-12 -52 -27 -72 -33 -20 -7 -42 -18 -48 -26 -6 -8 -35 -21 -63 -31 -29 -9 -59
-23 -69 -31 -9 -8 -38 -21 -64 -29 -26 -8 -66 -25 -90 -39 -23 -14 -49 -25
-57 -25 -7 0 -36 -11 -63 -25 -27 -14 -73 -32 -103 -41 -30 -8 -65 -23 -78
-31 -13 -9 -39 -23 -56 -32 l-32 -16 -3 -295 c-2 -231 1 -300 11 -314 12 -16
18 -17 97 -3 47 9 110 27 140 41 30 14 64 26 75 26 11 0 47 13 80 30 33 16 66
30 74 30 14 0 140 57 191 86 14 7 48 25 75 39 28 14 73 41 100 61 28 19 57 33
65 32 40 -8 40 22 40 -1838 0 -1596 1 -1786 15 -1800 14 -13 64 -15 374 -15
289 0 361 3 374 14 16 12 17 185 17 2301 0 2114 -1 2289 -17 2301 -19 17 -305
24 -340 10z"/>
<path d="M55356 25810 c-16 -5 -38 -18 -50 -29 -31 -29 -139 -101 -152 -101
-6 0 -19 -9 -29 -20 -10 -12 -37 -30 -59 -41 -23 -11 -68 -36 -101 -55 -33
-19 -87 -48 -120 -64 -33 -17 -71 -37 -85 -45 -14 -8 -41 -22 -60 -30 -19 -8
-46 -22 -60 -29 -52 -30 -177 -86 -191 -86 -8 0 -36 -14 -64 -30 -27 -16 -57
-30 -65 -30 -8 0 -42 -13 -75 -29 -33 -16 -76 -32 -95 -36 -33 -7 -136 -57
-153 -74 -5 -5 -9 -143 -8 -307 0 -250 2 -300 15 -312 13 -13 24 -13 97 3 45
9 105 28 133 41 28 13 60 24 71 24 11 0 49 14 83 30 35 17 69 30 75 30 11 0
141 60 187 86 14 7 48 25 75 39 28 14 70 41 95 60 66 50 74 55 91 45 12 -8 14
-254 17 -1829 2 -1807 2 -1820 22 -1831 32 -17 712 -9 733 9 16 12 17 186 17
2301 0 2114 -1 2289 -17 2301 -19 17 -280 24 -327 9z"/>
<path d="M31290 25779 c-30 -11 -69 -25 -87 -30 -78 -23 -184 -139 -220 -241
-75 -214 16 -430 224 -529 81 -38 84 -39 200 -39 117 0 119 0 198 39 105 52
181 129 224 228 26 60 31 84 31 153 0 71 -4 91 -36 164 -30 69 -47 93 -104
146 -123 115 -297 158 -430 109z"/>
<path d="M24501 25673 c-21 -18 -21 -19 -6 -93 9 -41 24 -95 34 -120 11 -25
25 -74 31 -110 6 -36 20 -85 31 -109 10 -24 24 -73 29 -109 6 -36 20 -86 30
-111 11 -25 26 -81 34 -123 8 -42 22 -90 31 -107 8 -17 22 -68 31 -113 9 -45
22 -95 30 -110 8 -16 24 -69 34 -118 10 -49 25 -102 33 -117 8 -15 20 -59 26
-98 7 -38 21 -90 32 -114 10 -23 24 -73 30 -110 6 -36 22 -91 34 -121 12 -30
28 -86 34 -124 7 -38 19 -82 27 -98 8 -16 24 -69 34 -118 10 -49 26 -102 34
-118 8 -16 20 -60 26 -98 6 -38 20 -88 30 -112 11 -24 26 -79 35 -123 8 -44
22 -93 30 -110 9 -17 22 -63 30 -103 8 -40 23 -95 34 -123 11 -28 25 -79 31
-114 6 -35 20 -84 31 -108 10 -24 24 -73 30 -110 5 -36 19 -85 29 -109 11 -24
25 -74 31 -111 6 -36 22 -91 34 -121 13 -30 26 -77 30 -105 4 -27 18 -78 31
-113 13 -34 28 -90 34 -125 7 -34 20 -82 31 -106 10 -24 24 -73 29 -109 6 -36
20 -86 31 -111 10 -25 25 -79 33 -120 24 -125 -18 -116 506 -119 301 -2 456 1
470 8 11 6 22 26 26 48 4 20 17 64 29 97 13 33 26 85 30 115 4 30 18 81 30
115 12 33 28 90 34 127 6 37 20 87 30 111 10 23 24 76 31 117 7 41 21 94 31
117 10 24 24 74 30 111 6 37 22 94 34 127 12 34 26 85 30 115 4 30 17 82 30
115 12 33 27 91 34 128 6 38 20 90 31 117 11 27 25 79 31 117 7 37 20 87 30
111 10 23 24 73 30 110 6 37 22 94 34 127 12 34 26 85 30 115 4 30 17 82 30
115 12 33 27 91 34 128 6 38 20 89 30 115 10 26 26 84 34 129 9 45 22 94 31
111 8 16 20 60 27 98 6 38 20 92 31 120 10 28 25 85 33 126 8 41 23 97 33 124
11 27 23 72 27 101 8 58 28 94 44 78 15 -15 69 -184 85 -266 8 -41 23 -96 34
-124 11 -27 23 -75 27 -105 4 -30 18 -83 30 -117 13 -34 27 -83 30 -110 4 -26
20 -87 36 -136 16 -48 29 -99 29 -113 0 -14 11 -58 25 -97 13 -40 31 -106 39
-148 8 -42 22 -93 31 -115 9 -21 23 -76 31 -121 8 -45 23 -101 33 -125 11 -23
24 -75 30 -114 6 -39 19 -91 30 -115 10 -24 25 -78 31 -119 7 -41 21 -93 30
-116 10 -23 26 -81 35 -130 9 -48 22 -99 30 -114 8 -15 21 -67 30 -116 10 -49
24 -102 32 -117 8 -16 21 -66 29 -113 8 -46 23 -103 33 -127 10 -23 24 -76 31
-117 6 -41 20 -95 31 -118 10 -24 25 -81 33 -127 8 -46 21 -96 29 -112 8 -15
20 -54 27 -86 7 -37 18 -61 30 -67 21 -11 849 -14 889 -3 31 8 67 89 87 196 9
45 22 94 30 110 9 15 22 63 30 105 8 42 26 109 39 149 14 39 25 81 25 92 0 11
13 60 29 108 16 49 32 111 36 138 4 28 17 75 30 105 12 30 26 78 29 105 4 28
21 89 37 136 16 48 29 98 29 112 0 15 11 56 25 93 14 36 30 96 36 132 6 37 18
80 26 96 8 16 23 71 34 123 10 51 25 106 33 121 8 16 21 64 30 108 8 44 24
103 34 130 11 27 25 79 31 115 6 37 20 87 31 111 10 24 24 75 30 113 6 38 20
89 30 113 11 24 25 74 31 111 6 36 20 88 31 115 10 27 25 81 33 120 7 39 22
94 33 121 11 28 25 80 31 116 6 37 20 87 31 111 10 24 24 75 30 113 6 38 20
89 30 113 11 24 25 74 31 111 6 36 20 88 31 115 10 27 26 86 34 130 9 44 22
92 30 108 8 15 23 70 33 122 11 52 25 105 32 117 13 24 48 174 52 219 4 48
-16 50 -411 48 l-364 -3 -23 -27 c-16 -19 -26 -49 -34 -108 -7 -45 -23 -114
-36 -153 -12 -40 -26 -97 -30 -127 -4 -30 -18 -89 -30 -130 -13 -41 -28 -108
-34 -147 -6 -40 -20 -94 -30 -121 -10 -26 -24 -83 -31 -126 -6 -42 -20 -103
-31 -134 -11 -31 -24 -88 -30 -126 -6 -39 -21 -102 -34 -141 -13 -38 -26 -95
-30 -125 -3 -30 -17 -89 -30 -130 -13 -41 -29 -108 -34 -147 -6 -40 -20 -94
-30 -121 -10 -26 -24 -83 -31 -126 -6 -42 -20 -103 -31 -134 -11 -31 -24 -88
-30 -127 -6 -38 -21 -101 -34 -140 -13 -38 -26 -95 -30 -125 -3 -30 -17 -89
-30 -130 -13 -41 -29 -108 -34 -147 -6 -40 -20 -94 -30 -121 -10 -26 -24 -83
-31 -126 -6 -42 -20 -103 -31 -133 -10 -31 -25 -95 -33 -143 -14 -87 -41 -155
-71 -180 -24 -20 -34 -2 -51 91 -8 46 -26 116 -39 155 -14 40 -25 84 -25 98 0
15 -13 66 -29 114 -15 48 -31 111 -35 140 -4 30 -16 77 -27 105 -12 29 -27 90
-36 136 -8 47 -20 96 -28 111 -8 15 -21 67 -30 115 -10 49 -25 110 -35 135
-10 25 -23 79 -30 120 -7 41 -23 102 -35 135 -12 33 -25 84 -29 113 -4 30 -16
77 -26 105 -11 29 -26 87 -35 131 -8 43 -23 102 -34 131 -11 30 -23 77 -27
107 -4 29 -17 80 -29 113 -12 33 -28 94 -35 135 -7 41 -20 95 -30 120 -10 25
-25 86 -35 135 -9 48 -22 100 -30 115 -8 15 -20 64 -28 111 -9 46 -24 107 -35
134 -11 28 -23 75 -27 105 -4 30 -20 94 -36 142 -16 48 -29 99 -29 112 0 45
-62 216 -82 227 -11 6 -166 9 -418 7 -342 -3 -401 -5 -415 -18 -8 -9 -20 -41
-25 -73 -6 -31 -19 -76 -30 -99 -10 -24 -23 -72 -30 -108 -6 -36 -19 -85 -30
-110 -10 -25 -24 -74 -30 -109 -6 -36 -22 -92 -34 -125 -13 -34 -26 -83 -31
-111 -4 -27 -17 -77 -30 -110 -12 -33 -27 -90 -34 -126 -6 -37 -20 -87 -30
-110 -11 -24 -24 -72 -31 -106 -6 -35 -22 -92 -35 -128 -14 -36 -25 -77 -25
-91 0 -14 -13 -65 -29 -112 -16 -48 -33 -107 -36 -132 -4 -25 -18 -72 -30
-105 -12 -34 -26 -81 -30 -105 -3 -25 -19 -85 -35 -135 -15 -49 -35 -118 -44
-152 -9 -35 -23 -91 -32 -125 -9 -35 -29 -103 -44 -153 -16 -49 -32 -110 -35
-135 -4 -25 -18 -72 -30 -105 -12 -34 -26 -81 -29 -105 -4 -25 -21 -84 -37
-132 -16 -47 -29 -97 -29 -110 0 -12 -14 -61 -30 -108 -17 -46 -30 -95 -30
-107 0 -24 -53 -198 -74 -242 -6 -14 -16 -26 -22 -28 -13 -4 -34 40 -34 72 0
13 -12 61 -26 105 -14 45 -30 109 -35 142 -5 33 -20 92 -33 131 -13 40 -27 97
-31 127 -4 30 -16 77 -27 104 -10 27 -25 86 -33 130 -8 45 -23 104 -34 131
-10 28 -24 82 -30 120 -6 39 -19 93 -30 120 -10 28 -24 84 -31 125 -7 41 -21
96 -31 123 -10 26 -24 80 -30 120 -6 39 -19 92 -29 117 -10 25 -25 84 -34 132
-9 47 -23 103 -32 124 -9 20 -22 75 -30 121 -8 47 -23 106 -33 131 -10 26 -24
80 -30 119 -6 40 -20 95 -31 123 -11 28 -25 83 -31 123 -6 39 -20 95 -30 123
-11 28 -26 87 -34 131 -7 44 -21 97 -29 117 -9 21 -23 77 -32 124 -9 48 -24
108 -35 133 -10 26 -21 71 -25 101 -10 81 -53 211 -76 231 -18 15 -53 17 -398
17 -345 0 -380 -2 -399 -17z"/>
<path d="M41185 24490 c-49 -4 -115 -15 -145 -24 -30 -9 -95 -23 -143 -31 -49
-8 -105 -24 -125 -34 -20 -10 -53 -22 -72 -26 -19 -4 -55 -18 -80 -30 -25 -13
-65 -33 -90 -44 -42 -20 -110 -60 -176 -105 -90 -61 -252 -221 -327 -323 -43
-58 -97 -146 -97 -158 0 -6 -11 -26 -23 -45 -13 -19 -32 -60 -42 -90 -10 -30
-24 -64 -31 -75 -7 -11 -20 -52 -28 -90 -8 -39 -24 -95 -35 -126 -28 -78 -46
-291 -46 -539 0 -250 18 -440 50 -535 13 -38 27 -88 31 -110 4 -22 20 -67 36
-100 15 -33 28 -67 28 -75 0 -8 14 -35 30 -59 17 -24 30 -49 30 -56 0 -7 10
-25 23 -41 12 -15 31 -42 42 -60 63 -101 146 -192 256 -280 110 -88 130 -102
178 -124 23 -11 54 -29 68 -40 14 -11 33 -20 42 -20 9 0 43 -13 76 -29 33 -16
87 -36 120 -44 33 -8 78 -22 100 -30 45 -17 327 -54 480 -63 55 -3 141 -1 190
5 301 35 356 44 436 72 48 16 94 29 103 29 9 0 42 14 73 30 31 17 64 30 73 30
10 0 29 9 43 20 14 11 45 29 68 40 24 11 60 32 79 46 150 109 185 140 276 247
116 139 128 154 154 209 12 26 28 52 36 59 8 6 14 17 14 24 0 7 14 39 30 70
17 32 35 79 42 104 6 25 19 62 29 82 10 20 25 76 33 125 9 49 23 114 31 144
38 136 38 663 0 788 -9 29 -22 91 -30 136 -7 45 -22 102 -33 127 -11 24 -25
63 -31 86 -6 23 -25 67 -41 98 -17 32 -30 63 -30 70 0 7 -6 18 -14 24 -8 7
-24 32 -35 56 -42 89 -183 256 -289 342 -37 29 -79 65 -95 78 -15 14 -34 25
-41 25 -8 0 -28 11 -44 25 -17 14 -45 31 -64 37 -18 6 -46 20 -61 31 -15 10
-49 25 -75 32 -26 7 -67 22 -92 33 -25 12 -75 26 -111 31 -37 6 -85 18 -108
26 -91 32 -413 44 -646 25z m450 -667 c66 -14 131 -34 145 -43 14 -10 41 -24
61 -33 96 -40 248 -198 278 -290 7 -19 19 -41 27 -48 8 -6 21 -37 30 -68 8
-31 24 -78 35 -105 65 -156 61 -742 -5 -901 -14 -33 -26 -68 -26 -79 0 -22
-71 -166 -106 -216 -36 -51 -133 -149 -178 -179 -147 -99 -266 -131 -491 -131
-190 0 -333 30 -441 93 -66 38 -92 57 -140 98 -83 71 -186 215 -206 287 -6 20
-20 57 -33 82 -12 25 -26 72 -30 105 -4 33 -13 87 -21 120 -20 80 -29 341 -15
430 28 183 52 299 65 320 8 12 22 49 31 81 10 32 26 68 36 80 11 11 19 25 19
31 0 18 93 137 140 178 72 64 122 100 160 115 19 7 46 21 60 30 25 17 199 58
300 70 80 9 169 1 305 -27z"/>
<path d="M49298 24490 c-48 -4 -109 -15 -135 -24 -27 -9 -82 -22 -124 -30 -42
-8 -91 -24 -110 -35 -19 -12 -41 -21 -51 -21 -18 0 -188 -87 -203 -105 -5 -6
-28 -23 -50 -37 -92 -58 -213 -199 -273 -318 -29 -58 -68 -180 -92 -295 -12
-51 -12 -188 -1 -240 25 -113 62 -236 85 -279 14 -27 26 -54 26 -60 0 -38 214
-265 289 -307 20 -11 63 -36 96 -55 33 -19 73 -40 90 -47 16 -6 86 -40 154
-74 68 -35 128 -63 135 -63 11 0 141 -59 186 -85 14 -8 45 -24 69 -36 125 -60
198 -125 245 -217 32 -60 36 -77 36 -143 0 -64 -4 -82 -33 -135 -43 -82 -87
-117 -193 -156 l-89 -33 -195 0 c-159 0 -204 3 -245 17 -27 10 -82 24 -122 33
-40 8 -89 24 -110 35 -21 11 -56 25 -78 31 -22 6 -47 17 -55 25 -9 7 -37 23
-62 34 -26 11 -50 25 -53 31 -12 18 -126 70 -148 67 -22 -3 -22 -3 -25 -333
-1 -181 0 -339 2 -350 8 -33 104 -84 187 -100 41 -7 94 -21 119 -30 25 -9 104
-25 175 -35 72 -11 154 -24 184 -30 79 -15 301 -12 411 5 52 8 135 20 184 26
50 6 106 19 126 29 21 10 67 26 105 35 37 8 79 23 94 34 14 10 41 23 59 29
110 37 340 240 394 347 12 22 29 51 39 64 10 12 21 39 25 60 4 20 18 63 32 96
23 55 26 75 30 240 3 136 0 196 -11 245 -19 83 -64 210 -81 230 -8 8 -21 29
-29 46 -21 41 -189 209 -235 235 -20 11 -51 30 -69 42 -66 45 -119 75 -155 86
-20 7 -42 19 -48 26 -7 8 -34 21 -61 29 -26 8 -68 26 -92 40 -24 14 -51 26
-59 26 -8 0 -39 13 -69 29 -30 15 -66 31 -81 35 -47 11 -217 119 -276 174 -81
77 -111 136 -119 240 -11 147 34 229 162 295 59 31 88 38 177 49 150 16 353
-2 453 -41 39 -15 85 -31 103 -34 19 -4 47 -16 62 -27 16 -11 46 -27 67 -34
21 -7 56 -25 77 -40 43 -29 77 -33 95 -12 8 9 11 108 9 342 l-3 328 -46 29
c-31 19 -74 33 -130 43 -46 8 -120 23 -164 34 -65 17 -122 21 -300 25 -121 2
-259 0 -307 -5z"/>
<path d="M34195 24483 c-129 -21 -333 -66 -350 -77 -11 -7 -43 -21 -71 -30
-28 -9 -66 -28 -84 -41 -19 -14 -38 -25 -43 -25 -30 0 -230 -182 -294 -266
-21 -28 -22 -28 -40 -11 -16 16 -18 39 -21 195 -2 150 -5 179 -19 190 -13 9
-101 12 -360 12 -328 0 -343 -1 -353 -19 -7 -13 -10 -533 -10 -1610 l0 -1591
24 -15 c21 -14 67 -16 355 -13 284 3 333 5 346 19 14 14 16 109 15 885 0 866
7 1109 34 1181 8 21 26 69 40 107 13 37 31 76 39 85 8 9 25 36 37 60 27 55
178 204 252 250 51 31 101 52 207 87 50 16 254 19 311 5 117 -30 229 -100 294
-183 50 -62 105 -172 128 -253 54 -195 50 -114 55 -1208 l5 -1018 26 -10 c15
-6 160 -9 364 -7 326 3 340 4 354 23 13 17 15 157 11 1110 -5 1128 -10 1277
-46 1378 -11 28 -25 79 -31 112 -7 33 -23 78 -36 101 -13 22 -24 47 -24 55 0
15 -49 97 -97 162 -40 55 -151 164 -199 196 -65 44 -205 108 -254 116 -25 4
-81 16 -125 26 -80 19 -372 34 -440 22z"/>
<path d="M31032 24414 l-22 -15 0 -1589 c0 -1772 -7 -1613 73 -1625 23 -3 180
-5 349 -3 322 3 333 5 338 48 1 8 2 725 1 1592 -1 1419 -3 1578 -17 1592 -13
14 -60 16 -357 16 -294 0 -346 -2 -365 -16z"/>
<path d="M43240 24405 c-16 -19 2 -145 31 -209 10 -24 25 -75 34 -115 8 -39
22 -85 30 -101 8 -16 22 -62 30 -102 8 -40 24 -93 34 -118 11 -25 25 -74 31
-109 6 -36 20 -81 30 -101 10 -20 24 -65 30 -100 6 -36 22 -90 35 -120 12 -30
26 -77 30 -105 4 -27 17 -75 30 -105 13 -30 29 -84 35 -120 6 -35 20 -80 29
-99 10 -20 24 -65 30 -101 7 -36 21 -85 32 -110 10 -25 26 -78 34 -118 8 -40
22 -86 30 -102 8 -16 22 -60 30 -97 8 -37 26 -99 39 -138 14 -38 26 -80 26
-93 0 -13 11 -52 25 -86 14 -34 29 -86 35 -116 6 -30 21 -81 34 -115 13 -33
27 -81 31 -108 3 -26 15 -67 25 -91 11 -24 26 -75 35 -115 8 -39 22 -85 31
-102 8 -17 22 -64 30 -106 17 -90 18 -91 60 -109 26 -11 105 -14 376 -14 320
0 408 6 422 29 3 4 12 39 20 78 8 39 22 85 30 102 9 17 23 64 31 105 7 41 21
88 30 105 8 17 23 66 31 108 9 43 23 90 30 105 8 15 23 66 34 113 11 47 26 98
34 113 7 15 21 62 30 105 8 42 23 91 31 108 9 17 23 64 30 105 8 41 22 88 31
105 8 17 22 63 30 102 9 40 24 91 34 115 11 24 24 71 30 105 7 34 20 82 31
107 10 25 26 78 34 118 8 40 22 86 30 102 8 16 22 60 30 98 8 38 23 91 33 118
11 27 22 65 26 85 4 21 14 43 22 50 14 11 18 10 30 -6 8 -10 14 -27 14 -38 0
-10 11 -53 25 -94 15 -42 32 -109 40 -149 8 -40 21 -86 29 -102 8 -16 20 -60
27 -98 6 -38 22 -96 34 -129 12 -33 27 -90 34 -126 6 -37 20 -87 31 -111 10
-24 24 -73 30 -110 5 -37 19 -87 29 -111 11 -25 26 -81 34 -125 9 -44 22 -93
31 -109 8 -16 21 -65 30 -109 8 -43 22 -97 31 -118 9 -22 23 -71 30 -111 8
-40 23 -95 34 -123 11 -28 25 -81 31 -116 6 -36 19 -85 30 -110 10 -25 24 -74
30 -108 16 -97 38 -146 70 -163 24 -12 92 -15 400 -15 241 0 378 4 391 11 26
14 64 100 78 180 6 35 22 91 36 124 13 33 25 71 25 83 0 13 13 63 29 110 16
48 36 114 44 147 22 87 55 201 78 270 11 33 27 91 35 130 8 38 26 97 39 131
14 35 25 72 25 84 0 12 13 61 29 108 16 48 32 103 36 122 4 19 20 74 36 122
16 47 29 96 29 108 0 12 11 49 24 83 14 34 30 91 36 126 6 36 20 81 30 101 10
20 24 65 30 99 6 35 20 86 31 114 11 28 26 80 34 117 8 37 23 89 33 116 11 27
23 69 27 94 4 25 18 73 31 108 13 34 28 90 34 124 7 34 20 78 30 98 10 20 21
54 25 75 3 22 18 77 32 121 16 52 23 91 19 108 l-6 26 -336 0 -335 0 -24 -24
c-15 -15 -26 -40 -30 -72 -3 -27 -17 -83 -30 -124 -14 -41 -29 -107 -35 -147
-5 -39 -18 -93 -29 -120 -10 -27 -24 -84 -31 -128 -7 -44 -20 -102 -31 -130
-10 -27 -25 -91 -34 -142 -8 -50 -22 -108 -31 -129 -8 -20 -22 -76 -30 -125
-8 -48 -23 -110 -33 -136 -10 -27 -22 -76 -26 -108 -4 -33 -18 -94 -31 -136
-13 -42 -31 -114 -39 -161 -8 -46 -21 -100 -29 -119 -8 -19 -21 -75 -30 -124
-8 -50 -22 -107 -30 -126 -8 -20 -22 -77 -31 -128 -21 -120 -71 -251 -95 -251
-11 0 -27 54 -35 118 -3 30 -15 76 -26 104 -11 28 -27 89 -35 136 -8 46 -21
96 -29 111 -7 15 -21 68 -30 116 -10 49 -25 110 -35 135 -10 25 -23 77 -29
115 -6 39 -22 102 -36 140 -13 39 -25 83 -25 98 0 15 -13 67 -29 115 -16 48
-32 112 -36 142 -4 30 -18 81 -30 115 -12 33 -26 85 -30 115 -4 30 -18 87 -31
125 -13 39 -28 99 -34 134 -6 35 -20 86 -31 113 -10 26 -24 81 -30 121 -6 39
-20 93 -30 119 -10 26 -23 77 -30 115 -13 78 -31 118 -58 133 -13 6 -144 10
-355 10 -397 0 -376 6 -402 -119 -8 -40 -22 -87 -30 -103 -8 -16 -22 -63 -30
-105 -8 -41 -23 -95 -34 -120 -10 -24 -24 -72 -30 -106 -7 -34 -20 -82 -31
-107 -10 -25 -26 -78 -34 -118 -8 -40 -22 -86 -30 -102 -8 -16 -22 -63 -29
-104 -8 -41 -24 -96 -35 -123 -11 -26 -25 -74 -30 -106 -6 -32 -20 -78 -31
-104 -11 -25 -25 -75 -31 -112 -6 -36 -20 -82 -29 -102 -10 -19 -24 -64 -30
-98 -6 -35 -20 -86 -31 -114 -11 -28 -26 -80 -34 -117 -8 -37 -23 -89 -34
-117 -11 -28 -25 -78 -31 -111 -6 -34 -19 -80 -30 -104 -10 -24 -24 -73 -30
-111 -28 -157 -97 -137 -125 36 -7 46 -21 102 -30 123 -8 21 -23 79 -31 128
-9 49 -24 110 -34 136 -10 25 -23 81 -30 125 -7 44 -21 101 -31 127 -10 27
-24 81 -30 121 -6 39 -21 102 -34 139 -13 37 -27 93 -31 125 -4 32 -17 87 -29
123 -13 36 -28 98 -34 137 -6 40 -20 94 -30 121 -10 26 -24 83 -31 127 -7 44
-21 101 -31 127 -10 27 -24 80 -30 119 -6 39 -21 101 -34 137 -13 37 -26 94
-30 127 -8 64 -48 179 -73 208 -14 16 -45 17 -372 17 -307 0 -359 -2 -370 -15z"/>
<path d="M14616 23218 c-14 -20 -16 -204 -16 -1766 0 -1888 -3 -1791 52 -1806
13 -3 805 -6 1760 -6 l1738 0 15 24 c14 21 15 213 15 1786 0 1279 -3 1767 -11
1777 -10 11 -313 13 -1775 13 l-1763 0 -15 -22z"/>
<path d="M18604 23230 c-14 -6 -23 -21 -27 -47 -11 -66 -8 -3459 3 -3488 22
-58 -78 -55 1814 -53 1689 3 1734 3 1755 22 l21 19 0 1768 c0 1738 0 1768 -19
1779 -24 12 -3515 13 -3547 0z"/>
</g>
</svg>
