<?xml version="1.0" standalone="no"?>
<!DOCTYPE svg PUBLIC "-//W3C//DTD SVG 20010904//EN"
 "http://www.w3.org/TR/2001/REC-SVG-20010904/DTD/svg10.dtd">
<svg version="1.0" xmlns="http://www.w3.org/2000/svg"
 width="7030.000000pt" height="4687.000000pt" viewBox="0 0 7030.000000 4687.000000"
 preserveAspectRatio="xMidYMid meet">
<metadata>
Created by potrace 1.16, written by Peter Selinger 2001-2019
</metadata>
<g transform="translate(0.000000,4687.000000) scale(0.100000,-0.100000)"
fill="#0079d5" stroke="none">
<path d="M29144 29446 c-19 -14 -19 -56 -22 -2839 -2 -2561 -1 -2827 14 -2841
14 -15 282 -16 2840 -16 2811 0 2824 0 2844 20 20 20 20 33 20 2820 0 2030 -3
2806 -11 2823 -6 14 -22 30 -36 36 -17 8 -794 11 -2827 11 -2404 0 -2805 -2
-2822 -14z"/>
<path d="M35504 29448 c-12 -5 -27 -21 -33 -34 -8 -18 -11 -788 -11 -2824 0
-2787 0 -2800 20 -2820 20 -20 33 -20 2844 -20 2558 0 2826 1 2840 16 15 14
16 280 14 2841 -3 2783 -3 2825 -22 2839 -17 12 -417 14 -2825 13 -1911 0
-2813 -4 -2827 -11z"/>
<path d="M29130 23101 c-7 -14 -9 -902 -8 -2841 3 -2780 3 -2822 22 -2836 17
-12 418 -14 2822 -14 2033 0 2810 3 2827 11 14 6 30 22 36 36 8 17 11 794 11
2828 l0 2804 -22 15 c-20 14 -307 16 -2850 16 -2790 0 -2827 0 -2838 -19z"/>
<path d="M35482 23104 l-22 -15 0 -2804 c0 -2034 3 -2811 11 -2828 6 -14 22
-30 36 -36 17 -8 794 -11 2827 -11 2404 0 2805 2 2822 14 19 14 19 56 22 2836
1 1939 -1 2827 -8 2841 -11 19 -48 19 -2838 19 -2543 0 -2830 -2 -2850 -16z"/>
</g>
</svg>
