<?xml version="1.0" standalone="no"?>
<!DOCTYPE svg PUBLIC "-//W3C//DTD SVG 20010904//EN"
 "http://www.w3.org/TR/2001/REC-SVG-20010904/DTD/svg10.dtd">
<svg version="1.0" xmlns="http://www.w3.org/2000/svg"
 width="7030.000000pt" height="4687.000000pt" viewBox="0 0 7030.000000 4687.000000"
 preserveAspectRatio="xMidYMid meet">
<metadata>
Created by potrace 1.16, written by Peter Selinger 2001-2019
</metadata>
<g transform="translate(0.000000,4687.000000) scale(0.100000,-0.100000)"
fill="#000000" stroke="none">
<path d="M21825 27245 c-60 -7 -138 -20 -172 -29 -33 -9 -126 -23 -205 -31
-78 -8 -173 -21 -210 -30 -37 -8 -131 -22 -210 -31 -79 -8 -197 -26 -263 -39
-66 -13 -164 -26 -217 -30 -53 -3 -134 -15 -180 -26 -46 -11 -135 -25 -198
-30 -63 -6 -153 -19 -200 -29 -47 -10 -150 -26 -230 -34 -80 -9 -190 -25 -245
-35 -55 -11 -154 -25 -220 -31 -66 -6 -156 -20 -201 -30 -44 -11 -136 -24
-204 -30 -67 -6 -159 -20 -204 -30 -45 -11 -137 -24 -206 -30 -69 -6 -164 -20
-213 -31 -48 -10 -144 -24 -213 -31 -86 -8 -132 -16 -145 -27 -19 -16 -19 -50
-19 -1516 l-1 -1500 22 -17 c20 -17 132 -18 2045 -18 2011 0 2024 0 2044 20
20 20 20 33 20 1803 0 1597 -2 1785 -16 1805 -8 12 -23 21 -32 21 -9 -1 -66
-7 -127 -14z"/>
<path d="M17368 26585 c-3 -3 -72 -12 -154 -20 -82 -9 -195 -24 -252 -35 -57
-11 -156 -25 -220 -30 -64 -6 -159 -20 -210 -30 -51 -11 -163 -26 -250 -35
-86 -8 -200 -23 -252 -34 -52 -11 -155 -24 -228 -30 -74 -6 -171 -20 -215 -31
-45 -10 -142 -24 -215 -30 -73 -6 -176 -20 -230 -31 -53 -11 -155 -24 -227
-30 -71 -6 -173 -19 -225 -30 -52 -11 -140 -24 -195 -30 -55 -5 -106 -16 -112
-22 -10 -10 -13 -285 -13 -1276 0 -1126 1 -1266 15 -1288 l16 -23 1525 2 1526
3 19 24 c19 23 19 61 19 1476 0 920 -4 1463 -10 1479 -8 23 -15 26 -58 26 -27
0 -51 -2 -54 -5z"/>
<path d="M30836 26014 c-85 -44 -129 -89 -168 -174 -73 -156 -20 -319 140
-438 59 -44 240 -54 326 -18 38 16 139 112 159 153 8 16 20 59 28 97 11 60 11
78 -3 148 -15 71 -23 87 -66 137 -32 37 -72 69 -118 93 -63 34 -76 37 -149 37
-72 0 -87 -4 -149 -35z"/>
<path d="M38016 26034 c-9 -8 -16 -32 -16 -52 0 -20 -1 -444 -1 -942 0 -498
-4 -916 -8 -930 -10 -37 -37 -37 -59 0 -69 113 -237 255 -372 315 -19 8 -55
26 -80 39 -25 13 -71 29 -102 36 -32 6 -83 21 -115 33 -53 19 -78 21 -288 21
-213 1 -234 -1 -289 -22 -33 -12 -86 -27 -118 -32 -61 -11 -155 -50 -283 -117
-90 -46 -183 -120 -290 -229 -134 -136 -163 -171 -193 -230 -11 -22 -28 -46
-36 -53 -9 -8 -16 -19 -16 -26 0 -7 -12 -30 -26 -51 -15 -21 -34 -59 -42 -84
-8 -25 -23 -57 -33 -71 -10 -15 -24 -51 -30 -80 -6 -30 -20 -71 -31 -92 -11
-21 -25 -75 -33 -120 -7 -45 -20 -107 -29 -137 -23 -80 -36 -256 -36 -485 1
-228 12 -380 35 -457 8 -30 22 -90 29 -135 8 -45 23 -99 34 -120 10 -21 24
-58 30 -83 6 -25 32 -85 58 -135 25 -49 55 -107 65 -127 10 -20 23 -40 29 -43
6 -3 26 -31 45 -61 82 -128 294 -313 425 -369 19 -8 55 -26 80 -39 25 -13 63
-28 85 -32 22 -4 69 -19 105 -33 64 -25 69 -26 325 -26 256 0 261 0 340 27 44
15 96 30 115 33 19 4 49 15 66 25 17 9 53 25 81 34 28 9 57 24 64 32 6 8 30
23 53 34 22 11 61 34 85 51 47 34 201 186 266 261 33 39 68 59 77 46 1 -2 4
-100 7 -219 5 -161 9 -220 20 -232 12 -15 41 -17 237 -17 245 0 248 1 259 63
3 18 4 1106 3 2418 -3 2331 -3 2387 -22 2408 -18 20 -28 21 -237 21 -184 0
-220 -2 -233 -16z m-705 -1941 c26 -12 65 -27 88 -32 23 -5 59 -21 80 -35 20
-14 41 -26 47 -26 19 0 132 -87 188 -144 133 -136 217 -305 269 -536 5 -26 9
-213 9 -445 0 -316 -3 -413 -15 -460 -8 -33 -22 -91 -31 -130 -10 -38 -27 -92
-38 -120 -11 -27 -27 -70 -36 -95 -8 -25 -23 -54 -32 -65 -10 -11 -25 -35 -34
-53 -40 -79 -164 -218 -246 -276 -62 -44 -179 -105 -223 -116 -23 -6 -67 -21
-97 -33 -49 -19 -75 -21 -235 -22 -150 0 -186 3 -219 18 -21 9 -66 24 -100 33
-33 9 -72 24 -87 35 -14 10 -39 23 -54 29 -51 19 -202 152 -244 214 -57 85
-121 192 -121 202 0 6 -12 33 -26 60 -14 27 -34 78 -44 114 -10 36 -25 83 -33
105 -23 61 -51 401 -43 520 16 238 35 392 54 441 11 28 23 72 27 100 4 27 18
68 30 91 13 23 29 59 35 80 13 40 26 63 105 180 50 76 138 168 215 225 64 48
169 104 210 113 19 4 48 14 63 22 51 26 110 32 302 30 172 -2 194 -5 236 -24z"/>
<path d="M52193 25859 c-40 -7 -70 -24 -140 -79 -17 -14 -55 -41 -83 -60 -29
-19 -69 -48 -90 -65 -21 -16 -61 -43 -90 -60 -28 -16 -66 -40 -83 -52 -18 -12
-52 -34 -77 -48 -25 -14 -70 -41 -100 -60 -30 -19 -71 -41 -90 -50 -19 -8 -46
-22 -60 -30 -14 -8 -52 -28 -85 -45 -33 -16 -67 -34 -75 -39 -45 -27 -244
-113 -320 -138 -75 -25 -94 -37 -117 -73 -23 -33 -23 -39 -21 -254 l3 -221 34
-3 c18 -2 54 5 80 16 25 11 64 23 86 27 22 4 54 15 71 26 18 11 52 25 77 33
25 7 58 23 74 34 15 11 45 24 65 30 21 6 50 19 65 29 15 11 44 26 63 33 19 7
44 21 55 30 11 10 40 26 65 37 25 11 51 27 59 36 7 10 19 17 25 17 11 0 108
61 158 99 31 24 70 27 87 7 10 -11 12 -458 9 -1936 l-3 -1922 24 -19 c21 -17
41 -19 237 -19 201 0 215 1 234 20 20 20 20 33 20 2314 0 1261 3 2307 6 2324
13 63 -46 85 -163 61z"/>
<path d="M54260 25861 c-19 -5 -71 -18 -114 -30 -44 -11 -87 -21 -96 -21 -9 0
-37 -11 -61 -23 -24 -13 -62 -30 -84 -37 -22 -7 -52 -23 -67 -36 -16 -12 -37
-26 -49 -29 -12 -4 -43 -24 -69 -44 -25 -20 -64 -49 -86 -65 -48 -36 -177
-169 -210 -216 -13 -19 -40 -55 -59 -80 -20 -25 -47 -67 -61 -95 -14 -27 -33
-66 -43 -85 -42 -79 -80 -167 -86 -200 -4 -19 -16 -52 -26 -72 -11 -21 -24
-61 -30 -90 -6 -29 -21 -80 -34 -113 -12 -33 -26 -85 -30 -115 -3 -30 -17 -95
-30 -145 -13 -49 -29 -142 -35 -205 -6 -63 -18 -167 -28 -230 -24 -165 -24
-841 0 -1010 10 -63 22 -177 28 -252 6 -81 19 -163 30 -200 11 -35 25 -97 31
-138 6 -41 19 -95 30 -119 11 -24 26 -74 35 -110 8 -36 22 -76 30 -89 9 -13
22 -47 31 -75 8 -29 24 -64 34 -79 11 -15 25 -42 31 -60 6 -17 21 -46 32 -64
12 -17 30 -46 41 -65 51 -83 65 -102 139 -188 43 -50 94 -100 112 -112 19 -11
34 -24 34 -28 0 -8 74 -64 124 -95 17 -10 41 -27 55 -37 13 -10 29 -19 36 -19
7 0 36 -13 66 -29 30 -15 70 -32 89 -35 19 -4 71 -19 115 -34 78 -26 87 -27
310 -27 222 0 233 1 310 27 44 14 95 29 113 32 28 5 63 19 182 75 30 14 72 39
163 99 112 73 249 218 323 344 6 10 20 29 32 41 20 22 37 52 88 157 15 30 35
66 44 80 10 14 23 43 29 65 6 22 22 62 36 89 14 27 25 59 25 70 0 12 11 45 25
74 13 28 29 80 35 115 6 34 20 89 30 122 11 33 29 128 40 210 11 83 26 186 35
230 12 60 17 175 22 455 6 398 -6 709 -31 845 -9 44 -22 139 -30 210 -9 72
-22 146 -30 165 -8 19 -21 75 -31 124 -9 49 -24 105 -34 125 -10 20 -24 61
-31 91 -7 30 -21 66 -30 80 -9 14 -23 42 -30 63 -24 76 -173 328 -232 393 -58
65 -156 159 -192 183 -68 46 -140 90 -176 107 -19 9 -62 29 -95 45 -33 16 -70
29 -83 29 -12 0 -55 12 -95 26 -68 26 -83 27 -292 30 -121 1 -236 -1 -255 -5z
m365 -447 c22 -9 64 -24 93 -35 124 -43 284 -177 334 -279 7 -14 22 -38 34
-55 12 -16 27 -47 33 -67 7 -20 19 -42 27 -49 8 -6 21 -36 30 -67 9 -30 25
-69 35 -87 11 -17 24 -57 30 -88 5 -31 19 -76 29 -100 11 -24 26 -91 34 -148
8 -57 22 -134 31 -171 26 -114 37 -356 37 -828 0 -466 -11 -705 -38 -805 -8
-32 -21 -101 -29 -154 -8 -53 -26 -127 -40 -166 -13 -38 -25 -79 -25 -90 0
-11 -12 -45 -26 -75 -14 -30 -32 -76 -40 -101 -8 -26 -21 -52 -28 -59 -8 -6
-22 -33 -31 -60 -9 -27 -23 -54 -31 -61 -9 -7 -24 -29 -34 -50 -25 -48 -146
-171 -190 -194 -19 -10 -43 -25 -53 -34 -10 -8 -46 -26 -80 -39 -34 -13 -80
-31 -102 -39 -30 -12 -79 -16 -200 -16 -157 -1 -161 0 -230 30 -38 17 -81 34
-95 38 -14 4 -34 15 -45 25 -11 10 -34 25 -51 33 -65 33 -239 226 -265 294 -5
14 -18 38 -28 52 -44 61 -144 379 -161 511 -7 47 -20 121 -30 165 -23 98 -27
154 -40 470 -15 349 10 961 45 1112 8 34 19 104 26 155 6 51 21 125 34 163 14
39 27 90 31 115 4 25 20 72 36 105 15 33 28 65 28 72 0 28 92 186 176 303 67
92 211 201 319 240 28 10 68 25 90 34 29 11 77 15 180 15 103 0 151 -4 180
-15z"/>
<path d="M24381 25766 c-20 -24 -9 -129 21 -201 14 -33 29 -82 33 -110 4 -27
17 -75 30 -105 12 -30 26 -75 30 -100 4 -25 18 -72 30 -105 13 -33 28 -86 34
-118 6 -32 19 -78 30 -103 11 -25 25 -73 32 -107 6 -34 21 -87 34 -117 12 -30
26 -77 30 -105 4 -27 17 -75 30 -105 12 -30 26 -75 30 -100 4 -25 18 -72 30
-105 13 -33 28 -86 34 -118 6 -32 19 -78 30 -103 11 -25 25 -73 32 -107 6 -34
21 -87 34 -117 12 -30 26 -77 30 -105 4 -27 17 -75 30 -105 12 -30 26 -75 30
-100 4 -25 18 -72 30 -105 13 -33 28 -86 34 -118 6 -32 19 -78 30 -103 11 -25
25 -73 32 -107 6 -34 21 -87 34 -117 12 -30 26 -77 30 -105 4 -27 17 -75 30
-105 12 -30 26 -75 30 -98 4 -24 20 -81 36 -125 16 -45 29 -92 29 -105 0 -13
11 -51 25 -85 13 -34 31 -94 39 -134 8 -39 22 -85 30 -102 9 -17 23 -64 31
-105 7 -41 21 -88 30 -105 8 -17 23 -66 31 -108 9 -43 23 -91 31 -106 8 -16
21 -61 29 -100 9 -40 24 -91 34 -115 11 -24 24 -70 30 -104 11 -56 45 -157 74
-218 l12 -25 283 2 c281 2 283 2 308 25 37 34 59 84 72 163 7 39 21 90 32 114
10 23 24 73 30 110 6 36 22 91 34 121 12 30 26 77 30 105 4 27 18 78 31 112
13 35 28 91 34 126 7 34 20 82 31 106 10 23 24 73 30 110 7 36 20 85 30 108
10 23 23 70 29 104 6 34 20 85 32 113 11 28 26 83 33 121 8 39 22 91 33 115
10 25 24 75 31 111 6 37 20 87 30 110 11 24 25 73 31 109 6 36 22 92 34 125
13 33 27 82 31 108 3 27 17 76 30 110 13 34 26 85 30 112 4 28 18 75 30 105
12 30 28 85 34 121 6 37 20 87 30 110 11 24 25 73 31 108 6 35 20 86 31 114
11 28 26 83 34 123 8 40 20 86 29 101 8 16 21 65 30 109 8 43 22 99 31 123 8
24 22 98 31 165 9 66 18 124 20 128 18 29 36 -14 55 -132 6 -41 17 -91 24
-110 7 -19 18 -69 25 -110 7 -41 21 -97 32 -125 11 -27 26 -83 34 -123 7 -40
21 -86 29 -103 9 -17 22 -63 30 -103 8 -40 23 -95 34 -123 11 -28 25 -79 31
-114 6 -35 20 -83 30 -107 11 -24 24 -70 30 -104 6 -33 20 -84 32 -112 11 -28
26 -84 34 -124 7 -40 21 -86 29 -103 9 -17 22 -63 30 -103 8 -40 23 -95 34
-123 11 -28 25 -79 31 -114 6 -35 20 -83 30 -107 11 -24 24 -70 30 -104 6 -33
20 -84 32 -112 11 -28 26 -84 34 -124 7 -40 21 -86 29 -103 9 -17 22 -63 30
-103 8 -40 23 -95 34 -123 11 -28 25 -79 31 -114 6 -35 20 -83 30 -107 11 -24
24 -70 30 -102 6 -33 21 -88 34 -123 13 -34 27 -85 31 -112 4 -28 18 -75 30
-105 13 -30 26 -75 30 -100 7 -51 72 -249 87 -267 13 -16 559 -19 588 -3 32
17 60 77 77 162 8 46 22 96 30 111 7 15 23 68 33 117 10 49 26 102 34 118 8
16 20 60 27 98 6 38 22 94 34 124 12 30 26 77 30 105 4 27 17 77 29 110 13 33
28 88 35 123 7 35 21 83 31 107 11 25 24 73 30 107 6 35 19 83 30 108 10 25
23 73 30 107 6 35 21 91 34 126 13 34 27 85 31 112 4 28 18 75 30 105 12 30
28 86 34 124 7 38 19 82 27 98 8 16 24 69 34 118 10 49 26 102 34 118 8 16 20
60 27 98 6 38 22 94 34 124 12 30 26 77 30 105 4 27 16 72 26 100 11 27 28 89
39 137 10 48 25 99 33 115 8 15 20 58 26 94 6 37 20 87 30 110 11 24 24 72 31
106 6 35 21 91 34 126 13 34 27 85 31 112 4 28 18 75 30 105 12 30 28 86 34
124 7 38 19 82 27 98 8 16 24 69 34 118 10 49 26 102 33 117 8 15 22 65 30
110 9 44 23 95 31 112 9 17 23 65 31 107 8 41 21 89 30 106 21 43 19 74 -7 92
-33 23 -475 23 -518 1 -37 -19 -56 -55 -65 -125 -4 -30 -20 -94 -36 -143 -16
-48 -29 -99 -29 -112 0 -14 -13 -65 -29 -113 -16 -48 -32 -112 -36 -142 -4
-30 -18 -81 -30 -115 -12 -33 -26 -85 -30 -115 -4 -30 -17 -82 -30 -115 -12
-33 -28 -91 -34 -130 -7 -38 -21 -90 -31 -115 -11 -25 -24 -74 -30 -109 -6
-35 -20 -86 -31 -114 -11 -28 -26 -85 -33 -127 -8 -42 -21 -90 -29 -106 -9
-17 -22 -66 -31 -110 -8 -44 -24 -103 -35 -130 -10 -28 -22 -72 -26 -100 -4
-27 -20 -88 -36 -137 -16 -48 -29 -99 -29 -113 0 -14 -13 -65 -29 -112 -16
-48 -32 -109 -36 -135 -4 -27 -17 -76 -30 -110 -12 -34 -26 -87 -30 -117 -4
-30 -18 -82 -30 -116 -13 -34 -28 -93 -34 -132 -6 -39 -20 -93 -30 -120 -10
-26 -24 -83 -31 -127 -7 -44 -20 -101 -31 -127 -10 -26 -25 -89 -33 -140 -9
-52 -22 -114 -31 -138 -9 -24 -22 -89 -31 -143 -15 -103 -19 -117 -34 -117
-24 0 -72 151 -91 284 -6 44 -19 102 -29 130 -11 28 -26 85 -34 127 -8 42 -22
93 -31 115 -9 21 -23 75 -31 118 -9 44 -22 92 -30 108 -8 15 -23 70 -33 121
-11 52 -26 107 -34 123 -8 16 -20 60 -26 99 -7 38 -21 90 -32 115 -10 25 -25
80 -33 122 -8 42 -21 90 -30 105 -8 16 -21 65 -30 109 -8 44 -24 103 -34 130
-11 27 -23 69 -26 94 -4 25 -21 84 -37 132 -16 47 -29 96 -29 108 0 12 -13 61
-29 108 -16 48 -33 107 -37 132 -3 25 -15 67 -26 94 -10 27 -25 81 -33 120 -7
39 -22 94 -33 121 -11 28 -25 80 -31 116 -6 37 -20 87 -30 110 -11 24 -25 76
-32 114 -6 39 -18 83 -26 99 -8 16 -23 71 -34 123 -10 51 -26 107 -34 123 -8
16 -22 67 -31 112 -9 45 -22 95 -30 111 -9 16 -22 66 -31 110 -8 45 -24 99
-34 119 -34 67 -39 68 -281 68 -203 0 -219 -1 -235 -19 -27 -32 -62 -126 -78
-205 -7 -41 -21 -89 -30 -106 -9 -17 -23 -65 -30 -106 -8 -41 -22 -88 -30
-105 -9 -17 -23 -64 -30 -105 -8 -41 -22 -88 -30 -105 -9 -16 -25 -70 -35
-119 -10 -49 -25 -102 -33 -117 -8 -15 -22 -63 -31 -106 -8 -42 -22 -91 -31
-107 -8 -16 -22 -60 -29 -97 -8 -38 -23 -89 -34 -113 -10 -25 -24 -74 -31
-110 -7 -36 -20 -78 -28 -93 -8 -16 -21 -61 -29 -100 -8 -39 -24 -91 -34 -116
-11 -25 -27 -79 -35 -119 -8 -40 -22 -86 -30 -102 -8 -16 -22 -62 -29 -102 -8
-40 -23 -93 -34 -118 -10 -25 -25 -76 -31 -114 -7 -38 -19 -82 -27 -98 -8 -16
-24 -69 -34 -118 -10 -49 -25 -102 -33 -117 -8 -15 -22 -63 -31 -106 -8 -42
-22 -90 -30 -105 -8 -16 -21 -64 -30 -108 -8 -44 -24 -103 -35 -130 -10 -28
-22 -72 -26 -100 -4 -27 -20 -88 -36 -137 -16 -48 -29 -98 -29 -111 0 -13 -13
-66 -29 -117 -15 -52 -32 -121 -36 -153 -12 -98 -39 -134 -76 -100 -19 17 -34
79 -45 184 -4 36 -20 107 -35 159 -16 51 -29 106 -29 122 0 16 -13 69 -30 119
-16 50 -30 100 -30 111 0 11 -13 60 -29 107 -16 48 -33 107 -36 132 -4 25 -18
73 -30 107 -13 34 -27 83 -31 110 -3 26 -17 76 -30 111 -13 34 -28 90 -34 125
-7 34 -20 82 -31 107 -10 25 -25 80 -33 122 -8 42 -21 90 -30 105 -8 16 -21
66 -30 111 -9 45 -23 96 -32 113 -8 17 -22 68 -31 112 -8 45 -22 95 -30 110
-8 16 -21 63 -29 105 -8 42 -23 100 -34 127 -11 28 -26 85 -34 127 -8 42 -22
90 -31 107 -8 17 -22 68 -31 113 -9 45 -22 95 -30 111 -9 15 -22 63 -30 105
-8 42 -23 98 -34 123 -10 25 -24 75 -30 111 -5 36 -19 85 -29 109 -11 24 -24
72 -31 106 -6 35 -21 91 -34 125 -13 35 -27 85 -31 112 -8 59 -60 205 -80 225
-10 11 -69 15 -267 18 -225 4 -256 3 -267 -11z"/>
<path d="M33570 24554 c-19 -3 -69 -16 -110 -29 -41 -13 -91 -27 -110 -30 -19
-4 -53 -17 -75 -30 -22 -12 -53 -25 -70 -29 -16 -4 -43 -18 -60 -30 -16 -13
-39 -26 -50 -29 -18 -6 -64 -39 -170 -122 -60 -47 -154 -146 -177 -187 -26
-46 -56 -58 -75 -32 -12 15 -14 57 -11 202 l3 184 -28 24 c-28 24 -31 24 -233
24 -233 0 -259 -6 -269 -63 -3 -17 -4 -751 -3 -1630 l3 -1599 24 -19 c21 -17
41 -19 241 -19 200 0 220 2 241 19 l24 19 6 1089 c6 1116 6 1130 45 1205 9 17
21 49 28 72 7 22 25 59 39 80 15 21 27 43 27 49 0 45 281 327 325 327 8 0 26
11 42 24 16 13 49 29 73 36 25 7 63 22 85 34 37 19 55 21 230 21 187 0 191 -1
245 -27 30 -16 62 -28 71 -28 24 0 140 -79 184 -125 81 -86 162 -222 184 -309
7 -27 18 -61 26 -76 25 -49 35 -155 50 -533 10 -241 15 -626 15 -1097 -1 -695
0 -725 18 -750 l19 -25 226 -3 c187 -2 228 0 240 12 36 36 29 2176 -8 2346 -8
41 -20 111 -26 154 -5 43 -21 104 -33 135 -13 31 -27 71 -31 89 -7 32 -74 170
-117 242 -25 41 -136 171 -157 184 -8 5 -24 19 -35 30 -32 33 -128 94 -166
107 -19 7 -42 18 -50 25 -9 7 -45 21 -80 29 -36 9 -90 26 -120 37 -47 18 -81
21 -235 23 -99 2 -196 1 -215 -1z"/>
<path d="M40555 24550 c-44 -4 -91 -12 -103 -19 -12 -6 -62 -20 -111 -31 -50
-10 -107 -28 -128 -38 -21 -11 -56 -22 -78 -26 -22 -4 -56 -18 -75 -30 -19
-13 -52 -29 -74 -36 -21 -7 -54 -23 -74 -36 -19 -13 -40 -24 -47 -24 -7 0 -32
-16 -55 -35 -23 -19 -46 -35 -50 -35 -16 0 -225 -213 -271 -275 -59 -80 -99
-142 -124 -190 -12 -22 -29 -53 -37 -70 -55 -103 -107 -236 -133 -345 -62
-254 -74 -344 -74 -560 -1 -164 11 -292 34 -375 8 -27 19 -85 25 -128 5 -43
19 -99 30 -125 10 -26 26 -74 34 -107 9 -33 27 -82 41 -109 14 -27 25 -57 25
-66 0 -10 8 -28 19 -41 10 -13 28 -42 40 -64 64 -118 96 -160 216 -281 119
-119 223 -197 345 -255 25 -12 52 -27 60 -34 8 -7 39 -20 69 -29 30 -9 65 -23
78 -32 14 -8 57 -22 96 -30 40 -8 104 -25 142 -37 65 -21 89 -22 365 -22 280
0 298 1 360 22 36 13 92 28 125 34 32 6 81 22 107 35 26 13 53 24 60 24 17 0
175 79 215 108 17 12 34 22 38 22 4 0 42 26 84 57 87 64 219 195 259 256 15
23 37 52 50 65 12 14 22 30 22 37 0 7 7 19 17 26 9 8 25 34 36 59 11 25 27 54
37 65 10 11 23 38 30 60 7 22 23 58 35 80 13 22 26 58 30 80 4 21 15 55 25 75
15 30 46 171 82 380 13 75 4 575 -11 620 -6 19 -20 90 -31 158 -11 68 -27 136
-34 151 -8 15 -22 56 -31 91 -9 35 -25 80 -36 99 -10 20 -28 56 -39 81 -39 86
-92 174 -153 255 -33 44 -229 236 -273 268 -78 56 -140 94 -164 102 -14 4 -41
18 -60 31 -19 12 -50 25 -69 29 -18 4 -56 17 -85 30 -28 12 -85 28 -126 34
-41 6 -99 18 -128 27 -105 30 -364 41 -557 24z m470 -457 c28 -11 76 -26 107
-32 31 -7 67 -20 80 -30 13 -10 40 -23 60 -30 20 -7 42 -19 49 -27 7 -9 26
-22 43 -31 89 -45 240 -230 306 -373 11 -25 31 -67 44 -95 13 -27 27 -67 30
-88 4 -21 18 -70 31 -110 58 -178 56 -805 -4 -962 -10 -27 -22 -70 -26 -95 -4
-25 -18 -67 -31 -95 -13 -27 -33 -70 -44 -95 -52 -111 -91 -167 -185 -263 -79
-81 -109 -105 -180 -143 -27 -14 -57 -32 -65 -39 -8 -7 -35 -18 -60 -25 -25
-7 -64 -21 -88 -31 -64 -30 -197 -42 -382 -36 -135 4 -176 9 -225 26 -33 12
-84 29 -114 37 -29 8 -70 25 -90 37 -20 13 -48 29 -62 37 -73 42 -98 60 -163
116 -74 63 -169 171 -189 214 -6 14 -22 38 -34 53 -13 16 -23 36 -23 45 0 9
-13 45 -30 79 -16 35 -34 89 -40 120 -5 32 -19 81 -29 109 -25 66 -41 238 -41
444 1 213 14 346 44 440 14 41 28 91 31 110 4 19 15 49 25 66 9 17 23 48 30
70 7 21 22 55 35 74 12 19 31 49 41 66 69 114 203 256 293 311 61 37 218 113
233 113 8 0 41 9 74 21 95 33 139 38 324 35 148 -3 183 -6 225 -23z"/>
<path d="M48470 24551 c-19 -4 -52 -15 -73 -24 -20 -9 -65 -21 -100 -28 -34
-7 -78 -20 -97 -29 -19 -10 -55 -24 -80 -31 -172 -52 -401 -222 -487 -363 -10
-15 -29 -45 -42 -65 -13 -20 -30 -56 -38 -81 -7 -24 -23 -65 -36 -90 -21 -42
-22 -58 -22 -260 l0 -215 33 -77 c17 -42 32 -80 32 -85 0 -5 13 -27 30 -49 16
-21 30 -44 30 -49 1 -29 183 -194 285 -259 39 -24 86 -54 105 -66 19 -13 53
-29 75 -37 21 -7 46 -20 55 -27 8 -7 40 -21 70 -31 30 -10 62 -24 71 -31 9 -8
40 -21 70 -30 30 -9 68 -24 84 -34 17 -10 50 -24 75 -30 25 -7 56 -20 70 -30
14 -9 43 -23 65 -30 22 -7 51 -21 65 -30 14 -10 42 -25 63 -34 22 -9 52 -27
69 -41 16 -14 36 -25 43 -25 7 0 46 -33 87 -74 63 -63 78 -85 107 -159 32 -80
33 -91 29 -184 -3 -77 -8 -106 -25 -133 -11 -19 -26 -51 -32 -71 -21 -66 -153
-168 -243 -188 -26 -6 -71 -21 -100 -33 -50 -22 -66 -23 -288 -23 -229 1 -237
2 -313 28 -43 15 -88 27 -101 27 -12 0 -45 11 -72 25 -27 14 -72 32 -101 40
-29 8 -55 20 -58 26 -4 5 -30 21 -58 34 -76 36 -139 73 -163 96 -15 14 -32 19
-55 17 l-34 -3 -3 -248 c-1 -153 2 -255 8 -267 5 -10 34 -32 64 -48 65 -35
281 -107 351 -117 28 -3 86 -16 130 -28 72 -20 104 -22 340 -22 240 0 265 2
330 22 39 12 98 26 133 32 35 6 86 21 115 34 29 14 68 28 87 32 19 4 55 20 79
36 25 16 48 29 53 29 5 0 41 19 81 43 80 47 233 193 267 254 11 21 27 49 35
63 64 114 105 285 105 436 0 96 -30 266 -56 314 -13 25 -24 50 -24 56 0 16
-78 130 -119 173 -47 49 -169 151 -212 176 -113 66 -148 86 -179 100 -19 9
-62 29 -94 45 -32 17 -65 30 -73 30 -8 0 -33 11 -56 24 -23 13 -61 29 -84 35
-23 6 -61 23 -85 36 -24 14 -50 25 -58 25 -8 0 -44 14 -80 31 -174 84 -253
125 -262 137 -6 6 -16 12 -24 12 -18 0 -99 72 -137 122 -43 57 -87 189 -87
263 0 36 10 88 27 139 55 163 152 246 370 319 112 37 113 37 281 37 111 0 184
-5 217 -14 28 -7 82 -21 120 -31 39 -9 93 -26 120 -37 28 -11 70 -27 95 -36
25 -8 56 -23 70 -32 14 -10 45 -27 70 -38 25 -12 52 -27 61 -33 31 -23 47 -4
54 66 10 90 0 383 -13 418 -7 15 -26 33 -44 41 -18 8 -60 26 -94 40 -34 14
-95 31 -136 36 -42 6 -107 20 -144 31 -59 17 -104 21 -314 24 -135 2 -261 1
-280 -4z"/>
<path d="M30745 24445 l-25 -24 0 -1614 0 -1614 21 -27 20 -26 229 0 c216 0
230 1 240 19 7 13 10 543 10 1643 0 1453 -2 1626 -16 1646 -15 22 -19 22 -235
22 l-220 0 -24 -25z"/>
<path d="M42660 24450 c-24 -24 -25 -41 -6 -78 8 -16 20 -57 26 -92 6 -35 20
-80 30 -99 10 -20 25 -71 34 -114 8 -42 22 -91 31 -107 8 -16 22 -61 30 -100
8 -39 22 -84 30 -100 8 -16 22 -62 30 -101 9 -40 24 -92 35 -116 11 -24 24
-71 30 -103 6 -32 19 -78 30 -102 10 -24 25 -75 34 -115 8 -39 22 -85 30 -102
9 -16 23 -62 31 -101 8 -39 22 -84 30 -100 9 -16 23 -65 31 -107 9 -43 24 -94
34 -114 10 -19 23 -63 30 -97 6 -33 19 -80 30 -104 10 -24 25 -75 34 -115 8
-39 22 -85 30 -102 9 -16 23 -62 31 -101 8 -39 22 -84 30 -100 9 -16 23 -65
31 -107 9 -43 24 -94 34 -114 10 -19 23 -63 30 -97 6 -33 20 -81 30 -106 11
-24 25 -68 30 -98 5 -29 21 -82 34 -118 14 -36 30 -90 36 -120 6 -30 25 -84
43 -120 l32 -65 233 -3 234 -2 32 32 c25 25 36 48 45 95 6 35 20 82 31 105 10
24 25 75 34 115 8 39 22 85 30 102 9 16 23 62 31 101 8 39 21 83 29 99 8 15
24 61 35 102 20 75 45 155 82 264 11 33 30 93 41 134 10 41 26 87 34 102 8 16
21 60 29 99 8 39 23 87 33 108 11 20 25 66 31 102 7 35 21 81 31 100 10 20 23
62 29 93 6 32 20 79 31 104 11 26 27 77 35 114 7 37 20 80 29 96 8 16 21 65
30 109 8 43 22 97 31 118 9 22 23 73 31 115 15 80 70 201 90 201 16 0 31 -49
39 -130 4 -36 16 -88 26 -116 11 -28 26 -87 33 -130 8 -44 23 -101 34 -129 11
-27 23 -75 27 -105 4 -30 18 -82 31 -115 13 -32 29 -88 35 -123 5 -36 17 -78
25 -94 8 -16 24 -69 34 -118 10 -49 25 -102 33 -117 8 -15 22 -63 31 -106 8
-42 23 -91 31 -108 9 -17 23 -64 30 -105 8 -41 22 -88 31 -105 8 -17 22 -63
30 -102 9 -40 24 -91 34 -115 11 -24 24 -70 30 -104 6 -33 20 -83 31 -111 11
-28 26 -83 34 -123 8 -40 21 -86 30 -103 8 -17 24 -70 34 -118 17 -80 54 -189
74 -220 12 -19 496 -18 520 0 10 7 25 39 33 72 9 33 22 72 30 87 8 15 21 59
29 98 8 39 22 84 30 100 9 16 23 65 31 107 9 43 24 94 34 114 10 19 23 63 30
97 6 33 19 80 30 104 10 24 25 75 34 115 8 39 22 85 30 102 9 16 23 62 31 101
8 39 22 84 30 100 9 16 23 65 31 107 9 43 24 94 34 113 9 19 22 63 29 97 7 35
20 82 31 105 10 24 25 75 34 115 8 39 22 85 30 102 9 16 23 62 31 101 8 39 22
84 30 100 9 16 23 65 31 107 9 43 24 94 34 113 9 19 22 63 29 97 7 35 21 83
32 107 11 25 24 71 30 103 6 32 22 84 35 115 13 32 24 68 24 80 0 13 12 55 26
93 14 39 32 100 39 138 8 37 21 80 30 97 22 42 47 160 40 187 -3 14 -16 25
-32 29 -42 11 -444 -4 -459 -17 -8 -6 -17 -27 -20 -48 -4 -20 -15 -55 -25 -79
-10 -23 -25 -79 -33 -125 -8 -45 -23 -104 -34 -132 -11 -27 -23 -75 -27 -105
-4 -30 -18 -86 -31 -125 -13 -38 -29 -98 -35 -133 -5 -36 -17 -78 -25 -95 -9
-16 -24 -72 -35 -124 -10 -51 -25 -106 -33 -122 -8 -15 -20 -59 -27 -97 -6
-38 -22 -96 -34 -129 -12 -33 -28 -91 -34 -129 -7 -38 -19 -82 -27 -98 -8 -16
-22 -64 -30 -106 -8 -42 -26 -109 -39 -149 -14 -39 -25 -84 -25 -100 0 -15
-12 -59 -25 -98 -14 -38 -32 -109 -40 -157 -9 -47 -22 -103 -31 -124 -8 -20
-22 -76 -29 -123 -8 -47 -23 -111 -34 -141 -10 -30 -22 -78 -26 -107 -7 -56
-26 -90 -43 -79 -6 3 -16 32 -22 64 -7 31 -21 84 -31 118 -11 33 -26 101 -34
150 -8 50 -21 107 -30 126 -8 20 -21 76 -29 125 -8 48 -23 111 -34 138 -11 28
-25 80 -31 117 -6 37 -20 87 -30 111 -10 23 -24 76 -31 117 -7 41 -21 94 -31
117 -10 24 -24 74 -30 111 -7 37 -22 94 -34 127 -13 33 -26 83 -30 110 -4 28
-18 75 -30 105 -12 30 -28 85 -34 121 -6 37 -20 87 -30 110 -11 24 -25 73 -31
108 -6 35 -20 85 -30 110 -10 25 -25 83 -33 128 -9 45 -22 94 -31 110 -8 16
-22 69 -31 116 -9 48 -25 106 -35 130 -10 23 -22 64 -26 91 -4 31 -15 58 -30
73 -23 23 -27 23 -233 23 -182 0 -212 -2 -226 -17 -25 -25 -61 -111 -75 -178
-7 -33 -20 -76 -30 -95 -10 -20 -24 -65 -31 -100 -6 -36 -20 -82 -31 -102 -10
-21 -25 -68 -32 -105 -8 -38 -24 -88 -34 -113 -11 -25 -26 -72 -32 -105 -7
-33 -20 -76 -30 -95 -10 -20 -23 -61 -29 -92 -5 -31 -21 -82 -34 -115 -13 -32
-27 -78 -31 -101 -4 -24 -17 -69 -30 -100 -13 -32 -27 -77 -31 -102 -4 -25
-18 -70 -30 -100 -13 -30 -28 -81 -35 -113 -6 -32 -20 -78 -31 -102 -11 -24
-24 -70 -30 -102 -6 -32 -22 -84 -35 -115 -13 -32 -24 -68 -24 -80 0 -13 -14
-60 -30 -106 -16 -46 -32 -104 -36 -130 -3 -26 -17 -75 -30 -110 -13 -34 -28
-89 -34 -123 -6 -33 -27 -100 -47 -150 -50 -126 -60 -122 -75 38 -5 59 -20
139 -32 177 -13 39 -27 96 -31 126 -4 30 -18 81 -31 113 -12 32 -26 79 -29
105 -4 26 -20 86 -36 134 -16 47 -29 96 -29 108 0 12 -11 54 -25 93 -13 40
-31 108 -40 152 -9 43 -23 92 -31 108 -9 15 -21 64 -29 107 -8 43 -21 93 -30
110 -9 17 -23 66 -31 108 -8 42 -26 109 -39 149 -14 39 -25 82 -25 95 0 13
-12 55 -26 93 -13 39 -31 102 -39 141 -7 39 -21 88 -30 110 -9 21 -23 75 -31
118 -9 44 -22 93 -30 109 -9 16 -22 66 -31 110 -14 79 -36 143 -71 217 l-17
35 -237 3 c-227 2 -239 1 -258 -18z"/>
<path d="M14387 23248 c-16 -12 -17 -97 -17 -1278 -1 -1231 0 -1265 18 -1281
27 -21 221 -57 382 -69 74 -6 171 -20 216 -30 44 -11 136 -24 205 -30 68 -6
169 -19 224 -30 55 -11 164 -26 242 -35 78 -8 170 -22 206 -30 35 -8 136 -21
223 -30 87 -8 184 -22 214 -30 30 -8 127 -22 215 -30 88 -9 203 -24 255 -35
52 -10 147 -24 210 -30 63 -6 160 -20 215 -31 145 -28 267 -36 283 -17 9 12
12 331 10 1494 l-3 1478 -25 13 c-36 19 -3048 19 -3073 1z"/>
<path d="M17880 23211 c-13 -25 -15 -3000 -1 -3014 5 -5 40 -13 78 -17 37 -4
115 -17 173 -29 58 -11 159 -25 225 -30 66 -6 158 -19 205 -30 47 -11 146 -25
220 -31 74 -6 172 -19 217 -30 45 -11 153 -26 240 -35 87 -8 185 -22 218 -30
33 -8 127 -22 208 -30 81 -8 191 -24 245 -35 53 -10 149 -24 212 -30 63 -6
158 -19 210 -30 52 -10 149 -24 215 -30 66 -6 161 -20 210 -30 50 -10 144 -23
210 -30 66 -6 164 -20 217 -31 53 -10 161 -26 240 -34 79 -8 173 -21 210 -30
36 -8 126 -22 200 -30 132 -15 133 -15 151 6 16 20 17 115 15 1794 -3 1484 -5
1775 -17 1788 -12 16 -168 17 -2052 17 -1996 0 -2039 0 -2049 -19z"/>
</g>
</svg>
