<?xml version="1.0" standalone="no"?>
<!DOCTYPE svg PUBLIC "-//W3C//DTD SVG 20010904//EN"
 "http://www.w3.org/TR/2001/REC-SVG-20010904/DTD/svg10.dtd">
<svg version="1.0" xmlns="http://www.w3.org/2000/svg"
 width="7030.000000pt" height="4687.000000pt" viewBox="0 0 7030.000000 4687.000000"
 preserveAspectRatio="xMidYMid meet">
<metadata>
Created by potrace 1.16, written by Peter Selinger 2001-2019
</metadata>
<g transform="translate(0.000000,4687.000000) scale(0.100000,-0.100000)"
fill="#ffffff" stroke="none">
<path d="M27790 25880 c-253 -10 -308 -15 -415 -40 -44 -10 -118 -24 -164 -30
-46 -6 -106 -20 -133 -31 -27 -10 -70 -24 -96 -29 -85 -18 -255 -99 -377 -179
-104 -68 -259 -228 -305 -314 -9 -18 -24 -45 -33 -62 -42 -81 -78 -165 -87
-207 -5 -26 -19 -70 -30 -98 -11 -29 -25 -97 -31 -153 -5 -56 -16 -130 -24
-165 -28 -122 -35 -334 -35 -1132 0 -802 7 -1021 34 -1142 8 -34 20 -109 25
-165 6 -56 20 -124 31 -153 11 -28 25 -72 30 -98 9 -42 45 -126 87 -207 9 -16
24 -44 33 -62 29 -54 63 -95 157 -189 100 -100 154 -143 222 -174 23 -11 54
-29 68 -39 13 -11 38 -23 55 -26 17 -4 58 -20 92 -36 34 -16 71 -29 83 -29 13
0 52 -11 88 -25 35 -13 102 -29 147 -35 46 -6 119 -20 163 -31 163 -39 343
-44 1740 -44 1396 0 1556 5 1721 44 45 11 120 25 168 31 47 6 105 19 129 29
24 10 70 24 103 31 32 7 75 20 94 31 19 10 60 28 92 39 31 11 62 27 68 35 7 8
18 15 25 15 7 0 47 23 90 52 90 59 236 201 265 258 11 21 24 41 29 44 13 8
101 188 101 205 0 8 11 37 24 65 13 28 27 71 31 96 4 25 17 90 31 145 54 227
88 997 73 1665 -11 487 -38 846 -73 995 -14 55 -27 120 -31 145 -4 25 -18 68
-31 96 -13 28 -24 57 -24 65 0 17 -88 197 -101 205 -5 3 -18 23 -29 44 -39 77
-290 300 -337 300 -5 0 -28 12 -49 27 -21 14 -59 32 -83 39 -24 8 -57 22 -75
33 -17 11 -56 24 -86 29 -30 6 -76 20 -103 31 -26 11 -87 25 -135 31 -48 6
-122 20 -164 31 -43 11 -138 24 -210 30 -162 13 -2528 20 -2838 9z m2670 -489
c74 -6 196 -16 271 -21 99 -7 155 -17 207 -35 39 -14 81 -25 93 -25 39 0 203
-87 261 -140 115 -103 163 -205 221 -470 l41 -185 0 -1080 0 -1080 -41 -185
c-58 -265 -99 -353 -215 -463 -64 -61 -222 -147 -269 -147 -13 0 -55 -11 -93
-25 -72 -25 -139 -33 -486 -57 -261 -18 -2403 -18 -2685 0 -313 20 -425 32
-474 52 -25 10 -71 23 -103 29 -104 22 -254 112 -321 194 -49 60 -113 184
-122 236 -4 24 -18 74 -30 110 -16 46 -26 110 -34 211 -6 80 -17 201 -23 270
-7 80 -11 389 -11 850 0 582 3 769 17 950 20 272 31 355 50 401 8 19 22 66 30
103 9 38 24 80 34 95 10 14 23 39 30 54 47 108 239 248 380 278 32 6 77 19
102 29 57 22 407 51 770 64 235 8 2278 -3 2400 -13z"/>
<path d="M18380 25781 c-15 -29 -13 -444 2 -459 9 -9 498 -12 2141 -12 1448 0
2134 -3 2148 -10 26 -14 24 -34 -5 -54 -14 -8 -36 -26 -49 -38 -30 -28 -73
-64 -177 -148 -45 -36 -130 -105 -190 -155 -60 -49 -148 -121 -195 -160 -48
-38 -133 -108 -190 -155 -57 -47 -127 -104 -157 -128 -106 -86 -120 -97 -148
-122 -43 -38 -87 -74 -185 -152 -49 -39 -108 -87 -130 -105 -51 -44 -73 -62
-180 -148 -48 -38 -149 -122 -225 -185 -75 -63 -161 -133 -190 -155 -29 -22
-101 -80 -161 -130 -59 -49 -144 -119 -189 -155 -45 -36 -94 -76 -110 -90 -16
-14 -68 -56 -115 -95 -48 -38 -135 -110 -195 -160 -59 -49 -125 -103 -146
-120 -79 -64 -124 -100 -260 -213 -77 -64 -164 -135 -193 -157 -28 -22 -116
-94 -195 -160 -79 -66 -167 -138 -196 -160 -29 -22 -65 -51 -81 -65 -16 -14
-66 -55 -111 -92 -46 -37 -132 -108 -193 -158 -60 -50 -126 -104 -145 -120
-19 -16 -51 -42 -70 -57 -19 -16 -50 -39 -67 -52 -49 -33 -55 -69 -51 -302 2
-156 6 -210 17 -222 12 -16 218 -17 2740 -17 2108 0 2730 3 2739 12 9 9 12 74
12 233 0 159 -3 224 -12 233 -9 9 -534 12 -2299 12 -1462 0 -2297 4 -2313 10
-14 5 -26 13 -26 18 0 8 55 57 158 140 19 15 47 38 62 52 16 14 55 45 86 70
31 25 89 71 128 103 39 32 86 70 104 85 19 15 47 38 63 52 16 14 49 41 74 60
78 60 191 152 234 190 15 14 52 43 81 65 29 22 112 90 184 150 72 61 158 130
191 155 32 25 107 86 166 135 59 50 144 119 189 155 45 36 131 106 190 155 59
50 129 106 155 125 26 19 60 46 75 60 32 28 176 145 284 232 76 61 89 71 207
170 42 35 100 81 129 103 28 22 66 52 83 67 65 56 93 80 142 118 80 63 241
195 300 245 13 11 47 38 75 60 29 22 101 81 160 130 59 50 131 108 160 130 29
22 115 92 190 155 75 63 161 133 190 155 29 22 101 81 161 130 170 142 242
200 270 218 54 35 60 71 57 306 -3 197 -4 214 -22 227 -17 12 -388 14 -2593
14 -2533 0 -2572 0 -2583 -19z"/>
<path d="M34749 25784 c-10 -13 -15 -66 -17 -223 -4 -189 -3 -208 14 -228 l19
-22 2040 -5 c1235 -3 2068 -8 2110 -14 63 -9 114 -17 335 -53 36 -6 78 -19 95
-29 16 -10 44 -21 61 -24 49 -11 132 -87 171 -157 43 -78 59 -169 73 -425 10
-203 0 -505 -24 -677 -13 -89 -22 -120 -52 -174 -57 -101 -125 -161 -229 -201
-102 -40 -146 -51 -265 -68 -63 -8 -162 -22 -220 -30 -88 -13 -421 -16 -2105
-20 -1854 -5 -2001 -6 -2013 -22 -19 -25 -13 -2302 7 -2325 12 -15 44 -17 276
-17 232 0 264 2 276 17 12 13 14 171 16 921 2 622 6 909 13 916 8 8 387 12
1230 14 l1219 2 58 -48 c54 -46 362 -329 409 -376 11 -12 78 -75 149 -141 71
-66 145 -136 165 -155 51 -49 255 -238 386 -357 61 -56 129 -119 151 -140 22
-21 100 -94 173 -163 73 -69 147 -138 164 -155 67 -64 283 -264 320 -296 l39
-34 406 0 c365 0 406 2 409 16 3 18 -60 83 -269 279 -73 69 -147 139 -165 155
-95 90 -157 148 -339 315 -110 101 -209 193 -221 204 -11 12 -78 75 -149 141
-71 66 -145 136 -165 155 -19 19 -94 89 -165 155 -71 66 -163 152 -205 190
-41 39 -113 104 -159 147 -69 63 -82 80 -76 98 4 11 18 25 31 30 13 5 122 19
241 30 136 12 256 30 318 45 55 14 111 25 125 25 14 0 63 14 110 30 46 17 91
30 100 30 9 0 47 16 86 35 38 19 74 35 80 35 6 0 28 13 50 30 21 16 44 30 49
30 6 0 42 30 81 68 72 69 147 169 159 212 4 14 16 36 25 50 10 14 23 55 30 90
6 36 17 85 25 110 31 100 37 214 33 717 -4 478 -5 500 -25 558 -12 33 -26 83
-32 110 -11 54 -61 161 -101 215 -44 59 -153 161 -200 186 -25 13 -52 28 -60
34 -30 19 -146 63 -205 77 -33 8 -89 24 -125 35 -36 11 -148 28 -250 39 -102
11 -210 25 -240 31 -40 8 -630 12 -2146 15 -1942 3 -2092 2 -2105 -13z"/>
<path d="M42826 25778 c-14 -20 -16 -259 -16 -2343 0 -2084 2 -2323 16 -2343
15 -22 18 -22 275 -22 l260 0 24 25 25 24 0 2316 0 2316 -25 24 -24 25 -260 0
c-257 0 -260 0 -275 -22z"/>
<path d="M46189 25783 c-12 -13 -14 -386 -14 -2348 0 -1962 2 -2335 14 -2348
12 -15 44 -17 276 -17 232 0 264 2 276 17 12 13 14 348 17 2081 1 1472 5 2069
13 2078 17 21 65 -4 130 -67 31 -30 103 -97 159 -149 57 -52 118 -108 135
-125 17 -16 96 -88 175 -160 79 -71 158 -143 175 -160 18 -16 76 -70 130 -120
54 -49 114 -106 134 -125 52 -50 306 -285 446 -411 28 -25 91 -83 140 -130 50
-46 112 -104 140 -129 27 -25 65 -61 85 -80 55 -53 260 -243 400 -369 69 -63
155 -141 191 -175 36 -33 121 -113 189 -176 68 -63 138 -128 155 -145 18 -16
79 -73 136 -125 57 -52 138 -126 179 -165 42 -38 120 -110 175 -160 54 -49
114 -106 134 -125 33 -32 198 -185 355 -331 34 -31 106 -96 161 -146 55 -50
121 -110 146 -134 26 -24 91 -84 145 -134 54 -49 125 -117 158 -149 34 -33 94
-88 134 -123 l72 -63 377 2 377 3 13 25 c19 37 19 4633 0 4670 l-13 25 -264 3
c-240 2 -266 1 -277 -15 -10 -13 -13 -435 -13 -2031 0 -1369 -3 -2020 -10
-2033 -6 -10 -17 -19 -24 -19 -7 0 -51 37 -98 83 -47 45 -159 152 -249 237
-469 444 -950 904 -1084 1035 -34 33 -137 132 -230 220 -92 88 -175 167 -184
176 -9 8 -90 85 -180 170 -90 85 -188 177 -216 204 -29 28 -128 122 -220 210
-92 88 -209 201 -259 250 -104 101 -414 397 -551 525 -103 97 -438 416 -530
505 -184 177 -393 377 -448 427 l-62 58 -501 0 c-454 0 -503 -2 -515 -17z"/>
</g>
</svg>
