<?xml version="1.0" standalone="no"?>
<!DOCTYPE svg PUBLIC "-//W3C//DTD SVG 20010904//EN"
 "http://www.w3.org/TR/2001/REC-SVG-20010904/DTD/svg10.dtd">
<svg version="1.0" xmlns="http://www.w3.org/2000/svg"
 width="7030.000000pt" height="4687.000000pt" viewBox="0 0 7030.000000 4687.000000"
 preserveAspectRatio="xMidYMid meet">
<metadata>
Created by potrace 1.16, written by Peter Selinger 2001-2019
</metadata>
<g transform="translate(0.000000,4687.000000) scale(0.100000,-0.100000)"
fill="#000000" stroke="none">
<path d="M31482 29771 c-24 -18 -44 -43 -52 -65 -6 -19 -18 -40 -26 -47 -8 -6
-25 -33 -38 -58 -48 -94 -74 -141 -94 -166 -12 -15 -24 -36 -28 -48 -3 -12
-17 -36 -29 -53 -13 -16 -30 -46 -39 -65 -9 -19 -34 -63 -56 -99 -22 -36 -49
-84 -60 -107 -11 -23 -24 -45 -29 -47 -5 -3 -20 -29 -35 -58 -15 -29 -45 -82
-66 -118 -22 -36 -49 -84 -59 -106 -11 -23 -24 -45 -31 -49 -6 -4 -22 -30 -36
-58 -13 -29 -40 -77 -59 -107 -19 -30 -46 -78 -59 -107 -14 -28 -30 -54 -36
-58 -6 -4 -22 -30 -36 -58 -13 -29 -40 -77 -59 -107 -19 -30 -44 -73 -55 -96
-10 -22 -28 -52 -39 -65 -10 -13 -26 -40 -36 -59 -20 -43 -73 -135 -103 -180
-29 -45 -37 -79 -23 -93 16 -16 9645 -23 9685 -7 32 12 33 34 1 85 -21 35 -44
76 -103 180 -9 17 -27 46 -40 66 -25 40 -60 103 -91 164 -11 22 -31 55 -45 74
-15 19 -26 40 -26 47 0 7 -11 25 -24 41 -13 15 -33 48 -45 73 -23 48 -61 113
-98 171 -13 18 -23 39 -23 46 0 6 -11 24 -24 40 -13 15 -31 44 -40 63 -8 19
-34 64 -55 100 -22 36 -52 89 -67 118 -15 29 -30 55 -35 58 -5 2 -18 24 -29
47 -11 23 -38 71 -60 107 -22 36 -47 81 -56 100 -9 19 -25 46 -35 59 -11 13
-28 43 -39 65 -11 23 -38 70 -60 106 -22 36 -48 81 -56 100 -9 19 -23 43 -32
54 -10 10 -26 37 -37 59 -11 23 -35 52 -54 64 l-34 23 -3627 0 -3627 0 -41
-29z"/>
<path d="M29081 25559 c-42 -9 -61 -26 -83 -76 -10 -23 -23 -45 -29 -49 -6 -4
-22 -30 -35 -59 -12 -29 -28 -56 -34 -60 -7 -4 -20 -26 -31 -49 -10 -22 -37
-70 -59 -106 -22 -36 -51 -88 -64 -117 -14 -28 -30 -54 -35 -57 -6 -4 -20 -26
-31 -49 -11 -23 -38 -71 -60 -107 -22 -36 -47 -81 -56 -100 -9 -19 -25 -46
-35 -59 -11 -13 -29 -43 -40 -65 -11 -23 -37 -70 -59 -106 -22 -36 -47 -81
-56 -100 -9 -19 -25 -46 -35 -59 -11 -13 -29 -43 -40 -65 -22 -45 -61 -112
-96 -167 -13 -18 -23 -39 -23 -45 0 -6 -10 -24 -22 -39 -23 -29 -46 -68 -93
-162 -14 -29 -31 -56 -37 -59 -6 -4 -21 -30 -34 -59 -12 -29 -28 -56 -33 -59
-6 -4 -20 -26 -31 -49 -11 -23 -38 -73 -60 -111 -22 -38 -40 -79 -40 -91 0
-12 18 -53 40 -91 22 -38 49 -88 60 -111 11 -23 25 -45 31 -49 5 -3 21 -30 33
-59 13 -29 28 -55 34 -59 6 -3 23 -30 37 -59 47 -94 70 -133 93 -162 12 -15
22 -33 22 -39 0 -6 12 -29 27 -51 30 -43 60 -96 92 -161 11 -22 29 -52 40 -65
10 -13 26 -40 35 -59 9 -19 34 -64 56 -100 22 -36 48 -83 59 -106 11 -22 29
-52 40 -65 10 -13 26 -40 35 -59 9 -19 34 -64 56 -100 22 -36 49 -84 60 -107
11 -23 25 -45 31 -49 5 -3 21 -29 35 -57 13 -29 42 -81 64 -117 22 -36 48 -81
56 -100 9 -19 27 -48 40 -63 13 -16 24 -34 24 -40 0 -7 10 -28 23 -46 12 -19
33 -55 47 -80 34 -61 68 -72 118 -38 20 14 48 28 62 32 14 5 39 18 55 30 17
12 46 27 65 34 19 6 43 20 55 30 11 10 37 24 57 30 20 7 42 19 49 28 7 8 36
26 64 39 27 13 61 31 75 39 14 9 36 20 50 26 14 5 54 28 90 49 36 22 92 53
125 70 33 17 87 46 120 65 33 18 83 45 110 60 28 14 77 42 110 60 33 19 83 46
110 60 28 15 77 42 110 60 33 19 87 48 120 65 33 17 87 47 120 65 33 19 83 46
110 60 28 15 77 42 110 60 33 19 83 46 112 60 28 14 56 32 63 40 6 8 28 19 48
26 20 6 51 21 67 34 17 12 46 27 65 34 19 6 43 20 55 30 11 10 36 24 55 31 19
7 42 19 50 26 8 7 40 25 70 41 30 16 64 34 75 41 11 7 31 16 45 22 14 5 54 28
90 50 36 22 93 53 126 69 34 16 64 34 68 39 3 6 23 16 44 23 20 6 46 19 57 29
11 10 40 27 65 39 25 12 77 40 115 61 39 22 93 51 120 65 28 14 77 41 110 61
33 19 83 46 110 60 28 14 77 41 110 59 111 62 170 94 230 126 101 52 140 74
171 96 16 11 39 23 51 27 12 4 37 17 56 30 19 13 50 29 69 35 20 7 43 20 53
31 10 11 34 24 54 31 20 6 43 18 52 25 9 8 42 28 75 44 60 31 136 72 234 128
30 17 78 42 106 55 28 14 54 29 58 35 3 6 23 16 44 23 20 6 44 18 53 26 17 14
77 48 184 103 33 17 87 46 120 65 33 19 83 46 110 60 28 15 77 42 110 60 33
19 80 44 105 56 25 12 59 32 75 44 17 13 41 26 55 30 14 4 39 17 55 30 17 12
47 27 67 34 21 7 41 17 44 23 4 6 30 21 58 35 28 14 78 40 111 59 33 19 80 44
105 56 25 13 59 33 75 44 17 12 41 25 55 29 14 4 39 17 55 30 17 12 51 31 76
42 26 12 49 25 53 31 3 6 23 16 44 23 20 6 48 20 61 31 14 10 43 28 65 39 23
11 70 36 106 55 36 20 90 49 120 66 30 16 82 44 115 63 33 18 83 45 110 60 28
14 77 42 110 60 33 19 83 46 110 60 28 15 82 44 120 65 39 21 86 47 105 57 19
10 49 28 65 39 17 12 47 27 67 33 21 7 40 17 44 22 3 6 30 21 60 34 56 25 63
35 40 54 -10 8 -989 12 -3834 14 -2102 1 -3835 -1 -3851 -4z"/>
<path d="M41189 25531 c-14 -10 -40 -26 -59 -35 -19 -9 -66 -34 -105 -56 -38
-22 -92 -51 -120 -66 -27 -14 -77 -41 -110 -59 -33 -19 -87 -48 -120 -65 -33
-18 -83 -44 -111 -58 -28 -15 -59 -33 -68 -41 -15 -13 -41 -27 -141 -77 -16
-8 -41 -21 -55 -29 -14 -8 -51 -28 -82 -44 -31 -17 -59 -35 -62 -40 -4 -5 -23
-15 -44 -22 -20 -6 -50 -21 -67 -34 -16 -12 -47 -27 -67 -34 -20 -7 -42 -18
-48 -26 -7 -8 -35 -26 -63 -40 -29 -14 -79 -41 -112 -60 -33 -18 -82 -45 -110
-60 -27 -14 -77 -41 -110 -60 -33 -19 -88 -47 -121 -64 -34 -16 -64 -34 -68
-39 -3 -6 -23 -16 -44 -23 -20 -6 -46 -19 -57 -29 -11 -10 -40 -27 -65 -39
-25 -12 -72 -37 -105 -55 -33 -18 -86 -47 -117 -65 -85 -46 -165 -90 -233
-127 -33 -18 -80 -43 -105 -55 -25 -12 -54 -29 -65 -39 -11 -9 -36 -23 -55
-30 -19 -7 -42 -19 -50 -26 -8 -6 -37 -23 -65 -36 -53 -26 -173 -94 -190 -108
-5 -4 -21 -11 -35 -15 -14 -4 -38 -17 -55 -30 -16 -12 -46 -27 -66 -34 -20 -6
-44 -20 -54 -31 -10 -11 -34 -24 -54 -31 -20 -6 -45 -19 -56 -29 -11 -10 -40
-27 -65 -39 -25 -11 -74 -37 -110 -57 -36 -20 -90 -50 -120 -67 -30 -16 -82
-44 -115 -63 -33 -18 -82 -44 -110 -59 -27 -14 -77 -41 -110 -60 -33 -19 -87
-48 -120 -65 -33 -17 -87 -46 -120 -65 -177 -99 -275 -152 -330 -179 -28 -13
-57 -31 -64 -39 -7 -9 -35 -23 -62 -32 -27 -9 -52 -21 -55 -27 -4 -6 -30 -21
-58 -35 -28 -13 -80 -41 -116 -63 -36 -21 -84 -48 -108 -59 -24 -11 -54 -29
-68 -40 -14 -11 -38 -22 -53 -26 -16 -3 -37 -15 -46 -25 -10 -11 -34 -24 -54
-31 -20 -6 -45 -20 -56 -29 -11 -10 -40 -26 -65 -36 -25 -9 -54 -25 -65 -34
-11 -9 -36 -23 -55 -30 -19 -7 -44 -21 -55 -30 -11 -10 -40 -27 -65 -39 -25
-12 -72 -37 -105 -56 -33 -18 -82 -45 -110 -60 -27 -14 -81 -44 -120 -65 -38
-22 -92 -51 -120 -65 -27 -14 -77 -41 -110 -60 -33 -18 -82 -46 -110 -60 -27
-15 -81 -44 -120 -66 -38 -21 -86 -46 -105 -55 -19 -9 -44 -24 -55 -35 -11
-10 -41 -25 -65 -34 -24 -9 -54 -24 -65 -34 -11 -10 -37 -24 -57 -30 -21 -7
-40 -17 -44 -22 -3 -5 -31 -23 -62 -40 -72 -38 -105 -56 -164 -90 -25 -15 -57
-30 -70 -34 -12 -5 -37 -18 -54 -31 -17 -13 -35 -24 -40 -24 -6 0 -32 -14 -60
-31 -27 -18 -62 -36 -79 -42 -16 -5 -39 -18 -50 -28 -12 -10 -36 -24 -55 -31
-19 -6 -46 -20 -60 -30 -29 -21 -99 -59 -150 -83 -56 -25 -65 -31 -68 -47 -2
-9 5 -18 14 -22 9 -3 1743 -6 3852 -6 3481 0 3838 2 3860 16 13 9 33 35 43 59
11 24 24 47 30 51 6 4 22 30 35 59 12 29 28 56 34 60 7 4 20 26 31 49 10 22
37 70 59 106 21 36 51 89 66 118 15 29 30 55 35 58 5 2 18 24 29 47 11 23 38
71 60 107 22 36 47 80 56 99 9 19 26 49 38 65 13 17 29 45 35 63 7 18 19 37
27 44 7 6 25 34 39 62 42 83 69 131 90 163 12 16 29 45 38 64 10 19 33 60 52
90 19 30 46 78 59 107 14 28 30 54 36 58 7 4 20 26 31 49 10 22 37 70 59 106
22 36 51 88 64 117 14 28 30 54 36 58 7 4 20 26 31 49 11 22 38 72 59 110 22
38 40 79 40 91 0 12 -18 53 -40 91 -22 38 -47 85 -56 104 -9 19 -25 46 -35 59
-11 13 -29 43 -40 65 -11 23 -37 70 -59 106 -22 36 -48 84 -59 106 -11 23 -24
45 -31 49 -6 4 -22 30 -36 58 -13 29 -40 77 -59 107 -19 30 -42 71 -52 90 -9
19 -26 48 -38 64 -21 32 -48 80 -90 163 -14 28 -32 56 -39 62 -8 7 -20 26 -27
44 -7 18 -22 45 -33 62 -12 16 -29 46 -39 65 -10 19 -35 64 -57 100 -22 36
-47 81 -56 100 -9 19 -25 46 -35 59 -11 13 -28 43 -39 65 -11 23 -38 70 -60
106 -22 36 -49 84 -59 106 -11 23 -24 45 -31 49 -6 4 -22 30 -36 58 -45 95
-82 152 -106 164 -31 17 -41 16 -69 -6z"/>
<path d="M30313 19180 c-13 -5 -23 -16 -23 -25 0 -19 36 -91 49 -100 5 -3 22
-29 36 -58 36 -72 68 -129 91 -163 11 -16 28 -45 37 -64 10 -19 33 -60 52 -90
19 -30 46 -78 59 -107 14 -28 30 -54 36 -58 7 -4 20 -26 31 -49 10 -22 37 -70
59 -106 22 -36 51 -88 64 -117 14 -28 30 -54 36 -58 7 -4 20 -26 31 -49 11
-22 37 -70 59 -106 22 -36 47 -81 57 -100 10 -19 27 -49 39 -65 11 -17 26 -44
33 -62 7 -18 19 -37 27 -44 7 -6 25 -34 39 -62 44 -86 69 -132 91 -163 12 -16
24 -39 28 -51 4 -12 16 -33 28 -48 11 -14 30 -45 43 -68 49 -94 77 -143 90
-157 7 -8 20 -31 28 -52 9 -20 32 -47 53 -62 l39 -26 3626 0 3626 0 34 23 c19
12 43 40 54 63 11 22 29 53 40 70 12 16 26 40 33 54 6 14 30 54 52 90 22 36
51 88 64 117 14 28 30 54 36 58 7 4 20 26 31 49 11 22 37 70 59 106 21 36 51
89 66 118 14 29 30 55 35 58 5 2 18 24 29 47 11 23 38 71 60 107 22 36 48 84
59 106 11 23 25 45 31 49 6 4 21 28 32 54 10 25 26 53 34 62 13 14 36 56 87
154 11 22 31 53 44 68 13 16 23 34 23 41 0 7 11 28 26 47 14 19 34 52 45 74
31 61 66 124 91 164 13 20 31 50 40 66 59 104 82 145 103 180 32 51 31 73 -1
85 -33 13 -9640 12 -9671 0z"/>
</g>
</svg>
